<?xml version="1.0" encoding="UTF-8"?>
<svg id="Ebene_1" data-name="Ebene 1" xmlns="http://www.w3.org/2000/svg" viewBox="0 0 120.2 105.05">
  <defs>
    <style>
      .cls-1 {
        fill: #5c4843;
      }

      .cls-1, .cls-2, .cls-3, .cls-4 {
        stroke-width: 0px;
      }

      .cls-2 {
        fill: #f5c2b6;
      }

      .cls-3 {
        fill: #fc593d;
      }

      .cls-4 {
        fill: #b0b93c;
      }
    </style>
  </defs>
  <path class="cls-1" d="m57.6,49.61c4.85-3.55,5.57-10.43,4.41-16.02,0,0-.68-2.68-.68-2.68l1.27,2.49c2.92,6.17,3.18,14.21-1.46,19.69-.11.12-.19.22-.37.39l-3.17-3.86h0Z"/>
  <path class="cls-3" d="m28.52,48c20.54-22.39,29.09,3.43,34.01,2.16,19.4-5.02,33.15,7.13,25.74,23.25-7.41,16.12-25.18,24.28-43.33,16.56-18.15-7.72-28.5-28.79-16.42-41.96Z"/>
  <ellipse class="cls-2" cx="41.28" cy="51.41" rx="6.69" ry="3.86" transform="translate(-21.7 31.89) rotate(-34.02)"/>
  <path class="cls-4" d="m63.88,46.06s-.38-6.85,1.86-8.82c8.06-7.11,18.55-4.87,18.55-4.87,0,0-2.39,10.71-8.39,13.86-6.04,3.17-12.02-.16-12.02-.16Z"/>
</svg>