<?xml version="1.0" encoding="UTF-8"?>
<svg id="Ebene_1" data-name="Ebene 1" xmlns="http://www.w3.org/2000/svg" viewBox="0 0 92.93 78.79">
  <defs>
    <style>
      .cls-1 {
        fill: #e7a241;
      }

      .cls-1, .cls-2, .cls-3 {
        stroke-width: 0px;
      }

      .cls-2 {
        fill: #b66217;
      }

      .cls-3 {
        fill: #ffae3f;
      }
    </style>
  </defs>
  <ellipse class="cls-1" cx="38" cy="40.99" rx="18.4" ry="23.76"/>
  <path class="cls-2" d="m44.18,10.75c.03.24.08.47.15.67.06.2.12.33.21.52.18.36.35.6.55.87-.06.15-.16.28-.21.45l-.16.55c-.19.78-.3,1.67-.37,2.57-.05.91-.07,1.85-.04,2.79.01.47.03.94.06,1.41-.58.51-1.13,1.03-1.88,1.6-.85-.41-1.47-.88-2.12-1.36-.03-.52-.05-1.04-.07-1.56-.02-1.04-.01-2.09.05-3.15.08-1.07.21-2.16.48-3.3l.26-.87c.12-.3.24-.62.36-.92.41-.18.89-.34,1.32-.4.46-.07.98-.02,1.39.13Z"/>
  <ellipse class="cls-3" cx="48.76" cy="40.99" rx="18.4" ry="23.76"/>
</svg>