<?xml version="1.0" encoding="UTF-8"?>
<svg id="Layer_5" data-name="Layer 5" xmlns="http://www.w3.org/2000/svg" viewBox="0 0 475.91 468.18">
  <defs>
    <style>
      .cls-1 {
        fill: none;
        stroke: #cf763b;
        stroke-miterlimit: 10;
        stroke-width: 22px;
      }

      .cls-2 {
        fill: #cf773c;
      }

      .cls-2, .cls-3 {
        stroke-width: 0px;
      }

      .cls-3 {
        fill: #f4a638;
      }
    </style>
  </defs>
  <path class="cls-2" d="m30.39,111.7h0c0-7.73,6.27-14,14-14,0,0,148.88,2,198.5,2,63.25,0,195.1-2,195.1-2,7.73,0,14,6.27,14,14h0c0,7.73-6.27,14-14,14H44.39c-7.73,0-14-6.27-14-14Z"/>
  <g>
    <path class="cls-1" d="m342.71,102.16c10.09-98.08,111.09-96.52,91.02-.29"/>
    <path class="cls-3" d="m332.46,98.15s22.01-9.08,24.64-15.92c1.58-4.1,3.24-11.5,9.98-20.11,5.69-7.28-26.31,8.01-30.35,16.46-1.81,3.79-4.28,19.57-4.28,19.57Z"/>
    <path class="cls-3" d="m344.99,56.36s20.13-9.36,32.68-8.07c1.02.1,9.36-6.46,19.85-8.29,2.01-.35-24.79-13.71-40.27-1.13-3.16,2.57-12.26,17.49-12.26,17.49Z"/>
    <path class="cls-3" d="m391.08,18.9c25.42,8.67,13.02,20.21,19.71,24.75,6.3,4.27,6.93,3.77,11.15,12.15.97,1.93,10.46-24.16-6.33-34.63-6.9-4.3-26.28-2.86-24.53-2.27Z"/>
    <path class="cls-3" d="m438.69,42.88c2.01,23.45-10.97,27.94-12.45,36.3-1.61,9.12-1.15,10.41-2.6,18.59-.38,2.15,21.72-7.28,22.79-28.1.48-9.32-7.92-28.75-7.75-26.79Z"/>
  </g>
  <g>
    <path class="cls-1" d="m141.86,101.69c-10.84-98.08-119.35-96.52-97.79-.29"/>
    <path class="cls-3" d="m152.87,97.68s-23.64-9.08-26.48-15.92c-1.7-4.1-3.48-11.5-10.73-20.11-6.12-7.28,28.27,8.01,32.61,16.46,1.94,3.79,4.59,19.57,4.59,19.57Z"/>
    <path class="cls-3" d="m139.4,55.88s-21.63-9.36-35.11-8.07c-1.09.1-10.05-6.46-21.33-8.29-2.16-.35,26.63-13.71,43.27-1.13,3.39,2.57,13.17,17.49,13.17,17.49Z"/>
    <path class="cls-3" d="m89.89,18.42c-27.31,8.67-13.98,20.21-21.18,24.75-6.77,4.27-7.45,3.77-11.98,12.15-1.04,1.93-11.23-24.16,6.8-34.63,7.41-4.3,28.24-2.86,26.36-2.27Z"/>
    <path class="cls-3" d="m38.74,42.4c-2.16,23.45,11.79,27.94,13.38,36.3,1.73,9.12,1.24,10.41,2.79,18.59.41,2.15-23.34-7.28-24.49-28.1-.51-9.32,8.51-28.75,8.32-26.79Z"/>
  </g>
  <g>
    <rect class="cls-2" x="31.88" y="129.71" width="421.97" height="27"/>
    <path class="cls-3" d="m33.46,137.04c-5.98-3.54-8.08-33.43-1.58-30.79,25.1,10.2,42.48,8.21,64.88,0,6.59-2.42,6.55,24.15,1.54,28.82-9.47,8.83-52.73,9.13-64.84,1.97Z"/>
    <path class="cls-3" d="m104.46,137.04c-5.98-3.54-8.08-33.43-1.58-30.79,25.1,10.2,42.48,8.21,64.88,0,6.59-2.42,6.55,24.15,1.54,28.82-9.47,8.83-52.73,9.13-64.84,1.97Z"/>
    <path class="cls-3" d="m174.46,137.04c-5.98-3.54-8.08-33.43-1.58-30.79,25.1,10.2,42.48,8.21,64.88,0,6.59-2.42,6.55,24.15,1.54,28.82-9.47,8.83-52.73,9.13-64.84,1.97Z"/>
    <path class="cls-3" d="m244.25,137.04c-5.98-3.54-8.08-33.43-1.58-30.79,25.1,10.2,42.48,8.21,64.88,0,6.59-2.42,6.55,24.15,1.54,28.82-9.47,8.83-52.73,9.13-64.84,1.97Z"/>
    <path class="cls-3" d="m315.03,137.04c-5.98-3.54-8.08-33.43-1.58-30.79,25.1,10.2,42.48,8.21,64.88,0,6.59-2.42,6.55,24.15,1.54,28.82-9.47,8.83-52.73,9.13-64.84,1.97Z"/>
    <path class="cls-3" d="m386.51,137.04c-5.98-3.54-8.08-33.43-1.58-30.79,25.1,10.2,42.48,8.21,64.88,0,6.59-2.42,6.55,24.15,1.54,28.82-9.47,8.83-52.73,9.13-64.84,1.97Z"/>
    <rect class="cls-2" x="89.35" y="103.83" width="21" height="38.25" rx="8.04" ry="8.04"/>
    <rect class="cls-2" x="159.79" y="103.83" width="21" height="38.25" rx="8.04" ry="8.04"/>
    <rect class="cls-2" x="230.68" y="104.96" width="21" height="38.25" rx="8.04" ry="8.04"/>
    <rect class="cls-2" x="302.18" y="104.96" width="21" height="38.25" rx="8.04" ry="8.04"/>
    <rect class="cls-2" x="371.02" y="104.96" width="21" height="38.25" rx="8.04" ry="8.04"/>
  </g>
  <g>
    <rect class="cls-2" x="31.57" y="169.95" width="421.97" height="27"/>
    <path class="cls-3" d="m33.32,182.32c-6.91-.74-8.41-36.7-1.67-34.79,9.11,2.58,6.36,7,28.75-1.21,6.59-2.42,8.63,26.67,2.64,29.99-11.13,6.17-17.71,7.3-29.72,6.01Z"/>
    <path class="cls-3" d="m454.06,182.15c6.82-1.33,5.26-37.29-1.3-34.81-8.86,3.35-5.74,7.52-28.75,1.24-6.77-1.85-6.33,27.3-.08,30.1,11.62,5.21,18.26,5.77,30.13,3.46Z"/>
    <path class="cls-3" d="m68.61,177.28c-5.98-3.54-8.08-33.43-1.58-30.79,25.1,10.2,42.48,8.21,64.88,0,6.59-2.42,6.55,24.15,1.54,28.82-9.47,8.83-52.73,9.13-64.84,1.97Z"/>
    <path class="cls-3" d="m138.61,177.28c-5.98-3.54-8.08-33.43-1.58-30.79,25.1,10.2,42.48,8.21,64.88,0,6.59-2.42,6.55,24.15,1.54,28.82-9.47,8.83-52.73,9.13-64.84,1.97Z"/>
    <path class="cls-3" d="m208.4,177.28c-5.98-3.54-8.08-33.43-1.58-30.79,25.1,10.2,42.48,8.21,64.88,0,6.59-2.42,6.55,24.15,1.54,28.82-9.47,8.83-52.73,9.13-64.84,1.97Z"/>
    <path class="cls-3" d="m279.18,177.28c-5.98-3.54-8.08-33.43-1.58-30.79,25.1,10.2,42.48,8.21,64.88,0,6.59-2.42,6.55,24.15,1.54,28.82-9.47,8.83-52.73,9.13-64.84,1.97Z"/>
    <path class="cls-3" d="m350.66,177.28c-5.98-3.54-8.08-33.43-1.58-30.79,25.1,10.2,42.48,8.21,64.88,0,6.59-2.42,6.55,24.15,1.54,28.82-9.47,8.83-52.73,9.13-64.84,1.97Z"/>
    <rect class="cls-2" x="53.51" y="144.07" width="21" height="38.25" rx="8.04" ry="8.04"/>
    <rect class="cls-2" x="123.94" y="144.07" width="21" height="38.25" rx="8.04" ry="8.04"/>
    <rect class="cls-2" x="194.83" y="145.2" width="21" height="38.25" rx="8.04" ry="8.04"/>
    <rect class="cls-2" x="266.33" y="145.2" width="21" height="38.25" rx="8.04" ry="8.04"/>
    <rect class="cls-2" x="335.18" y="145.2" width="21" height="38.25" rx="8.04" ry="8.04"/>
    <rect class="cls-2" x="405.53" y="144.07" width="21" height="38.25" rx="8.04" ry="8.04"/>
  </g>
  <g>
    <rect class="cls-2" x="31.88" y="209.71" width="421.97" height="27"/>
    <path class="cls-3" d="m33.46,217.04c-5.98-3.54-8.08-33.43-1.58-30.79,25.1,10.2,42.48,8.21,64.88,0,6.59-2.42,6.55,24.15,1.54,28.82-9.47,8.83-52.73,9.13-64.84,1.97Z"/>
    <path class="cls-3" d="m104.46,217.04c-5.98-3.54-8.08-33.43-1.58-30.79,25.1,10.2,42.48,8.21,64.88,0,6.59-2.42,6.55,24.15,1.54,28.82-9.47,8.83-52.73,9.13-64.84,1.97Z"/>
    <path class="cls-3" d="m174.46,217.04c-5.98-3.54-8.08-33.43-1.58-30.79,25.1,10.2,42.48,8.21,64.88,0,6.59-2.42,6.55,24.15,1.54,28.82-9.47,8.83-52.73,9.13-64.84,1.97Z"/>
    <path class="cls-3" d="m244.25,217.04c-5.98-3.54-8.08-33.43-1.58-30.79,25.1,10.2,42.48,8.21,64.88,0,6.59-2.42,6.55,24.15,1.54,28.82-9.47,8.83-52.73,9.13-64.84,1.97Z"/>
    <path class="cls-3" d="m315.03,217.04c-5.98-3.54-8.08-33.43-1.58-30.79,25.1,10.2,42.48,8.21,64.88,0,6.59-2.42,6.55,24.15,1.54,28.82-9.47,8.83-52.73,9.13-64.84,1.97Z"/>
    <path class="cls-3" d="m386.51,217.04c-5.98-3.54-8.08-33.43-1.58-30.79,25.1,10.2,42.48,8.21,64.88,0,6.59-2.42,6.55,24.15,1.54,28.82-9.47,8.83-52.73,9.13-64.84,1.97Z"/>
    <rect class="cls-2" x="89.35" y="183.83" width="21" height="38.25" rx="8.04" ry="8.04"/>
    <rect class="cls-2" x="159.79" y="183.83" width="21" height="38.25" rx="8.04" ry="8.04"/>
    <rect class="cls-2" x="230.68" y="184.96" width="21" height="38.25" rx="8.04" ry="8.04"/>
    <rect class="cls-2" x="302.18" y="184.96" width="21" height="38.25" rx="8.04" ry="8.04"/>
    <rect class="cls-2" x="371.02" y="184.96" width="21" height="38.25" rx="8.04" ry="8.04"/>
  </g>
  <g>
    <rect class="cls-2" x="31.57" y="249.95" width="421.97" height="27"/>
    <path class="cls-3" d="m33.32,262.32c-6.91-.74-8.41-36.7-1.67-34.79,9.11,2.58,6.36,7,28.75-1.21,6.59-2.42,8.63,26.67,2.64,29.99-11.13,6.17-17.71,7.3-29.72,6.01Z"/>
    <path class="cls-3" d="m454.06,262.15c6.82-1.33,5.26-37.29-1.3-34.81-8.86,3.35-5.74,7.52-28.75,1.24-6.77-1.85-6.33,27.3-.08,30.1,11.62,5.21,18.26,5.77,30.13,3.46Z"/>
    <path class="cls-3" d="m68.61,257.28c-5.98-3.54-8.08-33.43-1.58-30.79,25.1,10.2,42.48,8.21,64.88,0,6.59-2.42,6.55,24.15,1.54,28.82-9.47,8.83-52.73,9.13-64.84,1.97Z"/>
    <path class="cls-3" d="m138.61,257.28c-5.98-3.54-8.08-33.43-1.58-30.79,25.1,10.2,42.48,8.21,64.88,0,6.59-2.42,6.55,24.15,1.54,28.82-9.47,8.83-52.73,9.13-64.84,1.97Z"/>
    <path class="cls-3" d="m208.4,257.28c-5.98-3.54-8.08-33.43-1.58-30.79,25.1,10.2,42.48,8.21,64.88,0,6.59-2.42,6.55,24.15,1.54,28.82-9.47,8.83-52.73,9.13-64.84,1.97Z"/>
    <path class="cls-3" d="m279.18,257.28c-5.98-3.54-8.08-33.43-1.58-30.79,25.1,10.2,42.48,8.21,64.88,0,6.59-2.42,6.55,24.15,1.54,28.82-9.47,8.83-52.73,9.13-64.84,1.97Z"/>
    <path class="cls-3" d="m350.66,257.28c-5.98-3.54-8.08-33.43-1.58-30.79,25.1,10.2,42.48,8.21,64.88,0,6.59-2.42,6.55,24.15,1.54,28.82-9.47,8.83-52.73,9.13-64.84,1.97Z"/>
    <rect class="cls-2" x="53.51" y="224.07" width="21" height="38.25" rx="8.04" ry="8.04"/>
    <rect class="cls-2" x="123.94" y="224.07" width="21" height="38.25" rx="8.04" ry="8.04"/>
    <rect class="cls-2" x="194.83" y="225.2" width="21" height="38.25" rx="8.04" ry="8.04"/>
    <rect class="cls-2" x="266.33" y="225.2" width="21" height="38.25" rx="8.04" ry="8.04"/>
    <rect class="cls-2" x="335.18" y="225.2" width="21" height="38.25" rx="8.04" ry="8.04"/>
    <rect class="cls-2" x="405.53" y="224.07" width="21" height="38.25" rx="8.04" ry="8.04"/>
  </g>
  <g>
    <rect class="cls-2" x="30.4" y="288.17" width="421.97" height="27"/>
    <path class="cls-3" d="m31.98,295.5c-5.98-3.54-8.08-33.43-1.58-30.79,25.1,10.2,42.48,8.21,64.88,0,6.59-2.42,6.55,24.15,1.54,28.82-9.47,8.83-52.73,9.13-64.84,1.97Z"/>
    <path class="cls-3" d="m102.98,295.5c-5.98-3.54-8.08-33.43-1.58-30.79,25.1,10.2,42.48,8.21,64.88,0,6.59-2.42,6.55,24.15,1.54,28.82-9.47,8.83-52.73,9.13-64.84,1.97Z"/>
    <path class="cls-3" d="m172.98,295.5c-5.98-3.54-8.08-33.43-1.58-30.79,25.1,10.2,42.48,8.21,64.88,0,6.59-2.42,6.55,24.15,1.54,28.82-9.47,8.83-52.73,9.13-64.84,1.97Z"/>
    <path class="cls-3" d="m242.77,295.5c-5.98-3.54-8.08-33.43-1.58-30.79,25.1,10.2,42.48,8.21,64.88,0,6.59-2.42,6.55,24.15,1.54,28.82-9.47,8.83-52.73,9.13-64.84,1.97Z"/>
    <path class="cls-3" d="m313.55,295.5c-5.98-3.54-8.08-33.43-1.58-30.79,25.1,10.2,42.48,8.21,64.88,0,6.59-2.42,6.55,24.15,1.54,28.82-9.47,8.83-52.73,9.13-64.84,1.97Z"/>
    <path class="cls-3" d="m385.03,295.5c-5.98-3.54-8.08-33.43-1.58-30.79,25.1,10.2,42.48,8.21,64.88,0,6.59-2.42,6.55,24.15,1.54,28.82-9.47,8.83-52.73,9.13-64.84,1.97Z"/>
    <rect class="cls-2" x="87.87" y="262.3" width="21" height="38.25" rx="8.04" ry="8.04"/>
    <rect class="cls-2" x="158.31" y="262.3" width="21" height="38.25" rx="8.04" ry="8.04"/>
    <rect class="cls-2" x="229.2" y="263.42" width="21" height="38.25" rx="8.04" ry="8.04"/>
    <rect class="cls-2" x="300.7" y="263.42" width="21" height="38.25" rx="8.04" ry="8.04"/>
    <rect class="cls-2" x="369.55" y="263.42" width="21" height="38.25" rx="8.04" ry="8.04"/>
  </g>
  <g>
    <rect class="cls-2" x="30.09" y="328.42" width="421.97" height="27"/>
    <path class="cls-3" d="m31.85,340.79c-6.91-.74-8.41-36.7-1.67-34.79,9.11,2.58,6.36,7,28.75-1.21,6.59-2.42,8.63,26.67,2.64,29.99-11.13,6.17-17.71,7.3-29.72,6.01Z"/>
    <path class="cls-3" d="m452.58,340.62c6.82-1.33,5.26-37.29-1.3-34.81-8.86,3.35-5.74,7.52-28.75,1.24-6.77-1.85-6.33,27.3-.08,30.1,11.62,5.21,18.26,5.77,30.13,3.46Z"/>
    <path class="cls-3" d="m67.14,335.75c-5.98-3.54-8.08-33.43-1.58-30.79,25.1,10.2,42.48,8.21,64.88,0,6.59-2.42,6.55,24.15,1.54,28.82-9.47,8.83-52.73,9.13-64.84,1.97Z"/>
    <path class="cls-3" d="m137.14,335.75c-5.98-3.54-8.08-33.43-1.58-30.79,25.1,10.2,42.48,8.21,64.88,0,6.59-2.42,6.55,24.15,1.54,28.82-9.47,8.83-52.73,9.13-64.84,1.97Z"/>
    <path class="cls-3" d="m206.92,335.75c-5.98-3.54-8.08-33.43-1.58-30.79,25.1,10.2,42.48,8.21,64.88,0,6.59-2.42,6.55,24.15,1.54,28.82-9.47,8.83-52.73,9.13-64.84,1.97Z"/>
    <path class="cls-3" d="m277.71,335.75c-5.98-3.54-8.08-33.43-1.58-30.79,25.1,10.2,42.48,8.21,64.88,0,6.59-2.42,6.55,24.15,1.54,28.82-9.47,8.83-52.73,9.13-64.84,1.97Z"/>
    <path class="cls-3" d="m349.18,335.75c-5.98-3.54-8.08-33.43-1.58-30.79,25.1,10.2,42.48,8.21,64.88,0,6.59-2.42,6.55,24.15,1.54,28.82-9.47,8.83-52.73,9.13-64.84,1.97Z"/>
    <rect class="cls-2" x="52.03" y="302.54" width="21" height="38.25" rx="8.04" ry="8.04"/>
    <rect class="cls-2" x="122.46" y="302.54" width="21" height="38.25" rx="8.04" ry="8.04"/>
    <rect class="cls-2" x="193.35" y="303.67" width="21" height="38.25" rx="8.04" ry="8.04"/>
    <rect class="cls-2" x="264.85" y="303.67" width="21" height="38.25" rx="8.04" ry="8.04"/>
    <rect class="cls-2" x="333.7" y="303.67" width="21" height="38.25" rx="8.04" ry="8.04"/>
    <rect class="cls-2" x="404.06" y="302.54" width="21" height="38.25" rx="8.04" ry="8.04"/>
  </g>
  <g>
    <polygon class="cls-2" points="100.42 447.93 30.4 368.17 452.37 368.17 374.37 447.93 100.42 447.93"/>
    <path class="cls-3" d="m31.98,375.5c-5.98-3.54-8.08-33.43-1.58-30.79,25.1,10.2,42.48,8.21,64.88,0,6.59-2.42,6.55,24.15,1.54,28.82-9.47,8.83-52.73,9.13-64.84,1.97Z"/>
    <path class="cls-3" d="m102.98,375.5c-5.98-3.54-8.08-33.43-1.58-30.79,25.1,10.2,42.48,8.21,64.88,0,6.59-2.42,6.55,24.15,1.54,28.82-9.47,8.83-52.73,9.13-64.84,1.97Z"/>
    <path class="cls-3" d="m172.98,375.5c-5.98-3.54-8.08-33.43-1.58-30.79,25.1,10.2,42.48,8.21,64.88,0,6.59-2.42,6.55,24.15,1.54,28.82-9.47,8.83-52.73,9.13-64.84,1.97Z"/>
    <path class="cls-3" d="m242.77,375.5c-5.98-3.54-8.08-33.43-1.58-30.79,25.1,10.2,42.48,8.21,64.88,0,6.59-2.42,6.55,24.15,1.54,28.82-9.47,8.83-52.73,9.13-64.84,1.97Z"/>
    <path class="cls-3" d="m313.55,375.5c-5.98-3.54-8.08-33.43-1.58-30.79,25.1,10.2,42.48,8.21,64.88,0,6.59-2.42,6.55,24.15,1.54,28.82-9.47,8.83-52.73,9.13-64.84,1.97Z"/>
    <path class="cls-3" d="m385.03,375.5c-5.98-3.54-8.08-33.43-1.58-30.79,25.1,10.2,42.48,8.21,64.88,0,6.59-2.42,6.55,24.15,1.54,28.82-9.47,8.83-52.73,9.13-64.84,1.97Z"/>
    <rect class="cls-2" x="87.87" y="342.3" width="21" height="38.25" rx="8.04" ry="8.04"/>
    <rect class="cls-2" x="158.31" y="342.3" width="21" height="38.25" rx="8.04" ry="8.04"/>
    <rect class="cls-2" x="229.2" y="343.42" width="21" height="38.25" rx="8.04" ry="8.04"/>
    <rect class="cls-2" x="300.7" y="343.42" width="21" height="38.25" rx="8.04" ry="8.04"/>
    <rect class="cls-2" x="369.55" y="343.42" width="21" height="38.25" rx="8.04" ry="8.04"/>
  </g>
  <g>
    <path class="cls-2" d="m52.03,390.58c0-4.44,3.6-8.04,8.04-8.04h4.93"/>
    <path class="cls-3" d="m79.08,427.42c-5.98-3.54-41.38-39.38-27.05-36.84,26.68,4.72,44.95,8.21,67.34,0,6.59-2.42,16.13,25.54,11.13,30.21-9.47,8.83-39.32,13.79-51.42,6.63Z"/>
    <path class="cls-3" d="m137.14,419.9c-5.98-3.54-8.08-33.43-1.58-30.79,25.1,10.2,42.48,8.21,64.88,0,6.59-2.42,6.55,24.15,1.54,28.82-9.47,8.83-52.73,9.13-64.84,1.97Z"/>
    <path class="cls-3" d="m208.27,419.9c-5.98-3.54-8.08-33.43-1.58-30.79,25.1,10.2,42.48,8.21,64.88,0,6.59-2.42,6.55,24.15,1.54,28.82-9.47,8.83-52.73,9.13-64.84,1.97Z"/>
    <path class="cls-3" d="m278.21,419.9c-5.98-3.54-8.08-33.43-1.58-30.79,25.1,10.2,42.48,8.21,64.88,0,6.59-2.42,6.55,24.15,1.54,28.82-9.47,8.83-52.73,9.13-64.84,1.97Z"/>
    <path class="cls-3" d="m350.3,421.04c-5.98-3.54-10.49-32.04-3.67-30.46,27.87,6.45,63.03,6.57,85.42-1.64,6.59-2.42-20.76,31.88-31.04,37.12-11.53,5.88-38.61,2.14-50.71-5.03Z"/>
    <rect class="cls-2" x="121.07" y="385.69" width="21" height="42.5" rx="8.04" ry="8.04"/>
    <rect class="cls-2" x="192.2" y="387.82" width="21" height="38.25" rx="8.04" ry="8.04"/>
    <rect class="cls-2" x="264.85" y="383.67" width="21" height="38.25" rx="8.04" ry="8.04"/>
    <rect class="cls-2" x="333.7" y="383.67" width="21" height="38.25" rx="8.04" ry="8.04"/>
  </g>
</svg>