<?xml version="1.0" encoding="UTF-8"?>
<svg id="Ebene_1" data-name="Ebene 1" xmlns="http://www.w3.org/2000/svg" viewBox="0 0 120.2 120.2">
  <defs>
    <style>
      .cls-1 {
        fill: #5c4843;
      }

      .cls-1, .cls-2, .cls-3 {
        stroke-width: 0px;
      }

      .cls-2 {
        fill: #5d4944;
      }

      .cls-3 {
        fill: #dce27d;
      }
    </style>
  </defs>
  <ellipse class="cls-3" cx="61.93" cy="85.14" rx="20.15" ry="22.91" transform="translate(-42.3 100.02) rotate(-62.09)"/>
  <path class="cls-3" d="m60.23,83.85c8.4-4.93,26.14-2.07,3.14-26.86-14.79-15.95-23.66-16.5-27.04-14.87-3,1.45-9.43,6.23-2.38,27.24,9.74,29.06,13.59,21.94,26.28,14.49Z"/>
  <ellipse class="cls-2" cx="38.23" cy="45.4" rx="3.88" ry="2.04" transform="translate(-15.84 20.92) rotate(-25.54)"/>
  <path class="cls-1" d="m36.42,47.12c-3.51-4.92-5.18-12.47-.6-17.19-1.23,2.49-1.38,5.29-.34,7.8.96,2.28,2.63,4.44,4.55,5.94,0,0-3.62,3.45-3.62,3.45h0Z"/>
</svg>