<?xml version="1.0" encoding="UTF-8"?>
<svg id="Ebene_2" data-name="Ebene 2" xmlns="http://www.w3.org/2000/svg" viewBox="0 0 153.5 153.5">
  <defs>
    <style>
      .cls-1 {
        fill: #fff;
      }

      .cls-1, .cls-2 {
        stroke-width: 0px;
      }

      .cls-2 {
        fill: #4e7eb3;
      }
    </style>
  </defs>
  <g id="Memory">
    <g>
      <g>
        <rect class="cls-1" x="1" y="1" width="151.5" height="151.5" rx="5.37" ry="5.37"/>
        <path class="cls-2" d="m147.13,2c2.41,0,4.37,1.96,4.37,4.37v140.76c0,2.41-1.96,4.37-4.37,4.37H6.37c-2.41,0-4.37-1.96-4.37-4.37V6.37c0-2.41,1.96-4.37,4.37-4.37h140.76m0-2H6.37C2.85,0,0,2.85,0,6.37v140.76c0,3.52,2.85,6.37,6.37,6.37h140.76c3.52,0,6.37-2.85,6.37-6.37V6.37c0-3.52-2.85-6.37-6.37-6.37h0Z"/>
      </g>
      <g>
        <path class="cls-2" d="m107.87,70.1c2.5,0,4.38,1.05,5.39,2.52v-6.2h2.5v15.82h-2.5v-2.07c-1,1.45-2.89,2.5-5.39,2.5-3.8,0-6.33-2.48-6.33-6.26s2.52-6.31,6.33-6.31Zm.64,10.45c1.95,0,3.63-.68,4.75-2.42v-3.51c-1.11-1.73-2.8-2.39-4.75-2.39-2.91,0-4.53,1.47-4.53,4.17s1.62,4.15,4.53,4.15Z"/>
        <path class="cls-2" d="m87.91,70.53v7.2c1,1.92,2.69,2.86,4.7,2.86,2.33,0,3.51-1.24,3.51-3.55v-6.52h2.48v6.69c0,3.16-1.77,5.45-5.34,5.45-2.39,0-4.32-1.03-5.34-2.69v2.27h-2.5v-11.71h2.5Z"/>
        <path class="cls-2" d="m73.73,79.85c.71.38,1.45.71,2.33.71,1.22,0,2.22-.64,2.22-1.95v-6.09h-5.11v-1.99h5.11v-2.71h2.5v2.71h2.27v1.99h-2.27v6.5c0,2.44-1.82,3.66-4.1,3.66-1.35,0-2.65-.45-3.61-1.09l.66-1.73Z"/>
        <path class="cls-2" d="m62.94,79.85c.71.38,1.45.71,2.33.71,1.22,0,2.22-.64,2.22-1.95v-6.09h-5.11v-1.99h5.11v-2.71h2.5v2.71h2.27v1.99h-2.27v6.5c0,2.44-1.82,3.66-4.1,3.66-1.35,0-2.65-.45-3.61-1.09l.66-1.73Z"/>
        <path class="cls-2" d="m58.45,76.94h-11.63c-.04-.13-.06-.28-.06-.56,0-4.1,2.74-6.31,6.95-6.31,4.51,0,7.21,2.44,7.21,6.33s-2.69,6.28-7.38,6.28c-2.74,0-4.77-.66-6.37-2.09l1.45-1.56c1.28,1.13,2.63,1.69,4.79,1.69,2.95,0,4.81-1.24,5.04-3.78Zm-4.77-4.9c-2.31,0-3.98.96-4.51,3.1l9.17.02c-.47-2.07-2.2-3.12-4.66-3.12Z"/>
        <path class="cls-2" d="m41.35,82.24v-6.48c-.79-2.2-2.93-3.29-5.54-3.29v-2.18c2.42,0,4.6,1.03,5.54,2.91v-2.67h2.5v11.71h-2.5Z"/>
      </g>
    </g>
  </g>
</svg>