<?xml version="1.0" encoding="UTF-8"?>
<svg xmlns="http://www.w3.org/2000/svg" xmlns:xlink="http://www.w3.org/1999/xlink" viewBox="0 0 166.59 151.31">
  <defs>
    <style>
      .cls-1 {
        opacity: .27;
      }

      .cls-1, .cls-2, .cls-3, .cls-4, .cls-5, .cls-6 {
        stroke-width: 0px;
      }

      .cls-1, .cls-2, .cls-3, .cls-5 {
        mix-blend-mode: multiply;
      }

      .cls-1, .cls-4 {
        fill: #ba8e4c;
      }

      .cls-7 {
        isolation: isolate;
      }

      .cls-2 {
        fill: url(#Unbenannter_Verlauf_72);
      }

      .cls-2, .cls-3 {
        opacity: .39;
      }

      .cls-3 {
        fill: url(#Unbenannter_Verlauf_72-2);
      }

      .cls-5 {
        fill: url(#Unbenannter_Verlauf_10);
        opacity: .17;
      }

      .cls-6 {
        fill: #6a3b00;
      }
    </style>
    <linearGradient id="Unbenannter_Verlauf_72" data-name="Unbenannter Verlauf 72" x1="0" y1="107.04" x2="166.59" y2="107.04" gradientUnits="userSpaceOnUse">
      <stop offset="0" stop-color="#b56500"/>
      <stop offset=".5" stop-color="#b56500" stop-opacity=".3"/>
      <stop offset="1" stop-color="#b56500"/>
    </linearGradient>
    <linearGradient id="Unbenannter_Verlauf_10" data-name="Unbenannter Verlauf 10" x1="83.29" y1="53.42" x2="83.29" y2="82.32" gradientUnits="userSpaceOnUse">
      <stop offset="0" stop-color="#6a3b00"/>
      <stop offset=".07" stop-color="rgba(106, 59, 0, .85)" stop-opacity=".85"/>
      <stop offset=".17" stop-color="rgba(106, 59, 0, .69)" stop-opacity=".69"/>
      <stop offset=".31" stop-color="rgba(106, 59, 0, .58)" stop-opacity=".58"/>
      <stop offset=".49" stop-color="rgba(106, 59, 0, .52)" stop-opacity=".52"/>
      <stop offset="1" stop-color="#6a3b00" stop-opacity=".5"/>
    </linearGradient>
    <linearGradient id="Unbenannter_Verlauf_72-2" data-name="Unbenannter Verlauf 72" x1="27.63" y1="43.24" x2="138.96" y2="43.24" xlink:href="#Unbenannter_Verlauf_72"/>
  </defs>
  <g class="cls-7">
    <g id="Ebene_2" data-name="Ebene 2">
      <g id="Memory">
        <g>
          <path class="cls-4" d="M166.59,63.02v68.49c0,10.93-37.3,19.8-83.3,19.8S0,142.45,0,131.52V63.02C0,52.09,37.29,43.24,83.29,43.24s83.3,8.86,83.3,19.79Z"/>
          <path class="cls-1" d="M10.45,108.9c-1.05,3.67,2.59,7.36,6.29,6.29,2.76-.72,4.42-3.53,3.7-6.29-1.44-5.29-1.7-10.61-1.96-15.99,4.97-2.85,10.02-3.93,13.48,3.16-.27,7.18-.66,14.27-2.12,21.41-.84,3.9,2.84,7.61,6.76,6.76,3.12-.61,5.16-3.64,4.54-6.76-.71-3.49-1.17-6.97-1.48-10.45-.57-6.34,4.09-12.01,10.43-12.64,9.76-.97,21.95.4,29.77,2.39,4.62,1.17,7.76,5.41,7.52,10.17-.04.71-.08,1.43-.12,2.14-.28,5.68-1,11.34-1.24,17.02.39,3.85,3.95,6.6,7.82,5.95,3.51-.59,5.89-3.95,5.53-7.49-.52-5.16-.86-10.32-1.22-15.48-.13-2.25-.22-4.52-.31-6.8-.06-1.57.71-3.05,2.01-3.93.04-.03.08-.06.13-.08,4.34-2.87,10.09.41,9.86,5.61-.24,5.4-.65,10.78-1.68,16.14-.67,3.3,2.42,6.41,5.73,5.74,2.68-.49,4.44-3.06,3.95-5.74-.94-4.87-1.36-9.75-1.61-14.65-.21-4.1,2.19-7.89,5.99-9.44,6.83-2.78,12.98-4.45,18.24-4.64,4.79-.17,8.39,4.32,7.13,8.94l-.02.08c-1.05,3.67,2.59,7.36,6.29,6.29,2.76-.72,4.42-3.53,3.7-6.29l-.03-.1c-1.3-4.81.17-9.89,3.71-13.4,1.91-1.89,2.78-3.93,5.34-6.34v-14.52c0-10.93-37.3-19.79-83.3-19.79S0,55.03,0,65.96v14.52l6.31,5.3c4.39,3.68,6.49,9.42,5.52,15.07l-1.38,8.06Z"/>
          <path class="cls-6" d="M10.45,105.96c-1.05,3.67,2.59,7.36,6.29,6.29,2.76-.72,4.42-3.53,3.7-6.29-1.44-5.29-1.7-10.61-1.96-15.99,4.97-2.85,10.02-3.93,13.48,3.16-.27,7.18-.66,14.27-2.12,21.41-.84,3.9,2.84,7.61,6.76,6.76,3.12-.61,5.16-3.64,4.54-6.76-.71-3.49-1.17-6.97-1.48-10.45-.57-6.34,4.09-12.01,10.43-12.64,9.76-.97,21.95.4,29.77,2.39,4.62,1.17,7.76,5.41,7.52,10.17-.04.71-.08,1.43-.12,2.14-.28,5.68-1,11.34-1.24,17.02.39,3.85,3.95,6.6,7.82,5.95,3.51-.59,5.89-3.95,5.53-7.49-.52-5.16-.86-10.32-1.22-15.48-.13-2.25-.22-4.52-.31-6.8-.06-1.57.71-3.05,2.01-3.93.04-.03.08-.06.13-.08,4.34-2.87,10.09.41,9.86,5.61-.24,5.4-.65,10.78-1.68,16.14-.67,3.3,2.42,6.41,5.73,5.74,2.68-.49,4.44-3.06,3.95-5.74-.94-4.87-1.36-9.75-1.61-14.65-.21-4.1,2.19-7.89,5.99-9.44,6.83-2.78,12.98-4.45,18.24-4.64,4.79-.17,8.39,4.32,7.13,8.94l-.02.08c-1.05,3.67,2.59,7.36,6.29,6.29,2.76-.72,4.42-3.53,3.7-6.29l-.03-.1c-1.3-4.81.17-9.89,3.71-13.4,1.91-1.89,2.78-3.93,5.34-6.34v-14.52c0-10.93-37.3-19.79-83.3-19.79S0,52.09,0,63.02v14.52l6.31,5.3c4.39,3.68,6.49,9.42,5.52,15.07l-1.38,8.06Z"/>
          <path class="cls-2" d="M83.29,82.32C37.64,82.32.59,73.59.03,62.77.02,62.86,0,62.94,0,63.02v68.49C0,142.45,37.29,151.31,83.29,151.31s83.3-8.86,83.3-19.8V63.02c0-.08-.02-.17-.03-.25-.57,10.82-37.63,19.54-83.27,19.54Z"/>
          <path class="cls-5" d="M83.29,82.32c21.41,0,40.92-1.92,55.67-5.07v-23.82H27.63v23.82c14.75,3.15,34.26,5.07,55.66,5.07Z"/>
          <path class="cls-4" d="M138.96,13.22v45.78c0,7.31-24.93,13.23-55.67,13.23s-55.67-5.92-55.67-13.23V13.22C27.63,5.92,52.55,0,83.29,0s55.67,5.92,55.67,13.22Z"/>
          <path class="cls-3" d="M83.29,26.71c-30.51,0-55.27-5.83-55.65-13.06,0,.06-.02.11-.02.17v45.78c0,7.31,24.92,13.23,55.67,13.23s55.67-5.92,55.67-13.23V13.82c0-.06-.01-.11-.02-.17-.38,7.23-25.15,13.06-55.65,13.06Z"/>
          <path class="cls-1" d="M131.98,43.15c.7,2.45-1.73,4.92-4.21,4.21-1.84-.48-2.95-2.36-2.47-4.21.96-3.53,1.14-7.09,1.31-10.68-3.32-1.91-6.69-2.62-9.01,2.11.18,4.8.44,9.54,1.42,14.31.56,2.6-1.9,5.09-4.52,4.52-2.09-.41-3.45-2.43-3.04-4.52.48-2.33.78-4.66.99-6.98.38-4.24-2.73-8.02-6.97-8.45-6.52-.65-14.67.27-19.9,1.6-3.09.78-5.18,3.62-5.02,6.8.02.48.05.95.08,1.43.19,3.79.67,7.58.83,11.37-.26,2.57-2.64,4.41-5.23,3.98-2.34-.4-3.94-2.64-3.7-5.01.35-3.45.58-6.9.82-10.34.09-1.51.15-3.02.21-4.54.04-1.05-.47-2.04-1.34-2.63-.03-.02-.06-.04-.08-.06-2.9-1.92-6.74.28-6.59,3.75s.43,7.2,1.12,10.79c.45,2.21-1.62,4.29-3.83,3.83-1.79-.33-2.97-2.04-2.64-3.83.63-3.26.91-6.52,1.08-9.79.14-2.74-1.47-5.28-4-6.31-4.57-1.86-8.67-2.98-12.19-3.1-3.2-.11-5.6,2.89-4.77,5.98v.05c.71,2.45-1.72,4.92-4.19,4.21-1.84-.48-2.95-2.36-2.47-4.21l.02-.07c.87-3.21-.12-6.61-2.48-8.95-1.27-1.26-1.86-2.63-3.57-4.24v-9.7c0-7.31,24.93-13.22,55.67-13.22,30.74,0,55.67,5.92,55.67,13.22v9.7s-4.22,3.54-4.22,3.54c-2.93,2.46-4.34,6.3-3.69,10.07l.92,5.38Z"/>
          <path class="cls-6" d="M131.98,41.92c.7,2.45-1.73,4.92-4.21,4.21-1.84-.48-2.95-2.36-2.47-4.21.96-3.53,1.14-7.09,1.31-10.68-3.32-1.91-6.69-2.62-9.01,2.11.18,4.8.44,9.54,1.42,14.31.56,2.6-1.9,5.09-4.52,4.52-2.09-.41-3.45-2.43-3.04-4.52.48-2.33.78-4.66.99-6.98.38-4.24-2.73-8.02-6.97-8.45-6.52-.65-14.67.27-19.9,1.6-3.09.78-5.18,3.62-5.02,6.8.02.48.05.95.08,1.43.19,3.79.67,7.58.83,11.37-.26,2.57-2.64,4.41-5.23,3.98-2.34-.4-3.94-2.64-3.7-5.01.35-3.45.58-6.9.82-10.34.09-1.51.15-3.02.21-4.54.04-1.05-.47-2.04-1.34-2.63-.03-.02-.06-.04-.08-.06-2.9-1.92-6.74.28-6.59,3.75s.43,7.2,1.12,10.79c.45,2.21-1.62,4.29-3.83,3.83-1.79-.33-2.97-2.04-2.64-3.83.63-3.26.91-6.52,1.08-9.79.14-2.74-1.47-5.28-4-6.31-4.57-1.86-8.67-2.98-12.19-3.1-3.2-.11-5.6,2.89-4.77,5.98v.05c.71,2.45-1.72,4.92-4.19,4.21-1.84-.48-2.95-2.36-2.47-4.21l.02-.07c.87-3.21-.12-6.61-2.48-8.95-1.27-1.26-1.86-2.63-3.57-4.24v-9.7c0-7.31,24.93-13.22,55.67-13.22,30.74,0,55.67,5.92,55.67,13.22v9.7s-4.22,3.54-4.22,3.54c-2.93,2.46-4.34,6.3-3.69,10.07l.92,5.38Z"/>
        </g>
      </g>
    </g>
  </g>
</svg>