<?xml version="1.0" encoding="UTF-8"?>
<svg xmlns="http://www.w3.org/2000/svg" width="1400mm" height="700mm" xmlns:xlink="http://www.w3.org/1999/xlink" viewBox="0 0 3968.5 1984.25">
  <defs>
    <style>
      .cls-1 {
        fill: #bcdde3;
      }

      .cls-1, .cls-2, .cls-3, .cls-4, .cls-5, .cls-6 {
        stroke-width: 0px;
      }

      .cls-2 {
        fill: url(#Unbenannter_Verlauf_25);
      }

      .cls-2, .cls-5 {
        mix-blend-mode: multiply;
        opacity: .31;
      }

      .cls-7 {
        isolation: isolate;
      }

      .cls-4 {
        fill: #fff;
      }

      .cls-5 {
        fill: #88d5e3;
      }

      .cls-6 {
        fill: #ff45ab;
      }
    </style>
    <linearGradient id="Unbenannter_Verlauf_25" data-name="Unbenannter Verlauf 25" x1="1984.25" y1="0" x2="1984.25" y2="1984.25" gradientUnits="userSpaceOnUse">
      <stop offset="0" stop-color="#88d5e3" stop-opacity="0"/>
      <stop offset="1" stop-color="#88d5e3"/>
    </linearGradient>
  </defs>
  <g class="cls-7">
    <g id="Hintergrund">
      <rect class="cls-1" width="3968.5" height="1984.25"/>
      <rect class="cls-2" width="3968.5" height="1984.25"/>
    </g>
    <g id="Bereiche">
      <g>
        <rect class="cls-5" x="224.27" y="276.39" width="1731.38" height="1627.82" rx="22.83" ry="22.83"/>
        <rect class="cls-5" x="2012.86" y="276.39" width="1731.38" height="1627.82" rx="22.83" ry="22.83"/>
      </g>
    </g>
    <g id="Text">
      <g>
        <path class="cls-4" d="m468.45,342.48v93.68h-24.09l-29.18-53.13v53.13h-22.75v-93.68h24.76l28.51,52.6v-52.6h22.75Z"/>
        <path class="cls-4" d="m516.35,368.04c-7.23,0-10.17,3.21-10.84,12.31h-22.22c1.34-21.15,11.91-31.18,32.92-31.18s33.06,10.84,33.06,30.78v64.24h-22.08v-10.17c-4.42,2.68-9.9,3.88-17.26,3.88-17.13,0-28.77-10.44-28.77-25.7,0-16.06,10.97-25.29,30.11-25.29,6.16,0,11.38,1.07,15.93,3.21v-10.44c0-7.63-3.75-11.64-10.84-11.64Zm-1.34,53c8.16,0,12.18-3.21,12.18-9.37s-4.02-9.37-12.18-9.37c-7.63,0-11.78,3.35-11.78,9.37s4.15,9.37,11.78,9.37Z"/>
        <path class="cls-4" d="m569.48,411.54v-29.98h-10.31v-21.01h10.31v-18.07h22.22v18.07h18.07v21.01h-18.07v29.58c0,9.1,3.61,12.98,11.78,12.98h6.29v20.08h-8.7c-22.62,0-31.58-10.31-31.58-32.66Z"/>
        <path class="cls-4" d="m629.31,411.54v-29.98h-10.31v-21.01h10.31v-18.07h22.22v18.07h18.07v21.01h-18.07v29.58c0,9.1,3.61,12.98,11.78,12.98h6.29v20.08h-8.7c-22.62,0-31.58-10.31-31.58-32.66Z"/>
        <path class="cls-4" d="m678.02,347.84c0-8.43,6.02-13.79,15.39-13.79s15.39,5.35,15.39,13.79-6.16,13.92-15.39,13.92-15.39-5.49-15.39-13.92Zm4.28,21.41h22.22v74.95h-22.22v-74.95Z"/>
        <path class="cls-6" d="m435.07,554.11h-15.44v-8.8c-3.28,2.06-6.83,3.18-10.58,3.18-12.54,0-19.94-7.86-19.94-21.9v-33.32h15.54v32.67c0,5.71,2.34,8.52,7.3,8.52s7.68-3,7.68-8.42v-32.76h15.44v60.84Z"/>
        <path class="cls-6" d="m445.19,487.65h15.54v8.8c3.37-2.06,7.11-3.18,10.95-3.18,12.64,0,19.84,7.96,19.84,21.9v38.94h-15.44v-37.53c0-5.8-2.53-8.61-7.49-8.61s-7.86,3.09-7.86,8.61v31.92h-15.54v-60.84Z"/>
        <path class="cls-6" d="m499.57,525.28v-7.3c0-15.26,8.8-24.71,23.03-24.71,4.12,0,7.86.94,10.86,2.53v-19.37h15.44v77.69h-15.44v-6.65c-3,1.59-6.74,2.53-10.86,2.53-14.23,0-23.03-9.45-23.03-24.71Zm24.62,10.67c5.99,0,9.27-3.74,9.27-10.95v-5.99c0-7.3-3.28-11.04-9.27-11.04s-9.17,3.84-9.17,11.04v5.99c0,7.21,3.18,10.95,9.17,10.95Z"/>
        <path class="cls-6" d="m583.34,482.97h18.63l16.1,25.65,16-25.65h18.63v71.13h-15.91v-46.42l-15.07,24.15h-7.21l-15.26-24.34v46.61h-15.91v-71.13Z"/>
        <path class="cls-6" d="m686.31,500.85c-5.05,0-7.11,2.25-7.58,8.61h-15.54c.94-14.79,8.33-21.81,23.02-21.81s23.12,7.58,23.12,21.53v44.93h-15.44v-7.11c-3.09,1.87-6.93,2.71-12.07,2.71-11.98,0-20.12-7.3-20.12-17.97,0-11.23,7.67-17.69,21.06-17.69,4.31,0,7.96.75,11.14,2.25v-7.3c0-5.33-2.62-8.14-7.58-8.14Zm-.94,37.06c5.71,0,8.52-2.25,8.52-6.55s-2.81-6.55-8.52-6.55c-5.33,0-8.24,2.34-8.24,6.55s2.9,6.55,8.24,6.55Z"/>
        <path class="cls-6" d="m738.07,568.15h-15.91l8.99-26.68-18.16-53.82h16.01l10.11,35.47,10.11-35.47h16l-27.14,80.49Z"/>
        <path class="cls-6" d="m764.84,525.65v-9.55c0-15.26,9.45-24.71,24.71-24.71,16.1,0,23.59,8.33,24.62,24.62h-15.44c-.66-6.83-3-9.92-9.08-9.92s-9.36,3.74-9.36,11.04v8.24c0,7.3,3.18,10.95,9.36,10.95s8.42-3.18,9.08-9.83h15.44c-1.03,15.91-8.8,23.87-24.62,23.87s-24.71-9.45-24.71-24.71Z"/>
        <path class="cls-6" d="m822.97,476.42h15.54v20.03c3.37-2.06,7.11-3.18,10.95-3.18,12.64,0,19.84,7.96,19.84,21.9v38.94h-15.44v-37.53c0-5.8-2.53-8.61-7.49-8.61s-7.86,3.09-7.86,8.61v31.92h-15.54v-72.07Z"/>
        <path class="cls-6" d="m901.87,500.85c-5.05,0-7.11,2.25-7.58,8.61h-15.54c.94-14.79,8.33-21.81,23.02-21.81s23.12,7.58,23.12,21.53v44.93h-15.44v-7.11c-3.09,1.87-6.93,2.71-12.07,2.71-11.98,0-20.12-7.3-20.12-17.97,0-11.23,7.67-17.69,21.06-17.69,4.31,0,7.96.75,11.14,2.25v-7.3c0-5.33-2.62-8.14-7.58-8.14Zm-.94,37.06c5.71,0,8.52-2.25,8.52-6.55s-2.81-6.55-8.52-6.55c-5.34,0-8.24,2.34-8.24,6.55s2.9,6.55,8.24,6.55Z"/>
      </g>
      <g>
        <path class="cls-4" d="m2148.05,370.99c0,22.89-12.45,35.33-35.33,35.33h-13.92v29.85h-22.75v-101.71h36.67c22.89,0,35.33,12.98,35.33,36.54Zm-36.67,14.72c9.64,0,13.92-4.55,13.92-14.72s-4.28-14.86-13.92-14.86h-12.58v29.58h12.58Z"/>
        <path class="cls-4" d="m2191.41,368.04c-7.23,0-10.17,3.21-10.84,12.31h-22.22c1.34-21.15,11.91-31.18,32.92-31.18s33.06,10.84,33.06,30.78v64.24h-22.08v-10.17c-4.42,2.68-9.9,3.88-17.26,3.88-17.13,0-28.77-10.44-28.77-25.7,0-16.06,10.97-25.29,30.11-25.29,6.16,0,11.38,1.07,15.93,3.21v-10.44c0-7.63-3.75-11.64-10.84-11.64Zm-1.34,53c8.16,0,12.18-3.21,12.18-9.37s-4.02-9.37-12.18-9.37c-7.63,0-11.78,3.35-11.78,9.37s4.15,9.37,11.78,9.37Z"/>
        <path class="cls-4" d="m2303.15,444.2h-22.08v-12.58c-4.68,2.94-9.77,4.55-15.12,4.55-17.93,0-28.51-11.24-28.51-31.32v-47.65h22.22v46.71c0,8.16,3.35,12.18,10.44,12.18s10.97-4.28,10.97-12.04v-46.84h22.08v86.99Z"/>
        <path class="cls-4" d="m2317.6,333.11h22.22v111.08h-22.22v-111.08Z"/>
        <path class="cls-4" d="m2387.73,368.04c-7.23,0-10.17,3.21-10.84,12.31h-22.22c1.34-21.15,11.91-31.18,32.92-31.18s33.06,10.84,33.06,30.78v64.24h-22.08v-10.17c-4.42,2.68-9.9,3.88-17.26,3.88-17.13,0-28.77-10.44-28.77-25.7,0-16.06,10.97-25.29,30.11-25.29,6.16,0,11.38,1.07,15.93,3.21v-10.44c0-7.63-3.75-11.64-10.84-11.64Zm-1.34,53c8.16,0,12.18-3.21,12.18-9.37s-4.02-9.37-12.18-9.37c-7.63,0-11.78,3.35-11.78,9.37s4.15,9.37,11.78,9.37Z"/>
        <path class="cls-6" d="m2118.69,554.11h-15.44v-8.8c-3.28,2.06-6.83,3.18-10.58,3.18-12.54,0-19.94-7.86-19.94-21.9v-33.32h15.54v32.67c0,5.71,2.34,8.52,7.3,8.52s7.67-3,7.67-8.42v-32.76h15.44v60.84Z"/>
        <path class="cls-6" d="m2128.8,487.65h15.54v8.8c3.37-2.06,7.11-3.18,10.95-3.18,12.63,0,19.84,7.96,19.84,21.9v38.94h-15.44v-37.53c0-5.8-2.53-8.61-7.49-8.61s-7.86,3.09-7.86,8.61v31.92h-15.54v-60.84Z"/>
        <path class="cls-6" d="m2183.18,525.28v-7.3c0-15.26,8.8-24.71,23.03-24.71,4.12,0,7.86.94,10.86,2.53v-19.37h15.44v77.69h-15.44v-6.65c-3,1.59-6.74,2.53-10.86,2.53-14.23,0-23.03-9.45-23.03-24.71Zm24.62,10.67c5.99,0,9.27-3.74,9.27-10.95v-5.99c0-7.3-3.28-11.04-9.27-11.04s-9.17,3.84-9.17,11.04v5.99c0,7.21,3.18,10.95,9.17,10.95Z"/>
        <path class="cls-6" d="m2282.87,477.36v56.72h26.21v14.41h-42.12v-71.13h15.91Z"/>
        <path class="cls-6" d="m2362.15,554.11h-15.44v-8.8c-3.28,2.06-6.83,3.18-10.58,3.18-12.54,0-19.94-7.86-19.94-21.9v-33.32h15.54v32.67c0,5.71,2.34,8.52,7.3,8.52s7.67-3,7.67-8.42v-32.76h15.44v60.84Z"/>
        <path class="cls-6" d="m2369.27,486.72c0-5.9,4.21-9.64,10.76-9.64s10.76,3.74,10.76,9.64-4.31,9.73-10.76,9.73-10.76-3.84-10.76-9.73Zm3,14.98h15.54v52.41h-15.54v-52.41Z"/>
        <path class="cls-6" d="m2399.5,551.11h15.44c.28,6.27,2.43,9.27,7.86,9.27,4.87,0,7.86-3.09,7.86-8.7v-6.83c-3,1.59-6.74,2.53-10.86,2.53-14.23,0-23.03-9.45-23.03-24.71v-4.68c0-15.26,8.8-24.71,23.03-24.71,4.12,0,7.86.94,10.86,2.53v-8.14h15.44v63.27c0,14.69-8.52,22.84-23.31,22.84s-22.46-7.77-23.31-22.65Zm21.9-17.78c5.99,0,9.27-3.74,9.27-10.95v-3.37c0-7.3-3.28-11.04-9.27-11.04s-9.17,3.84-9.17,11.04v3.37c0,7.21,3.18,10.95,9.17,10.95Z"/>
        <path class="cls-6" d="m2454.17,486.72c0-5.9,4.21-9.64,10.76-9.64s10.76,3.74,10.76,9.64-4.31,9.73-10.76,9.73-10.76-3.84-10.76-9.73Zm3,14.98h15.54v52.41h-15.54v-52.41Z"/>
      </g>
      <g>
        <path class="cls-3" d="m1536.74,99.8l-11.51,71.13h-22.18l-9.08-41.65-9.08,41.65h-22.18l-11.61-71.13h15.54l8.33,53.26,10.2-48.76h17.6l10.11,48.76,8.33-53.26h15.54Z"/>
        <path class="cls-3" d="m1564.54,117.68c-5.05,0-7.11,2.25-7.58,8.61h-15.54c.94-14.79,8.33-21.81,23.02-21.81s23.12,7.58,23.12,21.53v44.93h-15.44v-7.11c-3.09,1.87-6.93,2.71-12.07,2.71-11.98,0-20.12-7.3-20.12-17.97,0-11.23,7.67-17.69,21.06-17.69,4.31,0,7.96.75,11.14,2.25v-7.3c0-5.33-2.62-8.14-7.58-8.14Zm-10.48-37.63c5.62,0,8.89,3.56,8.89,9.45s-3.28,9.36-8.89,9.36-8.99-3.46-8.99-9.36,3.46-9.45,8.99-9.45Zm9.55,74.69c5.71,0,8.52-2.25,8.52-6.55s-2.81-6.55-8.52-6.55c-5.33,0-8.24,2.34-8.24,6.55s2.9,6.55,8.24,6.55Zm13.57-74.69c5.62,0,8.89,3.56,8.89,9.45s-3.28,9.36-8.89,9.36-8.99-3.46-8.99-9.36,3.46-9.45,8.99-9.45Z"/>
        <path class="cls-3" d="m1597.68,93.25h15.54v20.03c3.37-2.06,7.11-3.18,10.95-3.18,12.64,0,19.84,7.96,19.84,21.9v38.94h-15.44v-37.53c0-5.8-2.53-8.61-7.49-8.61s-7.86,3.09-7.86,8.61v31.92h-15.54v-72.07Z"/>
        <path class="cls-3" d="m1654.12,93.25h15.54v77.69h-15.54v-77.69Z"/>
        <path class="cls-3" d="m1678.64,146.22v-17.03c0-15.26,9.45-24.71,24.71-24.71s24.71,8.89,24.71,23.87v12.54h-33.98v5.05c0,7.3,3.18,10.95,9.36,10.95s8.52-3.18,9.17-9.83h15.44c-1.03,16.19-9.45,23.87-24.71,23.87s-24.71-9.45-24.71-24.71Zm33.98-16.75v-1.97c0-6.55-3.28-10.01-9.17-10.01s-9.36,3.74-9.36,10.95v1.03h18.53Z"/>
        <path class="cls-3" d="m1758.39,142.11v-7.3c0-15.26,8.8-24.71,23.03-24.71,4.12,0,7.86.94,10.86,2.53v-19.37h15.44v77.69h-15.44v-6.65c-3,1.59-6.74,2.53-10.86,2.53-14.23,0-23.03-9.45-23.03-24.71Zm24.62,10.67c5.99,0,9.27-3.74,9.27-10.95v-5.99c0-7.3-3.28-11.04-9.27-11.04s-9.17,3.84-9.17,11.04v5.99c0,7.21,3.18,10.95,9.17,10.95Z"/>
        <path class="cls-3" d="m1816.71,146.22v-17.03c0-15.26,9.45-24.71,24.71-24.71s24.71,8.89,24.71,23.87v12.54h-33.98v5.05c0,7.3,3.18,10.95,9.36,10.95s8.52-3.18,9.17-9.83h15.44c-1.03,16.19-9.45,23.87-24.71,23.87s-24.71-9.45-24.71-24.71Zm33.98-16.75v-1.97c0-6.55-3.28-10.01-9.17-10.01s-9.36,3.74-9.36,10.95v1.03h18.53Z"/>
        <path class="cls-3" d="m1872.12,103.54c0-5.9,4.21-9.64,10.76-9.64s10.76,3.74,10.76,9.64-4.31,9.73-10.76,9.73-10.76-3.84-10.76-9.73Zm3,14.98h15.54v52.41h-15.54v-52.41Z"/>
        <path class="cls-3" d="m1901.7,104.48h15.54v8.8c3.37-2.06,7.11-3.18,10.95-3.18,12.64,0,19.84,7.96,19.84,21.9v38.94h-15.44v-37.53c0-5.8-2.53-8.61-7.49-8.61s-7.86,3.09-7.86,8.61v31.92h-15.54v-60.84Z"/>
        <path class="cls-3" d="m1956.08,146.22v-17.03c0-15.26,9.45-24.71,24.71-24.71s24.71,8.89,24.71,23.87v12.54h-33.98v5.05c0,7.3,3.18,10.95,9.36,10.95s8.52-3.18,9.17-9.83h15.44c-1.03,16.19-9.45,23.87-24.71,23.87s-24.71-9.45-24.71-24.71Zm33.98-16.75v-1.97c0-6.55-3.28-10.01-9.17-10.01s-9.36,3.74-9.36,10.95v1.03h18.53Z"/>
        <path class="cls-3" d="m2014.49,104.48h15.54v8.8c3.37-2.06,7.11-3.18,10.95-3.18,12.63,0,19.84,7.96,19.84,21.9v38.94h-15.44v-37.53c0-5.8-2.53-8.61-7.49-8.61s-7.86,3.09-7.86,8.61v31.92h-15.54v-60.84Z"/>
        <path class="cls-3" d="m2092.28,138.27v-15.16c0-17.78,10.67-28.92,27.61-28.92s26.3,8.89,27.42,26.77h-15.91c-1.03-8.42-3.93-11.61-11.61-11.61s-11.61,4.87-11.61,13.76v15.82c0,8.89,4.21,13.85,11.61,13.85,8.24,0,10.86-3.65,11.61-12.35h15.91c-1.12,17.97-10.67,26.77-27.7,26.77s-27.33-11.14-27.33-28.92Z"/>
        <path class="cls-3" d="m2155.74,93.25h15.54v20.03c3.37-2.06,7.11-3.18,10.95-3.18,12.63,0,19.84,7.96,19.84,21.9v38.94h-15.44v-37.53c0-5.8-2.53-8.61-7.49-8.61s-7.86,3.09-7.86,8.61v31.92h-15.54v-72.07Z"/>
        <path class="cls-3" d="m2234.64,117.68c-5.05,0-7.11,2.25-7.58,8.61h-15.54c.94-14.79,8.33-21.81,23.02-21.81s23.12,7.58,23.12,21.53v44.93h-15.44v-7.11c-3.09,1.87-6.93,2.71-12.07,2.71-11.98,0-20.12-7.3-20.12-17.97,0-11.23,7.68-17.69,21.06-17.69,4.31,0,7.96.75,11.14,2.25v-7.3c0-5.33-2.62-8.14-7.58-8.14Zm-.94,37.06c5.71,0,8.52-2.25,8.52-6.55s-2.81-6.55-8.52-6.55c-5.33,0-8.24,2.34-8.24,6.55s2.9,6.55,8.24,6.55Z"/>
        <path class="cls-3" d="m2267.78,104.48h15.54v10.76c3.09-3.37,7.39-5.15,12.64-5.15,2.06,0,3.56.09,5.15.37v14.79h-3.46c-8.52,0-14.32,4.31-14.32,14.69v25.36h-15.54v-60.84Z"/>
        <path class="cls-3" d="m2330.87,117.68c-5.05,0-7.11,2.25-7.58,8.61h-15.54c.94-14.79,8.33-21.81,23.02-21.81s23.12,7.58,23.12,21.53v44.93h-15.44v-7.11c-3.09,1.87-6.93,2.71-12.07,2.71-11.98,0-20.12-7.3-20.12-17.97,0-11.23,7.68-17.69,21.06-17.69,4.31,0,7.96.75,11.14,2.25v-7.3c0-5.33-2.62-8.14-7.58-8.14Zm-.94,37.06c5.71,0,8.52-2.25,8.52-6.55s-2.81-6.55-8.52-6.55c-5.33,0-8.24,2.34-8.24,6.55s2.9,6.55,8.24,6.55Z"/>
        <path class="cls-3" d="m2379.54,142.29v23.02h-15.54v-72.07h15.54v40.53l16.66-29.3h17.13l-19.28,33.32,20.4,33.13h-17.13l-17.78-28.64Z"/>
        <path class="cls-3" d="m2423.44,148.1v-20.97h-7.21v-14.69h7.21v-12.64h15.54v12.64h12.64v14.69h-12.64v20.68c0,6.36,2.53,9.08,8.24,9.08h4.4v14.04h-6.08c-15.82,0-22.09-7.21-22.09-22.84Z"/>
        <path class="cls-3" d="m2458.45,146.22v-17.03c0-15.26,9.45-24.71,24.71-24.71s24.71,8.89,24.71,23.87v12.54h-33.98v5.05c0,7.3,3.18,10.95,9.36,10.95s8.52-3.18,9.17-9.83h15.44c-1.03,16.19-9.45,23.87-24.71,23.87s-24.71-9.45-24.71-24.71Zm33.98-16.75v-1.97c0-6.55-3.28-10.01-9.17-10.01s-9.36,3.74-9.36,10.95v1.03h18.53Z"/>
        <path class="cls-3" d="m2516.86,104.48h15.54v10.76c3.09-3.37,7.39-5.15,12.64-5.15,2.06,0,3.56.09,5.15.37v14.79h-3.46c-8.52,0-14.32,4.31-14.32,14.69v25.36h-15.54v-60.84Z"/>
        <path class="cls-3" d="m2568.06,151.65c5.9,0,10.02,3.93,10.02,9.64s-4.12,9.64-10.02,9.64-10.11-3.93-10.11-9.64,4.12-9.64,10.11-9.64Zm-7.96-57.47h15.91v50.64h-15.91v-50.64Z"/>
      </g>
    </g>
  </g>
</svg>