<?xml version="1.0" encoding="UTF-8"?>
<svg id="Ebene_1" data-name="Ebene 1" xmlns="http://www.w3.org/2000/svg" viewBox="0 0 92.93 89.9">
  <defs>
    <style>
      .cls-1 {
        fill: #00a45c;
      }

      .cls-1, .cls-2, .cls-3 {
        stroke-width: 0px;
      }

      .cls-2 {
        fill: #f49f93;
      }

      .cls-4 {
        fill: none;
        stroke: #975144;
        stroke-linecap: round;
        stroke-miterlimit: 10;
      }

      .cls-3 {
        fill: #fc5c43;
      }
    </style>
  </defs>
  <path class="cls-4" d="m36.77,63.56c-2.05-20.07,8.2-23.73,8.2-23.73,0,0,11.69,11.22,10.92,23.2"/>
  <path class="cls-3" d="m55.62,60.9c-2.32-2.02-4.78-3.29-8.12.63-2.3,2.69.28,12.19,8.57,12.53,5.8.23,11.72-8.45,6.8-13.3-2.29-2.25-7.25.14-7.25.14Z"/>
  <ellipse class="cls-2" cx="50.97" cy="63.56" rx="2.25" ry="1.37" transform="translate(-30.2 56.62) rotate(-46.39)"/>
  <path class="cls-3" d="m36.42,60.9c-2.32-2.02-4.78-3.29-8.12.63-2.3,2.69.28,12.19,8.57,12.53,5.8.23,11.72-8.45,6.8-13.3-2.29-2.25-7.25.14-7.25.14Z"/>
  <ellipse class="cls-2" cx="31.41" cy="63.56" rx="2.25" ry="1.1" transform="translate(-38.81 53.83) rotate(-55.81)"/>
  <path class="cls-1" d="m45.26,42.33c-.34-.78-.4-5.93-.4-10.1,0-3.4,1.77-6.47,4.7-8.12,3.78-2.13,8.57-4.81,9.17-5.02,1-.36,3.81,9.92.36,15.41-5.45,8.67-13.83,7.84-13.83,7.84Z"/>
</svg>