<?xml version="1.0" encoding="UTF-8"?>
<svg id="Ebene_2" data-name="Ebene 2" xmlns="http://www.w3.org/2000/svg" viewBox="0 0 153.5 153.5">
  <defs>
    <style>
      .cls-1 {
        fill: #fff;
      }

      .cls-1, .cls-2 {
        stroke-width: 0px;
      }

      .cls-2 {
        fill: #4e7eb3;
      }
    </style>
  </defs>
  <g id="Memory">
    <g>
      <g>
        <rect class="cls-1" x="1" y="1" width="151.5" height="151.5" rx="5.37" ry="5.37"/>
        <path class="cls-2" d="m147.13,2c2.41,0,4.37,1.96,4.37,4.37v140.76c0,2.41-1.96,4.37-4.37,4.37H6.37c-2.41,0-4.37-1.96-4.37-4.37V6.37c0-2.41,1.96-4.37,4.37-4.37h140.76m0-2H6.37C2.85,0,0,2.85,0,6.37v140.76c0,3.52,2.85,6.37,6.37,6.37h140.76c3.52,0,6.37-2.85,6.37-6.37V6.37c0-3.52-2.85-6.37-6.37-6.37h0Z"/>
      </g>
      <g>
        <path class="cls-2" d="m127.27,79.59l2.35-.98c.77,1.45,2.39,2.01,4,2.01,2.78,0,4.81-1.41,4.81-4.21s-2.03-4.25-4.81-4.25c-1.6,0-3.16.54-3.93,1.95l-2.35-1c1.03-1.69,3.04-3.01,6.31-3.01,4.51,0,7.25,2.46,7.25,6.33s-2.74,6.29-7.25,6.29c-3.33,0-5.34-1.33-6.37-3.1Z"/>
        <path class="cls-2" d="m116.82,70.1c2.39,0,4.32,1.03,5.34,2.69v-6.37h2.5v15.82h-2.5v-7.2c-1-1.92-2.69-2.87-4.7-2.87-2.33,0-3.51,1.24-3.51,3.55v6.52h-2.48v-6.69c0-3.16,1.77-5.45,5.34-5.45Z"/>
        <path class="cls-2" d="m101.26,82.69c-4.55,0-7.29-2.42-7.29-6.29s2.74-6.33,7.29-6.33,7.29,2.44,7.29,6.33-2.76,6.29-7.29,6.29Zm0-2.1c2.76,0,4.83-1.39,4.83-4.19s-2.07-4.23-4.83-4.23-4.85,1.39-4.85,4.23,2.07,4.19,4.85,4.19Z"/>
        <path class="cls-2" d="m78.15,79.59l2.35-.98c.77,1.45,2.39,2.01,4,2.01,2.78,0,4.81-1.41,4.81-4.21s-2.03-4.25-4.81-4.25c-1.6,0-3.16.54-3.93,1.95l-2.35-1c1.03-1.69,3.04-3.01,6.31-3.01,4.51,0,7.25,2.46,7.25,6.33s-2.74,6.29-7.25,6.29c-3.33,0-5.34-1.33-6.37-3.1Z"/>
        <path class="cls-2" d="m69.19,82.69c-4.55,0-7.29-2.42-7.29-6.29s2.74-6.33,7.29-6.33,7.29,2.44,7.29,6.33-2.76,6.29-7.29,6.29Zm0-2.1c2.76,0,4.83-1.39,4.83-4.19s-2.07-4.23-4.83-4.23-4.85,1.39-4.85,4.23,2.07,4.19,4.85,4.19Z"/>
        <path class="cls-2" d="m56.32,82.24v-15.82h2.48v15.82h-2.48Z"/>
        <path class="cls-2" d="m46.62,70.1c2.12,0,4.36.58,5.82,1.45l-.9,1.69c-1.35-.79-2.71-1.18-4.45-1.18-3.01,0-4.55,1.13-4.55,3.66v.86c.92-1.13,2.71-2.1,5.11-2.1,2.52,0,5.88,1.03,5.88,4.08s-3.36,4.1-5.88,4.1-4.19-.96-5.11-2.09v.02c0,.56-.15,1.13-.45,1.65h-2.59c.38-.68.53-1.39.53-2.27v-4.25c0-3.68,2.5-5.62,6.58-5.62Zm-4.12,8.66c.94,1.6,2.93,2.12,4.68,2.12,1.56,0,3.89-.41,3.89-2.31s-2.33-2.29-3.89-2.29c-1.75,0-3.74.49-4.68,2.12v.36Z"/>
        <path class="cls-2" d="m28.68,79.85c.71.38,1.45.71,2.33.71,1.22,0,2.22-.64,2.22-1.95v-6.09h-5.11v-1.99h5.11v-2.71h2.5v2.71h2.27v1.99h-2.27v6.5c0,2.44-1.82,3.66-4.1,3.66-1.35,0-2.65-.45-3.61-1.09l.66-1.73Z"/>
        <path class="cls-2" d="m24.19,76.94h-11.63c-.04-.13-.06-.28-.06-.56,0-4.1,2.74-6.31,6.95-6.31,4.51,0,7.21,2.44,7.21,6.33s-2.69,6.29-7.38,6.29c-2.74,0-4.77-.66-6.37-2.1l1.45-1.56c1.28,1.13,2.63,1.69,4.79,1.69,2.95,0,4.81-1.24,5.04-3.78Zm-4.77-4.9c-2.31,0-3.98.96-4.51,3.1l9.17.02c-.47-2.07-2.2-3.12-4.66-3.12Z"/>
      </g>
    </g>
  </g>
</svg>