<?xml version="1.0" encoding="UTF-8"?>
<svg id="Layer_1" data-name="Layer 1" xmlns="http://www.w3.org/2000/svg" viewBox="0 0 947.89 498.38">
  <defs>
    <style>
      .cls-1 {
        fill: #fff;
        stroke-width: 0px;
      }
    </style>
  </defs>
  <path class="cls-1" d="m207.61,404.06c-37.3,25.07-82.13,43.52-126.5,36.38S-4.17,393.3.34,348.59c4.51-44.72,67.69-74.58,98.95-42.29C32.45,275.69,6.5,179.81,48.79,119.66s141.29-68.17,192.71-15.63C267.87,46.37,327.08,5.15,390.32.45s127.89,27.32,162.48,80.46c41.78-38.33,106.4-49.55,158.66-27.54,52.26,22.01,89.38,76.07,91.16,132.74,64.02-33.02,153.34,29.07,144.7,100.58-8.64,71.51-110.17,110.54-164.49,63.23-14.16,60.19-61.08,111.59-119.74,131.16-58.65,19.57-127.04,6.65-174.5-32.98-18.06,34.68-59.57,55.46-98.15,49.15-38.58-6.31-71.31-39.23-77.38-77.86-31.36,35.41-98.49,25.93-105.43-15.34Z"/>
</svg>