<?xml version="1.0" encoding="UTF-8"?>
<svg id="Ebene_2" data-name="Ebene 2" xmlns="http://www.w3.org/2000/svg" xmlns:xlink="http://www.w3.org/1999/xlink" viewBox="0 0 1920 1080">
  <defs>
    <style>
      .cls-1 {
        stroke-dasharray: 0 0 0 0 0 0 1.19 1.19 1.19 1.19 1.19 1.19;
        stroke-width: .59px;
      }

      .cls-1, .cls-2, .cls-3, .cls-4, .cls-5, .cls-6, .cls-7, .cls-8, .cls-9, .cls-10, .cls-11, .cls-12, .cls-13, .cls-14 {
        stroke-miterlimit: 10;
      }

      .cls-1, .cls-3, .cls-5, .cls-6, .cls-15, .cls-8, .cls-12, .cls-13 {
        fill: none;
      }

      .cls-1, .cls-3, .cls-5, .cls-6, .cls-8, .cls-12, .cls-13 {
        stroke: #cc8d00;
      }

      .cls-16 {
        clip-path: url(#clippath-20);
      }

      .cls-17 {
        clip-path: url(#clippath-11);
      }

      .cls-18 {
        clip-path: url(#clippath-16);
      }

      .cls-19 {
        clip-path: url(#clippath-33);
      }

      .cls-20 {
        fill: #f2a024;
      }

      .cls-20, .cls-21, .cls-15, .cls-22, .cls-23, .cls-24 {
        stroke-width: 0px;
      }

      .cls-2 {
        stroke-width: 3.09px;
      }

      .cls-2, .cls-4, .cls-7, .cls-9, .cls-10, .cls-11, .cls-14 {
        fill: #cc8d00;
        stroke: #b47c00;
      }

      .cls-25 {
        clip-path: url(#clippath-41);
      }

      .cls-26 {
        clip-path: url(#clippath-32);
      }

      .cls-3 {
        stroke-dasharray: 0 0 0 0 0 0 1.61 1.61 1.61 1.61 1.61 1.61;
        stroke-width: .81px;
      }

      .cls-21 {
        fill: #f1d228;
        opacity: .91;
      }

      .cls-27 {
        clip-path: url(#clippath-2);
      }

      .cls-28 {
        clip-path: url(#clippath-13);
      }

      .cls-29 {
        clip-path: url(#clippath-37);
      }

      .cls-30 {
        clip-path: url(#clippath-25);
      }

      .cls-4 {
        stroke-width: 2.79px;
      }

      .cls-5 {
        stroke-dasharray: 0 0 0 0 0 0 1.44 1.44 1.44 1.44 1.44 1.44;
        stroke-width: .72px;
      }

      .cls-31 {
        clip-path: url(#clippath-15);
      }

      .cls-32 {
        clip-path: url(#clippath-6);
      }

      .cls-6 {
        stroke-dasharray: 0 0 0 0 0 0 1.46 1.46 1.46 1.46 1.46 1.46;
        stroke-width: .73px;
      }

      .cls-33 {
        clip-path: url(#clippath-40);
      }

      .cls-34 {
        clip-path: url(#clippath-26);
      }

      .cls-35 {
        clip-path: url(#clippath-7);
      }

      .cls-36 {
        clip-path: url(#clippath-21);
      }

      .cls-37 {
        clip-path: url(#clippath-34);
      }

      .cls-38 {
        clip-path: url(#clippath-1);
      }

      .cls-39 {
        clip-path: url(#clippath-4);
      }

      .cls-40 {
        clip-path: url(#clippath-38);
      }

      .cls-41 {
        clip-path: url(#clippath-36);
      }

      .cls-42 {
        clip-path: url(#clippath-27);
      }

      .cls-7 {
        stroke-width: 2.27px;
      }

      .cls-43 {
        clip-path: url(#clippath-12);
      }

      .cls-22, .cls-24 {
        fill: #fff;
      }

      .cls-44 {
        clip-path: url(#clippath-24);
      }

      .cls-23 {
        fill: #efd22d;
      }

      .cls-45 {
        clip-path: url(#clippath-30);
      }

      .cls-8 {
        stroke-dasharray: 0 0 0 0 0 0 1.75 1.75 1.75 1.75 1.75 1.75;
        stroke-width: .88px;
      }

      .cls-46 {
        clip-path: url(#clippath-22);
      }

      .cls-9 {
        stroke-width: 2.76px;
      }

      .cls-47 {
        clip-path: url(#clippath-9);
      }

      .cls-48 {
        clip-path: url(#clippath);
      }

      .cls-10 {
        stroke-width: 2.88px;
      }

      .cls-11 {
        stroke-width: 2.09px;
      }

      .cls-49 {
        clip-path: url(#clippath-39);
      }

      .cls-50 {
        clip-path: url(#clippath-19);
      }

      .cls-51 {
        clip-path: url(#clippath-31);
      }

      .cls-52 {
        clip-path: url(#clippath-3);
      }

      .cls-12 {
        stroke-dasharray: 0 0 0 0 0 0 1.09 1.09 1.09 1.09 1.09 1.09;
        stroke-width: .54px;
      }

      .cls-53 {
        clip-path: url(#clippath-8);
      }

      .cls-54 {
        clip-path: url(#clippath-29);
      }

      .cls-13 {
        stroke-dasharray: 0 0 0 0 0 0 1.5 1.5 1.5 1.5 1.5 1.5;
        stroke-width: .75px;
      }

      .cls-55 {
        clip-path: url(#clippath-18);
      }

      .cls-56 {
        clip-path: url(#clippath-14);
      }

      .cls-57 {
        clip-path: url(#clippath-17);
      }

      .cls-58 {
        clip-path: url(#clippath-5);
      }

      .cls-14 {
        stroke-width: 3.36px;
      }

      .cls-59 {
        clip-path: url(#clippath-10);
      }

      .cls-60 {
        clip-path: url(#clippath-23);
      }

      .cls-61 {
        clip-path: url(#clippath-28);
      }

      .cls-24 {
        opacity: .16;
      }

      .cls-62 {
        clip-path: url(#clippath-35);
      }
    </style>
    <clipPath id="clippath">
      <polygon class="cls-15" points="496.76 918.32 486.94 988.53 480.47 988.53 480.47 918.32 496.76 918.32"/>
    </clipPath>
    <clipPath id="clippath-1">
      <polygon class="cls-15" points="496.76 918.32 486.94 988.53 493.16 990.3 512.43 922.79 496.76 918.32"/>
    </clipPath>
    <clipPath id="clippath-2">
      <polygon class="cls-15" points="915.99 676.78 864.49 685.75 864.49 676.78 915.99 676.78"/>
    </clipPath>
    <clipPath id="clippath-3">
      <polygon class="cls-15" points="915.99 676.78 864.49 685.75 867.53 694.2 915.99 676.78"/>
    </clipPath>
    <clipPath id="clippath-4">
      <polygon class="cls-15" points="1291.85 929.54 1221.94 941.73 1221.94 929.54 1291.85 929.54"/>
    </clipPath>
    <clipPath id="clippath-5">
      <polygon class="cls-15" points="1291.85 929.54 1221.94 941.73 1226.06 953.19 1291.85 929.54"/>
    </clipPath>
    <clipPath id="clippath-6">
      <polygon class="cls-15" points="1446.35 133.81 1376.44 145.99 1376.44 133.81 1446.35 133.81"/>
    </clipPath>
    <clipPath id="clippath-7">
      <polygon class="cls-15" points="1446.35 133.81 1376.44 145.99 1380.57 157.46 1446.35 133.81"/>
    </clipPath>
    <clipPath id="clippath-8">
      <polygon class="cls-15" points="234.05 150.79 164.14 162.98 164.14 150.79 234.05 150.79"/>
    </clipPath>
    <clipPath id="clippath-9">
      <polygon class="cls-15" points="234.05 150.79 164.14 162.98 168.26 174.45 234.05 150.79"/>
    </clipPath>
    <clipPath id="clippath-10">
      <polygon class="cls-15" points="805.72 442.91 735.81 455.1 735.81 442.91 805.72 442.91"/>
    </clipPath>
    <clipPath id="clippath-11">
      <polygon class="cls-15" points="805.72 442.91 735.81 455.1 739.94 466.56 805.72 442.91"/>
    </clipPath>
    <clipPath id="clippath-12">
      <polygon class="cls-15" points="513.5 153.2 489.98 118.36 513.5 118.36 513.5 153.2"/>
    </clipPath>
    <clipPath id="clippath-13">
      <polygon class="cls-15" points="513.5 153.2 489.98 118.36 481.18 140.17 513.5 153.2"/>
    </clipPath>
    <clipPath id="clippath-14">
      <polygon class="cls-15" points="1212.71 714.68 1189.19 679.84 1212.71 679.84 1212.71 714.68"/>
    </clipPath>
    <clipPath id="clippath-15">
      <polygon class="cls-15" points="1212.71 714.68 1189.19 679.84 1180.39 701.65 1212.71 714.68"/>
    </clipPath>
    <clipPath id="clippath-16">
      <polygon class="cls-15" points="832.35 975.93 808.83 941.09 832.35 941.09 832.35 975.93"/>
    </clipPath>
    <clipPath id="clippath-17">
      <polygon class="cls-15" points="832.35 975.93 808.83 941.09 800.03 962.9 832.35 975.93"/>
    </clipPath>
    <clipPath id="clippath-18">
      <polygon class="cls-15" points="1837.9 446.68 1767.99 458.86 1767.99 446.68 1837.9 446.68"/>
    </clipPath>
    <clipPath id="clippath-19">
      <polygon class="cls-15" points="1837.9 446.68 1767.99 458.86 1772.11 470.33 1837.9 446.68"/>
    </clipPath>
    <clipPath id="clippath-20">
      <polygon class="cls-15" points="824.06 65.05 814.24 135.26 807.76 135.26 807.76 65.05 824.06 65.05"/>
    </clipPath>
    <clipPath id="clippath-21">
      <polygon class="cls-15" points="824.06 65.05 814.24 135.26 820.46 137.03 839.73 69.52 824.06 65.05"/>
    </clipPath>
    <clipPath id="clippath-22">
      <polygon class="cls-15" points="111.69 628.23 101.87 698.44 95.39 698.44 95.39 628.23 111.69 628.23"/>
    </clipPath>
    <clipPath id="clippath-23">
      <polygon class="cls-15" points="111.69 628.23 101.86 698.44 108.09 700.22 127.35 632.7 111.69 628.23"/>
    </clipPath>
    <clipPath id="clippath-24">
      <polygon class="cls-15" points="1749.39 53.24 1739.57 123.45 1733.1 123.45 1733.1 53.24 1749.39 53.24"/>
    </clipPath>
    <clipPath id="clippath-25">
      <polygon class="cls-15" points="1749.39 53.24 1739.57 123.45 1745.79 125.22 1765.06 57.71 1749.39 53.24"/>
    </clipPath>
    <clipPath id="clippath-26">
      <polygon class="cls-15" points="368.46 313.81 358.64 384.02 352.17 384.02 352.17 313.81 368.46 313.81"/>
    </clipPath>
    <clipPath id="clippath-27">
      <polygon class="cls-15" points="368.46 313.81 358.64 384.02 364.87 385.8 384.13 318.28 368.46 313.81"/>
    </clipPath>
    <clipPath id="clippath-28">
      <polygon class="cls-15" points="1492.61 755.88 1520.53 729.98 1520.53 755.88 1492.61 755.88"/>
    </clipPath>
    <clipPath id="clippath-29">
      <polygon class="cls-15" points="1492.61 755.88 1520.53 729.98 1494.7 728.04 1492.61 755.88"/>
    </clipPath>
    <clipPath id="clippath-30">
      <polygon class="cls-15" points="1750.67 986.31 1776.28 962.55 1776.28 986.31 1750.67 986.31"/>
    </clipPath>
    <clipPath id="clippath-31">
      <polygon class="cls-15" points="1750.67 986.31 1776.28 962.55 1752.59 960.77 1750.67 986.31"/>
    </clipPath>
    <clipPath id="clippath-32">
      <polygon class="cls-15" points="467.45 675.74 501.34 644.3 501.34 675.74 467.45 675.74"/>
    </clipPath>
    <clipPath id="clippath-33">
      <polygon class="cls-15" points="467.45 675.74 501.34 644.3 469.99 641.95 467.45 675.74"/>
    </clipPath>
    <clipPath id="clippath-34">
      <polygon class="cls-15" points="81.2 1020.34 122.43 982.08 122.43 1020.34 81.2 1020.34"/>
    </clipPath>
    <clipPath id="clippath-35">
      <polygon class="cls-15" points="81.2 1020.34 122.43 982.08 84.29 979.22 81.2 1020.34"/>
    </clipPath>
    <clipPath id="clippath-36">
      <polygon class="cls-15" points="1083.6 199.25 1118.99 166.42 1118.99 199.25 1083.6 199.25"/>
    </clipPath>
    <clipPath id="clippath-37">
      <polygon class="cls-15" points="1083.6 199.25 1118.99 166.42 1086.25 163.96 1083.6 199.25"/>
    </clipPath>
    <clipPath id="clippath-38">
      <polygon class="cls-15" points="1489.07 488.04 1523.36 456.23 1523.36 488.04 1489.07 488.04"/>
    </clipPath>
    <clipPath id="clippath-39">
      <polygon class="cls-15" points="1489.07 488.04 1523.36 456.23 1491.64 453.85 1489.07 488.04"/>
    </clipPath>
    <clipPath id="clippath-40">
      <polygon class="cls-15" points="1169.49 362.26 1159.67 432.46 1153.19 432.46 1153.19 362.26 1169.49 362.26"/>
    </clipPath>
    <clipPath id="clippath-41">
      <polygon class="cls-15" points="1169.49 362.26 1159.67 432.47 1165.89 434.24 1185.16 366.73 1169.49 362.26"/>
    </clipPath>
  </defs>
  <g>
    <path class="cls-21" d="m454.13,962.5c0-23.71,19.24-49.06,45.19-49.06,30.16,0,48.77,25.35,48.77,49.06s-21.03,42.92-46.98,42.92-46.98-19.22-46.98-42.92Z"/>
    <ellipse class="cls-7" cx="500.89" cy="960.72" rx="37.58" ry="37.29"/>
    <ellipse class="cls-1" cx="501.59" cy="960.2" rx="42.83" ry="42.43"/>
    <path class="cls-20" d="m516.89,947.45l1.97-6.76s-17.08-8.86-31.84,7.33c-1.39,1.53-3.52,7.47-3.52,7.47l-10.28.28-.42,5.92,10.57-.42v4.09h-10.28l-.56,5.07,11.41.85s6.02,12.73,16.9,14.51c10.43,1.71,17.75-1.55,17.75-1.55l-1.27-7.61s-16.88,7.97-22.82-5.35c-.88-1.97,15.21-.85,15.21-.85l.14-5.07-17.47-.7.28-3.8,17.61.42v-5.63h-16.76s-.83-5.35,6.48-8.31c7.31-2.96,16.9.14,16.9.14Z"/>
    <path class="cls-23" d="m516.89,946.09l1.97-6.76s-17.08-8.86-31.84,7.33c-1.39,1.53-3.52,7.47-3.52,7.47l-10.28.28-.42,5.92,10.57-.42v4.09h-10.28l-.56,5.07,11.41.85s6.02,12.73,16.9,14.51,17.75-1.55,17.75-1.55l-1.27-7.61s-16.88,7.97-22.82-5.35c-.88-1.97,15.21-.85,15.21-.85l.14-5.07-17.47-.7.28-3.8,17.61.42v-5.63h-16.76s-.83-5.35,6.48-8.31c7.31-2.96,16.9.14,16.9.14Z"/>
    <path class="cls-24" d="m455.87,974.11l63.15-56.63s4,1.85,5.26,2.59c1.42.83,5.26,3.84,5.26,3.84l-68.12,61.57s-1.82-3.02-3.27-5.58c-1.1-1.92-2.28-5.79-2.28-5.79Z"/>
    <polygon class="cls-24" points="467.96 992.92 465.62 990.63 464 988.83 531.98 926.02 533.46 927.45 534.92 928.99 467.96 992.92"/>
    <path class="cls-24" d="m473.87,997.48s3.43,2.25,4.69,3.03,5.09,2.16,5.09,2.16l61.45-56.8s-1.57-4.16-2.22-5.45c-.73-1.46-3.32-5.51-3.32-5.51l-65.68,62.56Z"/>
    <g>
      <g class="cls-48">
        <path class="cls-22" d="m487,988.53s-.46-5.16-1.41-6.27c-1.46-1.7-5.12-2.93-5.12-2.93,0,0,3.09.4,5.09-.81,2.16-1.31,3.65-6.18,3.65-6.18l38.13-16.85s-1.06-11.85-3.25-14.4c-3.35-3.91-11.76-6.73-11.76-6.73,0,0,7.1.92,11.69-1.86,4.97-3,8.38-14.19,8.38-14.19"/>
      </g>
      <g class="cls-38">
        <path class="cls-22" d="m486.88,988.51s1.86-4.83,3.08-5.64c1.87-1.23,5.73-1.41,5.73-1.41,0,0-3.08-.46-4.67-2.17-1.72-1.85-1.81-6.94-1.81-6.94l-32.05-26.67s4.27-11.1,7.07-12.96c4.29-2.84,13.16-3.25,13.16-3.25,0,0-7.08-1.06-10.73-4.99-3.96-4.25-4.17-15.95-4.17-15.95"/>
      </g>
    </g>
  </g>
  <g>
    <path class="cls-21" d="m879.18,646.55c22.57-7.27,52.59,3.28,60.55,27.97,9.24,28.71-9.18,54.2-31.74,61.46-22.57,7.27-47.31-6.86-55.26-31.56-7.95-24.7,3.89-50.61,26.46-57.88Z"/>
    <ellipse class="cls-7" cx="895.22" cy="690.52" rx="37.29" ry="37.58" transform="translate(-168.58 307.67) rotate(-17.85)"/>
    <ellipse class="cls-1" cx="895.92" cy="691.02" rx="42.43" ry="42.83" transform="translate(-168.7 307.91) rotate(-17.85)"/>
    <path class="cls-20" d="m912.75,701.67l7.04-.2s3.2-18.98-16.73-28.06c-1.88-.86-8.19-1.06-8.19-1.06l-3.42-9.7-5.76,1.41,3.64,9.93-3.89,1.25-3.15-9.79-5,1.02,2.69,11.12s-10.27,9.64-8.63,20.54c1.57,10.45,6.92,16.42,6.92,16.42l6.85-3.54s-12.76-13.62-1.9-23.36c1.6-1.44,5.47,14.22,5.47,14.22l4.87-1.42-4.68-16.84,3.71-.9,5,16.89,5.36-1.73-5.14-15.96s4.84-2.43,9.9,3.62c5.06,6.05,5.05,16.13,5.05,16.13Z"/>
    <path class="cls-23" d="m914.05,701.26l7.04-.2s3.2-18.98-16.73-28.06c-1.88-.86-8.19-1.06-8.19-1.06l-3.42-9.7-5.76,1.41,3.64,9.93-3.89,1.25-3.15-9.79-5,1.02,2.69,11.12s-10.27,9.64-8.63,20.54,6.92,16.42,6.92,16.42l6.85-3.54s-12.76-13.62-1.9-23.36c1.6-1.44,5.47,14.22,5.47,14.22l4.87-1.42-4.68-16.84,3.71-.9,5,16.89,5.36-1.73-5.14-15.96s4.84-2.43,9.9,3.62c5.06,6.05,5.05,16.13,5.05,16.13Z"/>
    <path class="cls-24" d="m868.66,651.76l73.26,42.75s-.54,4.37-.85,5.8c-.35,1.61-2.04,6.19-2.04,6.19l-79.49-45.97s2.32-2.65,4.31-4.82c1.5-1.63,4.81-3.95,4.81-3.95Z"/>
    <polygon class="cls-24" points="854.47 669.04 855.93 666.11 857.15 664.01 937.77 709.47 936.87 711.31 935.85 713.18 854.47 669.04"/>
    <path class="cls-24" d="m851.94,676.06s-1.09,3.95-1.45,5.39-.5,5.51-.5,5.51l72.9,41.08s3.48-2.77,4.5-3.78c1.17-1.15,4.23-4.85,4.23-4.85l-79.69-43.34Z"/>
    <g>
      <g class="cls-27">
        <path class="cls-22" d="m864.49,685.81s4.77-2.02,5.53-3.27c1.17-1.91,1.22-5.77,1.22-5.77,0,0,.57,3.06,2.33,4.6,1.91,1.66,7,1.58,7,1.58l27.73,31.13s10.95-4.64,12.71-7.5c2.69-4.38,2.8-13.26,2.8-13.26,0,0,1.3,7.04,5.35,10.56,4.38,3.81,16.08,3.63,16.08,3.63"/>
      </g>
      <g class="cls-52">
        <path class="cls-22" d="m864.47,685.7s5.17.29,6.31,1.2c1.75,1.4,3.1,5.02,3.1,5.02,0,0-.5-3.07.64-5.11,1.23-2.21,6.05-3.85,6.05-3.85l15.56-38.68s11.88.66,14.5,2.76c4.02,3.22,7.12,11.53,7.12,11.53,0,0-1.16-7.06,1.46-11.75,2.84-5.07,13.9-8.86,13.9-8.86"/>
      </g>
    </g>
  </g>
  <g>
    <path class="cls-21" d="m1241.89,888.51c30.63-9.86,71.39,4.45,82.18,37.97,12.55,38.96-12.46,73.56-43.09,83.43-30.63,9.86-64.21-9.31-75.01-42.84-10.8-33.52,5.28-68.69,35.91-78.56Z"/>
    <ellipse class="cls-2" cx="1263.65" cy="948.19" rx="50.61" ry="51.01" transform="translate(-229.83 433.02) rotate(-17.85)"/>
    <ellipse class="cls-3" cx="1264.6" cy="948.87" rx="57.59" ry="58.13" transform="translate(-229.99 433.34) rotate(-17.85)"/>
    <path class="cls-20" d="m1287.45,963.33l9.56-.27s4.34-25.76-22.71-38.09c-2.55-1.16-11.11-1.44-11.11-1.44l-4.64-13.17-7.82,1.92,4.94,13.47-5.28,1.7-4.28-13.29-6.79,1.38,3.66,15.09s-13.94,13.08-11.71,27.88,9.39,22.29,9.39,22.29l9.3-4.8s-17.32-18.49-2.58-31.71c2.18-1.95,7.42,19.31,7.42,19.31l6.61-1.93-6.36-22.86,5.03-1.22,6.78,22.93,7.28-2.34-6.98-21.66s6.57-3.3,13.43,4.91c6.86,8.21,6.85,21.9,6.85,21.9Z"/>
    <path class="cls-23" d="m1289.21,962.77l9.56-.27s4.34-25.76-22.71-38.09c-2.55-1.16-11.11-1.44-11.11-1.44l-4.64-13.17-7.82,1.92,4.94,13.47-5.28,1.7-4.28-13.29-6.79,1.38,3.66,15.09s-13.94,13.08-11.71,27.88c2.13,14.18,9.39,22.29,9.39,22.29l9.3-4.8s-17.32-18.49-2.58-31.71c2.18-1.95,7.42,19.31,7.42,19.31l6.61-1.93-6.36-22.86,5.03-1.22,6.78,22.93,7.28-2.34-6.98-21.66s6.57-3.3,13.43,4.91,6.85,21.9,6.85,21.9Z"/>
    <path class="cls-24" d="m1227.61,895.59l99.44,58.02s-.73,5.94-1.16,7.88c-.48,2.18-2.77,8.4-2.77,8.4l-107.89-62.4s3.15-3.6,5.84-6.55c2.03-2.22,6.53-5.36,6.53-5.36Z"/>
    <polygon class="cls-24" points="1208.34 919.04 1210.33 915.06 1211.98 912.21 1321.41 973.92 1320.18 976.42 1318.8 978.95 1208.34 919.04"/>
    <path class="cls-24" d="m1204.91,928.57s-1.48,5.36-1.97,7.32-.67,7.47-.67,7.47l98.96,55.76s4.72-3.77,6.11-5.14c1.58-1.55,5.74-6.59,5.74-6.59l-108.17-58.83Z"/>
    <g>
      <g class="cls-39">
        <path class="cls-22" d="m1221.94,941.81s6.47-2.74,7.51-4.43c1.59-2.59,1.66-7.83,1.66-7.83,0,0,.77,4.16,3.16,6.24,2.59,2.25,9.5,2.14,9.5,2.14l37.64,42.26s14.87-6.3,17.25-10.19c3.65-5.95,3.8-18,3.8-18,0,0,1.77,9.55,7.26,14.33,5.95,5.18,21.82,4.93,21.82,4.93"/>
      </g>
      <g class="cls-58">
        <path class="cls-22" d="m1221.91,941.65s7.02.39,8.57,1.63c2.37,1.9,4.21,6.81,4.21,6.81,0,0-.68-4.17.86-6.94,1.68-3,8.21-5.23,8.21-5.23l21.12-52.5s16.13.9,19.68,3.75c5.45,4.36,9.67,15.65,9.67,15.65,0,0-1.57-9.59,1.98-15.94,3.85-6.88,18.87-12.02,18.87-12.02"/>
      </g>
    </g>
  </g>
  <g>
    <path class="cls-21" d="m1396.39,92.77c30.63-9.86,71.39,4.45,82.18,37.97,12.55,38.96-12.46,73.56-43.09,83.43-30.63,9.86-64.21-9.31-75.01-42.84-10.8-33.52,5.28-68.69,35.91-78.56Z"/>
    <ellipse class="cls-2" cx="1418.15" cy="152.46" rx="50.61" ry="51.01" transform="translate(21.54 442.07) rotate(-17.85)"/>
    <ellipse class="cls-3" cx="1419.11" cy="153.14" rx="57.59" ry="58.13" transform="translate(21.38 442.4) rotate(-17.85)"/>
    <path class="cls-20" d="m1441.95,167.6l9.56-.27s4.34-25.76-22.71-38.09c-2.55-1.16-11.11-1.44-11.11-1.44l-4.64-13.17-7.82,1.92,4.94,13.47-5.28,1.7-4.28-13.29-6.79,1.38,3.66,15.09s-13.94,13.08-11.71,27.88,9.39,22.29,9.39,22.29l9.3-4.8s-17.32-18.49-2.58-31.71c2.18-1.95,7.42,19.31,7.42,19.31l6.61-1.93-6.36-22.86,5.03-1.22,6.78,22.93,7.28-2.34-6.98-21.66s6.57-3.3,13.43,4.91c6.86,8.21,6.85,21.9,6.85,21.9Z"/>
    <path class="cls-23" d="m1443.71,167.03l9.56-.27s4.34-25.76-22.71-38.09c-2.55-1.16-11.11-1.44-11.11-1.44l-4.64-13.17-7.82,1.92,4.94,13.47-5.28,1.7-4.28-13.29-6.79,1.38,3.66,15.09s-13.94,13.08-11.71,27.88c2.13,14.18,9.39,22.29,9.39,22.29l9.3-4.8s-17.32-18.49-2.58-31.71c2.18-1.95,7.42,19.31,7.42,19.31l6.61-1.93-6.36-22.86,5.03-1.22,6.78,22.93,7.28-2.34-6.98-21.66s6.57-3.3,13.43,4.91,6.85,21.9,6.85,21.9Z"/>
    <path class="cls-24" d="m1382.11,99.85l99.44,58.02s-.73,5.94-1.16,7.88c-.48,2.18-2.77,8.4-2.77,8.4l-107.89-62.4s3.15-3.6,5.84-6.55c2.03-2.22,6.53-5.36,6.53-5.36Z"/>
    <polygon class="cls-24" points="1362.84 123.31 1364.83 119.32 1366.49 116.48 1475.92 178.19 1474.69 180.68 1473.31 183.22 1362.84 123.31"/>
    <path class="cls-24" d="m1359.41,132.83s-1.48,5.36-1.97,7.32-.67,7.47-.67,7.47l98.96,55.76s4.72-3.77,6.11-5.14c1.58-1.55,5.74-6.59,5.74-6.59l-108.17-58.83Z"/>
    <g>
      <g class="cls-32">
        <path class="cls-22" d="m1376.44,146.07s6.47-2.74,7.51-4.43c1.59-2.59,1.66-7.83,1.66-7.83,0,0,.77,4.16,3.16,6.24,2.59,2.25,9.5,2.14,9.5,2.14l37.64,42.26s14.87-6.3,17.25-10.19c3.65-5.95,3.8-18,3.8-18,0,0,1.77,9.55,7.26,14.33,5.95,5.18,21.82,4.93,21.82,4.93"/>
      </g>
      <g class="cls-35">
        <path class="cls-22" d="m1376.42,145.92s7.02.39,8.57,1.63c2.37,1.9,4.21,6.81,4.21,6.81,0,0-.68-4.17.86-6.94,1.68-3,8.21-5.23,8.21-5.23l21.12-52.5s16.13.9,19.68,3.75c5.45,4.36,9.67,15.65,9.67,15.65,0,0-1.57-9.59,1.98-15.94,3.85-6.88,18.87-12.02,18.87-12.02"/>
      </g>
    </g>
  </g>
  <g>
    <path class="cls-21" d="m184.09,109.76c30.63-9.86,71.39,4.45,82.18,37.97,12.55,38.96-12.46,73.56-43.09,83.43-30.63,9.86-64.21-9.31-75.01-42.84-10.8-33.52,5.28-68.69,35.91-78.56Z"/>
    <ellipse class="cls-2" cx="205.85" cy="169.45" rx="50.61" ry="51.01" transform="translate(-42.03 71.26) rotate(-17.85)"/>
    <ellipse class="cls-3" cx="206.8" cy="170.13" rx="57.59" ry="58.13" transform="translate(-42.19 71.59) rotate(-17.85)"/>
    <path class="cls-20" d="m229.65,184.59l9.56-.27s4.34-25.76-22.71-38.09c-2.55-1.16-11.11-1.44-11.11-1.44l-4.64-13.17-7.82,1.92,4.94,13.47-5.28,1.7-4.28-13.29-6.79,1.38,3.66,15.09s-13.94,13.08-11.71,27.88,9.39,22.29,9.39,22.29l9.3-4.8s-17.32-18.49-2.58-31.71c2.18-1.95,7.42,19.31,7.42,19.31l6.61-1.93-6.36-22.86,5.03-1.22,6.78,22.93,7.28-2.34-6.98-21.66s6.57-3.3,13.43,4.91c6.86,8.21,6.85,21.9,6.85,21.9Z"/>
    <path class="cls-23" d="m231.41,184.02l9.56-.27s4.34-25.76-22.71-38.09c-2.55-1.16-11.11-1.44-11.11-1.44l-4.64-13.17-7.82,1.92,4.94,13.47-5.28,1.7-4.28-13.29-6.79,1.38,3.66,15.09s-13.94,13.08-11.71,27.88c2.13,14.18,9.39,22.29,9.39,22.29l9.3-4.8s-17.32-18.49-2.58-31.71c2.18-1.95,7.42,19.31,7.42,19.31l6.61-1.93-6.36-22.86,5.03-1.22,6.78,22.93,7.28-2.34-6.98-21.66s6.57-3.3,13.43,4.91,6.85,21.9,6.85,21.9Z"/>
    <path class="cls-24" d="m169.81,116.84l99.44,58.02s-.73,5.94-1.16,7.88c-.48,2.18-2.77,8.4-2.77,8.4l-107.89-62.4s3.15-3.6,5.84-6.55c2.03-2.22,6.53-5.36,6.53-5.36Z"/>
    <polygon class="cls-24" points="150.54 140.3 152.53 136.31 154.18 133.47 263.61 195.18 262.38 197.67 261 200.21 150.54 140.3"/>
    <path class="cls-24" d="m147.11,149.82s-1.48,5.36-1.97,7.32-.67,7.47-.67,7.47l98.96,55.76s4.72-3.77,6.11-5.14c1.58-1.55,5.74-6.59,5.74-6.59l-108.17-58.83Z"/>
    <g>
      <g class="cls-53">
        <path class="cls-22" d="m164.14,163.06s6.47-2.74,7.51-4.43c1.59-2.59,1.66-7.83,1.66-7.83,0,0,.77,4.16,3.16,6.24,2.59,2.25,9.5,2.14,9.5,2.14l37.64,42.26s14.87-6.3,17.25-10.19c3.65-5.95,3.8-18,3.8-18,0,0,1.77,9.55,7.26,14.33,5.95,5.18,21.82,4.93,21.82,4.93"/>
      </g>
      <g class="cls-47">
        <path class="cls-22" d="m164.11,162.91s7.02.39,8.57,1.63c2.37,1.9,4.21,6.81,4.21,6.81,0,0-.68-4.17.86-6.94,1.68-3,8.21-5.23,8.21-5.23l21.12-52.5s16.13.9,19.68,3.75c5.45,4.36,9.67,15.65,9.67,15.65,0,0-1.57-9.59,1.98-15.94,3.85-6.88,18.87-12.02,18.87-12.02"/>
      </g>
    </g>
  </g>
  <g>
    <path class="cls-21" d="m755.76,401.88c30.63-9.86,71.39,4.45,82.18,37.97,12.55,38.96-12.46,73.56-43.09,83.43-30.63,9.86-64.21-9.31-75.01-42.84-10.8-33.52,5.28-68.69,35.91-78.56Z"/>
    <ellipse class="cls-2" cx="777.52" cy="461.56" rx="50.61" ry="51.01" transform="translate(-104.06 260.57) rotate(-17.85)"/>
    <ellipse class="cls-3" cx="778.48" cy="462.24" rx="57.59" ry="58.13" transform="translate(-104.22 260.89) rotate(-17.85)"/>
    <path class="cls-20" d="m801.32,476.7l9.56-.27s4.34-25.76-22.71-38.09c-2.55-1.16-11.11-1.44-11.11-1.44l-4.64-13.17-7.82,1.92,4.94,13.47-5.28,1.7-4.28-13.29-6.79,1.38,3.66,15.09s-13.94,13.08-11.71,27.88,9.39,22.29,9.39,22.29l9.3-4.8s-17.32-18.49-2.58-31.71c2.18-1.95,7.42,19.31,7.42,19.31l6.61-1.93-6.36-22.86,5.03-1.22,6.78,22.93,7.28-2.34-6.98-21.66s6.57-3.3,13.43,4.91c6.86,8.21,6.85,21.9,6.85,21.9Z"/>
    <path class="cls-23" d="m803.08,476.14l9.56-.27s4.34-25.76-22.71-38.09c-2.55-1.16-11.11-1.44-11.11-1.44l-4.64-13.17-7.82,1.92,4.94,13.47-5.28,1.7-4.28-13.29-6.79,1.38,3.66,15.09s-13.94,13.08-11.71,27.88c2.13,14.18,9.39,22.29,9.39,22.29l9.3-4.8s-17.32-18.49-2.58-31.71c2.18-1.95,7.42,19.31,7.42,19.31l6.61-1.93-6.36-22.86,5.03-1.22,6.78,22.93,7.28-2.34-6.98-21.66s6.57-3.3,13.43,4.91,6.85,21.9,6.85,21.9Z"/>
    <path class="cls-24" d="m741.48,408.96l99.44,58.02s-.73,5.94-1.16,7.88c-.48,2.18-2.77,8.4-2.77,8.4l-107.89-62.4s3.15-3.6,5.84-6.55c2.03-2.22,6.53-5.36,6.53-5.36Z"/>
    <polygon class="cls-24" points="722.21 432.42 724.2 428.43 725.85 425.58 835.28 487.29 834.06 489.79 832.68 492.33 722.21 432.42"/>
    <path class="cls-24" d="m718.78,441.94s-1.48,5.36-1.97,7.32-.67,7.47-.67,7.47l98.96,55.76s4.72-3.77,6.11-5.14c1.58-1.55,5.74-6.59,5.74-6.59l-108.17-58.83Z"/>
    <g>
      <g class="cls-59">
        <path class="cls-22" d="m735.81,455.18s6.47-2.74,7.51-4.43c1.59-2.59,1.66-7.83,1.66-7.83,0,0,.77,4.16,3.16,6.24,2.59,2.25,9.5,2.14,9.5,2.14l37.64,42.26s14.87-6.3,17.25-10.19c3.65-5.95,3.8-18,3.8-18,0,0,1.77,9.55,7.26,14.33,5.95,5.18,21.82,4.93,21.82,4.93"/>
      </g>
      <g class="cls-17">
        <path class="cls-22" d="m735.78,455.02s7.02.39,8.57,1.63c2.37,1.9,4.21,6.81,4.21,6.81,0,0-.68-4.17.86-6.94,1.68-3,8.21-5.23,8.21-5.23l21.12-52.5s16.13.9,19.68,3.75c5.45,4.36,9.67,15.65,9.67,15.65,0,0-1.57-9.59,1.98-15.94,3.85-6.88,18.87-12.02,18.87-12.02"/>
      </g>
    </g>
  </g>
  <g>
    <path class="cls-21" d="m546.68,114.78c21.52,23.92,25.12,66.97-1.06,90.52-30.43,27.38-72.23,18.7-93.75-5.22-21.52-23.92-17.75-62.41,8.44-85.96,26.18-23.56,64.85-23.26,86.37.66Z"/>
    <ellipse class="cls-2" cx="501.1" cy="159.03" rx="51.01" ry="50.61" transform="translate(22.22 375.97) rotate(-41.98)"/>
    <ellipse class="cls-3" cx="500.88" cy="160.18" rx="58.13" ry="57.59" transform="translate(21.39 376.11) rotate(-41.98)"/>
    <path class="cls-20" d="m497.02,186.94l4.15,8.61s25.28-6.57,25.48-36.3c.02-2.8-3.22-10.73-3.22-10.73l10.12-9.62-4.95-6.35-10.28,10.02-3.71-4.12,10.38-9.34-4.04-5.63-12.28,9.51s-17.63-7.37-30.23.71c-12.07,7.74-16.5,17.68-16.5,17.68l8.19,6.52s9.79-23.37,27.89-15.32c2.67,1.19-14.58,14.67-14.58,14.67l4.46,5.25,18.27-15.15,3.17,4.09-18.15,15.56,5.12,5.69,16.92-15.22s5.69,4.65,1.01,14.27c-4.69,9.62-17.19,15.21-17.19,15.21Z"/>
    <path class="cls-23" d="m498.25,188.32l4.15,8.61s25.28-6.57,25.48-36.3c.02-2.8-3.22-10.73-3.22-10.73l10.12-9.62-4.95-6.35-10.28,10.02-3.71-4.12,10.38-9.34-4.04-5.63-12.28,9.51s-17.63-7.37-30.23.71c-12.07,7.74-16.5,17.68-16.5,17.68l8.19,6.52s9.79-23.37,27.89-15.32c2.67,1.19-14.58,14.67-14.58,14.67l4.46,5.25,18.27-15.15,3.17,4.09-18.15,15.56,5.12,5.69,16.92-15.22s5.69,4.65,1.01,14.27-17.19,15.21-17.19,15.21Z"/>
    <path class="cls-24" d="m534.38,104.64l-12.31,114.47s-5.71,1.76-7.66,2.17c-2.19.45-8.79.91-8.79.91l12.84-123.97s4.57,1.4,8.36,2.66c2.85.95,7.56,3.77,7.56,3.77Z"/>
    <polygon class="cls-24" points="505.1 96.64 509.55 96.83 512.82 97.17 501.24 222.27 498.45 222.17 495.57 221.94 505.1 96.64"/>
    <path class="cls-24" d="m495.01,97.4s-5.5.84-7.48,1.19-7.1,2.44-7.1,2.44l-10.44,113.1s5.36,2.77,7.19,3.48c2.07.81,8.36,2.54,8.36,2.54l9.48-122.76Z"/>
    <g>
      <g class="cls-43">
        <path class="cls-22" d="m489.88,118.36s5.15,4.78,7.11,5.04c3.01.39,7.83-1.69,7.83-1.69,0,0-3.48,2.4-4.4,5.43-1,3.28,1.93,9.54,1.93,9.54l-23.18,51.63s11.83,10.99,16.35,11.58c6.92.9,17.98-3.89,17.98-3.89,0,0-8,5.52-10.11,12.49-2.29,7.55,4.42,21.93,4.42,21.93"/>
      </g>
      <g class="cls-28">
        <path class="cls-22" d="m490.02,118.27s2.51,6.56,2.01,8.48c-.76,2.94-4.5,6.62-4.5,6.62,0,0,3.53-2.33,6.69-2.05,3.42.3,8.13,5.36,8.13,5.36l56.55-2.18s5.77,15.08,4.62,19.49c-1.76,6.76-10.33,15.22-10.33,15.22,0,0,8.11-5.35,15.36-4.71,7.86.7,18.68,12.31,18.68,12.31"/>
      </g>
    </g>
  </g>
  <g>
    <path class="cls-21" d="m1245.89,676.26c21.52,23.92,25.12,66.97-1.06,90.52-30.43,27.38-72.23,18.7-93.75-5.22s-17.75-62.41,8.44-85.96,64.85-23.26,86.37.66Z"/>
    <ellipse class="cls-2" cx="1200.31" cy="720.51" rx="51.01" ry="50.61" transform="translate(-173.91 987.71) rotate(-41.98)"/>
    <ellipse class="cls-3" cx="1200.09" cy="721.66" rx="58.13" ry="57.59" transform="translate(-174.74 987.85) rotate(-41.98)"/>
    <path class="cls-20" d="m1196.23,748.42l4.15,8.61s25.28-6.57,25.48-36.3c.02-2.8-3.22-10.73-3.22-10.73l10.12-9.62-4.95-6.35-10.28,10.02-3.71-4.12,10.38-9.34-4.04-5.63-12.28,9.51s-17.63-7.37-30.23.71c-12.07,7.74-16.5,17.68-16.5,17.68l8.19,6.52s9.79-23.37,27.89-15.32c2.67,1.19-14.58,14.67-14.58,14.67l4.46,5.25,18.27-15.15,3.17,4.09-18.15,15.56,5.12,5.69,16.92-15.22s5.69,4.65,1.01,14.27c-4.69,9.62-17.19,15.21-17.19,15.21Z"/>
    <path class="cls-23" d="m1197.46,749.8l4.15,8.61s25.28-6.57,25.48-36.3c.02-2.8-3.22-10.73-3.22-10.73l10.12-9.62-4.95-6.35-10.28,10.02-3.71-4.12,10.38-9.34-4.04-5.63-12.28,9.51s-17.63-7.37-30.23.71c-12.07,7.74-16.5,17.68-16.5,17.68l8.19,6.52s9.79-23.37,27.89-15.32c2.67,1.19-14.58,14.67-14.58,14.67l4.46,5.25,18.27-15.15,3.17,4.09-18.15,15.56,5.12,5.69,16.92-15.22s5.69,4.65,1.01,14.27-17.19,15.21-17.19,15.21Z"/>
    <path class="cls-24" d="m1233.59,666.12l-12.31,114.47s-5.71,1.76-7.66,2.17c-2.19.45-8.79.91-8.79.91l12.84-123.97s4.57,1.4,8.36,2.66c2.85.95,7.56,3.77,7.56,3.77Z"/>
    <polygon class="cls-24" points="1204.31 658.12 1208.76 658.31 1212.03 658.65 1200.44 783.75 1197.66 783.65 1194.78 783.42 1204.31 658.12"/>
    <path class="cls-24" d="m1194.22,658.88s-5.5.84-7.48,1.19c-1.98.35-7.1,2.44-7.1,2.44l-10.44,113.1s5.36,2.77,7.19,3.48c2.07.81,8.36,2.54,8.36,2.54l9.48-122.76Z"/>
    <g>
      <g class="cls-56">
        <path class="cls-22" d="m1189.09,679.84s5.15,4.78,7.11,5.04c3.01.39,7.83-1.69,7.83-1.69,0,0-3.48,2.4-4.4,5.43-1,3.28,1.93,9.54,1.93,9.54l-23.18,51.63s11.83,10.99,16.35,11.58c6.92.9,17.98-3.89,17.98-3.89,0,0-8,5.52-10.11,12.49-2.29,7.55,4.42,21.93,4.42,21.93"/>
      </g>
      <g class="cls-31">
        <path class="cls-22" d="m1189.23,679.75s2.51,6.56,2.01,8.48c-.76,2.94-4.5,6.62-4.5,6.62,0,0,3.53-2.33,6.69-2.05,3.42.3,8.13,5.36,8.13,5.36l56.55-2.18s5.77,15.08,4.62,19.49c-1.76,6.76-10.33,15.22-10.33,15.22,0,0,8.11-5.35,15.36-4.71,7.86.7,18.68,12.31,18.68,12.31"/>
      </g>
    </g>
  </g>
  <g>
    <path class="cls-21" d="m865.53,937.5c21.52,23.92,25.12,66.97-1.06,90.52-30.43,27.38-72.23,18.7-93.75-5.22s-17.75-62.41,8.44-85.96,64.85-23.26,86.37.66Z"/>
    <ellipse class="cls-2" cx="819.95" cy="981.76" rx="51.01" ry="50.61" transform="translate(-446.25 800.34) rotate(-41.98)"/>
    <ellipse class="cls-3" cx="819.73" cy="982.91" rx="58.13" ry="57.59" transform="translate(-447.08 800.49) rotate(-41.98)"/>
    <path class="cls-20" d="m815.86,1009.67l4.15,8.61s25.28-6.57,25.48-36.3c.02-2.8-3.22-10.73-3.22-10.73l10.12-9.62-4.95-6.35-10.28,10.02-3.71-4.12,10.38-9.34-4.04-5.63-12.28,9.51s-17.63-7.37-30.23.71c-12.07,7.74-16.5,17.68-16.5,17.68l8.19,6.52s9.79-23.37,27.89-15.32c2.67,1.19-14.58,14.67-14.58,14.67l4.46,5.25,18.27-15.15,3.17,4.09-18.15,15.56,5.12,5.69,16.92-15.22s5.69,4.65,1.01,14.27c-4.69,9.62-17.19,15.21-17.19,15.21Z"/>
    <path class="cls-23" d="m817.1,1011.04l4.15,8.61s25.28-6.57,25.48-36.3c.02-2.8-3.22-10.73-3.22-10.73l10.12-9.62-4.95-6.35-10.28,10.02-3.71-4.12,10.38-9.34-4.04-5.63-12.28,9.51s-17.63-7.37-30.23.71c-12.07,7.74-16.5,17.68-16.5,17.68l8.19,6.52s9.79-23.37,27.89-15.32c2.67,1.19-14.58,14.67-14.58,14.67l4.46,5.25,18.27-15.15,3.17,4.09-18.15,15.56,5.12,5.69,16.92-15.22s5.69,4.65,1.01,14.27-17.19,15.21-17.19,15.21Z"/>
    <path class="cls-24" d="m853.23,927.37l-12.31,114.47s-5.71,1.76-7.66,2.17c-2.19.45-8.79.91-8.79.91l12.84-123.97s4.57,1.4,8.36,2.66c2.85.95,7.56,3.77,7.56,3.77Z"/>
    <polygon class="cls-24" points="823.95 919.37 828.4 919.55 831.67 919.9 820.08 1045 817.3 1044.9 814.42 1044.67 823.95 919.37"/>
    <path class="cls-24" d="m813.85,920.13s-5.5.84-7.48,1.19c-1.98.35-7.1,2.44-7.1,2.44l-10.44,113.1s5.36,2.77,7.19,3.48c2.07.81,8.36,2.54,8.36,2.54l9.48-122.76Z"/>
    <g>
      <g class="cls-18">
        <path class="cls-22" d="m808.73,941.09s5.15,4.78,7.11,5.04c3.01.39,7.83-1.69,7.83-1.69,0,0-3.48,2.4-4.4,5.43-1,3.28,1.93,9.54,1.93,9.54l-23.18,51.63s11.83,10.99,16.35,11.58c6.92.9,17.98-3.89,17.98-3.89,0,0-8,5.52-10.11,12.49-2.29,7.55,4.42,21.93,4.42,21.93"/>
      </g>
      <g class="cls-57">
        <path class="cls-22" d="m808.86,941s2.51,6.56,2.01,8.48c-.76,2.94-4.5,6.62-4.5,6.62,0,0,3.53-2.33,6.69-2.05,3.42.3,8.13,5.36,8.13,5.36l56.55-2.18s5.77,15.08,4.62,19.49c-1.76,6.76-10.33,15.22-10.33,15.22,0,0,8.11-5.35,15.36-4.71,7.86.7,18.68,12.31,18.68,12.31"/>
      </g>
    </g>
  </g>
  <g>
    <path class="cls-21" d="m1787.94,405.64c30.63-9.86,71.39,4.45,82.18,37.97,12.55,38.96-12.46,73.56-43.09,83.43-30.63,9.86-64.21-9.31-75.01-42.84-10.8-33.52,5.28-68.69,35.91-78.56Z"/>
    <ellipse class="cls-2" cx="1809.7" cy="465.33" rx="50.61" ry="51.01" transform="translate(-55.52 577.16) rotate(-17.85)"/>
    <ellipse class="cls-3" cx="1810.65" cy="466.01" rx="57.59" ry="58.13" transform="translate(-55.68 577.49) rotate(-17.85)"/>
    <path class="cls-20" d="m1833.5,480.47l9.56-.27s4.34-25.76-22.71-38.09c-2.55-1.16-11.11-1.44-11.11-1.44l-4.64-13.17-7.82,1.92,4.94,13.47-5.28,1.7-4.28-13.29-6.79,1.38,3.66,15.09s-13.94,13.08-11.71,27.88,9.39,22.29,9.39,22.29l9.3-4.8s-17.32-18.49-2.58-31.71c2.18-1.95,7.42,19.31,7.42,19.31l6.61-1.93-6.36-22.86,5.03-1.22,6.78,22.93,7.28-2.34-6.98-21.66s6.57-3.3,13.43,4.91c6.86,8.21,6.85,21.9,6.85,21.9Z"/>
    <path class="cls-23" d="m1835.26,479.9l9.56-.27s4.34-25.76-22.71-38.09c-2.55-1.16-11.11-1.44-11.11-1.44l-4.64-13.17-7.82,1.92,4.94,13.47-5.28,1.7-4.28-13.29-6.79,1.38,3.66,15.09s-13.94,13.08-11.71,27.88c2.13,14.18,9.39,22.29,9.39,22.29l9.3-4.8s-17.32-18.49-2.58-31.71c2.18-1.95,7.42,19.31,7.42,19.31l6.61-1.93-6.36-22.86,5.03-1.22,6.78,22.93,7.28-2.34-6.98-21.66s6.57-3.3,13.43,4.91,6.85,21.9,6.85,21.9Z"/>
    <path class="cls-24" d="m1773.66,412.72l99.44,58.02s-.73,5.94-1.16,7.88c-.48,2.18-2.77,8.4-2.77,8.4l-107.89-62.4s3.15-3.6,5.84-6.55c2.03-2.22,6.53-5.36,6.53-5.36Z"/>
    <polygon class="cls-24" points="1754.39 436.18 1756.38 432.19 1758.03 429.35 1867.46 491.06 1866.23 493.55 1864.85 496.09 1754.39 436.18"/>
    <path class="cls-24" d="m1750.96,445.7s-1.48,5.36-1.97,7.32-.67,7.47-.67,7.47l98.96,55.76s4.72-3.77,6.11-5.14c1.58-1.55,5.74-6.59,5.74-6.59l-108.17-58.83Z"/>
    <g>
      <g class="cls-55">
        <path class="cls-22" d="m1767.99,458.94s6.47-2.74,7.51-4.43c1.59-2.59,1.66-7.83,1.66-7.83,0,0,.77,4.16,3.16,6.24,2.59,2.25,9.5,2.14,9.5,2.14l37.64,42.26s14.87-6.3,17.25-10.19c3.65-5.95,3.8-18,3.8-18,0,0,1.77,9.55,7.26,14.33,5.95,5.18,21.82,4.93,21.82,4.93"/>
      </g>
      <g class="cls-50">
        <path class="cls-22" d="m1767.96,458.79s7.02.39,8.57,1.63c2.37,1.9,4.21,6.81,4.21,6.81,0,0-.68-4.17.86-6.94,1.68-3,8.21-5.23,8.21-5.23l21.12-52.5s16.13.9,19.68,3.75c5.45,4.36,9.67,15.65,9.67,15.65,0,0-1.57-9.59,1.98-15.94,3.85-6.88,18.87-12.02,18.87-12.02"/>
      </g>
    </g>
  </g>
  <g>
    <path class="cls-21" d="m781.42,109.23c0-23.71,19.24-49.06,45.19-49.06,30.16,0,48.77,25.35,48.77,49.06s-21.03,42.92-46.98,42.92-46.98-19.22-46.98-42.92Z"/>
    <ellipse class="cls-7" cx="828.19" cy="107.45" rx="37.58" ry="37.29"/>
    <ellipse class="cls-1" cx="828.88" cy="106.93" rx="42.83" ry="42.43"/>
    <path class="cls-20" d="m844.19,94.18l1.97-6.76s-17.08-8.86-31.84,7.33c-1.39,1.53-3.52,7.47-3.52,7.47l-10.28.28-.42,5.92,10.57-.42v4.09h-10.28l-.56,5.07,11.41.85s6.02,12.73,16.9,14.51c10.43,1.71,17.75-1.55,17.75-1.55l-1.27-7.61s-16.88,7.97-22.82-5.35c-.88-1.97,15.21-.85,15.21-.85l.14-5.07-17.47-.7.28-3.8,17.61.42v-5.63h-16.76s-.83-5.35,6.48-8.31c7.31-2.96,16.9.14,16.9.14Z"/>
    <path class="cls-23" d="m844.19,92.82l1.97-6.76s-17.08-8.86-31.84,7.33c-1.39,1.53-3.52,7.47-3.52,7.47l-10.28.28-.42,5.92,10.57-.42v4.09h-10.28l-.56,5.07,11.41.85s6.02,12.73,16.9,14.51,17.75-1.55,17.75-1.55l-1.27-7.61s-16.88,7.97-22.82-5.35c-.88-1.97,15.21-.85,15.21-.85l.14-5.07-17.47-.7.28-3.8,17.61.42v-5.63h-16.76s-.83-5.35,6.48-8.31c7.31-2.96,16.9.14,16.9.14Z"/>
    <path class="cls-24" d="m783.16,120.85l63.15-56.63s4,1.85,5.26,2.59c1.42.83,5.26,3.84,5.26,3.84l-68.12,61.57s-1.82-3.02-3.27-5.58c-1.1-1.92-2.28-5.79-2.28-5.79Z"/>
    <polygon class="cls-24" points="795.26 139.66 792.92 137.36 791.29 135.56 859.28 72.76 860.75 74.18 862.22 75.72 795.26 139.66"/>
    <path class="cls-24" d="m801.16,144.21s3.43,2.25,4.69,3.03,5.09,2.16,5.09,2.16l61.45-56.8s-1.57-4.16-2.22-5.45c-.73-1.46-3.32-5.51-3.32-5.51l-65.68,62.56Z"/>
    <g>
      <g class="cls-16">
        <path class="cls-22" d="m814.29,135.26s-.46-5.16-1.41-6.27c-1.46-1.7-5.12-2.93-5.12-2.93,0,0,3.09.4,5.09-.81,2.16-1.31,3.65-6.18,3.65-6.18l38.13-16.85s-1.06-11.85-3.25-14.4c-3.35-3.91-11.76-6.73-11.76-6.73,0,0,7.1.92,11.69-1.86,4.97-3,8.38-14.19,8.38-14.19"/>
      </g>
      <g class="cls-36">
        <path class="cls-22" d="m814.18,135.24s1.86-4.83,3.08-5.64c1.87-1.23,5.73-1.41,5.73-1.41,0,0-3.08-.46-4.67-2.17-1.72-1.85-1.81-6.94-1.81-6.94l-32.05-26.67s4.27-11.1,7.07-12.96c4.29-2.84,13.16-3.25,13.16-3.25,0,0-7.08-1.06-10.73-4.99-3.96-4.25-4.17-15.95-4.17-15.95"/>
      </g>
    </g>
  </g>
  <g>
    <path class="cls-21" d="m69.05,672.41c0-23.71,19.24-49.06,45.19-49.06,30.16,0,48.77,25.35,48.77,49.06s-21.03,42.92-46.98,42.92-46.98-19.22-46.98-42.92Z"/>
    <ellipse class="cls-7" cx="115.82" cy="670.63" rx="37.58" ry="37.29"/>
    <ellipse class="cls-1" cx="116.51" cy="670.12" rx="42.83" ry="42.43"/>
    <path class="cls-20" d="m131.82,657.36l1.97-6.76s-17.08-8.86-31.84,7.33c-1.39,1.53-3.52,7.47-3.52,7.47l-10.28.28-.42,5.92,10.57-.42v4.09h-10.28l-.56,5.07,11.41.85s6.02,12.73,16.9,14.51c10.43,1.71,17.75-1.55,17.75-1.55l-1.27-7.61s-16.88,7.97-22.82-5.35c-.88-1.97,15.21-.85,15.21-.85l.14-5.07-17.47-.7.28-3.8,17.61.42v-5.63h-16.76s-.83-5.35,6.48-8.31c7.31-2.96,16.9.14,16.9.14Z"/>
    <path class="cls-23" d="m131.82,656l1.97-6.76s-17.08-8.86-31.84,7.33c-1.39,1.53-3.52,7.47-3.52,7.47l-10.28.28-.42,5.92,10.57-.42v4.09h-10.28l-.56,5.07,11.41.85s6.02,12.73,16.9,14.51,17.75-1.55,17.75-1.55l-1.27-7.61s-16.88,7.97-22.82-5.35c-.88-1.97,15.21-.85,15.21-.85l.14-5.07-17.47-.7.28-3.8,17.61.42v-5.63h-16.76s-.83-5.35,6.48-8.31c7.31-2.96,16.9.14,16.9.14Z"/>
    <path class="cls-24" d="m70.79,684.03l63.15-56.63s4,1.85,5.26,2.59c1.42.83,5.26,3.84,5.26,3.84l-68.12,61.57s-1.82-3.02-3.27-5.58c-1.1-1.92-2.28-5.79-2.28-5.79Z"/>
    <polygon class="cls-24" points="82.89 702.84 80.54 700.54 78.92 698.74 146.91 635.94 148.38 637.36 149.85 638.9 82.89 702.84"/>
    <path class="cls-24" d="m88.79,707.39s3.43,2.25,4.69,3.03,5.09,2.16,5.09,2.16l61.45-56.8s-1.57-4.16-2.22-5.45c-.73-1.46-3.32-5.51-3.32-5.51l-65.68,62.56Z"/>
    <g>
      <g class="cls-46">
        <path class="cls-22" d="m101.92,698.44s-.46-5.16-1.41-6.27c-1.46-1.7-5.12-2.93-5.12-2.93,0,0,3.09.4,5.09-.81,2.16-1.31,3.65-6.18,3.65-6.18l38.13-16.85s-1.06-11.85-3.25-14.4c-3.35-3.91-11.76-6.73-11.76-6.73,0,0,7.1.92,11.69-1.86,4.97-3,8.38-14.19,8.38-14.19"/>
      </g>
      <g class="cls-60">
        <path class="cls-22" d="m101.81,698.42s1.86-4.83,3.08-5.64c1.87-1.23,5.73-1.41,5.73-1.41,0,0-3.08-.46-4.67-2.17-1.72-1.85-1.81-6.94-1.81-6.94l-32.05-26.67s4.27-11.1,7.07-12.96c4.29-2.84,13.16-3.25,13.16-3.25,0,0-7.08-1.06-10.73-4.99-3.96-4.25-4.17-15.95-4.17-15.95"/>
      </g>
    </g>
  </g>
  <g>
    <path class="cls-21" d="m1706.76,97.42c0-23.71,19.24-49.06,45.19-49.06,30.16,0,48.77,25.35,48.77,49.06s-21.03,42.92-46.98,42.92-46.98-19.22-46.98-42.92Z"/>
    <ellipse class="cls-7" cx="1753.53" cy="95.64" rx="37.58" ry="37.29"/>
    <ellipse class="cls-1" cx="1754.22" cy="95.12" rx="42.83" ry="42.43"/>
    <path class="cls-20" d="m1769.52,82.37l1.97-6.76s-17.08-8.86-31.84,7.33c-1.39,1.53-3.52,7.47-3.52,7.47l-10.28.28-.42,5.92,10.57-.42v4.09h-10.28l-.56,5.07,11.41.85s6.02,12.73,16.9,14.51c10.43,1.71,17.75-1.55,17.75-1.55l-1.27-7.61s-16.88,7.97-22.82-5.35c-.88-1.97,15.21-.85,15.21-.85l.14-5.07-17.47-.7.28-3.8,17.61.42v-5.63h-16.76s-.83-5.35,6.48-8.31,16.9.14,16.9.14Z"/>
    <path class="cls-23" d="m1769.52,81.01l1.97-6.76s-17.08-8.86-31.84,7.33c-1.39,1.53-3.52,7.47-3.52,7.47l-10.28.28-.42,5.92,10.57-.42v4.09h-10.28l-.56,5.07,11.41.85s6.02,12.73,16.9,14.51,17.75-1.55,17.75-1.55l-1.27-7.61s-16.88,7.97-22.82-5.35c-.88-1.97,15.21-.85,15.21-.85l.14-5.07-17.47-.7.28-3.8,17.61.42v-5.63h-16.76s-.83-5.35,6.48-8.31c7.31-2.96,16.9.14,16.9.14Z"/>
    <path class="cls-24" d="m1708.5,109.04l63.15-56.63s4,1.85,5.26,2.59c1.42.83,5.26,3.84,5.26,3.84l-68.12,61.57s-1.82-3.02-3.27-5.58c-1.1-1.92-2.28-5.79-2.28-5.79Z"/>
    <polygon class="cls-24" points="1720.6 127.85 1718.25 125.55 1716.63 123.75 1784.61 60.95 1786.09 62.37 1787.56 63.91 1720.6 127.85"/>
    <path class="cls-24" d="m1726.5,132.4s3.43,2.25,4.69,3.03,5.09,2.16,5.09,2.16l61.45-56.8s-1.57-4.16-2.22-5.45c-.73-1.46-3.32-5.51-3.32-5.51l-65.68,62.56Z"/>
    <g>
      <g class="cls-44">
        <path class="cls-22" d="m1739.63,123.45s-.46-5.16-1.41-6.27c-1.46-1.7-5.12-2.93-5.12-2.93,0,0,3.09.4,5.09-.81,2.16-1.31,3.65-6.18,3.65-6.18l38.13-16.85s-1.06-11.85-3.25-14.4c-3.35-3.91-11.76-6.73-11.76-6.73,0,0,7.1.92,11.69-1.86,4.97-3,8.38-14.19,8.38-14.19"/>
      </g>
      <g class="cls-30">
        <path class="cls-22" d="m1739.51,123.43s1.86-4.83,3.08-5.64c1.87-1.23,5.73-1.41,5.73-1.41,0,0-3.08-.46-4.67-2.17-1.72-1.85-1.81-6.94-1.81-6.94l-32.05-26.67s4.27-11.1,7.07-12.96c4.29-2.84,13.16-3.25,13.16-3.25,0,0-7.08-1.06-10.73-4.99-3.96-4.25-4.17-15.95-4.17-15.95"/>
      </g>
    </g>
  </g>
  <g>
    <path class="cls-21" d="m325.83,358c0-23.71,19.24-49.06,45.19-49.06,30.16,0,48.77,25.35,48.77,49.06s-21.03,42.92-46.98,42.92-46.98-19.22-46.98-42.92Z"/>
    <ellipse class="cls-7" cx="372.6" cy="356.22" rx="37.58" ry="37.29"/>
    <ellipse class="cls-1" cx="373.29" cy="355.7" rx="42.83" ry="42.43"/>
    <path class="cls-20" d="m388.59,342.94l1.97-6.76s-17.08-8.86-31.84,7.33c-1.39,1.53-3.52,7.47-3.52,7.47l-10.28.28-.42,5.92,10.57-.42v4.09h-10.28l-.56,5.07,11.41.85s6.02,12.73,16.9,14.51c10.43,1.71,17.75-1.55,17.75-1.55l-1.27-7.61s-16.88,7.97-22.82-5.35c-.88-1.97,15.21-.85,15.21-.85l.14-5.07-17.47-.7.28-3.8,17.61.42v-5.63h-16.76s-.83-5.35,6.48-8.31c7.31-2.96,16.9.14,16.9.14Z"/>
    <path class="cls-23" d="m388.59,341.58l1.97-6.76s-17.08-8.86-31.84,7.33c-1.39,1.53-3.52,7.47-3.52,7.47l-10.28.28-.42,5.92,10.57-.42v4.09h-10.28l-.56,5.07,11.41.85s6.02,12.73,16.9,14.51,17.75-1.55,17.75-1.55l-1.27-7.61s-16.88,7.97-22.82-5.35c-.88-1.97,15.21-.85,15.21-.85l.14-5.07-17.47-.7.28-3.8,17.61.42v-5.63h-16.76s-.83-5.35,6.48-8.31c7.31-2.96,16.9.14,16.9.14Z"/>
    <path class="cls-24" d="m327.57,369.61l63.15-56.63s4,1.85,5.26,2.59c1.42.83,5.26,3.84,5.26,3.84l-68.12,61.57s-1.82-3.02-3.27-5.58c-1.1-1.92-2.28-5.79-2.28-5.79Z"/>
    <polygon class="cls-24" points="339.67 388.42 337.32 386.12 335.7 384.32 403.69 321.52 405.16 322.94 406.63 324.49 339.67 388.42"/>
    <path class="cls-24" d="m345.57,392.97s3.43,2.25,4.69,3.03,5.09,2.16,5.09,2.16l61.45-56.8s-1.57-4.16-2.22-5.45c-.73-1.46-3.32-5.51-3.32-5.51l-65.68,62.56Z"/>
    <g>
      <g class="cls-34">
        <path class="cls-22" d="m358.7,384.02s-.46-5.16-1.41-6.27c-1.46-1.7-5.12-2.93-5.12-2.93,0,0,3.09.4,5.09-.81,2.16-1.31,3.65-6.18,3.65-6.18l38.13-16.85s-1.06-11.85-3.25-14.4c-3.35-3.91-11.76-6.73-11.76-6.73,0,0,7.1.92,11.69-1.86,4.97-3,8.38-14.19,8.38-14.19"/>
      </g>
      <g class="cls-42">
        <path class="cls-22" d="m358.58,384.01s1.86-4.83,3.08-5.64c1.87-1.23,5.73-1.41,5.73-1.41,0,0-3.08-.46-4.67-2.17-1.72-1.85-1.81-6.94-1.81-6.94l-32.05-26.67s4.27-11.1,7.07-12.96c4.29-2.84,13.16-3.25,13.16-3.25,0,0-7.08-1.06-10.73-4.99-3.96-4.25-4.17-15.95-4.17-15.95"/>
      </g>
    </g>
  </g>
  <g>
    <path class="cls-21" d="m1529.56,770.85c-14.98,18.38-45.91,25.87-66.02,9.47-23.38-19.05-21.79-50.46-6.81-68.84s43.42-19.98,63.53-3.59,24.27,44.58,9.29,62.95Z"/>
    <ellipse class="cls-7" cx="1492.19" cy="742.68" rx="37.29" ry="37.58" transform="translate(-26.27 1430.04) rotate(-50.81)"/>
    <ellipse class="cls-1" cx="1491.32" cy="742.64" rx="42.43" ry="42.83" transform="translate(-26.56 1429.36) rotate(-50.81)"/>
    <path class="cls-20" d="m1471.4,742.86l-5.8,4s7.64,17.66,29.31,14.44c2.04-.3,7.45-3.56,7.45-3.56l8.15,6.28,4.07-4.32-8.46-6.35,2.58-3.17,7.97,6.5,3.64-3.57-8.31-7.86s3.37-13.67-3.94-21.93-14.74-10.01-14.74-10.01l-3.82,6.7s18.12,4.48,14.31,18.57c-.56,2.08-12.33-8.96-12.33-8.96l-3.31,3.84,13.09,11.58-2.62,2.77-13.38-11.45-3.56,4.37,12.99,10.59s-2.74,4.67-10.27,2.35-13.01-10.79-13.01-10.79Z"/>
    <path class="cls-23" d="m1470.55,743.91l-5.8,4s7.64,17.66,29.31,14.44c2.04-.3,7.45-3.56,7.45-3.56l8.15,6.28,4.07-4.32-8.46-6.35,2.58-3.17,7.97,6.5,3.64-3.57-8.31-7.86s3.37-13.67-3.94-21.93c-7-7.91-14.74-10.01-14.74-10.01l-3.82,6.7s18.12,4.48,14.31,18.57c-.56,2.08-12.33-8.96-12.33-8.96l-3.31,3.84,13.09,11.58-2.62,2.77-13.38-11.45-3.56,4.37,12.99,10.59s-2.74,4.67-10.27,2.35c-7.53-2.32-13.01-10.79-13.01-10.79Z"/>
    <path class="cls-24" d="m1535.55,760.74l-84.72,3.99s-1.93-3.96-2.44-5.33c-.58-1.54-1.66-6.3-1.66-6.3l91.7-4.68s-.5,3.49-.99,6.39c-.37,2.18-1.89,5.93-1.89,5.93Z"/>
    <polygon class="cls-24" points="1538.06 738.52 1538.43 741.78 1538.54 744.2 1446.17 749.93 1445.92 747.89 1445.76 745.77 1538.06 738.52"/>
    <path class="cls-24" d="m1536.36,731.26s-1.24-3.91-1.72-5.31-2.58-4.89-2.58-4.89l-83.52,5.2s-1.41,4.22-1.72,5.62c-.36,1.6-.91,6.37-.91,6.37l90.44-6.99Z"/>
    <g>
      <g class="cls-61">
        <path class="cls-22" d="m1520.53,729.9s-2.9,4.29-2.86,5.75c.06,2.24,2.12,5.51,2.12,5.51,0,0-2.14-2.26-4.45-2.59-2.5-.35-6.73,2.48-6.73,2.48l-40.21-11.03s-6.66,9.86-6.58,13.21c.13,5.14,4.86,12.65,4.86,12.65,0,0-4.92-5.2-10.23-5.95-5.75-.81-15.46,5.7-15.46,5.7"/>
      </g>
      <g class="cls-54">
        <path class="cls-22" d="m1520.61,729.99s-4.49,2.57-5.95,2.43c-2.23-.22-5.33-2.52-5.33-2.52,0,0,2.09,2.31,2.25,4.64.17,2.52-2.98,6.53-2.98,6.53l7.99,40.92s-10.33,5.91-13.67,5.57c-5.12-.51-12.25-5.8-12.25-5.8,0,0,4.81,5.3,5.17,10.65.38,5.8-6.84,14.99-6.84,14.99"/>
      </g>
    </g>
  </g>
  <g>
    <path class="cls-21" d="m1784.57,1000.03c-13.74,16.86-42.11,23.73-60.56,8.69-21.44-17.48-19.99-46.29-6.25-63.15s39.83-18.33,58.28-3.29c18.45,15.04,22.27,40.89,8.53,57.75Z"/>
    <ellipse class="cls-11" cx="1750.28" cy="974.19" rx="34.2" ry="34.48" transform="translate(-110.7 1715.33) rotate(-50.81)"/>
    <ellipse class="cls-12" cx="1749.49" cy="974.16" rx="38.92" ry="39.28" transform="translate(-110.97 1714.7) rotate(-50.81)"/>
    <path class="cls-20" d="m1731.22,974.36l-5.32,3.66s7.01,16.2,26.88,13.24c1.87-.28,6.83-3.27,6.83-3.27l7.48,5.76,3.73-3.96-7.76-5.82,2.37-2.9,7.31,5.96,3.34-3.28-7.62-7.21s3.09-12.54-3.61-20.11-13.52-9.19-13.52-9.19l-3.51,6.14s16.62,4.11,13.12,17.03c-.52,1.91-11.31-8.22-11.31-8.22l-3.04,3.52,12.01,10.63-2.4,2.54-12.28-10.51-3.27,4.01,11.92,9.72s-2.51,4.29-9.42,2.15-11.94-9.9-11.94-9.9Z"/>
    <path class="cls-23" d="m1730.43,975.33l-5.32,3.66s7.01,16.2,26.88,13.24c1.87-.28,6.83-3.27,6.83-3.27l7.48,5.76,3.73-3.96-7.76-5.82,2.37-2.9,7.31,5.96,3.34-3.28-7.62-7.21s3.09-12.54-3.61-20.11c-6.42-7.26-13.52-9.19-13.52-9.19l-3.51,6.14s16.62,4.11,13.12,17.03c-.52,1.91-11.31-8.22-11.31-8.22l-3.04,3.52,12.01,10.63-2.4,2.54-12.28-10.51-3.27,4.01,11.92,9.72s-2.51,4.29-9.42,2.15c-6.91-2.13-11.94-9.9-11.94-9.9Z"/>
    <path class="cls-24" d="m1790.06,990.77l-77.72,3.66s-1.77-3.63-2.24-4.89c-.53-1.41-1.52-5.78-1.52-5.78l84.12-4.29s-.46,3.2-.91,5.86c-.34,2-1.73,5.44-1.73,5.44Z"/>
    <polygon class="cls-24" points="1792.36 970.38 1792.7 973.37 1792.81 975.59 1708.07 980.84 1707.84 978.98 1707.69 977.03 1792.36 970.38"/>
    <path class="cls-24" d="m1790.8,963.72s-1.13-3.59-1.57-4.87-2.37-4.49-2.37-4.49l-76.61,4.77s-1.29,3.87-1.58,5.16c-.33,1.46-.83,5.84-.83,5.84l82.96-6.42Z"/>
    <g>
      <g class="cls-45">
        <path class="cls-22" d="m1776.28,962.48s-2.66,3.93-2.63,5.27c.05,2.05,1.94,5.05,1.94,5.05,0,0-1.96-2.07-4.09-2.37-2.3-.33-6.17,2.28-6.17,2.28l-36.88-10.12s-6.11,9.04-6.04,12.12c.12,4.72,4.46,11.6,4.46,11.6,0,0-4.51-4.77-9.39-5.46-5.28-.75-14.19,5.23-14.19,5.23"/>
      </g>
      <g class="cls-51">
        <path class="cls-22" d="m1776.35,962.55s-4.12,2.36-5.46,2.22c-2.04-.2-4.89-2.31-4.89-2.31,0,0,1.92,2.11,2.06,4.25.15,2.31-2.73,5.99-2.73,5.99l7.33,37.54s-9.47,5.42-12.54,5.11c-4.7-.47-11.24-5.32-11.24-5.32,0,0,4.42,4.86,4.74,9.77.35,5.32-6.28,13.75-6.28,13.75"/>
      </g>
    </g>
  </g>
  <g>
    <path class="cls-21" d="m512.3,693.9c-18.18,22.3-55.72,31.4-80.13,11.5-28.37-23.13-26.45-61.25-8.26-83.56,18.18-22.3,52.71-24.25,77.12-4.36,24.41,19.9,29.46,54.11,11.28,76.41Z"/>
    <ellipse class="cls-9" cx="466.94" cy="659.71" rx="45.26" ry="45.62" transform="translate(-339.43 604.81) rotate(-50.81)"/>
    <ellipse class="cls-5" cx="465.89" cy="659.67" rx="51.5" ry="51.98" transform="translate(-339.79 603.98) rotate(-50.81)"/>
    <path class="cls-20" d="m441.71,659.93l-7.04,4.85s9.28,21.44,35.57,17.52c2.48-.37,9.04-4.32,9.04-4.32l9.89,7.62,4.94-5.24-10.26-7.71,3.13-3.84,9.68,7.89,4.42-4.34-10.09-9.55s4.09-16.6-4.78-26.62-17.89-12.15-17.89-12.15l-4.64,8.13s21.99,5.44,17.37,22.54c-.68,2.52-14.96-10.87-14.96-10.87l-4.02,4.66,15.89,14.06-3.18,3.36-16.24-13.9-4.32,5.3,15.77,12.86s-3.33,5.67-12.47,2.85c-9.14-2.82-15.8-13.1-15.8-13.1Z"/>
    <path class="cls-23" d="m440.67,661.21l-7.04,4.85s9.28,21.44,35.57,17.52c2.48-.37,9.04-4.32,9.04-4.32l9.89,7.62,4.94-5.24-10.26-7.71,3.13-3.84,9.68,7.89,4.42-4.34-10.09-9.55s4.09-16.6-4.78-26.62c-8.5-9.6-17.89-12.15-17.89-12.15l-4.64,8.13s21.99,5.44,17.37,22.54c-.68,2.52-14.96-10.87-14.96-10.87l-4.02,4.66,15.89,14.06-3.18,3.36-16.24-13.9-4.32,5.3,15.77,12.86s-3.33,5.67-12.47,2.85c-9.14-2.82-15.8-13.1-15.8-13.1Z"/>
    <path class="cls-24" d="m519.57,681.64l-102.84,4.85s-2.34-4.81-2.97-6.47c-.7-1.87-2.01-7.65-2.01-7.65l111.31-5.68s-.61,4.23-1.2,7.76c-.45,2.65-2.29,7.2-2.29,7.2Z"/>
    <polygon class="cls-24" points="522.61 654.67 523.06 658.63 523.21 661.57 411.08 668.51 410.78 666.04 410.59 663.47 522.61 654.67"/>
    <path class="cls-24" d="m520.55,645.86s-1.5-4.74-2.08-6.45-3.13-5.93-3.13-5.93l-101.38,6.31s-1.71,5.12-2.09,6.83c-.43,1.94-1.1,7.73-1.1,7.73l109.78-8.49Z"/>
    <g>
      <g class="cls-26">
        <path class="cls-22" d="m501.34,644.21s-3.52,5.21-3.48,6.98c.07,2.72,2.57,6.68,2.57,6.68,0,0-2.6-2.75-5.41-3.14-3.04-.43-8.17,3.01-8.17,3.01l-48.8-13.39s-8.09,11.96-7.99,16.04c.16,6.24,5.9,15.36,5.9,15.36,0,0-5.97-6.31-12.42-7.22-6.98-.99-18.77,6.92-18.77,6.92"/>
      </g>
      <g class="cls-19">
        <path class="cls-22" d="m501.43,644.31s-5.46,3.12-7.22,2.94c-2.7-.27-6.47-3.06-6.47-3.06,0,0,2.54,2.8,2.73,5.63.2,3.06-3.62,7.92-3.62,7.92l9.7,49.67s-12.54,7.17-16.59,6.76c-6.21-.62-14.87-7.04-14.87-7.04,0,0,5.84,6.43,6.27,12.93.46,7.04-8.31,18.2-8.31,18.2"/>
      </g>
    </g>
  </g>
  <g>
    <path class="cls-21" d="m135.78,1042.44c-22.12,27.14-67.81,38.21-97.51,13.99-34.53-28.14-32.18-74.54-10.06-101.68,22.12-27.14,64.14-29.51,93.84-5.3,29.7,24.21,35.85,65.84,13.73,92.98Z"/>
    <ellipse class="cls-14" cx="80.57" cy="1000.83" rx="55.07" ry="55.51" transform="translate(-746.09 430.93) rotate(-50.81)"/>
    <ellipse class="cls-8" cx="79.3" cy="1000.78" rx="62.67" ry="63.25" transform="translate(-746.52 429.92) rotate(-50.81)"/>
    <path class="cls-20" d="m49.88,1001.1l-8.57,5.9s11.29,26.09,43.28,21.32c3.02-.45,11-5.26,11-5.26l12.04,9.27,6.01-6.38-12.49-9.38,3.81-4.68,11.77,9.6,5.38-5.28-12.27-11.62s4.98-20.19-5.81-32.39c-10.34-11.68-21.77-14.79-21.77-14.79l-5.65,9.89s26.76,6.62,21.13,27.43c-.83,3.07-18.21-13.23-18.21-13.23l-4.89,5.67,19.34,17.11-3.87,4.09-19.77-16.92-5.26,6.45,19.19,15.64s-4.05,6.9-15.18,3.47c-11.13-3.43-19.22-15.94-19.22-15.94Z"/>
    <path class="cls-23" d="m48.61,1002.66l-8.57,5.9s11.29,26.09,43.28,21.32c3.02-.45,11-5.26,11-5.26l12.04,9.27,6.01-6.38-12.49-9.38,3.81-4.68,11.77,9.6,5.38-5.28-12.27-11.62s4.98-20.19-5.81-32.39-21.77-14.79-21.77-14.79l-5.65,9.89s26.76,6.62,21.13,27.43c-.83,3.07-18.21-13.23-18.21-13.23l-4.89,5.67,19.34,17.11-3.87,4.09-19.77-16.92-5.26,6.45,19.19,15.64s-4.05,6.9-15.18,3.47c-11.13-3.43-19.22-15.94-19.22-15.94Z"/>
    <path class="cls-24" d="m144.62,1027.52l-125.14,5.9s-2.85-5.85-3.61-7.88c-.85-2.28-2.45-9.3-2.45-9.3l135.45-6.91s-.74,5.15-1.46,9.44c-.54,3.23-2.79,8.76-2.79,8.76Z"/>
    <polygon class="cls-24" points="148.33 994.69 148.87 999.51 149.05 1003.09 12.6 1011.54 12.24 1008.53 12.01 1005.4 148.33 994.69"/>
    <path class="cls-24" d="m145.82,983.97s-1.83-5.77-2.53-7.84-3.81-7.22-3.81-7.22l-123.36,7.68s-2.08,6.23-2.54,8.31c-.53,2.36-1.34,9.41-1.34,9.41l133.58-10.33Z"/>
    <g>
      <g class="cls-37">
        <path class="cls-22" d="m122.43,981.97s-4.28,6.34-4.23,8.49c.08,3.31,3.13,8.13,3.13,8.13,0,0-3.16-3.34-6.58-3.82-3.7-.52-9.94,3.67-9.94,3.67l-59.39-16.3s-9.84,14.56-9.72,19.51c.19,7.6,7.18,18.69,7.18,18.69,0,0-7.27-7.68-15.12-8.79-8.5-1.2-22.84,8.42-22.84,8.42"/>
      </g>
      <g class="cls-62">
        <path class="cls-22" d="m122.55,982.09s-6.64,3.8-8.79,3.58c-3.29-.33-7.87-3.73-7.87-3.73,0,0,3.09,3.4,3.32,6.85.24,3.73-4.4,9.64-4.4,9.64l11.8,60.44s-15.25,8.73-20.19,8.23c-7.56-.76-18.09-8.56-18.09-8.56,0,0,7.11,7.82,7.63,15.73.56,8.56-10.11,22.15-10.11,22.15"/>
      </g>
    </g>
  </g>
  <g>
    <path class="cls-21" d="m1130.45,218.22c-18.99,23.29-58.2,32.79-83.69,12.01-29.63-24.16-27.62-63.98-8.63-87.27,18.99-23.29,55.05-25.33,80.55-4.55,25.5,20.78,30.77,56.51,11.78,79.81Z"/>
    <ellipse class="cls-10" cx="1083.07" cy="182.51" rx="47.27" ry="47.65" transform="translate(257.29 906.69) rotate(-50.81)"/>
    <ellipse class="cls-13" cx="1081.97" cy="182.47" rx="53.79" ry="54.29" transform="translate(256.92 905.82) rotate(-50.81)"/>
    <path class="cls-20" d="m1056.72,182.74l-7.35,5.06s9.69,22.39,37.15,18.3c2.59-.39,9.44-4.52,9.44-4.52l10.33,7.96,5.15-5.48-10.72-8.05,3.27-4.01,10.11,8.24,4.62-4.53-10.54-9.97s4.28-17.33-4.99-27.8c-8.88-10.03-18.68-12.69-18.68-12.69l-4.85,8.49s22.97,5.68,18.14,23.54c-.71,2.64-15.63-11.36-15.63-11.36l-4.2,4.87,16.6,14.68-3.32,3.51-16.96-14.52-4.51,5.54,16.47,13.43s-3.47,5.92-13.02,2.98-16.5-13.68-16.5-13.68Z"/>
    <path class="cls-23" d="m1055.63,184.08l-7.35,5.06s9.69,22.39,37.15,18.3c2.59-.39,9.44-4.52,9.44-4.52l10.33,7.96,5.15-5.48-10.72-8.05,3.27-4.01,10.11,8.24,4.62-4.53-10.54-9.97s4.28-17.33-4.99-27.8-18.68-12.69-18.68-12.69l-4.85,8.49s22.97,5.68,18.14,23.54c-.71,2.64-15.63-11.36-15.63-11.36l-4.2,4.87,16.6,14.68-3.32,3.51-16.96-14.52-4.51,5.54,16.47,13.43s-3.47,5.92-13.02,2.98c-9.55-2.95-16.5-13.68-16.5-13.68Z"/>
    <path class="cls-24" d="m1138.04,205.42l-107.41,5.06s-2.45-5.02-3.1-6.76c-.73-1.95-2.1-7.99-2.1-7.99l116.26-5.93s-.64,4.42-1.25,8.1c-.47,2.77-2.39,7.52-2.39,7.52Z"/>
    <polygon class="cls-24" points="1141.22 177.24 1141.69 181.38 1141.84 184.45 1024.73 191.7 1024.42 189.12 1024.21 186.43 1141.22 177.24"/>
    <path class="cls-24" d="m1139.07,168.04s-1.57-4.95-2.18-6.73-3.27-6.2-3.27-6.2l-105.88,6.59s-1.78,5.35-2.18,7.13c-.45,2.02-1.15,8.08-1.15,8.08l114.66-8.87Z"/>
    <g>
      <g class="cls-41">
        <path class="cls-22" d="m1118.99,166.32s-3.68,5.44-3.63,7.29c.07,2.84,2.68,6.98,2.68,6.98,0,0-2.72-2.87-5.65-3.28-3.17-.45-8.53,3.15-8.53,3.15l-50.97-13.99s-8.45,12.5-8.34,16.75c.16,6.52,6.17,16.04,6.17,16.04,0,0-6.24-6.59-12.97-7.54-7.29-1.03-19.6,7.23-19.6,7.23"/>
      </g>
      <g class="cls-29">
        <path class="cls-22" d="m1119.1,166.43s-5.7,3.26-7.54,3.07c-2.82-.28-6.76-3.2-6.76-3.2,0,0,2.66,2.92,2.85,5.88.21,3.2-3.78,8.27-3.78,8.27l10.13,51.88s-13.09,7.49-17.33,7.06c-6.49-.65-15.53-7.35-15.53-7.35,0,0,6.1,6.72,6.55,13.5.48,7.35-8.68,19.01-8.68,19.01"/>
      </g>
    </g>
  </g>
  <g>
    <path class="cls-21" d="m1534.46,506.42c-18.4,22.57-56.39,31.77-81.09,11.64-28.71-23.41-26.76-61.99-8.36-84.56,18.4-22.57,53.34-24.54,78.04-4.41,24.7,20.14,29.81,54.76,11.42,77.33Z"/>
    <ellipse class="cls-4" cx="1488.55" cy="471.82" rx="45.8" ry="46.16" transform="translate(182.33 1327.5) rotate(-50.81)"/>
    <ellipse class="cls-6" cx="1487.49" cy="471.77" rx="52.12" ry="52.6" transform="translate(181.97 1326.66) rotate(-50.81)"/>
    <path class="cls-20" d="m1463.02,472.04l-7.13,4.91s9.39,21.7,36,17.73c2.51-.37,9.15-4.38,9.15-4.38l10.01,7.71,4.99-5.31-10.39-7.8,3.17-3.89,9.79,7.98,4.47-4.39-10.21-9.66s4.14-16.79-4.83-26.93c-8.6-9.72-18.1-12.3-18.1-12.3l-4.7,8.23s22.26,5.51,17.57,22.81c-.69,2.56-15.14-11-15.14-11l-4.07,4.72,16.08,14.23-3.22,3.4-16.44-14.07-4.37,5.36,15.96,13.01s-3.37,5.74-12.62,2.88c-9.25-2.85-15.99-13.25-15.99-13.25Z"/>
    <path class="cls-23" d="m1461.96,473.34l-7.13,4.91s9.39,21.7,36,17.73c2.51-.37,9.15-4.38,9.15-4.38l10.01,7.71,4.99-5.31-10.39-7.8,3.17-3.89,9.79,7.98,4.47-4.39-10.21-9.66s4.14-16.79-4.83-26.93c-8.6-9.72-18.1-12.3-18.1-12.3l-4.7,8.23s22.26,5.51,17.57,22.81c-.69,2.56-15.14-11-15.14-11l-4.07,4.72,16.08,14.23-3.22,3.4-16.44-14.07-4.37,5.36,15.96,13.01s-3.37,5.74-12.62,2.88c-9.25-2.85-15.99-13.25-15.99-13.25Z"/>
    <path class="cls-24" d="m1541.81,494.01l-104.07,4.91s-2.37-4.86-3-6.55c-.71-1.89-2.04-7.74-2.04-7.74l112.64-5.75s-.62,4.28-1.21,7.85c-.45,2.68-2.32,7.28-2.32,7.28Z"/>
    <polygon class="cls-24" points="1544.89 466.72 1545.35 470.72 1545.49 473.7 1432.02 480.73 1431.72 478.23 1431.52 475.62 1544.89 466.72"/>
    <path class="cls-24" d="m1542.81,457.8s-1.52-4.8-2.11-6.52-3.17-6.01-3.17-6.01l-102.59,6.39s-1.73,5.18-2.11,6.91c-.44,1.96-1.11,7.83-1.11,7.83l111.09-8.59Z"/>
    <g>
      <g class="cls-40">
        <path class="cls-22" d="m1523.36,456.13s-3.56,5.27-3.52,7.06c.07,2.75,2.6,6.76,2.6,6.76,0,0-2.63-2.78-5.47-3.18-3.08-.44-8.27,3.05-8.27,3.05l-49.39-13.55s-8.19,12.11-8.08,16.23c.16,6.32,5.97,15.54,5.97,15.54,0,0-6.05-6.38-12.57-7.31-7.07-1-18.99,7-18.99,7"/>
      </g>
      <g class="cls-49">
        <path class="cls-22" d="m1523.46,456.24s-5.52,3.16-7.31,2.98c-2.74-.27-6.55-3.1-6.55-3.1,0,0,2.57,2.83,2.76,5.69.2,3.1-3.66,8.01-3.66,8.01l9.81,50.26s-12.69,7.26-16.79,6.85c-6.29-.63-15.05-7.12-15.05-7.12,0,0,5.91,6.51,6.34,13.08.47,7.12-8.41,18.42-8.41,18.42"/>
      </g>
    </g>
  </g>
  <g>
    <path class="cls-21" d="m1126.85,406.44c0-23.71,19.24-49.06,45.19-49.06,30.16,0,48.77,25.35,48.77,49.06s-21.03,42.92-46.98,42.92-46.98-19.22-46.98-42.92Z"/>
    <ellipse class="cls-7" cx="1173.62" cy="404.66" rx="37.58" ry="37.29"/>
    <ellipse class="cls-1" cx="1174.31" cy="404.14" rx="42.83" ry="42.43"/>
    <path class="cls-20" d="m1189.62,391.39l1.97-6.76s-17.08-8.86-31.84,7.33c-1.39,1.53-3.52,7.47-3.52,7.47l-10.28.28-.42,5.92,10.57-.42v4.09h-10.28l-.56,5.07,11.41.85s6.02,12.73,16.9,14.51c10.43,1.71,17.75-1.55,17.75-1.55l-1.27-7.61s-16.88,7.97-22.82-5.35c-.88-1.97,15.21-.85,15.21-.85l.14-5.07-17.47-.7.28-3.8,17.61.42v-5.63h-16.76s-.83-5.35,6.48-8.31c7.31-2.96,16.9.14,16.9.14Z"/>
    <path class="cls-23" d="m1189.62,390.03l1.97-6.76s-17.08-8.86-31.84,7.33c-1.39,1.53-3.52,7.47-3.52,7.47l-10.28.28-.42,5.92,10.57-.42v4.09h-10.28l-.56,5.07,11.41.85s6.02,12.73,16.9,14.51,17.75-1.55,17.75-1.55l-1.27-7.61s-16.88,7.97-22.82-5.35c-.88-1.97,15.21-.85,15.21-.85l.14-5.07-17.47-.7.28-3.8,17.61.42v-5.63h-16.76s-.83-5.35,6.48-8.31,16.9.14,16.9.14Z"/>
    <path class="cls-24" d="m1128.59,418.05l63.15-56.63s4,1.85,5.26,2.59c1.42.83,5.26,3.84,5.26,3.84l-68.12,61.57s-1.82-3.02-3.27-5.58c-1.1-1.92-2.28-5.79-2.28-5.79Z"/>
    <polygon class="cls-24" points="1140.69 436.86 1138.34 434.57 1136.72 432.76 1204.71 369.96 1206.18 371.39 1207.65 372.93 1140.69 436.86"/>
    <path class="cls-24" d="m1146.59,441.42s3.43,2.25,4.69,3.03,5.09,2.16,5.09,2.16l61.45-56.8s-1.57-4.16-2.22-5.45c-.73-1.46-3.32-5.51-3.32-5.51l-65.68,62.56Z"/>
    <g>
      <g class="cls-33">
        <path class="cls-22" d="m1159.72,432.46s-.46-5.16-1.41-6.27c-1.46-1.7-5.12-2.93-5.12-2.93,0,0,3.09.4,5.09-.81,2.16-1.31,3.65-6.18,3.65-6.18l38.13-16.85s-1.06-11.85-3.25-14.4c-3.35-3.91-11.76-6.73-11.76-6.73,0,0,7.1.92,11.69-1.86,4.97-3,8.38-14.19,8.38-14.19"/>
      </g>
      <g class="cls-25">
        <path class="cls-22" d="m1159.61,432.45s1.86-4.83,3.08-5.64c1.87-1.23,5.73-1.41,5.73-1.41,0,0-3.08-.46-4.67-2.17-1.72-1.85-1.81-6.94-1.81-6.94l-32.05-26.67s4.27-11.1,7.07-12.96c4.29-2.84,13.16-3.25,13.16-3.25,0,0-7.08-1.06-10.73-4.99-3.96-4.25-4.17-15.95-4.17-15.95"/>
      </g>
    </g>
  </g>
</svg>