<?xml version="1.0" encoding="UTF-8"?>
<svg id="Ebene_2" data-name="Ebene 2" xmlns="http://www.w3.org/2000/svg" viewBox="0 0 552.2 339.3">
  <defs>
    <style>
      .cls-1 {
        fill: #f7be28;
      }

      .cls-1, .cls-2, .cls-3, .cls-4 {
        stroke-width: 0px;
      }

      .cls-2 {
        fill: #f5496c;
      }

      .cls-3 {
        fill: #b5d41c;
      }

      .cls-4 {
        fill: #4071e5;
      }
    </style>
  </defs>
  <g id="Memory">
    <g>
      <path class="cls-2" d="m527,0c1.9,1.5,3.2,3.4,2.7,5.9-.1.7-.5,1.3-1,1.8-.6.7-1.3.6-1.7-.3-.3-.8-.6-1.6-.9-2.3-.5-1-.5-3,0-3.9.2-.4,0-.9,0-1.3L527,0h0Z"/>
      <path class="cls-3" d="m0,55c1.1-.6,2.2-1.8,3.3.1.3.5.8.8,1.2,1.3.9.9.6,3.2-.4,4-.6.4-2.3-.3-2.2-1.1C2,57.8,1.3,57.5,0,57.7v-2.7h0Z"/>
      <path class="cls-4" d="m264.4,339.3c.3-1.6.5-3.3,1-4.9.1-.4,1.7-.7,2.2-.4.7.4,2,1,1,2.4-.6.9-1,1.9-1.5,2.9h-2.7Z"/>
      <path class="cls-4" d="m552.2,157.9c-1.4-.2-3,.7-4.1-.9-.2-.3-.5-.8-.4-1.1s.6-.6.9-.6c1.2-.1,2.4,0,3.6,0v2.6Z"/>
      <path class="cls-3" d="m414.8,208.4c-1.3.2-2.3-.4-3.4-1.3-3.7-3.1-5.2-7.4-6.9-11.6-.3-.6-.2-1.4-.2-2.1-.1-1,.5-1.1,1.3-1.2,1.5-.3,2.9-1,4.3-1.5,1-.4,2.5-1.3,3-.9,1,.8,1.9,2.2,2.2,3.5.7,2.9,2.4,5.4,3.8,7.9.8,1.4,2.4,2.2,3.6,3.4,1.3,1.3,1.2,1.3-.6,2.2-1.7.6-5.7,1.7-7.1,1.6h0Z"/>
      <path class="cls-2" d="m454.8,96.8c-1.8-.2-3.3-.2-3.7-2.5-.1-.7-1.3-1.2-1.8-1.9-.6-.9-1-1.8-1.6-2.8.9-.1,1.7-.2,2.6-.3,1.1-.1,2.2-.1,3.3-.8,2.6-1.8,5.7-2.9,7.5-5.7.2-.3,1-.6,1.4-.5.8.2,2,.7,2.1,1.2.3,1.9,2,2.5,3,3.7,1.1,1.5.8,1.5-.6,3.1-2.2,2.7-5.5,3.5-8.2,5.2-1.1.8-2.7.9-4,1.3h0Z"/>
      <path class="cls-1" d="m523.1,69.5c-.8,0-1.5-.1-2.2,0-2,.2-3.2-1.1-3.7-2.5-1.2-3.4-1.9-7-2.8-10.6-.2-.9.1-1.4,1.2-1.4,1.7,0,3.5.3,5.1-.8.4-.3,1.8-.5,1.9,1,.1.7.9,1.3.8,1.9-.6,3.4,1.4,6,2.8,8.8.3.6.8,1.2.9,1.9.1.8.4,1.9-1.2,1.8-1-.2-1.9-.1-2.8-.1Z"/>
      <path class="cls-3" d="m116.2,167.8c3.9,0,4.4.5,5.6,3.4.7,1.7.8,3.5,2.2,5,.7.7.5,2.6.3,3.8-.1.6-1.3,1.1-2.1,1.3-.8.2-1.8-.1-2.7.1-.7.1-1.3.6-1.9.9-.5-1-1.3-2-1.3-3,0-1.6-1-3.1-.8-4.6.2-1.9-2.1-1-1.9-2.3.1-1.1-.1-2-1.5-2,0-.5-.1-1.4,0-1.5,1.6-.5,3.3-.9,4.1-1.1h0Z"/>
      <path class="cls-1" d="m46.2,26.6c-2.9-1-5.8-2-8.6-3.1-.3-.1-.5-.9-.6-1.4-.2-2.4,1.3-4,3-5.5.3-.2,1,0,1.5.2,2,.9,3.8,2.3,6.1,2.5.8.1,1.6.4,2.4.6.8.2,2-.5,2.2.6.2,1,.5,2.3-.7,3.3-1.4,1.4-2.7,3.2-5.3,2.8h0Z"/>
      <path class="cls-2" d="m165.2,76.3c-1.6.3-1.6-.5-2-1.9-.9-3.3-1.4-7-4.4-9.4-.1-.1.1-1.1.3-1.1,2-.2,3.8-1.6,5.9-1.1,1.5.4,2.3,1.5,2.9,2.9.8,2,1.7,3.8,1.8,6,.1,1.1,1.6,2.4.7,3.1-1.1.9-2.8,1-4.3,1.5-.2.1-.6,0-.9,0h0Z"/>
      <path class="cls-1" d="m261.2,181.4c1.6,0,2.4-.1,3.1.1.4.1,1,.7.9,1,0,2.9.2,5.7,1.7,8.3.5.8.1,2,.2,3.1,0,1.1-.9,1.5-1.4.9-1.2-1.2-2.5-.7-3.8-.8-1.5-.1-2.8-1.2-3-2.8-.2-2.1.3-4.3-.8-6.4-.4-.7.3-2.3,1-3,.6-.6,1.9-.4,2.1-.4h0Z"/>
      <path class="cls-1" d="m365.2,97.7c-1,1.3-1.4,2-1.9,2.5-.3.3-1.1.4-1.4.1-2.3-1.8-4.7-3.3-7.7-3.6-.9-.1-1.7-1.1-2.5-1.7-.9-.6-.6-1.6.1-1.7,1.7-.2,2-1.6,2.9-2.6,1-1.1,2.7-1.5,4-.7,1.8,1.1,3.3,2.8,5.6,3.2.8.1,1.7,1.6,1.8,2.6.1.8-.8,1.8-.9,1.9h0Z"/>
      <path class="cls-3" d="m412.4,82.2q0,3.3-3.1,4.4c-.9.3-2-.2-2.8.9-1.1,1.7-3,.8-4.5.9-.4,0-1.2-.7-1.2-1.2-.1-1.6-.2-3.2,0-4.8.1-.5,1.3-1.1,2.1-1.2,2-.3,3.8-.9,5.5-1.8.4-.2,1.1-.2,1.1-.4.1-.8.2-1.7,1.2-1.3,1,.3,1.7,1,1.6,2.3,0,.7.1,1.4.1,2.2h0Z"/>
      <path class="cls-3" d="m503.5,8.7c.3.5.7.9.9,1.3.4,1.6.4,3.4,1.8,4.4,1.5,1,.9,2.7,2.2,3.8,1.5,1.3.8,2.5-1.4,2.4-1,0-1.9,1.7-2.9.2-3.6-.3-3.8-3.6-5.1-5.8-.1-.2-.1-.6,0-.9.7-1.3-2.2-2.2-.4-3.4,1.5-.8,3.1-1.2,4.9-2h0Z"/>
      <path class="cls-2" d="m322.6,14.4c-.2-.2-.3-.4-.5-.6-1.8-1.7,0-4.3-1.7-6,0,0,.2-.4.4-.5.9-.8,8-4.2,9.3-4.5,1.2-.3,1.8.2,1.9,1.5,0,.9-.3,2.1.2,2.6,1.7,1.8.2,2.1-1,2.5-3,1.2-6.2,2-8.3,4.7,0,.1-.2.2-.3.3h0Z"/>
      <path class="cls-2" d="m54.7,61.9c.4,2.3.9,4.5,1.2,6.8.2,1.1.3,2.3-1.4.8-.8-.7-2.1-.7-3.2-.9-2.1-.4-2.5-.8-2.6-2.7v-5c0-1.3.2-2.6.3-3.9,1.8,0,3.6-.1,5.4-.1.2,0,.6.6.6.9.1,1.3,0,2.7,0,4.1-.1,0-.2,0-.3,0Z"/>
      <path class="cls-2" d="m437.3,316.2c.4,2.3.9,4.5,1.2,6.8.1,1.1.3,2.3-1.4.8-.8-.7-2.1-.7-3.2-1-2.1-.4-2.5-.8-2.6-2.7v-5c0-1.3.2-2.6.3-3.9,1.8,0,3.6-.1,5.4-.1.2,0,.6.6.6.9.1,1.3,0,2.7,0,4.1,0,.1-.2.1-.3.1Z"/>
      <path class="cls-3" d="m95.5,107.4c-1.3.3-2.5-.3-3.6-1.4s-2.5-1.8-3.7-2.9c-1.1-1.1-.9-1.9.4-2.9.8-.6,1.6-1.3,2.3-2,.9-.9,1.8-1.4,2,.4.2,1.7,2.7-.4,2.8,1.8,0,.7,1.9,1.1,2.4,2,.8,1.2,2.7-.5,2.8,1.3.1,1-2.8,3.6-3.9,3.7h-1.5Z"/>
      <path class="cls-3" d="m381.9,287.9c-1.3.3-2.5-.3-3.6-1.4s-2.5-1.8-3.7-2.9c-1.1-1-.9-1.9.5-2.9.8-.6,1.5-1.3,2.3-2,.9-.9,1.8-1.4,2,.4.2,1.7,2.7-.5,2.8,1.8,0,.7,1.9,1.1,2.4,2,.8,1.2,2.7-.5,2.8,1.3.1,1-2.8,3.6-3.9,3.7-.5,0-.9-.1-1.6,0h0Z"/>
      <path class="cls-1" d="m307.3,36.1c-2.8.1-4-.8-5.3-2.3-1.2-1.6-1.9-3.5-3.1-5-.6-.8-.2-1.5.5-1.8,1.4-.6,2.8-1.1,4.3-1.6,1.1-.4,1.7.6,2.1,1.3.8,1.1,1.6,2.4,1.9,3.7.3,1.2.9,1.7,1.7,2.3,1.5,1,1.5,1.9-.2,2.7-.9.2-1.8.6-1.9.7Z"/>
      <path class="cls-3" d="m368,25.4c-.5,1.5-1.4,3.9-2.1,6.2-.2.5-.3,1.2-.1,1.5.5.6,1.1,1.3.2,1.8-.5.3-1.5.2-2.1,0-1-.5-1.9-1.3-2.8-1.8-1.2-.8-1.3-2-1-3.2.5-2.2,1.1-4.3,1.8-6.5.5-1.7,1.6-2.2,3.4-1.6.4.1.8.7,1.1.6,1.6-.2,2,.6,1.6,3h0Z"/>
      <path class="cls-4" d="m195.8,14.2c-.1.3,0,.6-.2.8-.5.8-1,1.7-1.7,2.4-.6.6-1.3,1.1-2.1,1.2-.5.1-1.2-.3-1.8-.5-1.4-.6-2.8-1.2-4.1-1.9-2.3-1.2-2.1-1.3-1.2-4,.5-1.7,1.8-2,2.9-2.8.8-.5.7-.2,1,.4.8,2,3,2.4,4.5,3.6.5.4,1.4,0,2.2.1.2.1.4.5.5.7h0Z"/>
      <path class="cls-4" d="m129.9,301.6c-.1.3,0,.6-.2.8-.5.8-1,1.7-1.7,2.4-.6.6-1.3,1.1-2.1,1.2-.5.1-1.2-.3-1.8-.5-1.4-.6-2.8-1.2-4.1-1.9-2.3-1.2-2.1-1.3-1.2-4,.5-1.7,1.8-2,2.9-2.8.8-.5.7-.2,1,.4.8,2,3,2.4,4.5,3.6.5.4,1.4,0,2.2.1.2,0,.4.4.5.7h0Z"/>
      <path class="cls-3" d="m154.8,158.1c.1-2.5,3.7-5.4,5.8-4.4,1.1.5,2.1.7,3.3.8,2.1.2,2.9,1.1,2.6,3.1-.1.8-.5,1.6-.9,2.3q-.5,1.1-1.9.3c-.4-.2-.8-.3-1.2-.3-1.5-.2-3.3.7-4.6-.9-.1-.1-.8.2-1.2.3-1.9.6-2,.6-1.9-1.2h0Z"/>
      <path class="cls-4" d="m43.1,106.1c.4-.6.7-1.5,1.3-2,1.3-1,2.9-1.7,4.3-2.6,1-.7,2-.9,2.7.1.8.9,2,2.4,1.7,3.2-.5,1.3-2,2.3-3.1,3.4-.8-1.3-1.4-.3-1.9.3-.5.5-1,1.1-1.2,1.7-.3,1.1-1.1.8-1.8.7-.4-.1-.8-.6-1-1-.3-1.2-.6-2.4-1-3.8h0Z"/>
      <path class="cls-2" d="m163.7,107c.9.1,1.8.1,2.6.2-.1.5-.4,1.4-.2,1.5,1.2.7,2.4,1.3,3.7,1.9.4.2.8.2,1.2.4-.3.2-.6.3-.9.5-.5.3-1,.6-1.4,1.1-.6.8-.9,1.9-1.6,2.4-1.2.7-1.6-.9-2.4-1.3-.4-.2-.8-.3-1.2-.3-1.2.1-2.3.1-2.5-1.6,0-.1-1.1-.1-1.6-.3-.4-.2-.9-.9-.8-1.2.7-2.4,1.8-3.3,4.3-3.3.2,0,.5,0,.8,0h0Z"/>
      <path class="cls-3" d="m490.8,119.6c.1-.4.1-.9.4-1.2,1.8-1.9,1.6-4.2,1.6-6.5,0-.3.5-.9.7-.9,1.2.3,2.9.3,3.5,1.1.8,1.2,1.3,2.9,1.2,4.3-.2,1.7-1.1,3.4-1.9,5-.5,1.1-2.8,1.8-3.9,1.1s-1.8-1.5-1.6-2.9h0Z"/>
      <path class="cls-4" d="m528.7,231.4c-.1.1-.1.2-.2.3-1.9,3.2-5.3,3.9-8,1.4-1.2-1.2-2.1-2.6-3.1-4-.7-.9-.6-1.4.7-1.8.8-.2,1.3-1.3,2-1.6.8-.2,1.6-.7,2.5.7,1.2,2,2.5,4.4,5.4,4.5.2.1.5.4.7.5h0Z"/>
      <path class="cls-4" d="m291.5,138.4c0,2.6-.1,2.9-2.9,3.3-1.7.2-2.9,1-4.1,2.1-1.3,1.1-1.4,1.1-2-.9-1.2-4.1-1.1-4.3,3-5.6,1-.4,2.1-.8,3.1-1.1,1.8-.6,2.7-.2,2.9,1.4v.8h0Z"/>
      <path class="cls-4" d="m384.9,135.6c1.6-.1,2.6.3,3.3,2.1.3.8.1,2.4,1.8,2.5,1.1.1.6,2.3,2.2,1.9,0,.5.2,1.3,0,1.5-2.9,2.2-7.2,1.1-8.7-2.3-.4-1-.7-2.1-.9-3.2-.4-2.2,0-2.6,2.3-2.5h0Z"/>
      <path class="cls-1" d="m288.4,279.8c.6-2.1.9-3.3,1.3-4.5.9-2.8,1-2.9,3.8-2.8,1.4.1,2.1,1.4,1.8,3-.4,2.1-1.6,4-1.1,6.3.3,1.5-.5,1.8-1.8,1.6-.6-.1-1.5.4-1.8-.7-.4-1.4-3-1.6-2.2-2.9h0Z"/>
      <path class="cls-4" d="m360.5,220.8c.8.9,1.8,1.7,2.5,2.8.3.5.4,1.7,0,2.2-1.2,1.8-2.5,3.6-4.1,5-.5.4-2.2,1.7-3.1-.3-.3-.6-1.1-1-1.5-1.6-.2-.3-.4-1-.2-1.2,1.8-2.1,3.6-4.2,5.4-6.3.1-.3.5-.3,1-.6h0Z"/>
      <path class="cls-1" d="m420,155.1c.4-1.3.8-2.7,1.2-4,.4-1.2.8-2.4,1.2-3.5,1.1.6,2.2,1.1,3.2,1.7.4.2,1,.8.9,1.1-.5,2.6-.8,5.2-1.7,7.8-.5,1.4-1.2,1.2-2,1-2-.5-2.5-1.3-2.8-4.1h0Z"/>
      <path class="cls-4" d="m210.2,219.9c-.2,1.2,0,2.3-.7,3.7-1.5,3.2-1.3,3.4-4.5,2.3-2.3-.8-2.5-1.3-1.1-3.2s1.8-4.1,1.8-6.4c0-2,.8-.8,1.4-.3.1.1.3,0,.4,0,1.8.8,2.7,2.1,2.7,3.9h0Z"/>
      <path class="cls-2" d="m15,122.7c1.4.1,2.6-.3,3.5,1.6.6,1.3,1.4,1.1,1.3,1.7-.5,3-1.8,3.7-4.7,2.5-1.1-.5-2.4-.8-3.5-1.2-.9-.3-2.6.7-2.5-.7.1-.9.2-2.5,2.1-3.2,1.4-.5,2.6-.4,3.8-.7h0Z"/>
      <path class="cls-1" d="m345.3,177.7c1.7-.1,3,1.2,2.6,2.5-.5,1.2-.5,3-2.8,3-1.1,0-2.1,1.3-3.3,1.7-2.5.8-4.5-1-3.8-3.6.2-.7,1.1-1.7,1.6-1.7,1.8,0,3.3-.7,4.8-1.6.4-.2.8-.3.9-.3h0Z"/>
      <path class="cls-4" d="m465.3,12.6h1.8c1-.1,1.3.4,1.2,1.3-.1,1.4.3,2.8.8,4.2.8,2.5-.9,4.1-3.4,3.5-.8-.2-1.6-1.2-1.9-2-.3-.9-.1-2.1-.1-3.1.1-1.1-.2-2-1.1-2.7-.2-.2-.3-.6-.5-.9.3-.1.5-.2.8-.2.9-.1,1.7-.1,2.4-.1h0Z"/>
      <path class="cls-3" d="m241,137.4c-.1,1.5-.8,2.6-2,2.7-1,.1-2.5.9-3.1-1.3-.3-1.1-1.4-2.3-1.8-3.7-.4-1.2-1.6-2.2.3-3,.6-.3,1.3-.9,1.9-.8.8.1,1.9.4,2.2,1,1,1.5,1.7,3.3,2.5,5.1Z"/>
      <path class="cls-4" d="m48.7,211.1c0-3.1.2-3.3,3.5-3.6.7-.1,1.3-.4,2-.5s1.8-.6,2-.3c.6.9,1,1.9,1.3,3,.1.2-.3.8-.7.9-1,.5-1.8.9-2.3,2.1-.2.4-1.9.1-2.9.2-.4,0-.8.2-1.2.4-1.3.9-1.9.6-1.8-.9.1-.4.1-.8.1-1.3h0Z"/>
      <path class="cls-1" d="m139.1,33.4c1,0,1.6-.2,2.1,0,1,.4,2.8.9,2.9,1.5.1,1.1-.7,2.3-1.4,3.3-.3.4-1.3.4-2,.5-1.4.3-2.6-1.7-4.3-.1-.7.7-2.6-2-1.8-3.1,1.1-1.5,2.5-2.9,4.5-2.1h0Z"/>
      <path class="cls-3" d="m30.2,266.2c-1.4.3-2.5-.2-3.1-1.6-.3-.6-.7-1.2-1.1-1.8-1.1-1.6-.1-4.2,1.9-4.7.2-.1.7,0,.8.2,1.4,2.1,3.3,3.8,3.9,6.3.2,1.3-.3,1.6-2.4,1.6h0Z"/>
      <path class="cls-4" d="m83.9,22.9c-.1-1.4.2-2.5,1.8-3,.6-.2,1.2-.8,1.7-1.3.9-.9,1.6-.5,2.2.3,1.7,2,1.7,2.4-.2,4.1-.7.6-1.7,1.1-2.5,1.6-.6.4,0,2.1-1.5,1.6-1.2-.4-1.8-1.5-1.6-2.8.1-.2.1-.4.1-.5h0Z"/>
      <path class="cls-2" d="m220.9,74c.9,0,1.6-.2,2.1.1.4.2.5.8.8,1.2,0,.1-.1.2-.3.3-1.4.9.3,3.2-1.3,3.7-1,.3-2.4-.5-3.6-.8-.4-.1-.9,0-1.3,0-.6-.1-1.7.3-1.6-.9.1-.9-.9-2.1,1-2.9,1.6-.7,3-.6,4.2-.7h0Z"/>
      <path class="cls-4" d="m454.8,249.6c-.7-1.7.7-2.8,2-3.8.6-.4,1.7-.4,2.5-.4,1.5,0,.8,1.2.9,2q.4,2.7-1.8,3.8c-.7.4-1.4.9-2.2,1.2-.7.3-1.5.3-1.5-.8.1-.5.1-1.1.1-2h0Z"/>
      <path class="cls-1" d="m211,166c-1.8.6-3.1-.7-4.1-2.1-.5-.7-.1-2-.1-3,.8,0,1.6,0,2.4.1.7.1,1.3.4,2,.5,2.1.4,2.5.8,2.6,2.7.1,1.2-.1,2.1-1.6,1.8h-1.2Z"/>
      <path class="cls-3" d="m472,303.2c-.2.3-.7,1.2-1.3,2.2-.7-.9-2.4-.5-2.6-2.3-.2-1.6-1.1-3.1-1.5-4.7-.1-.2.6-1,.9-1,2.4-.3,4,1,4.4,3.6.2.4.1.8.1,2.2h0Z"/>
      <path class="cls-1" d="m323.3,73.4c-.4.9-.8,2.4-1.6,3.7-.6,1.1-2,1.2-3,.5s-1.4-2-.7-3.1c.8-1.2,1.6-2.3,2.4-3.5.3-.4.5-.8.8-1.2.6.4,1.3.7,1.7,1.2.3.5.2,1.2.4,2.4h0Z"/>
      <path class="cls-3" d="m221.9,311.1c.2,1.6.2,3-1.4,3.9-.9.4-1.9-.3-2.1-1.3-.1-.8-.4-1.6-.6-2.5-.2-1-.4-2-.3-3,.2-1.1,1.9-1.6,2.8-.8,1.2.9,2.1,2,1.6,3.7h0Z"/>
      <path class="cls-1" d="m76.4,239.1c2.3.1,3.2,2.2,4.8,3.2.2.2-.2,1.3-.3,2-1-.5-1.3,1.2-2.5.6-1.8-.9-3-2.2-4.3-3.6-.8-.8.2-2.2,1.4-2.3.3.1.6.1.9.1Z"/>
      <path class="cls-1" d="m165,254.5c2.9-.5,4,.8,3.8,3.4-.1,1.5-1.2,1.4-1.8,1.1-1.4-.8-2.7-.9-4.2-.8-1.3,0-2.1-.7-2.1-1.8s.8-1.8,2-1.8c.8-.1,1.5-.1,2.3-.1h0Z"/>
      <path class="cls-4" d="m530.3,301.4c1.3,0,1.9-.2,2.2,0,.4.3.8,1.1.7,1.2-1.1,1.4-1.7,2.9-1.9,4.6,0,.5-1.1,1.3-1.6,1.2-.9-.1-2.5-.8-2.5-1.1.2-1.8.5-3.5,1.2-5.1.4-.6,1.8-.7,1.9-.8h0Z"/>
      <path class="cls-2" d="m275.7,228v.4c-1.9,1-1.8,3.6-3.5,4.8-1.2.8-2.5.6-3.4-.6-.1-.2-.3-.6-.2-.8.9-1.7,1.9-3.4,2.9-5.1.1-.2.6-.3.8-.2.6.4,1.1,1,1.7,1.3.4.2,1-.1,1.6-.1,0-.1,0,.1.1.3h0Z"/>
      <path class="cls-2" d="m508.1,275.5c-.8-.4-1.8-.7-2.5-1.3-.2-.1.6-1.1.6-1.8.1-1.9,1.6-2.1,2.8-2.8.8-.4,3.2.1,3.6.9.2.5.3,1.4,0,1.7-1.2,1.2-2.6,2.1-4,3.2-.1.1-.3,0-.5.1h0Z"/>
      <path class="cls-2" d="m66.5,159.2c-.4.9-.7,2.1-.9,2.1-1.9-.3-3.5,2.6-5.5.4-.4-.4-1.7.1-1.4-1.1.1-.5.5-1,1-1.4.6-.5,1.5-.8,2.1-1.3,2-1.4,3.3-1.1,4.6.9.1.3.1.5.1.4h0Z"/>
      <path class="cls-4" d="m465,177.7c-.9.1-2.8-1.4-3.2-2.5-.1-.3.2-1,.5-1.1,1.2-.4,2.9-.3,3.5-1.1,1.6-1.9,2.5.4,3.8.3.1,0,.5.9.3,1.1-1.3,1.7-2.9,2.8-4.9,3.3h0Z"/>
      <path class="cls-1" d="m29.1,313.3c-.2-1.7,1-2.2,2.2-3.1,2-1.6,3.2.1,4.7.4.1,0,.2,1.3,0,1.4-1.6,1-3.3,2.1-5.1,2.9-1.3.5-1.9-.2-1.8-1.6h0Z"/>
      <path class="cls-2" d="m269.4,109c-.9,1.7-1.7,3.1-2.6,4.5-.4.6-3.4-.2-3.9-.9-.1-.1,0-.4.1-.6.8-1.3,1.6-2.6,2.4-3.9.5-.9,1.1-2,2.2-1.5.7.3,1.1,1.5,1.8,2.4h0Z"/>
      <path class="cls-4" d="m529.9,110.1c-.9,0-1.5.2-1.8,0-1-.7-1.9-1.5-2.9-2.3.7-.8,1.4-1.5,2.6-1.3.3.1.7-.5,1.1-.6,1-.2,2-.4,3-.2.8.2.2,2.2,1.9,1.8,0,0,.2.5.2.6-.8.6-1.6,1.1-2.5,1.6-.6.2-1.3.3-1.6.4h0Z"/>
      <path class="cls-2" d="m342.9,272v.9c0,2.1-1.7,3.5-3.8,3.1-.3,0-.7-1.2-.7-1.2,1.5-1.1.9-2.8.8-4.1-.2-1.9.7-1.8,2.1-1.9,1.5-.1,1.8.6,1.6,1.8-.1.5,0,1,0,1.4h0Z"/>
      <path class="cls-2" d="m430.2,55.9c-1.6.5-1.4-1-1.9-1.7-1.3-1.8,1-.5,1.1-1.2.3-1.3.7-2.6,2.5-2.4,1,.1,2.5-.1,2.9.4.9,1.1-.8,1.6-1.2,2.4-.8,1.4-1.3,3-3.4,2.5h0Z"/>
      <path class="cls-3" d="m239.9,26.2h-1.3c-1.1,0-1.9-1.1-1.3-2,.8-1.3,1.7-2.6,2.7-3.8.6-.7,1.2-.6,1.9,0,1.3,1.2,1.1,2.6.4,4-.5,1.1-.7,2.7-2.4,1.8h0Z"/>
      <path class="cls-3" d="m332.1,311.8c-.4.2-.7.4-1.1.4-.9.1-1.8-.2-1.7,1.3,0,.3-.5.7-.8,1-1.1.9-2.1.7-3.1-.3-.8-.8-.5-1.3,0-2.2,1.8-3.1,4-3.4,6.2-.6.1.1.3.2.5.4h0Z"/>
      <path class="cls-2" d="m407.8,261.6c-1.7.3-1.9-.5-1.8-1.7,0-.8.5-1.9-1.1-1.9-.2,0-.5-.3-.7-.4.2-.1.4-.4.7-.4.9-.1,2.3.5,2-1.4,1.1-.1,2.2-.2,3.3-.3.1,0,.4,1,.3,1.1-1.2.9-1,2.1-.8,3.2.2,1.8-.5,2.2-1.9,1.8h0Z"/>
      <path class="cls-1" d="m499.2,206.6c.8,0,1.6-.2,2.2.1.8.3,1.7.8,2,1.4.2.6-.3,1.6-.6,2.4-.4.7-1.1,1.1-1.8.3-.9-1.1-2-1.7-3.5-1.5-1,.2-1.2-.4-1.2-1.3,0-.8.1-1.5,1.1-1.4.6.1,1.2,0,1.8,0h0Z"/>
      <path class="cls-4" d="m13.5,177.7c-.1,1.1.2,2.3-.8,3.3-.4.4-.2,1.6-1.2,1.2-.6-.2-1.4-.8-1.6-1.4-.2-1.3.1-2.7-.1-4-.3-1.9.7-1.9,2.1-1.8.9.1,1.8,0,1.6,1.4v1.3h0Z"/>
      <path class="cls-4" d="m135.8,214.8c-.2,0-1.2.2-1.9-.1-.9-.4-1.5-1.3-1.3-2.5.1-1.1.9-.9,1.6-.9s1.5.1,2.2,0c2.3-.3,2.4-.2,2.6,1.4.2,2,.1,2.1-3.2,2.1h0Z"/>
      <path class="cls-3" d="m518.7,175.9c-.8-.1-1.7.1-2.2-.3-.5-.3-1.2-1.1-1.1-1.7,0-.6.8-1.5,1.3-1.6,1.5-.2,3-.2,4.5,0,.5.1,1.2,1,1.3,1.6,0,.6-.6,1.4-1.1,1.7-.9.4-1.9.3-2.7.3h0Z"/>
      <path class="cls-4" d="m70.4,292.5c-.1,1.4-1.5,3.2-2.8,3.5-1,.2-1.6-.4-2.3-1-1.6-1.4,1.3-1.9.6-3.1.7-.4,1.4-.9,2.2-1.2,1.5-.7,2.4,0,2.3,1.8h0Z"/>
      <path class="cls-2" d="m14.8,28.9c-.1-.4-.3-.9-.3-1.3,0-.2.4-.4.6-.6.9-1.1,1.7-2.3,2.5-3.4.8,1.1,1.7,2.2,2.5,3.4.4.5.9.8,1.2,1.3.1.1-.2.7-.4.7-1.9-.1-3.8-.1-6.1-.1Zm3.4-1.5c.1.2.2.4.3.6.1-.1.3-.2.3-.3,0-.2-.2-.4-.3-.6-.1.1-.2.2-.3.3h0Z"/>
      <path class="cls-2" d="m238.2,284.1c0-1.1.7-1.5,1.9-1.1.4.1.8.2,1.2.3.7.1,1.9,0,2,.3.3.9.3,2,.1,2.9-.2,1.1-1.6,1.1-2.6.1-.2-.3-.6-.7-.9-.6-1.7.5-1.8-.6-1.7-1.9h0Z"/>
      <path class="cls-2" d="m272.1,62.5q0,1.9-1.8,1.3c-.7-.2-1.4-.3-2-.4-1.5-.2-1.8-.9-1.6-2.7.2-1.5,1.3-.9,2-.9,2.3.2,3.4,1.1,3.4,2.7h0Z"/>
    </g>
  </g>
  <g id="Memory-2" data-name="Memory">
    <g>
      <path class="cls-3" d="m534,48.93c1.1-.6,2.2-1.8,3.3.1.3.5.8.8,1.2,1.3.9.9.6,3.2-.4,4-.6.4-2.3-.3-2.2-1.1.1-1.5-.6-1.8-1.9-1.6v-2.7h0Z"/>
      <path class="cls-2" d="m549,116.63c1.4.1,2.6-.3,3.5,1.6.6,1.3,1.4,1.1,1.3,1.7-.5,3-1.8,3.7-4.7,2.5-1.1-.5-2.4-.8-3.5-1.2-.9-.3-2.6.7-2.5-.7.1-.9.2-2.5,2.1-3.2,1.4-.5,2.6-.4,3.8-.7h0Z"/>
      <path class="cls-4" d="m547.5,171.63c-.1,1.1.2,2.3-.8,3.3-.4.4-.2,1.6-1.2,1.2-.6-.2-1.4-.8-1.6-1.4-.2-1.3.1-2.7-.1-4-.3-1.9.7-1.9,2.1-1.8.9.1,1.8,0,1.6,1.4v1.3h0Z"/>
      <path class="cls-2" d="m548.8,22.83c-.1-.4-.3-.9-.3-1.3,0-.2.4-.4.6-.6.9-1.1,1.7-2.3,2.5-3.4.8,1.1,1.7,2.2,2.5,3.4.4.5.9.8,1.2,1.3.1.1-.2.7-.4.7-1.9-.1-3.8-.1-6.1-.1Zm3.4-1.5c.1.2.2.4.3.6.1-.1.3-.2.3-.3,0-.2-.2-.4-.3-.6-.1.1-.2.2-.3.3h0Z"/>
    </g>
  </g>
  <g id="Memory-3" data-name="Memory">
    <g>
      <path class="cls-2" d="m7.44,9.42c1.9,1.5,3.2,3.4,2.7,5.9-.1.7-.5,1.3-1,1.8-.6.7-1.3.6-1.7-.3-.3-.8-.6-1.6-.9-2.3-.5-1-.5-3,0-3.9.2-.4,0-.9,0-1.3l.9.1h0Z"/>
      <path class="cls-4" d="m32.64,167.32c-1.4-.2-3,.7-4.1-.9-.2-.3-.5-.8-.4-1.1s.6-.6.9-.6c1.2-.1,2.4,0,3.6,0v2.6Z"/>
      <path class="cls-1" d="m3.54,78.92c-.8,0-1.5-.1-2.2,0-2,.2-3.2-1.1-3.7-2.5-1.2-3.4-1.9-7-2.8-10.6-.2-.9.1-1.4,1.2-1.4,1.7,0,3.5.3,5.1-.8.4-.3,1.8-.5,1.9,1,.1.7.9,1.3.8,1.9-.6,3.4,1.4,6,2.8,8.8.3.6.8,1.2.9,1.9.1.8.4,1.9-1.2,1.8-1-.2-1.9-.1-2.8-.1Z"/>
      <path class="cls-4" d="m9.14,240.82c-.1.1-.1.2-.2.3-1.9,3.2-5.3,3.9-8,1.4-1.2-1.2-2.1-2.6-3.1-4-.7-.9-.6-1.4.7-1.8.8-.2,1.3-1.3,2-1.6.8-.2,1.6-.7,2.5.7,1.2,2,2.5,4.4,5.4,4.5.2.1.5.4.7.5h0Z"/>
      <path class="cls-4" d="m10.74,310.82c1.3,0,1.9-.2,2.2,0,.4.3.8,1.1.7,1.2-1.1,1.4-1.7,2.9-1.9,4.6,0,.5-1.1,1.3-1.6,1.2-.9-.1-2.5-.8-2.5-1.1.2-1.8.5-3.5,1.2-5.1.4-.6,1.8-.7,1.9-.8h0Z"/>
      <path class="cls-4" d="m10.34,119.52c-.9,0-1.5.2-1.8,0-1-.7-1.9-1.5-2.9-2.3.7-.8,1.4-1.5,2.6-1.3.3.1.7-.5,1.1-.6,1-.2,2-.4,3-.2.8.2.2,2.2,1.9,1.8,0,0,.2.5.2.6-.8.6-1.6,1.1-2.5,1.6-.6.2-1.3.3-1.6.4h0Z"/>
      <path class="cls-3" d="m-.86,185.32c-.8-.1-1.7.1-2.2-.3-.5-.3-1.2-1.1-1.1-1.7,0-.6.8-1.5,1.3-1.6,1.5-.2,3-.2,4.5,0,.5.1,1.2,1,1.3,1.6,0,.6-.6,1.4-1.1,1.7-.9.4-1.9.3-2.7.3h0Z"/>
    </g>
  </g>
</svg>