<?xml version="1.0" encoding="UTF-8"?>
<svg xmlns="http://www.w3.org/2000/svg" xmlns:xlink="http://www.w3.org/1999/xlink" viewBox="0 0 553.58 136.43">
  <defs>
    <style>
      .cls-1 {
        fill: #f7be28;
      }

      .cls-1, .cls-2, .cls-3, .cls-4, .cls-5, .cls-6 {
        stroke-width: 0px;
      }

      .cls-2 {
        fill: url(#Unbenannter_Verlauf_89);
        mix-blend-mode: multiply;
        opacity: .49;
      }

      .cls-7 {
        isolation: isolate;
      }

      .cls-3 {
        fill: #f5496c;
      }

      .cls-4 {
        fill: #b5d41c;
      }

      .cls-5 {
        fill: #4071e5;
      }

      .cls-6 {
        fill: #edbbbb;
      }
    </style>
    <linearGradient id="Unbenannter_Verlauf_89" data-name="Unbenannter Verlauf 89" x1="276.79" y1="136.43" x2="276.79" y2="57.95" gradientUnits="userSpaceOnUse">
      <stop offset="0" stop-color="#edbbbb" stop-opacity=".3"/>
      <stop offset="1" stop-color="#edbbbb"/>
    </linearGradient>
  </defs>
  <g class="cls-7">
    <g id="Ebene_2" data-name="Ebene 2">
      <g id="Memory">
        <g>
          <rect class="cls-6" x="0" width="553.58" height="136.43"/>
          <rect class="cls-2" x="193.5" y="57.95" width="166.59" height="78.48"/>
          <g id="Memory-2" data-name="Memory">
            <g>
              <path class="cls-3" d="m526.99,0c1.94.61,3.15,1.36,2.68,2.38-.12.26-.54.52-.98.73-.58.27-1.27.26-1.68-.1-.34-.3-.57-.62-.92-.92-.48-.4-.45-1.21-.02-1.55.18-.14.03-.35.03-.53h.9-.01Z"/>
              <path class="cls-4" d="m0,22.13c1.1-.23,2.19-.71,3.27.03.29.2.84.34,1.25.51.87.37.61,1.31-.43,1.62-.57.17-2.28-.11-2.24-.43.09-.61-.62-.72-1.86-.64v-1.09h0Z"/>
              <path class="cls-5" d="m264.4,136.43c.3-.66.47-1.33,1-1.96.12-.15,1.67-.27,2.2-.15.68.16,1.97.39,1.05.95-.6.36-1.04.77-1.55,1.15h-2.71,0Z"/>
              <path class="cls-5" d="m552.26,63.5c-1.37-.09-3.01.27-4.06-.37-.22-.13-.47-.32-.4-.45.06-.11.57-.25.9-.25,1.18-.03,2.37-.01,3.56-.01v1.09Z"/>
              <path class="cls-4" d="m414.8,83.82c-1.28.08-2.27-.16-3.38-.53-3.69-1.23-5.21-2.96-6.92-4.65-.26-.26-.16-.58-.23-.86-.11-.4.45-.43,1.3-.5,1.48-.13,2.88-.4,4.32-.6,1.02-.14,2.52-.51,2.97-.37,1.02.33,1.86.89,2.17,1.41.7,1.17,2.38,2.15,3.76,3.17.75.55,2.44.89,3.62,1.36,1.27.51,1.23.52-.58.87-1.58.3-5.62.72-7.05.72h.02Z"/>
              <path class="cls-3" d="m454.78,38.93c-1.76-.08-3.3-.06-3.67-.99-.11-.29-1.27-.49-1.78-.78-.61-.35-1.05-.74-1.56-1.12.86-.04,1.72-.08,2.59-.1,1.15-.02,2.17-.03,3.26-.34,2.56-.74,5.7-1.17,7.53-2.31.22-.14.99-.25,1.37-.21.78.1,2.01.29,2.09.49.29.77,2.02,1,2.98,1.5,1.13.59.82.59-.58,1.26-2.24,1.07-5.5,1.4-8.22,2.11-1.12.29-2.66.33-4,.49h-.01Z"/>
              <path class="cls-1" d="m523.09,27.94c-.75,0-1.51-.03-2.25,0-2,.1-3.21-.45-3.69-1.02-1.16-1.38-1.91-2.82-2.78-4.25-.21-.35.11-.55,1.15-.55,1.72,0,3.46.12,5.08-.33.44-.12,1.79-.22,1.92.39.06.26.9.53.81.75-.56,1.38,1.43,2.41,2.76,3.53.3.25.76.49.86.76.13.33.36.76-1.16.71-.89-.03-1.8,0-2.7,0Z"/>
              <path class="cls-4" d="m116.23,67.48c3.87-.02,4.42.21,5.56,1.36.66.67.8,1.41,2.24,2,.7.29.54,1.03.31,1.53-.1.23-1.27.45-2.05.53-.84.09-1.8-.02-2.68.04-.66.04-1.26.23-1.88.35-.47-.4-1.33-.8-1.33-1.19,0-.66-.98-1.27-.85-1.83.17-.75-2.05-.42-1.93-.94.1-.46-.06-.82-1.5-.8,0-.21-.13-.58.02-.59,1.61-.21,3.26-.35,4.09-.44h0Z"/>
              <path class="cls-1" d="m46.18,10.68c-2.87-.41-5.75-.82-8.58-1.27-.33-.05-.53-.38-.56-.58-.16-.97,1.3-1.62,2.95-2.2.26-.09,1.03,0,1.49.07,2.04.35,3.83.91,6.14,1.01.82.04,1.61.18,2.41.26.78.08,2.04-.22,2.25.26.19.42.48.92-.65,1.32-1.54.56-2.8,1.29-5.45,1.12h0Z"/>
              <path class="cls-3" d="m165.2,30.68c-1.55.13-1.61-.19-2.01-.76-.94-1.34-1.42-2.81-4.36-3.79-.14-.04.14-.45.29-.45,1.98-.1,3.78-.64,5.85-.43,1.47.15,2.32.58,2.9,1.17.78.79,1.67,1.54,1.82,2.42.08.43,1.6.96.74,1.25-1.07.37-2.82.41-4.29.58-.28.03-.6,0-.95,0h0Z"/>
              <path class="cls-1" d="m261.18,72.93c1.65,0,2.42-.05,3.13.02.39.04.95.27.94.41-.04,1.17.17,2.29,1.68,3.35.45.32.13.82.17,1.23.04.43-.88.59-1.36.38-1.16-.5-2.5-.27-3.76-.31-1.48-.05-2.84-.49-2.99-1.11-.2-.86.29-1.73-.81-2.58-.36-.28.28-.94.97-1.22.57-.23,1.9-.17,2.02-.18h0Z"/>
              <path class="cls-1" d="m365.24,39.28c-.99.53-1.36.81-1.92.99-.31.1-1.11.14-1.39.05-2.3-.71-4.65-1.32-7.66-1.47-.9-.05-1.7-.45-2.55-.68-.88-.25-.64-.64.06-.67,1.69-.07,2.03-.64,2.86-1.03.99-.44,2.67-.62,3.99-.3,1.83.45,3.27,1.13,5.62,1.29.78.05,1.7.65,1.85,1.05.12.32-.8.71-.86.76h0Z"/>
              <path class="cls-4" d="m412.39,33.03q0,1.33-3.06,1.76c-.91.12-2.03-.06-2.75.37-1.14.7-2.97.34-4.5.37-.41,0-1.18-.29-1.22-.46-.15-.64-.24-1.29.04-1.92.09-.21,1.32-.43,2.08-.47,1.97-.11,3.79-.35,5.5-.74.35-.08,1.08-.1,1.11-.18.11-.31.16-.66,1.17-.53.96.12,1.73.41,1.63.91-.06.3-.01.6-.01.9h.01Z"/>
              <path class="cls-4" d="m503.56,3.5c.34.21.74.35.85.52.41.62.41,1.39,1.81,1.76,1.46.39.94,1.09,2.23,1.54,1.47.51.8,1.01-1.43.98-1.02-.01-1.87.67-2.9.1-3.57-.12-3.75-1.44-5.08-2.34-.13-.09-.13-.26,0-.35.69-.51-2.22-.9-.35-1.37,1.39-.35,3.05-.53,4.87-.83h0Z"/>
              <path class="cls-3" d="m322.65,5.79c-.16-.08-.31-.17-.5-.25-1.78-.67,0-1.74-1.67-2.42-.02,0,.25-.15.43-.21.89-.31,8.03-1.7,9.31-1.82,1.22-.11,1.77.07,1.86.62.05.35-.28.84.18,1.04,1.71.71.18.83-.97,1.01-3.01.47-6.19.82-8.33,1.91-.09.05-.21.08-.32.13h.01Z"/>
              <path class="cls-3" d="m54.74,24.91c.4.91.87,1.81,1.19,2.73.15.44.27.92-1.42.33-.76-.27-2.09-.3-3.18-.38-2.1-.16-2.53-.32-2.58-1.09-.04-.66-.05-1.33,0-1.99.04-.53.2-1.05.3-1.58,1.79-.02,3.57-.05,5.36-.04.22,0,.6.24.61.37.07.54.03,1.09.03,1.63-.1,0-.21.02-.31.02Z"/>
              <path class="cls-3" d="m437.36,127.16c.4.91.87,1.81,1.19,2.73.15.44.27.92-1.42.33-.76-.27-2.09-.3-3.18-.38-2.1-.16-2.53-.32-2.58-1.09-.04-.66-.05-1.33,0-1.99.04-.53.2-1.05.3-1.58,1.79-.02,3.57-.05,5.36-.04.22,0,.6.24.61.37.07.54.03,1.09.03,1.63-.1,0-.21.02-.31.02Z"/>
              <path class="cls-4" d="m95.51,43.18c-1.35.13-2.51-.1-3.64-.58-1.06-.45-2.54-.74-3.67-1.17-1.12-.42-.88-.75.45-1.16.81-.25,1.55-.53,2.28-.82.92-.36,1.76-.55,2.01.18.23.68,2.74-.18,2.85.74.03.28,1.88.46,2.44.8.75.47,2.67-.21,2.81.53.08.39-2.84,1.43-3.94,1.48-.44.02-.89,0-1.59,0h0Z"/>
              <path class="cls-4" d="m381.87,115.75c-1.35.13-2.51-.1-3.64-.58-1.06-.45-2.54-.74-3.67-1.17-1.12-.42-.88-.75.45-1.16.81-.25,1.55-.53,2.28-.82.92-.36,1.76-.55,2.01.18.23.68,2.74-.18,2.85.74.03.28,1.88.46,2.44.8.75.47,2.67-.21,2.81.53.08.39-2.84,1.43-3.94,1.48-.44.02-.89,0-1.59,0h0Z"/>
              <path class="cls-1" d="m307.28,14.5c-2.81.03-4.04-.31-5.27-.94-1.24-.64-1.9-1.39-3.06-2.03-.6-.33-.23-.6.45-.73,1.37-.26,2.82-.45,4.27-.64,1.12-.14,1.67.25,2.12.51.77.45,1.57.96,1.85,1.48.26.47.87.68,1.74.91,1.55.41,1.45.75-.23,1.08-.86.17-1.74.33-1.87.35Z"/>
              <path class="cls-4" d="m368,10.23c-.52.61-1.36,1.55-2.15,2.51-.16.19-.3.47-.07.6.46.26,1.08.52.23.74-.5.13-1.47.1-2.06-.01-1.01-.19-1.87-.51-2.84-.74-1.25-.31-1.26-.82-1.02-1.27.46-.88,1.11-1.74,1.78-2.6.54-.69,1.6-.88,3.35-.65.39.05.75.28,1.06.26,1.73-.12,2.16.2,1.72,1.17h0Z"/>
              <path class="cls-5" d="m195.82,5.72c-.05.11-.03.24-.17.33-.52.34-.99.7-1.66.97-.55.23-1.32.43-2.07.5-.54.05-1.24-.12-1.82-.22-1.39-.25-2.77-.49-4.11-.78-2.31-.49-2.05-.53-1.2-1.6.54-.68,1.75-.81,2.87-1.12.77-.21.73-.1.99.18.76.82,3,.95,4.51,1.43.46.14,1.45,0,2.19.04.18,0,.32.17.48.26h0Z"/>
              <path class="cls-5" d="m129.95,121.27c-.05.11-.03.24-.17.33-.52.34-.99.7-1.66.97-.55.23-1.32.43-2.07.5-.54.05-1.24-.12-1.82-.22-1.39-.25-2.77-.49-4.11-.78-2.31-.49-2.05-.53-1.2-1.6.54-.68,1.75-.81,2.87-1.12.77-.21.73-.1.99.18.76.82,3,.95,4.51,1.43.46.14,1.45,0,2.19.04.18,0,.32.17.48.26h0Z"/>
              <path class="cls-4" d="m154.83,63.56c.12-1,3.66-2.18,5.8-1.78,1.15.22,2.15.28,3.29.31,2.08.06,2.89.43,2.6,1.25-.11.32-.53.64-.88.94-.53.45-.54.43-1.94.12-.35-.08-.8-.1-1.21-.13-1.54-.1-3.29.27-4.62-.35-.11-.05-.76.08-1.16.14-1.92.25-1.97.23-1.88-.5h0Z"/>
              <path class="cls-5" d="m43.14,42.65c.39-.25.68-.62,1.29-.8,1.34-.39,2.89-.67,4.27-1.04.98-.27,1.98-.35,2.71.02.77.38,1.96.98,1.67,1.28-.52.54-2.01.93-3.09,1.39-.83-.53-1.37-.12-1.88.11-.46.21-.98.44-1.15.7-.3.45-1.14.32-1.75.29-.37-.02-.82-.24-.97-.41-.42-.47-.71-.97-1.12-1.55h.02Z"/>
              <path class="cls-3" d="m163.68,43.01c.87.02,1.75.04,2.62.07-.07.21-.37.57-.18.62,1.17.29,2.44.53,3.69.76.37.07.79.1,1.19.15-.31.07-.64.14-.94.22-.47.13-1.01.25-1.35.42-.6.31-.89.78-1.65.97-1.2.29-1.63-.35-2.45-.54-.35-.08-.81-.13-1.21-.12-1.22.03-2.31.04-2.5-.62-.02-.06-1.12-.02-1.59-.12-.39-.08-.89-.35-.81-.47.69-.98,1.82-1.31,4.27-1.33h.91Z"/>
              <path class="cls-4" d="m490.81,48.1c.11-.16.11-.37.36-.48,1.76-.76,1.56-1.7,1.56-2.62,0-.12.5-.36.66-.35,1.21.11,2.87.14,3.46.46.84.46,1.31,1.17,1.16,1.75-.19.69-1.11,1.36-1.88,2.01-.52.44-2.81.7-3.9.45s-1.66-.67-1.41-1.22h0Z"/>
              <path class="cls-5" d="m528.74,93.05c-.07.04-.14.08-.2.13-1.87,1.31-5.34,1.57-7.98.55-1.2-.47-2.11-1.05-3.12-1.6-.68-.37-.63-.58.67-.72.76-.08,1.26-.53,2.02-.63.77-.1,1.63-.28,2.46.29,1.18.82,2.49,1.76,5.42,1.82.25,0,.49.1.73.15h0Z"/>
              <path class="cls-5" d="m291.47,55.64c.04,1.05-.11,1.17-2.9,1.31-1.67.09-2.91.4-4.13.83-1.32.46-1.42.42-2-.36-1.2-1.63-1.08-1.72,2.97-2.27,1.05-.14,2.09-.31,3.14-.46,1.78-.26,2.72-.07,2.91.58.04.12,0,.24,0,.36h0Z"/>
              <path class="cls-5" d="m384.87,54.52c1.62-.06,2.6.13,3.28.82.3.31.14.97,1.82,1.01,1.09.02.61.91,2.24.76.01.21.23.52,0,.6-2.93.88-7.2.42-8.67-.92-.44-.4-.7-.84-.91-1.28-.4-.85-.02-1,2.25-.99h0Z"/>
              <path class="cls-1" d="m288.41,112.51c.58-.83.89-1.32,1.27-1.81.89-1.14,1.03-1.18,3.82-1.13,1.44.02,2.13.55,1.83,1.19-.39.84-1.63,1.61-1.15,2.52.32.6-.55.72-1.79.64-.65-.04-1.51.16-1.82-.28-.37-.53-2.98-.63-2.15-1.14h0Z"/>
              <path class="cls-5" d="m360.53,88.77c.8.35,1.79.69,2.45,1.11.34.22.35.67,0,.88-1.21.72-2.49,1.44-4.07,2.02-.48.18-2.16.69-3.08-.1-.3-.26-1.09-.41-1.53-.66-.22-.12-.38-.39-.21-.47,1.75-.86,3.57-1.7,5.39-2.55.17-.08.48-.11,1.04-.23h0Z"/>
              <path class="cls-1" d="m419.99,62.38c.41-.53.81-1.07,1.24-1.61.38-.47.8-.94,1.21-1.42,1.07.23,2.17.43,3.21.68.4.1.99.31.94.42-.45,1.05-.8,2.11-1.66,3.14-.45.55-1.22.47-1.95.41-2.16-.17-2.66-.51-2.99-1.62h0Z"/>
              <path class="cls-5" d="m210.22,88.41c-.23.47-.04.94-.68,1.47-1.54,1.3-1.29,1.35-4.47.92-2.3-.31-2.48-.51-1.11-1.29,1.36-.78,1.81-1.64,1.76-2.58-.04-.81.75-.32,1.36-.12.09.03.31-.02.43,0,1.8.34,2.7.87,2.71,1.59h0Z"/>
              <path class="cls-3" d="m15.05,49.34c1.37.04,2.57-.13,3.48.64.62.53,1.43.43,1.33.68-.47,1.22-1.77,1.49-4.66,1-1.14-.2-2.35-.33-3.52-.49-.87-.12-2.57.29-2.49-.3.05-.38.23-1.02,2.14-1.27,1.31-.17,2.52-.15,3.71-.25h0Z"/>
              <path class="cls-1" d="m345.31,71.44c1.73-.02,3.05.49,2.57,1-.47.49-.45,1.22-2.75,1.21-1.08,0-2.12.52-3.28.67-2.55.32-4.48-.42-3.77-1.44.19-.28,1.08-.68,1.65-.68,1.82,0,3.28-.27,4.75-.63.35-.08.77-.12.84-.13h-.01Z"/>
              <path class="cls-5" d="m465.32,5.08c.6,0,1.2.02,1.8,0,.99-.03,1.3.14,1.24.52-.09.58.33,1.11.78,1.67.8.99-.91,1.66-3.35,1.41-.77-.08-1.6-.47-1.88-.79-.33-.38-.14-.84-.06-1.25.09-.45-.17-.81-1.09-1.09-.25-.08-.34-.25-.5-.38.27-.03.54-.08.81-.08.75-.01,1.5,0,2.25,0h0Z"/>
              <path class="cls-4" d="m240.98,55.23c-.06.61-.76,1.03-1.98,1.09-1,.05-2.46.38-3.05-.52-.31-.46-1.4-.91-1.82-1.49-.35-.49-1.64-.87.31-1.22.63-.11,1.26-.35,1.85-.33.77.02,1.85.16,2.2.39.99.66,1.68,1.38,2.49,2.09Z"/>
              <path class="cls-5" d="m48.74,84.89c.02-1.26.16-1.31,3.5-1.44.68-.03,1.34-.15,2.02-.21.69-.06,1.82-.23,2.02-.12.63.34.99.78,1.31,1.2.07.09-.34.3-.65.37-.95.21-1.82.37-2.29.86-.15.16-1.91.06-2.93.1-.4.02-.83.08-1.16.18-1.28.37-1.88.26-1.83-.38.02-.18,0-.36,0-.54h.01Z"/>
              <path class="cls-1" d="m139.06,13.43c.96,0,1.61-.06,2.13.01,1.04.16,2.81.38,2.85.61.07.43-.74.94-1.45,1.33-.31.17-1.28.17-1.96.22-1.38.1-2.56-.67-4.26-.04-.72.27-2.6-.82-1.8-1.24,1.17-.63,2.55-1.2,4.49-.89h0Z"/>
              <path class="cls-4" d="m30.18,107.04c-1.43.1-2.47-.1-3.11-.66-.29-.25-.74-.47-1.14-.71-1.13-.66-.1-1.68,1.93-1.89.23-.02.66.02.78.08,1.36.83,3.32,1.52,3.86,2.55.27.51-.19.64-2.31.63h-.01Z"/>
              <path class="cls-5" d="m83.93,9.19c-.11-.58.23-1.03,1.83-1.23.64-.08,1.21-.31,1.71-.51.9-.37,1.56-.19,2.19.11,1.65.8,1.66.95-.23,1.64-.72.26-1.65.43-2.47.65-.63.17,0,.86-1.47.66-1.21-.17-1.78-.59-1.56-1.13.02-.06,0-.12,0-.18h0Z"/>
              <path class="cls-3" d="m220.94,29.75c.93,0,1.6-.06,2.09.02.37.06.53.33.75.5.03.02-.15.1-.26.13-1.45.37.32,1.29-1.32,1.48-1.03.12-2.38-.21-3.59-.31-.42-.04-.89,0-1.33,0-.65-.02-1.73.13-1.56-.35.14-.38-.86-.83.98-1.16,1.59-.29,3.04-.24,4.23-.31h.01Z"/>
              <path class="cls-5" d="m454.8,100.37c-.74-.69.7-1.12,1.96-1.51.59-.18,1.66-.16,2.5-.15,1.51,0,.83.5.93.8.39,1.09.37,1.09-1.75,1.54-.74.16-1.42.37-2.18.5-.74.13-1.46.12-1.48-.32-.01-.24,0-.48,0-.85h.02Z"/>
              <path class="cls-1" d="m211,66.77c-1.78.26-3.14-.27-4.11-.86-.46-.29-.08-.79-.08-1.19.81,0,1.64-.01,2.44.03.69.04,1.34.16,2.03.21,2.1.15,2.46.32,2.61,1.09.1.5-.12.83-1.63.73-.29-.02-.6,0-1.25,0h0Z"/>
              <path class="cls-4" d="m472.01,121.91c-.16.11-.71.49-1.26.87-.71-.35-2.36-.2-2.56-.92-.18-.64-1.09-1.25-1.54-1.89-.07-.1.57-.39.94-.4,2.4-.12,3.97.41,4.4,1.44.07.18.01.36.01.9h0Z"/>
              <path class="cls-1" d="m323.28,29.51c-.37.36-.82.95-1.56,1.48-.61.43-2.03.49-3.02.21-1.01-.29-1.35-.81-.69-1.23.76-.47,1.62-.93,2.42-1.39.28-.16.54-.33.81-.5.58.16,1.3.28,1.69.49.3.16.19.45.34.94h0Z"/>
              <path class="cls-4" d="m221.93,125.08c.25.64.2,1.23-1.43,1.55-.86.17-1.94-.11-2.13-.51-.15-.33-.43-.66-.56-.99-.16-.4-.42-.82-.28-1.21.17-.46,1.86-.63,2.75-.33,1.2.39,2.17.83,1.65,1.5h0Z"/>
              <path class="cls-1" d="m76.38,96.16c2.26.03,3.18.88,4.8,1.3.25.06-.16.53-.26.82-.96-.19-1.26.47-2.51.24-1.79-.34-3.04-.88-4.3-1.44-.75-.33.18-.9,1.38-.92.3,0,.59,0,.89,0Z"/>
              <path class="cls-1" d="m164.99,102.33c2.86-.18,3.96.32,3.8,1.35-.09.62-1.25.58-1.81.44-1.35-.34-2.72-.36-4.18-.33-1.26.02-2.07-.3-2.11-.71-.04-.44.82-.73,2.04-.74.75,0,1.5,0,2.25,0h0Z"/>
              <path class="cls-5" d="m530.34,121.19c1.32,0,1.88-.07,2.18.02.37.1.85.43.74.49-1.07.55-1.72,1.15-1.88,1.87-.04.19-1.09.51-1.61.49-.91-.04-2.54-.32-2.51-.45.16-.7.53-1.43,1.25-2.07.3-.26,1.67-.33,1.82-.35h.01Z"/>
              <path class="cls-3" d="m275.72,91.67c0,.06.05.16,0,.18-1.93.42-1.75,1.46-3.54,1.93-1.2.32-2.53.25-3.4-.25-.15-.09-.34-.25-.25-.31.93-.69,1.91-1.38,2.92-2.05.11-.07.61-.13.76-.09.61.16,1.09.41,1.73.51.43.07,1.04-.04,1.57-.06.06,0,.14.09.21.14h0Z"/>
              <path class="cls-3" d="m508.15,110.77c-.84-.16-1.77-.3-2.51-.53-.15-.04.59-.46.62-.71.07-.75,1.61-.86,2.81-1.11.84-.18,3.24.05,3.59.38.21.2.27.58-.03.68-1.24.47-2.64.86-4,1.27-.09.03-.29,0-.47,0h-.01Z"/>
              <path class="cls-3" d="m66.49,64.01c-.37.36-.72.84-.87.83-1.87-.13-3.5,1.03-5.5.17-.4-.17-1.65.03-1.43-.44.09-.2.53-.41.95-.55.64-.21,1.45-.33,2.13-.51,1.98-.56,3.32-.45,4.62.38.11.07.14.16.1.12h0Z"/>
              <path class="cls-5" d="m464.99,71.46c-.94.02-2.84-.54-3.22-1.01-.09-.11.21-.39.47-.42,1.17-.16,2.86-.11,3.5-.43,1.59-.78,2.53.18,3.77.11.06,0,.45.37.3.45-1.2.66-2.81,1.11-4.82,1.3h0Z"/>
              <path class="cls-1" d="m29.07,125.97c-.15-.69.97-.88,2.21-1.26,2.05-.64,3.19.05,4.69.17.09,0,.2.51-.03.57-1.64.42-3.31.83-5.08,1.15-1.22.22-1.82-.04-1.79-.62h0Z"/>
              <path class="cls-3" d="m269.36,43.84c-.93.67-1.66,1.26-2.58,1.81-.38.23-3.41-.08-3.88-.36-.09-.05-.04-.18.06-.25.77-.53,1.56-1.05,2.35-1.58.53-.35,1.12-.81,2.25-.6.75.14,1.13.6,1.81.98h-.01Z"/>
              <path class="cls-5" d="m529.94,44.27c-.91,0-1.48.07-1.78-.01-1.01-.28-1.92-.62-2.87-.93.69-.32,1.37-.61,2.61-.52.31.02.69-.2,1.08-.23.99-.06,2.05-.17,2.98-.09.78.07.23.87,1.86.72.01,0,.21.22.16.23-.8.23-1.6.45-2.47.63-.61.12-1.33.16-1.56.19h0Z"/>
              <path class="cls-3" d="m342.91,109.39v.36c-.03.83-1.69,1.41-3.8,1.27-.3-.02-.74-.47-.67-.5,1.49-.46.92-1.12.79-1.66-.18-.76.74-.72,2.08-.75,1.5-.02,1.76.24,1.6.74-.06.18,0,.36,0,.53h0Z"/>
              <path class="cls-3" d="m430.18,22.49c-1.6.19-1.4-.41-1.9-.69-1.26-.71.96-.2,1.12-.5.27-.51.72-1.03,2.45-.98,1,.03,2.46-.06,2.89.16.86.44-.84.63-1.24.97-.7.58-1.2,1.23-3.32,1.03h0Z"/>
              <path class="cls-4" d="m239.96,10.52c-.67,0-.97,0-1.27,0-1.07-.02-1.87-.46-1.34-.81.8-.53,1.74-1.04,2.69-1.54.56-.29,1.19-.24,1.85,0,1.31.49,1.07,1.04.44,1.6-.53.47-.77,1.13-2.37.75h0Z"/>
              <path class="cls-4" d="m332.1,125.38c-.4.06-.72.15-1.06.16-.87.02-1.84-.08-1.73.51.02.12-.51.27-.83.39-1.1.38-2.07.29-3.06-.11-.84-.33-.47-.53.04-.88,1.78-1.26,4.02-1.38,6.2-.25.09.05.21.08.44.18h0Z"/>
              <path class="cls-3" d="m407.85,105.21c-1.69.13-1.88-.2-1.8-.7.05-.31.45-.76-1.07-.74-.23,0-.47-.11-.7-.17.23-.06.44-.16.68-.18.91-.05,2.26.18,2.02-.55,1.1-.04,2.2-.1,3.3-.1.1,0,.4.41.28.45-1.22.34-.95.84-.84,1.29.16.68-.52.87-1.87.7h0Z"/>
              <path class="cls-1" d="m499.24,83.09c.75,0,1.57-.08,2.24.02.76.11,1.73.33,1.95.58.22.26-.26.66-.65.95-.38.28-1.13.44-1.81.13-.94-.43-1.96-.7-3.46-.6-1,.07-1.24-.16-1.22-.53.02-.34.08-.59,1.15-.56.6.02,1.2,0,1.8,0h0Z"/>
              <path class="cls-5" d="m13.55,71.46c-.07.45.25.91-.81,1.31-.38.14-.17.62-1.18.5-.62-.08-1.45-.33-1.55-.55-.23-.52.09-1.08-.11-1.6-.29-.75.67-.77,2.05-.74.94.02,1.82-.01,1.61.54-.07.17-.01.36-.01.53h0Z"/>
              <path class="cls-5" d="m135.84,86.36c-.17,0-1.16.08-1.88-.06-.89-.17-1.49-.51-1.33-1.01.14-.46.87-.37,1.56-.38.74,0,1.48.03,2.21,0,2.26-.11,2.43-.08,2.59.55.22.88.17.9-3.13.91h-.02Z"/>
              <path class="cls-4" d="m518.74,70.75c-.83-.03-1.67.02-2.25-.11-.55-.13-1.17-.46-1.13-.68.04-.24.75-.62,1.28-.65,1.47-.09,3.02-.09,4.49,0,.52.03,1.24.41,1.27.65.03.23-.58.58-1.13.68-.76.14-1.73.08-2.51.11h-.02Z"/>
              <path class="cls-5" d="m70.39,117.61c-.1.58-1.51,1.29-2.77,1.4-1.01.1-1.61-.14-2.3-.39-1.56-.56,1.35-.76.56-1.24.72-.17,1.41-.37,2.17-.5,1.6-.27,2.47.02,2.34.73h0Z"/>
              <path class="cls-3" d="m14.82,11.61c-.11-.16-.31-.34-.33-.53,0-.08.4-.16.57-.26.85-.45,1.68-.91,2.52-1.37.84.45,1.66.9,2.52,1.35.37.18.87.33,1.22.52.08.04-.22.29-.36.29-1.93.02-3.86.01-6.14.01Zm3.37-.6c.1.08.21.16.32.23.1-.04.3-.09.28-.12-.05-.08-.18-.16-.28-.25l-.32.13h0Z"/>
              <path class="cls-3" d="m238.23,114.24c.02-.46.67-.6,1.95-.43.39.05.79.09,1.2.12.69.05,1.92.02,2,.13.27.37.31.8.11,1.18-.24.45-1.65.46-2.56.06-.25-.11-.65-.28-.9-.26-1.86.15-1.97-.28-1.8-.8h0Z"/>
              <path class="cls-3" d="m272.12,25.15c.03.76,0,.76-1.83.53-.66-.08-1.35-.13-2.04-.17-1.46-.09-1.82-.37-1.56-1.09.22-.59,1.33-.36,2.03-.35,2.32.05,3.37.42,3.39,1.08h0Z"/>
            </g>
          </g>
        </g>
      </g>
    </g>
  </g>
</svg>