<?xml version="1.0" encoding="UTF-8"?>
<svg id="Ebene_2" xmlns="http://www.w3.org/2000/svg" xmlns:xlink="http://www.w3.org/1999/xlink" viewBox="0 0 629 619.5">
  <defs>
    <style>
      .cls-1 {
        fill: #ce0005;
      }

      .cls-2 {
        fill: #fff;
      }

      .cls-3 {
        fill: #188d46;
      }

      .cls-4 {
        filter: url(#drop-shadow-1);
      }

      .cls-5 {
        fill: none;
        stroke: #fff;
        stroke-miterlimit: 10;
        stroke-width: 5.3px;
      }
    </style>
    <filter id="drop-shadow-1" filterUnits="userSpaceOnUse">
      <feOffset dx="0" dy="0"/>
      <feGaussianBlur result="blur" stdDeviation="15.01"/>
      <feFlood flood-color="#a87e5d" flood-opacity="1"/>
      <feComposite in2="blur" operator="in"/>
      <feComposite in="SourceGraphic"/>
    </filter>
  </defs>
  <g id="objekte">
    <g id="objekte-2" data-name="objekte">
      <g id="Dartscheibe" class="cls-4">
        <g>
          <path d="M583.71,304.03c.45,83.19-31.1,172.51-101.47,222.12-64.19,45.26-150.97,54.59-226.37,43.79-66.68-9.56-131.05-37.32-168.9-96.26-30.07-46.83-41.18-104.78-41.16-159.78.02-55.05,12.73-111.17,43.65-157.35,37.05-55.32,96.02-84.37,159.65-95.73,73.94-13.2,160.09-6.89,226.72,31.46,76.2,43.86,107.41,127.66,107.86,211.76Z"/>
          <path class="cls-5" d="M574.88,304.4c.43,81.02-30.18,167.51-98.61,216.28-62.4,44.47-146.82,54.22-220.48,43.48-65.17-9.5-128.29-36.82-165.78-94.04-29.91-45.66-41.42-102.22-41.32-156.2.1-53.97,13.1-108.91,43.82-153.88,36.75-53.8,94.39-82.45,156.75-93.68,72.08-12.98,155.86-6.31,220.58,31.63,73.64,43.18,104.6,124.69,105.04,206.41Z"/>
          <g>
            <path class="cls-1" d="M86.77,338.87c-4.45.72-6.6,1.08-10.73,1.77,2.31,18.18,6.28,35.45,12.29,52.78,4.09-2.21,6.2-3.32,10.55-5.58-5.83-16.1-9.73-32-12.11-48.98Z"/>
            <path class="cls-3" d="M85.47,314.05c.07-8.15.6-16.63,1.73-24.77-4.44-.73-6.59-1.09-10.72-1.8-1.14,8.73-1.79,17.8-1.75,26.55.04,8.85.31,17.76,1.31,26.62,4.13-.7,6.28-1.05,10.73-1.77-.99-8.16-1.37-16.66-1.3-24.82Z"/>
            <path class="cls-3" d="M98.87,387.85c-4.35,2.26-6.46,3.37-10.55,5.58,7.09,17.85,15.83,33.96,27.07,49.57,3.78-3.81,5.71-5.73,9.65-9.58-10.62-14.1-19.82-29.03-26.17-45.57Z"/>
            <path class="cls-1" d="M125.04,433.41c-3.93,3.85-5.86,5.76-9.65,9.58,12.43,16.32,27.37,29.53,44.11,41.25,2.85-5.24,4.29-7.86,7.18-13.13-15.81-10.89-29.32-23.01-41.65-37.71Z"/>
            <path class="cls-3" d="M126.42,195.77c-3.79-3.75-5.66-5.61-9.31-9.33-11.2,15.37-20.11,31.25-27.44,48.78,4.05,2.18,6.13,3.28,10.42,5.5,6.48-16.11,15.54-31.38,26.33-44.96Z"/>
            <path class="cls-1" d="M250.6,125.85c10.55-1.75,21.36-2.57,32.28-3.15,1.04-6.58,1.56-9.85,2.59-16.33-11.79.47-23.55,1.69-35.18,3.67-11.2,1.91-22.29,4.55-33.13,7.95,1.16,5.98,1.74,8.99,2.9,15.04,10.19-2.9,20.34-5.5,30.55-7.19Z"/>
            <path class="cls-3" d="M348.97,129.82c3.59-6.67,5.39-9.99,9.01-16.59-24.05-5.31-47.9-7.45-72.52-6.87-1.03,6.48-1.55,9.74-2.59,16.33,22.6-.27,44.09,1.95,66.1,7.13Z"/>
            <path class="cls-3" d="M220.05,133.04c-1.16-6.06-1.74-9.07-2.9-15.04-20.35,6.86-39.61,15.45-57.31,27.74,2.73,5.06,4.11,7.6,6.89,12.7,16.9-10.87,34.26-18.98,53.32-25.39Z"/>
            <path class="cls-1" d="M166.73,158.42c-2.79-5.1-4.17-7.64-6.89-12.7-16.22,11.26-30.7,25.05-42.72,40.71,3.65,3.71,5.51,5.58,9.31,9.33,11.41-14.6,25.31-26.59,40.3-37.35Z"/>
            <path class="cls-1" d="M100.09,240.73c-4.28-2.22-6.37-3.32-10.42-5.5-6.3,17.12-10.58,34.21-13.2,52.26,4.13.71,6.28,1.07,10.72,1.8,2.66-16.86,6.83-32.62,12.89-48.55Z"/>
            <path class="cls-3" d="M485.47,307.69c.14,12.16-.98,24.52-2.65,36.83,7.51,1.07,15.02,2.15,22.53,3.24,1.87-13.65,3.15-27.35,3.02-40.84-.12-13.41-1.64-26.99-3.81-40.52-7.54,1.6-15.09,3.17-22.63,4.73,1.99,12.2,3.4,24.46,3.55,36.56Z"/>
            <path class="cls-1" d="M481.92,271.13c7.55-1.56,15.09-3.13,22.63-4.73-5.37-26.04-14.14-49.7-27.93-72.47-6.7,3.8-13.42,7.59-20.14,11.37,12.47,20.9,20.38,42.03,25.44,65.83Z"/>
            <path class="cls-1" d="M459.56,412.36c6.7,3.4,13.39,6.81,20.07,10.24,12.79-23.79,20.92-48.28,25.71-74.84-7.51-1.09-15.02-2.17-22.53-3.24-4.27,23.83-11.29,46.68-23.26,67.85Z"/>
            <path class="cls-3" d="M166.69,471.12c-2.9,5.27-4.33,7.89-7.18,13.13,19.22,12.14,38.95,20.77,60.69,27.39,1.08-6.19,1.62-9.3,2.71-15.55-19.87-5.96-38.75-13.63-56.21-24.96Z"/>
            <path class="cls-1" d="M357.98,113.23c-3.62,6.6-5.42,9.92-9.01,16.59,21.99,6.22,41.62,14.78,60.82,27.2,6.07-6.09,9.13-9.14,15.28-15.26-21.07-13.21-43.06-22.27-67.09-28.53Z"/>
            <path class="cls-3" d="M456.49,205.31c6.72-3.78,13.43-7.57,20.14-11.37-14.18-20.87-30.86-37.74-51.55-52.17-6.15,6.12-9.21,9.17-15.28,15.26,18.8,13.68,33.65,29.03,46.69,48.28Z"/>
            <path class="cls-3" d="M288.68,504.79c1.33,6.73,2,10.07,3.34,16.71,25.18-.32,49.38-3.46,73.68-10.12-3.96-6.6-5.93-9.93-9.86-16.59-22.24,6.37-44.04,9.47-67.16,10Z"/>
            <path class="cls-1" d="M255.06,502.61c-10.85-1.44-21.6-3.61-32.15-6.54-1.08,6.25-1.63,9.36-2.71,15.55,11.54,3.24,23.38,5.66,35.04,7.27,12.04,1.66,24.42,2.34,36.78,2.6-1.34-6.64-2.01-9.98-3.34-16.71-11.24.03-22.48-.69-33.62-2.17Z"/>
            <path class="cls-1" d="M355.84,494.78c3.93,6.66,5.9,9.99,9.86,16.59,23.77-7.57,45.13-18,65.32-32.69-6.3-5.89-9.44-8.83-15.69-14.69-18.53,13.7-37.67,23.42-59.49,30.79Z"/>
            <path class="cls-3" d="M415.33,463.99c6.25,5.87,9.39,8.81,15.69,14.69,19.84-16,35.49-34.25,48.61-56.08-6.68-3.43-13.37-6.84-20.07-10.24-12.12,20.12-26.15,36.63-44.23,51.62Z"/>
            <path class="cls-2" d="M132.51,313.99c.03-5.96.5-11.81,1.36-17.54-15.57-2.29-31.14-4.61-46.67-7.17-1.13,8.13-1.66,16.61-1.73,24.77-.07,8.16.31,16.66,1.3,24.82,15.62-2.54,31.27-4.93,46.92-7.32-.8-5.74-1.2-11.59-1.17-17.55Z"/>
            <path d="M144.16,262.47c-14.78-7.06-29.54-14.18-44.07-21.74-6.06,15.93-10.23,31.69-12.89,48.55,15.53,2.56,31.1,4.88,46.67,7.17,2.21-11.81,5.17-23.06,10.29-33.98Z"/>
            <path class="cls-2" d="M194.52,420.93c-9.29,16.72-18.59,33.44-27.83,50.19,17.46,11.33,36.35,19,56.21,24.96,3.43-19.84,6.82-39.68,10.17-59.53-13.51-3.17-26.57-8.67-38.55-15.62Z"/>
            <path class="cls-2" d="M143.75,365.63c-15.04,7.25-30.07,14.51-44.88,22.21,6.35,16.54,15.55,31.47,26.17,45.57,12.89-12.52,25.97-24.81,39.12-37.05-8.14-9.69-14.65-19.46-20.41-30.73Z"/>
            <path d="M164.17,396.36c-13.15,12.24-26.23,24.54-39.12,37.05,12.33,14.69,25.83,26.82,41.65,37.71,9.24-16.75,18.54-33.47,27.83-50.19-11.28-7.22-20.98-15-30.35-24.57Z"/>
            <path d="M133.69,331.55c-15.65,2.39-31.3,4.78-46.92,7.32,2.37,16.98,6.27,32.88,12.11,48.98,14.81-7.7,29.85-14.96,44.88-22.21-5.1-10.96-7.97-22.24-10.07-34.09Z"/>
            <path class="cls-2" d="M230.99,190.99c-3.6-19.32-7.25-38.64-10.94-57.95-19.06,6.4-36.42,14.52-53.32,25.39,8.94,16.29,17.99,32.52,27.08,48.73,11.52-7.03,24.1-12.71,37.18-16.17Z"/>
            <path d="M251.64,186.83c7.16-.92,14.31-1.33,21.41-1.23,3.25-20.97,6.52-41.94,9.82-62.91-10.92.58-21.73,1.41-32.28,3.15-10.22,1.69-20.37,4.29-30.55,7.19,3.69,19.31,7.34,38.62,10.94,57.95,6.61-1.82,13.5-3.23,20.65-4.15Z"/>
            <path d="M193.81,207.16c-9.09-16.21-18.14-32.44-27.08-48.73-14.99,10.76-28.89,22.75-40.3,37.35,12.46,12.21,25.14,24.19,37.92,36.07,9.1-9.51,18.54-17.36,29.47-24.68Z"/>
            <path class="cls-2" d="M164.34,231.84c-12.78-11.88-25.45-23.86-37.92-36.07-10.79,13.58-19.86,28.85-26.33,44.96,14.54,7.56,29.29,14.68,44.07,21.74,5.73-11.17,12.18-20.95,20.18-30.63Z"/>
            <path d="M254.42,440.21c-7.38-.73-14.51-1.99-21.35-3.67-3.34,19.85-6.73,39.69-10.17,59.53,10.55,2.92,21.3,5.09,32.15,6.54,11.14,1.48,22.38,2.21,33.62,2.17-4.19-21.3-8.26-42.63-12.26-63.97-7.27.32-14.62.13-22-.6Z"/>
            <path class="cls-2" d="M402.3,310.09c.13,7.47-.35,15.46-1.57,22.9,27.37,3.79,54.73,7.62,82.09,11.53,1.67-12.31,2.8-24.67,2.65-36.83-.14-12.1-1.56-24.36-3.55-36.56-27.29,5.6-54.61,10.99-81.98,16.19,1.48,7.37,2.23,15.32,2.36,22.77Z"/>
            <path class="cls-2" d="M383.78,245.45c24.34-13.2,48.56-26.59,72.71-40.14-13.05-19.25-27.89-34.61-46.69-48.28-18.49,18.56-36.91,37.2-55.35,55.81,11.5,9,21.82,20.03,29.33,32.61Z"/>
            <path d="M399.95,287.32c27.37-5.2,54.69-10.59,81.98-16.19-5.06-23.8-12.96-44.92-25.44-65.83-24.14,13.55-48.37,26.94-72.71,40.14,7.93,13.17,12.75,26.98,16.16,41.87Z"/>
            <path d="M354.45,212.84c18.44-18.61,36.86-37.25,55.35-55.81-19.2-12.42-38.83-20.98-60.82-27.2-11.19,20.86-22.18,41.82-33.11,62.82,13.73,4.61,27.15,11.21,38.58,20.2Z"/>
            <path class="cls-2" d="M273.05,185.6c14.43.29,29.1,2.4,42.81,7.04,10.92-21,21.92-41.96,33.11-62.82-22-5.18-43.5-7.41-66.1-7.13-3.3,20.96-6.57,41.93-9.82,62.91Z"/>
            <path d="M319.78,432.15c11.87,20.96,23.86,41.86,36.06,62.63,21.82-7.37,40.96-17.09,59.49-30.79-19.14-17.96-38.26-35.94-57.4-53.9-11.14,9.61-24.44,16.86-38.14,22.05Z"/>
            <path d="M386.07,375.84c24.58,12.01,49.07,24.18,73.48,36.53,11.97-21.16,18.99-44.02,23.26-67.85-27.35-3.9-54.72-7.74-82.09-11.53-2.9,15.13-7.24,29.24-14.66,42.84Z"/>
            <path class="cls-2" d="M276.42,440.82c3.99,21.34,8.06,42.67,12.26,63.97,23.12-.54,44.92-3.64,67.16-10-12.2-20.78-24.18-41.67-36.06-62.63-13.94,5.33-28.56,7.56-43.36,8.67Z"/>
            <path class="cls-2" d="M357.93,410.09c19.14,17.96,38.26,35.94,57.4,53.9,18.08-14.99,32.11-31.51,44.23-51.62-24.41-12.35-48.91-24.52-73.48-36.53-7.81,12.92-16.63,24.37-28.15,34.25Z"/>
            <path class="cls-1" d="M147.53,329.43c-5.67.86-8.44,1.28-13.85,2.11,2.1,11.85,4.97,23.13,10.07,34.09,5.08-2.44,7.68-3.68,12.96-6.2-4.55-9.46-7.67-19.6-9.18-30Z"/>
            <path class="cls-3" d="M146.44,313.93c.02-5.27.44-10.43,1.21-15.49-5.64-.81-8.39-1.2-13.77-1.99-.86,5.73-1.32,11.58-1.36,17.54-.03,5.96.37,11.81,1.17,17.55,5.41-.83,8.18-1.25,13.85-2.11-.74-5.07-1.12-10.23-1.1-15.5Z"/>
            <path class="cls-3" d="M156.72,359.43c-5.28,2.52-7.88,3.76-12.96,6.2,5.76,11.27,12.27,21.04,20.41,30.73,4.31-4,6.49-6.02,10.91-10.11-7.43-7.95-13.65-17.01-18.36-26.82Z"/>
            <path class="cls-3" d="M201.99,407.45c-3.01,5.43-4.5,8.13-7.47,13.47,11.98,6.95,25.04,12.45,38.55,15.62,1.06-6.31,1.59-9.49,2.65-15.86-11.83-3.23-23.05-7.11-33.73-13.23Z"/>
            <path class="cls-3" d="M175.01,241.68c-4.34-3.98-6.47-5.95-10.68-9.84-7.99,9.68-14.45,19.46-20.18,30.63,5,2.38,7.55,3.58,12.76,6.02,4.68-9.76,10.8-18.81,18.1-26.81Z"/>
            <path class="cls-3" d="M233.86,206.52c-1.15-6.25-1.73-9.36-2.88-15.53-13.07,3.46-25.66,9.14-37.18,16.17,2.93,5.21,4.4,7.84,7.38,13.14,10.31-6.22,21.19-10.31,32.67-13.77Z"/>
            <path class="cls-1" d="M156.92,268.49c-5.21-2.44-7.76-3.65-12.76-6.02-5.12,10.93-8.08,22.18-10.29,33.98,5.38.79,8.13,1.18,13.77,1.99,1.58-10.37,4.73-20.49,9.28-29.95Z"/>
            <path class="cls-1" d="M254.26,423.65c-6.39-.56-12.58-1.57-18.54-2.96-1.06,6.37-1.59,9.55-2.65,15.86,6.84,1.68,13.97,2.93,21.35,3.67,7.38.73,14.73.93,22,.6-1.26-6.74-1.88-10.12-3.13-16.89-6.27.36-12.63.28-19.03-.28Z"/>
            <path class="cls-1" d="M201.19,220.29c-2.98-5.3-4.46-7.93-7.38-13.14-10.93,7.33-20.37,15.18-29.47,24.68,4.2,3.89,6.34,5.86,10.68,9.84,7.63-8.36,16.49-15.55,26.18-21.39Z"/>
            <path class="cls-1" d="M175.08,386.25c-4.42,4.09-6.6,6.11-10.91,10.11,9.38,9.56,19.08,17.34,30.35,24.57,2.97-5.35,4.46-8.04,7.47-13.47-9.95-5.7-19.08-12.83-26.91-21.2Z"/>
            <path class="cls-1" d="M340.48,226.91c5.55-5.58,8.34-8.4,13.97-14.07-11.43-8.99-24.85-15.58-38.58-20.2-3.4,6.54-5.09,9.81-8.47,16.32,12.09,4.73,22.54,10.36,33.08,17.95Z"/>
            <path class="cls-1" d="M379.36,291.17c8.17-1.51,12.29-2.28,20.59-3.84-3.41-14.9-8.23-28.71-16.16-41.87-7.35,3.97-11,5.93-18.23,9.8,6.42,11.69,10.71,22.95,13.8,35.92Z"/>
            <path class="cls-3" d="M365.55,255.25c7.24-3.87,10.88-5.83,18.23-9.8-7.51-12.58-17.83-23.61-29.33-32.61-5.62,5.67-8.42,8.49-13.97,14.07,9.93,8.57,17.76,17.45,25.07,28.34Z"/>
            <path class="cls-3" d="M307.4,208.96c3.38-6.51,5.07-9.78,8.47-16.32-13.71-4.65-28.38-6.75-42.81-7.04-1.03,6.66-1.55,10-2.59,16.7,12.85.83,24.6,2.93,36.93,6.66Z"/>
            <path class="cls-1" d="M230.99,190.99c1.15,6.18,1.72,9.28,2.88,15.53,5.78-1.52,11.79-2.67,18.01-3.4,6.23-.72,12.44-.99,18.59-.82,1.04-6.7,1.56-10.04,2.59-16.7-7.1-.09-14.26.31-21.41,1.23-7.16.92-14.05,2.34-20.65,4.15Z"/>
            <path class="cls-3" d="M381.37,310.61c.12,6.64-.35,13.18-1.34,19.54,8.21,1.13,12.36,1.7,20.7,2.85,1.23-7.44,1.7-15.43,1.57-22.9-.13-7.45-.87-15.4-2.36-22.77-8.3,1.57-12.42,2.34-20.59,3.84,1.21,6.3,1.9,12.8,2.02,19.44Z"/>
            <path class="cls-3" d="M273.29,423.93c1.25,6.77,1.87,10.14,3.13,16.89,14.8-1.1,29.42-3.34,43.36-8.67-3.68-6.51-5.51-9.76-9.15-16.23-12.42,4.24-24.28,6.76-37.35,8.01Z"/>
            <path class="cls-3" d="M343.38,396.47c5.78,5.41,8.69,8.13,14.54,13.62,11.52-9.89,20.34-21.34,28.15-34.25-7.48-3.65-11.2-5.45-18.57-9.01-6.92,11.29-14.46,20.58-24.12,29.64Z"/>
            <path class="cls-1" d="M310.64,415.92c3.64,6.47,5.47,9.72,9.15,16.23,13.7-5.2,27-12.44,38.14-22.05-5.85-5.49-8.76-8.22-14.54-13.62-10.35,8.12-20.68,14.21-32.75,19.45Z"/>
            <path class="cls-1" d="M367.5,366.83c7.38,3.56,11.09,5.37,18.57,9.01,7.42-13.6,11.76-27.71,14.66-42.84-8.34-1.15-12.48-1.72-20.7-2.85-2.64,13.16-6.55,24.67-12.53,36.68Z"/>
            <path d="M237.08,328.34c-20.54,19.44-41.25,38.69-62,57.9,7.84,8.37,16.97,15.51,26.91,21.2,13.79-24.96,27.44-50,40.91-75.13-2.16-1.05-4.13-2.38-5.82-3.97Z"/>
            <path class="cls-2" d="M257.06,334.51c5.36,29.81,10.74,59.63,16.23,89.42,13.06-1.25,24.93-3.77,37.35-8.01-15.6-27.79-31.08-55.64-46.59-83.48-2.16,1.02-4.51,1.73-6.99,2.07Z"/>
            <path class="cls-2" d="M232.89,322.91c-25.33,12.3-50.76,24.39-76.17,36.52,4.72,9.8,10.93,18.87,18.36,26.82,20.75-19.21,41.47-38.46,62-57.9-1.69-1.59-3.09-3.43-4.19-5.43Z"/>
            <path class="cls-2" d="M242.9,332.32c-13.47,25.14-27.12,50.17-40.91,75.13,10.69,6.12,21.91,10.01,33.73,13.23,4.77-28.73,9.45-57.47,14.05-86.23-2.45-.38-4.76-1.11-6.88-2.13Z"/>
            <path d="M253.41,334.77c-1.24-.01-2.45-.14-3.64-.32-4.6,28.76-9.28,57.5-14.05,86.23,5.96,1.39,12.15,2.4,18.54,2.96,6.39.56,12.75.64,19.03.28-5.48-29.79-10.86-59.6-16.23-89.42-1.19.17-2.41.27-3.65.26Z"/>
            <path d="M230.68,316.58c-27.7,4.38-55.42,8.64-83.14,12.86,1.51,10.39,4.63,20.53,9.18,30,25.41-12.12,50.84-24.22,76.17-36.52-1.07-1.96-1.82-4.09-2.21-6.34Z"/>
            <path class="cls-2" d="M236.82,298.02c-20.61-18.77-41.26-37.5-61.81-56.33-7.29,8-13.41,17.05-18.1,26.81,25.22,11.8,50.52,23.41,75.82,35.04,1.06-2.03,2.43-3.89,4.09-5.52Z"/>
            <path d="M242.54,293.91c-13.75-24.56-27.55-49.09-41.35-73.62-9.69,5.84-18.55,13.04-26.18,21.39,20.55,18.84,41.2,37.56,61.81,56.33,1.66-1.63,3.59-3.01,5.72-4.11Z"/>
            <path class="cls-2" d="M230.35,313.25c0-1.14.1-2.24.27-3.33-27.67-3.75-55.34-7.54-82.98-11.48-.77,5.06-1.19,10.23-1.21,15.49-.02,5.27.36,10.43,1.1,15.5,27.72-4.22,55.44-8.48,83.14-12.86-.19-1.09-.32-2.19-.33-3.33Z"/>
            <path d="M232.73,303.54c-25.29-11.64-50.6-23.24-75.82-35.04-4.54,9.46-7.7,19.57-9.28,29.95,27.65,3.93,55.31,7.72,82.98,11.48.35-2.25,1.07-4.4,2.11-6.38Z"/>
            <path class="cls-2" d="M242.54,293.91c2.09-1.08,4.37-1.86,6.8-2.3-5.11-28.37-10.26-56.74-15.48-85.09-11.48,3.46-22.36,7.55-32.67,13.77,13.8,24.53,27.61,49.06,41.35,73.62Z"/>
            <path class="cls-2" d="M263.6,293.23c14.7-28.04,29.24-56.15,43.8-84.26-12.33-3.73-24.08-5.83-36.93-6.66-4.6,29.69-9.21,59.38-13.86,89.05,2.47.28,4.82.91,7,1.87Z"/>
            <path d="M269.65,297.08c23.82-23.18,47.39-46.61,70.83-70.17-10.54-7.59-20.99-13.22-33.08-17.95-14.56,28.11-29.1,56.23-43.8,84.26,2.23.98,4.28,2.27,6.05,3.85Z"/>
            <path d="M252.96,291.19c1.24-.04,2.45.03,3.64.17,4.66-29.68,9.26-59.37,13.86-89.05-6.15-.17-12.36.1-18.59.82-6.23.72-12.24,1.88-18.01,3.4,5.22,28.35,10.37,56.72,15.48,85.09,1.18-.21,2.38-.37,3.61-.42Z"/>
            <path d="M264.05,332.44c15.51,27.84,30.99,55.69,46.59,83.48,12.07-5.24,22.39-11.33,32.75-19.45-24.36-22.78-48.8-45.48-73.35-68.06-1.74,1.64-3.77,2.99-5.98,4.04Z"/>
            <path class="cls-2" d="M274.1,302.58c30.68-15.4,61.16-31.19,91.45-47.33-7.3-10.89-15.14-19.77-25.07-28.34-23.44,23.56-47.01,46.99-70.83,70.17,1.78,1.58,3.27,3.44,4.45,5.5Z"/>
            <path class="cls-2" d="M276.86,312.63c.02,1.19-.1,2.35-.28,3.49,34.49,4.65,68.98,9.3,103.46,14.03.99-6.36,1.46-12.9,1.34-19.54-.12-6.64-.81-13.14-2.02-19.44-34.24,6.29-68.53,12.27-102.87,17.98.21,1.13.35,2.29.37,3.48Z"/>
            <path d="M274.35,322.76c31.15,14.49,62.21,29.15,93.15,44.06,5.99-12.01,9.89-23.52,12.53-36.68-34.48-4.72-68.97-9.38-103.46-14.03-.37,2.36-1.13,4.6-2.23,6.65Z"/>
            <path d="M276.49,309.15c34.34-5.71,68.63-11.7,102.87-17.98-3.09-12.97-7.39-24.23-13.8-35.92-30.3,16.14-60.77,31.93-91.45,47.33,1.15,2.01,1.96,4.23,2.39,6.57Z"/>
            <path class="cls-2" d="M270.03,328.4c24.55,22.58,48.99,45.28,73.35,68.06,9.66-9.06,17.19-18.36,24.12-29.64-30.95-14.91-62.01-29.57-93.15-44.06-1.12,2.1-2.58,4-4.32,5.64Z"/>
            <path class="cls-3" d="M276.49,309.15c-.43-2.35-1.24-4.56-2.39-6.57-1.17-2.06-2.67-3.92-4.45-5.5-1.78-1.58-3.83-2.87-6.05-3.85-2.18-.96-4.53-1.59-7-1.87-1.19-.13-2.4-.21-3.64-.17-1.24.04-2.44.2-3.61.42-2.43.44-4.72,1.23-6.8,2.3-2.13,1.1-4.07,2.48-5.72,4.11-1.66,1.63-3.03,3.49-4.09,5.52-1.04,1.98-1.75,4.13-2.11,6.38-.17,1.09-.28,2.2-.27,3.33,0,1.14.14,2.24.33,3.33.39,2.25,1.14,4.38,2.21,6.34,1.1,2,2.5,3.84,4.19,5.43,1.69,1.59,3.66,2.92,5.82,3.97,2.12,1.03,4.43,1.75,6.88,2.13,1.19.18,2.39.31,3.64.32,1.24.01,2.46-.1,3.65-.26,2.47-.35,4.82-1.05,6.99-2.07,2.21-1.05,4.24-2.4,5.98-4.04,1.74-1.64,3.19-3.54,4.32-5.64,1.1-2.05,1.86-4.29,2.23-6.65.18-1.14.29-2.3.28-3.49-.02-1.19-.16-2.34-.37-3.48Z"/>
          </g>
          <path class="cls-1" d="M263.1,312.83c.06,5.14-4.38,9.33-9.81,9.35s-9.81-4.05-9.85-9.09c-.05-5.04,4.24-9.22,9.66-9.34s9.94,3.94,10,9.08Z"/>
          <g>
            <path class="cls-2" d="M234.13,98.54c2.92-2.95,4.38-4.43,7.33-7.37,1.38-1.4,2.48-2.57,3.28-3.51.8-.94,1.38-1.78,1.73-2.52.35-.73.52-1.49.5-2.26-.02-1.01-.38-1.79-1.07-2.34-.69-.55-1.81-.69-3.37-.41-.96.17-1.76.49-2.41.97-.66.48-1.16,1.09-1.5,1.83-.35.74-.52,1.59-.53,2.54-1.71.3-2.56.44-4.25.74.01-1.8.4-3.34,1.17-4.63.77-1.29,1.81-2.32,3.13-3.11,1.32-.79,2.78-1.32,4.39-1.6,1.86-.32,3.46-.31,4.81.03,1.34.35,2.38.96,3.11,1.84.73.89,1.11,1.99,1.14,3.33.02.97-.16,1.95-.55,2.94-.39.99-1.07,2.09-2.05,3.31-.98,1.22-2.32,2.65-4.01,4.3-1.8,1.76-2.7,2.64-4.5,4.39,4.79-.83,7.21-1.25,12.1-2.1.03,1.3.04,1.95.07,3.26-7.51,1.3-11.2,1.94-18.48,3.2-.02-1.13-.03-1.7-.06-2.82Z"/>
            <path class="cls-2" d="M256.79,85.95c-.04-1.69.07-3.27.35-4.73.27-1.46.78-2.77,1.53-3.93.75-1.15,1.78-2.13,3.08-2.93,1.31-.8,2.95-1.37,4.94-1.72,1.99-.35,3.66-.36,5.01-.03,1.35.33,2.44.93,3.26,1.81.82.88,1.42,1.99,1.8,3.34.37,1.35.58,2.87.63,4.56.05,1.71-.08,3.32-.37,4.82-.29,1.5-.83,2.84-1.6,4.01-.77,1.17-1.82,2.16-3.14,2.97-1.32.81-2.98,1.38-4.98,1.73-2,.35-3.66.35-5,0-1.34-.34-2.41-.96-3.21-1.85-.8-.89-1.37-2.04-1.72-3.42-.34-1.38-.54-2.93-.58-4.65ZM272.53,83.19c-.03-1.11-.1-2.14-.22-3.11-.12-.97-.37-1.81-.75-2.53-.38-.72-.96-1.23-1.73-1.54-.78-.31-1.79-.35-3.05-.13-1.31.23-2.32.63-3.04,1.19-.72.57-1.25,1.27-1.59,2.12-.34.85-.55,1.77-.63,2.77-.08,1-.1,2.05-.08,3.16.03,1.17.11,2.24.24,3.21.13.97.39,1.82.77,2.53.38.71.95,1.22,1.69,1.53.74.31,1.77.35,3.08.12,1.26-.22,2.27-.62,3.02-1.19.75-.57,1.3-1.28,1.64-2.12.34-.84.54-1.76.6-2.77.07-1.01.08-2.1.05-3.27Z"/>
          </g>
          <path class="cls-2" d="M316.39,75.82c-1.59.28-2.38.42-3.96.7-.04-1.29-.06-1.94-.1-3.22,3.56-.63,5.35-.95,8.95-1.59.26,7.73.51,15.47.74,23.21-2.01.35-3.01.52-5,.87-.24-8.12-.36-12.12-.62-19.97Z"/>
          <g>
            <path class="cls-2" d="M394.52,93.68c-1.73.3-2.6.45-4.32.75-.04-1.4-.07-2.09-.11-3.48,3.89-.68,5.84-1.02,9.77-1.71.27,8.39.53,16.78.77,25.18-2.19.36-3.27.54-5.45.9-.25-8.82-.39-13.15-.66-21.64Z"/>
            <path class="cls-2" d="M411.77,99.04c-1.45-.28-2.63-.8-3.54-1.55-.91-.75-1.39-1.81-1.43-3.19-.04-1.19.34-2.34,1.13-3.47.79-1.12,2.01-2.12,3.66-3.01,1.65-.88,3.74-1.54,6.28-1.99,2.54-.45,4.67-.52,6.38-.23,1.71.29,3,.86,3.87,1.7.87.84,1.32,1.86,1.36,3.06.04,1.32-.39,2.54-1.3,3.67-.9,1.13-2.04,2.05-3.42,2.77,1.75.21,3.17.76,4.27,1.67,1.09.9,1.66,2.1,1.7,3.6.05,1.57-.46,3.01-1.5,4.32-1.04,1.3-2.48,2.42-4.31,3.35-1.83.93-3.92,1.58-6.27,1.97s-4.45.43-6.31.12c-1.86-.31-3.31-.94-4.37-1.88-1.06-.94-1.61-2.19-1.65-3.75-.04-1.48.43-2.85,1.42-4.11.99-1.26,2.34-2.27,4.04-3.05ZM418.3,99.78c-1.29.22-2.41.57-3.37,1.05-.96.48-1.7,1.07-2.23,1.77-.53.7-.78,1.55-.75,2.54.04,1.24.6,2.12,1.7,2.64,1.1.52,2.73.6,4.89.24,2.1-.35,3.72-.97,4.85-1.87,1.13-.89,1.68-1.97,1.64-3.22-.03-.95-.33-1.69-.92-2.22-.59-.52-1.37-.87-2.36-1.03-.98-.16-2.14-.13-3.45.1ZM423.75,91.87c-.04-1.24-.56-2.05-1.55-2.41-.99-.37-2.4-.39-4.22-.07-1.79.31-3.17.82-4.16,1.51-.98.7-1.45,1.68-1.41,2.97.03,1.1.57,1.9,1.6,2.41,1.04.51,2.43.61,4.19.31,1.72-.3,3.09-.88,4.09-1.76,1-.87,1.49-1.86,1.45-2.97Z"/>
          </g>
          <path class="cls-2" d="M481.83,149.66c-7.08,1.02-10.59,1.52-17.59,2.52-.03-1.38-.04-2.07-.07-3.45,5.31-7,10.64-13.98,15.98-20.95,2.83-.44,4.25-.66,7.1-1.11.15,7.15.22,10.78.36,18.12,1.8-.26,2.7-.39,4.5-.66.03,1.61.04,2.42.07,4.04-1.8.26-2.7.39-4.49.65.05,2.56.07,3.84.12,6.42-2.35.33-3.52.49-5.85.82-.05-2.57-.07-3.85-.12-6.39ZM481.95,145.62c-.1-5.32-.16-7.95-.26-13.18-4.38,5.91-6.56,8.87-10.9,14.8,4.45-.65,6.68-.97,11.17-1.63Z"/>
          <g>
            <path class="cls-2" d="M505.14,203.02c-1.86.2-2.79.31-4.65.51-.02-1.74-.04-2.61-.06-4.34,4.19-.47,6.29-.71,10.5-1.18.13,10.4.25,20.79.36,31.19-2.34.21-3.5.32-5.83.53-.11-8.9-.22-17.8-.33-26.71Z"/>
            <path class="cls-2" d="M517.65,205.78c.11-1.91.68-3.59,1.72-5.02,1.03-1.43,2.42-2.59,4.16-3.47,1.74-.88,3.73-1.45,5.97-1.71,2.44-.28,4.51-.11,6.21.52,1.7.63,2.99,1.57,3.88,2.82.88,1.25,1.33,2.68,1.34,4.28,0,1.18-.25,2.27-.78,3.28-.53,1.01-1.23,1.87-2.09,2.58-.87.71-1.77,1.27-2.7,1.67,0,.07,0,.11,0,.18,1.27.2,2.38.58,3.32,1.13.94.55,1.68,1.29,2.2,2.21.53.92.79,2.08.8,3.48.01,1.77-.43,3.37-1.32,4.8-.89,1.43-2.22,2.6-3.96,3.52-1.75.91-3.89,1.48-6.41,1.72-2.46.23-4.62.09-6.46-.4-1.85-.49-3.32-1.41-4.41-2.76-1.09-1.34-1.7-3.16-1.82-5.46,2.29-.23,3.43-.34,5.72-.57.12,1.74.7,2.99,1.76,3.76s2.75,1.05,5.08.83c1.4-.13,2.52-.42,3.37-.87.85-.45,1.46-1.04,1.84-1.78.38-.74.56-1.62.56-2.65-.01-1.88-.7-3.08-2.06-3.59-1.36-.51-3.49-.62-6.39-.32-.54.06-.81.08-1.35.14-.02-1.77-.03-2.65-.04-4.41.56-.06.84-.09,1.4-.15,1.63-.2,3.02-.51,4.17-.91,1.15-.41,2.02-.95,2.62-1.61.6-.67.89-1.5.88-2.49-.01-1.41-.46-2.56-1.34-3.44-.88-.88-2.27-1.21-4.18-.99-1.27.14-2.33.47-3.17.98-.85.51-1.5,1.12-1.96,1.83-.46.71-.74,1.45-.83,2.24-2.3.25-3.44.37-5.73.62Z"/>
          </g>
          <path class="cls-2" d="M546.27,315.27c-2.48.08-4.69-.36-6.64-1.3-1.95-.94-3.49-2.26-4.62-3.97-1.13-1.71-1.7-3.67-1.71-5.88-.01-1.78.37-3.57,1.16-5.4.78-1.83,1.94-3.71,3.49-5.66,3.51-4.44,5.27-6.67,8.8-11.16,2.59-.14,3.89-.22,6.48-.36-4.16,5.21-6.23,7.8-10.36,12.94-2.51,2.52-3.76,3.78-6.27,6.28.61-2.3,1.84-4.19,3.69-5.65,1.84-1.46,4.09-2.26,6.75-2.38,2.25-.11,4.3.25,6.13,1.08,1.83.83,3.27,2.05,4.32,3.65,1.05,1.6,1.58,3.52,1.58,5.74,0,2.22-.57,4.24-1.71,6.04-1.14,1.8-2.68,3.24-4.61,4.32-1.93,1.08-4.09,1.65-6.47,1.72ZM539.34,303.98c0,1.38.27,2.57.78,3.59.52,1.01,1.29,1.77,2.34,2.27,1.04.5,2.31.72,3.79.67,1.42-.05,2.64-.36,3.67-.93,1.02-.57,1.8-1.39,2.33-2.45.53-1.06.79-2.29.79-3.68,0-1.39-.27-2.58-.81-3.57-.53-.99-1.32-1.73-2.34-2.22-1.03-.49-2.26-.7-3.68-.64-1.49.07-2.76.39-3.79.97-1.04.58-1.81,1.38-2.32,2.4-.51,1.02-.76,2.22-.75,3.6Z"/>
          <g>
            <path class="cls-2" d="M509.69,377.9c-1.82-.03-2.74-.05-4.56-.08-.02-1.79-.02-2.69-.04-4.48,4.11.06,6.17.09,10.29.15.08,10.58.16,21.15.24,31.73-2.29-.08-3.43-.13-5.71-.21-.07-9.03-.15-18.07-.22-27.1Z"/>
            <path class="cls-2" d="M521.97,389.57c-.02-2.37.16-4.55.54-6.53.38-1.99,1.05-3.7,2.01-5.14.97-1.44,2.28-2.55,3.93-3.34,1.65-.79,3.72-1.17,6.2-1.14,2.48.03,4.55.46,6.2,1.31,1.65.84,2.97,2.01,3.95,3.49.98,1.49,1.68,3.25,2.1,5.29.41,2.04.62,4.27.63,6.68,0,2.44-.19,4.68-.59,6.7-.4,2.02-1.09,3.74-2.06,5.15-.97,1.41-2.28,2.48-3.91,3.22-1.64.74-3.69,1.06-6.16.97-2.47-.09-4.53-.56-6.18-1.4-1.66-.85-2.98-1.99-3.96-3.45-.98-1.45-1.67-3.18-2.07-5.19-.4-2.01-.61-4.21-.63-6.61ZM541.57,390.05c0-1.57-.07-3.06-.19-4.47-.12-1.41-.4-2.68-.85-3.81-.44-1.13-1.14-2.03-2.09-2.67-.95-.65-2.21-.98-3.77-1.01-1.63-.03-2.9.27-3.81.88-.91.61-1.59,1.48-2.04,2.59-.45,1.11-.73,2.36-.86,3.75-.12,1.39-.18,2.86-.17,4.41,0,1.65.08,3.16.22,4.55.14,1.39.44,2.63.9,3.72.46,1.09,1.15,1.96,2.06,2.59.91.64,2.18.98,3.8,1.04,1.56.05,2.81-.21,3.75-.8.94-.58,1.63-1.41,2.06-2.48.44-1.07.71-2.31.82-3.7.11-1.39.16-2.92.15-4.59Z"/>
          </g>
          <g>
            <path class="cls-2" d="M467.4,457.44c-1.78-.14-2.67-.21-4.46-.35-.02-1.65-.03-2.47-.06-4.13,4.02.31,6.03.46,10.06.77.13,9.66.26,19.32.39,28.98-2.24-.21-3.36-.31-5.59-.53-.12-8.25-.23-16.5-.35-24.75Z"/>
            <path class="cls-2" d="M501.12,455.83c.02,1.69.03,2.54.04,4.23-6.19-.47-9.28-.71-15.44-1.19.04,3.14.06,4.7.09,7.82.63-.7,1.5-1.23,2.63-1.59,1.12-.36,2.47-.47,4.03-.35,2.07.17,3.81.62,5.22,1.37,1.41.75,2.56,1.65,3.45,2.71.89,1.06,1.54,2.18,1.95,3.36.41,1.18.62,2.28.63,3.29.02,1.99-.44,3.72-1.38,5.19-.94,1.47-2.31,2.57-4.12,3.3-1.8.73-3.95.98-6.42.75-2.41-.22-4.47-.77-6.18-1.64-1.71-.87-3.07-1.96-4.08-3.27-1.01-1.31-1.67-2.77-1.98-4.4,2.19.19,3.28.29,5.47.48.36,1.27,1.12,2.32,2.27,3.16,1.15.83,2.63,1.33,4.44,1.49,1.43.13,2.61-.01,3.55-.43.93-.41,1.61-1.05,2.03-1.9.42-.85.62-1.89.61-3.12-.02-1.78-.58-3.24-1.67-4.35-1.09-1.11-2.65-1.75-4.65-1.92-1.53-.13-2.81.12-3.85.72-1.04.61-1.76,1.45-2.16,2.52-2.15-.18-3.23-.28-5.38-.46-.09-6.88-.13-10.36-.22-17.37,8.42.63,12.65.95,21.12,1.57Z"/>
          </g>
          <path class="cls-2" d="M403.79,530.24c3.61-2.25,5.42-3.38,9.04-5.68,1.7-1.09,3.04-2.04,4.03-2.84.98-.8,1.7-1.55,2.13-2.27.43-.72.64-1.53.62-2.43-.02-1.17-.45-2.2-1.28-3.08-.83-.87-2.21-1.42-4.12-1.64-1.17-.14-2.16-.04-2.97.29-.81.33-1.43.86-1.86,1.6-.43.73-.65,1.65-.66,2.73-2.1-.25-3.15-.38-5.25-.63.02-2.05.51-3.69,1.47-4.91.96-1.22,2.25-2.07,3.88-2.53,1.63-.46,3.44-.58,5.41-.36,2.28.26,4.24.83,5.88,1.7,1.64.87,2.89,1.95,3.77,3.23.87,1.28,1.33,2.71,1.35,4.26.02,1.13-.21,2.19-.68,3.19-.48,1-1.31,2.02-2.51,3.06-1.2,1.04-2.83,2.2-4.9,3.46-2.21,1.35-3.31,2.01-5.51,3.34,5.87.73,8.82,1.1,14.73,1.83.03,1.45.04,2.18.07,3.62-7.52-.94-15.05-1.88-22.57-2.83-.03-1.24-.04-1.87-.06-3.12Z"/>
          <g>
            <path class="cls-2" d="M319.46,531.19c-1.63-.22-2.45-.33-4.08-.54-.02-1.38-.04-2.07-.06-3.45,3.67.49,5.51.73,9.21,1.22.15,8.03.3,16.07.46,24.1-2.06-.28-3.09-.42-5.15-.7-.16-8.13-.24-12.26-.39-20.63Z"/>
            <path class="cls-2" d="M350.74,531.86c.02,1.24.04,1.86.06,3.1-3.89,6.52-7.83,13.01-11.82,19.47-2.12-.29-3.18-.43-5.29-.72,4.01-6.32,7.97-12.67,11.87-19.05-6.48-.85-9.7-1.28-16.1-2.13-.03-1.38-.04-2.08-.07-3.46,8.47,1.12,12.74,1.68,21.35,2.8Z"/>
          </g>
          <path class="cls-2" d="M248.14,533.7c.09-1.43.55-2.59,1.38-3.48.83-.89,1.95-1.5,3.35-1.83,1.4-.33,3.01-.36,4.82-.11,1.97.28,3.66.82,5.04,1.64,1.38.82,2.44,1.79,3.16,2.91.72,1.12,1.1,2.28,1.11,3.48.01.88-.2,1.65-.63,2.3-.43.65-1,1.16-1.7,1.52-.7.36-1.44.6-2.2.72,0,.05,0,.08,0,.13,1.04.39,1.95.89,2.72,1.48.77.59,1.38,1.28,1.81,2.05.44.78.66,1.68.67,2.71.02,1.3-.34,2.39-1.06,3.26-.73.88-1.81,1.49-3.23,1.83-1.43.34-3.18.37-5.24.08-2.01-.28-3.76-.77-5.26-1.47-1.5-.7-2.69-1.65-3.58-2.84-.88-1.19-1.37-2.66-1.47-4.39,1.84.26,2.77.39,4.63.65.1,1.31.57,2.35,1.43,3.12.86.77,2.23,1.28,4.13,1.55,1.14.16,2.06.16,2.75-.02.69-.17,1.19-.49,1.5-.96.31-.47.45-1.09.44-1.85-.02-1.39-.58-2.4-1.69-3.04-1.11-.64-2.84-1.12-5.2-1.45-.44-.06-.66-.09-1.09-.15-.02-1.32-.02-1.98-.04-3.31.45.06.68.1,1.13.16,1.32.16,2.45.2,3.39.12.93-.08,1.64-.32,2.13-.7.48-.38.72-.95.71-1.69-.01-1.06-.38-2.01-1.1-2.85-.72-.84-1.85-1.36-3.39-1.58-1.03-.14-1.88-.1-2.57.12-.68.22-1.21.55-1.58,1-.37.45-.59.96-.67,1.53-1.85-.26-2.78-.39-4.62-.65Z"/>
          <g>
            <path class="cls-2" d="M169.86,510.2c-1.29-.19-1.93-.29-3.21-.48,0-1.34,0-2.01,0-3.34,2.88.43,4.34.65,7.28,1.09,0,7.88,0,15.76,0,23.64-1.64-.25-2.46-.37-4.08-.61,0-8.11,0-12.16,0-20.28Z"/>
            <path class="cls-2" d="M187.17,509.18c1.79.26,3.39.86,4.8,1.79,1.41.93,2.54,2.09,3.37,3.47.83,1.39,1.25,2.88,1.26,4.48,0,1.29-.27,2.54-.83,3.75-.56,1.21-1.41,2.41-2.57,3.59-2.59,2.7-3.88,4.04-6.44,6.74-1.86-.28-2.79-.41-4.64-.69,2.97-3.1,4.47-4.65,7.49-7.76,1.83-1.46,2.74-2.19,4.59-3.65-.46,1.58-1.37,2.76-2.73,3.55-1.36.79-2.99,1.04-4.88.77-1.65-.24-3.11-.79-4.4-1.63-1.29-.84-2.3-1.91-3.04-3.19-.74-1.28-1.11-2.71-1.11-4.29,0-1.6.4-2.96,1.21-4.08.81-1.12,1.89-1.94,3.26-2.46,1.37-.52,2.92-.65,4.66-.4ZM192.2,518.21c0-1.02-.2-1.92-.6-2.71-.4-.79-.97-1.43-1.72-1.93-.75-.49-1.64-.82-2.69-.97-1.07-.16-1.96-.1-2.68.18-.71.28-1.25.76-1.63,1.43-.38.68-.56,1.52-.56,2.54,0,.97.19,1.85.57,2.64.38.79.92,1.43,1.64,1.91.71.49,1.61.81,2.68.97,1.05.16,1.95.1,2.7-.18.74-.27,1.32-.75,1.71-1.42.4-.67.59-1.5.59-2.47Z"/>
          </g>
          <path class="cls-2" d="M133.93,472.91c0,1.17,0,1.76-.02,2.94-3.42,7.66-5.1,11.48-8.43,19.16-1.42-.23-2.13-.34-3.53-.57,3.3-7.53,4.98-11.28,8.37-18.78-4.4-.67-6.55-1-10.76-1.66,0-1.31.01-1.97.02-3.28,5.57.86,8.44,1.3,14.34,2.19Z"/>
          <g>
            <path class="cls-2" d="M77.29,418.57c-.84-.12-1.26-.19-2.09-.31.01-1.24.02-1.86.03-3.09,1.87.27,2.82.41,4.76.69-.08,8.78-.12,13.2-.2,22.12-1.08-.18-1.61-.26-2.67-.44.07-7.65.1-11.44.17-18.97Z"/>
            <path class="cls-2" d="M88.85,439.64c-1.22-.19-2.29-.7-3.22-1.53-.93-.83-1.65-1.88-2.18-3.16-.52-1.27-.77-2.66-.76-4.16.01-1.21.21-2.39.59-3.55.39-1.16.95-2.32,1.71-3.47,1.72-2.64,2.59-3.96,4.35-6.61,1.27.17,1.91.26,3.21.44-2.11,3.06-3.16,4.58-5.2,7.63-1.24,1.45-1.85,2.17-3.07,3.61.31-1.5.91-2.65,1.82-3.45.9-.8,2-1.11,3.3-.92,1.11.16,2.12.61,3.03,1.36.91.75,1.63,1.71,2.15,2.9.52,1.19.78,2.53.76,4.02-.01,1.5-.32,2.8-.91,3.9-.59,1.1-1.38,1.92-2.36,2.46-.98.54-2.05.71-3.22.53ZM85.57,431.29c0,.93.11,1.77.35,2.51.24.74.61,1.33,1.11,1.77.5.44,1.12.72,1.85.83.7.11,1.31.02,1.82-.27.51-.29.91-.76,1.18-1.43.27-.67.41-1.47.42-2.41,0-.94-.12-1.77-.38-2.49-.26-.72-.64-1.3-1.15-1.73-.51-.44-1.11-.7-1.81-.81-.73-.11-1.35-.02-1.86.27-.51.29-.89.75-1.14,1.39-.25.64-.38,1.43-.39,2.36Z"/>
          </g>
          <path class="cls-2" d="M65.32,372.03c-.61-.5-1.1-1.14-1.48-1.93-.37-.78-.55-1.75-.54-2.9,0-.99.19-1.88.54-2.67.36-.79.89-1.4,1.62-1.84.72-.43,1.64-.61,2.76-.51,1.12.09,2.06.42,2.82.98.75.56,1.32,1.28,1.7,2.14.37.87.56,1.8.55,2.81,0,1.11-.23,2.05-.66,2.81-.43.77-.96,1.32-1.59,1.66.78.5,1.4,1.22,1.88,2.17.47.95.71,2.04.7,3.27-.01,1.3-.27,2.38-.76,3.25-.5.87-1.17,1.51-2,1.92-.83.41-1.77.56-2.8.44-1.03-.12-1.94-.48-2.73-1.07-.79-.59-1.39-1.37-1.82-2.33-.43-.96-.64-2.08-.63-3.35,0-1.22.23-2.25.67-3.1.44-.85,1.03-1.44,1.77-1.76ZM68.13,373.85c-.57-.06-1.06.02-1.48.24-.42.22-.75.56-.99,1.04-.24.48-.36,1.12-.37,1.94,0,1.02.22,1.84.68,2.47.46.62,1.16.99,2.11,1.09.92.1,1.65-.11,2.17-.62.52-.52.78-1.29.79-2.32,0-.79-.12-1.45-.37-1.99-.25-.54-.59-.97-1.02-1.28-.43-.32-.94-.5-1.52-.56ZM70.69,368.31c0-1.04-.21-1.81-.64-2.3-.43-.49-1.05-.77-1.85-.84-.79-.07-1.4.1-1.83.49-.44.4-.66,1.13-.67,2.21,0,.92.21,1.68.64,2.29.44.61,1.04.96,1.81,1.03.76.07,1.37-.16,1.83-.7.46-.54.7-1.27.71-2.19Z"/>
          <g>
            <path class="cls-2" d="M54.56,304.85c-.68,0-1.02.01-1.69.02,0-1.13,0-1.7.01-2.83,1.51-.03,2.28-.04,3.85-.07-.04,8.07-.06,12.1-.1,20.18-.87-.02-1.3-.03-2.15-.04.03-6.91.04-10.36.07-17.26Z"/>
            <path class="cls-2" d="M60.61,304.78c-.73,0-1.09.01-1.81.02,0-1.15,0-1.72.02-2.86,1.61-.03,2.44-.04,4.12-.07-.05,8.16-.08,12.24-.13,20.41-.93-.02-1.39-.03-2.31-.04.04-6.99.06-10.48.1-17.45Z"/>
          </g>
          <g>
            <path class="cls-2" d="M60.35,248.05c-.73.08-1.1.12-1.82.19,0-1.16,0-1.75.01-2.91,1.63-.18,2.46-.27,4.16-.46-.04,8.29-.06,12.41-.11,20.63-.94.07-1.4.11-2.32.18.04-7.03.05-10.55.09-17.63Z"/>
            <path class="cls-2" d="M72.38,260.13c-3.12.26-4.63.39-7.55.63,0-1,0-1.5.01-2.51,2.76-5.67,4.18-8.55,7.11-14.37,1.24-.13,1.87-.2,3.15-.33-.04,5.39-.05,8.07-.09,13.43.8-.07,1.21-.1,2.02-.17,0,1.18-.01,1.77-.02,2.94-.81.07-1.22.1-2.02.17-.01,1.86-.02,2.78-.03,4.64-1.05.08-1.57.12-2.6.2.01-1.85.02-2.77.03-4.62ZM72.49,257.2c.03-3.88.04-5.83.07-9.72-2,4.1-2.99,6.12-4.91,10.15,1.9-.17,2.87-.25,4.84-.43Z"/>
          </g>
          <path class="cls-2" d="M91.52,185.63c1.22-.19,2.32-.02,3.29.5.97.52,1.74,1.33,2.3,2.42.56,1.09.85,2.39.84,3.88,0,1.2-.21,2.43-.6,3.69-.39,1.26-1,2.58-1.8,3.95-1.81,3.12-2.7,4.67-4.47,7.75-1.27.18-1.9.26-3.15.44,2.04-3.55,3.07-5.33,5.16-8.93,1.26-1.79,1.9-2.68,3.18-4.48-.33,1.58-.96,2.89-1.91,3.95-.94,1.06-2.06,1.67-3.35,1.86-1.12.16-2.12,0-2.98-.47-.87-.48-1.55-1.22-2.04-2.22-.49-1.01-.73-2.24-.72-3.69,0-1.48.29-2.83.84-4.07.55-1.23,1.29-2.26,2.22-3.07.93-.81,1.99-1.32,3.18-1.5ZM94.91,192.82c0-.94-.13-1.74-.4-2.38-.27-.64-.66-1.1-1.17-1.38-.51-.28-1.12-.36-1.84-.25-.73.11-1.34.38-1.83.81-.49.43-.86,1.01-1.12,1.72-.26.72-.39,1.55-.4,2.49,0,.9.12,1.67.37,2.3.25.64.62,1.1,1.1,1.38.48.28,1.09.37,1.82.26.72-.11,1.33-.37,1.85-.8.51-.43.91-1.01,1.19-1.73.28-.72.42-1.53.42-2.43Z"/>
          <g>
            <path class="cls-2" d="M113.19,141.67c-1.01.17-1.52.26-2.52.43,0-1.28,0-1.93,0-3.21,2.26-.39,3.41-.58,5.73-.98-.01,7.55-.03,15.11-.05,22.66-1.29.21-1.94.32-3.21.53.02-7.74.03-11.62.05-19.43Z"/>
            <path class="cls-2" d="M119.81,157.23c2.22-2.77,3.34-4.16,5.59-6.94,1.06-1.32,1.9-2.44,2.52-3.34.62-.9,1.07-1.72,1.35-2.43.28-.72.42-1.47.42-2.25,0-1.02-.25-1.82-.76-2.41-.51-.59-1.35-.78-2.53-.58-.72.12-1.33.41-1.83.86-.5.45-.88,1.04-1.16,1.77-.27.73-.42,1.57-.44,2.53-1.28.22-1.92.32-3.18.53.04-1.8.36-3.33.95-4.59.59-1.26,1.39-2.26,2.39-2.99,1-.73,2.11-1.2,3.32-1.41,1.4-.24,2.61-.15,3.62.27,1.01.42,1.78,1.09,2.31,2.02.53.93.8,2.07.8,3.42,0,.98-.16,1.95-.47,2.93-.31.97-.85,2.04-1.61,3.21-.76,1.17-1.8,2.53-3.1,4.08-1.39,1.66-2.08,2.48-3.45,4.13,3.6-.59,5.43-.89,9.14-1.49,0,1.29,0,1.93,0,3.22-5.71.92-8.49,1.37-13.92,2.26,0-1.11,0-1.67,0-2.78Z"/>
          </g>
          <path class="cls-2" d="M191.09,94.84c.02,1.29.02,1.93.04,3.22-4.4.76-6.57,1.13-10.86,1.87.03,2.42.04,3.64.06,6.07.44-.66,1.05-1.24,1.83-1.72.79-.48,1.73-.82,2.82-1.01,1.46-.25,2.69-.22,3.69.1s1.82.81,2.45,1.46c.63.66,1.1,1.4,1.4,2.25.3.85.45,1.66.46,2.45.02,1.55-.31,3-.98,4.34-.67,1.34-1.65,2.48-2.94,3.41-1.28.93-2.81,1.55-4.55,1.84-1.7.29-3.15.25-4.34-.12-1.19-.37-2.14-.98-2.84-1.83-.7-.85-1.16-1.9-1.36-3.13,1.51-.26,2.27-.39,3.8-.65.25.94.78,1.63,1.59,2.08.81.44,1.85.56,3.12.34,1.01-.17,1.84-.51,2.51-1.02.66-.51,1.14-1.14,1.44-1.89.3-.75.44-1.61.43-2.57-.02-1.4-.41-2.43-1.19-3.09-.78-.66-1.87-.87-3.28-.63-1.07.18-1.97.61-2.7,1.28-.73.67-1.23,1.47-1.51,2.39-1.5.26-2.25.39-3.74.64-.05-5.43-.07-8.14-.13-13.54,5.81-.99,8.76-1.5,14.78-2.54Z"/>
        </g>
      </g>
    </g>
  </g>
</svg>