<?xml version="1.0" encoding="UTF-8"?>
<svg id="Ebene_2" data-name="Ebene 2" xmlns="http://www.w3.org/2000/svg" viewBox="0 0 153.5 153.5">
  <defs>
    <style>
      .cls-1 {
        fill: #fff;
      }

      .cls-1, .cls-2 {
        stroke-width: 0px;
      }

      .cls-2 {
        fill: #4e7eb3;
      }
    </style>
  </defs>
  <g id="Memory">
    <g>
      <g>
        <rect class="cls-1" x="1" y="1" width="151.5" height="151.5" rx="5.37" ry="5.37"/>
        <path class="cls-2" d="m147.13,2c2.41,0,4.37,1.96,4.37,4.37v140.76c0,2.41-1.96,4.37-4.37,4.37H6.37c-2.41,0-4.37-1.96-4.37-4.37V6.37c0-2.41,1.96-4.37,4.37-4.37h140.76m0-2H6.37C2.85,0,0,2.85,0,6.37v140.76c0,3.52,2.85,6.37,6.37,6.37h140.76c3.52,0,6.37-2.85,6.37-6.37V6.37c0-3.52-2.85-6.37-6.37-6.37h0Z"/>
      </g>
      <g>
        <path class="cls-2" d="m98.56,76.94h-11.63c-.04-.13-.06-.28-.06-.56,0-4.1,2.74-6.31,6.95-6.31,4.51,0,7.21,2.44,7.21,6.33s-2.69,6.28-7.38,6.28c-2.74,0-4.77-.66-6.37-2.09l1.45-1.56c1.28,1.13,2.63,1.69,4.79,1.69,2.95,0,4.81-1.24,5.04-3.78Zm-4.77-4.9c-2.31,0-3.98.96-4.51,3.1l9.17.02c-.47-2.07-2.2-3.12-4.66-3.12Z"/>
        <path class="cls-2" d="m70.56,70.53h2.5v2.09c1.09-1.58,3.01-2.52,5.41-2.52,3.87,0,6.33,2.44,6.33,6.22s-2.46,6.18-6.33,6.18c-2.22,0-4.32-.94-5.41-2.5v1.09c0,2.54,1.73,3.78,4.92,3.78,1.99,0,3.61-.56,4.72-1.28l.9,1.86c-1.33.9-3.78,1.5-5.88,1.5-3.7,0-7.16-1.73-7.16-6.22v-10.2Zm7.25,9.94c2.91,0,4.53-1.52,4.53-4.15s-1.62-4.17-4.53-4.17c-1.97,0-3.59.71-4.75,2.52v3.27c1.15,1.82,2.78,2.52,4.75,2.52Z"/>
        <path class="cls-2" d="m53.31,70.53h2.5v2.09c1.09-1.58,3.01-2.52,5.41-2.52,3.87,0,6.33,2.44,6.33,6.22s-2.46,6.18-6.33,6.18c-2.22,0-4.32-.94-5.41-2.5v1.09c0,2.54,1.73,3.78,4.92,3.78,1.99,0,3.61-.56,4.72-1.28l.9,1.86c-1.33.9-3.78,1.5-5.88,1.5-3.7,0-7.16-1.73-7.16-6.22v-10.2Zm7.25,9.94c2.91,0,4.53-1.52,4.53-4.15s-1.62-4.17-4.53-4.17c-1.97,0-3.59.71-4.75,2.52v3.27c1.15,1.82,2.78,2.52,4.75,2.52Z"/>
      </g>
    </g>
  </g>
</svg>