<?xml version="1.0" encoding="UTF-8"?>
<svg id="Ebene_2" data-name="Ebene 2" xmlns="http://www.w3.org/2000/svg" viewBox="0 0 153.5 153.5">
  <defs>
    <style>
      .cls-1 {
        fill: #fff;
      }

      .cls-1, .cls-2 {
        stroke-width: 0px;
      }

      .cls-2 {
        fill: #4e7eb3;
      }
    </style>
  </defs>
  <g id="Memory">
    <g>
      <g>
        <rect class="cls-1" x="1" y="1" width="151.5" height="151.5" rx="5.37" ry="5.37"/>
        <path class="cls-2" d="m147.13,2c2.41,0,4.37,1.96,4.37,4.37v140.76c0,2.41-1.96,4.37-4.37,4.37H6.37c-2.41,0-4.37-1.96-4.37-4.37V6.37c0-2.41,1.96-4.37,4.37-4.37h140.76m0-2H6.37C2.85,0,0,2.85,0,6.37v140.76c0,3.52,2.85,6.37,6.37,6.37h140.76c3.52,0,6.37-2.85,6.37-6.37V6.37c0-3.52-2.85-6.37-6.37-6.37h0Z"/>
      </g>
      <g>
        <path class="cls-2" d="m94.5,66.42v15.82h-2.48v-15.82h2.48Zm5.28,1.33c-.77,0-1.5.19-2.31.73l-.75-1.56c.94-.6,2.31-.92,3.51-.92,2.33,0,4.23,1.2,4.23,3.89v.64h2.27v1.97h-2.27v9.75h-2.5v-9.75h-5.11v-1.97h5.15v-.96c0-1.33-.92-1.82-2.22-1.82Z"/>
        <path class="cls-2" d="m81.65,82.69c-4.55,0-7.29-2.42-7.29-6.29s2.74-6.33,7.29-6.33,7.29,2.44,7.29,6.33-2.76,6.29-7.29,6.29Zm0-2.1c2.76,0,4.83-1.39,4.83-4.19s-2.07-4.23-4.83-4.23-4.85,1.39-4.85,4.23,2.07,4.19,4.85,4.19Z"/>
        <path class="cls-2" d="m60.73,70.53v7.2c1,1.92,2.69,2.86,4.7,2.86,2.33,0,3.51-1.24,3.51-3.55v-6.52h2.48v6.69c0,3.16-1.77,5.45-5.34,5.45-2.39,0-4.32-1.03-5.34-2.69v2.27h-2.5v-11.71h2.5Z"/>
        <path class="cls-2" d="m51.88,82.24v-6.48c-.79-2.2-2.93-3.29-5.54-3.29v-2.18c2.42,0,4.6,1.03,5.54,2.91v-2.67h2.5v11.71h-2.5Z"/>
      </g>
    </g>
  </g>
</svg>