<?xml version="1.0" encoding="UTF-8"?>
<svg xmlns="http://www.w3.org/2000/svg" viewBox="0 0 1920 1080">
  <defs>
    <style>
      .cls-1 {
        stroke: #ffb382;
        stroke-width: 5px;
      }

      .cls-1, .cls-2, .cls-3, .cls-4, .cls-5, .cls-6, .cls-7, .cls-8, .cls-9 {
        stroke-miterlimit: 10;
      }

      .cls-1, .cls-6 {
        fill: none;
      }

      .cls-10 {
        fill: #efc6a5;
      }

      .cls-10, .cls-11, .cls-12, .cls-13, .cls-14, .cls-15, .cls-16, .cls-17, .cls-18, .cls-19, .cls-20, .cls-21, .cls-22, .cls-23, .cls-24, .cls-25, .cls-26, .cls-27, .cls-28, .cls-29, .cls-30, .cls-31 {
        stroke-width: 0px;
      }

      .cls-11, .cls-5, .cls-7 {
        fill: #7e9c88;
      }

      .cls-12 {
        fill: #6caa1b;
      }

      .cls-2 {
        stroke: #e8d1cb;
      }

      .cls-2, .cls-3, .cls-9 {
        fill: #efe3d8;
      }

      .cls-32 {
        opacity: .48;
      }

      .cls-32, .cls-21 {
        mix-blend-mode: multiply;
      }

      .cls-13 {
        fill: #7a5a0a;
      }

      .cls-33 {
        isolation: isolate;
      }

      .cls-14 {
        fill: #66bc0c;
      }

      .cls-15 {
        fill: #3c5b28;
      }

      .cls-3 {
        stroke: #e6cdc6;
      }

      .cls-16 {
        fill: #f6dfc1;
      }

      .cls-17 {
        fill: #094f2d;
      }

      .cls-4 {
        fill: #fcb29b;
        stroke: #d4624b;
      }

      .cls-18 {
        fill: #d86546;
      }

      .cls-19 {
        fill: #85f1ff;
      }

      .cls-5 {
        stroke: #698b74;
      }

      .cls-20 {
        fill: #fffb14;
      }

      .cls-21 {
        fill: #dae7f1;
      }

      .cls-22, .cls-8 {
        fill: #bad7c5;
      }

      .cls-23 {
        fill: #63ce65;
      }

      .cls-6, .cls-9 {
        stroke: #e6cfc8;
      }

      .cls-24 {
        fill: #4d6957;
      }

      .cls-25, .cls-29 {
        fill: #ba513c;
      }

      .cls-26 {
        fill: #f45bb6;
      }

      .cls-7 {
        stroke: #678a73;
      }

      .cls-27 {
        fill: #7f4a14;
      }

      .cls-8 {
        stroke: #718d76;
      }

      .cls-28 {
        fill: #6a8659;
      }

      .cls-29 {
        opacity: .42;
      }

      .cls-30 {
        fill: #678a73;
      }

      .cls-31 {
        fill: #107343;
      }
    </style>
  </defs>
  <g class="cls-33">
    <g id="Layer_1" data-name="Layer 1">
      <rect class="cls-19" x="-10.78" y="-25.05" width="1940" height="1114"/>
    </g>
    <g id="Layer_13" data-name="Layer 13">
      <path class="cls-17" d="m306.65,878.6c-41.16,6.68-83.46-32.73-85.1-79.28-1.64-46.55,37.76-89.57,79.26-86.54-42.26-10.59-68.09-70.29-49.31-114.01,18.78-43.72,76.55-58.37,110.3-27.97-3.9-37.91,25.02-75.99,59.05-77.75,34.03-1.76,65.97,33.16,65.21,71.31,7.06-50.28,48.14-91.87,93.51-94.67,45.36-2.8,90.28,33.48,102.24,82.58,18.67-22.94,38.03-46.46,63.14-59.58,25.11-13.12,57.71-13.35,78,7.8,20.29,21.14,18.62,65.75-6.73,78.3,28.29-15.56,67.03,2.26,77.39,35.6,10.36,33.34-10.12,74.26-40.91,81.74,28.8-21.97,74.03-7.58,88.21,28.07,14.18,35.65-6.51,82.95-40.35,92.24,29.45,1.2,46.72,44.64,33.98,74.4-12.75,29.76-45.15,43.68-74.55,41.51-29.41-2.16-56.68-17.15-83.06-31.87-70.75,45.36-157.99,57.21-236.37,32.1-91.18,61.08-221.31,33.89-233.91-53.98Z"/>
      <path class="cls-31" d="m293.77,895.79c-34.94,5.36-70.84-26.26-72.23-63.61-1.39-37.35,32.05-71.86,67.28-69.43-35.87-8.49-57.79-56.4-41.85-91.47,15.94-35.07,64.97-46.83,93.62-22.44-3.31-30.41,21.24-60.97,50.12-62.38,28.88-1.42,55.99,26.6,55.35,57.21,5.99-40.34,40.86-73.71,79.37-75.96,38.51-2.25,76.63,26.86,86.78,66.25,15.85-18.4,32.28-37.27,53.59-47.8,21.32-10.53,48.99-10.71,66.21,6.25,17.22,16.96,15.8,52.75-5.71,62.82,24.01-12.48,56.89,1.81,65.69,28.56,8.8,26.75-8.59,59.57-34.73,65.58,24.44-17.63,62.83-6.08,74.87,22.52,12.04,28.6-5.52,66.55-34.25,74,25,.96,39.66,35.81,28.84,59.69s-38.32,35.04-63.28,33.31c-24.96-1.74-48.11-13.76-70.5-25.57-60.05,36.39-134.1,45.9-200.62,25.76-77.39,49.01-187.85,27.19-198.54-43.31Z"/>
      <path class="cls-31" d="m-355.26,895.79c-34.94,5.36-70.84-26.26-72.23-63.61-1.39-37.35,32.05-71.86,67.28-69.43-35.87-8.49-57.79-56.4-41.85-91.47,15.94-35.07,64.97-46.83,93.62-22.44-3.31-30.41,21.24-60.97,50.12-62.38,28.88-1.42,55.99,26.6,55.35,57.21,5.99-40.34,40.86-73.71,79.37-75.96,38.51-2.25,76.63,26.86,86.78,66.25,15.85-18.4,32.28-37.27,53.59-47.8,21.32-10.53,48.99-10.71,66.21,6.25,17.22,16.96,15.8,52.75-5.71,62.82,24.01-12.48,56.89,1.81,65.69,28.56,8.8,26.75-8.59,59.57-34.73,65.58,24.44-17.63,62.83-6.08,74.87,22.52,12.04,28.6-5.52,66.55-34.25,74,25,.96,39.66,35.81,28.84,59.69s-38.32,35.04-63.28,33.31c-24.96-1.74-48.11-13.76-70.5-25.57-60.05,36.39-134.1,45.9-200.62,25.76-77.39,49.01-187.85,27.19-198.54-43.31Z"/>
      <path class="cls-31" d="m1334.36,1023.4c-18.72,30.15-70.04,32.3-103.25,4.33-33.21-27.97-40.69-79.65-15.04-103.97-31.32,20.09-87.37-.81-107.03-39.9-19.66-39.09,2.95-84.69,43.17-87.07-28.5-21.16-38.5-63.15-20.42-85.73,18.08-22.58,60.42-20.99,86.44,3.26-30.86-35.78-36.4-87.64-12.61-118.03,23.79-30.39,74.43-36.14,115.26-13.1-5.32-26.08-10.64-52.96-5.5-76.99,5.15-24.03,23.49-44.75,49.66-44.39,26.17.36,56.16,29.21,50.48,53.03,5.26-27.56,39.59-40.91,68.59-26.68s45.75,52.66,33.47,76.76c1.1-31.87,36.74-51.46,69.51-38.2,32.77,13.26,53.83,55.79,41.08,82.95,17.54-17.85,57.46-1.68,70.87,24.91,13.41,26.59,4.68,55.72-13.51,72.94-18.18,17.22-44.05,25.09-69.22,32.58-8.68,72.93-49.96,135.4-111.83,169.24-9.37,95.63-102.05,160.84-170.13,114.05Z"/>
    </g>
    <g id="Ebene_11" data-name="Ebene 11">
      <rect class="cls-9" x="718.32" y="729.21" width="673.1" height="28"/>
      <rect class="cls-2" x="-3.02" y="824.14" width="735.75" height="32.09"/>
      <rect class="cls-2" x="-8.22" y="728.04" width="735.75" height="32.09"/>
      <rect class="cls-9" x="1465.07" y="716.22" width="673.1" height="28"/>
      <rect class="cls-2" x="718.32" y="827.03" width="673.1" height="28"/>
      <rect class="cls-2" x="1465.07" y="814.05" width="673.1" height="28"/>
      <polygon class="cls-3" points="1354.7 909.03 1354.7 694.06 1371.82 663.06 1386.7 694.06 1386.7 909.03 1354.7 909.03"/>
      <polygon class="cls-3" points="572.29 903.54 572.29 688.57 589.42 657.57 604.29 688.57 604.29 903.54 572.29 903.54"/>
      <polygon class="cls-3" points="1296.23 909.03 1296.23 694.06 1313.36 663.06 1328.23 694.06 1328.23 909.03 1296.23 909.03"/>
      <polygon class="cls-3" points="513.83 903.54 513.83 688.57 530.96 657.57 545.83 688.57 545.83 903.54 513.83 903.54"/>
      <polygon class="cls-3" points="1237.76 909.03 1237.76 694.06 1254.89 663.06 1269.76 694.06 1269.76 909.03 1237.76 909.03"/>
      <polygon class="cls-3" points="455.36 903.54 455.36 688.57 472.49 657.57 487.36 688.57 487.36 903.54 455.36 903.54"/>
      <polygon class="cls-3" points="1179.3 909.03 1179.3 694.06 1196.43 663.06 1211.3 694.06 1211.3 909.03 1179.3 909.03"/>
      <polygon class="cls-3" points="396.9 903.54 396.9 688.57 414.02 657.57 428.9 688.57 428.9 903.54 396.9 903.54"/>
      <polygon class="cls-3" points="1120.83 909.03 1120.83 694.06 1137.96 663.06 1152.83 694.06 1152.83 909.03 1120.83 909.03"/>
      <polygon class="cls-3" points="1867.59 896.04 1867.59 681.08 1884.71 650.08 1899.59 681.08 1899.59 896.04 1867.59 896.04"/>
      <polygon class="cls-3" points="338.43 903.54 338.43 688.57 355.56 657.57 370.43 688.57 370.43 903.54 338.43 903.54"/>
      <polygon class="cls-3" points="1062.37 909.03 1062.37 694.06 1079.5 663.06 1094.37 694.06 1094.37 909.03 1062.37 909.03"/>
      <polygon class="cls-3" points="1809.12 896.04 1809.12 681.08 1826.25 650.08 1841.12 681.08 1841.12 896.04 1809.12 896.04"/>
      <polygon class="cls-3" points="279.96 903.54 279.96 688.57 297.09 657.57 311.96 688.57 311.96 903.54 279.96 903.54"/>
      <polygon class="cls-3" points="1003.9 909.03 1003.9 694.06 1021.03 663.06 1035.9 694.06 1035.9 909.03 1003.9 909.03"/>
      <polygon class="cls-3" points="1750.65 896.04 1750.65 681.08 1767.78 650.08 1782.65 681.08 1782.65 896.04 1750.65 896.04"/>
      <polygon class="cls-3" points="221.5 903.54 221.5 688.57 238.63 657.57 253.5 688.57 253.5 903.54 221.5 903.54"/>
      <polygon class="cls-3" points="945.44 909.03 945.44 694.06 962.56 663.06 977.44 694.06 977.44 909.03 945.44 909.03"/>
      <polygon class="cls-3" points="1692.19 896.04 1692.19 681.08 1709.32 650.08 1724.19 681.08 1724.19 896.04 1692.19 896.04"/>
      <polygon class="cls-3" points="163.03 903.54 163.03 688.57 180.16 657.57 195.03 688.57 195.03 903.54 163.03 903.54"/>
      <polygon class="cls-3" points="886.97 909.03 886.97 694.06 904.1 663.06 918.97 694.06 918.97 909.03 886.97 909.03"/>
      <polygon class="cls-3" points="1633.72 896.04 1633.72 681.08 1650.85 650.08 1665.72 681.08 1665.72 896.04 1633.72 896.04"/>
      <polygon class="cls-3" points="104.57 903.54 104.57 688.57 121.69 657.57 136.57 688.57 136.57 903.54 104.57 903.54"/>
      <polygon class="cls-3" points="828.5 909.03 828.5 694.06 845.63 663.06 860.5 694.06 860.5 909.03 828.5 909.03"/>
      <polygon class="cls-3" points="1575.26 896.04 1575.26 681.08 1592.39 650.08 1607.26 681.08 1607.26 896.04 1575.26 896.04"/>
      <polygon class="cls-3" points="46.1 903.54 46.1 688.57 63.23 657.57 78.1 688.57 78.1 903.54 46.1 903.54"/>
      <polygon class="cls-3" points="770.04 909.03 770.04 694.06 787.17 663.06 802.04 694.06 802.04 909.03 770.04 909.03"/>
      <polygon class="cls-3" points="1516.79 896.04 1516.79 681.08 1533.92 650.08 1548.79 681.08 1548.79 896.04 1516.79 896.04"/>
      <polygon class="cls-3" points="-12.37 903.54 -12.37 688.57 4.76 657.57 19.63 688.57 19.63 903.54 -12.37 903.54"/>
      <polygon class="cls-3" points="711.57 909.03 711.57 694.06 728.7 663.06 743.57 694.06 743.57 909.03 711.57 909.03"/>
      <polygon class="cls-3" points="1458.33 896.04 1458.33 681.08 1475.45 650.08 1490.33 681.08 1490.33 896.04 1458.33 896.04"/>
      <path class="cls-6" d="m715.61,711.25l.62,114.13"/>
      <path class="cls-6" d="m1462.36,698.26l.62,114.13"/>
      <path class="cls-6" d="m719.69,772.62l.77,51.99"/>
      <path class="cls-6" d="m1466.45,759.63l.77,51.99"/>
      <path class="cls-6" d="m-.27,784.81v23.84"/>
      <path class="cls-6" d="m723.67,790.3v23.84"/>
      <path class="cls-6" d="m1470.42,777.32c0,7.95,0,15.89,0,23.84"/>
      <path class="cls-6" d="m130.89,788.93c.13,37.06.25,74.12,1.61,111.18-.08-.08-.16-.16-.74-.74-7.23.08-14.46.16-21.69.25"/>
      <path class="cls-6" d="m854.83,794.42c.13,37.06.25,74.12,1.61,111.18-.08-.08-.16-.16-.74-.74-7.23.08-14.46.16-21.69.25"/>
      <path class="cls-6" d="m1601.58,781.43c.13,37.06.25,74.12,1.61,111.18-.08-.08-.16-.16-.74-.74-7.23.08-14.46.16-21.69.25"/>
      <path class="cls-6" d="m186.94,716.32l-1.69,100.5"/>
      <path class="cls-6" d="m910.88,721.81l-1.69,100.5"/>
      <path class="cls-6" d="m1657.63,708.82c-.56,33.5-1.13,67-1.69,100.5"/>
      <path class="cls-6" d="m177.08,760.65c.14,14.22.28,28.43.42,42.65"/>
      <path class="cls-6" d="m901.02,766.14c.14,14.22.28,28.43.42,42.65"/>
      <path class="cls-6" d="m1647.78,753.16c.14,14.22.28,28.43.42,42.65"/>
      <path class="cls-6" d="m169.91,773.32l-.42,21.54"/>
      <path class="cls-6" d="m893.84,778.81l-.42,21.54"/>
      <path class="cls-6" d="m1640.6,765.82c-.14,7.18-.28,14.36-.42,21.54"/>
      <path class="cls-6" d="m228.38,836.82c-3.47,20.56-3.56,41.69-.28,62.28"/>
      <path class="cls-6" d="m952.32,842.31c-3.47,20.56-3.56,41.69-.28,62.28"/>
      <path class="cls-6" d="m1699.08,829.32c-3.47,20.56-3.56,41.69-.28,62.28"/>
      <path class="cls-6" d="m231,858.64c.08,11.06.16,22.12.25,33.19"/>
      <path class="cls-6" d="m954.94,864.13c.08,11.06.16,22.12.25,33.19"/>
      <path class="cls-6" d="m1701.69,851.14c.08,11.06.16,22.12.25,33.19"/>
      <path class="cls-6" d="m235.67,864.78l.74,19.67"/>
      <path class="cls-6" d="m959.61,870.27l.74,19.67"/>
      <path class="cls-6" d="m1706.36,857.29l.74,19.67"/>
      <path class="cls-6" d="m242.31,867.49v11.31"/>
      <path class="cls-6" d="m966.25,872.98v11.31"/>
      <path class="cls-6" d="m1713,859.99v11.31"/>
      <path class="cls-6" d="m238.62,669.36c2.29,6.39,4.59,12.78,6.88,19.17"/>
      <path class="cls-6" d="m962.56,674.85c2.29,6.39,4.59,12.78,6.88,19.17"/>
      <path class="cls-6" d="m1709.31,661.86c2.29,6.39,4.59,12.78,6.88,19.17"/>
      <path class="cls-6" d="m235.92,677.22l3.93,11.06"/>
      <path class="cls-6" d="m959.85,682.71l3.93,11.06"/>
      <path class="cls-6" d="m1706.61,669.73c1.31,3.69,2.62,7.37,3.93,11.06"/>
      <path class="cls-6" d="m231.49,682.88l3.2,8.11"/>
      <path class="cls-6" d="m955.43,688.37l3.2,8.11"/>
      <path class="cls-6" d="m1702.18,675.38l3.2,8.11"/>
      <path class="cls-3" d="m297.3,668.64l5.42,13.07"/>
      <path class="cls-3" d="m1021.24,674.13l5.42,13.07"/>
      <path class="cls-3" d="m1767.99,661.14l5.42,13.07"/>
      <path class="cls-3" d="m291.63,674.31l4.44,9.12"/>
      <path class="cls-3" d="m1015.57,679.8c1.48,3.04,2.96,6.08,4.44,9.12"/>
      <path class="cls-3" d="m1762.32,666.81c1.48,3.04,2.96,6.08,4.44,9.12"/>
      <path class="cls-3" d="m343.65,688.36l12.57-20.71"/>
      <path class="cls-3" d="m1067.58,693.85l12.57-20.71"/>
      <path class="cls-3" d="m1814.34,680.87l12.57-20.71"/>
      <path class="cls-3" d="m349.56,688.86c2.63-4.36,5.26-8.71,7.89-13.07"/>
      <path class="cls-3" d="m1073.5,694.35c2.63-4.36,5.26-8.71,7.89-13.07"/>
      <path class="cls-3" d="m1820.25,681.36c2.63-4.36,5.26-8.71,7.89-13.07"/>
      <path class="cls-3" d="m401.58,689.35c4.44-7.48,8.88-14.96,13.31-22.43"/>
      <path class="cls-3" d="m1125.52,694.84c4.44-7.48,8.88-14.96,13.31-22.43"/>
      <path class="cls-3" d="m1872.27,681.85c4.44-7.48,8.88-14.96,13.31-22.43"/>
      <path class="cls-3" d="m406.55,688.98c3.14-5.41,6.28-10.83,9.41-16.24"/>
      <path class="cls-3" d="m1130.48,694.47c3.14-5.41,6.28-10.83,9.41-16.24"/>
      <path class="cls-3" d="m1877.24,681.48c3.14-5.41,6.28-10.83,9.41-16.24"/>
      <path class="cls-3" d="m412.43,689.59c1.89-3.53,3.78-7.07,5.67-10.6"/>
      <path class="cls-3" d="m1136.37,695.09c1.89-3.53,3.78-7.07,5.67-10.6"/>
      <path class="cls-3" d="m1883.12,682.1c1.89-3.53,3.78-7.07,5.67-10.6"/>
      <path class="cls-3" d="m418.1,689.84l3.2-6.16"/>
      <path class="cls-3" d="m1142.04,695.33l3.2-6.16"/>
      <path class="cls-3" d="m1888.79,682.35l3.2-6.16"/>
      <path class="cls-3" d="m284.89,702.41l-.49,61.63"/>
      <path class="cls-3" d="m1008.82,707.9c-.16,20.54-.33,41.09-.49,61.63"/>
      <path class="cls-3" d="m1755.58,694.92c-.16,20.54-.33,41.09-.49,61.63"/>
      <path class="cls-3" d="m288.67,718.19l-1.73,34.51"/>
      <path class="cls-3" d="m1012.61,723.68c-.58,11.5-1.15,23.01-1.73,34.51"/>
      <path class="cls-3" d="m1759.36,710.7c-.58,11.5-1.15,23.01-1.73,34.51"/>
      <path class="cls-3" d="m294.59,724.85l.49,24.16"/>
      <path class="cls-3" d="m1018.52,730.34c.16,8.05.33,16.11.49,24.16"/>
      <path class="cls-3" d="m1765.28,717.35c.16,8.05.33,16.11.49,24.16"/>
      <path class="cls-3" d="m301,728.3v15.04"/>
      <path class="cls-3" d="m1024.93,733.79v15.04"/>
      <path class="cls-3" d="m1771.69,720.8v15.04"/>
      <path class="cls-3" d="m344.54,727.07c.03,43.06.06,86.12.08,129.18"/>
      <path class="cls-3" d="m1068.48,732.56c.03,43.06.06,86.12.08,129.18"/>
      <path class="cls-3" d="m1815.23,719.57c.03,43.06.06,86.12.08,129.18"/>
      <path class="cls-3" d="m348.93,771.94c-.07,25.39-.15,50.79-.22,76.18"/>
      <path class="cls-3" d="m1072.86,777.43c-.07,25.39-.15,50.79-.22,76.18"/>
      <path class="cls-3" d="m1819.62,764.44c-.07,25.39-.15,50.79-.22,76.18"/>
      <path class="cls-3" d="m352.52,790.92l-.99,26.38"/>
      <path class="cls-3" d="m1076.46,796.41l-.99,26.38"/>
      <path class="cls-3" d="m1823.21,783.42l-.99,26.38"/>
      <path class="cls-3" d="m285.31,824.2c-.53,24.24-1.07,48.49.41,71.99l20.46,1.97"/>
      <path class="cls-3" d="m1009.24,829.69c-.53,24.24-1.07,48.49.41,71.99l20.46,1.97"/>
      <path class="cls-3" d="m1756,816.7c-.53,24.24-1.07,48.49.41,71.99l20.46,1.97"/>
      <path class="cls-3" d="m289.16,855.26l1.52,35.22c5.41-.07,10.82-.14,16.23-.21"/>
      <path class="cls-3" d="m1013.1,860.76l1.52,35.22c5.41-.07,10.82-.14,16.23-.21"/>
      <path class="cls-3" d="m1759.85,847.77l1.52,35.22c5.41-.07,10.82-.14,16.23-.21"/>
      <path class="cls-3" d="m421.38,749.5c.22,49.14.44,98.28.66,147.43"/>
      <path class="cls-3" d="m1145.32,755c.22,49.14.44,98.28.66,147.43"/>
      <path class="cls-3" d="m1892.07,742.01c.22,49.14.44,98.28.66,147.43"/>
      <path class="cls-3" d="m400.6,896.93l21.69.25"/>
      <path class="cls-3" d="m1124.53,902.42l21.69.25"/>
      <path class="cls-3" d="m1871.29,889.43l21.69.25"/>
      <path class="cls-3" d="m414.61,800.78l2.22,80.37"/>
      <path class="cls-3" d="m1138.55,806.27l2.22,80.37"/>
      <path class="cls-3" d="m1885.3,793.29l2.22,80.37"/>
      <path class="cls-3" d="m407.74,822.23l.25,47.83"/>
      <path class="cls-3" d="m1131.68,827.72l.25,47.83"/>
      <path class="cls-3" d="m1878.44,814.73l.25,47.83"/>
      <path class="cls-3" d="m52.74,751.12l1.42,144.89"/>
      <path class="cls-3" d="m776.68,756.61l1.42,144.89"/>
      <path class="cls-3" d="m1523.43,743.63c.47,48.3.94,96.59,1.42,144.89"/>
      <path class="cls-3" d="m58.94,733.5c.43,28.28.86,56.56,1.3,84.84"/>
      <path class="cls-3" d="m782.88,738.99c.43,28.28.86,56.56,1.3,84.84"/>
      <path class="cls-3" d="m1529.63,726c.43,28.28.86,56.56,1.3,84.84"/>
      <path class="cls-3" d="m70.27,702.51c-.48,26.85-.95,53.7-1.43,80.55"/>
      <path class="cls-3" d="m794.21,708c-.48,26.85-.95,53.7-1.43,80.55"/>
      <path class="cls-3" d="m1540.96,695.01c-.48,26.85-.95,53.7-1.43,80.55"/>
      <path class="cls-3" d="m53.11,689.64c2.86-6.99,5.72-13.98,8.58-20.97"/>
      <path class="cls-3" d="m777.05,695.13c2.86-6.99,5.72-13.98,8.58-20.97"/>
      <path class="cls-3" d="m1523.8,682.15c2.86-6.99,5.72-13.98,8.58-20.97"/>
      <path class="cls-3" d="m110.78,687.26c3.18-5.88,6.35-11.76,9.53-17.63"/>
      <path class="cls-3" d="m834.72,692.75c3.18-5.88,6.35-11.76,9.53-17.63"/>
      <path class="cls-3" d="m1581.47,679.76c3.18-5.88,6.35-11.76,9.53-17.63"/>
      <path class="cls-3" d="m114.58,689.26l8.19-17.01"/>
      <path class="cls-3" d="m838.52,694.75l8.19-17.01"/>
      <path class="cls-3" d="m1585.28,681.77l8.19-17.01"/>
      <path class="cls-3" d="m110.29,713.46c5.11-12.15,10.22-24.3,15.33-36.46"/>
      <path class="cls-3" d="m834.23,718.95c5.11-12.15,10.22-24.3,15.33-36.46"/>
      <path class="cls-3" d="m1580.98,705.96c5.11-12.15,10.22-24.3,15.33-36.46"/>
      <path class="cls-3" d="m123.3,694.26l4.36-10.84"/>
      <path class="cls-3" d="m847.24,699.75l4.36-10.84"/>
      <path class="cls-3" d="m1593.99,686.76l4.36-10.84"/>
      <path class="cls-3" d="m180.14,664.58c-4.46,8.19-8.93,16.37-13.39,24.56"/>
      <path class="cls-3" d="m904.08,670.07c-4.46,8.19-8.93,16.37-13.39,24.56"/>
      <path class="cls-3" d="m1650.83,657.08c-4.46,8.19-8.93,16.37-13.39,24.56"/>
      <path class="cls-3" d="m179.93,670.32l-7.69,15.98"/>
      <path class="cls-3" d="m903.86,675.81l-7.69,15.98"/>
      <path class="cls-3" d="m1650.62,662.83l-7.69,15.98"/>
      <path class="cls-3" d="m182.09,674.17l-6.06,11.06"/>
      <path class="cls-3" d="m906.03,679.66l-6.06,11.06"/>
      <path class="cls-3" d="m1652.78,666.67l-6.06,11.06"/>
      <path class="cls-3" d="m14.53,848.28c.53,17.27,1.06,34.55,1.59,51.82.53-.87-.54-2.15-1.49-1.8s-.92,2.02.04,2.34"/>
      <path class="cls-3" d="m738.46,853.77c.53,17.27,1.06,34.55,1.59,51.82.53-.87-.54-2.15-1.49-1.8s-.92,2.02.04,2.34"/>
      <path class="cls-3" d="m1485.22,840.78c.53,17.27,1.06,34.55,1.59,51.82.53-.87-.54-2.15-1.49-1.8s-.92,2.02.04,2.34"/>
      <path class="cls-3" d="m-6.84,898.49c7.57.41,15.15.82,22.72,1.23"/>
      <path class="cls-3" d="m717.1,903.99c7.57.41,15.15.82,22.72,1.23"/>
      <path class="cls-3" d="m1463.85,891c7.57.41,15.15.82,22.72,1.23"/>
      <path class="cls-3" d="m9.25,852.87l1.46,39.85"/>
      <path class="cls-3" d="m733.18,858.36l1.46,39.85"/>
      <path class="cls-3" d="m1479.94,845.38l1.46,39.85"/>
      <path class="cls-3" d="m-3.69,890.64l11.68,1.25"/>
      <path class="cls-3" d="m720.25,896.13l11.68,1.25"/>
      <path class="cls-3" d="m1467,883.14l11.68,1.25"/>
      <path class="cls-3" d="m-3.27,883.54c3.2.07,6.4.14,9.6.21"/>
      <path class="cls-3" d="m720.66,889.04c3.2.07,6.4.14,9.6.21"/>
      <path class="cls-3" d="m1467.42,876.05c3.2.07,6.4.14,9.6.21"/>
      <path class="cls-3" d="m-2.23,878.54c2.92-.56,5.84-1.11,8.76-1.67"/>
      <path class="cls-3" d="m721.71,884.03c2.92-.56,5.84-1.11,8.76-1.67"/>
      <path class="cls-3" d="m1468.46,871.04c2.92-.56,5.84-1.11,8.76-1.67"/>
      <path class="cls-3" d="m460.45,688.59c4.24-6.83,8.48-13.67,12.72-20.5,0,0-7.52,16.93-7.47,17.45l7.54-12.71"/>
      <path class="cls-3" d="m1184.39,694.08c4.24-6.83,8.48-13.67,12.72-20.5,0,0-7.52,16.93-7.47,17.45l7.54-12.71"/>
      <path class="cls-3" d="m470.02,685.88c1.81-3.6,3.63-7.21,5.44-10.81"/>
      <path class="cls-3" d="m1193.95,691.37c1.81-3.6,3.63-7.21,5.44-10.81"/>
      <path class="cls-3" d="m473.64,685.29c1.27-2.66,2.54-5.33,3.81-7.99"/>
      <path class="cls-3" d="m1197.58,690.78c1.27-2.66,2.54-5.33,3.81-7.99"/>
      <path class="cls-3" d="m459.67,723.55l.04,86.84"/>
      <path class="cls-3" d="m1183.6,729.04l.04,86.84"/>
      <path class="cls-3" d="m464.38,731.29c-2.32,23.61-2.52,47.43-.61,71.08"/>
      <path class="cls-3" d="m1188.32,736.78c-2.32,23.61-2.52,47.43-.61,71.08"/>
      <path class="cls-3" d="m468.15,737.79l-1.25,57.89"/>
      <path class="cls-3" d="m1192.09,743.28l-1.25,57.89"/>
      <path class="cls-3" d="m472.49,747.19c-.25,12.68-.51,25.36-.76,38.04"/>
      <path class="cls-3" d="m1196.43,752.68c-.25,12.68-.51,25.36-.76,38.04"/>
      <path class="cls-3" d="m475.67,753.71c.05,7.78.1,15.56.15,23.34"/>
      <path class="cls-3" d="m1199.61,759.2c.05,7.78.1,15.56.15,23.34"/>
      <path class="cls-3" d="m479.92,754.62l.15,20.46"/>
      <path class="cls-3" d="m1203.85,760.11l.15,20.46"/>
      <path class="cls-3" d="m483.25,757.2l-.15,14.4"/>
      <path class="cls-3" d="m1207.19,762.69l-.15,14.4"/>
      <path class="cls-3" d="m541.52,695.17c-5.35,67.72-6.11,135.81,1.56,203.42"/>
      <path class="cls-3" d="m1265.45,700.66c-5.35,67.72-6.11,135.81,1.56,203.42"/>
      <path class="cls-3" d="m531.7,719.31c.35,20.11.69,40.22,1.04,60.33"/>
      <path class="cls-3" d="m1255.64,724.8c.35,20.11.69,40.22,1.04,60.33"/>
      <path class="cls-3" d="m525.88,742.17c0,8.54,0,17.07,0,25.61"/>
      <path class="cls-3" d="m1249.82,747.66c0,8.54,0,17.07,0,25.61"/>
      <path class="cls-3" d="m530.41,663.84l12.05,22.54"/>
      <path class="cls-3" d="m1254.35,669.33l12.05,22.54"/>
      <path class="cls-3" d="m529.01,668.94c3.23,5.48,6.46,10.96,9.69,16.44"/>
      <path class="cls-3" d="m1252.94,674.43c3.23,5.48,6.46,10.96,9.69,16.44"/>
      <path class="cls-3" d="m527.28,673.39c2.19,4.07,4.38,8.14,6.57,12.21"/>
      <path class="cls-3" d="m1251.22,678.88c2.19,4.07,4.38,8.14,6.57,12.21"/>
      <path class="cls-3" d="m526.34,679.18c.83,1.51,1.67,3.03,2.5,4.54"/>
      <path class="cls-3" d="m1250.28,684.67c.83,1.51,1.67,3.03,2.5,4.54"/>
      <path class="cls-3" d="m577.31,686.19c4.42-7.31,8.83-14.63,13.25-21.94"/>
      <path class="cls-3" d="m1301.24,691.68c4.42-7.31,8.83-14.63,13.25-21.94"/>
      <path class="cls-3" d="m582.21,685.13l7.04-12.68"/>
      <path class="cls-3" d="m1306.15,690.62l7.04-12.68"/>
      <path class="cls-3" d="m600.21,696.87l1.65,57.12"/>
      <path class="cls-3" d="m1324.15,702.36l1.65,57.12"/>
      <path class="cls-3" d="m595.21,705.32c.73,15.23,1.47,30.47,2.2,45.7"/>
      <path class="cls-3" d="m1319.15,710.81c.73,15.23,1.47,30.47,2.2,45.7"/>
      <path class="cls-3" d="m590.03,711.74c.63,11.27,1.25,22.54,1.88,33.81"/>
      <path class="cls-3" d="m1313.97,717.23c.63,11.27,1.25,22.54,1.88,33.81"/>
      <path class="cls-3" d="m575.3,795.95l2.48,70.59"/>
      <path class="cls-3" d="m1299.24,801.44l2.48,70.59"/>
      <path class="cls-3" d="m579.97,807.37l1.25,48.36"/>
      <path class="cls-3" d="m1303.91,812.86l1.25,48.36"/>
      <path class="cls-3" d="m585.03,817.38l.16,28.02"/>
      <path class="cls-3" d="m1308.97,822.87l.16,28.02"/>
      <path class="cls-3" d="m590.04,820.98v16.12"/>
      <path class="cls-3" d="m1313.98,826.47v16.12"/>
      <path class="cls-3" d="m1358.79,695.03c4.67-8,9.34-15.99,14.01-23.99"/>
      <path class="cls-3" d="m1364.06,693.43c1.77-3.18,3.55-6.36,5.32-9.55"/>
      <path class="cls-3" d="m1374.57,677.15c2.36,6.57,4.71,13.14,7.07,19.71"/>
      <path class="cls-3" d="m1373.61,685.76c1.15,2.19,2.3,4.38,3.44,6.57"/>
      <path class="cls-3" d="m1359.41,856.82c.52,16.04,1.03,32.09,1.55,48.13,6.3-.17,12.6-.35,18.91-.52"/>
      <path class="cls-3" d="m1363.08,859.5c.76,13.04,1.52,26.09,2.29,39.13"/>
      <path class="cls-3" d="m1367.04,866.07c.1,6.99.21,13.98.31,20.97"/>
      <path class="cls-3" d="m1368.29,700.01l13.43.21c.8,25,1.6,50.01,2.39,75.01"/>
      <path class="cls-3" d="m1369.21,705.96l5.71-.44c1.14,19.08,2.28,38.17,3.42,57.25"/>
      <path class="cls-3" d="m1359.74,779.05c.66,19.37,1.33,38.73,1.99,58.1"/>
      <path class="cls-3" d="m1366.1,790.78l1.1,30.52"/>
      <g>
        <polygon class="cls-3" points="643.75 899.64 643.75 684.68 660.87 653.68 675.75 684.68 675.75 899.64 643.75 899.64"/>
        <path class="cls-3" d="m647.84,685.64c4.67-8,9.34-15.99,14.01-23.99"/>
        <path class="cls-3" d="m653.11,684.05c1.77-3.18,3.55-6.36,5.32-9.55"/>
        <path class="cls-3" d="m663.62,667.76c2.36,6.57,4.71,13.14,7.07,19.71"/>
        <path class="cls-3" d="m662.66,676.38c1.15,2.19,2.3,4.38,3.44,6.57"/>
        <path class="cls-3" d="m648.46,847.44c.52,16.04,1.03,32.09,1.55,48.13,6.3-.17,12.6-.35,18.91-.52"/>
        <path class="cls-3" d="m652.13,850.12c.76,13.04,1.52,26.09,2.29,39.13"/>
        <path class="cls-3" d="m656.08,856.68c.1,6.99.21,13.98.31,20.97"/>
        <path class="cls-3" d="m657.34,690.62l13.43.21c.8,25,1.6,50.01,2.39,75.01"/>
        <path class="cls-3" d="m658.26,696.57l5.71-.44c1.14,19.08,2.28,38.17,3.42,57.25"/>
        <path class="cls-3" d="m648.79,769.66c.66,19.37,1.33,38.73,1.99,58.1"/>
        <path class="cls-3" d="m655.15,781.4l1.1,30.52"/>
        <path class="cls-3" d="m660,785c-.26,7.25-.52,14.5-.78,21.76"/>
      </g>
      <path class="cls-3" d="m1370.95,794.38c-.26,7.25-.52,14.5-.78,21.76"/>
    </g>
    <g id="Layer_2" data-name="Layer 2">
      <rect class="cls-23" x="-22.85" y="900.59" width="1978" height="230"/>
    </g>
    <g id="Ebene_9" data-name="Ebene 9">
      <path class="cls-15" d="m1458.9,862.48c-40.35-23.46,28.08-45.55,28.08-45.55-17.15-55.15,19.9-68.68,10.14-108.89-13.02-53.62,34.47-49.79,34.47-49.79-19.1-21.91,19.15-51.32,45.19-28.04,6.11,5.46,22.98-58.51,62.81-11.79,29.67,34.81-36,39.83,18.38,55.91-1.86-87.01,99.18-21.38,99.18-21.38,49.42-87.39,94.61,4.53,94.61,4.53,61.1-26.35,63.57,25.28,63.57,25.28,86.55-15.32,74.3,59.75,74.3,59.75,42.89-9.96,64.88,15.87,72,28.33,11.85,20.77-2.3,44.43-2.3,44.43-12.2,10.65-40.08,21.27-62.29,24.56,3.93,6.42,4.82,18.12-22.97,20.6,0,0-9.62,11.82-72.73,11.63,2.81,3.92-49.65,25.1-132.15,13.93,2.34,5.74-86.73,17.84-84.59-6,0,0-93.6,13.87-129.64.89,0,0-55.91,2.38-63.93-10.87-11.51,7.24-33.28,2.7-32.12-7.54Z"/>
    </g>
    <g id="Ebene_5" data-name="Ebene 5">
      <g>
        <ellipse class="cls-21" cx="1493.56" cy="893.52" rx="266.42" ry="108.52"/>
        <path class="cls-28" d="m1754.09,897.68c7.13-9.01,21.13-108.47-79.38-137.02,0,0,29.1-99.91-92.58-74.22,0,0-50.26-95.44-124.32-31.4-39.67-22.11-76.71,11.42-74.06,64.04,0,0-84.64-35.49-87.28,50.14,0,0-54.98,11.64-47.61,71.36-24.57,9.71-26.95,46.54-18.52,57.09,8.43,10.55,30.35,23.29,96.69,28.31,5,16.93,35.78,40.87,86.32,18.44,0,0,46.86,23.72,115.91,7.8,36.99,5.49,71.52-2.84,69.05-15.91,0,0,78.92,8.82,81.38-12.46,19.95,12.22,50.73-4.88,44.39-17.73,0,0,22.87.56,30-8.45Z"/>
        <g>
          <path class="cls-26" d="m1635.43,752.62c-1.74-1.98-2.31-4.74-1.14-6.92,1.47-2.75,5.05-3.49,7.99-1.66,1.06.66,1.79,1.6,2.35,2.61.19-.44.31-.9.58-1.32,1.95-3,5.42-4,7.75-2.23,2.33,1.77,2.64,5.63.69,8.63-.11.16-.26.26-.37.41,3.24,1.09,5.25,4.07,4.51,6.68-.75,2.61-3.98,3.85-7.23,2.77-.13-.04-.22-.13-.34-.18-.1,3.56-2.41,6.42-5.28,6.42-2.7,0-4.85-2.56-5.19-5.81-.23.12-.42.29-.67.38-3.22,1.17-6.53-.13-7.4-2.9-.82-2.62.87-5.55,3.75-6.87Z"/>
          <path class="cls-26" d="m1416.19,813.45c-1.74-1.98-2.31-4.74-1.14-6.92,1.47-2.75,5.05-3.49,7.99-1.66,1.06.66,1.79,1.6,2.35,2.61.19-.44.31-.9.58-1.32,1.95-3,5.42-4,7.75-2.23,2.33,1.77,2.64,5.63.69,8.63-.11.16-.26.26-.37.41,3.24,1.09,5.25,4.07,4.51,6.68-.75,2.61-3.98,3.85-7.23,2.77-.13-.04-.22-.13-.34-.18-.1,3.56-2.41,6.42-5.28,6.42-2.7,0-4.85-2.56-5.19-5.81-.23.12-.42.29-.67.38-3.22,1.17-6.53-.13-7.4-2.9-.82-2.62.87-5.55,3.75-6.87Z"/>
          <path class="cls-26" d="m1421.38,704.6c-.61-2.65.15-5.35,2.17-6.63,2.54-1.61,5.99-.35,7.71,2.81.62,1.14.83,2.34.85,3.52.36-.29.68-.62,1.11-.84,3.07-1.57,6.55-.59,7.76,2.19,1.22,2.78-.28,6.3-3.35,7.87-.17.09-.34.08-.51.16,2.32,2.67,2.71,6.34.87,8.21-1.84,1.87-5.22,1.23-7.55-1.44-.09-.1-.13-.23-.22-.34-1.71,3.05-5.03,4.31-7.53,2.77-2.35-1.44-3.05-4.8-1.85-7.82-.26-.02-.5.03-.76-.02-3.34-.69-5.62-3.59-5.11-6.47.48-2.71,3.3-4.36,6.41-3.97Z"/>
          <path class="cls-26" d="m1313.3,854.16c-2.94-3.33-3.89-7.97-1.92-11.66,2.48-4.63,8.5-5.88,13.45-2.79,1.78,1.11,3.02,2.69,3.96,4.39.31-.75.52-1.52.98-2.22,3.29-5.05,9.13-6.73,13.06-3.76,3.92,2.98,4.44,9.48,1.15,14.53-.18.28-.44.43-.63.69,5.45,1.83,8.85,6.85,7.59,11.24-1.26,4.4-6.71,6.48-12.17,4.66-.21-.07-.37-.22-.58-.3-.16,6-4.05,10.82-8.9,10.82-4.55,0-8.16-4.3-8.73-9.79-.4.19-.71.49-1.13.64-5.42,1.98-11-.21-12.46-4.89-1.38-4.4,1.47-9.34,6.32-11.56Z"/>
          <path class="cls-26" d="m1342.5,767.12c-2.94-3.33-3.89-7.97-1.92-11.66,2.48-4.63,8.5-5.88,13.45-2.79,1.78,1.11,3.02,2.69,3.96,4.39.31-.75.52-1.52.98-2.22,3.29-5.05,9.13-6.73,13.06-3.76,3.92,2.98,4.44,9.48,1.15,14.53-.18.28-.44.43-.63.69,5.45,1.83,8.85,6.85,7.59,11.24-1.26,4.4-6.71,6.48-12.17,4.66-.21-.07-.37-.22-.58-.3-.16,6-4.05,10.82-8.9,10.82-4.55,0-8.16-4.3-8.73-9.79-.4.19-.71.49-1.13.64-5.42,1.98-11-.21-12.46-4.89-1.38-4.4,1.47-9.34,6.32-11.56Z"/>
          <path class="cls-26" d="m1493.89,692.25c-2.94-3.33-3.89-7.97-1.92-11.66,2.48-4.63,8.5-5.88,13.45-2.79,1.78,1.11,3.02,2.69,3.96,4.39.31-.75.52-1.52.98-2.22,3.29-5.05,9.13-6.73,13.06-3.76,3.92,2.98,4.44,9.48,1.15,14.53-.18.28-.44.43-.63.69,5.45,1.83,8.85,6.85,7.59,11.24-1.26,4.4-6.71,6.48-12.17,4.66-.21-.07-.37-.22-.58-.3-.16,6-4.05,10.82-8.9,10.82-4.55,0-8.16-4.3-8.73-9.79-.4.19-.71.49-1.13.64-5.42,1.98-11-.21-12.46-4.89-1.38-4.4,1.47-9.34,6.32-11.56Z"/>
          <path class="cls-26" d="m1632.82,869.05c-2.94-3.33-3.89-7.97-1.92-11.66,2.48-4.63,8.5-5.88,13.45-2.79,1.78,1.11,3.02,2.69,3.96,4.39.31-.75.52-1.52.98-2.22,3.29-5.05,9.13-6.73,13.06-3.76,3.92,2.98,4.44,9.48,1.15,14.53-.18.28-.44.43-.63.69,5.45,1.83,8.85,6.85,7.59,11.24-1.26,4.4-6.71,6.48-12.17,4.66-.21-.07-.37-.22-.58-.3-.16,6-4.05,10.82-8.9,10.82-4.55,0-8.16-4.3-8.73-9.79-.4.19-.71.49-1.13.64-5.42,1.98-11-.21-12.46-4.89-1.38-4.4,1.47-9.34,6.32-11.56Z"/>
          <path class="cls-26" d="m1716.05,846.36c.11,1.26.84,2.31,1.9,2.53,1.34.28,2.66-.85,2.96-2.52.11-.6.02-1.16-.13-1.68.2.06.39.16.6.18,1.56.17,2.94-.84,3.07-2.26.13-1.42-1.03-2.7-2.59-2.87-.09,0-.16.02-.25.02.63-1.55.27-3.22-.8-3.73-1.07-.51-2.46.34-3.09,1.89-.02.06-.02.12-.05.18-1.18-1.04-2.81-1.03-3.68.05-.82,1.02-.64,2.61.32,3.72-.11.05-.22.07-.33.14-1.35.86-1.94,2.51-1.3,3.68.6,1.1,2.07,1.35,3.37.66Z"/>
          <path class="cls-26" d="m1484.83,848.97c.11,1.26.84,2.31,1.9,2.53,1.34.28,2.66-.85,2.96-2.52.11-.6.02-1.16-.13-1.68.2.06.39.16.6.18,1.56.17,2.94-.84,3.07-2.26.13-1.42-1.03-2.7-2.59-2.87-.09,0-.16.02-.25.02.63-1.55.27-3.22-.8-3.73-1.07-.51-2.46.34-3.09,1.89-.02.06-.02.12-.05.18-1.18-1.04-2.81-1.03-3.68.05-.82,1.02-.64,2.61.32,3.72-.11.05-.22.07-.33.14-1.35.86-1.94,2.51-1.3,3.68.6,1.1,2.07,1.35,3.37.66Z"/>
          <path class="cls-26" d="m1555.12,900.06c-1.17-.11-2.26.46-2.66,1.55-.5,1.37.28,2.98,1.74,3.6.53.22,1.05.24,1.55.17-.1.2-.21.38-.28.61-.45,1.63.22,3.27,1.48,3.68,1.26.4,2.65-.59,3.1-2.21.02-.09.01-.17.03-.26,1.3.95,2.88.89,3.54-.16.66-1.04.15-2.67-1.15-3.63-.05-.04-.11-.05-.16-.08,1.17-1.06,1.47-2.79.64-3.92-.78-1.06-2.25-1.16-3.45-.36-.03-.13-.02-.25-.06-.37-.53-1.6-1.92-2.52-3.1-2.06-1.11.43-1.61,1.94-1.23,3.45Z"/>
          <path class="cls-26" d="m1395.12,909.48c-.52,1.13-.41,2.44.39,3.23,1,.99,2.68.79,3.74-.46.38-.45.59-.97.7-1.51.14.17.25.35.43.5,1.25,1.03,2.91.95,3.71-.18.8-1.13.44-2.88-.81-3.91-.07-.06-.15-.07-.22-.12,1.29-.96,1.8-2.58,1.13-3.62-.67-1.04-2.25-1.1-3.55-.14-.05.04-.08.09-.13.13-.5-1.56-1.89-2.48-3.16-2.05-1.19.4-1.81,1.85-1.54,3.35-.12-.02-.22-.07-.35-.07-1.57-.04-2.87,1.03-2.9,2.39-.03,1.28,1.1,2.32,2.54,2.47Z"/>
          <path class="cls-26" d="m1598.92,778.29c.11,1.26.84,2.31,1.9,2.53,1.34.28,2.66-.85,2.96-2.52.11-.6.02-1.16-.13-1.68.2.06.39.16.6.18,1.56.17,2.94-.84,3.07-2.26.13-1.42-1.03-2.7-2.59-2.87-.09,0-.16.02-.25.02.63-1.55.27-3.22-.8-3.73-1.07-.51-2.46.34-3.09,1.89-.02.06-.02.12-.05.18-1.18-1.04-2.81-1.03-3.68.05-.82,1.02-.64,2.61.32,3.72-.11.05-.22.07-.33.14-1.35.86-1.94,2.51-1.3,3.68.6,1.1,2.07,1.35,3.37.66Z"/>
          <path class="cls-26" d="m1668.33,811.03c.11,1.26.84,2.31,1.9,2.53,1.34.28,2.66-.85,2.96-2.52.11-.6.02-1.16-.13-1.68.2.06.39.16.6.18,1.56.17,2.94-.84,3.07-2.26.13-1.42-1.03-2.7-2.59-2.87-.09,0-.16.02-.25.02.63-1.55.27-3.22-.8-3.73-1.07-.51-2.46.34-3.09,1.89-.02.06-.02.12-.05.18-1.18-1.04-2.81-1.03-3.68.05-.82,1.02-.64,2.61.32,3.72-.11.05-.22.07-.33.14-1.35.86-1.94,2.51-1.3,3.68.6,1.1,2.07,1.35,3.37.66Z"/>
          <path class="cls-26" d="m1557.09,826.21c.46,5.11,3.4,9.37,7.72,10.27,5.43,1.12,10.81-3.45,12.01-10.22.43-2.43.1-4.71-.55-6.82.81.26,1.57.63,2.46.73,6.35.69,11.94-3.41,12.47-9.16.54-5.75-4.18-10.97-10.53-11.66-.35-.04-.66.08-1,.07,2.55-6.3,1.09-13.07-3.26-15.13-4.36-2.06-9.97,1.38-12.53,7.69-.1.25-.1.5-.19.74-4.81-4.23-11.43-4.2-14.96.22-3.32,4.15-2.59,10.58,1.29,15.11-.44.22-.9.29-1.33.56-5.5,3.5-7.86,10.18-5.27,14.93,2.44,4.47,8.39,5.48,13.67,2.68Z"/>
          <path class="cls-26" d="m1449.31,753.18c-4.54,1.53-7.8,5.51-7.72,10.26.1,5.97,5.35,10.71,11.74,10.58,2.29-.04,4.29-.87,6.07-1.98-.07.91-.25,1.79-.16,2.74.68,6.85,5.55,11.91,10.87,11.29,5.33-.61,9.09-6.67,8.41-13.52-.04-.38-.21-.68-.27-1.04,6.24,1.39,12.08-1.53,13.05-6.55.98-5.03-3.3-10.25-9.55-11.66-.25-.06-.47,0-.71-.04,2.85-5.95,1.46-12.93-3.27-15.76-4.45-2.66-10.13-.56-13.44,4.46-.29-.42-.44-.89-.78-1.29-4.3-5.09-10.85-6.21-14.62-2.5-3.55,3.5-3.25,9.98.38,14.99Z"/>
          <path class="cls-26" d="m1537.45,738.21c-.2,2.16.7,4.2,2.43,4.95,2.17.95,4.75-.48,5.77-3.19.36-.97.4-1.95.29-2.88.32.18.6.4.97.52,2.59.85,5.22-.36,5.88-2.71.66-2.34-.9-4.93-3.49-5.78-.14-.05-.28-.02-.42-.06,1.54-2.39,1.45-5.34-.21-6.58-1.66-1.24-4.25-.31-5.79,2.09-.06.09-.08.2-.13.29-1.68-2.18-4.43-2.76-6.24-1.23-1.7,1.43-1.88,4.17-.61,6.39-.2.05-.39.04-.59.12-2.55.97-4.04,3.54-3.32,5.74.67,2.07,3.07,3.02,5.48,2.32Z"/>
        </g>
        <g class="cls-32">
          <path class="cls-28" d="m1678.6,839.72c-15.34,0-29.66-2.26-42-6.13-7.44,8.7-17.41,14.06-28.4,14.06-7.26,0-14.08-2.33-20.02-6.42-9.19,7.52-22.58,12.28-37.54,12.28-12.93,0-24.68-3.57-33.57-9.39-6.04,13.74-18.97,23.27-34,23.27-15.82,0-29.34-10.54-34.91-25.46-15.74,14.79-40.95,14.03-58.83-2.73-7.12-6.67-12.06-14.95-14.74-23.68-6.16,1.9-12.64,2.98-19.36,2.98-29.46,0-54.65-19.59-65.09-47.35-14.23,5.2-47.06,22.4-41.26,69.43-24.57,9.71-26.95,46.54-18.52,57.09,8.43,10.55,30.35,23.29,96.69,28.31,5,16.93,35.78,40.87,86.32,18.44,0,0,46.86,23.72,115.91,7.8,36.99,5.49,71.52-2.84,69.05-15.91,0,0,78.92,8.82,81.38-12.46,19.95,12.22,50.73-4.88,44.39-17.73,0,0,22.87.56,30-8.45,4.25-5.37,10.92-42.86-5.64-78.33-14.85,12.24-40.56,20.36-69.86,20.36Z"/>
        </g>
      </g>
    </g>
    <g id="Ebene_4" data-name="Ebene 4">
      <path class="cls-27" d="m1932.73,967.92l-164.63,7.41s87.12-111.4,34.76-371.04c-12.72-63.08-95.29-56.82-185.3-218.65-6.4-11.51-110.22-40.8-161.16-114.02-10.44-15.01,129.3,71.8,127.64,65.35-10.11-39.48-79.46-246.89-59.73-199.33,128.95,310.84,286.61,385.95,293.28,356.33,55.74-247.46-95.93-471.44-71.86-501.02,25.62-31.49,107.85,335.05,134.73,317.44,23.44-15.34,61.7-270.7,104.06-424.11,18.21-65.95-21.92,242.7-21.92,242.7l159.2,18.28-182.58,20.68-38.23,189.11s8.75,186.76,12.25,271.93c11.49,279.26,19.48,338.96,19.48,338.96Z"/>
      <path class="cls-12" d="m1296.75,162.68c-19.73,13.5-49.66,15.01-71.34-.16-21.68-15.17-29.86-47.77-13.59-64.96,16.27-17.19,54.5-8.19,61.61,16.06-41.92-9.54-66.93-66.45-42.7-97.17,24.23-30.72,86-20.43,105.47,17.58-50.51-20.96-71.24-93.09-36.92-128.41,34.32-35.32,109.69-19.4,134.17,28.34,10.06-35.95,22.22-72.74,49.02-98.26,26.8-25.53,72.3-36.37,107.7-15.15,35.4,21.22,44.19,78.93,9.73,94.56-4.86-40.04,35.46-74.4,76.65-65.32,41.19,9.08,70.69,58.82,56.07,94.57,22.74-4.09,49.53,10.9,58.67,32.83,9.15,21.93-.6,47.8-21.35,56.65,33.41-23.21,92.39-2.63,108.35,37.79,15.96,40.43-16.8,86.27-60.19,84.21.05-10.68.1-21.35.15-32.03,25.83,41.41,5.28,98.66-39.58,110.24-44.86,11.58-101.14-25.85-108.38-72.06,32.38,27.78,47.53,74.4,32.15,109.47-15.38,35.07-62.46,52.79-101.08,35.08-38.63-17.72-58.48-70.36-35.82-101.02,26.25,42.97.28,101.92-47.76,108.4-48.04,6.48-101.05-41.83-97.48-88.82,20.17,32.91-10.16,77.31-47.95,70.19-37.79-7.12-58.93-61.22-33.42-85.52,27.03,35.9-9.91,90.07-52.95,77.65-43.04-12.42-54.82-80.66-16.89-97.81-9.41,12.2-32.26,11.14-43.23-2.01-10.97-13.14-6.61-34.26,70.89-24.91Z"/>
      <path class="cls-12" d="m2064.37,76.06c12.57-3.27,28.41,1.88,37.11,14.29,8.71,12.41,7.42,31.43-3.97,37.35-11.39,5.93-29.77-6.49-29.34-20.84,20.2,13.44,23.54,48.77,5.71,60.33-17.84,11.56-48.24-6.24-51.92-30.39,22.73,21.24,21.26,63.84-2.61,75.84-23.87,12-60.4-11.5-65.03-41.84-11.35,17.17-23.94,34.37-42.23,42.65-18.29,8.28-43.82,5-58.65-13.37-14.82-18.37-9.59-50.9,11.01-52.37-4.28,22.32-31.11,32.62-51.01,19.57-19.9-13.05-26.8-45.45-13.11-61.61-12.53-2.35-23.93-15.68-24.96-29.2-1.03-13.52,8.44-25.37,20.75-25.96-21.34,5.72-48.55-17-49.98-41.74-1.44-24.74,23.42-42.66,45.65-32.92-1.84,5.68-3.68,11.37-5.53,17.05-6.41-27.23,14.03-53.67,39.35-50.91,25.32,2.76,48.26,33.93,44.17,60.02-12.13-21.26-12.09-49.15,1.88-64.79,13.97-15.64,41.49-15.72,58.59,1.43,17.1,17.14,18.48,49.17,1.47,61.01-6.36-28.15,17.19-54.41,43.29-48.3,26.11,6.11,45.5,42.44,35.65,66.79-4.91-21.57,18.43-39.21,36.9-27.88,18.46,11.33,20.27,44.39,2.86,52.27-7.97-24.53,20.48-46.07,40.77-30.87,20.29,15.2,14.82,53.94-7.84,55.53,6.97-4.63,18.69.49,22.16,9.68,3.47,9.19-2.39,19.59-41.14-.84Z"/>
    </g>
    <g id="Ebene_8" data-name="Ebene 8">
      <path class="cls-15" d="m-53.14,934.33c-40.35-23.46,28.08-45.55,28.08-45.55-17.15-55.15,19.9-68.68,10.14-108.89-13.02-53.62,34.47-49.79,34.47-49.79-19.1-21.91,19.15-51.32,45.19-28.04,6.11,5.46,22.98-58.51,62.81-11.79,29.67,34.81-36,39.83,18.38,55.91-1.86-87.01,99.18-21.38,99.18-21.38,49.42-87.39,94.61,4.53,94.61,4.53,61.1-26.35,63.57,25.28,63.57,25.28,86.55-15.32,74.3,59.75,74.3,59.75,42.89-9.96,64.88,15.87,72,28.33,11.85,20.77-2.3,44.43-2.3,44.43-12.2,10.65-40.08,21.27-62.29,24.56,3.93,6.42,4.82,18.12-22.97,20.6,0,0-9.62,11.82-72.73,11.63,2.81,3.92-49.65,25.1-132.15,13.93,2.34,5.74-86.73,17.84-84.59-6,0,0-93.6,13.87-129.64.89,0,0-55.91,2.38-63.93-10.87-11.51,7.24-33.28,2.7-32.12-7.54Z"/>
    </g>
    <g id="Layer_3" data-name="Layer 3">
      <g>
        <ellipse class="cls-21" cx="385.37" cy="956.66" rx="180.65" ry="47.05"/>
        <path class="cls-28" d="m557.53,936.67c22.05-22.67-18.04-37.1-18.04-37.1-4.01-51.52-36.09-58.47-36.09-58.47-20.05-58.47-74.18-33.37-74.18-33.37,4.01-52.69-48.12-46.23-48.12-46.23-44.11-37.1-76.19,14.43-76.19,14.43-36.09-18.55-42.1,22.67-42.1,22.67-58.14,24.73-14.03,70.07-14.03,70.07-60.15,28.85-30.08,68.01-30.08,68.01,7.44,8.31,17.22,14.27,30.08,15.63-1.97,5.74-1.97,15.8,14.03,16.11,0,0,6.01,9.47,42.1,5.21-1.44,3.53,29.49,18.22,76.19,3.32-1.09,5.05,50.38,9.6,48.12-10.63,0,0,54.13,5.77,74.18-7.67,0,0,32.08-1.6,36.09-13.44,6.9,5.44,19.15.15,18.04-8.53Z"/>
        <g>
          <path class="cls-20" d="m459.5,831.94c-1.32-1.43-1.75-3.42-.87-5,1.11-1.98,3.83-2.52,6.06-1.2.8.48,1.36,1.15,1.78,1.88.14-.32.24-.65.44-.95,1.48-2.17,4.11-2.89,5.88-1.61,1.77,1.28,2,4.07.52,6.23-.08.12-.2.18-.28.29,2.45.78,3.98,2.94,3.42,4.82-.57,1.88-3.02,2.78-5.48,2-.1-.03-.17-.09-.26-.13-.07,2.57-1.82,4.64-4.01,4.64-2.05,0-3.67-1.85-3.93-4.2-.18.08-.32.21-.51.28-2.44.85-4.95-.09-5.61-2.1-.62-1.89.66-4.01,2.85-4.96Z"/>
          <path class="cls-20" d="m293.31,875.85c-1.32-1.43-1.75-3.42-.87-5,1.11-1.98,3.83-2.52,6.06-1.2.8.48,1.36,1.15,1.78,1.88.14-.32.24-.65.44-.95,1.48-2.17,4.11-2.89,5.88-1.61,1.77,1.28,2,4.07.52,6.23-.08.12-.2.18-.28.29,2.45.78,3.98,2.94,3.42,4.82-.57,1.88-3.02,2.78-5.48,2-.1-.03-.17-.09-.26-.13-.07,2.57-1.82,4.64-4.01,4.64-2.05,0-3.67-1.85-3.93-4.2-.18.08-.32.21-.51.28-2.44.85-4.95-.09-5.61-2.1-.62-1.89.66-4.01,2.85-4.96Z"/>
          <path class="cls-20" d="m246.71,904.25c-2.23-2.4-2.95-5.76-1.46-8.42,1.88-3.34,6.44-4.25,10.2-2.02,1.35.8,2.29,1.94,3,3.17.24-.54.4-1.1.74-1.6,2.49-3.65,6.92-4.86,9.9-2.71,2.97,2.15,3.37,6.84.87,10.49-.14.2-.33.31-.48.5,4.13,1.32,6.71,4.95,5.75,8.12-.95,3.17-5.08,4.68-9.22,3.37-.16-.05-.28-.16-.44-.22-.12,4.33-3.07,7.81-6.74,7.81-3.45,0-6.19-3.11-6.62-7.07-.3.14-.53.35-.86.46-4.11,1.43-8.33-.15-9.44-3.53-1.05-3.18,1.11-6.75,4.79-8.35Z"/>
          <path class="cls-20" d="m346.57,855.01c-2.23-2.4-2.95-5.76-1.46-8.42,1.88-3.34,6.44-4.25,10.2-2.02,1.35.8,2.29,1.94,3,3.17.24-.54.4-1.1.74-1.6,2.49-3.65,6.92-4.86,9.9-2.71,2.97,2.15,3.37,6.84.87,10.49-.14.2-.33.31-.48.5,4.13,1.32,6.71,4.95,5.75,8.12-.95,3.17-5.08,4.68-9.22,3.37-.16-.05-.28-.16-.44-.22-.12,4.33-3.07,7.81-6.74,7.81-3.45,0-6.19-3.11-6.62-7.07-.3.14-.53.35-.86.46-4.11,1.43-8.33-.15-9.44-3.53-1.05-3.18,1.11-6.75,4.79-8.35Z"/>
          <path class="cls-20" d="m352.2,788.35c-2.23-2.4-2.95-5.76-1.46-8.42,1.88-3.34,6.44-4.25,10.2-2.02,1.35.8,2.29,1.94,3,3.17.24-.54.4-1.1.74-1.6,2.49-3.65,6.92-4.86,9.9-2.71,2.97,2.15,3.37,6.84.87,10.49-.14.2-.33.31-.48.5,4.13,1.32,6.71,4.95,5.75,8.12-.95,3.17-5.08,4.68-9.22,3.37-.16-.05-.28-.16-.44-.22-.12,4.33-3.07,7.81-6.74,7.81-3.45,0-6.19-3.11-6.62-7.07-.3.14-.53.35-.86.46-4.11,1.43-8.33-.15-9.44-3.53-1.05-3.18,1.11-6.75,4.79-8.35Z"/>
          <path class="cls-20" d="m464.72,893.46c-2.23-2.4-2.95-5.76-1.46-8.42,1.88-3.34,6.44-4.25,10.2-2.02,1.35.8,2.29,1.94,3,3.17.24-.54.4-1.1.74-1.6,2.49-3.65,6.92-4.86,9.9-2.71,2.97,2.15,3.37,6.84.87,10.49-.14.2-.33.31-.48.5,4.13,1.32,6.71,4.95,5.75,8.12-.95,3.17-5.08,4.68-9.22,3.37-.16-.05-.28-.16-.44-.22-.12,4.33-3.07,7.81-6.74,7.81-3.45,0-6.19-3.11-6.62-7.07-.3.14-.53.35-.86.46-4.11,1.43-8.33-.15-9.44-3.53-1.05-3.18,1.11-6.75,4.79-8.35Z"/>
          <path class="cls-20" d="m520.6,899.62c.09.91.63,1.67,1.44,1.83,1.01.2,2.02-.61,2.24-1.82.08-.43.02-.84-.1-1.21.15.05.29.11.46.13,1.19.12,2.23-.61,2.33-1.63.1-1.02-.78-1.95-1.97-2.07-.07,0-.12.01-.19.01.48-1.12.2-2.32-.61-2.69-.81-.37-1.86.25-2.34,1.37-.02.04-.02.09-.03.13-.9-.75-2.13-.75-2.79.04-.62.74-.48,1.88.24,2.69-.08.04-.17.05-.25.1-1.03.62-1.47,1.81-.98,2.65.46.8,1.57.97,2.55.48Z"/>
          <path class="cls-20" d="m352.03,910.02c.09.91.63,1.67,1.44,1.83,1.01.2,2.02-.61,2.24-1.82.08-.43.02-.84-.1-1.21.15.05.29.11.46.13,1.19.12,2.23-.61,2.33-1.63.1-1.02-.78-1.95-1.97-2.07-.07,0-.12.01-.19.01.48-1.12.2-2.32-.61-2.69-.81-.37-1.86.25-2.34,1.37-.02.04-.02.09-.03.13-.9-.75-2.13-.75-2.79.04-.62.74-.48,1.88.24,2.69-.08.04-.17.05-.25.1-1.03.62-1.47,1.81-.98,2.65.46.8,1.57.97,2.55.48Z"/>
          <path class="cls-20" d="m431.82,850.47c.09.91.63,1.67,1.44,1.83,1.01.2,2.02-.61,2.24-1.82.08-.43.02-.84-.1-1.21.15.05.29.11.46.13,1.19.12,2.23-.61,2.33-1.63.1-1.02-.78-1.95-1.97-2.07-.07,0-.12.01-.19.01.48-1.12.2-2.32-.61-2.69-.81-.37-1.86.25-2.34,1.37-.02.04-.02.09-.03.13-.9-.75-2.13-.75-2.79.04-.62.74-.48,1.88.24,2.69-.08.04-.17.05-.25.1-1.03.62-1.47,1.81-.98,2.65.46.8,1.57.97,2.55.48Z"/>
          <path class="cls-20" d="m398.88,902.27c.35,3.69,2.58,6.77,5.85,7.41,4.12.81,8.19-2.49,9.1-7.38.33-1.76.07-3.4-.41-4.93.62.19,1.19.46,1.86.53,4.82.5,9.05-2.46,9.46-6.61.41-4.15-3.17-7.92-7.98-8.42-.26-.03-.5.06-.76.05,1.93-4.55.83-9.44-2.47-10.92-3.3-1.49-7.56,1-9.5,5.55-.08.18-.07.36-.14.54-3.65-3.05-8.66-3.03-11.34.16-2.52,3-1.96,7.64.98,10.91-.33.16-.68.21-1.01.4-4.17,2.52-5.96,7.35-4,10.78,1.85,3.23,6.36,3.96,10.36,1.93Z"/>
          <path class="cls-20" d="m289.07,809.99c-3.44,1.11-5.91,3.98-5.85,7.41.07,4.31,4.06,7.73,8.9,7.64,1.74-.03,3.26-.63,4.6-1.43-.05.66-.19,1.29-.12,1.98.51,4.95,4.2,8.6,8.24,8.15,4.04-.44,6.89-4.81,6.38-9.76-.03-.27-.16-.49-.21-.75,4.73,1.01,9.15-1.1,9.89-4.73.74-3.63-2.5-7.4-7.24-8.42-.19-.04-.36,0-.54-.03,2.16-4.3,1.11-9.34-2.48-11.38-3.37-1.92-7.68-.41-10.19,3.22-.22-.3-.34-.64-.59-.93-3.26-3.68-8.22-4.49-11.08-1.81-2.69,2.52-2.46,7.21.29,10.82Z"/>
          <path class="cls-20" d="m385.22,821.53c-.15,1.56.53,3.03,1.84,3.57,1.65.68,3.6-.35,4.37-2.3.28-.7.3-1.41.22-2.08.24.13.46.29.73.38,1.96.61,3.96-.26,4.46-1.95.5-1.69-.69-3.56-2.65-4.17-.11-.03-.21-.02-.32-.04,1.16-1.73,1.1-3.85-.16-4.75-1.25-.9-3.22-.22-4.39,1.51-.05.07-.06.14-.1.21-1.27-1.58-3.36-1.99-4.73-.89-1.29,1.03-1.43,3.01-.46,4.62-.15.04-.3.03-.45.08-1.93.7-3.06,2.55-2.52,4.14.51,1.5,2.33,2.18,4.15,1.68Z"/>
        </g>
        <g class="cls-32">
          <path class="cls-28" d="m232.9,834.07c0-1.73.08-3.44.22-5.13-.49,3.14-.45,6.25-.04,9.27-.09-1.37-.17-2.75-.17-4.15Z"/>
          <path class="cls-28" d="m539.49,899.57c-.01-.16-.03-.3-.04-.46-6.08,14.3-18.29,24.09-32.39,24.09-10.69,0-20.28-5.65-26.95-14.6-4.74,3.03-10.43,4.81-16.55,4.81-4.06,0-7.93-.79-11.45-2.2-7.62,8.36-20.27,13.84-34.62,13.84-7.33,0-14.21-1.43-20.22-3.94-6.93,7.47-17.25,12.23-28.79,12.23-18.17,0-33.34-11.75-36.94-27.41-19.39,5.51-37.12,2.03-43.99-10.2-1.68-2.99-2.57-6.29-2.79-9.79-2.53.54-5.13.87-7.8.87-12.52,0-23.79-6.28-31.81-16.33-55.21,28.65-26.45,66.17-26.45,66.17,7.44,8.31,17.22,14.27,30.08,15.63-1.97,5.74-1.97,15.8,14.03,16.11,0,0,6.01,9.47,42.1,5.21-1.44,3.53,29.49,18.22,76.19,3.32-1.09,5.05,50.38,9.6,48.12-10.63,0,0,54.13,5.77,74.18-7.67,0,0,32.08-1.6,36.09-13.44,6.9,5.44,19.15.15,18.04-8.53,22.05-22.67-18.04-37.1-18.04-37.1Z"/>
        </g>
      </g>
      <g>
        <ellipse class="cls-21" cx="1878.82" cy="1014.52" rx="180.65" ry="47.05"/>
        <path class="cls-28" d="m2050.39,1000.23c22.05-22.67-18.04-37.1-18.04-37.1-4.01-51.52-36.09-58.47-36.09-58.47-20.05-58.47-74.18-33.37-74.18-33.37,4.01-52.69-48.12-46.23-48.12-46.23-44.11-37.1-76.19,14.43-76.19,14.43-36.09-18.55-42.1,22.67-42.1,22.67-58.14,24.73-14.03,70.07-14.03,70.07-60.15,28.85-30.08,68.01-30.08,68.01,7.44,8.31,17.22,14.27,30.08,15.63-1.97,5.74-1.97,15.8,14.03,16.11,0,0,6.01,9.47,42.1,5.21-1.44,3.53,29.49,18.22,76.19,3.32-1.09,5.05,50.38,9.6,48.12-10.63,0,0,54.13,5.77,74.18-7.67,0,0,32.08-1.6,36.09-13.44,6.9,5.44,19.15.15,18.04-8.53Z"/>
        <g>
          <path class="cls-20" d="m1786.17,939.41c-1.32-1.43-1.75-3.42-.87-5,1.11-1.98,3.83-2.52,6.06-1.2.8.48,1.36,1.15,1.78,1.88.14-.32.24-.65.44-.95,1.48-2.17,4.11-2.89,5.88-1.61,1.77,1.28,2,4.07.52,6.23-.08.12-.2.18-.28.29,2.45.78,3.98,2.94,3.42,4.82-.57,1.88-3.02,2.78-5.48,2-.1-.03-.17-.09-.26-.13-.07,2.57-1.82,4.64-4.01,4.64-2.05,0-3.67-1.85-3.93-4.2-.18.08-.32.21-.51.28-2.44.85-4.95-.09-5.61-2.1-.62-1.89.66-4.01,2.85-4.96Z"/>
          <path class="cls-20" d="m1739.57,967.81c-2.23-2.4-2.95-5.76-1.46-8.42,1.88-3.34,6.44-4.25,10.2-2.02,1.35.8,2.29,1.94,3,3.17.24-.54.4-1.1.74-1.6,2.49-3.65,6.92-4.86,9.9-2.71,2.97,2.15,3.37,6.84.87,10.49-.14.2-.33.31-.48.5,4.13,1.32,6.71,4.95,5.75,8.12-.95,3.17-5.08,4.68-9.22,3.37-.16-.05-.28-.16-.44-.22-.12,4.33-3.07,7.81-6.74,7.81-3.45,0-6.19-3.11-6.62-7.07-.3.14-.53.35-.86.46-4.11,1.43-8.33-.15-9.44-3.53-1.05-3.18,1.11-6.75,4.79-8.35Z"/>
          <path class="cls-20" d="m1839.43,918.56c-2.23-2.4-2.95-5.76-1.46-8.42,1.88-3.34,6.44-4.25,10.2-2.02,1.35.8,2.29,1.94,3,3.17.24-.54.4-1.1.74-1.6,2.49-3.65,6.92-4.86,9.9-2.71,2.97,2.15,3.37,6.84.87,10.49-.14.2-.33.31-.48.5,4.13,1.32,6.71,4.95,5.75,8.12-.95,3.17-5.08,4.68-9.22,3.37-.16-.05-.28-.16-.44-.22-.12,4.33-3.07,7.81-6.74,7.81-3.45,0-6.19-3.11-6.62-7.07-.3.14-.53.35-.86.46-4.11,1.43-8.33-.15-9.44-3.53-1.05-3.18,1.11-6.75,4.79-8.35Z"/>
          <path class="cls-20" d="m1845.06,851.91c-2.23-2.4-2.95-5.76-1.46-8.42,1.88-3.34,6.44-4.25,10.2-2.02,1.35.8,2.29,1.94,3,3.17.24-.54.4-1.1.74-1.6,2.49-3.65,6.92-4.86,9.9-2.71,2.97,2.15,3.37,6.84.87,10.49-.14.2-.33.31-.48.5,4.13,1.32,6.71,4.95,5.75,8.12-.95,3.17-5.08,4.68-9.22,3.37-.16-.05-.28-.16-.44-.22-.12,4.33-3.07,7.81-6.74,7.81-3.45,0-6.19-3.11-6.62-7.07-.3.14-.53.35-.86.46-4.11,1.43-8.33-.15-9.44-3.53-1.05-3.18,1.11-6.75,4.79-8.35Z"/>
          <path class="cls-20" d="m1844.89,973.58c.09.91.63,1.67,1.44,1.83,1.01.2,2.02-.61,2.24-1.82.08-.43.02-.84-.1-1.21.15.05.29.11.46.13,1.19.12,2.23-.61,2.33-1.63.1-1.02-.78-1.95-1.97-2.07-.07,0-.12.01-.19.01.48-1.12.2-2.32-.61-2.69-.81-.37-1.86.25-2.34,1.37-.02.04-.02.09-.03.13-.9-.75-2.13-.75-2.79.04-.62.74-.48,1.88.24,2.69-.08.04-.17.05-.25.1-1.03.62-1.47,1.81-.98,2.65.46.8,1.57.97,2.55.48Z"/>
          <path class="cls-20" d="m1891.73,965.83c.35,3.69,2.58,6.77,5.85,7.41,4.12.81,8.19-2.49,9.1-7.38.33-1.76.07-3.4-.41-4.93.62.19,1.19.46,1.86.53,4.82.5,9.05-2.46,9.46-6.61.41-4.15-3.17-7.92-7.98-8.42-.26-.03-.5.06-.76.05,1.93-4.55.83-9.44-2.47-10.92-3.3-1.49-7.56,1-9.5,5.55-.08.18-.07.36-.14.54-3.65-3.05-8.66-3.03-11.34.16-2.52,3-1.96,7.64.98,10.91-.33.16-.68.21-1.01.4-4.17,2.52-5.96,7.35-4,10.78,1.85,3.23,6.36,3.96,10.36,1.93Z"/>
          <path class="cls-20" d="m1781.93,873.55c-3.44,1.11-5.91,3.98-5.85,7.41.07,4.31,4.06,7.73,8.9,7.64,1.74-.03,3.26-.63,4.6-1.43-.05.66-.19,1.29-.12,1.98.51,4.95,4.2,8.6,8.24,8.15,4.04-.44,6.89-4.81,6.38-9.76-.03-.27-.16-.49-.21-.75,4.73,1.01,9.15-1.1,9.89-4.73.74-3.63-2.5-7.4-7.24-8.42-.19-.04-.36,0-.54-.03,2.16-4.3,1.11-9.34-2.48-11.38-3.37-1.92-7.68-.41-10.19,3.22-.22-.3-.34-.64-.59-.93-3.26-3.68-8.22-4.49-11.08-1.81-2.69,2.52-2.46,7.21.29,10.82Z"/>
          <path class="cls-20" d="m1878.08,885.09c-.15,1.56.53,3.03,1.84,3.57,1.65.68,3.6-.35,4.37-2.3.28-.7.3-1.41.22-2.08.24.13.46.29.73.38,1.96.61,3.96-.26,4.46-1.95.5-1.69-.69-3.56-2.65-4.17-.11-.03-.21-.02-.32-.04,1.16-1.73,1.1-3.85-.16-4.75-1.25-.9-3.22-.22-4.39,1.51-.05.07-.06.14-.1.21-1.27-1.58-3.36-1.99-4.73-.89-1.29,1.03-1.43,3.01-.46,4.62-.15.04-.3.03-.45.08-1.93.7-3.06,2.55-2.52,4.14.51,1.5,2.33,2.18,4.15,1.68Z"/>
        </g>
        <g class="cls-32">
          <path class="cls-28" d="m1725.76,897.63c0-1.73.08-3.44.22-5.13-.49,3.14-.45,6.25-.04,9.27-.09-1.37-.17-2.75-.17-4.15Z"/>
          <path class="cls-28" d="m2032.35,963.13c-.01-.16-.03-.3-.04-.46-6.08,14.3-18.29,24.09-32.39,24.09-10.69,0-20.28-5.65-26.95-14.6-4.74,3.03-10.43,4.81-16.55,4.81-4.06,0-7.93-.79-11.45-2.2-7.62,8.36-20.27,13.84-34.62,13.84-7.33,0-14.21-1.43-20.22-3.94-6.93,7.47-17.25,12.23-28.79,12.23-18.17,0-33.34-11.75-36.94-27.41-19.39,5.51-37.12,2.03-43.99-10.2-1.68-2.99-2.57-6.29-2.79-9.79-2.53.54-5.13.87-7.8.87-12.52,0-23.79-6.28-31.81-16.33-55.21,28.65-26.45,66.17-26.45,66.17,7.44,8.31,17.22,14.27,30.08,15.63-1.97,5.74-1.97,15.8,14.03,16.11,0,0,6.01,9.47,42.1,5.21-1.44,3.53,29.49,18.22,76.19,3.32-1.09,5.05,50.38,9.6,48.12-10.63,0,0,54.13,5.77,74.18-7.67,0,0,32.08-1.6,36.09-13.44,6.9,5.44,19.15.15,18.04-8.53,22.05-22.67-18.04-37.1-18.04-37.1Z"/>
        </g>
      </g>
    </g>
    <g id="Ebene_6" data-name="Ebene 6">
      <path class="cls-13" d="m64.49,974.7c-11.31,43.4,177.26,53.6,168.51,6.13-54.31-294.62-59.83-570.76-45.36-579.67,114.64-70.62,171.67-192.76,171.67-192.76,0,0-119.7,162.8-209.49,171.2C20.93,391.65-74.29,224.08-54.94,181.46c3.53-7.78-32.19,22.49,16.72,110.48,35.61,64.05,163.36,114.38,166.38,120.74,42.08,88.59,11.39,274.03-63.68,562.03Z"/>
      <path class="cls-13" d="m167.62,384.79c.85,8.21-43.3,8.08-40.37.19,27.21-73.04-1.13-242.08,11.01-242.08,5.2,0,18.86,139.96,29.36,241.89Z"/>
      <path class="cls-13" d="m175.8,751.36c-6.28,6.83-39.26-17.05-30.42-21.59,81.91-42.04,203.02-188.5,212.12-181.97,3.9,2.8-103.73,118.8-181.7,203.56Z"/>
      <path class="cls-14" d="m280.1,648.51c.74-1.12,2.46-.65,2.55.69.94,13.75,13.53,26.92,30.21,30.06,18.65,3.51,39.48-6.09,45.84-20.69.39-.89,1.52-1.13,2.24-.47,17.19,16.14,55.51,11.38,65.82-8.32.39-.74.06-1.65-.71-1.96l-19.3-7.77c16.69,6.75,34.18,13.65,52.82,13.5,18.64-.15,38.59-9.79,41.33-24.79,2.62-14.29-18.33-28.55-33.28-22.09-1.03.45-1.17,1.87-.22,2.48,20.47,13.12,54.75,8.78,68.86-9.22,14.57-18.6,3.8-46.92-21.14-55.57,15.02,8.16,35.38,10.62,51.4,3.85,16.02-6.77,25.38-23.74,18.17-37.21-6.61-12.35-28-17.91-41.43-10.79-1.26.67-.85,2.58.58,2.65,25.02,1.32,48.76-20.29,42.77-40.47s-38.48-30.36-60.01-20.49c-1.18.54-2.41-.63-1.88-1.82,8.22-18.36-4.38-41.78-27.31-48.37-21.56-6.2-47.49,3.85-56.97,20.44-.89,1.56,1.44,2.94,2.41,1.42,9.11-14.22,2.14-34.94-16.27-41.74-20.09-7.42-46.55,4.41-50.86,21.72-.27,1.11-1.68,1.47-2.41.59-17.28-20.86-38.7-54.17-77.83-17.9-12.81,11.87,3.98,21.4,2.4,20.88-12.51-4.08-25.59-6.94-38.95-6.41-18.07.71-36.74,9.05-42.54,23-5.41,13.02,5.08,29.67,21.23,31.77,1.31.17,2.11-1.45,1.17-2.38-13.21-13.02-40.42-15.22-56.02-3.79-15.46,11.32-15.77,33.26-1.66,45.4.97.83.44,2.41-.83,2.46-22.5.81-42.72,18.25-41.32,36.75,1.49,19.63,26.96,35.65,50.68,31.88-25.56,1.09-45.94,24.16-39.07,44.22,6.7,19.57,37.43,30.68,59.88,22.08.83-.32,1.74.23,1.86,1.11,4.09,30.43,51.41,50.16,67.82,25.31Z"/>
      <path class="cls-14" d="m296.3,255.45c-9.34,13.09,1.55,32.48,19.82,35.31s37.14-11.97,34.35-26.93c14.25,19.93,51.38,25.72,73.68,11.5,22.3-14.22,24.26-44.94,3.9-60.97,9.58,13.04,33.48,17.24,48.82,8.58s18.86-28.36,7.19-40.22c16.15,12.08,47.24,3.78,51.45-13.74,4.21-17.52-20.74-34.74-41.3-28.5,21.58,2.87,43.3-14.7,39.9-32.28s-30.7-28.87-50.15-20.75c23.59,2.3,40.65-26.08,23.96-39.82-16.7-13.75-51.76-.19-49.21,19.03-1.03-13.58-2.21-27.63-10.07-39.64s-24.36-21.41-40.73-18.68c-16.38,2.73-26.76,21.34-15.12,31.1,3-19.31-23.2-37.44-46.14-31.92-22.94,5.52-32.82,32.32-17.4,47.21-4.84-21.81-39.19-35.29-63.17-24.79s-29.1,41.25-9.41,56.56c-7.11-22.45-50.34-29.24-67.21-10.56-16.86,18.68,4.03,50.23,32.48,49.03-14.22-14.9-48.38-10.75-56.63,6.88-8.25,17.63,13.86,39.22,36.66,35.8-21.67-11.04-55.09,4.6-54.28,25.39.81,20.79,35.39,34.67,56.15,22.53-17.46,5.46-26.72,23.89-18.95,37.74,7.77,13.85,30.95,20.23,47.46,13.07-7.45,15.99,4.93,36.11,25.13,40.82s43.8-7,38.84-51.75Z"/>
      <path class="cls-14" d="m-4.38,217.14c-12.5,2.77-26.99-3.56-31.06-13.57-6.19,13.07-25.96,20.68-42.31,16.28-16.34-4.4-26.63-20.11-22.02-33.6-18.7,1.27-37.8-7.91-45.46-21.85-7.66-13.94-3.33-31.65,10.31-42.14-15.27-5.26-23.84-20.79-18.53-33.57,5.31-12.78,23.7-20.9,39.76-17.54-9.86-12.46-9.63-29.71.58-41.99s29.78-18.88,47.67-16.07c-14.29-17.68-6.78-44.52,15.52-55.42,22.29-10.9,54.94-3.7,67.42,14.87-2.23-14.66,9.1-29.97,26.07-35.22,16.97-5.25,37.94.06,48.25,12.21,1.96-19.47,26.56-35.38,50.31-32.53,23.75,2.85,41.67,23.86,36.64,42.96,4.64-20.6,36.73-33.5,59.66-24,22.93,9.51,28.96,38.21,11.21,53.38,15.93-6.93,38.46.02,44.74,13.81,6.28,13.78-5.24,31.01-22.87,34.2-.16-5.51,7.02-10.31,13.63-9.11s10.61,8.03,7.59,12.96c9.99,13.05,7.78,31.47-5.12,42.71-12.9,11.23-35.34,14.27-52.01,7.04,38.04-5.57,77.62,23.26,75,54.64-2.61,31.39-46.6,55.61-83.37,45.91,17.04,19.46,9.62,50.08-15.23,62.81-24.85,12.73-61.99,4.94-76.18-15.97-11.93,12.44-33.21,18.37-52,14.51-18.79-3.86-34.05-17.31-37.29-32.87-3.24,10.05-19.33,15.7-30.54,10.73-11.21-4.97-14.1-19.04-5.48-26.7"/>
      <path class="cls-14" d="m53.01,246.1c16.93-1.16,33.43,10.98,33.74,24.8.3,13.82-15.66,26.43-32.63,25.76,22.14-3.75,44.92,15.44,39.54,33.32-5.38,17.87-36.47,26.33-53.98,14.69,10.82,14.48,3.52,35.85-14.94,43.69-18.46,7.84-44.18.51-52.59-14.99-2.87,16.79-22.96,30.4-43.77,29.66s-39.35-15.74-40.4-32.67c-17.89,6.5-41.01,1.33-52.31-11.69-11.3-13.02-9.54-32.48,3.98-44.02,4.05-3.46,9.87-6.37,15.54-5.11,5.66,1.26,8.27,8.67,3.04,10.83-26.35,10.88-62.64.5-74.83-21.41s2.19-50.95,29.63-59.87c-13.55-30.13,12.2-67.64,50.84-74.05,10.44-14.9,34-22.78,54.3-18.16,20.3,4.62,35.41,21.31,34.83,38.45,10.32-14.42,34.15-21.29,53.33-15.39s31.44,23.9,27.44,40.27c14.01-9.41,38.76-3.83,44.8,10.12,6.05,13.94-8.91,30.93-25.53,25.79Z"/>
    </g>
    <g id="Ebene_7" data-name="Ebene 7">
      <path class="cls-28" d="m233.93,1022.38c15.78-15.83-12.91-25.91-12.91-25.91,6.37-47.81-37.55-48.83-37.55-48.83-18.52-31.95-33.19-12.77-41.36-15.32,2.87-36.8-36.77-21.45-36.77-21.45-16.85-36.77-52.19-.77-52.19-.77-25.83-12.96-21.34,29.88-21.34,29.88-41.61,17.27-18.83,34.9-18.83,34.9-43.04,20.15-21.52,47.5-21.52,47.5,5.32,5.8,12.33,9.97,21.52,10.92-1.41,4.01-1.41,11.03,10.04,11.25,0,0,4.3,6.62,30.13,3.64-1.03,2.47,21.1,12.73,54.52,2.32-.78,3.53,36.05,6.71,34.43-7.42,0,0,38.74,4.03,53.08-5.36,0,0,22.96-1.12,25.83-9.39,4.94,3.8,13.71.1,12.91-5.96Z"/>
    </g>
    <g id="Ebene_13" data-name="Ebene 13">
      <line class="cls-1" x1="1581.56" y1="446.78" x2="1580" y2="334.37"/>
      <g>
        <polygon class="cls-16" points="1518.13 573.54 1536.41 560.24 1645.6 566.4 1607.18 584.17 1518.13 573.54"/>
        <polygon class="cls-10" points="1518.49 573.58 1517.5 583.54 1606.44 593.54 1645.11 576.58 1645.6 566.4 1607.22 584.22 1518.49 573.58"/>
        <polygon class="cls-18" points="1606.44 579.09 1634.28 567.86 1652.27 540.29 1619.41 544.53 1606.44 579.09"/>
        <polygon class="cls-8" points="1555.34 428.96 1601.8 428.96 1661.46 536.79 1624.05 546.77 1555.34 428.96"/>
        <rect class="cls-4" x="1537.41" y="480" width="43.94" height="13.25" transform="translate(37.67 -107.39) rotate(3.99)"/>
        <rect class="cls-4" x="1533.48" y="492.12" width="56.48" height="13.25" transform="translate(38.51 -107.51) rotate(3.99)"/>
        <rect class="cls-4" x="1526.2" y="505.12" width="69.72" height="13.25" transform="translate(39.41 -107.42) rotate(3.99)"/>
        <rect class="cls-4" x="1519.92" y="518.48" width="82.28" height="13.25" transform="translate(40.34 -107.39) rotate(3.99)"/>
        <rect class="cls-4" x="1513.67" y="532.15" width="99.01" height="10.81" transform="translate(41.22 -107.54) rotate(3.99)"/>
        <polygon class="cls-4" points="1518.49 552.96 1511.02 539.51 1619.34 546.77 1613.91 559.1 1518.49 552.96"/>
        <polygon class="cls-4" points="1524.98 563.93 1518.49 552.96 1613.91 559.1 1609.75 570.54 1524.98 563.93"/>
        <polygon class="cls-4" points="1529.42 572.39 1524.98 563.93 1609.75 570.54 1606.44 579.09 1529.42 572.39"/>
        <rect class="cls-4" x="1541.63" y="467.43" width="34.51" height="13.25" transform="translate(36.78 -107.36) rotate(3.99)"/>
        <rect class="cls-4" x="1541.63" y="467.43" width="34.51" height="13.25" transform="translate(36.78 -107.36) rotate(3.99)"/>
        <rect class="cls-4" x="1548.06" y="459.62" width="19.98" height="10.72" transform="translate(36.14 -107.32) rotate(3.99)"/>
        <polygon class="cls-29" points="1556.8 457.08 1563.43 465.65 1516.46 549.3 1510.17 538.73 1556.8 457.08"/>
        <polygon class="cls-30" points="1553.94 448.42 1560.8 455.01 1512.47 542.73 1505.38 545.67 1553.94 448.42"/>
        <polygon class="cls-5" points="1495.28 536.12 1505.52 545.66 1553.94 453.64 1614.92 556.76 1624.05 546.77 1555.16 428.96 1495.28 536.12"/>
        <polygon class="cls-7" points="1624.05 546.77 1614.92 556.76 1652.56 546 1660.7 536.79 1624.05 546.77"/>
        <path class="cls-25" d="m1550.87,544.45l.7-29.17c0-6.57,5.32-11.89,11.89-11.89h2.16c6.29,0,11.4,5.1,11.4,11.4l.17,29.84-26.32-.17Z"/>
        <polygon class="cls-11" points="1542.81 541.21 1535.73 546.77 1575.64 548.59 1583.09 543.64 1542.81 541.21"/>
        <polygon class="cls-30" points="1535.88 546.68 1535.9 550.97 1575.3 553.07 1575.25 548.59 1535.88 546.68"/>
        <polyline class="cls-24" points="1583.09 543.64 1582.9 548.35 1575.31 553.05 1575.17 548.62"/>
        <polygon class="cls-11" points="1566.32 428.84 1577.29 428.73 1645.75 543.52 1634.79 546.15 1566.32 428.84"/>
        <polygon class="cls-22" points="1555.34 428.96 1566.32 428.84 1634.79 546.15 1624.05 548.59 1555.34 428.96"/>
        <polygon class="cls-22" points="1577.29 428.73 1588.38 428.73 1656.63 541.2 1645.9 543.64 1577.29 428.73"/>
        <polygon class="cls-11" points="1588.38 428.73 1601.8 428.96 1666.49 539.51 1656.63 541.2 1588.38 428.73"/>
      </g>
    </g>
  </g>
</svg>