<?xml version="1.0" encoding="UTF-8"?>
<svg id="Ebene_2" xmlns="http://www.w3.org/2000/svg" xmlns:xlink="http://www.w3.org/1999/xlink" viewBox="0 0 917.04 1538.38">
  <defs>
    <style>
      .cls-1 {
        stroke: #000;
        stroke-linecap: round;
        stroke-width: 25.48px;
      }

      .cls-1, .cls-2, .cls-3 {
        fill: none;
      }

      .cls-1, .cls-3 {
        stroke-miterlimit: 10;
      }

      .cls-4 {
        clip-path: url(#clippath-1);
      }

      .cls-5 {
        clip-path: url(#clippath-3);
      }

      .cls-6 {
        fill: #0d0d0d;
      }

      .cls-3 {
        stroke: #9d9d9c;
        stroke-width: 10px;
      }

      .cls-7 {
        clip-path: url(#clippath-2);
      }

      .cls-8 {
        fill: #ededed;
      }

      .cls-9 {
        fill: #242424;
      }

      .cls-10 {
        clip-path: url(#clippath);
      }
    </style>
    <clipPath id="clippath">
      <polygon class="cls-2" points="477.01 1128.23 477.01 1128.23 917.04 1128.23 917.04 1538.38 477.01 1538.38 477.01 1128.23"/>
    </clipPath>
    <clipPath id="clippath-1">
      <polygon class="cls-2" points="440.03 1128.23 440.03 1128.23 0 1128.23 0 1538.38 440.03 1538.38 440.03 1128.23"/>
    </clipPath>
    <clipPath id="clippath-2">
      <polygon class="cls-2" points="461.92 1280.02 461.92 1280.02 512.83 1280.02 512.83 1338.28 461.92 1338.28 461.92 1280.02"/>
    </clipPath>
    <clipPath id="clippath-3">
      <polygon class="cls-2" points="455.12 1280.02 455.12 1280.02 404.21 1280.02 404.21 1338.28 455.12 1338.28 455.12 1280.02"/>
    </clipPath>
  </defs>
  <g id="Verloren">
    <g>
      <line class="cls-3" x1="458.52" x2="458.52" y2="1282.56"/>
      <g>
        <line class="cls-2" x1="175.71" y1="1287.91" x2="297.27" y2="1196.74"/>
        <g>
          <g id="_x3C_Gespiegelt_wiederholen_x3E_">
            <g class="cls-10">
              <polygon class="cls-6" points="534.28 1264.97 669.4 1169.02 675.2 1164.9 680.16 1169.42 776.98 1257.81 778.09 1258.83 778.5 1260.01 818.55 1375.65 816.73 1374.09 917.04 1397.25 815.73 1378.94 814.44 1378.71 813.91 1377.38 768.35 1263.8 769.87 1265.99 668.9 1182.36 679.66 1182.76 549.32 1285.1 534.28 1264.97 534.28 1264.97"/>
              <polygon class="cls-6" points="506.25 1247.35 631.59 1133.24 637.1 1128.23 642.43 1132.79 747.38 1222.51 748.31 1223.3 748.69 1224.2 785.04 1310.71 783.61 1309.48 866.29 1335.07 782.4 1313.77 781.45 1313.53 780.98 1312.54 740.23 1228.02 741.53 1229.72 632.1 1145.53 642.94 1145.08 523.64 1265.48 506.25 1247.35 506.25 1247.35"/>
              <path class="cls-6" d="M526.95,1327.84s127.29-92.98,127.29-92.98c0,0,7.1-5.19,7.1-5.19,0,0,5,6.71,5,6.71,0,0,80.89,108.5,80.89,108.5,0,0,.88,1.18.88,1.18,0,0,.18,1.2.18,1.2l19.85,135.61-.55-1.06s54.67,56.56,54.67,56.56l-57.39-53.79-.42-.39c.04-.22-26.64-134.74-26.65-135.12,0,0,1.06,2.39,1.06,2.39l-86.15-104.37,12.1,1.52s-122.55,99.15-122.55,99.15c0,0-15.31-19.92-15.31-19.92h0Z"/>
              <polygon class="cls-9" points="479.44 1241.82 555.46 1139.29 560.91 1131.94 567.74 1137.21 664.34 1211.8 665.17 1212.44 665.56 1213.07 725.44 1307.92 724.67 1307.3 776.03 1329.78 723.42 1310.43 722.98 1310.27 722.65 1309.81 657.18 1218.72 658.4 1219.99 557.5 1151.34 569.78 1149.26 500.06 1256.17 479.44 1241.82 479.44 1241.82"/>
              <polyline class="cls-1" points="489.75 1338.72 534.6 1365.86 512.18 1379.65"/>
            </g>
          </g>
          <g id="_x3C_Gespiegelt_wiederholen_x3E_-2" data-name="_x3C_Gespiegelt_wiederholen_x3E_">
            <g class="cls-4">
              <polygon class="cls-6" points="367.72 1285.1 237.38 1182.76 248.14 1182.36 147.17 1265.99 148.69 1263.8 103.13 1377.38 102.6 1378.71 101.31 1378.94 0 1397.25 100.31 1374.09 98.49 1375.65 138.54 1260.01 138.94 1258.83 140.06 1257.81 236.88 1169.42 241.84 1164.9 247.64 1169.02 382.76 1264.97 367.72 1285.1 367.72 1285.1"/>
              <polygon class="cls-6" points="393.4 1265.48 274.1 1145.08 284.94 1145.53 175.5 1229.72 176.81 1228.02 136.06 1312.54 135.59 1313.53 134.64 1313.77 50.75 1335.07 133.43 1309.48 132 1310.71 168.35 1224.2 168.73 1223.3 169.65 1222.51 274.61 1132.79 279.94 1128.23 285.45 1133.24 410.78 1247.35 393.4 1265.48 393.4 1265.48"/>
              <path class="cls-6" d="M374.78,1347.76l-122.55-99.15,12.1-1.52-86.15,104.37,1.06-2.39c0,.67-26.63,134.55-26.65,135.12,0,0-.42.4-.42.4l-57.39,53.79,54.67-56.56-.55,1.06s19.85-135.61,19.85-135.61c0,0,.18-1.2.18-1.2,0,0,.88-1.18.88-1.18l80.89-108.5,5-6.71s7.1,5.19,7.1,5.19c0,0,127.29,92.98,127.29,92.98s-15.32,19.92-15.32,19.92h0Z"/>
              <path class="cls-9" d="M416.98,1256.17s-69.72-106.91-69.72-106.91c0,0,12.28,2.08,12.28,2.08l-100.9,68.65,1.22-1.27c-.23.47-65.6,91.15-65.8,91.54,0,0-.44.16-.44.16,0,0-52.61,19.35-52.61,19.35,0,0,51.35-22.48,51.35-22.48l-.77.62,59.88-94.85s.4-.63.4-.63c0,0,.83-.64.83-.64l96.59-74.59s6.83-5.27,6.83-5.27c0,0,5.45,7.35,5.45,7.35,0,0,76.02,102.52,76.02,102.52,0,0-20.62,14.35-20.62,14.35h0Z"/>
              <polyline class="cls-1" points="427.29 1338.72 382.43 1365.86 404.86 1379.65"/>
            </g>
          </g>
        </g>
        <ellipse class="cls-6" cx="458.52" cy="1298.33" rx="135.33" ry="59.89"/>
        <g>
          <g id="_x3C_Gespiegelt_wiederholen_x3E_-3" data-name="_x3C_Gespiegelt_wiederholen_x3E_">
            <g class="cls-7">
              <circle class="cls-8" cx="505.34" cy="1321.01" r="7.49"/>
              <circle class="cls-8" cx="496.62" cy="1287.51" r="7.49"/>
              <circle class="cls-8" cx="476.45" cy="1304.76" r="14.53"/>
              <circle class="cls-8" cx="479.6" cy="1330.79" r="7.49"/>
            </g>
          </g>
          <g id="_x3C_Gespiegelt_wiederholen_x3E_-4" data-name="_x3C_Gespiegelt_wiederholen_x3E_">
            <g class="cls-5">
              <circle class="cls-8" cx="411.7" cy="1321.01" r="7.49"/>
              <circle class="cls-8" cx="420.42" cy="1287.51" r="7.49"/>
              <circle class="cls-8" cx="440.59" cy="1304.76" r="14.53"/>
              <circle class="cls-8" cx="437.44" cy="1330.79" r="7.49"/>
            </g>
          </g>
        </g>
      </g>
    </g>
  </g>
</svg>