<?xml version="1.0" encoding="UTF-8"?>
<svg xmlns="http://www.w3.org/2000/svg" width="134.03mm" height="229.41mm" xmlns:xlink="http://www.w3.org/1999/xlink" viewBox="0 0 379.93 650.29">
  <defs>
    <style>
      .cls-1 {
        fill: url(#Unbenannter_Verlauf_183-2);
      }

      .cls-1, .cls-2, .cls-3, .cls-4, .cls-5, .cls-6, .cls-7, .cls-8, .cls-9, .cls-10, .cls-11, .cls-12, .cls-13, .cls-14, .cls-15, .cls-16, .cls-17, .cls-18, .cls-19, .cls-20, .cls-21, .cls-22, .cls-23, .cls-24 {
        stroke-width: 0px;
      }

      .cls-1, .cls-2, .cls-5, .cls-7, .cls-16, .cls-17, .cls-18, .cls-19, .cls-25 {
        mix-blend-mode: multiply;
      }

      .cls-2 {
        fill: url(#Unbenannter_Verlauf_341-2);
      }

      .cls-26 {
        clip-path: url(#clippath-2);
      }

      .cls-3 {
        fill: url(#Unbenannter_Verlauf_210);
      }

      .cls-27 {
        isolation: isolate;
      }

      .cls-5 {
        fill: url(#Unbenannter_Verlauf_183);
      }

      .cls-6 {
        fill: #9c9c9c;
      }

      .cls-28 {
        clip-path: url(#clippath-6);
      }

      .cls-7 {
        fill: url(#Unbenannter_Verlauf_188-2);
      }

      .cls-8 {
        fill: #ffed00;
      }

      .cls-9 {
        fill: url(#Unbenannter_Verlauf_9);
      }

      .cls-10 {
        fill: #fcdeb3;
      }

      .cls-11 {
        fill: none;
      }

      .cls-29 {
        clip-path: url(#clippath-7);
      }

      .cls-30 {
        clip-path: url(#clippath-1);
      }

      .cls-31 {
        clip-path: url(#clippath-4);
      }

      .cls-12 {
        fill: url(#Unbenannter_Verlauf_402);
      }

      .cls-13 {
        fill: url(#Unbenannter_Verlauf_55);
      }

      .cls-14 {
        fill: #009fe3;
      }

      .cls-15 {
        fill: #fff;
      }

      .cls-16 {
        fill: url(#Unbenannter_Verlauf_188);
      }

      .cls-17 {
        fill: url(#Unbenannter_Verlauf_739);
      }

      .cls-18 {
        fill: url(#Unbenannter_Verlauf_341);
      }

      .cls-19 {
        fill: url(#Unbenannter_Verlauf_221);
      }

      .cls-20 {
        fill: #595959;
      }

      .cls-21 {
        fill: url(#Unbenannter_Verlauf_55-2);
      }

      .cls-32 {
        clip-path: url(#clippath);
      }

      .cls-22 {
        fill: #2d2e83;
      }

      .cls-33 {
        clip-path: url(#clippath-3);
      }

      .cls-34 {
        clip-path: url(#clippath-5);
      }

      .cls-23 {
        fill: #1d1d1b;
      }

      .cls-24 {
        fill: #e62c2c;
      }
    </style>
    <linearGradient id="Unbenannter_Verlauf_9" data-name="Unbenannter Verlauf 9" x1="189.9" y1="0" x2="189.9" y2="531.51" gradientUnits="userSpaceOnUse">
      <stop offset=".75" stop-color="red"/>
      <stop offset=".87" stop-color="#fd0000"/>
      <stop offset=".91" stop-color="#f60000"/>
      <stop offset=".94" stop-color="#ea0000"/>
      <stop offset=".97" stop-color="#d90000"/>
      <stop offset=".99" stop-color="#c30000"/>
      <stop offset="1" stop-color="#b80000"/>
    </linearGradient>
    <clipPath id="clippath">
      <polygon class="cls-11" points="227.92 22.67 227.92 22.67 248.05 22.67 248.05 106.2 227.92 106.2 227.92 22.67"/>
    </clipPath>
    <clipPath id="clippath-1">
      <polygon class="cls-11" points="150.84 22.67 150.84 22.67 130.71 22.67 130.71 106.2 150.84 106.2 150.84 22.67"/>
    </clipPath>
    <linearGradient id="Unbenannter_Verlauf_739" data-name="Unbenannter Verlauf 739" x1="189.66" y1="212.95" x2="189.66" y2="28.69" gradientUnits="userSpaceOnUse">
      <stop offset="0" stop-color="#008ffc" stop-opacity="0"/>
      <stop offset=".5" stop-color="#008ffc"/>
    </linearGradient>
    <radialGradient id="Unbenannter_Verlauf_402" data-name="Unbenannter Verlauf 402" cx="189.66" cy="95.76" fx="139.14" fy="95.76" r="78.07" gradientTransform="translate(229.5 -95.7) rotate(87.64) scale(1 .5)" gradientUnits="userSpaceOnUse">
      <stop offset="0" stop-color="#fcedd8"/>
      <stop offset=".15" stop-color="#fcebd3"/>
      <stop offset=".33" stop-color="#fce5c5"/>
      <stop offset=".51" stop-color="#fcdcae"/>
      <stop offset=".58" stop-color="#fcd8a4"/>
      <stop offset="1" stop-color="#f2b75e"/>
    </radialGradient>
    <linearGradient id="Unbenannter_Verlauf_221" data-name="Unbenannter Verlauf 221" x1="12077.13" y1="307.88" x2="12292.94" y2="307.88" gradientTransform="translate(12374.86 676.64) rotate(-180)" gradientUnits="userSpaceOnUse">
      <stop offset="0" stop-color="#a5bdc7"/>
      <stop offset="0" stop-color="#a5bdc7" stop-opacity=".99"/>
      <stop offset=".02" stop-color="#a5bdc7" stop-opacity=".78"/>
      <stop offset=".05" stop-color="#a5bdc7" stop-opacity=".6"/>
      <stop offset=".08" stop-color="#a5bdc7" stop-opacity=".44"/>
      <stop offset=".11" stop-color="#a5bdc7" stop-opacity=".3"/>
      <stop offset=".14" stop-color="#a5bdc7" stop-opacity=".19"/>
      <stop offset=".18" stop-color="#a5bdc7" stop-opacity=".1"/>
      <stop offset=".23" stop-color="#a5bdc7" stop-opacity=".04"/>
      <stop offset=".3" stop-color="#a5bdc7" stop-opacity="0"/>
      <stop offset=".5" stop-color="#a5bdc7" stop-opacity="0"/>
      <stop offset=".7" stop-color="#a5bdc7" stop-opacity="0"/>
      <stop offset=".77" stop-color="#a5bdc7" stop-opacity=".04"/>
      <stop offset=".82" stop-color="#a5bdc7" stop-opacity=".1"/>
      <stop offset=".86" stop-color="#a5bdc7" stop-opacity=".19"/>
      <stop offset=".89" stop-color="#a5bdc7" stop-opacity=".3"/>
      <stop offset=".92" stop-color="#a5bdc7" stop-opacity=".44"/>
      <stop offset=".95" stop-color="#a5bdc7" stop-opacity=".6"/>
      <stop offset=".98" stop-color="#a5bdc7" stop-opacity=".78"/>
      <stop offset="1" stop-color="#a5bdc7" stop-opacity=".99"/>
      <stop offset="1" stop-color="#a5bdc7"/>
    </linearGradient>
    <linearGradient id="Unbenannter_Verlauf_210" data-name="Unbenannter Verlauf 210" x1="6109.77" y1="6326.45" x2="6158.68" y2="6326.45" gradientTransform="translate(-5942.93 -6062.95)" gradientUnits="userSpaceOnUse">
      <stop offset="0" stop-color="red"/>
      <stop offset=".13" stop-color="#fe0000" stop-opacity=".99"/>
      <stop offset=".26" stop-color="#fd0202" stop-opacity=".94"/>
      <stop offset=".38" stop-color="#fc0505" stop-opacity=".87"/>
      <stop offset=".51" stop-color="#fa090a" stop-opacity=".76"/>
      <stop offset=".63" stop-color="#f70e0f" stop-opacity=".62"/>
      <stop offset=".75" stop-color="#f41516" stop-opacity=".46"/>
      <stop offset=".87" stop-color="#f01c1f" stop-opacity=".26"/>
      <stop offset=".98" stop-color="#ec2528" stop-opacity=".04"/>
      <stop offset="1" stop-color="#ec272a" stop-opacity="0"/>
    </linearGradient>
    <clipPath id="clippath-2">
      <rect class="cls-11" y="229.26" width="189.97" height="421.03"/>
    </clipPath>
    <clipPath id="clippath-3">
      <path class="cls-11" d="m86.33,238.78c23.62,8.44,21.94,55.69,21.94,55.69,0,0-12.78,73.97-6.5,111.5,9.44,56.36,29.78,92.5,29.78,92.5,2.94,6.78-76.86-5.09-85.58-136.29-7.91-118.97,40.36-123.4,40.36-123.4Z"/>
    </clipPath>
    <linearGradient id="Unbenannter_Verlauf_188" data-name="Unbenannter Verlauf 188" x1="6074.37" y1="6433.39" x2="6356.53" y2="6433.39" gradientTransform="translate(-6130.85 -6063.05)" gradientUnits="userSpaceOnUse">
      <stop offset="0" stop-color="#a5bdc7" stop-opacity="0"/>
      <stop offset=".22" stop-color="#a5bdc7" stop-opacity=".01"/>
      <stop offset=".36" stop-color="#a5bdc7" stop-opacity=".06"/>
      <stop offset=".49" stop-color="#a5bdc7" stop-opacity=".13"/>
      <stop offset=".6" stop-color="#a5bdc7" stop-opacity=".24"/>
      <stop offset=".71" stop-color="#a5bdc7" stop-opacity=".38"/>
      <stop offset=".81" stop-color="#a5bdc7" stop-opacity=".55"/>
      <stop offset=".91" stop-color="#a5bdc7" stop-opacity=".76"/>
      <stop offset=".99" stop-color="#a5bdc7" stop-opacity=".99"/>
      <stop offset="1" stop-color="#a5bdc7"/>
    </linearGradient>
    <clipPath id="clippath-4">
      <rect class="cls-11" x="189.97" y="229.26" width="189.97" height="421.03"/>
    </clipPath>
    <clipPath id="clippath-5">
      <path class="cls-11" d="m293.6,238.78c-23.62,8.44-21.94,55.69-21.94,55.69,0,0,12.78,73.97,6.5,111.5-9.44,56.36-29.78,92.5-29.78,92.5-2.94,6.78,76.86-5.09,85.58-136.29,7.91-118.97-40.36-123.4-40.36-123.4Z"/>
    </clipPath>
    <linearGradient id="Unbenannter_Verlauf_188-2" data-name="Unbenannter Verlauf 188" x1="6074.37" y1="6433.39" x2="6356.53" y2="6433.39" gradientTransform="translate(-5920.13 6803.73) scale(1 -1)" xlink:href="#Unbenannter_Verlauf_188"/>
    <clipPath id="clippath-6">
      <rect class="cls-11" x="130.16" y="449.76" width="52.77" height="123.32"/>
    </clipPath>
    <linearGradient id="Unbenannter_Verlauf_183" data-name="Unbenannter Verlauf 183" x1="160.7" y1="573.08" x2="160.7" y2="507.81" gradientUnits="userSpaceOnUse">
      <stop offset=".48" stop-color="#a5bdc7" stop-opacity="0"/>
      <stop offset=".79" stop-color="#a5bdc7"/>
    </linearGradient>
    <linearGradient id="Unbenannter_Verlauf_55" data-name="Unbenannter Verlauf 55" x1="130.16" y1="490.63" x2="173.42" y2="490.63" gradientTransform="translate(55.96 -13.92) rotate(6.44)" gradientUnits="userSpaceOnUse">
      <stop offset=".13" stop-color="red"/>
      <stop offset="1" stop-color="red"/>
    </linearGradient>
    <clipPath id="clippath-7">
      <rect class="cls-11" x="196.87" y="449.76" width="52.77" height="123.32"/>
    </clipPath>
    <linearGradient id="Unbenannter_Verlauf_183-2" data-name="Unbenannter Verlauf 183" y1="573.08" y2="507.81" gradientTransform="translate(379.79) rotate(-180) scale(1 -1)" xlink:href="#Unbenannter_Verlauf_183"/>
    <linearGradient id="Unbenannter_Verlauf_55-2" data-name="Unbenannter Verlauf 55" x1="130.16" gradientTransform="translate(732.56 586.46) rotate(-96.44) scale(1 -1)" xlink:href="#Unbenannter_Verlauf_55"/>
    <linearGradient id="Unbenannter_Verlauf_341" data-name="Unbenannter Verlauf 341" x1="240.53" y1="74.44" x2="240.53" y2="54.43" gradientUnits="userSpaceOnUse">
      <stop offset="0" stop-color="#fcaf42" stop-opacity="0"/>
      <stop offset="1" stop-color="#fcdeb3"/>
    </linearGradient>
    <linearGradient id="Unbenannter_Verlauf_341-2" data-name="Unbenannter Verlauf 341" x1="139.03" x2="139.03" y2="57.06" xlink:href="#Unbenannter_Verlauf_341"/>
  </defs>
  <g class="cls-27">
    <g id="Ebene_2" data-name="Ebene 2">
      <g>
        <path class="cls-6" d="m175.72,547.53c-2.14-.14-4.15,1.04-5.73,3.06l-4.82-42.78-22.48,2.54,3.99,35.33c-4.13.26-7.72,5.32-8.16,11.81-.46,6.86,2.75,12.65,7.16,12.95,2.56.17,4.93-1.57,6.59-4.37,1.36,4,3.99,6.77,7.19,6.99,3.38.23,6.48-2.47,8.34-6.61,1.22,3.39,3.5,5.71,6.25,5.9,4.41.3,8.37-5.02,8.83-11.87.46-6.86-2.75-12.65-7.16-12.95Z"/>
        <path class="cls-20" d="m145.03,559.83h0c-1.79-.12-3.45,2.8-3.62,5.33-.07,1.03.26,2.51.98,3.95.65,1.31,1.09,4.74,1.69,4.78h0s0,0,0,0h0s0,0,0,0c.59.04,1.49-3.3,2.31-4.51.91-1.33,1.43-2.75,1.5-3.78.17-2.53-1.08-5.65-2.87-5.77Z"/>
        <path class="cls-20" d="m160.57,560.87h0c-1.79-.12-3.45,2.8-3.62,5.33-.07,1.03.26,2.51.98,3.95.65,1.31,1.09,4.74,1.69,4.78h0s0,0,0,0h0s0,0,0,0c.59.04,1.49-3.3,2.31-4.51.91-1.33,1.43-2.75,1.5-3.78.17-2.53-1.08-5.65-2.87-5.77Z"/>
        <path class="cls-20" d="m174.76,561.83h0c-1.79-.12-3.45,2.8-3.62,5.33-.07,1.03.26,2.51.98,3.95.65,1.31,1.09,4.74,1.69,4.78h0s0,0,0,0h0s0,0,0,0c.59.04,1.49-3.3,2.31-4.51.91-1.33,1.43-2.75,1.5-3.78.17-2.53-1.08-5.65-2.87-5.77Z"/>
        <path class="cls-6" d="m241.27,557.49c-.44-6.5-4.02-11.55-8.15-11.81l3.99-35.33-22.48-2.54-4.83,42.78c-1.57-2.02-3.59-3.21-5.73-3.06-4.42.3-7.62,6.1-7.16,12.95.46,6.85,4.42,12.17,8.84,11.87,2.75-.19,5.03-2.51,6.25-5.9,1.85,4.14,4.96,6.84,8.33,6.61,3.2-.22,5.83-2.99,7.19-6.99,1.66,2.8,4.03,4.54,6.59,4.37,4.42-.3,7.62-6.1,7.16-12.95Z"/>
        <path class="cls-20" d="m234.76,559.83h0c1.79-.12,3.45,2.8,3.62,5.33.07,1.03-.26,2.51-.98,3.95-.65,1.31-1.09,4.74-1.69,4.78h0s0,0,0,0h0s0,0,0,0c-.59.04-1.49-3.3-2.31-4.51-.91-1.33-1.43-2.75-1.5-3.78-.17-2.53,1.08-5.65,2.87-5.77Z"/>
        <path class="cls-20" d="m219.22,560.87h0c1.79-.12,3.45,2.8,3.62,5.33.07,1.03-.26,2.51-.98,3.95-.65,1.31-1.09,4.74-1.69,4.78h0s0,0,0,0h0s0,0,0,0c-.59.04-1.49-3.3-2.31-4.51-.91-1.33-1.43-2.75-1.5-3.78-.17-2.53,1.08-5.65,2.87-5.77Z"/>
        <path class="cls-20" d="m205.04,561.83h0c1.79-.12,3.45,2.8,3.62,5.33.07,1.03-.26,2.51-.98,3.95-.65,1.31-1.09,4.74-1.69,4.78h0s0,0,0,0h0s0,0,0,0c-.59.04-1.49-3.3-2.31-4.51-.91-1.33-1.43-2.75-1.5-3.78-.17-2.53,1.08-5.65,2.87-5.77Z"/>
        <path class="cls-9" d="m282.21,207.9c-8.26-32.34-19.51-70.78-34.2-116.22v-35.58c0-30.99-26.12-56.11-58.35-56.11s-58.35,25.12-58.35,56.11h0v35.58h0c-14.71,45.5-25.97,83.97-34.23,116.34-25.45,5.86-50.98,72.85-44.5,154.15,3.67,45.98,17.51,83.35,32.45,108.06,12.9,21.34,43.37,31.24,46.52,28.24,3.64,19.78,14.2,34.17,24.9,32.97,6.72-.76,12.01-7.5,14.81-17.37,5.98,1.73,12.11,2.73,18.4,2.73s12.72-1.04,18.84-2.85c2.8,9.94,8.1,16.74,14.85,17.5,10.71,1.21,21.28-13.2,24.91-33,3.15,3.01,32.09-5.57,44.34-24.71,15.75-24.61,30.78-63.34,34.62-111.55,6.53-81.84-19.4-149.19-45.01-154.27Z"/>
        <g>
          <ellipse class="cls-23" cx="186.25" cy="163.31" rx="12.29" ry="34.23"/>
          <ellipse class="cls-23" cx="151.97" cy="157.64" rx="34.23" ry="12.29" transform="translate(-54.06 231.78) rotate(-65.84)"/>
          <ellipse class="cls-23" cx="179.03" cy="163.31" rx="34.23" ry="12.29" transform="translate(-43.25 259.82) rotate(-65.84)"/>
          <ellipse class="cls-23" cx="147.92" cy="143.63" rx="34.23" ry="12.29" transform="translate(-56.18 172.78) rotate(-52.28)"/>
          <ellipse class="cls-23" cx="229.3" cy="149.85" rx="12.29" ry="34.23" transform="translate(-44.21 134.72) rotate(-30)"/>
          <ellipse class="cls-23" cx="219.59" cy="155.46" rx="12.29" ry="34.23" transform="translate(-31.89 59.84) rotate(-14.48)"/>
          <ellipse class="cls-23" cx="202.15" cy="159.96" rx="17.52" ry="34.23" transform="translate(-33.57 55.62) rotate(-14.48)"/>
          <ellipse class="cls-23" cx="227.35" cy="146.47" rx="9.47" ry="34.23" transform="translate(-36.98 203.66) rotate(-45)"/>
          <ellipse class="cls-23" cx="158.69" cy="157.64" rx="34.23" ry="15.85" transform="translate(-17.12 295.93) rotate(-83)"/>
        </g>
        <path class="cls-10" d="m244.21,128.85c0-25.98-17.88-12.88-17.88-60.13s-33.67-43.29-37-43.01c-3.33-.27-37-1.9-37,43.01,0,47.25-17.88,34.15-17.88,60.13s12.16,42.18,54.36,42.41c.07,0,.13.02.19.02.12,0,.22,0,.33,0,.12,0,.22,0,.33,0,.07,0,.13-.02.19-.02,42.2-.23,54.36-16.61,54.36-42.41Z"/>
        <g>
          <g id="_Gespiegelt_wiederholen_" data-name="&amp;lt;Gespiegelt wiederholen&amp;gt;">
            <g class="cls-32">
              <g>
                <path class="cls-10" d="m231.72,24.32c1.79.03,5.44,3.09,8.72,8.74,2.22,3.83,5.96,11.79,5.96,22.1,0,6.71-.13,19.63-.98,30.7-1.23,16-3.22,18.36-3.64,18.69-1.05-.17-4.02-3.2-7.17-12.04-2.96-8.29-4.73-17.99-4.73-25.96,0-3.63-.07-7.5-.15-11.6-.14-7.35-.29-14.94.04-20.84.47-8.52,1.78-9.66,1.96-9.78m-.03-1.65c-5.32,0-3.47,26.05-3.47,43.87s8.32,39.66,13.65,39.66,6.17-33.22,6.17-51.05-11.03-32.48-16.35-32.48h0Z"/>
                <path class="cls-10" d="m235.17,32.83c2.83.36,11.22,10.56,11.22,24.21,0,5.23-.1,15.32-.75,24.05-.87,11.66-2.25,14.33-2.69,14.9-.87-.4-3.07-3.02-5.37-9.52-2.3-6.52-3.68-14.13-3.68-20.36,0-2.89-.06-5.98-.12-9.25-.11-5.66-.22-11.51,0-16.13.3-6.1,1.11-7.58,1.38-7.9m-.15-1.66c-4.24,0-2.76,20.75-2.76,34.94s6.63,31.58,10.87,31.58,4.92-26.46,4.92-40.66-8.78-25.87-13.02-25.87h0Z"/>
                <path class="cls-10" d="m238.11,40.04c2.27.63,8.29,8.35,8.29,18.6,0,17.96-1.23,27.92-2.45,30.08-2.12-1.59-6.63-12.51-6.63-22.96,0-2.27-.05-4.81-.1-7.26-.12-6.21-.32-16.44.89-18.46m6.16,48.85h0s0,0,0,0m-6.44-50.54c-3.33,0-2.17,16.28-2.17,27.41s5.2,24.78,8.53,24.78,3.86-20.76,3.86-31.89-6.89-20.3-10.22-20.3h0Z"/>
                <path class="cls-10" d="m237.69,65.54c0,9.32,4.35,20.73,7.13,20.73,2.78,0,3.23-17.36,3.23-26.68,0-9.32-5.76-16.98-8.55-16.98-2.78,0-1.81,13.61-1.81,22.93Z"/>
              </g>
            </g>
          </g>
          <g id="_Gespiegelt_wiederholen_-2" data-name="&amp;lt;Gespiegelt wiederholen&amp;gt;">
            <g class="cls-30">
              <g>
                <path class="cls-10" d="m147.04,24.32c.18.12,1.49,1.26,1.96,9.78.32,5.9.18,13.5.04,20.84-.08,4.1-.15,7.97-.15,11.6,0,7.96-1.77,17.67-4.73,25.96-3.16,8.84-6.12,11.87-7.17,12.04-.42-.32-2.41-2.69-3.64-18.69-.85-11.07-.98-23.99-.98-30.7,0-10.3,3.73-18.27,5.96-22.1,3.28-5.65,6.93-8.71,8.72-8.74m.03-1.65c-5.32,0-16.35,14.66-16.35,32.48s.85,51.05,6.17,51.05,13.65-21.83,13.65-39.66,1.86-43.87-3.47-43.87h0Z"/>
                <path class="cls-10" d="m143.58,32.83c.26.32,1.08,1.8,1.38,7.9.23,4.62.11,10.47,0,16.13-.06,3.27-.12,6.35-.12,9.25,0,6.23-1.37,13.84-3.68,20.36-2.3,6.51-4.5,9.13-5.36,9.52-.44-.57-1.83-3.23-2.69-14.91-.65-8.73-.75-18.81-.75-24.05,0-13.65,8.4-23.85,11.22-24.21m.15-1.66c-4.24,0-13.02,11.68-13.02,25.87s.68,40.66,4.92,40.66,10.87-17.39,10.87-31.58,1.48-34.94-2.76-34.94h0Z"/>
                <path class="cls-10" d="m140.65,40.04c1.21,2.01,1.01,12.25.89,18.46-.05,2.45-.1,4.99-.1,7.26,0,10.45-4.51,21.37-6.63,22.96-1.22-2.16-2.45-12.11-2.45-30.08,0-10.25,6.02-17.97,8.29-18.6m.28-1.69c-3.33,0-10.22,9.16-10.22,20.3s.53,31.89,3.86,31.89,8.53-13.64,8.53-24.78,1.16-27.41-2.17-27.41h0Z"/>
                <path class="cls-10" d="m141.07,65.54c0,9.32-4.35,20.73-7.13,20.73-2.78,0-3.23-17.36-3.23-26.68,0-9.32,5.76-16.98,8.55-16.98,2.78,0,1.81,13.61,1.81,22.93Z"/>
              </g>
            </g>
          </g>
        </g>
        <ellipse class="cls-23" cx="189.66" cy="126" rx="37.69" ry="43.03"/>
        <g>
          <circle class="cls-4" cx="136.75" cy="58.64" r="10"/>
          <circle class="cls-4" cx="243.04" cy="58.64" r="10"/>
        </g>
        <path class="cls-17" d="m189.66,28.69h0c-17.1,0-30.96,39.56-30.96,72.74,0,13.45,4.11,32.47,11.87,50.66,7.03,16.49,13.43,60.86,19.1,60.87h0s0,0,0,0h0s0,0,0,0c5.67,0,12.07-44.37,19.1-60.87,7.75-18.19,11.87-37.21,11.87-50.66,0-33.18-13.86-72.74-30.96-72.74Z"/>
        <path class="cls-12" d="m189.66,28.69h0c-17.1,0-30.96,28.8-30.96,52.96,0,9.79,4.11,23.64,11.87,36.88,7.03,12.01,13.43,44.31,19.1,44.31h0s0,0,0,0h0s0,0,0,0c5.67,0,12.07-32.31,19.1-44.31,7.75-13.24,11.87-27.09,11.87-36.88,0-24.16-13.86-52.96-30.96-52.96Z"/>
        <circle class="cls-15" cx="181.55" cy="49.66" r="2.51"/>
        <path class="cls-19" d="m86.33,239.04h207.28c8.46,102.68,8.44,199.54-45.35,259.43h-116.71c-50.11-41.21-55.7-139.94-45.22-259.43Z"/>
        <rect class="cls-3" x="166.84" y="152.34" width="48.92" height="222.32" transform="translate(454.79 72.2) rotate(90)"/>
        <ellipse class="cls-15" cx="181.55" cy="67.31" rx="2.51" ry="11.08"/>
        <g>
          <g id="_Gespiegelt_wiederholen_-3" data-name="&amp;lt;Gespiegelt wiederholen&amp;gt;">
            <g class="cls-26">
              <g class="cls-33">
                <g>
                  <rect class="cls-8" y="289.41" width="189.97" height="170.66"/>
                  <rect class="cls-14" x="29.62" y="367.31" width="189.97" height="169.21"/>
                  <rect class="cls-22" x="21.52" y="467.67" width="189.97" height="182.61"/>
                </g>
                <path class="cls-24" d="m86.33,238.78c23.62,8.44,21.94,55.69,21.94,55.69,0,0-13.47,85.22-10.96,123.19,2.52,37.97,34.24,80.82,34.24,80.82,0,0-82.07-17.12-85.58-136.29-3.51-119.18,40.36-123.4,40.36-123.4Z"/>
                <path class="cls-8" d="m107.61,298.69c-.32-.17-.66-.42-.98-.62,0,4.09-1.17,7.39-3.73,9.1-3.26,2.18-8.02,1.36-12.97-1.61.21,5.86-.99,10.12-3.69,11.07-2.39.84-5.47-1.06-8.56-4.74-2.17,5.08-4.91,8.2-7.65,7.96-1.48-.13-2.77-1.27-3.87-3.07-1.2,1.9-2.7,3.22-4.51,3.61-2.21.48-4.55-.46-6.82-2.33-1.82,2.99-3.87,4.72-5.93,4.55-.75-.06-1.44-.43-2.1-.95-.92,11.76-1.27,25.17-.81,40.5,3.51,119.18,85.58,136.29,85.58,136.29,0,0-31.72-42.85-34.24-80.82-2.18-32.93,7.65-101.36,10.3-118.96Z"/>
                <path class="cls-14" d="m106.12,437.25c-.84-12.64-8.71-50.11-7.09-68.32-.52-.19-1.02-.34-1.57-.57,1.25,5.47.88,9.68-1.51,11.11-1.86,1.11-4.62.32-7.73-1.78-.21,4.08-1.54,7.32-4.19,8.9-3.37,2.01-8.08.96-12.88-2.26-.08,5.87-1.49,10.06-4.24,10.87-2.43.71-5.41-1.33-8.31-5.17-2.42,4.96-5.31,7.94-8.05,7.57-.54-.07-1.04-.34-1.52-.66,13.42,88.77,82.52,101.53,82.52,101.53,0,0-22.91-23.25-25.43-61.22Z"/>
                <ellipse class="cls-8" cx="63.65" cy="382.32" rx="7.29" ry="20.31" transform="translate(-31.87 6.69) rotate(-4.82)"/>
                <ellipse class="cls-8" cx="71.27" cy="378.91" rx="4.61" ry="20.31" transform="translate(-31.56 7.32) rotate(-4.82)"/>
                <ellipse class="cls-24" cx="92.46" cy="301.68" rx="20.31" ry="4.61" transform="translate(-213.22 379.91) rotate(-87.32)"/>
                <ellipse class="cls-24" cx="59.8" cy="308.32" rx="20.31" ry="7.94" transform="translate(-253.45 330.94) rotate(-83.15)"/>
                <path class="cls-24" d="m65.17,326.91c-2.52,0-4.56-9.09-4.56-20.31s2.04-20.31,4.56-20.31c2.52,0,4.56,9.09,4.56,20.31,0,11.21-2.04,20.31-4.56,20.31Z"/>
                <path class="cls-24" d="m47,324.44c-2.52,0-4.56-9.09-4.56-20.31s2.04-20.31,4.56-20.31c2.52,0,4.56,9.09,4.56,20.31,0,11.21-2.04,20.31-4.56,20.31Z"/>
                <path class="cls-24" d="m79.63,299.19c-25.81,0-46.74-14.52-46.74-32.43s20.93-32.43,46.74-32.43c25.81,0,46.74,14.52,46.74,32.43,0,17.91-20.93,32.43-46.74,32.43Z"/>
                <path class="cls-24" d="m74.29,319.74c-2.52,0-4.56-9.09-4.56-20.31s2.04-20.31,4.56-20.31c2.52,0,4.56,9.09,4.56,20.31s-2.04,20.31-4.56,20.31Z"/>
                <ellipse class="cls-24" cx="95.23" cy="296.35" rx="5.1" ry="20.31" transform="translate(-35.25 13.74) rotate(-6.97)"/>
                <ellipse class="cls-8" cx="85.36" cy="368.35" rx="5.1" ry="20.31" transform="translate(-44.06 13.08) rotate(-6.97)"/>
                <path class="cls-22" d="m131.55,498.47s-14.32-19.4-24.48-43.63l-25.97,10.93c8.77,51.97,42.4,46.19,50.45,32.7Z"/>
                <ellipse class="cls-14" cx="97.36" cy="453.65" rx="4.61" ry="20.31" transform="translate(-146.26 58.78) rotate(-19.56)"/>
                <ellipse class="cls-14" cx="86.92" cy="449.76" rx="8.14" ry="20.31" transform="translate(-145.56 55.06) rotate(-19.56)"/>
                <ellipse class="cls-14" cx="102.7" cy="449.76" rx="4.14" ry="20.31" transform="translate(-144.65 60.34) rotate(-19.56)"/>
                <ellipse class="cls-14" cx="110.87" cy="453.48" rx="4.14" ry="20.31" transform="translate(-145.43 63.29) rotate(-19.56)"/>
                <ellipse class="cls-14" cx="81.45" cy="457.31" rx="5.84" ry="20.31" transform="translate(-148.41 53.66) rotate(-19.56)"/>
                <rect class="cls-16" x="-56.47" y="313.54" width="282.16" height="113.59" transform="translate(454.95 285.73) rotate(90)"/>
              </g>
            </g>
          </g>
          <g id="_Gespiegelt_wiederholen_-4" data-name="&amp;lt;Gespiegelt wiederholen&amp;gt;">
            <g class="cls-31">
              <g class="cls-34">
                <g>
                  <rect class="cls-8" x="189.97" y="289.41" width="189.97" height="170.66" transform="translate(569.9 749.47) rotate(180)"/>
                  <rect class="cls-14" x="160.34" y="367.31" width="189.97" height="169.21" transform="translate(510.65 903.82) rotate(-180)"/>
                  <rect class="cls-22" x="168.45" y="467.67" width="189.97" height="182.61" transform="translate(526.87 1117.96) rotate(180)"/>
                </g>
                <path class="cls-24" d="m293.6,238.78c-23.62,8.44-21.94,55.69-21.94,55.69,0,0,13.47,85.22,10.96,123.19-2.52,37.97-34.24,80.82-34.24,80.82,0,0,82.07-17.12,85.58-136.29,3.51-119.18-40.36-123.4-40.36-123.4Z"/>
                <path class="cls-8" d="m272.32,298.69c.32-.17.66-.42.98-.62,0,4.09,1.17,7.39,3.73,9.1,3.26,2.18,8.02,1.36,12.97-1.61-.21,5.86.99,10.12,3.69,11.07,2.39.84,5.47-1.06,8.56-4.74,2.17,5.08,4.91,8.2,7.65,7.96,1.48-.13,2.77-1.27,3.87-3.07,1.2,1.9,2.7,3.22,4.51,3.61,2.21.48,4.55-.46,6.82-2.33,1.82,2.99,3.87,4.72,5.93,4.55.75-.06,1.44-.43,2.1-.95.92,11.76,1.27,25.17.81,40.5-3.51,119.18-85.58,136.29-85.58,136.29,0,0,31.72-42.85,34.24-80.82,2.18-32.93-7.65-101.36-10.3-118.96Z"/>
                <path class="cls-14" d="m273.81,437.25c.84-12.64,8.71-50.11,7.09-68.32.52-.19,1.02-.34,1.57-.57-1.25,5.47-.88,9.68,1.51,11.11,1.86,1.11,4.62.32,7.73-1.78.21,4.08,1.54,7.32,4.19,8.9,3.37,2.01,8.08.96,12.88-2.26.08,5.87,1.49,10.06,4.24,10.87,2.43.71,5.41-1.33,8.31-5.17,2.42,4.96,5.31,7.94,8.05,7.57.54-.07,1.04-.34,1.52-.66-13.42,88.77-82.52,101.53-82.52,101.53,0,0,22.91-23.25,25.43-61.22Z"/>
                <ellipse class="cls-8" cx="316.28" cy="382.32" rx="20.31" ry="7.29" transform="translate(-91.24 665.39) rotate(-85.18)"/>
                <ellipse class="cls-8" cx="308.67" cy="378.91" rx="20.31" ry="4.61" transform="translate(-94.82 654.67) rotate(-85.18)"/>
                <ellipse class="cls-24" cx="287.47" cy="301.68" rx="4.61" ry="20.31" transform="translate(-13.81 13.79) rotate(-2.68)"/>
                <ellipse class="cls-24" cx="320.13" cy="308.32" rx="7.94" ry="20.31" transform="translate(-34.47 40.36) rotate(-6.85)"/>
                <path class="cls-24" d="m314.76,326.91c2.52,0,4.56-9.09,4.56-20.31s-2.04-20.31-4.56-20.31c-2.52,0-4.56,9.09-4.56,20.31,0,11.21,2.04,20.31,4.56,20.31Z"/>
                <path class="cls-24" d="m332.94,324.44c2.52,0,4.56-9.09,4.56-20.31s-2.04-20.31-4.56-20.31c-2.52,0-4.56,9.09-4.56,20.31,0,11.21,2.04,20.31,4.56,20.31Z"/>
                <path class="cls-24" d="m300.31,299.19c25.81,0,46.74-14.52,46.74-32.43s-20.93-32.43-46.74-32.43c-25.81,0-46.74,14.52-46.74,32.43,0,17.91,20.93,32.43,46.74,32.43Z"/>
                <path class="cls-24" d="m305.64,319.74c2.52,0,4.56-9.09,4.56-20.31s-2.04-20.31-4.56-20.31c-2.52,0-4.56,9.09-4.56,20.31s2.04,20.31,4.56,20.31Z"/>
                <ellipse class="cls-24" cx="284.7" cy="296.35" rx="20.31" ry="5.1" transform="translate(-44 543) rotate(-83.03)"/>
                <ellipse class="cls-8" cx="294.57" cy="368.35" rx="20.31" ry="5.1" transform="translate(-106.8 616.05) rotate(-83.03)"/>
                <path class="cls-22" d="m248.39,498.47s14.32-19.4,24.48-43.63l25.97,10.93c-8.77,51.97-42.4,46.19-50.45,32.7Z"/>
                <ellipse class="cls-14" cx="282.57" cy="453.65" rx="20.31" ry="4.61" transform="translate(-239.5 568.03) rotate(-70.44)"/>
                <ellipse class="cls-14" cx="293.01" cy="449.76" rx="20.31" ry="8.14" transform="translate(-228.89 575.28) rotate(-70.44)"/>
                <ellipse class="cls-14" cx="277.23" cy="449.76" rx="20.31" ry="4.14" transform="translate(-239.39 560.41) rotate(-70.44)"/>
                <ellipse class="cls-14" cx="269.06" cy="453.48" rx="20.31" ry="4.14" transform="translate(-248.33 555.19) rotate(-70.44)"/>
                <ellipse class="cls-14" cx="298.48" cy="457.31" rx="20.31" ry="5.84" transform="translate(-232.37 585.46) rotate(-70.44)"/>
                <rect class="cls-7" x="154.24" y="313.54" width="282.16" height="113.59" transform="translate(665.66 75.02) rotate(90)"/>
              </g>
            </g>
          </g>
        </g>
        <g>
          <g id="_Gespiegelt_wiederholen_-5" data-name="&amp;lt;Gespiegelt wiederholen&amp;gt;">
            <g class="cls-28">
              <path class="cls-5" d="m175.72,547.53c-2.14-.14-4.15,1.04-5.73,3.06l-4.82-42.78-22.48,2.54,3.99,35.33c-4.13.26-7.72,5.32-8.16,11.81-.46,6.86,2.75,12.65,7.16,12.95,2.56.17,4.93-1.57,6.59-4.37,1.36,4,3.99,6.77,7.19,6.99,3.38.23,6.48-2.47,8.34-6.61,1.22,3.39,3.5,5.71,6.25,5.9,4.41.3,8.37-5.02,8.83-11.87.46-6.86-2.75-12.65-7.16-12.95Z"/>
              <ellipse class="cls-13" cx="151.79" cy="490.63" rx="21.27" ry="41.06" transform="translate(-54.04 20.11) rotate(-6.44)"/>
            </g>
          </g>
          <g id="_Gespiegelt_wiederholen_-6" data-name="&amp;lt;Gespiegelt wiederholen&amp;gt;">
            <g class="cls-29">
              <path class="cls-1" d="m204.07,547.53c2.14-.14,4.15,1.04,5.73,3.06l4.82-42.78,22.48,2.54-3.99,35.33c4.13.26,7.72,5.32,8.16,11.81.46,6.86-2.75,12.65-7.16,12.95-2.56.17-4.93-1.57-6.59-4.37-1.36,4-3.99,6.77-7.19,6.99-3.38.23-6.48-2.47-8.34-6.61-1.22,3.39-3.5,5.71-6.25,5.9-4.41.3-8.37-5.02-8.83-11.87-.46-6.86,2.75-12.65,7.16-12.95Z"/>
              <ellipse class="cls-21" cx="228.01" cy="490.63" rx="41.06" ry="21.27" transform="translate(-285.09 662.2) rotate(-83.56)"/>
            </g>
          </g>
        </g>
        <g class="cls-25">
          <path class="cls-18" d="m243.04,74.44c1.85,0,3.48-.64,4.97-1.51v-16.82c0-.06-.01-.11-.01-.17-1.48-.87-3.11-1.5-4.96-1.5-2.85,0-10,4.21-10,4.21v5.8c0,5.52,4.48,10,10,10Z"/>
          <path class="cls-2" d="m146.57,57.06l-15.26.3v15.25c1.59,1.06,3.39,1.83,5.45,1.83,5.53,0,10-4.48,10-10l-.19-7.38Z"/>
        </g>
        <g>
          <circle class="cls-15" cx="133.7" cy="56.23" r="2.51"/>
          <circle class="cls-15" cx="239.75" cy="56.23" r="2.51"/>
        </g>
      </g>
    </g>
  </g>
</svg>