<?xml version="1.0" encoding="utf-8"?>
<!-- Generator: Adobe Illustrator 28.0.0, SVG Export Plug-In . SVG Version: 6.00 Build 0)  -->
<svg version="1.1" xmlns="http://www.w3.org/2000/svg" xmlns:xlink="http://www.w3.org/1999/xlink" x="0px" y="0px"
	 viewBox="0 0 1400 700" style="enable-background:new 0 0 1400 700;" xml:space="preserve">
<style type="text/css">
	.st0{fill:#A84747;}
	.st1{fill:#F7E9E9;}
	.st2{opacity:0.2706;}
	.st3{fill:#094F2D;}
	.st4{fill:#619141;}
	.st5{fill:#107343;}
	.st6{fill:#CF8E6D;}
	.st7{fill:#BF714B;}
	.st8{fill:#5F9490;}
	.st9{fill:#DB916B;}
	.st10{opacity:0.59;fill:#497572;enable-background:new    ;}
	.st11{fill:#BF9F9B;}
	.st12{fill:#006766;}
	.st13{fill:#FF882F;}
	.st14{fill:#FFFFFF;}
	.st15{font-family:'Feijoada';}
	.st16{font-size:57.95px;}
	.st17{letter-spacing:5;}
	.st18{letter-spacing:2;}
	.st19{letter-spacing:1;}
	.st20{fill:#BA4C4C;}
	.st21{fill:#70BBDD;}
	.st22{fill:#99C1D8;}
	.st23{font-size:34.77px;}
	.st24{fill:#DCE57C;}
	.st25{fill:#5C4843;}
	.st26{fill:#FF8F76;}
	.st27{fill:#F5C1B5;}
	.st28{fill:#B0B93C;}
	.st29{fill:#EC7A96;}
	.st30{fill:#FFC71A;}
	.st31{fill:#E8792E;}
	.st32{fill:#58BC4A;}
	.st33{fill:#D6C351;}
	.st34{fill:#B09794;}
	.st35{fill:#6A8659;}
	.st36{fill:#F47D97;}
	.st37{opacity:0.48;}
	.st38{fill:#FFFB14;}
	.st39{opacity:0.67;}
	.st40{fill:#FC593D;}
	.st41{fill:#C43493;}
	.st42{fill:none;stroke:#975144;stroke-linecap:round;stroke-miterlimit:10;}
	.st43{fill:#FC5C43;}
	.st44{fill:#F79F92;}
	.st45{fill:#00A45C;}
	.st46{fill:#E6A140;}
	.st47{fill:#B56100;}
	.st48{fill:#FFAE3F;}
	.st49{font-size:31.41px;}
	.st50{font-size:36.39px;}
	.st51{font-size:24px;}
</style>
<g id="Ebene_3">
	<g>
		<g>
			<path class="st0" d="M420.8,256.5v-26h42.7v26c0,11.8-9.6,21.3-21.3,21.3h0C430.4,277.9,420.8,268.3,420.8,256.5z"/>
			<path class="st0" d="M335.4,256.5v-26h42.7v26c0,11.8-9.6,21.3-21.3,21.3h0C345,277.9,335.4,268.3,335.4,256.5z"/>
			<path class="st0" d="M250.1,256.5v-26h42.7v26c0,11.8-9.6,21.3-21.3,21.3h0C259.6,277.9,250.1,268.3,250.1,256.5z"/>
			<path class="st1" d="M463.7,256.5v-26h42.7v26c0,11.8-9.6,21.3-21.3,21.3h0C473.3,277.9,463.7,268.3,463.7,256.5z"/>
			<path class="st1" d="M378.1,256.5v-26h42.7v26c0,11.8-9.6,21.3-21.3,21.3h0C387.7,277.9,378.1,268.3,378.1,256.5z"/>
			<path class="st1" d="M292.7,256.5v-26h42.7v26c0,11.8-9.6,21.3-21.3,21.3h0C302.3,277.9,292.7,268.3,292.7,256.5z"/>
			<path class="st1" d="M207.4,256.5v-26h42.7v26c0,11.8-9.6,21.3-21.3,21.3h0C216.9,277.9,207.4,268.3,207.4,256.5z"/>
			<path class="st0" d="M164.7,256.5v-26h42.7v26c0,11.8-9.6,21.3-21.3,21.3h0C174.2,277.9,164.7,268.3,164.7,256.5z"/>
		</g>
		<g class="st2">
			<path d="M420.8,256.5v-26h42.7v26c0,11.8-9.6,21.3-21.3,21.3h0C430.4,277.9,420.8,268.3,420.8,256.5z"/>
			<path d="M335.4,256.5v-26h42.7v26c0,11.8-9.6,21.3-21.3,21.3h0C345,277.9,335.4,268.3,335.4,256.5z"/>
			<path d="M250.1,256.5v-26h42.7v26c0,11.8-9.6,21.3-21.3,21.3h0C259.6,277.9,250.1,268.3,250.1,256.5z"/>
			<path d="M463.7,256.5v-26h42.7v26c0,11.8-9.6,21.3-21.3,21.3h0C473.3,277.9,463.7,268.3,463.7,256.5z"/>
			<path d="M378.1,256.5v-26h42.7v26c0,11.8-9.6,21.3-21.3,21.3h0C387.7,277.9,378.1,268.3,378.1,256.5z"/>
			<path d="M292.7,256.5v-26h42.7v26c0,11.8-9.6,21.3-21.3,21.3h0C302.3,277.9,292.7,268.3,292.7,256.5z"/>
			<path d="M207.4,256.5v-26h42.7v26c0,11.8-9.6,21.3-21.3,21.3h0C216.9,277.9,207.4,268.3,207.4,256.5z"/>
			<path d="M164.7,256.5v-26h42.7v26c0,11.8-9.6,21.3-21.3,21.3h0C174.2,277.9,164.7,268.3,164.7,256.5z"/>
		</g>
	</g>
</g>
<g id="Ebene_1">
	<g>
		<g id="Ebene_1_00000068668800258278307860000005951185464152708542_">
			<path class="st3" d="M463.9,526.9c-27,4.4-54.7-21.5-55.8-52c-1.1-30.5,24.8-58.7,51.9-56.7c-27.7-6.9-44.6-46.1-32.3-74.7
				s50.2-38.2,72.3-18.3c-2.6-24.8,16.4-49.8,38.7-51C561,273.1,582,296,581.5,321c4.6-33,31.5-60.2,61.3-62s59.2,21.9,67,54.1
				c12.2-15,24.9-30.4,41.4-39s37.8-8.8,51.1,5.1c13.3,13.9,12.2,43.1-4.4,51.3c18.5-10.2,43.9,1.5,50.7,23.3
				c6.8,21.9-6.6,48.7-26.8,53.6c18.9-14.4,48.5-5,57.8,18.4c9.3,23.4-4.3,54.4-26.4,60.5c19.3,0.8,30.6,29.2,22.3,48.8
				s-29.6,28.6-48.9,27.2c-19.3-1.4-37.1-11.2-54.4-20.9c-46.4,29.7-103.5,37.5-154.9,21C557.4,602.4,472.2,584.5,463.9,526.9
				L463.9,526.9z"/>
			<path class="st3" d="M-12.7,532.1c-24.4,3.8-49.5-18.3-50.5-44.5c-1-26.1,22.4-50.2,47-48.5c-25.1-5.9-40.4-39.4-29.2-63.9
				C-34.2,350.7,0,342.5,20,359.6c-2.3-21.2,14.8-42.6,35-43.6s39.1,18.6,38.7,40c4.2-28.2,28.6-51.5,55.5-53.1
				c26.9-1.6,53.6,18.8,60.6,46.3c11.1-12.9,22.6-26,37.4-33.4s34.2-7.5,46.3,4.4s11,36.9-4,43.9c16.8-8.7,39.8,1.3,45.9,20
				s-6,41.6-24.3,45.8c17.1-12.3,43.9-4.2,52.3,15.7s-3.9,46.5-23.9,51.7c17.5,0.7,27.7,25,20.1,41.7c-7.6,16.7-26.8,24.5-44.2,23.3
				c-17.4-1.2-33.6-9.6-49.3-17.9c-42,25.4-93.7,32.1-140.2,18C72,596.6-5.2,581.4-12.7,532.1L-12.7,532.1z"/>
			<path class="st3" d="M1079.3,562c-24.6,3.5-48.7-23-48.7-53.4c0.1-30.3,24.4-57.5,48.9-54.7c-24.8-7.8-38.8-47.2-26.7-75.2
				c12.1-28.1,46.7-36.4,66-16c-1.5-24.8,16.5-49,36.8-49.4s38.4,22.9,37.1,47.8c5.3-32.6,30.6-58.8,57.6-59.7
				c26.9-0.9,52.8,23.6,58.7,55.9c11.6-14.5,23.6-29.5,38.8-37.5c15.2-8,34.5-7.5,46.1,6.7c11.6,14.2,9.6,43.2-5.8,50.8
				c17.1-9.5,39.7,2.8,45.1,24.8c5.4,21.9-7.7,48.1-26.1,52.4c17.6-13.7,44.1-3.4,51.7,20.1s-5.7,53.9-26,59.2
				c17.4,1.4,26.7,30,18.5,49.1s-27.7,27.5-45.1,25.5c-17.4-2-33.2-12.3-48.5-22.5c-43,28.1-94.9,34-140.8,16.1
				C1161.3,639.8,1084.8,619.4,1079.3,562L1079.3,562z"/>
			<rect x="-6.5" y="516.1" class="st4" width="1427.8" height="201.7"/>
		</g>
		<g id="Ebene_6">
			<path class="st5" d="M474.6,537.1c-17.8,2.7-36-13.3-36.7-32.3c-0.7-19,16.3-36.5,34.2-35.3c-18.2-4.3-29.4-28.7-21.3-46.5
				s33-23.8,47.6-11.4c-1.7-15.5,10.8-31,25.5-31.7s28.5,13.5,28.1,29.1c3-20.5,20.8-37.5,40.3-38.6s39,13.6,44.1,33.7
				c8.1-9.4,16.4-19,27.2-24.3c10.8-5.4,24.9-5.4,33.7,3.2s8,26.8-2.9,31.9c12.2-6.4,28.9,0.9,33.4,14.5
				c4.5,13.6-4.4,30.3-17.7,33.3c12.4-9,31.9-3.1,38.1,11.5s-2.8,33.8-17.4,37.6c12.7,0.5,20.2,18.2,14.7,30.3
				c-5.5,12.1-19.5,17.8-32.2,16.9s-24.5-7-35.8-13c-13.3,17.9-58.4,35.2-99.5,5.4C539.8,568.8,480,572.9,474.6,537.1L474.6,537.1z"
				/>
			<path class="st5" d="M1130.8,532.3c-17.8,2.7-36-13.3-36.7-32.3c-0.7-19,16.3-36.5,34.2-35.3c-18.2-4.3-29.4-28.7-21.3-46.5
				s33-23.8,47.6-11.4c-1.7-15.5,10.8-31,25.5-31.7c14.7-0.7,28.5,13.5,28.1,29.1c3.1-20.5,20.8-37.5,40.3-38.6s39,13.6,44.1,33.7
				c8.1-9.4,16.4-19,27.2-24.3c10.8-5.4,24.9-5.4,33.7,3.2s8,26.8-2.9,31.9c12.2-6.4,28.9,0.9,33.4,14.5
				c4.5,13.6-4.4,30.3-17.7,33.3c12.4-9,31.9-3.1,38.1,11.5s-2.8,33.8-17.4,37.6c12.7,0.5,20.2,18.2,14.7,30.3
				c-5.5,12.1-19.5,17.8-32.2,16.9c-12.7-0.9-24.5-7-35.8-13c-13.3,17.9-58.4,35.2-99.6,5.4C1195.9,563.9,1136.2,568.1,1130.8,532.3
				L1130.8,532.3z"/>
			<path class="st5" d="M41.2,557.6c-16.4,2.7-33.3-13-33.9-31.6c-0.7-18.6,15-35.7,31.6-34.5c-16.9-4.2-27.1-28-19.7-45.4
				c7.5-17.4,30.5-23.3,44-11.1c-1.5-15.1,10-30.3,23.5-31c13.6-0.7,26.3,13.2,26,28.4c2.8-20,19.2-36.6,37.3-37.7
				s36,13.3,40.8,32.9c7.4-9.1,15.2-18.5,25.2-23.8s23-5.3,31.1,3.1s7.4,26.2-2.7,31.2c11.3-6.2,26.7,0.9,30.8,14.2
				s-4,29.6-16.3,32.6c11.5-8.8,29.5-3,35.2,11.2s-2.6,33.1-16.1,36.8c11.7,0.5,18.6,17.8,13.5,29.7c-5.1,11.9-18,17.4-29.7,16.5
				s-22.6-6.8-33.1-12.7c-28.2,18.1-63,22.8-94.2,12.8C98.1,603.5,46.2,592.7,41.2,557.6L41.2,557.6z"/>
		</g>
		<g id="Ebene_2_00000128444060889421548400000015791882456627741597_">
			<g>
				<rect x="165.8" y="214.4" class="st6" width="17.8" height="261.6"/>
				<rect x="179.1" y="214.4" class="st7" width="6.2" height="261.6"/>
			</g>
			<g>
				<rect x="494.5" y="214.4" class="st6" width="17.8" height="271.4"/>
				<rect x="492.8" y="214.4" class="st7" width="6.2" height="271.4"/>
			</g>
			<path class="st8" d="M177.4,491.5h316c9.5,0,17.2,7.7,17.2,17.2v102c0,9.5-7.7,17.2-17.2,17.2h-316c-9.5,0-17.2-7.7-17.2-17.2
				v-102C160.2,499.2,167.9,491.5,177.4,491.5z"/>
			<polygon class="st9" points="154.9,475.1 193.2,385.1 485.6,385.1 515.9,475.1 			"/>
			<polygon class="st10" points="160.2,520 160.2,492.6 510.6,491.5 510.6,518.9 			"/>
			<polygon class="st7" points="154.9,497.4 154.9,475.1 515.9,474.2 515.9,496.5 			"/>
			<rect x="376.1" y="361.7" class="st11" width="98.7" height="49.9"/>
			<g>
				<path class="st12" d="M475.4,343.8c2.5-10.5,8.4-19.5,15.4-27.5c2.4-2.6,5-5.1,8.1-7.2c0.1-0.1,0.2-0.1,0.3,0
					c-1.6,3.1-3.9,6-5.8,9c-2.9,4.4-8.8,13.1-11.7,17.4c-2,2.9-4,5.8-6,8.6C475.6,344.2,475.3,344.1,475.4,343.8L475.4,343.8
					L475.4,343.8L475.4,343.8z"/>
				<path class="st12" d="M475.4,343.8c2.5-10.5,8.4-19.5,15.4-27.5c2.4-2.6,5-5.1,8.1-7.2c0.1-0.1,0.2-0.1,0.3,0
					c-1.6,3.1-3.9,6-5.8,9c-2.9,4.4-8.8,13.1-11.7,17.4c-2,2.9-4,5.8-6,8.6C475.6,344.2,475.3,344.1,475.4,343.8L475.4,343.8
					L475.4,343.8L475.4,343.8z"/>
				<path class="st12" d="M471,353.6c0-10.8,3.5-21,8.4-30.4c1.7-3.1,3.6-6.1,6.1-8.9c0.1-0.1,0.2-0.2,0.3-0.1
					c-0.8,3.4-2.4,6.7-3.5,10.1c-1.8,4.9-5.4,14.8-7.3,19.7c-1.2,3.3-2.5,6.5-3.8,9.8C471.2,353.9,470.9,353.9,471,353.6L471,353.6
					L471,353.6L471,353.6z"/>
				<path class="st12" d="M469.5,349.8c-2.3-10.6-0.9-21.2,1.9-31.5c1-3.4,2.2-6.7,4.1-10c0-0.1,0.2-0.2,0.3-0.1
					c0.1,0,0.1,0.1,0.1,0.2c-0.4,3.5-0.9,6.9-1.4,10.4c-0.7,5.2-2.2,15.6-3,20.7c-0.5,3.5-1.1,6.9-1.6,10.4
					C469.8,350,469.5,350,469.5,349.8L469.5,349.8L469.5,349.8L469.5,349.8z"/>
				<path class="st12" d="M476.3,341.6c1.7-10.7,6.8-20.1,13.1-28.7c2.2-2.8,4.5-5.5,7.5-7.8c0.1-0.1,0.2-0.1,0.3,0
					c-1.3,3.2-3.4,6.3-5,9.4c-2.5,4.6-7.6,13.8-10.3,18.3c-1.7,3-3.5,6.1-5.2,9.1C476.6,341.9,476.3,341.9,476.3,341.6L476.3,341.6
					L476.3,341.6L476.3,341.6z"/>
				<path class="st12" d="M470.7,344.6c-0.6-10.8,2.3-21.1,6.7-30.8c1.5-3.2,3.2-6.3,5.6-9.2c0.1-0.1,0.2-0.2,0.3-0.1
					c-0.6,3.4-2,6.9-2.9,10.3c-1.5,5-4.5,15.1-6.1,20c-1,3.3-2.1,6.7-3.2,10C471,344.9,470.7,344.9,470.7,344.6L470.7,344.6
					L470.7,344.6L470.7,344.6z"/>
				<path class="st13" d="M457.3,396.2l22.1-48.1c1.1-2,0.2-4.5-1.9-5.3l-10.7-4c-2.1-0.8-4.5,0.5-4.9,2.7l-11.4,52.1
					C449.7,397.8,455.3,399.9,457.3,396.2L457.3,396.2z"/>
			</g>
			<g>
				<path class="st12" d="M380.4,335.9c-4.2-12.6-1.9-30.4,5.2-41.6c0.1-0.1,0.2-0.3,0.4-0.2c0.1,0,0.1,0.1,0.1,0.2
					c-0.2,2.6-0.8,7.8-1.1,10.4c-0.8,7.5-2.3,18.5-3.3,26l-0.8,5.2c0,0.2-0.4,0.3-0.5,0L380.4,335.9L380.4,335.9L380.4,335.9z"/>
				<path class="st12" d="M380.4,335.9c-4.2-12.6-1.9-30.4,5.2-41.6c0.1-0.1,0.2-0.3,0.4-0.2c0.1,0,0.1,0.1,0.1,0.2
					c-0.2,2.6-0.8,7.8-1.1,10.4c-0.8,7.5-2.3,18.5-3.3,26l-0.8,5.2c0,0.2-0.4,0.3-0.5,0L380.4,335.9L380.4,335.9L380.4,335.9z"/>
				<path class="st12" d="M381,346.6c-7.1-11.3-9.1-29-4.8-41.6c0-0.1,0.2-0.3,0.3-0.2c0.1,0,0.1,0.1,0.1,0.2
					c0.4,2.6,1.1,7.8,1.4,10.4c1,7.5,2.2,18.5,3,26l0.5,5.2C381.5,346.8,381.1,346.9,381,346.6L381,346.6L381,346.6L381,346.6z"/>
				<path class="st12" d="M377.9,343.9c-9.3-9.5-15-26.5-13.4-39.7c0-0.1,0.1-0.4,0.3-0.3c0.1,0,0.2,0.1,0.2,0.1
					c0.9,2.5,2.7,7.4,3.5,9.9c2.5,7.1,6,17.7,8.3,24.8l1.5,5C378.4,343.9,378.1,344.1,377.9,343.9L377.9,343.9L377.9,343.9z"/>
				<path class="st12" d="M380.3,333.5c-5.2-12.2-4.4-30.1,1.8-41.9c0.1-0.1,0.2-0.3,0.4-0.2c0.1,0,0.1,0.1,0.1,0.2
					c0,2.6-0.2,7.9-0.3,10.5c-0.2,7.6-0.8,18.6-1.2,26.2l-0.4,5.2c0,0.2-0.4,0.3-0.5,0.1L380.3,333.5L380.3,333.5L380.3,333.5z"/>
				<path class="st12" d="M376.6,338.7c-7.7-10.8-10.7-28.5-7.2-41.3c0-0.1,0.1-0.3,0.3-0.3c0.1,0,0.1,0.1,0.2,0.2
					c0.5,2.6,1.5,7.7,2,10.3c1.4,7.4,3.2,18.4,4.4,25.8l0.8,5.2C377.1,338.9,376.8,339,376.6,338.7L376.6,338.7L376.6,338.7
					L376.6,338.7z"/>
				<path class="st13" d="M388.1,390.8l-2-52.9c0.1-2.3-1.9-4.1-4.1-3.8l-11.3,1.3c-2.2,0.3-3.7,2.5-3.1,4.7l13.4,51.6
					C382,395.7,387.9,395,388.1,390.8z"/>
			</g>
			<g>
				<path class="st12" d="M428.4,397.4c12.6-8.9,31.4-6.6,41.6,4.8l0.2,0.3c0.1,0.2,0.1,0.4,0,0.5c-0.1,0.1-0.2,0.1-0.3,0.1
					c-2.6-0.2-7.8-0.6-10.5-0.9c-10.3-1-20.9-2.3-31.2-4c-0.3,0-0.4-0.5-0.2-0.7L428.4,397.4L428.4,397.4L428.4,397.4z"/>
				<path class="st12" d="M428.4,397.4c12.6-8.9,31.4-6.6,41.6,4.8l0.2,0.3c0.1,0.2,0.1,0.4,0,0.5c-0.1,0.1-0.2,0.1-0.3,0.1
					c-2.6-0.2-7.8-0.6-10.5-0.9c-10.3-1-20.9-2.3-31.2-4c-0.3,0-0.4-0.5-0.2-0.7L428.4,397.4L428.4,397.4L428.4,397.4z"/>
				<path class="st12" d="M417.6,398c10.1-11.6,28.9-13.9,41.6-5.2l0.3,0.2c0.2,0.1,0.2,0.4,0.1,0.5c-0.1,0.1-0.1,0.1-0.2,0.1
					c-2.6,0.5-7.8,1.3-10.4,1.6c-10.3,1.5-20.9,2.8-31.2,3.6c-0.3,0-0.5-0.4-0.3-0.6L417.6,398L417.6,398L417.6,398z"/>
				<path class="st12" d="M420.3,394.9c7.4-13.5,25.4-19.6,39.6-13.8l0.3,0.1c0.2,0.1,0.3,0.3,0.2,0.5c0,0.1-0.1,0.2-0.2,0.2
					c-2.4,1-7.3,2.9-9.8,3.8c-9.8,3.6-19.8,7-29.8,10c-0.3,0.1-0.6-0.3-0.5-0.5L420.3,394.9L420.3,394.9L420.3,394.9z"/>
				<path class="st12" d="M430.8,397.2c11.8-9.9,30.7-9.2,41.9,1.4l0.2,0.2c0.1,0.1,0.1,0.4,0,0.5c-0.1,0.1-0.2,0.1-0.3,0.1
					c-2.6,0-7.9,0-10.5,0c-10.4-0.2-21-0.5-31.4-1.4c-0.3,0-0.5-0.5-0.2-0.7L430.8,397.2L430.8,397.2L430.8,397.2z"/>
				<path class="st12" d="M425.5,393.6c9.4-12.2,28-15.5,41.2-7.6l0.3,0.2c0.2,0.1,0.2,0.4,0.1,0.5c-0.1,0.1-0.1,0.1-0.2,0.2
					c-2.5,0.6-7.7,1.7-10.2,2.2c-10.2,2-20.7,4-31,5.4c-0.3,0.1-0.6-0.4-0.4-0.6L425.5,393.6L425.5,393.6L425.5,393.6z"/>
				<path class="st13" d="M373.6,405.8l52.9-2.5c2.3,0.1,4.1-1.9,3.8-4.1l-1.4-11.3c-0.3-2.2-2.5-3.7-4.7-3.1l-51.5,13.9
					C368.6,399.7,369.4,405.6,373.6,405.8L373.6,405.8z"/>
			</g>
			<g>
				<path class="st12" d="M428.5,370.5c-15.4-0.2-29.3-13.2-30.8-28.5l0-0.3c0-0.2,0.1-0.4,0.4-0.4c0.1,0,0.2,0,0.3,0.1
					c2,1.7,6,5.1,7.9,6.9c6.5,5.8,12.9,11.8,19.1,17.9l3.7,3.7c0.2,0.2,0.1,0.7-0.3,0.6L428.5,370.5L428.5,370.5L428.5,370.5z"/>
				<path class="st12" d="M428.5,370.5c-15.4-0.2-29.3-13.2-30.8-28.5l0-0.3c0-0.2,0.1-0.4,0.4-0.4c0.1,0,0.2,0,0.3,0.1
					c2,1.7,6,5.1,7.9,6.9c6.5,5.8,12.9,11.8,19.1,17.9l3.7,3.7c0.2,0.2,0.1,0.7-0.3,0.6L428.5,370.5L428.5,370.5L428.5,370.5z"/>
				<path class="st12" d="M437.6,376.3c-15,3.5-31.6-5.8-36.7-20.3l-0.1-0.3c-0.1-0.2,0-0.4,0.2-0.5c0.1,0,0.2,0,0.3,0
					c2.4,1.1,7,3.5,9.3,4.8c9.2,4.9,18.5,10.1,27.3,15.5c0.3,0.2,0.2,0.6-0.1,0.7L437.6,376.3L437.6,376.3z"/>
				<path class="st12" d="M433.6,377.2c-14,6.5-32.1,0.9-40.1-12.3l-0.2-0.3c-0.1-0.2,0-0.4,0.1-0.5c0.1,0,0.2-0.1,0.3,0
					c2.5,0.6,7.6,2,10.1,2.7c10,2.9,20.2,6,30,9.5c0.3,0.1,0.3,0.6,0,0.7L433.6,377.2L433.6,377.2L433.6,377.2z"/>
				<path class="st12" d="M426.5,369.2c-15.3,1-30.3-10.7-33-25.8l0-0.3c0-0.2,0.1-0.4,0.3-0.4c0.1,0,0.2,0,0.3,0.1
					c2.1,1.5,6.4,4.6,8.5,6.2c6.9,5.2,13.9,10.7,20.5,16.2l4,3.4c0.2,0.2,0.1,0.7-0.2,0.7L426.5,369.2L426.5,369.2L426.5,369.2z"/>
				<path class="st12" d="M428.7,375.2c-14.8,4.3-31.9-4-37.8-18.2l-0.1-0.3c-0.1-0.2,0-0.4,0.2-0.5c0.1,0,0.2,0,0.3,0
					c2.4,1,7.2,3.1,9.6,4.2c9.4,4.4,19,9,28.2,14c0.3,0.1,0.2,0.6-0.1,0.7L428.7,375.2L428.7,375.2L428.7,375.2z"/>
				<path class="st13" d="M477.8,396l-44.2-29.2c-1.8-1.4-4.4-0.9-5.5,1.1l-5.5,10c-1.1,2-0.2,4.5,2,5.3l49.8,19.2
					C478.2,403.8,481.1,398.6,477.8,396L477.8,396z"/>
			</g>
			<g>
				<path class="st12" d="M392.8,367.5c-9-5.8-11.9-17.8-6.3-26.8c0.9-1.5,2.1-3.1,3.7-4.5c0.1-0.1,0.4-0.1,0.5,0
					c1,5,1.4,10.6,2,15.7c0.3,3.8,0.7,7.9,0.9,11.7l0.1,3.9c0,0.3-0.3,0.5-0.5,0.3L392.8,367.5L392.8,367.5L392.8,367.5z"/>
				<path class="st12" d="M392.8,367.5c-9-5.8-11.9-17.8-6.3-26.8c0.9-1.5,2.1-3.1,3.7-4.5c0.1-0.1,0.4-0.1,0.5,0
					c1,5,1.4,10.6,2,15.7c0.3,3.8,0.7,7.9,0.9,11.7l0.1,3.9c0,0.3-0.3,0.5-0.5,0.3L392.8,367.5L392.8,367.5L392.8,367.5z"/>
				<path class="st12" d="M395,375.2c-10.1-3.3-15.8-14.2-12.6-24.3c0.5-1.6,1.3-3.5,2.5-5.3c0.1-0.2,0.3-0.2,0.5-0.1
					c2.2,4.6,4,9.9,5.7,14.6c1.2,3.5,2.6,7.5,3.7,11l1.1,3.7c0.1,0.3-0.2,0.5-0.5,0.4L395,375.2L395,375.2L395,375.2z"/>
				<path class="st12" d="M392.3,373.8c-10.6-1-18.5-10.5-17.5-21c0.1-1.7,0.5-3.7,1.3-5.6c0.1-0.2,0.3-0.3,0.5-0.2
					c1,1,3.7,5.2,4.5,6.5c4.2,6.4,8.3,13.1,12,19.9c0.1,0.2-0.1,0.5-0.3,0.5L392.3,373.8L392.3,373.8L392.3,373.8z"/>
				<path class="st12" d="M392.3,365.8c-9.5-5-13.3-16.7-8.5-26.1c0.8-1.5,1.8-3.2,3.3-4.8c0.1-0.1,0.4-0.2,0.5,0
					c1.4,4.9,2.3,10.4,3.3,15.4c0.6,3.7,1.3,7.8,1.9,11.5l0.5,3.9c0,0.3-0.3,0.5-0.5,0.4L392.3,365.8L392.3,365.8L392.3,365.8z"/>
				<path class="st12" d="M390.5,370.3c-10.3-2.7-16.6-13.3-14-23.5c0.4-1.6,1.1-3.5,2.1-5.4c0.1-0.2,0.3-0.2,0.5-0.1
					c2.4,4.4,4.5,9.6,6.6,14.2c1.4,3.5,3,7.3,4.3,10.8l1.3,3.6c0.1,0.3-0.2,0.5-0.4,0.5L390.5,370.3L390.5,370.3L390.5,370.3z"/>
				<path class="st13" d="M407.7,405.7l-10.1-37.9c-0.3-1.7-2-2.6-3.7-2l-8.1,3.1c-1.6,0.6-2.4,2.5-1.5,4l18.3,34.8
					C404,410.4,408.3,408.8,407.7,405.7L407.7,405.7z"/>
			</g>
			<g>
				<path class="st12" d="M449.8,350.5c-3.1-10.6-0.9-24.7,5.1-34l0-0.1c0.1-0.2,0.4-0.1,0.4,0.1c-1,7.9-2.4,17.6-3.7,25.5
					c-0.4,2.8-0.9,5.6-1.4,8.5C450.1,350.7,449.8,350.7,449.8,350.5L449.8,350.5L449.8,350.5z"/>
				<path class="st12" d="M449.8,350.5c-3.1-10.6-0.9-24.7,5.1-34l0-0.1c0.1-0.2,0.4-0.1,0.4,0.1c-1,7.9-2.4,17.6-3.7,25.5
					c-0.4,2.8-0.9,5.6-1.4,8.5C450.1,350.7,449.8,350.7,449.8,350.5L449.8,350.5L449.8,350.5z"/>
				<path class="st12" d="M450.3,359.2c-6-9.2-8.1-23.4-5-34l0-0.1c0-0.2,0.3-0.2,0.4,0c1.3,7.8,2.8,17.5,3.9,25.4
					c0.4,2.8,0.8,5.7,1.1,8.5C450.7,359.4,450.5,359.5,450.3,359.2L450.3,359.2L450.3,359.2L450.3,359.2z"/>
				<path class="st12" d="M447.2,357c-8.2-7.7-13.8-21.1-13.5-32.4v-0.1c0-0.2,0.3-0.2,0.4-0.1c3.3,7.4,7.2,16.7,10.2,24.2
					c1.1,2.7,2.2,5.4,3.2,8.1C447.6,357,447.4,357.2,447.2,357L447.2,357L447.2,357L447.2,357z"/>
				<path class="st12" d="M449.6,348.5c-4.1-10.2-3.4-24.4,1.6-34.2l0-0.1c0.1-0.2,0.4-0.1,0.4,0.1c-0.2,7.9-0.6,17.7-1.1,25.6
					c-0.1,2.9-0.3,5.7-0.5,8.5C450,348.7,449.7,348.7,449.6,348.5L449.6,348.5L449.6,348.5L449.6,348.5z"/>
				<path class="st12" d="M445.9,352.8c-6.6-8.8-9.7-22.9-7.3-33.7l0-0.1c0-0.2,0.3-0.2,0.4,0c1.9,7.7,4,17.4,5.6,25.2
					c0.6,2.8,1.2,5.6,1.7,8.4C446.4,352.9,446.1,353,445.9,352.8L445.9,352.8L445.9,352.8L445.9,352.8z"/>
				<path class="st13" d="M457.5,395.2l-2.2-43.2c0.1-1.9-1.9-3.3-4.1-3.1l-11.3,1.1c-2.2,0.2-3.7,2-3.1,3.8l13.5,42.1
					C451.5,399.2,457.4,398.6,457.5,395.2L457.5,395.2z"/>
			</g>
			<g>
				<path class="st12" d="M351.7,438.4c-9.4-0.7-17.3-5.4-23.8-11.8c-2.1-2.2-4-4.5-5.5-7.6l-0.1-0.1c-0.1-0.2,0.1-0.4,0.3-0.3
					l3.7,2.3c5.3,3.4,13.1,8.5,18.3,12.1l3.6,2.5l3.6,2.5C352.2,438.1,352,438.4,351.7,438.4L351.7,438.4L351.7,438.4z"/>
				<path class="st12" d="M351.7,438.4c-9.4-0.7-17.3-5.4-23.8-11.8c-2.1-2.2-4-4.5-5.5-7.6l-0.1-0.1c-0.1-0.2,0.1-0.4,0.3-0.3
					l3.7,2.3c5.3,3.4,13.1,8.5,18.3,12.1l3.6,2.5l3.6,2.5C352.2,438.1,352,438.4,351.7,438.4L351.7,438.4L351.7,438.4z"/>
				<path class="st12" d="M360,441.6c-9,2.2-17.8,0.2-25.8-3.9c-2.6-1.4-5.1-3.1-7.4-5.6l-0.1-0.1c-0.1-0.2,0-0.5,0.2-0.4l4.2,1.1
					c6,1.6,14.8,4,20.8,5.9c2.1,0.6,6.2,1.9,8.2,2.5C360.4,441.2,360.4,441.5,360,441.6L360,441.6L360,441.6z"/>
				<path class="st12" d="M356.8,443.7c-8.2,4.5-17.4,4.9-26.3,3.1c-2.9-0.7-5.8-1.6-8.7-3.4l-0.1-0.1c-0.2-0.1-0.1-0.4,0.1-0.4
					l4.4-0.1c6.3,0,15.6,0,21.9,0.2c2.2,0,6.6,0.1,8.8,0.2C357,443.2,357.1,443.6,356.8,443.7L356.8,443.7L356.8,443.7z"/>
				<path class="st12" d="M349.8,437.7c-9.3,0.4-17.6-3.5-24.6-9.1c-2.3-1.9-4.4-4.1-6.1-7l-0.1-0.1c-0.1-0.2,0.1-0.4,0.3-0.3
					l3.9,1.9c5.6,2.8,13.8,7,19.3,10l3.8,2l3.8,2.1C350.3,437.4,350.2,437.8,349.8,437.7L349.8,437.7L349.8,437.7z"/>
				<path class="st12" d="M352.4,443.2c-10.7,3.8-25.2,1-33.8-6.4l-0.1-0.1c-0.2-0.1,0-0.4,0.2-0.4l4.2,0.7c6.1,1.1,15.1,2.7,21.1,4
					c2.1,0.4,6.3,1.3,8.4,1.8C352.7,442.8,352.7,443.1,352.4,443.2L352.4,443.2L352.4,443.2z"/>
				<path class="st13" d="M396,449.6l-40.6-16.1c-1.7-0.9-3.8,0.5-4.5,2.8l-3.4,11.7c-0.7,2.3,0.4,4.6,2.3,4.7l44,4.4
					C397.3,457.3,399,451.2,396,449.6z"/>
			</g>
			<rect x="466.1" y="111.8" class="st7" width="13.6" height="33.9"/>
			<rect x="221.3" y="111.8" class="st7" width="13.6" height="33.9"/>
			<path class="st6" d="M205.9,63.8h279.6c14.5,0,26.2,11.7,26.2,26.2v2.9c0,14.5-11.7,26.2-26.2,26.2H205.9
				c-14.5,0-26.2-11.7-26.2-26.2V90C179.8,75.5,191.5,63.8,205.9,63.8z"/>
			<text transform="matrix(1 0 0 1 209.83 106.19)" class="st14 st15 st16">F</text>
			<text transform="matrix(1 0 0 1 231.45 106.19)" class="st14 st15 st16 st17">a</text>
			<text transform="matrix(1 0 0 1 259.6 106.19)" class="st14 st15 st16 st18">r</text>
			<text transform="matrix(1 0 0 1 282.72 106.19)" class="st14 st15 st16">m </text>
			<text transform="matrix(1 0 0 1 329.58 106.19)" class="st14 st15 st16 st18">M</text>
			<text transform="matrix(1 0 0 1 362.91 106.19)" class="st14 st15 st16 st17">a</text>
			<text transform="matrix(1 0 0 1 391.07 106.19)" class="st14 st15 st16 st18">r</text>
			<text transform="matrix(1 0 0 1 414.33 106.19)" class="st14 st15 st16 st19">k</text>
			<text transform="matrix(1 0 0 1 436.49 106.19)" class="st14 st15 st16 st18">e</text>
			<text transform="matrix(1 0 0 1 463.45 106.19)" class="st14 st15 st16">t</text>
			<polygon class="st20" points="119.2,211.7 204.8,135.1 492.5,136 560.7,211.7 			"/>
			<g>
				<polygon class="st14" points="168.2,211.7 231.8,135.1 263.2,135.1 215.9,214.4 				"/>
				<polygon class="st14" points="364.4,212.6 365.5,135.6 398,135.7 413.4,211.7 				"/>
				<polygon class="st14" points="462.7,211.7 435.3,135.8 470.9,135.9 511.7,211.7 				"/>
				<polygon class="st14" points="266.3,211.7 305.5,135.4 341.4,135.5 314.7,213.2 				"/>
			</g>
			
				<ellipse transform="matrix(0.9989 -4.762946e-02 4.762946e-02 0.9989 -26.6193 16.6949)" class="st21" cx="337" cy="566.9" rx="84.2" ry="57.2"/>
			
				<ellipse transform="matrix(0.9989 -4.762946e-02 4.762946e-02 0.9989 -26.867 16.6226)" class="st22" cx="335.4" cy="572.1" rx="78.9" ry="52.5"/>
			<text transform="matrix(0.9987 -5.146447e-02 5.146447e-02 0.9987 305.36 546.51)" class="st14 st15 st23 st18">O</text>
			<text transform="matrix(0.9987 -5.146447e-02 5.146447e-02 0.9987 324.3348 545.5322)" class="st14 st15 st23 st19">b</text>
			<text transform="matrix(0.9987 -5.146447e-02 5.146447e-02 0.9987 338.3562 544.8096)" class="st14 st15 st23 st19">s</text>
			<text transform="matrix(0.9987 -5.146447e-02 5.146447e-02 0.9987 352.6472 544.0732)" class="st14 st15 st23">t</text>
			<text transform="matrix(0.9987 -5.146447e-02 5.146447e-02 0.9987 328.0319 575.6919)" class="st14 st15 st23">&amp;</text>
			<text transform="matrix(0.9987 -5.146447e-02 5.146447e-02 0.9987 288.5667 608.0859)" class="st14 st15 st23 st18">G</text>
			<text transform="matrix(0.9987 -5.146447e-02 5.146447e-02 0.9987 306.0135 607.1868)" class="st14 st15 st23 st18">e</text>
			<text transform="matrix(0.9987 -5.146447e-02 5.146447e-02 0.9987 323.1208 606.3052)" class="st14 st15 st23 st18">m</text>
			<text transform="matrix(0.9987 -5.146447e-02 5.146447e-02 0.9987 345.0417 605.1755)" class="st14 st15 st23 st19">ü</text>
			<text transform="matrix(0.9987 -5.146447e-02 5.146447e-02 0.9987 359.8122 604.4144)" class="st14 st15 st23 st19">s</text>
			<text transform="matrix(0.9987 -5.146447e-02 5.146447e-02 0.9987 373.7337 603.697)" class="st14 st15 st23">e</text>
			<g>
				<circle class="st24" cx="235.3" cy="420" r="12"/>
				<path class="st24" d="M236.4,419.7c-2.8-4.9-11.8-8.1,4.8-15.2c10.7-4.5,15-2.4,16.2-0.7c1.1,1.6,3,5.9-5.2,15.2
					C240.8,432,240.7,427.1,236.4,419.7L236.4,419.7z"/>
				
					<ellipse transform="matrix(0.8478 -0.5304 0.5304 0.8478 -175.9376 197.3184)" class="st25" cx="255.8" cy="405.1" rx="1.1" ry="2.2"/>
				<path class="st25" d="M254.8,402.8c1.9-0.1,4-1.2,5-3c0.4-0.6,0.6-1.4,0.7-2.3c0.7,1.6,0.7,3.6,0,5.3c-0.8,1.9-2.1,3.5-3.8,4.6
					L254.8,402.8L254.8,402.8z"/>
			</g>
			<g>
				<circle class="st24" cx="230.7" cy="390.6" r="12"/>
				<path class="st24" d="M231.8,390.4c-2.8-4.9-11.8-8.1,4.8-15.2c10.7-4.5,15-2.4,16.2-0.7c1.1,1.6,3,5.9-5.2,15.2
					C236.1,402.6,236,397.8,231.8,390.4z"/>
				
					<ellipse transform="matrix(0.8478 -0.5304 0.5304 0.8478 -161.0775 190.3817)" class="st25" cx="251.1" cy="375.8" rx="1.1" ry="2.2"/>
				<path class="st25" d="M250.2,373.5c1.9-0.1,4-1.2,5-3c0.4-0.6,0.6-1.4,0.7-2.3c0.7,1.6,0.7,3.6,0,5.3c-0.8,1.9-2.1,3.5-3.8,4.6
					L250.2,373.5L250.2,373.5z"/>
			</g>
			<g>
				<circle class="st24" cx="204.4" cy="379.7" r="12"/>
				<path class="st24" d="M204.6,378.6c-5.5,1-11.6,8.5-12.8-9.5c-0.8-11.6,2.6-15,4.7-15.5c1.8-0.5,6.5-0.9,12.6,9.9
					C217.5,378.4,212.9,377,204.6,378.6L204.6,378.6z"/>
				
					<ellipse transform="matrix(0.9747 -0.2236 0.2236 0.9747 -74.4969 53.0696)" class="st25" cx="197.1" cy="355.5" rx="2.2" ry="1.1"/>
				<path class="st25" d="M194.6,355.6c0.5-1.9,0.1-4.2-1.2-5.7c-0.5-0.6-1.2-1-1.9-1.4c1.8-0.1,3.6,0.5,5,1.8
					c1.5,1.4,2.6,3.1,3.1,5.1L194.6,355.6L194.6,355.6L194.6,355.6z"/>
			</g>
			<g>
				<path class="st26" d="M267.5,377.2c12.2-12.3,16.8,2.8,19.7,2.2c11.3-2.4,19.1,5,14.6,14.1s-14.9,13.3-25.3,8.4
					C266.1,396.9,260.3,384.5,267.5,377.2L267.5,377.2z"/>
				<path class="st26" d="M267.5,377.2c12.2-12.3,16.8,2.8,19.7,2.2c11.3-2.4,19.1,5,14.6,14.1s-14.9,13.3-25.3,8.4
					C266.1,396.9,260.3,384.5,267.5,377.2L267.5,377.2z"/>
				
					<ellipse transform="matrix(0.8561 -0.5168 0.5168 0.8561 -156.6067 196.6665)" class="st27" cx="274.8" cy="379.5" rx="3.8" ry="2.2"/>
				<path class="st28" d="M285.6,380c0,0,0.9-4,2.4-4.7c5.4-2.6,10.5,0.5,10.5,0.5s-3,5.6-6.7,6.4S285.6,380,285.6,380z"/>
				<path class="st28" d="M284.2,380.4c0,0-3.9-1.5-4.5-3.1c-2.1-5.8,1.6-10.5,1.6-10.5s5.5,3.8,5.8,7.6
					C287.5,378.2,284.2,380.4,284.2,380.4L284.2,380.4z"/>
			</g>
			<g>
				<path class="st26" d="M227.9,354.2c9.4-9.8,12.9,2.2,15.2,1.7c8.7-1.9,14.7,4,11.3,11.2c-3.5,7.2-11.5,10.6-19.5,6.6
					C226.8,369.8,222.4,359.9,227.9,354.2L227.9,354.2z"/>
				<path class="st29" d="M227.9,354.2c9.4-9.8,12.9,2.2,15.2,1.7c8.7-1.9,14.7,4,11.3,11.2c-3.5,7.2-11.5,10.6-19.5,6.6
					C226.8,369.8,222.4,359.9,227.9,354.2L227.9,354.2z"/>
				
					<ellipse transform="matrix(0.8411 -0.5408 0.5408 0.8411 -155.4216 182.8756)" class="st27" cx="233.6" cy="356" rx="3" ry="1.8"/>
				<path class="st28" d="M241.9,356.4c0,0,0.7-3.1,1.9-3.7c4.2-2.1,8.1,0.4,8.1,0.4s-2.3,4.5-5.1,5.1S241.9,356.4,241.9,356.4
					L241.9,356.4z"/>
				<path class="st28" d="M240.8,356.7c0,0-3-1.2-3.5-2.4c-1.6-4.6,1.2-8.3,1.2-8.3s4.2,3,4.5,6C243.3,355,240.8,356.7,240.8,356.7
					L240.8,356.7z"/>
			</g>
			<g>
				<path class="st26" d="M205.5,370.9c3.1-13.2,12.3-4.7,13.9-6.2c6.5-6.1,14.7-4.1,15.4,3.9s-4.5,14.9-13.4,15.7
					C212.5,384.9,203.7,378.7,205.5,370.9L205.5,370.9z"/>
				<path class="st29" d="M205.5,370.9c3.1-13.2,12.3-4.7,13.9-6.2c6.5-6.1,14.7-4.1,15.4,3.9s-4.5,14.9-13.4,15.7
					C212.5,384.9,203.7,378.7,205.5,370.9L205.5,370.9z"/>
				
					<ellipse transform="matrix(0.4467 -0.8947 0.8947 0.4467 -213.7294 393.506)" class="st27" cx="211.3" cy="369.5" rx="3" ry="1.8"/>
				<path class="st28" d="M218.6,365.6c0,0-1-3-0.3-4.1c2.5-3.9,7.2-3.8,7.2-3.8s0.3,5-1.8,7S218.6,365.6,218.6,365.6L218.6,365.6z"
					/>
				<path class="st28" d="M217.8,366.5c0,0-3.2,0.5-4.2-0.3c-3.7-3.1-3.2-7.8-3.2-7.8s5.1,0.4,6.9,2.9
					C219.1,363.7,217.8,366.5,217.8,366.5L217.8,366.5z"/>
			</g>
			<g>
				<path class="st26" d="M272.7,405.7c3.1-13.2,12.3-4.7,13.9-6.2c6.5-6.1,14.7-4.1,15.4,3.9s-4.5,14.9-13.4,15.7
					S270.9,413.5,272.7,405.7L272.7,405.7z"/>
				<path class="st29" d="M272.7,405.7c3.1-13.2,12.3-4.7,13.9-6.2c6.5-6.1,14.7-4.1,15.4,3.9s-4.5,14.9-13.4,15.7
					S270.9,413.5,272.7,405.7L272.7,405.7z"/>
				
					<ellipse transform="matrix(0.4467 -0.8947 0.8947 0.4467 -207.6701 472.91)" class="st27" cx="278.5" cy="404.3" rx="3" ry="1.8"/>
				<path class="st28" d="M285.8,400.5c0,0-1-3-0.3-4.1c2.5-3.9,7.2-3.8,7.2-3.8s0.3,5-1.8,7S285.8,400.5,285.8,400.5L285.8,400.5z"
					/>
				<path class="st28" d="M285.1,401.3c0,0-3.2,0.5-4.2-0.3c-3.7-3.1-3.2-7.8-3.2-7.8s5.1,0.4,6.9,2.9
					C286.4,398.5,285.1,401.3,285.1,401.3L285.1,401.3z"/>
			</g>
			<g>
				<path class="st26" d="M469.9,427c12.2-5.9,11.3,6.6,13.6,7c8.8,1.3,12.4,8.9,6.6,14.5s-14.5,5.9-20.6-0.6
					C463.4,441.2,462.7,430.4,469.9,427L469.9,427z"/>
				<path class="st29" d="M469.9,427c12.2-5.9,11.3,6.6,13.6,7c8.8,1.3,12.4,8.9,6.6,14.5s-14.5,5.9-20.6-0.6
					C463.4,441.2,462.7,430.4,469.9,427L469.9,427z"/>
				
					<ellipse transform="matrix(0.9776 -0.2105 0.2105 0.9776 -80.0304 109.5286)" class="st27" cx="474.6" cy="430.7" rx="3" ry="1.8"/>
				<path class="st28" d="M482.2,434c0,0,1.8-2.7,3-2.8c4.6-0.5,7.5,3.2,7.5,3.2s-3.8,3.4-6.6,2.9S482.2,434,482.2,434L482.2,434z"
					/>
				<path class="st28" d="M481.1,433.9c0,0-2.4-2.2-2.4-3.5c0.1-4.9,4.1-7.4,4.1-7.4s2.9,4.3,2.1,7.2
					C484,433.2,481.1,433.9,481.1,433.9z"/>
			</g>
			<g>
				<path class="st26" d="M190.7,390.8c5.4-16.6,16-4.8,18.3-6.5c8.9-7.1,19-3.7,19,6.5s-7.3,18.6-18.7,18.6
					S187.6,400.5,190.7,390.8L190.7,390.8z"/>
				
					<ellipse transform="matrix(0.5156 -0.8568 0.8568 0.5156 -237.8857 358.5864)" class="st27" cx="198.2" cy="389.7" rx="3.8" ry="2.2"/>
				<path class="st28" d="M207.9,385.4c0,0-0.9-4,0.1-5.3c3.6-4.8,9.5-4.2,9.5-4.2s-0.2,6.5-3.1,8.8
					C211.5,387,207.9,385.4,207.9,385.4L207.9,385.4z"/>
				<path class="st28" d="M206.9,386.4c0,0-4.1,0.4-5.3-0.8c-4.4-4.3-3.2-10.3-3.2-10.3s6.5,1.1,8.4,4.4
					C208.8,383,206.9,386.4,206.9,386.4L206.9,386.4z"/>
			</g>
			<g>
				<path class="st26" d="M196.2,429.7c-5.1-14.5,8.3-12.6,8.9-15.2c2.3-10.1,10.9-13.7,16.3-6.6s4.8,17.1-2.9,23.7
					S199.1,438.3,196.2,429.7L196.2,429.7z"/>
				
					<ellipse transform="matrix(0.9966 -8.193851e-02 8.193851e-02 0.9966 -34.1197 17.8679)" class="st27" cx="200.6" cy="424.6" rx="1.9" ry="3.4"/>
				<path class="st28" d="M205,416c0,0-2.7-2.2-2.7-3.7c0-5.4,4.2-8.4,4.2-8.4s3.3,4.5,2.5,7.8C208.2,415,205,416,205,416L205,416z"
					/>
				<path class="st28" d="M204.8,417.3c0,0-2.6,2.7-4,2.5c-5.2-0.4-7.5-5.2-7.5-5.2s4.9-3,8-1.9
					C204.3,413.9,204.8,417.3,204.8,417.3z"/>
			</g>
			<g>
				<rect x="78.6" y="566.9" class="st11" width="126.6" height="90.2"/>
				<g>
					
						<ellipse transform="matrix(0.9756 -0.2193 0.2193 0.9756 -121.4828 40.6863)" class="st30" cx="122.5" cy="567.5" rx="13.2" ry="49.3"/>
					<path class="st28" d="M129.2,624.6c10.4-40.2,0.6-87.9-26.1-127.6c21.9,15.3,37.9,39.1,42.4,63.1
						C149.9,584.1,142.7,607.8,129.2,624.6L129.2,624.6z"/>
					<path class="st28" d="M144.1,625c-33.3-37.8-46.9-85.3-36.6-127.1c-17.6,17.5-23.8,42.5-16.3,66.4
						C98.7,588.1,119.5,610.3,144.1,625z"/>
				</g>
				<g>
					<path class="st13" d="M137.5,597.4c0,0-13.8,8.5-27,7.8c-7.2-0.4-21.6-14.2-22.7-20.7c-6.5-38.8,30.8-31.6,30.8-31.6
						s1.6-7.8,13.3-12.2c19.1-7.3,32.1,11.5,33,17.1c4.1,26.8-12.2,32.8-12.2,32.8L137.5,597.4z"/>
					<path class="st31" d="M141.8,594.3c-2.4-7.7-5.7-14.3-10.1-21c-4.4-6.8-9.1-12.9-13.2-20.4C135.8,555.6,152.1,578,141.8,594.3
						L141.8,594.3L141.8,594.3z"/>
					<path class="st31" d="M117.2,553.4c6.2,15,12.6,28.6,17.4,44.1C119.2,591.8,109,568.1,117.2,553.4
						C117.2,553.4,117.2,553.4,117.2,553.4z"/>
					<path class="st31" d="M117.2,553.4c-3.6,1.7-4.9,5-5,8.7c-0.2,4.9,0.6,9.8,1.4,14.6c0.1,0.3,0.1,1.1,0.3,1.4
						c2.4,6.9,6.9,13.7,12.7,18.4c1.9,1.5,4.1,2.7,6.9,3.6c-2.6,1.3-5.8,1.5-8.8,0.9c-9.9-2.1-18.9-12.1-20.7-22
						c-0.7-7.3-0.6-15.5,3.8-21.8C109.8,554.3,113.8,552.3,117.2,553.4L117.2,553.4L117.2,553.4z"/>
					<path class="st31" d="M118.6,553c-9.3,0.9-21.7,4.3-25.3,13.4c-2,6.1-1.5,13.3,0.4,19.4c2.6,5.9,7.7,10.9,13.5,13.8
						c7.4,3.8,16.6,2.9,24.5,0.6c-14.2,13.2-35,9-45.3-7c-5.7-9.2-5.8-25.4,1.3-34C95.3,550.5,108.5,549.1,118.6,553L118.6,553
						L118.6,553z"/>
					<path class="st31" d="M122.2,549.8c10.4-5.8,24.9,0.1,29.9,10.8c4.8,9.3,5.3,25-4,31.5c1.1-5.1,0.4-9.6-0.6-14.4
						C144.2,562.6,137.9,554.2,122.2,549.8L122.2,549.8L122.2,549.8z"/>
					<path class="st31" d="M117.9,555.3c-0.6-13,13.7-20.6,25.3-20c8.2,0.1,15.5,3.4,20.1,10.5c8.6,12,8.9,30.1-1.7,40.8
						c-3.4,3.4-8.2,5.5-12.7,5.2c15-7.1,14.7-28.4,6.2-40.2c-4-6.4-11.1-7.9-18.2-7.8C129,543.8,121.2,547.7,117.9,555.3
						L117.9,555.3L117.9,555.3z"/>
					<path class="st32" d="M112.2,555.3c-3.4-6.2-2.3-15.8,1.5-21.5c4.7-6.7,11.4-3.6,15.6,1.5l1.4,1.7c-3.1-1.7-10.4-5.6-11.2-0.2
						c-0.5,3.2,0.5,7.9,2.7,10.6c0.2,0.3,0.5,0.4,0.5,0.2C127.5,554.7,117.5,562.1,112.2,555.3L112.2,555.3L112.2,555.3z"/>
				</g>
				<g>
					<g>
						
							<ellipse transform="matrix(0.5134 -0.8582 0.8582 0.5134 -410.6788 421.9319)" class="st30" cx="166.7" cy="573.1" rx="51.2" ry="15"/>
						<path class="st33" d="M130.5,621.7c39.2-24.7,65.6-67.9,70.6-115.6c8.7,25.7,5.7,54.3-8,75.7
							C179.3,603.3,155.2,617.1,130.5,621.7L130.5,621.7z"/>
						<path class="st33" d="M143.9,631.4c-2.4-50.3,20.3-95.8,60.6-121.7c-29,2.5-53.2,18.1-64,41.3
							C129.6,574.2,132.3,604.5,143.9,631.4z"/>
					</g>
					<rect x="59" y="564" class="st34" width="169.4" height="20.5"/>
					<rect x="59" y="561" class="st34" width="169.4" height="25.9"/>
					<rect x="59" y="588.5" class="st34" width="169.4" height="23.2"/>
					<rect x="59" y="612.9" class="st34" width="169.4" height="23.6"/>
					<rect x="59" y="638.2" class="st34" width="169.4" height="20.5"/>
				</g>
				<rect x="66.8" y="547.4" class="st11" width="23.6" height="111.3"/>
				<rect x="197.6" y="549.1" class="st11" width="23.6" height="109.7"/>
			</g>
			<g>
				<rect x="355.5" y="354.7" class="st34" width="139.1" height="12.3"/>
				<rect x="355.5" y="354.7" class="st34" width="139.1" height="12.3"/>
				<rect x="355.5" y="369.4" class="st34" width="139.1" height="12.3"/>
				<rect x="355.5" y="384" class="st34" width="139.1" height="12.3"/>
				<rect x="355.5" y="399.3" class="st34" width="139.1" height="12.3"/>
			</g>
			<rect x="361.9" y="344.7" class="st11" width="19.4" height="65.9"/>
			<rect x="469.3" y="345.7" class="st11" width="19.4" height="65.9"/>
			<g>
				<rect x="175.6" y="362.9" class="st34" width="95.4" height="15.8"/>
				<rect x="175.6" y="362.9" class="st34" width="95.4" height="15.8"/>
				<rect x="175.6" y="381.7" class="st34" width="95.4" height="15.8"/>
				<rect x="175.6" y="400.6" class="st34" width="95.4" height="15.8"/>
				<rect x="175.6" y="420.1" class="st34" width="95.4" height="15.8"/>
			</g>
			<rect x="180" y="350.1" class="st11" width="13.3" height="84.6"/>
			<rect x="253.6" y="351.4" class="st11" width="13.3" height="84.6"/>
			<g>
				<circle class="st24" cx="199.4" cy="442.1" r="12"/>
				<path class="st24" d="M198.5,441.5c-1.6,5.4,2.4,14.1-14.2,7.1c-10.7-4.5-12.2-9.1-11.8-11.2c0.4-1.9,2.1-6.2,14.6-6.8
					C204.2,429.9,200.8,433.3,198.5,441.5z"/>
				
					<ellipse transform="matrix(0.2392 -0.971 0.971 0.2392 -292.2777 502.5149)" class="st25" cx="174.5" cy="437.8" rx="2.2" ry="1.1"/>
				<path class="st25" d="M173.5,440.1c-1.4-1.3-3.7-2-5.6-1.5c-0.7,0.2-1.4,0.6-2.1,1.1c0.7-1.6,2.1-3,3.8-3.7
					c1.9-0.7,3.9-0.9,5.9-0.5L173.5,440.1L173.5,440.1L173.5,440.1z"/>
			</g>
			<g>
				<circle class="st24" cx="260.3" cy="447.3" r="12"/>
				<path class="st24" d="M261.4,447.1c-2.8-4.9-11.8-8.1,4.8-15.2c10.7-4.5,15-2.4,16.2-0.7c1.1,1.6,3,5.9-5.2,15.2
					C265.8,459.3,265.7,454.5,261.4,447.1z"/>
				
					<ellipse transform="matrix(0.8478 -0.5304 0.5304 0.8478 -186.6417 214.7628)" class="st25" cx="280.8" cy="432.5" rx="1.1" ry="2.2"/>
				<path class="st25" d="M279.8,430.2c1.9-0.1,4-1.2,5-3c0.4-0.6,0.6-1.4,0.7-2.3c0.7,1.6,0.7,3.6,0,5.3c-0.8,1.9-2.1,3.5-3.8,4.6
					L279.8,430.2L279.8,430.2z"/>
			</g>
		</g>
		<g id="Ebene_4">
			<g>
				<path class="st13" d="M499,666.5c0,0-27.6,3.3-47.8-7.3c-11-5.8-23.5-37.7-20.5-48.6c17.9-65.1,70.8-27.1,70.8-27.1
					s8-11,29.6-9.5c35.1,2.4,41.8,41.1,39.2,50.4c-12.9,44.8-42.7,42.3-42.7,42.3L499,666.5L499,666.5z"/>
				<path class="st31" d="M508,664.9c5.7-12.9,7-27,4.9-40.8c-2-13.9-6.4-27.2-11.4-40.5c4.7,5.5,8.4,11.9,11.3,18.6
					C521.5,621.8,523.4,648,508,664.9L508,664.9L508,664.9z"/>
				<path class="st31" d="M499.1,583.3c-8.7,26.3-8.5,54.2-4.6,81.4C482.2,641.5,482.8,604.4,499.1,583.3L499.1,583.3z"/>
				<path class="st31" d="M499.1,583.3c-10-2.1-16.2,5.3-20.3,13.2c-3.1,5.9-5.4,12.4-7.4,18.8c-2.1,6.1-1.3,12.9-0.5,19.2
					c2.1,13,7.5,26.8,19.8,33.3c-9.5-2-16.8-10-20.8-18.6c-4.2-8.8-6.2-18.4-5.7-28.2c0.1-3.6,1.5-7.4,2.7-10.8
					C471.5,597.6,482.6,575.7,499.1,583.3L499.1,583.3L499.1,583.3z"/>
				<path class="st31" d="M501.5,583.6c-13.1-6.9-29-10.9-43.4-6.3c-7,2.3-12.1,7.4-15.9,13.5c-4.8,7.7-7.9,16.7-8.9,25.7
					c-0.3,5.3,0.9,10.8,2.5,15.9c7.8,23.6,27.8,34.4,51.9,34.3c-11.5,1.8-24,0.7-34.5-5.1c-14.4-7.8-23.6-23.2-25.7-39.2
					c-1.4-11.5,3.7-25,9.8-34.7c3.7-5.5,8.6-10.7,14.9-13.4C468.7,567.6,488,573.3,501.5,583.6L501.5,583.6L501.5,583.6z"/>
				<path class="st31" d="M509.5,581.2c14.4,2.5,27.4,14,31.6,28.3c3.5,12.2,1.3,25.5-3.8,37c-3.7,8-9.5,16.1-17.9,19.5
					c3.5-2.8,6.2-6.1,8.3-9.7c6.3-10.8,9.3-23.8,9.1-36.1C536.4,603.1,524.7,588.7,509.5,581.2L509.5,581.2L509.5,581.2z"/>
				<path class="st31" d="M498.8,586.6c14-23,48.6-16.5,64.4,1.2c3,3.4,5.5,7.7,6.5,12c7.3,24.1-3.1,53.7-26.4,64.6
					c-6.9,3.1-15.1,4-22.2,1.3c7.4,1.3,14.8-0.4,20.9-4c21.4-12.7,29.7-42.5,20.3-65.1c-4.9-9.1-14.4-15.2-24.1-18.7
					C524.3,573.1,508.7,574.9,498.8,586.6L498.8,586.6L498.8,586.6z"/>
				<path class="st32" d="M494.4,581.7c-1.9-13.7,16.4-43.3,30.8-27.6c3.3,3.9,5.1,8.5,6.7,13.2c-2.4-3.9-5.2-8.2-8.9-10.8
					c-10.7-7.9-16.4,11.3-16.4,19.3c0,1,0.2,2.7,0.5,3.3c1.6,3.3,0.3,7.3-3,9C499.4,590.3,494.4,586.8,494.4,581.7L494.4,581.7
					L494.4,581.7z"/>
			</g>
		</g>
		<g id="Ebene_5">
			<g>
				<path class="st35" d="M1125.9,569.8c17.8-19.1-14.6-31.2-14.6-31.2c-3.2-43.4-29.2-49.2-29.2-49.2c-16.2-49.2-60-28.1-60-28.1
					c3.2-44.4-38.9-38.9-38.9-38.9c-35.7-31.2-61.6,12.1-61.6,12.1c-29.2-15.6-34,19.1-34,19.1c-47,20.8-11.3,59-11.3,59
					c-48.7,24.3-24.3,57.3-24.3,57.3c6,7,13.9,12,24.3,13.2c-1.6,4.8-1.6,13.3,11.3,13.6c0,0,4.9,8,34,4.4
					c-1.2,3,23.8,15.3,61.6,2.8c-0.9,4.3,40.8,8.1,38.9-9c0,0,43.8,4.9,60-6.5c0,0,25.9-1.3,29.2-11.3
					C1116.9,581.5,1126.8,577,1125.9,569.8L1125.9,569.8z"/>
				<g>
					<path class="st36" d="M1046.6,481.6c-1.1-1.2-1.4-2.9-0.7-4.2c0.9-1.7,3.1-2.1,4.9-1c0.7,0.4,1.1,1,1.4,1.6
						c0.1-0.3,0.2-0.5,0.4-0.8c1.2-1.8,3.3-2.4,4.8-1.4c1.4,1.1,1.6,3.4,0.4,5.2c-0.1,0.1-0.2,0.2-0.2,0.2c2,0.7,3.2,2.5,2.8,4.1
						s-2.4,2.3-4.4,1.7c-0.1,0-0.1-0.1-0.2-0.1c-0.1,2.2-1.5,3.9-3.2,3.9c-1.7,0-3-1.5-3.2-3.5c-0.1,0.1-0.3,0.2-0.4,0.2
						c-2,0.7-4-0.1-4.5-1.8C1043.8,484.2,1044.8,482.4,1046.6,481.6L1046.6,481.6z"/>
					<path class="st36" d="M912.2,518.5c-1.1-1.2-1.4-2.9-0.7-4.2c0.9-1.7,3.1-2.1,4.9-1c0.7,0.4,1.1,1,1.4,1.6
						c0.1-0.3,0.2-0.5,0.4-0.8c1.2-1.8,3.3-2.4,4.8-1.4c1.4,1.1,1.6,3.4,0.4,5.2c-0.1,0.1-0.2,0.2-0.2,0.2c2,0.7,3.2,2.5,2.8,4.1
						c-0.5,1.6-2.4,2.3-4.4,1.7c-0.1,0-0.1-0.1-0.2-0.1c-0.1,2.2-1.5,3.9-3.2,3.9c-1.7,0-3-1.5-3.2-3.5c-0.1,0.1-0.3,0.2-0.4,0.2
						c-2,0.7-4-0.1-4.5-1.8C909.4,521.1,910.4,519.4,912.2,518.5L912.2,518.5z"/>
					<path class="st36" d="M874.5,542.5c-1.8-2-2.4-4.8-1.2-7.1c1.5-2.8,5.2-3.6,8.2-1.7c1.1,0.7,1.8,1.6,2.4,2.7
						c0.2-0.5,0.3-0.9,0.6-1.3c2-3.1,5.6-4.1,8-2.3c2.4,1.8,2.7,5.8,0.7,8.8c-0.1,0.2-0.3,0.3-0.4,0.4c3.3,1.1,5.4,4.2,4.7,6.8
						c-0.8,2.7-4.1,3.9-7.5,2.8c-0.1,0-0.2-0.1-0.3-0.2c-0.1,3.6-2.5,6.6-5.5,6.6c-2.8,0-5-2.6-5.3-6c-0.2,0.1-0.4,0.3-0.7,0.4
						c-3.3,1.2-6.7-0.1-7.6-3C869.8,546.8,871.5,543.8,874.5,542.5z"/>
					<path class="st36" d="M955.2,501c-1.8-2-2.4-4.9-1.2-7.1c1.5-2.8,5.2-3.6,8.2-1.7c1.1,0.7,1.8,1.6,2.4,2.7
						c0.2-0.5,0.3-0.9,0.6-1.4c2-3.1,5.6-4.1,8-2.3c2.4,1.8,2.7,5.8,0.7,8.8c-0.1,0.2-0.3,0.3-0.4,0.4c3.3,1.1,5.4,4.2,4.7,6.8
						c-0.8,2.7-4.1,3.9-7.5,2.8c-0.1,0-0.2-0.1-0.3-0.2c-0.1,3.6-2.5,6.6-5.5,6.6c-2.8,0-5-2.6-5.3-6c-0.2,0.1-0.4,0.3-0.7,0.4
						c-3.3,1.2-6.7-0.1-7.6-3C950.5,505.3,952.3,502.3,955.2,501z"/>
					<path class="st36" d="M959.8,444.9c-1.8-2-2.4-4.9-1.2-7.1c1.5-2.8,5.2-3.6,8.2-1.7c1.1,0.7,1.8,1.6,2.4,2.7
						c0.2-0.5,0.3-0.9,0.6-1.4c2-3.1,5.6-4.1,8-2.3c2.4,1.8,2.7,5.8,0.7,8.8c-0.1,0.2-0.3,0.3-0.4,0.4c3.3,1.1,5.4,4.2,4.7,6.8
						c-0.8,2.7-4.1,3.9-7.5,2.8c-0.1,0-0.2-0.1-0.3-0.2c-0.1,3.6-2.5,6.6-5.5,6.6c-2.8,0-5-2.6-5.3-6c-0.2,0.1-0.4,0.3-0.7,0.4
						c-3.3,1.2-6.7-0.1-7.6-3C955.1,449.2,956.8,446.2,959.8,444.9L959.8,444.9z"/>
					<path class="st36" d="M1050.8,533.4c-1.8-2-2.4-4.8-1.2-7.1c1.5-2.8,5.2-3.6,8.2-1.7c1.1,0.7,1.8,1.6,2.4,2.7
						c0.2-0.5,0.3-0.9,0.6-1.3c2-3.1,5.6-4.1,8-2.3c2.4,1.8,2.7,5.8,0.7,8.8c-0.1,0.2-0.3,0.3-0.4,0.4c3.3,1.1,5.4,4.2,4.7,6.8
						c-0.8,2.7-4.1,3.9-7.5,2.8c-0.1,0-0.2-0.1-0.3-0.2c-0.1,3.6-2.5,6.6-5.5,6.6c-2.8,0-5-2.6-5.3-6c-0.2,0.1-0.4,0.3-0.7,0.4
						c-3.3,1.2-6.7-0.1-7.6-3C1046.1,537.7,1047.8,534.7,1050.8,533.4L1050.8,533.4z"/>
					<path class="st36" d="M1096,538.5c0.1,0.8,0.5,1.4,1.2,1.5c0.8,0.2,1.6-0.5,1.8-1.5c0.1-0.4,0-0.7-0.1-1c0.1,0,0.2,0.1,0.4,0.1
						c1,0.1,1.8-0.5,1.9-1.4s-0.6-1.6-1.6-1.8c-0.1,0-0.1,0-0.2,0c0.4-0.9,0.2-2-0.5-2.3c-0.7-0.3-1.5,0.2-1.9,1.2c0,0,0,0.1,0,0.1
						c-0.7-0.6-1.7-0.6-2.3,0c-0.5,0.6-0.4,1.6,0.2,2.3c-0.1,0-0.1,0-0.2,0.1c-0.8,0.5-1.2,1.5-0.8,2.2
						C1094.3,538.8,1095.2,539,1096,538.5L1096,538.5z"/>
					<path class="st36" d="M959.7,547.3c0.1,0.8,0.5,1.4,1.2,1.5c0.8,0.2,1.6-0.5,1.8-1.5c0.1-0.4,0-0.7-0.1-1
						c0.1,0,0.2,0.1,0.4,0.1c1,0.1,1.8-0.5,1.9-1.4s-0.6-1.6-1.6-1.8c0,0-0.1,0-0.2,0c0.4-0.9,0.2-2-0.5-2.3
						c-0.7-0.3-1.5,0.2-1.9,1.2c0,0,0,0.1,0,0.1c-0.7-0.6-1.7-0.6-2.3,0c-0.5,0.6-0.4,1.6,0.2,2.3c-0.1,0-0.1,0-0.2,0.1
						c-0.8,0.5-1.2,1.5-0.8,2.2C958,547.6,958.9,547.7,959.7,547.3L959.7,547.3z"/>
					<path class="st36" d="M1024.2,497.2c0.1,0.8,0.5,1.4,1.2,1.5c0.8,0.2,1.6-0.5,1.8-1.5c0.1-0.4,0-0.7-0.1-1
						c0.1,0,0.2,0.1,0.4,0.1c1,0.1,1.8-0.5,1.9-1.4s-0.6-1.6-1.6-1.8c-0.1,0-0.1,0-0.2,0c0.4-0.9,0.2-2-0.5-2.3
						c-0.7-0.3-1.5,0.2-1.9,1.1c0,0,0,0.1,0,0.1c-0.7-0.6-1.7-0.6-2.3,0c-0.5,0.6-0.4,1.6,0.2,2.3c-0.1,0-0.1,0-0.2,0.1
						c-0.8,0.5-1.2,1.5-0.8,2.2C1022.5,497.4,1023.4,497.6,1024.2,497.2L1024.2,497.2z"/>
					<path class="st36" d="M997.5,540.8c0.3,3.1,2.1,5.7,4.7,6.2c3.3,0.7,6.6-2.1,7.4-6.2c0.3-1.5,0.1-2.9-0.3-4.2
						c0.5,0.2,1,0.4,1.5,0.4c3.9,0.4,7.3-2.1,7.7-5.6s-2.6-6.7-6.5-7.1c-0.2,0-0.4,0-0.6,0c1.6-3.8,0.7-8-2-9.2s-6.1,0.8-7.7,4.7
						c-0.1,0.2-0.1,0.3-0.1,0.5c-3-2.6-7-2.5-9.2,0.1c-2,2.5-1.6,6.4,0.8,9.2c-0.3,0.1-0.5,0.2-0.8,0.3c-3.4,2.1-4.8,6.2-3.2,9.1
						C990.7,541.9,994.3,542.5,997.5,540.8L997.5,540.8z"/>
					<path class="st36" d="M908.7,463.1c-2.8,0.9-4.8,3.4-4.7,6.2c0.1,3.6,3.3,6.5,7.2,6.4c1.4,0,2.6-0.5,3.7-1.2
						c0,0.5-0.2,1.1-0.1,1.7c0.4,4.2,3.4,7.2,6.7,6.9c3.3-0.4,5.6-4,5.2-8.2c0-0.2-0.1-0.4-0.2-0.6c3.8,0.9,7.4-0.9,8-4
						c0.6-3.1-2-6.2-5.8-7.1c-0.2,0-0.3,0-0.4,0c1.8-3.6,0.9-7.9-2-9.6c-2.7-1.6-6.2-0.3-8.2,2.7c-0.2-0.3-0.3-0.5-0.5-0.8
						c-2.6-3.1-6.7-3.8-9-1.5C906.3,456.1,906.5,460,908.7,463.1L908.7,463.1z"/>
					<path class="st36" d="M986.5,472.8c-0.1,1.3,0.4,2.5,1.5,3c1.3,0.6,2.9-0.3,3.5-1.9c0.2-0.6,0.2-1.2,0.2-1.8
						c0.2,0.1,0.4,0.2,0.6,0.3c1.6,0.5,3.2-0.2,3.6-1.6c0.4-1.4-0.5-3-2.1-3.5c-0.1,0-0.2,0-0.3,0c0.9-1.5,0.9-3.2-0.1-4
						c-1-0.8-2.6-0.2-3.5,1.3c0,0.1,0,0.1-0.1,0.2c-1-1.3-2.7-1.7-3.8-0.8c-1,0.9-1.2,2.5-0.4,3.9c-0.1,0-0.2,0-0.4,0.1
						c-1.6,0.6-2.5,2.1-2,3.5C983.6,472.7,985,473.2,986.5,472.8L986.5,472.8z"/>
				</g>
				<g class="st37">
					<path class="st35" d="M863.3,483.4c0-1.5,0.1-2.9,0.2-4.3c-0.4,2.6-0.4,5.3,0,7.8C863.4,485.7,863.3,484.5,863.3,483.4
						L863.3,483.4z"/>
					<path class="st35" d="M1111.3,538.5c0-0.1,0-0.2,0-0.4c-4.9,12-14.8,20.3-26.2,20.3c-8.7,0-16.4-4.8-21.8-12.3
						c-3.8,2.6-8.4,4-13.4,4c-3.3,0-6.4-0.7-9.3-1.8c-6.2,7-16.4,11.7-28,11.7c-5.9,0-11.5-1.2-16.3-3.3c-5.6,6.3-14,10.3-23.3,10.3
						c-14.7,0-27-9.9-29.9-23.1c-15.7,4.6-30,1.7-35.6-8.6c-1.4-2.5-2.1-5.3-2.3-8.2c-2,0.5-4.2,0.7-6.3,0.7
						c-10.1,0-19.2-5.3-25.7-13.8c-44.7,24.1-21.4,55.7-21.4,55.7c6,7,13.9,12,24.3,13.2c-1.6,4.8-1.6,13.3,11.3,13.6
						c0,0,4.9,8,34,4.4c-1.2,3,23.8,15.3,61.6,2.8c-0.9,4.3,40.8,8.1,38.9-9c0,0,43.8,4.9,60-6.5c0,0,25.9-1.3,29.2-11.3
						c5.6,4.6,15.5,0.1,14.6-7.2C1143.7,550.6,1111.3,538.5,1111.3,538.5L1111.3,538.5z"/>
				</g>
			</g>
			<g>
				<path class="st35" d="M1101.8,612.2c-19.3-19.2,15.8-31.5,15.8-31.5c3.5-43.7,31.6-49.6,31.6-49.6c17.6-49.6,65-28.3,65-28.3
					c-3.5-44.7,42.2-39.2,42.2-39.2c38.7-31.5,66.8,12.2,66.8,12.2c31.6-15.7,36.9,19.2,36.9,19.2c51,21,12.3,59.4,12.3,59.4
					c52.7,24.5,26.4,57.7,26.4,57.7c-6.5,7-15.1,12.1-26.4,13.2c1.7,4.9,1.7,13.4-12.3,13.7c0,0-5.3,8-36.9,4.4
					c1.3,3-25.8,15.5-66.8,2.8c0.9,4.3-44.2,8.1-42.2-9c0,0-47.4,4.9-65-6.5c0,0-28.1-1.3-31.6-11.4
					C1111.5,624.1,1100.8,619.6,1101.8,612.2L1101.8,612.2z"/>
				<g>
					<path class="st38" d="M1187.7,523.4c1.2-1.2,1.5-2.9,0.8-4.2c-1-1.7-3.3-2.1-5.3-1c-0.7,0.4-1.2,1-1.6,1.6
						c-0.1-0.3-0.2-0.5-0.4-0.8c-1.3-1.8-3.6-2.5-5.2-1.4s-1.8,3.5-0.5,5.3c0.1,0.1,0.2,0.2,0.2,0.2c-2.2,0.7-3.5,2.5-3,4.1
						c0.5,1.6,2.7,2.4,4.8,1.7c0.1,0,0.2-0.1,0.2-0.1c0.1,2.2,1.6,3.9,3.5,3.9c1.8,0,3.2-1.6,3.4-3.6c0.2,0.1,0.3,0.2,0.4,0.2
						c2.1,0.7,4.3-0.1,4.9-1.8C1190.7,526,1189.6,524.2,1187.7,523.4L1187.7,523.4z"/>
					<path class="st38" d="M1333.4,560.7c1.2-1.2,1.5-2.9,0.8-4.2c-1-1.7-3.3-2.1-5.3-1c-0.7,0.4-1.2,1-1.6,1.6
						c-0.1-0.3-0.2-0.5-0.4-0.8c-1.3-1.8-3.6-2.5-5.2-1.4s-1.8,3.5-0.5,5.3c0.1,0.1,0.2,0.2,0.2,0.2c-2.2,0.7-3.5,2.5-3,4.1
						c0.5,1.6,2.7,2.4,4.8,1.7c0.1,0,0.2-0.1,0.2-0.1c0.1,2.2,1.6,3.9,3.5,3.9c1.8,0,3.2-1.6,3.4-3.6c0.2,0.1,0.3,0.2,0.4,0.2
						c2.1,0.7,4.3-0.1,4.9-1.8C1336.4,563.2,1335.3,561.4,1333.4,560.7L1333.4,560.7z"/>
					<path class="st38" d="M1374.2,584.7c1.9-2,2.6-4.9,1.3-7.1c-1.7-2.8-5.7-3.6-8.9-1.7c-1.2,0.7-2,1.7-2.6,2.7
						c-0.2-0.5-0.3-0.9-0.7-1.4c-2.2-3.1-6.1-4.1-8.7-2.3c-2.6,1.8-2.9,5.8-0.8,8.9c0.1,0.2,0.3,0.3,0.4,0.4c-3.6,1.1-5.9,4.2-5,6.9
						c0.8,2.7,4.5,4,8.1,2.8c0.1,0,0.2-0.1,0.4-0.2c0.1,3.7,2.7,6.6,5.9,6.6c3,0,5.4-2.6,5.8-6c0.3,0.1,0.5,0.3,0.8,0.4
						c3.6,1.2,7.3-0.1,8.3-3C1379.4,589.1,1377.5,586.1,1374.2,584.7L1374.2,584.7z"/>
					<path class="st38" d="M1286.7,543c1.9-2,2.6-4.9,1.3-7.1c-1.7-2.8-5.7-3.6-8.9-1.7c-1.2,0.7-2,1.7-2.6,2.7
						c-0.2-0.5-0.3-0.9-0.7-1.4c-2.2-3.1-6.1-4.1-8.7-2.3c-2.6,1.8-2.9,5.8-0.8,8.9c0.1,0.2,0.3,0.3,0.4,0.4c-3.6,1.1-5.9,4.2-5,6.9
						c0.8,2.7,4.5,4,8.1,2.8c0.1,0,0.2-0.1,0.4-0.2c0.1,3.7,2.7,6.6,5.9,6.6c3,0,5.4-2.6,5.8-6c0.3,0.1,0.5,0.3,0.8,0.4
						c3.6,1.2,7.3-0.1,8.3-3C1291.8,547.4,1289.9,544.3,1286.7,543L1286.7,543z"/>
					<path class="st38" d="M1281.8,486.5c1.9-2,2.6-4.9,1.3-7.1c-1.7-2.8-5.7-3.6-8.9-1.7c-1.2,0.7-2,1.6-2.6,2.7
						c-0.2-0.5-0.3-0.9-0.7-1.4c-2.2-3.1-6.1-4.1-8.7-2.3c-2.6,1.8-2.9,5.8-0.8,8.9c0.1,0.2,0.3,0.3,0.4,0.4c-3.6,1.1-5.9,4.2-5,6.9
						c0.8,2.7,4.5,4,8.1,2.9c0.1,0,0.2-0.1,0.4-0.2c0.1,3.7,2.7,6.6,5.9,6.6c3,0,5.4-2.6,5.8-6c0.3,0.1,0.5,0.3,0.8,0.4
						c3.6,1.2,7.3-0.1,8.3-3C1286.9,490.9,1285,487.8,1281.8,486.5L1281.8,486.5z"/>
					<path class="st38" d="M1183.1,575.6c1.9-2,2.6-4.9,1.3-7.1c-1.7-2.8-5.7-3.6-8.9-1.7c-1.2,0.7-2,1.7-2.6,2.7
						c-0.2-0.5-0.3-0.9-0.7-1.4c-2.2-3.1-6.1-4.1-8.7-2.3c-2.6,1.8-2.9,5.8-0.8,8.9c0.1,0.2,0.3,0.3,0.4,0.4c-3.6,1.1-5.9,4.2-5,6.9
						c0.8,2.7,4.5,4,8.1,2.8c0.1,0,0.2-0.1,0.4-0.2c0.1,3.7,2.7,6.6,5.9,6.6c3,0,5.4-2.6,5.8-6c0.3,0.1,0.5,0.3,0.8,0.4
						c3.6,1.2,7.3-0.1,8.3-3C1188.3,580,1186.4,576.9,1183.1,575.6L1183.1,575.6z"/>
					<path class="st38" d="M1134.1,580.8c-0.1,0.8-0.6,1.4-1.3,1.5c-0.9,0.2-1.8-0.5-2-1.5c-0.1-0.4,0-0.7,0.1-1
						c-0.1,0-0.3,0.1-0.4,0.1c-1,0.1-1.9-0.5-2-1.4c-0.1-0.9,0.7-1.7,1.7-1.8c0.1,0,0.1,0,0.2,0c-0.4-1-0.2-2,0.5-2.3
						c0.7-0.3,1.6,0.2,2.1,1.2c0,0,0,0.1,0,0.1c0.8-0.6,1.9-0.6,2.4,0c0.5,0.6,0.4,1.6-0.2,2.3c0.1,0,0.2,0,0.2,0.1
						c0.9,0.5,1.3,1.5,0.9,2.2C1136,581.1,1135,581.2,1134.1,580.8L1134.1,580.8z"/>
					<path class="st38" d="M1281.9,589.6c-0.1,0.8-0.6,1.4-1.3,1.5c-0.9,0.2-1.8-0.5-2-1.5c-0.1-0.4,0-0.7,0.1-1
						c-0.1,0-0.3,0.1-0.4,0.1c-1,0.1-1.9-0.5-2-1.4c-0.1-0.9,0.7-1.7,1.7-1.8c0.1,0,0.1,0,0.2,0c-0.4-1-0.2-2,0.5-2.3
						c0.7-0.3,1.6,0.2,2.1,1.2c0,0,0,0.1,0,0.1c0.8-0.6,1.9-0.6,2.4,0c0.5,0.6,0.4,1.6-0.2,2.3c0.1,0,0.2,0,0.2,0.1
						c0.9,0.5,1.3,1.5,0.9,2.2C1283.7,589.9,1282.8,590.1,1281.9,589.6L1281.9,589.6z"/>
					<path class="st38" d="M1212,539.2c-0.1,0.8-0.6,1.4-1.3,1.5c-0.9,0.2-1.8-0.5-2-1.5c-0.1-0.4,0-0.7,0.1-1
						c-0.1,0-0.3,0.1-0.4,0.1c-1,0.1-1.9-0.5-2-1.4c-0.1-0.9,0.7-1.7,1.7-1.8c0.1,0,0.1,0,0.2,0c-0.4-1-0.2-2,0.5-2.3
						c0.7-0.3,1.6,0.2,2.1,1.2c0,0,0,0.1,0,0.1c0.8-0.6,1.9-0.6,2.4,0c0.5,0.6,0.4,1.6-0.2,2.3c0.1,0,0.2,0,0.2,0.1
						c0.9,0.5,1.3,1.5,0.9,2.2C1213.8,539.4,1212.8,539.6,1212,539.2L1212,539.2z"/>
					<path class="st38" d="M1240.8,583.1c-0.3,3.1-2.3,5.7-5.1,6.3c-3.6,0.7-7.2-2.1-8-6.3c-0.3-1.5-0.1-2.9,0.4-4.2
						c-0.5,0.2-1,0.4-1.6,0.5c-4.2,0.4-7.9-2.1-8.3-5.6c-0.4-3.5,2.8-6.7,7-7.1c0.2,0,0.4,0,0.7,0c-1.7-3.9-0.7-8,2.2-9.3
						c2.9-1.3,6.6,0.8,8.3,4.7c0.1,0.2,0.1,0.3,0.1,0.5c3.2-2.6,7.6-2.6,9.9,0.1c2.2,2.5,1.7,6.5-0.9,9.2c0.3,0.1,0.6,0.2,0.9,0.3
						c3.7,2.1,5.2,6.2,3.5,9.1C1248.3,584.2,1244.3,584.8,1240.8,583.1L1240.8,583.1z"/>
					<path class="st38" d="M1337.1,504.8c3,0.9,5.2,3.4,5.1,6.3c-0.1,3.7-3.6,6.5-7.8,6.5c-1.5,0-2.8-0.5-4-1.2
						c0.1,0.6,0.2,1.1,0.1,1.7c-0.4,4.2-3.7,7.3-7.2,6.9c-3.5-0.4-6-4.1-5.6-8.3c0-0.2,0.1-0.4,0.2-0.6c-4.2,0.8-8-0.9-8.7-4
						c-0.7-3.1,2.2-6.3,6.3-7.1c0.2,0,0.3,0,0.5,0c-1.9-3.6-1-7.9,2.2-9.6c2.9-1.6,6.7-0.3,8.9,2.7c0.2-0.3,0.3-0.5,0.5-0.8
						c2.9-3.1,7.2-3.8,9.7-1.5C1339.7,497.8,1339.5,501.7,1337.1,504.8L1337.1,504.8z"/>
					<path class="st38" d="M1252.8,514.6c0.1,1.3-0.5,2.6-1.6,3c-1.4,0.6-3.2-0.3-3.8-2c-0.2-0.6-0.3-1.2-0.2-1.8
						c-0.2,0.1-0.4,0.2-0.6,0.3c-1.7,0.5-3.5-0.2-3.9-1.7c-0.4-1.4,0.6-3,2.3-3.5c0.1,0,0.2,0,0.3,0c-1-1.5-1-3.3,0.1-4
						s2.8-0.2,3.8,1.3c0,0.1,0.1,0.1,0.1,0.2c1.1-1.3,2.9-1.7,4.1-0.8c1.1,0.9,1.2,2.5,0.4,3.9c0.1,0,0.3,0,0.4,0.1
						c1.7,0.6,2.7,2.2,2.2,3.5C1256,514.4,1254.4,515,1252.8,514.6L1252.8,514.6z"/>
				</g>
				<g class="st37">
					<path class="st35" d="M1386.3,525.2c0-1.5-0.1-2.9-0.2-4.3c0.4,2.7,0.4,5.3,0,7.9C1386.2,527.6,1386.3,526.4,1386.3,525.2
						L1386.3,525.2z"/>
					<path class="st35" d="M1117.6,580.8c0-0.1,0-0.2,0-0.4c5.3,12.1,16,20.4,28.4,20.4c9.4,0,17.8-4.8,23.6-12.4
						c4.2,2.6,9.1,4.1,14.5,4.1c3.6,0,6.9-0.7,10-1.9c6.7,7.1,17.8,11.7,30.3,11.7c6.4,0,12.5-1.2,17.7-3.3
						c6.1,6.3,15.1,10.4,25.2,10.4c15.9,0,29.2-10,32.4-23.2c17,4.7,32.5,1.7,38.6-8.7c1.5-2.5,2.3-5.3,2.4-8.3
						c2.2,0.5,4.5,0.7,6.8,0.7c11,0,20.9-5.3,27.9-13.8c48.4,24.3,23.2,56.1,23.2,56.1c-6.5,7-15.1,12.1-26.4,13.2
						c1.7,4.9,1.7,13.4-12.3,13.7c0,0-5.3,8-36.9,4.4c1.3,3-25.8,15.5-66.8,2.8c0.9,4.3-44.2,8.1-42.2-9c0,0-47.4,4.9-65-6.5
						c0,0-28.1-1.3-31.6-11.4c-6.1,4.6-16.8,0.1-15.8-7.2C1082.4,593,1117.6,580.8,1117.6,580.8L1117.6,580.8z"/>
				</g>
			</g>
			<rect x="1097.4" y="269.6" class="st11" width="180" height="235.3"/>
			<rect x="1070.1" y="641" class="st7" width="50.8" height="15.6"/>
			<rect x="1254.2" y="641" class="st7" width="50.8" height="15.6"/>
			<g>
				<rect x="1275.9" y="269.6" class="st6" width="14.7" height="375.9"/>
				<rect x="1274.4" y="269.6" class="st7" width="5.1" height="375.9"/>
			</g>
			<g>
				<rect x="1086.3" y="269.6" class="st6" width="14.7" height="378.6"/>
				<rect x="1097.4" y="269.6" class="st7" width="5.1" height="378.6"/>
			</g>
			<g>
				<rect x="1086.3" y="255.7" class="st6" width="204.3" height="14.5"/>
				<rect x="1086.3" y="266.7" class="st7" width="204.3" height="5.1"/>
			</g>
			<g>
				<rect x="1097.4" y="502.7" class="st6" width="182.2" height="14.5"/>
				<rect x="1097.4" y="501.3" class="st7" width="182.2" height="5.1"/>
			</g>
			<polygon class="st8" points="1056.9,281.5 1097.4,226.8 1282.5,228.9 1320,281.5 			"/>
			<g class="st39">
				<path class="st22" d="M1085.8,244.7c8.5-2,17-3,25.6-3.7c8.5-0.6,17.1-1.1,25.7-0.5c8.6,0.6,17.1,2.1,25.7,2.3
					c12.8,0.5,25.7-1.6,38.5-2.8c29.9-2.4,60.2-2.6,89.8,2.6l0,1c-8.5,1.8-17,2.9-25.6,3.7c-25.6,2.6-51.4,2.1-77-0.4
					c-8.6-0.9-17.1-1.3-25.7-0.9c-8.6,0.4-17.1,2.1-25.6,2.8c-8.6,0.7-17.1,0.4-25.7,0c-8.6-0.5-17.2-1.3-25.7-3.1L1085.8,244.7
					L1085.8,244.7L1085.8,244.7z"/>
			</g>
			<g class="st39">
				<path class="st22" d="M1070.1,264.3c9.7-2,19.4-3,29.2-3.7c9.8-0.6,19.5-1.1,29.3-0.5c9.8,0.6,19.5,2.1,29.3,2.3
					c14.7,0.5,29.3-1.5,43.9-2.8c34.2-2.4,68.6-2.6,102.5,2.6v1c-9.7,1.8-19.5,2.9-29.2,3.7c-29.2,2.6-58.6,2.1-87.9-0.4
					c-9.8-0.9-19.5-1.3-29.3-0.9c-9.8,0.4-19.5,2.1-29.3,2.8s-19.5,0.4-29.3,0c-9.8-0.5-19.6-1.3-29.3-3.1V264.3L1070.1,264.3
					L1070.1,264.3z"/>
			</g>
			<g>
				
					<ellipse transform="matrix(0.4681 -0.8837 0.8837 0.4681 327.6704 1201.2562)" class="st24" cx="1161.7" cy="328.4" rx="9" ry="10.2"/>
				<path class="st24" d="M1160.9,327.8c3.8-2.2,11.7-0.9,1.4-12c-6.6-7.1-10.6-7.4-12.1-6.6c-1.3,0.6-4.2,2.8-1.1,12.1
					C1153.5,334.3,1155.2,331.1,1160.9,327.8L1160.9,327.8z"/>
				
					<ellipse transform="matrix(0.9023 -0.4311 0.4311 0.9023 -21.4466 526.6179)" class="st25" cx="1151.1" cy="310.6" rx="1.7" ry="0.9"/>
				<path class="st25" d="M1149.2,312.4c-1.5-2.6-1.9-6.6,0.7-8.6c-0.8,2.2,0.9,4.4,2.9,5.2L1149.2,312.4L1149.2,312.4L1149.2,312.4
					z"/>
			</g>
			<g>
				<path class="st25" d="M1162.3,357.6c-0.1,0.1,0.2,0,0.2,0c2.1-1.1,2.6-3.8,2.5-6l-0.1-1.2l0.7,1c1.9,2.9,2.3,7.2-0.1,10.1
					L1162.3,357.6L1162.3,357.6L1162.3,357.6z"/>
				<path class="st40" d="M1150.2,358c9.2-10,13,1.5,15.2,1c8.7-2.2,14.8,3.2,11.5,10.4c-3.3,7.2-11.2,10.8-19.3,7.4
					S1144.8,363.8,1150.2,358L1150.2,358z"/>
				
					<ellipse transform="matrix(0.8288 -0.5595 0.5595 0.8288 -3.2515 708.2257)" class="st27" cx="1155.9" cy="359.4" rx="3" ry="1.7"/>
				<path class="st28" d="M1166,357.1c0,0-0.2-3,0.8-3.9c3.6-3.2,8.3-2.2,8.3-2.2s-1.1,4.8-3.7,6.2
					C1168.7,358.6,1166,357.1,1166,357.1L1166,357.1z"/>
			</g>
			<g>
				<path class="st26" d="M1152.6,443.4c2.8-10.3,9.5-3.3,10.8-4.4c5.2-4.5,11.4-2.7,11.6,3.6s-3.9,11.6-10.7,11.8
					C1157.5,454.6,1151,449.4,1152.6,443.4z"/>
				<path class="st41" d="M1152.6,443.4c2.8-10.3,9.5-3.3,10.8-4.4c5.2-4.5,11.4-2.7,11.6,3.6s-3.9,11.6-10.7,11.8
					C1157.5,454.6,1151,449.4,1152.6,443.4z"/>
				
					<ellipse transform="matrix(0.4638 -0.886 0.886 0.4638 228.3998 1262.3923)" class="st27" cx="1157" cy="442.5" rx="2.3" ry="1.4"/>
				<path class="st28" d="M1162.8,439.7c0,0-0.7-2.4-0.1-3.3c2-3,5.6-2.8,5.6-2.8s0.1,4-1.6,5.4
					C1165,440.6,1162.8,439.7,1162.8,439.7L1162.8,439.7z"/>
				<path class="st28" d="M1162.2,440.4c0,0-2.5,0.3-3.2-0.4c-2.8-2.5-2.2-6.2-2.2-6.2s3.9,0.5,5.2,2.5
					C1163.2,438.2,1162.2,440.3,1162.2,440.4L1162.2,440.4z"/>
			</g>
			<g>
				<path class="st42" d="M1158.9,488.7c-0.9-9,3.7-10.6,3.7-10.6s5.2,5,4.9,10.3"/>
				<path class="st43" d="M1167.3,487.5c-1-0.9-2.1-1.5-3.6,0.3c-1,1.2,0.1,5.4,3.8,5.6c2.6,0.1,5.2-3.8,3-5.9
					C1169.5,486.5,1167.3,487.5,1167.3,487.5z"/>
				
					<ellipse transform="matrix(0.6897 -0.7241 0.7241 0.6897 7.6494 995.2757)" class="st44" cx="1165.2" cy="488.7" rx="1" ry="0.6"/>
				<path class="st43" d="M1158.7,487.5c-1-0.9-2.1-1.5-3.6,0.3c-1,1.2,0.1,5.4,3.8,5.6c2.6,0.1,5.2-3.8,3-5.9
					C1160.9,486.5,1158.7,487.5,1158.7,487.5z"/>
				
					<ellipse transform="matrix(0.5619 -0.8272 0.8272 0.5619 102.331 1170.707)" class="st44" cx="1156.5" cy="488.7" rx="1" ry="0.5"/>
				<path class="st45" d="M1162.7,479.3c-0.2-0.4-0.2-2.6-0.2-4.5c0-1.5,0.8-2.9,2.1-3.6c1.7-1,3.8-2.1,4.1-2.2
					c0.4-0.2,1.7,4.4,0.2,6.9C1166.4,479.6,1162.6,479.3,1162.7,479.3L1162.7,479.3z"/>
			</g>
			<g>
				<ellipse class="st46" cx="1159.4" cy="404.8" rx="8.2" ry="10.6"/>
				<path class="st47" d="M1162.2,391.3c0.2,0.6,0.8,1.1,1.4,1.4c-0.3,0.6-0.2,1.5-0.2,2.3l0,0.6l-1.9,0.8c-0.8-0.1-1.4-0.3-2.1-0.5
					l0-0.7c0-1.4,0.1-2.9,0.6-4.2C1160.7,390.8,1161.6,390.8,1162.2,391.3L1162.2,391.3L1162.2,391.3z"/>
				<ellipse class="st48" cx="1164.2" cy="404.8" rx="8.2" ry="10.6"/>
			</g>
			<text transform="matrix(1 0 0 1 1119.86 330.4)" class="st14 st15 st49">2</text>
			<text transform="matrix(1 0 0 1 1224.1899 329.06)" class="st14 st15 st49">4€</text>
			<text transform="matrix(1 0 0 1 1223.75 376.47)" class="st14 st15 st49">4€</text>
			<text transform="matrix(1 0 0 1 1214.63 414.71)" class="st14 st15 st49">10€</text>
			<text transform="matrix(1 0 0 1 1223.3 455.71)" class="st14 st15 st49">9€</text>
			<text transform="matrix(1 0 0 1 1213.9399 495.03)" class="st14 st15 st49">10€</text>
			<text transform="matrix(1 0 0 1 1118.53 374.57)" class="st14 st15 st49">8</text>
			<text transform="matrix(1 0 0 1 1108.98 414.34)" class="st14 st15 st49">10</text>
			<text transform="matrix(1 0 0 1 1120.27 453.13)" class="st14 st15 st49">3</text>
			<text transform="matrix(1 0 0 1 1109.42 495.03)" class="st14 st15 st49">20</text>
			<text transform="matrix(0.94 0 0 1 1187.2197 331.3998)" class="st14 st15 st50">=</text>
			<text transform="matrix(0.94 0 0 1 1188.0498 372.2802)" class="st14 st15 st50">=</text>
			<text transform="matrix(0.94 0 0 1 1188.4697 408.9999)" class="st14 st15 st50">=</text>
			<text transform="matrix(0.94 0 0 1 1188.3701 451.0199)" class="st14 st15 st50">=</text>
			<text transform="matrix(0.94 0 0 1 1188.0498 490.2601)" class="st14 st15 st50">=</text>
			<text transform="matrix(1 0 0 1 1127.95 297.39)" class="st14 st15 st51">K</text>
			<text transform="matrix(1 0 0 1 1137.5699 297.39)" class="st14 st15 st51 st19">a</text>
			<text transform="matrix(1 0 0 1 1148.7 297.39)" class="st14 st15 st51 st19">u</text>
			<text transform="matrix(1 0 0 1 1158.8999 297.39)" class="st14 st15 st51">f/</text>
			<text transform="matrix(1 0 0 1 1175.0499 297.39)" class="st14 st15 st51">V</text>
			<text transform="matrix(1 0 0 1 1185.3099 297.39)" class="st14 st15 st51 st19">e</text>
			<text transform="matrix(1 0 0 1 1197.1 297.39)" class="st14 st15 st51">r</text>
			<text transform="matrix(1 0 0 1 1206.74 297.39)" class="st14 st15 st51">k</text>
			<text transform="matrix(1 0 0 1 1215.9099 297.39)" class="st14 st15 st51 st19">a</text>
			<text transform="matrix(1 0 0 1 1227.0399 297.39)" class="st14 st15 st51 st19">u</text>
			<text transform="matrix(1 0 0 1 1237.24 297.39)" class="st14 st15 st51">f</text>
		</g>
	</g>
</g>
<g id="Ebene_2">
	<g>
		<path class="st0" d="M511.5,241.6v-30.5h49.1v30.5c0,13.3-10.7,24-24,24h-1.1C522.3,265.6,511.5,254.9,511.5,241.6z"/>
		<path class="st0" d="M413,241.6v-30.5h49.1v30.5c0,13.3-10.7,24-24,24H437C423.8,265.6,413,254.9,413,241.6z"/>
		<path class="st0" d="M314.8,241.6v-30.5h49.1v30.5c0,13.3-10.7,24-24,24h-1.1C325.6,265.6,314.8,254.9,314.8,241.6z"/>
		<path class="st0" d="M216.6,241.6v-30.5h49.1v30.5c0,13.3-10.7,24-24,24h-1.1C227.3,265.6,216.6,254.9,216.6,241.6z"/>
		<path class="st1" d="M462.4,241.6v-30.5h49.1v30.5c0,13.3-10.7,24-24,24h-1.1C473.1,265.6,462.4,254.9,462.4,241.6z"/>
		<path class="st1" d="M363.9,241.6v-30.5H413v30.5c0,13.3-10.7,24-24,24h-1.1C374.7,265.6,363.9,254.9,363.9,241.6z"/>
		<path class="st1" d="M265.7,241.6v-30.5h49.1v30.5c0,13.3-10.7,24-24,24h-1.1C276.4,265.6,265.7,254.9,265.7,241.6z"/>
		<path class="st1" d="M167.5,241.6v-30.5h49.1v30.5c0,13.3-10.7,24-24,24h-1.1C178.2,265.6,167.5,254.9,167.5,241.6z"/>
		<path class="st0" d="M118.3,241.6v-30.5h49.1v30.5c0,13.3-10.7,24-24,24h-1.1C129.1,265.6,118.3,254.9,118.3,241.6z"/>
	</g>
</g>
</svg>
