<?xml version="1.0" encoding="UTF-8"?>
<svg id="May" xmlns="http://www.w3.org/2000/svg" width="513.26" height="851.61" viewBox="0 0 513.26 851.61">
  <defs>
    <style>
      .cls-1 {
        stroke-width: 4px;
      }

      .cls-1, .cls-2, .cls-3, .cls-4, .cls-5 {
        fill: none;
      }

      .cls-1, .cls-2, .cls-3, .cls-4, .cls-5, .cls-6 {
        stroke-miterlimit: 10;
      }

      .cls-1, .cls-2, .cls-4, .cls-5, .cls-6 {
        stroke-linecap: round;
      }

      .cls-1, .cls-4, .cls-5 {
        stroke: #854e14;
      }

      .cls-2, .cls-3, .cls-6 {
        stroke: #000;
      }

      .cls-7 {
        fill: #edcdab;
      }

      .cls-7, .cls-8, .cls-9, .cls-10, .cls-11, .cls-12, .cls-13 {
        stroke-width: 0px;
      }

      .cls-9 {
        fill: #ffbe43;
      }

      .cls-10 {
        fill: #fff;
      }

      .cls-3 {
        stroke-width: 2px;
      }

      .cls-4 {
        opacity: .51;
      }

      .cls-5 {
        opacity: .5;
      }

      .cls-6 {
        fill: #f98297;
      }

      .cls-11 {
        fill: #ffb6a9;
      }

      .cls-12 {
        fill: #854e14;
      }

      .cls-13 {
        fill: #b98bbf;
      }
    </style>
  </defs>
  <g id="Layer_9" data-name="Layer 9">
    <path class="cls-7" d="m397.3,643.03c-11.93-18.99-2.16-44.24,13.69-60.42,15.85-16.18,36.92-26.92,53.5-42.42,16.58-15.5,28.56-39.29,19.35-59.61,37.55,51.32,35.82,125.74-4.06,175.44-39.89,49.7-114.81,70.79-178.2,47.13,32.12-20.93,64.23-41.86,95.72-60.13Z"/>
    <path class="cls-12" d="m483.76,480.45c-2.82,26.06-24.02,46.83-45.64,62.74-21.62,15.91-45.92,29.37-62.36,50.25-25.82,32.78-26.44,81.88-1.45,115.25,4.28-1.68,8.56-3.36,12.84-5.04-15.02-19.37,8.99-45.68,16.1-68.87,7.11-23.19,7.78-31.75,20.7-39.6,38.16-23.17,78.37-79.33,59.8-114.73Z"/>
    <path class="cls-12" d="m409.63,691.61c124.62-143.52,73.4-212,74.13-211.16,66.88,77.87,9.4,198.1-66.7,217.73-8.99,2.32-9.14-4.61-7.43-6.57Z"/>
  </g>
  <g id="Layer_11" data-name="Layer 11">
    <path class="cls-12" d="m340.6,632.12c44.28-12.34,96.65,17.51,104.23,59.42,7.58,41.91-21.72,82.4-67.97,83.87,20.14-1.38,30.55.55,50.68-.83,19.92-1.36,38.86,15.94,37.46,34.23-1.39,18.3-22.34,28.07-42.28,29.12-79.14,4.18-110.64-13.85-178.91-26.15l96.79-179.67Z"/>
    <path class="cls-12" d="m124.48,637.65c-44.28-12.34-96.65,17.51-104.23,59.42-7.58,41.91,21.72,82.4,67.97,83.87-20.14-1.38-30.55.55-50.68-.83-19.92-1.36-38.86,15.94-37.46,34.23,1.39,18.3,22.34,28.07,42.28,29.12,79.14,4.18,110.64-13.85,178.91-26.15l-96.79-179.67Z"/>
    <path class="cls-12" d="m83.08,429.52c0-37.13,287.79-18.76,287.79,2.48,0,274.67,4.29,392.94,4.29,392.94l-274.1,3.48s-17.98-269.07-17.98-398.9Z"/>
  </g>
  <g id="Layer_12" data-name="Layer 12">
    <path class="cls-7" d="m375.44,510.94c47.65,63.62,36.21,143.38,2.76,252.62-4.83,15.79,41.85,36.65,16.07,66.23-20.25,23.24-123.04,19.52-115.5-21.25,10.79-58.3,20.39-118.65,20.97-168.69.06.19-1.13.37-1.07.56"/>
    <path class="cls-7" d="m88.38,518.46c-47.65,63.62-36.21,143.38-2.76,252.62,4.83,15.79-41.85,36.65-16.07,66.23,20.25,23.24,123.04,19.52,115.5-21.25-10.79-58.3-20.39-118.65-20.97-168.69-.06.19,1.13.37,1.07.56"/>
    <path class="cls-4" d="m73.9,838.55s11.16-26.4,27.1-33.59"/>
    <path class="cls-4" d="m367.85,804.74s10,20.27,5.54,34.01"/>
    <path class="cls-5" d="m115.11,849.71s3.02-15.59,6.68-19.74"/>
    <path class="cls-5" d="m330.94,839.84s-3.02-15.59-6.68-19.74"/>
  </g>
  <g id="Layer_10" data-name="Layer 10">
    <path class="cls-12" d="m99.63,536.72c-4.06,12.69-8.12,25.38-12.18,38.07,8.46-4.72,16.92-9.44,25.38-14.15-3.37,21.41-.4,43.71,8.46,63.62-1.32-8.9,5.79-18.17,15.01-19.57.87,12.05,1.74,24.11,2.61,36.16,4.67-4.7,9.33-9.4,14-14.1,10.21,15.24,10.27,36.22.14,51.5,5.72-5.33,11.44-10.66,17.17-15.99,7.42,17.63,14.84,35.25,22.26,52.88,2.95-12.87,5.9-25.74,8.85-38.61,16.44,5.47,27.49,23.07,24.87,39.63,5.87-14.94,11.74-29.88,17.61-44.82,9.27,3.38,18.54,6.75,27.81,10.13.04-7.93.08-15.87.12-23.8,15.15,3.97,27.24,17.13,29.49,32.09,2.07-18.93,4.13-37.86,6.2-56.79,11.45-.25,22.9-.51,34.35-.76.28-14.7-7.95-29.3-20.91-37.08,5.94.67,11.89,1.34,17.83,2.01-1.48-5.83-2.97-11.66-4.45-17.49,8.8-5.87,23.02-.66,25.54,9.36,3.21-13.73,1.61-27.2-12.05-32.2,6.19-3.27,17.28,3.53,23.47.26-4.58-35.5-19.77-51.21-36.59-44.78-57.97,22.17-124.03,24.08-183.28,5.31-20.12-6.37-46.55,3.07-51.69,19.12Z"/>
    <path class="cls-13" d="m83.08,473.14s-7.65,44.96,0,52.83c42.03,43.22,272.83,20.88,299.45-4.75,8.21-7.91-3.69-47.89-3.69-47.89l-295.76-.19Z"/>
    <path class="cls-9" d="m101.03,519.97c-6.72-3.55-14.31-11.52-9.04-14.8,7.86-4.9,7.58,2.54,8.18,4.61.79-3.81,1.77-4.81,4.12-5.38,2.35-.56,4.97.75,5.93,2.97.96,2.22.15,5.1-1.83,6.52-2.76,1.98-5.51,3.95-7.37,6.08Z"/>
    <path class="cls-9" d="m145.98,537.95c-6.72-3.55-14.31-11.52-9.04-14.8,7.86-4.9,7.58,2.54,8.18,4.61.79-3.81,1.77-4.81,4.12-5.38,2.35-.56,4.97.75,5.93,2.97.96,2.22.15,5.1-1.83,6.52-2.76,1.98-5.51,3.95-7.37,6.08Z"/>
    <path class="cls-9" d="m204.87,543.86c-6.72-3.55-14.31-11.52-9.04-14.8,7.86-4.9,7.58,2.54,8.18,4.61.79-3.81,1.77-4.81,4.12-5.38,2.35-.56,4.97.75,5.93,2.97.96,2.22.15,5.1-1.83,6.52-2.76,1.98-5.51,3.95-7.37,6.08Z"/>
    <path class="cls-9" d="m275.63,540.02c-6.72-3.55-14.31-11.52-9.04-14.8,7.86-4.9,7.58,2.54,8.18,4.61.79-3.81,1.77-4.81,4.12-5.38,2.35-.56,4.97.75,5.93,2.97.96,2.22.15,5.1-1.83,6.52-2.76,1.98-5.51,3.95-7.37,6.08Z"/>
    <path class="cls-9" d="m348.5,523.57c-6.72-3.55-14.31-11.52-9.04-14.8,7.86-4.9,7.58,2.54,8.18,4.61.79-3.81,1.77-4.81,4.12-5.38,2.35-.56,4.97.75,5.93,2.97.96,2.22.15,5.1-1.83,6.52-2.76,1.98-5.51,3.95-7.37,6.08Z"/>
  </g>
  <g id="Layer_6" data-name="Layer 6">
    <path class="cls-7" d="m48.78,352.88c-26.44,11.86-37.08,50.52-20.06,73.34,48.26,64.7,133.65,101.85,215.96,93.95,82.31-7.9,193.4-55.67,186.49-135.05-2.69-30.99-32.82-28.45-32.34-40.76,2.29-58.83-44.79-126.19-98.9-153.59-54.11-27.39-123.85-23.36-174.18,10.07-50.32,33.43-74.98,115.38-67.64,151.31,1.15,5.64-14.98,2.5-9.34.73Z"/>
  </g>
  <g id="Layer_1" data-name="Layer 1">
    <path class="cls-12" d="m395.79,345.01c4.04,11.26,75.63-237.17,16.83-341.63-15.21-27.01-139.94,115.17-144.66,170.16,56.36,31.06,118.93,146.65,127.83,171.48Z"/>
    <path class="cls-11" d="m309.56,169.2c5.55-26.27,56.91-105.48,75.55-103.47,14.98,1.61,30.91,126.62-9.95,173-17.3-15.12-78.65-58.03-65.6-69.53Z"/>
    <path class="cls-7" d="m312.04,147.67c2.21-7.42,4.42-14.84,6.63-22.26,3.04,7.7,6.08,15.4,9.12,23.1,10.77-10.33,28.5-14.94,44.71-11.61-10.95,4.19-19.6,12.32-23.46,22.07,7.14-1.05,14.28-2.09,21.42-3.14,4.24,14.57,4.9,29.77,1.92,44.3,7.3-3.84,14.61-7.68,21.91-11.51-3.24,10.56-3.62,21.84-1.12,32.75,7.22-2.47,15.97-1.69,22.74,2.03-15.62,7.5-24.86,23.44-22.62,38.99-28.04-36.57-84.12-109.7-84.12-109.7,0,0,3.01-7.44,2.85-5.02Z"/>
    <path class="cls-12" d="m60.22,323.73c-4.5,2.88-72.19-161.16-38.25-315.5,10.02-45.58,167.06,110.63,165.91,165.8-59.36,25.34-106.94,136.48-127.66,149.7Z"/>
    <path class="cls-11" d="m145.71,158.05c-9.35-25.51-71.24-98.12-89.07-93.78-14.33,3.48-21.91,153.46,47.36,183.57,14.56-17.25,56.14-79.94,41.71-89.78Z"/>
    <path class="cls-7" d="m139.36,147.46c-2.14-7.44-4.28-14.88-6.42-22.32-3.11,7.67-6.23,15.35-9.34,23.02-10.67-10.43-28.35-15.19-44.6-12.01,10.91,4.29,19.48,12.5,23.24,22.28-7.13-1.11-14.26-2.22-21.38-3.33-4.38,14.53-5.19,29.72-2.35,44.28-7.27-3.9-14.54-7.81-21.8-11.71,3.13,10.59,3.41,21.87.8,32.76-7.19-2.53-15.96-1.83-22.76,1.83,15.55,7.64,24.64,23.66,22.24,39.19,28.39-36.31,85.17-108.94,85.17-108.94,0,0-2.94-7.47-2.81-5.04Z"/>
  </g>
  <g id="Layer_7" data-name="Layer 7">
    <path class="cls-12" d="m230.29,132.7c-202.4,0-192.14,220.22-178,230.27,10.43-4.75,55.43-152.54,133.67-144.3,23.34,2.46,24.27,49.21,40.89,50.96,13.3,1.4,21.8-94.46,98.65-30.13,37.62,31.49,50.88,71.39,73.47,113.98,25.36-26.71-1.41-220.77-168.68-220.77Z"/>
    <path class="cls-7" d="m61.95,347.72c-11.75-5.81-27.67-2.04-35.28,8.36,3.35-1.41,7.76.52,8.85,3.88-6.83,2.46-14.4,3.01-21.54,1.55.32,7.02,3.63,13.87,9.01,18.63-3-1.36-6-2.72-9-4.08,1.76,19.17,10.03,37.73,23.25,52.17l24.72-80.49Z"/>
    <path class="cls-7" d="m392.78,346.25c12.31-4.62,27.74.69,34.22,11.77-3.18-1.74-7.77-.25-9.22,2.99,6.54,3.12,14.01,4.4,21.27,3.65-1.06,6.95-5.08,13.44-10.93,17.65,3.13-1.06,6.26-2.12,9.39-3.18-3.78,18.9-13.97,36.55-28.64,49.62l-16.08-82.5Z"/>
  </g>
  <g id="Layer_4" data-name="Layer 4">
    <ellipse class="cls-8" cx="306.97" cy="320.27" rx="35.88" ry="33.2"/>
    <ellipse class="cls-10" cx="300.84" cy="309.42" rx="8.97" ry="8.3"/>
    <ellipse class="cls-10" cx="309.81" cy="326.17" rx="6.48" ry="5.9"/>
    <ellipse class="cls-8" cx="136.07" cy="317.73" rx="35.88" ry="33.2"/>
    <ellipse class="cls-10" cx="129.94" cy="306.88" rx="8.97" ry="8.3"/>
    <ellipse class="cls-10" cx="138.91" cy="323.63" rx="6.48" ry="5.9"/>
    <path class="cls-1" d="m294.26,259.14c12.55,1.69,15.03.7,25.41,3.41"/>
    <path class="cls-1" d="m127.7,262.05c12.66-.43,14.93-1.83,25.64-.9"/>
  </g>
  <g id="Layer_8" data-name="Layer 8">
    <path class="cls-8" d="m223,405.91l48.61-43.91c1.75-1.59.63-4.5-1.73-4.5h-97.22c-2.36,0-3.49,2.91-1.73,4.5l48.61,43.91c.98.89,2.48.89,3.46,0Z"/>
    <line class="cls-3" x1="221.26" y1="426.67" x2="221.26" y2="394.38"/>
    <path class="cls-2" d="m221.26,421.62c59.64,48.16,116.43-17.83,116.43-17.83"/>
    <path class="cls-2" d="m221.26,421.62c-59.64,48.16-108.68-15.91-108.68-15.91"/>
    <path class="cls-6" d="m221.26,460.75c9.4,0,32.39-20.84,26.14-23.33-.64-.26-11.72-5.23-26.14-13.82-1.98-1.18-17.47,10.95-26.62,12.92-3.79.82,12.06,24.24,26.62,24.24Z"/>
  </g>
</svg>