<?xml version="1.0" encoding="UTF-8"?>
<svg id="Ebene_2" data-name="Ebene 2" xmlns="http://www.w3.org/2000/svg" viewBox="0 0 153.5 153.5">
  <defs>
    <style>
      .cls-1 {
        fill: #fff;
      }

      .cls-1, .cls-2 {
        stroke-width: 0px;
      }

      .cls-2 {
        fill: #4e7eb3;
      }
    </style>
  </defs>
  <g id="Memory">
    <g>
      <g>
        <rect class="cls-1" x="1" y="1" width="151.5" height="151.5" rx="5.37" ry="5.37"/>
        <path class="cls-2" d="m147.13,2c2.41,0,4.37,1.96,4.37,4.37v140.76c0,2.41-1.96,4.37-4.37,4.37H6.37c-2.41,0-4.37-1.96-4.37-4.37V6.37c0-2.41,1.96-4.37,4.37-4.37h140.76m0-2H6.37C2.85,0,0,2.85,0,6.37v140.76c0,3.52,2.85,6.37,6.37,6.37h140.76c3.52,0,6.37-2.85,6.37-6.37V6.37c0-3.52-2.85-6.37-6.37-6.37h0Z"/>
      </g>
      <g>
        <path class="cls-2" d="m85.72,68.99c2.9,0,5.24,1.5,6.24,3.79.7-2.25,2.45-3.79,5.52-3.79,2.62,0,4.77,1.22,5.84,3.15v-2.65h2.92v13.68h-2.92v-8.49c-1.02-2.1-2.67-3.27-4.97-3.27-2.67,0-3.87,1.55-3.87,4.07v7.69h-2.9l.03-2.05v-6.34c-1.02-2.17-2.72-3.37-5.02-3.37-2.67,0-3.87,1.55-3.87,4.07v7.69h-2.87v-7.86c0-3.54,1.75-6.32,5.87-6.32Z"/>
        <path class="cls-2" d="m73.95,67.61c-1.07,0-1.85-.72-1.85-1.62,0-.95.77-1.62,1.85-1.62s1.87.67,1.87,1.62c0,.9-.8,1.62-1.87,1.62Zm-1.47,1.87h2.9v13.68h-2.9v-13.68Z"/>
        <path class="cls-2" d="m64.99,83.17v-18.47h2.9v18.47h-2.9Z"/>
        <path class="cls-2" d="m48.36,83.17h-3.35l6.69-8.26-6.29-5.42h3.59l8.49,7.21v-12.01h2.92v18.47h-2.92v-3.64l-3.67-3-5.47,6.64Z"/>
      </g>
    </g>
  </g>
</svg>