<?xml version="1.0" encoding="UTF-8"?>
<svg xmlns="http://www.w3.org/2000/svg" width="844.77" height="991.07" xmlns:xlink="http://www.w3.org/1999/xlink" viewBox="0 0 844.77 991.07">
  <defs>
    <style>
      .cls-1 {
        fill: #f4d8c7;
      }

      .cls-1, .cls-2, .cls-3, .cls-4, .cls-5, .cls-6, .cls-7, .cls-8, .cls-9, .cls-10, .cls-11, .cls-12, .cls-13 {
        stroke-width: 0px;
      }

      .cls-14 {
        clip-path: url(#clippath-2);
      }

      .cls-3 {
        fill: #9a5248;
      }

      .cls-4 {
        fill: #f4a638;
      }

      .cls-5, .cls-15, .cls-16, .cls-17, .cls-18, .cls-19 {
        fill: none;
      }

      .cls-6 {
        fill: #ff9f9a;
      }

      .cls-20 {
        clip-path: url(#clippath-1);
      }

      .cls-7 {
        fill: #fff;
      }

      .cls-15 {
        stroke: #cc4953;
        stroke-width: 7px;
      }

      .cls-15, .cls-16 {
        stroke-linejoin: round;
      }

      .cls-15, .cls-16, .cls-17, .cls-18, .cls-19 {
        stroke-linecap: round;
      }

      .cls-8 {
        fill: #a2707b;
      }

      .cls-9 {
        fill: #9b5248;
      }

      .cls-16 {
        stroke: #000;
        stroke-width: 3px;
      }

      .cls-10 {
        fill: #cc4953;
      }

      .cls-17 {
        opacity: .43;
        stroke: #fdac98;
      }

      .cls-17, .cls-18, .cls-19 {
        stroke-miterlimit: 10;
      }

      .cls-17, .cls-19 {
        stroke-width: 4px;
      }

      .cls-21 {
        clip-path: url(#clippath);
      }

      .cls-11 {
        fill: #ffadaf;
      }

      .cls-22 {
        clip-path: url(#clippath-3);
      }

      .cls-12 {
        fill: #f5cbc1;
      }

      .cls-18 {
        stroke-width: 8px;
      }

      .cls-18, .cls-19 {
        stroke: #f0dedb;
      }

      .cls-13 {
        fill: #f3e98d;
      }
    </style>
    <clipPath id="clippath">
      <rect class="cls-5" x="312.52" y="332.25" width="60.03" height="24.86"/>
    </clipPath>
    <clipPath id="clippath-1">
      <rect class="cls-5" x="515.35" y="332.25" width="60.03" height="24.86"/>
    </clipPath>
    <clipPath id="clippath-2">
      <rect class="cls-5" x="329.5" y="371.3" width="19.18" height="14.36"/>
    </clipPath>
    <clipPath id="clippath-3">
      <rect class="cls-5" x="539.21" y="371.3" width="19.18" height="14.36"/>
    </clipPath>
  </defs>
  <g id="Layer_6" data-name="Layer 6">
    <path class="cls-10" d="m178.25,214.07c-48.81,82.06-86.94,175.34-65.02,268.27,7.97,33.79-15.15,66.92-40.53,90.61-25.37,23.69-55.49,44.99-68.38,77.22-12.9,32.23,3.94,78.96,38.65,79.73,24.06.53,30.12,36.24,17.79,56.91s-34.33,35.08-43.17,57.48c-8.83,22.39,68.93,79.11,90.46,68.34,81.91-40.94,132.66-40.95,191.06,29.58,28.13,33.97,84.4,23.7,119.61-2.86,35.2-26.56,50.22-34.34,87.7-57.59,37.48-23.25,87.44,12.43,112.54,48.7,37.05,53.53,156.41,19.3,199.08-52.37,25.97-43.62,51.62-77.11-19.22-121.15-21.23-13.2-57.9-83.93.06-161.59,82.21-110.16,30.07-241.93-55.59-349.43-85.65-107.51-248.72-188.64-297.27-132.83-14.49-24.69-211.53,6.43-267.77,100.98Z"/>
  </g>
  <g id="Layer_10" data-name="Layer 10">
    <rect class="cls-1" x="376.89" y="869.96" width="45" height="121" rx="22.5" ry="22.5"/>
    <rect class="cls-1" x="454.78" y="869.96" width="45" height="121" rx="22.5" ry="22.5"/>
    <path class="cls-8" d="m454.18,990.96c12.89.41,32.71-.41,45.59,0,3.79-3.86,2.95-16.92-.03-21.43-4.44-6.73-41.46-4.19-44.97.48-3.43,4.56-3.21,17.23-.59,20.95Z"/>
    <path class="cls-8" d="m454.93,971.13c16.59-12.53,21.16-14.96,44.7-1.58,2.39,1.36-5.05-14.53-22.93-14.53s-24.03,17.82-21.77,16.12Z"/>
    <path class="cls-13" d="m454.7,968.91c-.57.64-1.74.59-2.25-.09s-.22-1.79.57-2.14,1.83.18,2.01,1c-.79-.56-.92-1.81-.28-2.52s1.93-.71,2.58,0,.52,1.96-.27,2.52c.38-.9,1.62-1.32,2.5-.86s1.19,1.71.63,2.52-1.86.99-2.62.37c.69.91.46,2.35-.47,3.02s-2.4.44-3.08-.48c-.68-.92-.44-2.35.68-3.34Z"/>
    <path class="cls-13" d="m496.98,967.22c-.84.16-1.74-.6-1.73-1.45s.93-1.55,1.76-1.34,1.34,1.26.97,2.02c-.28-.92.38-1.99,1.33-2.16s1.96.63,2.04,1.58-.79,1.86-1.76,1.82c.85-.47,2.09-.05,2.5.85s-.11,2.08-1.05,2.37-2.07-.36-2.29-1.32c-.02,1.14-1.08,2.14-2.22,2.1-1.14-.04-2.17-1.12-2.14-2.26s1.1-2.13,2.59-2.22Z"/>
    <path class="cls-8" d="m378.89,990.22c12.89.41,32.71-.41,45.59,0,3.79-3.86,2.95-16.92-.03-21.43-4.44-6.73-41.46-4.19-44.97.48s-3.21,17.23-.59,20.95Z"/>
    <path class="cls-8" d="m379.63,970.4c16.59-12.53,21.16-14.96,44.7-1.58,2.39,1.36-5.05-14.53-22.93-14.53s-24.03,17.82-21.77,16.12Z"/>
    <path class="cls-13" d="m379.4,968.18c-.57.64-1.74.59-2.25-.09s-.22-1.79.57-2.14,1.83.18,2.01,1c-.79-.56-.92-1.81-.28-2.52s1.93-.71,2.58,0,.52,1.96-.27,2.52c.38-.9,1.62-1.32,2.5-.86s1.19,1.71.63,2.52-1.86.99-2.62.37c.69.91.46,2.35-.47,3.02-.93.67-2.4.44-3.08-.48-.68-.92-.44-2.35.68-3.34Z"/>
    <path class="cls-13" d="m421.68,966.49c-.84.16-1.74-.6-1.73-1.45s.93-1.55,1.76-1.34,1.34,1.26.97,2.02c-.28-.92.38-1.99,1.33-2.16s1.96.63,2.04,1.58-.79,1.86-1.76,1.82c.85-.47,2.09-.05,2.5.85s-.11,2.08-1.05,2.37-2.07-.36-2.29-1.32c-.02,1.14-1.08,2.14-2.22,2.1-1.14-.04-2.17-1.12-2.14-2.26s1.1-2.13,2.59-2.22Z"/>
  </g>
  <g id="Layer_5" data-name="Layer 5">
    <path class="cls-4" d="m373.22,547.3c-27.89,57-88.35,302.55-79.3,320.41,32.17,63.48,210.94,44.83,281.07,17.5,19.78-7.71-37.46-247.9-68.59-335.34"/>
    <path class="cls-7" d="m406.2,539.85c-.6,25.56-12.19,71.11-12.79,96.67,22.42.96,71.27-2.09,93.69-1.13,6.06-26.85-4.68-68.11-11.3-94.99-21.13.78-47.26-1.43-69.6-.54Z"/>
  </g>
  <g id="Layer_7" data-name="Layer 7">
    <ellipse class="cls-7" cx="510.15" cy="873.15" rx="6.07" ry="8.22" transform="translate(-492.21 1007.03) rotate(-67.31)"/>
    <ellipse class="cls-7" cx="511.78" cy="856.31" rx="6.69" ry="8.88" transform="translate(-481.58 764.52) rotate(-53.86)"/>
    <ellipse class="cls-7" cx="526.05" cy="844.95" rx="6.73" ry="8.82" transform="translate(-283.86 266.4) rotate(-22.55)"/>
    <ellipse class="cls-7" cx="543.31" cy="846.75" rx="6.74" ry="8.82" transform="translate(-188.45 156.31) rotate(-13.98)"/>
    <path class="cls-7" d="m543.51,880.17c-1.77,2.87-3.65,5.76-6.3,7.88-2.65,2.12-3.27,4.44-9.51,2.54-3.25-.99-6.63-5.73-5.86-9,.84-3.6.95-5.87.6-9.55-.35-3.68-.93-6.92.8-10.2s5.01-5.68,9.8-4.96c4.16.62,5.08,2.74,9.29,2.74,7.44,0,11.35,2.51,13.59,6.01,2.23,3.5,1.39,9.06-2.5,10.65-3.68,1.5-7.37,3-9.91,3.88Z"/>
    <ellipse class="cls-7" cx="506.52" cy="786.72" rx="6.07" ry="8.22" transform="translate(-414.69 950.59) rotate(-67.31)"/>
    <ellipse class="cls-7" cx="508.16" cy="769.88" rx="6.69" ry="8.88" transform="translate(-413.27 726.14) rotate(-53.86)"/>
    <ellipse class="cls-7" cx="522.42" cy="758.52" rx="6.73" ry="8.82" transform="translate(-250.98 258.4) rotate(-22.55)"/>
    <ellipse class="cls-7" cx="539.68" cy="760.32" rx="6.74" ry="8.82" transform="translate(-167.67 152.88) rotate(-13.98)"/>
    <path class="cls-7" d="m539.88,793.73c-1.77,2.87-3.65,5.76-6.3,7.88-2.65,2.12-3.27,4.44-9.51,2.54-3.25-.99-6.63-5.73-5.86-9,.84-3.6.95-5.87.6-9.55-.35-3.68-.93-6.92.8-10.2,1.73-3.29,5.01-5.68,9.8-4.96,4.16.62,5.08,2.74,9.29,2.74,7.44,0,11.35,2.51,13.59,6.01s1.39,9.06-2.5,10.65c-3.68,1.5-7.37,3-9.91,3.88Z"/>
    <ellipse class="cls-7" cx="421.62" cy="794.15" rx="6.07" ry="8.22" transform="translate(-473.7 876.82) rotate(-67.31)"/>
    <ellipse class="cls-7" cx="423.25" cy="777.31" rx="6.69" ry="8.88" transform="translate(-454.09 660.62) rotate(-53.86)"/>
    <ellipse class="cls-7" cx="437.52" cy="765.95" rx="6.73" ry="8.82" transform="translate(-260.33 226.4) rotate(-22.55)"/>
    <ellipse class="cls-7" cx="454.78" cy="767.74" rx="6.74" ry="8.82" transform="translate(-171.98 132.59) rotate(-13.98)"/>
    <path class="cls-7" d="m454.98,801.16c-1.77,2.87-3.65,5.76-6.3,7.88-2.65,2.12-3.27,4.44-9.51,2.54-3.25-.99-6.63-5.73-5.86-9,.84-3.6.95-5.87.6-9.55-.35-3.68-.93-6.92.8-10.2s5.01-5.68,9.8-4.96c4.16.62,5.08,2.74,9.29,2.74,7.44,0,11.35,2.51,13.59,6.01,2.23,3.5,1.39,9.06-2.5,10.65-3.68,1.5-7.37,3-9.91,3.88Z"/>
    <ellipse class="cls-7" cx="435.25" cy="705.69" rx="6.07" ry="8.22" transform="translate(-383.71 835.06) rotate(-67.31)"/>
    <ellipse class="cls-7" cx="436.89" cy="688.85" rx="6.69" ry="8.88" transform="translate(-377.07 635.35) rotate(-53.86)"/>
    <ellipse class="cls-7" cx="451.15" cy="677.49" rx="6.73" ry="8.82" transform="translate(-225.35 224.86) rotate(-22.55)"/>
    <ellipse class="cls-7" cx="468.41" cy="679.28" rx="6.74" ry="8.82" transform="translate(-150.21 133.26) rotate(-13.98)"/>
    <path class="cls-7" d="m468.61,712.7c-1.77,2.87-3.65,5.76-6.3,7.88-2.65,2.12-3.27,4.44-9.51,2.54-3.25-.99-6.63-5.73-5.86-9,.84-3.6.95-5.87.6-9.55-.35-3.68-.93-6.92.8-10.2,1.73-3.29,5.01-5.68,9.8-4.96,4.16.62,5.08,2.74,9.29,2.74,7.44,0,11.35,2.51,13.59,6.01,2.23,3.5,1.39,9.06-2.5,10.65-3.68,1.5-7.37,3-9.91,3.88Z"/>
  </g>
  <g id="Layer_9" data-name="Layer 9">
    <ellipse class="cls-1" cx="577.69" cy="699.84" rx="22.91" ry="24.86" transform="translate(-250 327.79) rotate(-26.26)"/>
    <path class="cls-7" d="m533.9,648.92c-2.39-3.94-33.55-102.44-32.43-102.66,49.81-9.81,77.58,81.43,97.38,144.67-1.76-1.02-40.63,18.5-42.74,18.85"/>
  </g>
  <g id="Layer_8" data-name="Layer 8">
    <circle class="cls-1" cx="298.7" cy="699.84" r="23" transform="translate(-461.35 663.55) rotate(-64.15)"/>
    <path class="cls-7" d="m339.54,653.27c2.39-3.94,33.55-102.44,32.43-102.66-49.81-9.81-77.58,81.43-97.38,144.67,1.76-1.02,40.63,18.5,42.74,18.85"/>
  </g>
  <g id="Layer_1" data-name="Layer 1">
    <path class="cls-1" d="m708.29,365.89c-7.23,0-13.97,2.11-19.64,5.74.62-5.8.95-11.67.95-17.59,0-112.67-114.17-204-255-204s-255,91.33-255,204c0,11.77,1.26,23.3,3.65,34.52-1.2-.12-2.42-.18-3.65-.18-20.16,0-36.5,16.34-36.5,36.5s16.34,36.5,36.5,36.5c11.5,0,21.76-5.33,28.45-13.64,42.43,65.52,127.95,110.3,226.55,110.3,112.14,0,207.37-57.91,241.52-138.38,6.16,11.45,18.25,19.24,32.16,19.24,20.16,0,36.5-16.34,36.5-36.5s-16.34-36.5-36.5-36.5Z"/>
    <path class="cls-17" d="m705.57,384.55c8.33-5.07,17.96-1.5,21.1,7.82"/>
    <path class="cls-17" d="m168.32,422.53c.76-9.72,9.29-15.44,18.68-12.54"/>
  </g>
  <g id="Ebene_16" data-name="Ebene 16">
    <path class="cls-10" d="m257.57,175.86c-49.87,44.81-117.59,159.43-77.77,212.52,70.18,93.55,46.47-120.89,154.34-161.76-32.49,44.01-42.79,50.46-41.13,105.76,22.6-2.88,52.45,7.25,75.05,4.37,3.96-20.96,7.92-41.92,11.87-62.88.25,22.27.51,44.55.76,66.82,16.5-.7,33-1.39,49.5-2.09,8.46-36.22,16.92-72.44,25.39-108.66,7.74,41.4,23.22,124.2,23.22,124.2,0,0,24.34,8.76,28.9-.1,13.67-26.6,10.27-98.12,23.32-130.86,28.81,31.29,41.05,77.04,31.72,118.54,18.96.88,37.92,1.77,56.89,2.65,1.42-29.64,2.84-59.27,4.26-88.91,14.9,36.98,24.57,122.11,59.67,103.2,22.91-12.34,20.84-89.41-4.23-126.02-43.84-64.02-117.82-106.41-195.22-111.87-77.4-5.46-177.12,10.69-226.54,55.09Z"/>
  </g>
  <g id="Layer_2" data-name="Layer 2">
    <ellipse class="cls-2" cx="533.14" cy="394.95" rx="17" ry="24"/>
    <ellipse class="cls-2" cx="351.14" cy="394.95" rx="17" ry="24"/>
    <path class="cls-11" d="m400.28,458.18c28.89-.05,57.77-.09,86.66-.14,2.26,24.92-19.92,49.29-44.95,49.37-25.03.08-47.37-24.14-41.71-49.23Z"/>
  </g>
  <g id="Layer_3" data-name="Layer 3">
    <path class="cls-12" d="m510.73,548.84c43.11-10.8,96.3-32.57,132.7-77.47,11.59-14.3-65.83-49.56-112.61-3.64-20.97,20.58-30.19,53.27-20.08,81.11Z"/>
    <path class="cls-12" d="m225.71,470.83c28.17,30.57,74.21,68.35,131.27,77.52,18.17,2.92,10.15-81.77-52.98-99.44-28.3-7.92-59.19-.72-78.29,21.91Z"/>
    <line class="cls-18" x1="565.98" y1="480.12" x2="557.68" y2="505.34"/>
    <line class="cls-19" x1="573.91" y1="488.12" x2="568.61" y2="505.34"/>
    <line class="cls-18" x1="298.52" y1="477.59" x2="306.82" y2="502.8"/>
    <line class="cls-19" x1="290.59" y1="485.59" x2="295.89" y2="502.8"/>
  </g>
  <g id="Layer_4" data-name="Layer 4">
    <path class="cls-9" d="m212.17,266.61c47.72-71.92,139.27-106.55,225.45-101.9,86.19,4.65,167.31,43.52,238.1,92.91-63.25-85.79-150.72-126.02-248.44-124.8-97.72,1.22-181.28,42.17-215.11,133.8Z"/>
    <path class="cls-3" d="m496.65,149.26C520.04,105.11,593.68-2.81,607.82.06c42.39,8.6,52.39,146.54,35.66,219.78"/>
    <path class="cls-6" d="m540.02,140.53c22.26-32.83,44.51-65.67,66.77-98.5,11.97,40.71,23.77,96.44,7.87,135.78-16.67-13.34-17.28-23.78-4.88-37.31,5.62-6.14-23.18,3.82-29.19,17.11-6.59-6.59-4.15-6.82-2.68-17.81-6.07,6.07-9.88,5.22-7.91,15.33-5.54-6.04-1.11-6.17.88-14.61-2.52,6.2-8.84,3.59-16.14,10.89-5.48-3.78-10.97-7.56-14.71-10.87Z"/>
    <path class="cls-3" d="m384.08,149.26C360.69,105.11,287.05-2.81,272.91.06c-42.39,8.6-52.39,146.54-35.66,219.78"/>
    <path class="cls-6" d="m340.71,140.53c-22.26-32.83-44.51-65.67-66.77-98.5-11.97,40.71-23.77,96.44-7.87,135.78,16.67-13.34,17.28-23.78,4.88-37.31-5.62-6.14,23.18,3.82,29.19,17.11,6.59-6.59,4.15-6.82,2.68-17.81,6.07,6.07,9.88,5.22,7.91,15.33,5.54-6.04,1.11-6.17-.88-14.61,2.52,6.2,8.84,3.59,16.14,10.89,5.48-3.78,10.97-7.56,14.71-10.87Z"/>
  </g>
  <g id="Ebene_12" data-name="Ebene 12">
    <g>
      <g id="_Gespiegelt_wiederholen_" data-name="&amp;lt;Gespiegelt wiederholen&amp;gt;">
        <g class="cls-21">
          <path class="cls-15" d="m316.02,353.61c11.07-17.5,35.28-23.16,53.03-12.4"/>
        </g>
      </g>
      <g id="_Gespiegelt_wiederholen_-2" data-name="&amp;lt;Gespiegelt wiederholen&amp;gt;">
        <g class="cls-20">
          <path class="cls-15" d="m571.87,353.61c-11.07-17.5-35.28-23.16-53.03-12.4"/>
        </g>
      </g>
    </g>
  </g>
  <g id="Ebene_18" data-name="Ebene 18">
    <g>
      <g id="_Gespiegelt_wiederholen_-3" data-name="&amp;lt;Gespiegelt wiederholen&amp;gt;">
        <g class="cls-14">
          <path class="cls-16" d="m347.18,383.96c-7.36,1.29-14.75-3.81-16.18-11.16"/>
        </g>
      </g>
      <g id="_Gespiegelt_wiederholen_-4" data-name="&amp;lt;Gespiegelt wiederholen&amp;gt;">
        <g class="cls-22">
          <path class="cls-16" d="m540.71,383.96c7.36,1.29,14.75-3.81,16.18-11.16"/>
        </g>
      </g>
    </g>
  </g>
  <g id="Ebene_14" data-name="Ebene 14">
    <g>
      <g>
        <circle class="cls-7" cx="346.72" cy="386.15" r="3.72"/>
        <circle class="cls-7" cx="355.89" cy="395.32" r="2.29"/>
      </g>
      <g>
        <circle class="cls-7" cx="527.18" cy="386.15" r="3.72"/>
        <circle class="cls-7" cx="536.35" cy="395.32" r="2.29"/>
      </g>
    </g>
  </g>
</svg>