<?xml version="1.0" encoding="UTF-8"?>
<svg id="Ebene_2" xmlns="http://www.w3.org/2000/svg" xmlns:xlink="http://www.w3.org/1999/xlink" viewBox="0 0 289 207.71">
  <defs>
    <style>
      .cls-1 {
        stroke: url(#Unbenannter_Verlauf_356-2);
      }

      .cls-1, .cls-2, .cls-3, .cls-4 {
        fill: none;
        stroke-miterlimit: 10;
      }

      .cls-1, .cls-4 {
        opacity: .56;
        stroke-width: 2.65px;
      }

      .cls-5 {
        fill: #4f4f4f;
      }

      .cls-6 {
        filter: url(#drop-shadow-2);
      }

      .cls-7 {
        fill: url(#Unbenannter_Verlauf_379);
      }

      .cls-7, .cls-8, .cls-9, .cls-10 {
        opacity: .68;
      }

      .cls-8 {
        fill: url(#Unbenannter_Verlauf_379-4);
      }

      .cls-11 {
        filter: url(#drop-shadow-6);
      }

      .cls-9 {
        fill: url(#Unbenannter_Verlauf_379-3);
      }

      .cls-12 {
        fill: #278c62;
      }

      .cls-13 {
        filter: url(#drop-shadow-5);
      }

      .cls-14 {
        fill: url(#Unbenannter_Verlauf_384);
      }

      .cls-2 {
        filter: url(#drop-shadow-4);
        stroke: url(#Unbenannter_Verlauf_349);
      }

      .cls-2, .cls-3 {
        stroke-width: 3.97px;
      }

      .cls-10 {
        fill: url(#Unbenannter_Verlauf_379-2);
      }

      .cls-3 {
        filter: url(#drop-shadow-7);
        stroke: url(#Unbenannter_Verlauf_349-2);
      }

      .cls-15 {
        filter: url(#drop-shadow-1);
      }

      .cls-16 {
        fill: #666;
      }

      .cls-17 {
        fill: #5c4d8c;
      }

      .cls-18 {
        filter: url(#drop-shadow-3);
      }

      .cls-4 {
        stroke: url(#Unbenannter_Verlauf_356);
      }

      .cls-19 {
        fill: url(#Unbenannter_Verlauf_381);
      }
    </style>
    <filter id="drop-shadow-1" filterUnits="userSpaceOnUse">
      <feOffset dx="15.01" dy="15.01"/>
      <feGaussianBlur result="blur" stdDeviation="15.01"/>
      <feFlood flood-color="#a87e5d" flood-opacity=".5"/>
      <feComposite in2="blur" operator="in"/>
      <feComposite in="SourceGraphic"/>
    </filter>
    <filter id="drop-shadow-2" filterUnits="userSpaceOnUse">
      <feOffset dx="15.01" dy="3"/>
      <feGaussianBlur result="blur-2" stdDeviation="15.01"/>
      <feFlood flood-color="#000" flood-opacity=".25"/>
      <feComposite in2="blur-2" operator="in"/>
      <feComposite in="SourceGraphic"/>
    </filter>
    <linearGradient id="Unbenannter_Verlauf_381" data-name="Unbenannter Verlauf 381" x1="9.3" y1="88.24" x2="160.63" y2="88.24" gradientUnits="userSpaceOnUse">
      <stop offset="0" stop-color="#4f4f4f"/>
      <stop offset=".07" stop-color="#5f5f5f"/>
      <stop offset=".21" stop-color="#7d7d7d"/>
      <stop offset=".34" stop-color="#8f8f8f"/>
      <stop offset=".43" stop-color="#969696"/>
      <stop offset=".55" stop-color="#8e8e8e"/>
      <stop offset=".72" stop-color="#7b7b7b"/>
      <stop offset=".93" stop-color="#5b5b5b"/>
      <stop offset="1" stop-color="#4f4f4f"/>
    </linearGradient>
    <filter id="drop-shadow-3" filterUnits="userSpaceOnUse">
      <feOffset dx="0" dy="3"/>
      <feGaussianBlur result="blur-3" stdDeviation="1.5"/>
      <feFlood flood-color="#000" flood-opacity=".25"/>
      <feComposite in2="blur-3" operator="in"/>
      <feComposite in="SourceGraphic"/>
    </filter>
    <linearGradient id="Unbenannter_Verlauf_356" data-name="Unbenannter Verlauf 356" x1="84.96" y1="42.98" x2="84.96" y2="20.92" gradientUnits="userSpaceOnUse">
      <stop offset="0" stop-color="#000"/>
      <stop offset=".15" stop-color="#000" stop-opacity=".52"/>
      <stop offset="1" stop-color="#000" stop-opacity="0"/>
    </linearGradient>
    <radialGradient id="Unbenannter_Verlauf_379" data-name="Unbenannter Verlauf 379" cx="-173.59" cy="119.89" fx="-173.59" fy="119.89" r="2.22" gradientTransform="translate(397.17 -301.65) scale(1.59 3.52)" gradientUnits="userSpaceOnUse">
      <stop offset=".58" stop-color="#fff"/>
      <stop offset=".8" stop-color="#fff" stop-opacity="0"/>
    </radialGradient>
    <linearGradient id="Unbenannter_Verlauf_349" data-name="Unbenannter Verlauf 349" x1="2.58" y1="82.52" x2="167" y2="82.52" gradientUnits="userSpaceOnUse">
      <stop offset="0" stop-color="#4f4f4f"/>
      <stop offset=".43" stop-color="#969696"/>
      <stop offset="1" stop-color="#4f4f4f"/>
    </linearGradient>
    <filter id="drop-shadow-4" filterUnits="userSpaceOnUse">
      <feOffset dx="0" dy="3"/>
      <feGaussianBlur result="blur-4" stdDeviation="1.5"/>
      <feFlood flood-color="#000" flood-opacity=".25"/>
      <feComposite in2="blur-4" operator="in"/>
      <feComposite in="SourceGraphic"/>
    </filter>
    <radialGradient id="Unbenannter_Verlauf_379-2" data-name="Unbenannter Verlauf 379" cx="-187.75" cy="97.64" fx="-187.75" fy="97.64" r="2.68" gradientTransform="translate(397.17 -245.67) scale(1.59 3.52)" xlink:href="#Unbenannter_Verlauf_379"/>
    <filter id="drop-shadow-5" filterUnits="userSpaceOnUse">
      <feOffset dx="15.01" dy="3"/>
      <feGaussianBlur result="blur-5" stdDeviation="15.01"/>
      <feFlood flood-color="#000" flood-opacity=".25"/>
      <feComposite in2="blur-5" operator="in"/>
      <feComposite in="SourceGraphic"/>
    </filter>
    <linearGradient id="Unbenannter_Verlauf_384" data-name="Unbenannter Verlauf 384" x1="128.06" y1="127.31" x2="279.39" y2="127.31" gradientUnits="userSpaceOnUse">
      <stop offset="0" stop-color="#4f4f4f"/>
      <stop offset=".05" stop-color="#5f5f5f"/>
      <stop offset=".15" stop-color="#7d7d7d"/>
      <stop offset=".24" stop-color="#8f8f8f"/>
      <stop offset=".3" stop-color="#969696"/>
      <stop offset=".45" stop-color="#8e8e8e"/>
      <stop offset=".66" stop-color="#7b7b7b"/>
      <stop offset=".91" stop-color="#5b5b5b"/>
      <stop offset="1" stop-color="#4f4f4f"/>
    </linearGradient>
    <filter id="drop-shadow-6" filterUnits="userSpaceOnUse">
      <feOffset dx="0" dy="3"/>
      <feGaussianBlur result="blur-6" stdDeviation="1.5"/>
      <feFlood flood-color="#000" flood-opacity=".25"/>
      <feComposite in2="blur-6" operator="in"/>
      <feComposite in="SourceGraphic"/>
    </filter>
    <linearGradient id="Unbenannter_Verlauf_356-2" data-name="Unbenannter Verlauf 356" x1="203.72" y1="82.04" x2="203.72" y2="59.98" xlink:href="#Unbenannter_Verlauf_356"/>
    <radialGradient id="Unbenannter_Verlauf_379-3" data-name="Unbenannter Verlauf 379" cx="-98.94" cy="158.96" fx="-98.94" fy="158.96" r="2.22" gradientTransform="translate(397.17 -399.93) scale(1.59 3.52)" xlink:href="#Unbenannter_Verlauf_379"/>
    <linearGradient id="Unbenannter_Verlauf_349-2" data-name="Unbenannter Verlauf 349" x1="121.34" y1="121.58" x2="285.75" y2="121.58" xlink:href="#Unbenannter_Verlauf_349"/>
    <filter id="drop-shadow-7" filterUnits="userSpaceOnUse">
      <feOffset dx="0" dy="3"/>
      <feGaussianBlur result="blur-7" stdDeviation="1.5"/>
      <feFlood flood-color="#000" flood-opacity=".25"/>
      <feComposite in2="blur-7" operator="in"/>
      <feComposite in="SourceGraphic"/>
    </filter>
    <radialGradient id="Unbenannter_Verlauf_379-4" data-name="Unbenannter Verlauf 379" cx="-113.1" cy="136.71" fx="-113.1" fy="136.71" r="2.68" gradientTransform="translate(397.17 -343.95) scale(1.59 3.52)" xlink:href="#Unbenannter_Verlauf_379"/>
  </defs>
  <g id="background">
    <g id="Regal" class="cls-15">
      <g>
        <g id="Farbtopf" class="cls-6">
          <g>
            <ellipse class="cls-5" cx="12.89" cy="40.07" rx="8.32" ry="8.54"/>
            <ellipse class="cls-5" cx="156.69" cy="45.37" rx="8.32" ry="8.54"/>
          </g>
          <path class="cls-16" d="M18.58,9.33c20.48,5.47,67.94,10.07,105.18,10.07s47.83-4.61,24.56-10.07C126.01,4.09,80.61,0,46.1,0S-1.06,4.09,18.58,9.33Z"/>
          <path class="cls-19" d="M14.34,9.33c-2.03-.51-3.65-1.01-5.04-1.49v139.04h.29c.79,1.83,3.6,3.88,8.8,6.06,20.27,8.51,67.57,15.7,104.77,15.7,18.6,0,30.52-1.8,34.88-4.66,3.53-2.32,2.57-112.75,2.07-146.66-6.17,1.3-17.58,2.09-33.88,2.09-39.62,0-90.11-4.61-111.9-10.07Z"/>
          <g class="cls-18">
            <path class="cls-12" d="M133.92,41.51c-3.15.09-6.48.14-10.16.14-9.98,0-20.68-.34-31.41-.93-1.07.57-1.7.93-1.7.93,0,0,3.61,6.69,3.61,20.33s-7.21,49.69,7.21,49.69,5.41-31.93,5.41-44.36,5.21-13.42,13.42-13.42-13.62,80.32,0,80.32-.79-60.49,13.62-92.68c0,0,0,0,0-.01Z"/>
          </g>
          <path class="cls-4" d="M18.58,31.58c20.48,5.47,67.94,10.07,105.18,10.07s47.83-4.61,24.56-10.07c-22.31-5.24-67.71-9.33-102.23-9.33S-1.06,26.34,18.58,31.58Z"/>
          <ellipse class="cls-7" cx="121.01" cy="119.89" rx="3.26" ry="7.77"/>
          <path class="cls-2" d="M4.57,40.07c0,45.18,35.96,81.74,80.4,81.74,0,0,80.04,16.79,80.04-76.45"/>
          <ellipse class="cls-10" cx="98.48" cy="97.64" rx="3.94" ry="9.4"/>
        </g>
        <g id="Farbtopf-2" data-name="Farbtopf" class="cls-13">
          <g>
            <ellipse class="cls-5" cx="131.65" cy="79.13" rx="8.32" ry="8.54"/>
            <ellipse class="cls-5" cx="275.44" cy="84.43" rx="8.32" ry="8.54"/>
          </g>
          <path class="cls-16" d="M137.34,48.4c20.48,5.47,67.94,10.07,105.18,10.07s47.83-4.61,24.56-10.07c-22.31-5.24-67.71-9.33-102.23-9.33s-47.16,4.09-27.52,9.33Z"/>
          <path class="cls-14" d="M133.1,48.4c-2.03-.51-3.65-1.01-5.04-1.49v139.04h.29c.79,1.83,3.6,3.88,8.8,6.06,20.27,8.51,67.57,15.7,104.77,15.7,18.6,0,30.52-1.8,34.88-4.66,3.53-2.32,2.57-112.75,2.07-146.66-6.17,1.3-17.58,2.09-33.88,2.09-39.62,0-90.11-4.61-111.9-10.07Z"/>
          <g class="cls-11">
            <path class="cls-17" d="M252.68,80.57c-3.15.09-6.48.14-10.16.14-9.98,0-20.68-.34-31.41-.93-1.07.57-1.7.93-1.7.93,0,0,3.61,6.69,3.61,20.33s-7.21,49.69,7.21,49.69,5.41-31.93,5.41-44.36,5.21-13.42,13.42-13.42-13.62,80.32,0,80.32-.79-60.49,13.62-92.68c0,0,0,0,0-.01Z"/>
          </g>
          <path class="cls-1" d="M137.34,70.64c20.48,5.47,67.94,10.07,105.18,10.07s47.83-4.61,24.56-10.07c-22.31-5.24-67.71-9.33-102.23-9.33s-47.16,4.09-27.52,9.33Z"/>
          <ellipse class="cls-9" cx="239.77" cy="158.96" rx="3.26" ry="7.77"/>
          <path class="cls-3" d="M123.33,79.13c0,45.18,35.96,81.74,80.4,81.74,0,0,80.04,16.79,80.04-76.45"/>
          <ellipse class="cls-8" cx="217.24" cy="136.71" rx="3.94" ry="9.4"/>
        </g>
      </g>
    </g>
  </g>
</svg>