<?xml version="1.0" encoding="UTF-8"?>
<svg xmlns="http://www.w3.org/2000/svg" xmlns:xlink="http://www.w3.org/1999/xlink" viewBox="0 0 3968.5 838.99">
  <defs>
    <style>
      .cls-1 {
        fill: #fcd845;
      }

      .cls-2 {
        fill: url(#Unbenannter_Verlauf_81-2);
      }

      .cls-2, .cls-3, .cls-4 {
        opacity: .14;
      }

      .cls-5 {
        letter-spacing: 0em;
      }

      .cls-6 {
        fill: url(#Unbenannter_Verlauf_10);
        opacity: .17;
      }

      .cls-6, .cls-7, .cls-8, .cls-9 {
        mix-blend-mode: multiply;
      }

      .cls-7 {
        fill: url(#Unbenannter_Verlauf_72);
      }

      .cls-7, .cls-9 {
        opacity: .39;
      }

      .cls-10 {
        fill: url(#Unbenannter_Verlauf_50);
      }

      .cls-3 {
        fill: url(#Unbenannter_Verlauf_81-3);
      }

      .cls-11 {
        fill: #d20e02;
      }

      .cls-12 {
        fill: #fc9901;
      }

      .cls-13 {
        font-family: Alexandria-Bold, Alexandria;
        font-size: 30.05px;
        font-variation-settings: 'wght' 700;
        font-weight: 700;
      }

      .cls-13, .cls-14 {
        fill: #fdcb01;
      }

      .cls-15 {
        fill: #6a3b00;
      }

      .cls-16 {
        isolation: isolate;
      }

      .cls-17 {
        fill: url(#Unbenannter_Verlauf_50-2);
      }

      .cls-18, .cls-8 {
        fill: #ba8e4c;
      }

      .cls-19 {
        letter-spacing: -.02em;
      }

      .cls-4 {
        fill: url(#Unbenannter_Verlauf_81-4);
      }

      .cls-8 {
        opacity: .27;
      }

      .cls-20 {
        fill: url(#Unbenannter_Verlauf_81);
        opacity: .25;
      }

      .cls-21 {
        fill: #a62e12;
      }

      .cls-22 {
        fill: url(#Unbenannter_Verlauf_68);
      }

      .cls-23 {
        letter-spacing: 0em;
      }

      .cls-24 {
        fill: url(#Unbenannter_Verlauf_68-2);
      }

      .cls-25 {
        fill: #9d1005;
      }

      .cls-26 {
        fill: url(#Unbenannter_Verlauf_29);
        opacity: .23;
      }

      .cls-27 {
        fill: #fdfdfd;
      }

      .cls-9 {
        fill: url(#Unbenannter_Verlauf_72-2);
      }
    </style>
    <linearGradient id="Unbenannter_Verlauf_81" data-name="Unbenannter Verlauf 81" x1="1984.25" y1="800.18" x2="1984.25" y2="543.12" gradientUnits="userSpaceOnUse">
      <stop offset="0" stop-color="#1d1d1b" stop-opacity="0"/>
      <stop offset=".39" stop-color="#1d1d1b" stop-opacity=".12"/>
      <stop offset=".72" stop-color="#1d1d1b" stop-opacity=".48"/>
      <stop offset="1" stop-color="#1d1d1b"/>
    </linearGradient>
    <linearGradient id="Unbenannter_Verlauf_72" data-name="Unbenannter Verlauf 72" x1="1680.07" y1="453.74" x2="2288.44" y2="453.74" gradientUnits="userSpaceOnUse">
      <stop offset="0" stop-color="#b56500"/>
      <stop offset=".5" stop-color="#b56500" stop-opacity=".3"/>
      <stop offset="1" stop-color="#b56500"/>
    </linearGradient>
    <linearGradient id="Unbenannter_Verlauf_10" data-name="Unbenannter Verlauf 10" x1="1984.25" y1="257.94" x2="1984.25" y2="363.45" gradientUnits="userSpaceOnUse">
      <stop offset="0" stop-color="#6a3b00"/>
      <stop offset=".07" stop-color="#6a3b00" stop-opacity=".85"/>
      <stop offset=".17" stop-color="#6a3b00" stop-opacity=".69"/>
      <stop offset=".31" stop-color="#6a3b00" stop-opacity=".58"/>
      <stop offset=".49" stop-color="#6a3b00" stop-opacity=".52"/>
      <stop offset="1" stop-color="#6a3b00" stop-opacity=".5"/>
    </linearGradient>
    <linearGradient id="Unbenannter_Verlauf_72-2" data-name="Unbenannter Verlauf 72" x1="1780.96" y1="220.73" x2="2187.55" y2="220.73" xlink:href="#Unbenannter_Verlauf_72"/>
    <linearGradient id="Unbenannter_Verlauf_81-2" data-name="Unbenannter Verlauf 81" x1="3581.65" y1="838.99" x2="3581.65" xlink:href="#Unbenannter_Verlauf_81"/>
    <linearGradient id="Unbenannter_Verlauf_29" data-name="Unbenannter Verlauf 29" x1="3366.56" y1="282.17" x2="3786.55" y2="282.17" gradientUnits="userSpaceOnUse">
      <stop offset="0" stop-color="#000"/>
      <stop offset=".06" stop-color="#000" stop-opacity=".73"/>
      <stop offset=".54" stop-color="#000" stop-opacity="0"/>
      <stop offset=".95" stop-color="#000" stop-opacity=".73"/>
      <stop offset="1" stop-color="#000"/>
    </linearGradient>
    <linearGradient id="Unbenannter_Verlauf_81-3" data-name="Unbenannter Verlauf 81" x1="190.67" y1="624.13" x2="190.67" y2="504.08" xlink:href="#Unbenannter_Verlauf_81"/>
    <linearGradient id="Unbenannter_Verlauf_50" data-name="Unbenannter Verlauf 50" x1="110.18" y1="396.53" x2="271.17" y2="396.53" gradientUnits="userSpaceOnUse">
      <stop offset="0" stop-color="#a3a3a3"/>
      <stop offset=".03" stop-color="#b1b1b1"/>
      <stop offset=".1" stop-color="#cdcdcd"/>
      <stop offset=".17" stop-color="#e3e3e3"/>
      <stop offset=".25" stop-color="#f2f2f2"/>
      <stop offset=".34" stop-color="#fcfcfc"/>
      <stop offset=".47" stop-color="#fff"/>
      <stop offset=".59" stop-color="#fbfbfb"/>
      <stop offset=".69" stop-color="#f1f1f1"/>
      <stop offset=".79" stop-color="#dfdfdf"/>
      <stop offset=".88" stop-color="#c6c6c6"/>
      <stop offset=".97" stop-color="#a6a6a6"/>
      <stop offset="1" stop-color="#999"/>
    </linearGradient>
    <linearGradient id="Unbenannter_Verlauf_68" data-name="Unbenannter Verlauf 68" x1="190.67" y1="288.99" x2="190.67" y2="253.42" gradientUnits="userSpaceOnUse">
      <stop offset="0" stop-color="#989a9c"/>
      <stop offset=".4" stop-color="#b7b8b9"/>
      <stop offset=".77" stop-color="#cdcece"/>
      <stop offset="1" stop-color="#d6d6d6"/>
    </linearGradient>
    <linearGradient id="Unbenannter_Verlauf_81-4" data-name="Unbenannter Verlauf 81" x1="302.24" y1="695.07" x2="302.24" y2="575.02" xlink:href="#Unbenannter_Verlauf_81"/>
    <linearGradient id="Unbenannter_Verlauf_50-2" data-name="Unbenannter Verlauf 50" x1="221.74" y1="467.48" x2="382.73" y2="467.48" xlink:href="#Unbenannter_Verlauf_50"/>
    <linearGradient id="Unbenannter_Verlauf_68-2" data-name="Unbenannter Verlauf 68" x1="302.24" y1="359.93" x2="302.24" y2="324.36" xlink:href="#Unbenannter_Verlauf_68"/>
  </defs>
  <g class="cls-16">
    <g id="Ebene_2">
      <g id="Ebene_1-2" data-name="Ebene_1">
        <g>
          <rect class="cls-21" y="442.23" width="3968.5" height="232.91"/>
          <g>
            <rect class="cls-20" x="1680.07" y="543.12" width="608.37" height="257.06"/>
            <path class="cls-18" d="M2288.44,292.99v250.13c0,39.92-136.21,72.29-304.2,72.29s-304.17-32.37-304.17-72.29v-250.13c0-39.92,136.18-72.26,304.17-72.26s304.2,32.34,304.2,72.26Z"/>
            <path class="cls-8" d="M1718.21,460.52c-3.83,13.41,9.45,26.89,22.98,22.99,10.08-2.62,16.12-12.91,13.51-22.99-5.25-19.31-6.22-38.73-7.15-58.38,18.14-10.41,36.58-14.34,49.23,11.53-.99,26.21-2.4,52.11-7.73,78.19-3.07,14.23,10.36,27.8,24.68,24.68,11.4-2.23,18.83-13.28,16.6-24.68-2.61-12.75-4.27-25.45-5.42-38.16-2.08-23.17,14.94-43.84,38.09-46.15,35.65-3.56,80.14,1.46,108.71,8.72,16.87,4.29,28.33,19.76,27.45,37.14-.13,2.6-.28,5.2-.45,7.81-1.02,20.73-3.65,41.41-4.52,62.16,1.42,14.04,14.42,24.12,28.57,21.72,12.81-2.17,21.5-14.43,20.2-27.36-1.89-18.84-3.15-37.68-4.45-56.52-.48-8.23-.8-16.52-1.14-24.83-.23-5.73,2.58-11.15,7.34-14.35.15-.1.31-.21.46-.31,15.86-10.47,36.85,1.5,36,20.48-.88,19.72-2.37,39.36-6.14,58.95-2.44,12.05,8.83,23.42,20.94,20.94,9.77-1.8,16.23-11.17,14.44-20.94-3.42-17.79-4.97-35.62-5.88-53.51-.77-14.96,8.01-28.82,21.88-34.46,24.95-10.14,47.39-16.27,66.62-16.95,17.49-.62,30.62,15.77,26.05,32.66l-.08.28c-3.83,13.41,9.45,26.89,22.98,22.99,10.08-2.62,16.12-12.91,13.51-22.99l-.1-.37c-4.75-17.56.63-36.13,13.56-48.93,6.96-6.89,10.15-14.34,19.48-23.15v-53.02c0-39.92-136.21-72.26-304.2-72.26s-304.17,32.34-304.17,72.26v53.02l23.04,19.34c16.03,13.45,23.7,34.4,20.16,55.03l-5.05,29.42Z"/>
            <path class="cls-15" d="M1718.21,449.8c-3.83,13.41,9.45,26.89,22.98,22.99,10.08-2.62,16.12-12.91,13.51-22.99-5.25-19.31-6.22-38.73-7.15-58.38,18.14-10.41,36.58-14.34,49.23,11.53-.99,26.21-2.4,52.11-7.73,78.19-3.07,14.23,10.36,27.8,24.68,24.68,11.4-2.23,18.83-13.28,16.6-24.68-2.61-12.75-4.27-25.45-5.42-38.16-2.08-23.17,14.94-43.84,38.09-46.15,35.65-3.56,80.14,1.46,108.71,8.72,16.87,4.29,28.33,19.76,27.45,37.14-.13,2.6-.28,5.2-.45,7.81-1.02,20.73-3.65,41.41-4.52,62.16,1.42,14.04,14.42,24.12,28.57,21.72,12.81-2.17,21.5-14.43,20.2-27.36-1.89-18.84-3.15-37.68-4.45-56.52-.48-8.23-.8-16.52-1.14-24.83-.23-5.73,2.58-11.15,7.34-14.35.15-.1.31-.21.46-.31,15.86-10.47,36.85,1.5,36,20.48-.88,19.72-2.37,39.36-6.14,58.95-2.44,12.05,8.83,23.42,20.94,20.94,9.77-1.8,16.23-11.17,14.44-20.94-3.42-17.79-4.97-35.62-5.88-53.51-.77-14.96,8.01-28.82,21.88-34.46,24.95-10.14,47.39-16.27,66.62-16.95,17.49-.62,30.62,15.77,26.05,32.66l-.08.28c-3.83,13.41,9.45,26.89,22.98,22.99,10.08-2.62,16.12-12.91,13.51-22.99l-.1-.37c-4.75-17.56.63-36.13,13.56-48.93,6.96-6.89,10.15-14.34,19.48-23.15v-53.02c0-39.92-136.21-72.26-304.2-72.26s-304.17,32.34-304.17,72.26v53.02l23.04,19.34c16.03,13.45,23.7,34.4,20.16,55.03l-5.05,29.42Z"/>
            <path class="cls-7" d="M1984.24,363.45c-166.7,0-302-31.88-304.07-71.38-.02.31-.1.61-.1.92v250.13c0,39.92,136.18,72.29,304.17,72.29s304.2-32.37,304.2-72.29v-250.13c0-.31-.08-.61-.1-.92-2.07,39.5-137.4,71.38-304.1,71.38Z"/>
            <path class="cls-6" d="M1984.24,363.45c78.17,0,149.44-7.01,203.31-18.53v-86.99h-406.59v86.99c53.86,11.52,125.12,18.52,203.28,18.52Z"/>
            <path class="cls-18" d="M2187.55,111.14v167.17c0,26.68-91.03,48.31-203.3,48.31s-203.28-21.63-203.28-48.31V111.14c0-26.68,91.01-48.29,203.28-48.29s203.3,21.62,203.3,48.29Z"/>
            <path class="cls-9" d="M1984.24,160.39c-111.41,0-201.83-21.31-203.22-47.7-.01.2-.07.41-.07.61v167.17c0,26.68,91.01,48.31,203.28,48.31s203.3-21.63,203.3-48.31V113.3c0-.21-.05-.41-.07-.61-1.39,26.4-91.83,47.7-203.24,47.7Z"/>
            <path class="cls-8" d="M2162.05,220.42c2.56,8.96-6.32,17.97-15.36,15.36-6.73-1.75-10.78-8.63-9.03-15.36,3.51-12.9,4.16-25.89,4.78-39.02-12.13-6.96-24.45-9.58-32.9,7.71.66,17.51,1.6,34.82,5.17,52.26,2.05,9.51-6.93,18.58-16.49,16.49-7.62-1.49-12.58-8.88-11.09-16.49,1.74-8.52,2.86-17.01,3.62-25.5,1.39-15.49-9.99-29.3-25.46-30.85-23.82-2.38-53.56.98-72.66,5.83-11.28,2.86-18.93,13.2-18.34,24.82.09,1.74.19,3.48.3,5.22.68,13.85,2.44,27.68,3.02,41.54-.95,9.39-9.64,16.12-19.09,14.52-8.56-1.45-14.37-9.64-13.5-18.28,1.26-12.59,2.1-25.18,2.98-37.77.32-5.5.54-11.04.76-16.59.15-3.83-1.72-7.45-4.9-9.59-.1-.07-.21-.14-.31-.2-10.6-6.99-24.63,1-24.06,13.69.59,13.18,1.59,26.3,4.11,39.4,1.63,8.05-5.9,15.66-14,14-6.53-1.2-10.85-7.47-9.65-14,2.29-11.89,3.32-23.81,3.93-35.76.51-10-5.35-19.26-14.62-23.03-16.67-6.77-31.67-10.87-44.52-11.33-11.69-.42-20.47,10.54-17.41,21.83l.05.19c2.56,8.96-6.32,17.97-15.36,15.36-6.73-1.75-10.78-8.63-9.03-15.36l.07-.25c3.17-11.74-.42-24.15-9.06-32.7-4.65-4.6-6.78-9.59-13.02-15.47v-35.43c0-26.68,91.03-48.29,203.3-48.29,112.27,0,203.28,21.62,203.28,48.29v35.43s-15.4,12.92-15.4,12.92c-10.71,8.99-15.84,22.99-13.47,36.78l3.38,19.66Z"/>
            <path class="cls-15" d="M2162.05,215.93c2.56,8.96-6.32,17.97-15.36,15.36-6.73-1.75-10.78-8.63-9.03-15.36,3.51-12.9,4.16-25.89,4.78-39.02-12.13-6.96-24.45-9.58-32.9,7.71.66,17.51,1.6,34.82,5.17,52.26,2.05,9.51-6.93,18.58-16.49,16.49-7.62-1.49-12.58-8.88-11.09-16.49,1.74-8.52,2.86-17.01,3.62-25.5,1.39-15.49-9.99-29.3-25.46-30.85-23.82-2.38-53.56.98-72.66,5.83-11.28,2.86-18.93,13.2-18.34,24.82.09,1.74.19,3.48.3,5.22.68,13.85,2.44,27.68,3.02,41.54-.95,9.39-9.64,16.12-19.09,14.52-8.56-1.45-14.37-9.64-13.5-18.28,1.26-12.59,2.1-25.18,2.98-37.77.32-5.5.54-11.04.76-16.59.15-3.83-1.72-7.45-4.9-9.59-.1-.07-.21-.14-.31-.2-10.6-6.99-24.63,1-24.06,13.69.59,13.18,1.59,26.3,4.11,39.4,1.63,8.05-5.9,15.66-14,14-6.53-1.2-10.85-7.47-9.65-14,2.29-11.89,3.32-23.81,3.93-35.76.51-10-5.35-19.26-14.62-23.03-16.67-6.77-31.67-10.87-44.52-11.33-11.69-.42-20.47,10.54-17.41,21.83l.05.19c2.56,8.96-6.32,17.97-15.36,15.36-6.73-1.75-10.78-8.63-9.03-15.36l.07-.25c3.17-11.74-.42-24.15-9.06-32.7-4.65-4.6-6.78-9.59-13.02-15.47v-35.43c0-26.68,91.03-48.29,203.3-48.29,112.27,0,203.28,21.62,203.28,48.29v35.43s-15.4,12.92-15.4,12.92c-10.71,8.99-15.84,22.99-13.47,36.78l3.38,19.66Z"/>
          </g>
          <g>
            <rect class="cls-2" x="3383.68" y="543.12" width="395.95" height="295.87"/>
            <path class="cls-12" d="M3368.28,31.42c-2.59-4.82-2.24-10,1.03-13.78,5.26-6.07,11.38-11.45,17.53-16.67,1.04-.88,4.52-.13,6.04.99,7.4,5.45,7.35,5.64,14.22-.02,2.75-2.26,5.14-2.34,7.96-.05,6.99,5.67,7.1,5.66,14.15-.08,2.84-2.31,5.24-2.07,7.96.17,6.93,5.69,7.03,5.71,13.75.08,2.88-2.41,5.34-2.47,8.27-.04,6.89,5.71,7.01,5.7,13.78-.01,2.91-2.46,5.38-2.36,8.27.05,6.79,5.69,6.93,5.71,13.8-.08,2.97-2.51,5.37-2.33,8.21.13,6.53,5.64,6.63,5.63,13.42.14,3.1-2.51,5.97-3.04,8.9.12.09.1.2.18.31.27q6.3,5.19,12.63-.17c3.83-3.25,5.15-3.25,9.13.01q6.36,5.21,12.96-.02c4.15-3.28,5.04-3.28,9.09.05q6.92,5.7,13.95-.04c3.98-3.25,5.24-3.25,9.14,0,.21.17.4.36.61.54q5.58,4.79,11.34.18c5.26-4.21,5.99-4.2,11.04.13q5.26,4.51,10.44.28c5.88-4.81,6.01-4.81,12.27.33q4.59,3.77,9.11.13c.84-.68,1.83-1.21,2.56-1.99,2.56-2.72,5.1-2.49,7.87-.29,2.4,1.91,4.89,4.99,7.4,5.06,2.29.06,4.73-3.16,6.99-5.08,2.63-2.24,5.02-2.04,7.63.09,2.37,1.93,4.94,4.95,7.45,4.99,2.29.04,4.66-3.26,6.96-5.13,2.62-2.14,5.01-1.98,7.65.18,6.94,5.69,7.05,5.7,14.07.03,2.98-2.41,5.43-2.2,8.27.24,6.61,5.68,6.73,5.69,13.51-.04,3.05-2.58,5.59-2.47,8.58.12,6.53,5.64,6.66,5.62,13.46-.14,2.86-2.42,5.43-2.72,8.23-.07,4.79,4.54,9.92,8.76,14.37,13.61,4.12,4.49,5.28,9.97,2.43,15.8-1.12.31-2.25.62-3.37.94-4.44-.25-8.87-.72-13.31-.73-89.17-.04-178.34-.04-267.51-.03-43.36,0-86.73.05-130.09.08-.81-.09-1.62-.17-2.43-.26Z"/>
            <path class="cls-25" d="M3370.51,528.32c.03,5.83,2.13,7.45,8.9,5.81,6-1.46,11.4,0,16.65,2.38,2.06.94,3.13,1.28,4.73-.77.82-1.05,3.02-1.41,4.59-1.41,46.21-.07,92.43-.06,138.64-.06,39.17,0,78.34-.2,117.5.12,12.83.11,25.64-.39,38.46-.16,13.28.23,26.56.05,39.84.05,13.15,0,26.29.04,39.44-.04,1.84-.01,3.67-.55,5.51-.85,3,6.62,1.61,13.46-3.97,18.34-4.28,3.74-8.81,7.2-13.12,10.9-2.53,2.18-4.76,2.05-7.18-.11-2.31-2.06-4.75-3.96-7.34-6.11-2.72,2.24-5.33,4.35-7.9,6.52-2.09,1.77-4.12,1.77-6.21.02-2.57-2.16-5.17-4.29-7.91-6.55-2.17,1.79-4.14,3.4-6.1,5.03-4.66,3.89-5.17,3.88-9.96-.09-1.96-1.63-3.94-3.23-5.99-4.92-2.7,2.24-5.22,4.26-7.67,6.38-2.21,1.91-4.3,1.94-6.52.02-2.45-2.11-4.99-4.13-7.78-6.42-2.33,1.93-4.72,3.66-6.82,5.69-2.94,2.85-5.59,2.67-8.46-.06-2.05-1.95-4.32-3.67-6.69-5.66-2.7,2.24-5.28,4.37-7.84,6.52-2.06,1.72-4.07,1.87-6.2.05-2.57-2.19-5.22-4.29-8-6.57-2.45,2.05-4.87,3.95-7.15,6.01-2.53,2.29-4.9,2.48-7.51.11-2.3-2.08-4.76-4-7.31-6.12-2.6,2.15-5.12,4.15-7.54,6.27-2.32,2.02-4.52,2.11-6.87.06-2.44-2.13-4.97-4.16-7.59-6.34-2.72,2.26-5.31,4.39-7.88,6.55-2.08,1.74-4.12,1.78-6.21,0-2.69-2.27-5.4-4.49-8.38-6.96-2.74,2.25-5.47,4.41-8.1,6.7-2.34,2.03-4.53,2.07-6.87.03-2.43-2.12-4.95-4.15-7.57-6.32-2.61,2.17-5.15,4.19-7.59,6.32-2.34,2.04-4.57,2.06-6.86-.02-.9-.82-1.86-1.58-2.8-2.36-5.3-4.42-7.17-4.28-11.71.91-2.79,3.19-5.44,3.33-8.66.52-2.03-1.77-4.1-3.48-6.34-5.38-2.11,1.73-4.08,3.36-6.06,4.98-4.79,3.94-5.31,3.94-9.97.05-1.87-1.56-3.74-3.12-5.98-4.99-2.44,2-4.99,3.93-7.35,6.06-2.6,2.35-4.95,2.25-7.5-.07-2.2-2-4.56-3.82-7.22-6.04-2.46,2.05-4.97,4.05-7.36,6.18-2.44,2.17-4.72,2.26-7.19.06-2.32-2.06-4.75-3.99-7.4-6.2-1.61,1.32-3.18,2.56-4.71,3.85q-6.31,5.31-12.78-.08c-1.44-1.2-2.88-2.4-4.52-3.77-2.75,2.26-5.35,4.38-7.93,6.53-2.09,1.74-4.12,1.77-6.21,0-2.48-2.1-4.99-4.15-7.83-6.51-2.48,2.03-5.02,3.97-7.41,6.09-2.44,2.16-4.67,2.26-7.19.1-4.31-3.71-8.85-7.15-13.1-10.93-5.63-5.01-7.16-11.15-4.23-18.23.72-1.73,1.52-3.44,2.28-5.15Z"/>
            <path class="cls-1" d="M3781.61,32.35c1.12-.31,2.25-.62,3.37-.94-.88,2.93-1.59,5.92-2.67,8.77-7.49,19.72-15.08,39.39-22.55,59.11-.65,1.71-.86,3.68-.86,5.53-.06,18.95-.04,37.91-.04,56.86,0,37.88.01,75.76,0,113.64,0,2.54-.23,5.07-.35,7.6-11.68.03-23.36.05-35.04.08-.12-1.07-.32-2.15-.33-3.22-.15-15.98-3.03-31.48-8.5-46.47-13.52-37.07-38.14-64.47-73.23-82.18-23.81-12.02-49.32-16.56-75.94-14.62-13.44.98-26.5,3.81-39.14,8.44-23.99,8.78-44.34,22.95-60.96,42.29-16.08,18.71-27.12,40.12-31.8,64.42-1.98,10.31-2.56,20.9-3.77,31.36-11.69-.01-23.38-.02-35.07-.04-.11-12.7-.31-25.4-.33-38.1-.04-38.31-.02-76.62-.01-114.92,0-3.64-.35-7.34.1-10.92,1.82-14.33-3.3-27.05-8.51-39.88-6.05-14.9-11.62-30.01-17.35-45.04-.31-.82-.24-1.8-.34-2.7.81.09,1.62.17,2.43.26.58,2.35.93,4.79,1.78,7.03,6.15,16.1,12.09,32.29,18.74,48.18,3.87,9.25,6.51,18.46,5.65,28.57-.38,4.51-.1,9.07-.1,13.61,0,15.17-.11,30.35.02,45.52.23,26.69.64,53.38.88,80.08.02,2.68-.77,5.37-.85,8.06-.15,5.14.05,10.3-.09,15.44-.07,2.55.95,3.26,3.35,3.23,8.13-.1,16.26-.1,24.39,0,2.36.03,3.12-.69,3.44-3.18,1.41-10.92,2.57-21.92,4.91-32.66,3.84-17.62,11.95-33.47,22-48.38,1.73-2.57,2.92-5.51,4.79-9.1.45-.39,1.79-1.57,3.13-2.74l-.02.02c1.39-1.5,4.51-1.38,3.84-4.81-1.08-5.53,3.36-9.39,8.76-7.88-.62-5.73,1.04-9.03,5.44-9.05,4.14-.02,5.03-1.66,4.89-5.33-.11-2.92,1-3.54,4.11-2.75-1.18.9-2.14,1.63-4.28,3.25,2.69.79,4.48,1.37,6.29,1.79.22.05.64-.72,1.05-1.21-.76-1.01-1.4-1.88-2.35-3.14,1.63-.37,2.77-.62,3.91-.88.15.1.3.2.45.31-.1-.15-.2-.3-.31-.46,1.46-1.88,2.91-3.77,4.37-5.65.26.23.53.45.79.68-.4,1.24-.79,2.49-1.53,4.8,4.13-1.86,7.19-3.17,10.19-4.6,11.32-5.4,22.86-10.24,35.21-12.62,7.11-1.37,14.34-2.53,21.56-2.81,10.35-.4,20.8-.6,31.09.36,12.48,1.17,24.4,5.09,36.15,9.57,14.04,5.35,26.72,13.05,37.97,22.72,8.66,7.44,16.78,15.76,23.83,24.72,6.68,8.48,12.43,17.93,17.16,27.65,4.26,8.73,7.24,18.24,9.57,27.7,2.3,9.35,3.4,19.04,4.33,28.65.39,3.99,1.71,5.16,5.37,5.08,6.37-.14,12.74-.04,19.11-.04,6.43,0,6.73-.29,6.73-6.59,0-56.65-.04-113.31.09-169.96,0-3.39.9-6.93,2.09-10.15,3.12-8.44,6.66-16.73,9.96-25.1,3.62-9.18,7.26-18.35,10.66-27.61,1.13-3.07,1.58-6.4,2.34-9.61Z"/>
            <path class="cls-25" d="M3374.79,518.73c-1.46,3.21-2.92,6.42-4.38,9.63,1.46-3.21,2.92-6.42,4.38-9.63Z"/>
            <path class="cls-27" d="M3457,368.4c-10.53-15.54-19.14-32.07-22.91-50.54-2.33-11.43-2.93-23.22-4.31-34.85,1.21-10.46,1.79-21.05,3.77-31.36,4.67-24.3,15.72-45.71,31.8-64.42,16.62-19.34,36.97-33.51,60.96-42.29,12.64-4.63,25.7-7.46,39.14-8.44,26.62-1.94,52.13,2.6,75.94,14.62,35.1,17.72,59.71,45.11,73.23,82.18,5.47,14.99,8.34,30.49,8.5,46.47.01,1.08.22,2.15.33,3.22-.04,32.52-9.94,61.79-29.32,87.82-13.83,18.58-31.25,32.95-51.92,43.38-.84.42-1.63.94-2.44,1.42-.27-.02-.58-.13-.79-.03-35.64,16.63-72.17,18.28-109.43,6.31-15.33-4.93-29.13-12.87-42.17-22.2,0,0,.07.06.07.06-11.43-9.22-21.6-19.66-30.46-31.37h0ZM3572.42,247.8c-1.29,1.45-3.08,2.7-3.77,4.39-2.12,5.22-1.9,10.5-.35,16.01,5.37,19.07,24.72,29.7,42.05,31.7,12.18,1.41,23.75-.98,34.49-7.13,11.78-6.75,21.19-15.84,27.91-27.67,1.04-.83,2.02-1.73,3.11-2.49,13.21-9.21,18.79-21.97,17.12-37.81-1.51-14.28-7.68-26.05-20.8-32.83-12.98-6.71-26.58-5.17-33.05,10.88-1.06,2.61-1.86,5.39-2.35,8.16-2.88,16.16-13.1,25.43-28.05,30.54-7.62,2.6-15.46,2.07-23.28,2.45-4.53.22-9.53-.31-13.03,3.81ZM3481.44,339.13l-.04-.02c.29.85.42,1.8.89,2.53,7.21,11.26,15.83,21.27,26.37,29.59,32.18,25.4,76.16,25.41,105.94-.32,13.06-11.28,20.71-25.27,18.9-43.21-.52-5.13-2.06-9.8-6.51-12.97-.97-.83-1.83-1.88-2.93-2.46-7.14-3.74-14.95-3.36-22.63-3.27-10.08.12-20-.59-29.55-4.1-17.7-6.51-31.01-17.46-36.45-36.26-1.61-5.57-2.56-11.36-4.46-16.82-3.87-11.15-10.34-19.97-22.82-22.49-8.01-1.62-15.67.04-22.89,3.36-30.71,14.14-43.02,57.13-24.9,85.92,5.18,8.23,12.33,14.23,20.11,19.69.32.27.64.55.97.82Z"/>
            <path class="cls-27" d="M3647.55,472.53c.22-.25.45-.49.67-.74.33-.29.65-.57.98-.86,0,0-.12.11-.12.11,1.73-.27,3.45-.78,5.18-.79,20.87-.05,41.74-.07,62.61.04,2.06.01,4.12.96,6.18,1.47.23.25.46.5.69.74.34,1.28.98,2.56.98,3.84.03,6.57-.09,13.14-.17,19.71,0,0,.05-.09.05-.09-1.1,1.1-2.2,2.2-3.29,3.29,0,0,.05-.04.05-.04-6.76.09-13.52.23-20.27.25-15.69.04-31.38-.03-47.07.04-3.47.02-6.98-.92-7.13-4.45-.32-7.48.39-15.01.68-22.52Z"/>
            <path class="cls-12" d="M3478.95,514.74c-19.36,0-38.73.02-58.09-.05-1.14,0-2.27-.77-3.41-1.18,1.14-.62,2.28-1.77,3.42-1.77,39-.08,78-.06,116.99.03,1.08,0,2.15.95,3.22,1.46-1.08.5-2.16,1.44-3.24,1.44-19.63.09-39.27.06-58.9.06h0Z"/>
            <path class="cls-25" d="M3647.55,472.53c-.29,7.51-1,15.03-.68,22.52.15,3.53,3.66,4.46,7.13,4.45,15.69-.08,31.38,0,47.07-.04,6.76-.02,13.52-.16,20.27-.25-1.01.57-2.02,1.65-3.03,1.65-21.68.1-43.37.12-65.05.04-4.93-.02-8.03-2.9-8.23-7.68-.22-5.41-.23-10.85.07-16.25.08-1.52,1.59-2.96,2.44-4.44Z"/>
            <path class="cls-25" d="M3457.01,368.41c8.86,11.71,19.03,22.15,30.46,31.37-3.58-2.44-7.62-4.42-10.65-7.41-6.43-6.35-12.38-13.18-18.38-19.94-.87-.98-.97-2.66-1.42-4.01Z"/>
            <path class="cls-25" d="M3723.04,471.75c-2.06-.51-4.12-1.46-6.18-1.47-20.87-.11-41.74-.09-62.61-.04-1.73,0-3.45.51-5.18.79,1.34-.61,2.67-1.75,4.01-1.75,21.72-.11,43.44-.13,65.15.04,1.61.01,3.2,1.59,4.8,2.43Z"/>
            <path class="cls-25" d="M3724.55,496.05c.07-6.57.2-13.14.17-19.71,0-1.28-.64-2.56-.98-3.84.79.78,2.26,1.55,2.26,2.33.01,6.53-.22,13.06-.46,19.59-.02.55-.64,1.08-.98,1.62Z"/>
            <path class="cls-25" d="M3721.3,499.25c1.1-1.1,2.2-2.2,3.29-3.29.27,2.47-.84,3.56-3.29,3.29Z"/>
            <path class="cls-25" d="M3649.2,470.93c-.33.29-.65.57-.98.86.33-.29.65-.57.98-.86Z"/>
            <path class="cls-14" d="M3462.76,185.33c-1.34,1.17-2.68,2.35-3.13,2.74-1.87,3.59-3.06,6.53-4.79,9.1-10.04,14.91-18.16,30.76-22,48.38-2.34,10.74-3.51,21.74-4.91,32.66-.32,2.49-1.08,3.2-3.44,3.18-8.13-.09-16.26-.1-24.39,0-2.4.03-3.42-.68-3.35-3.23.15-5.14-.05-10.3.09-15.44.08-2.69.87-5.38.85-8.06-.24-26.69-.65-53.38-.88-80.08-.13-15.17-.03-30.35-.02-45.52,0-4.54-.28-9.1.1-13.61.85-10.12-1.78-19.32-5.65-28.57-6.65-15.89-12.59-32.08-18.74-48.18-.86-2.24-1.2-4.68-1.78-7.03,43.36-.03,86.73-.07,130.09-.08,89.17-.01,178.34-.01,267.51.03,4.44,0,8.87.47,13.31.73-.76,3.21-1.21,6.53-2.34,9.61-3.41,9.26-7.05,18.43-10.66,27.61-3.3,8.38-6.85,16.66-9.96,25.1-1.19,3.21-2.08,6.75-2.09,10.15-.13,56.65-.09,113.31-.09,169.96,0,6.31-.29,6.59-6.73,6.59-6.37,0-12.74-.1-19.11.04-3.67.08-4.99-1.09-5.37-5.08-.94-9.61-2.04-19.3-4.33-28.65-2.32-9.47-5.31-18.97-9.57-27.7-4.74-9.72-10.48-19.16-17.16-27.65-7.05-8.96-15.17-17.28-23.83-24.72-11.25-9.67-23.93-17.36-37.97-22.72-11.75-4.48-23.67-8.4-36.15-9.57-10.29-.96-20.74-.77-31.09-.36-7.22.28-14.45,1.44-21.56,2.81-12.35,2.38-23.9,7.23-35.21,12.62-3,1.43-6.06,2.74-10.19,4.6.74-2.31,1.13-3.55,1.53-4.8-.26-.23-.53-.45-.79-.68-1.46,1.88-2.91,3.77-4.37,5.65l-.15.15c-1.14.26-2.28.51-3.91.88.95,1.27,1.59,2.13,2.35,3.14-.41.49-.82,1.27-1.05,1.21-1.82-.42-3.6-.99-6.29-1.79,2.14-1.62,3.1-2.35,4.28-3.25-3.11-.8-4.22-.17-4.11,2.75.14,3.67-.75,5.3-4.89,5.33-4.4.03-6.06,3.33-5.44,9.05-5.4-1.51-9.83,2.36-8.76,7.88.67,3.43-2.45,3.31-3.84,4.81-.61-1.32-1.21-2.64-1.82-3.96-.4.23-.8.47-1.19.7-.49,2.34.73,3.25,3.03,3.24ZM3659.67,125.95l-.06-.07c.29.3.57.59.86.89l-.06-.06c.29.29.57.59.86.88l-.05-.05c.28.29.57.58.85.87l-.04-.05c.28.29.56.58.83.87l-.03-.04c-.13,2.31,1.01,3.36,3.27,3.29l-.02-.02c.27.28.55.56.82.84h-.01c.3.25.61.51.91.78l-.07-.06c.3.29.6.58.9.87l-.04-.09c1.37,1.11,2.73,2.21,4.1,3.32,0,0-.04-.05-.04-.05.82.56,1.65,1.13,2.47,1.69l-.04-.04c.83.56,1.65,1.12,2.48,1.68l-.05-.04c.84.54,1.68,1.08,2.53,1.63l-.04-.06c2.71,1.39,5.43,2.77,8.14,4.16l-.06-.04c.68.61,1.26,1.43,2.05,1.79,6.58,2.99,13.53,2.76,20.44,1.87,1.54-.2,2.9-1.84,4.35-2.82l-.04.03c.82-.56,1.64-1.13,2.46-1.69l-.05.07c.29-.29.59-.58.88-.86l-.06.06c.29-.29.58-.58.87-.87l-.06.06c.29-.3.57-.6.86-.89l-.07.05c2.66-1.4,4.44-3.34,4.04-6.61,0,0-.05.09-.05.09.42-.49,1.01-.92,1.25-1.49,3.02-7.31,2.32-14.99,1.9-22.57-.11-2.05-1.97-3.99-3.03-5.99l.04.05c-.56-1.37-1.13-2.74-1.69-4.11l.05.06c-.59-1.36-1.18-2.72-1.78-4.08l.07.07c-.78-3.06-1.39-6.12.09-9.16l-.05.05c.56-.83,1.12-1.65,1.68-2.48l-.05.05c.56-.83,1.12-1.65,1.68-2.48l-.04.04c.56-.83,1.12-1.65,1.68-2.48l-.04.05c.56-.82,1.12-1.64,1.68-2.46l-.02.03c1.08-1.65,2.16-3.3,3.24-4.95l-.04.03c2.71-3.01.09-4.6-1.71-6.42l.06.06c-1.35-2.74-2.71-5.49-4.06-8.23,0,0,.04.06.04.06-.26-.6-.51-1.2-.77-1.8-.35-.1-.69-.21-1.04-.31l-.14-.24c-.21-.23-.41-.45-.62-.68l-.13-.14c-.22-.24-.44-.47-.67-.71l-.14-.1c-.03-3.1-2.25-3.68-4.66-4.04l-.09-.08-.81-.63-.1-.07c-.47-.3-.93-.6-1.4-.91l-.08-.06c-.28-.2-.56-.41-.84-.61l-.1-.05c-.46-.6-.8-1.44-1.41-1.76-10.88-5.85-22.32-8.2-34.39-4.57-2.79.84-5.17,3.05-7.73,4.63-3.06,2.92-6.11,5.84-9.23,8.83-5.13-7.45-12.04-12.36-21.34-12.96-11.07-.72-22.16-1.41-33.25-1.53-21.67-.24-43.34-.08-65.02-.09-5.16,0-5.53.32-5.56,5.5-.03,5.23,0,10.47,0,15.86h-4.54c.36-.24.72-.49,1.08-.74-2.22-5.84-4.26-11.76-6.78-17.47-.56-1.28-2.75-2.58-4.22-2.61-7.99-.18-15.98.13-23.97.08-2.97-.02-3.81,1.38-3.64,4,.12,1.89.17,3.79.29,6.3-2.02-1.51-3.3-2.5-4.62-3.44-19.74-14.07-47.28-8.27-57.86,12.28-6.09,11.82-7.42,24.52-4.03,37.12,2.54,9.44,7.1,18.34,10.76,27.48.29.6.57,1.2.86,1.8l-.04-.08c.31.55.62,1.11.93,1.66l-.11-.08c.29.3.58.61.86.91l-.03-.08c.12.79-.02,1.77.4,2.33,4.68,6.24,10.97,10.23,18.7,10.63,9.89.5,19.09-2.52,27.48-7.83.59-.37.9-1.21,1.34-1.83l-.05.04c.55-.31,1.11-.61,1.66-.92l-.09.09c.31-.28.61-.57.92-.85l-.06.05c1.37-1.1,2.74-2.2,4.12-3.29l-.05.06c.3-.28.59-.56.89-.83l-.04.03c2.66-1.37,4.49.75,6.63,1.58l-.05-.05c1.07.95,2.25,2.8,3.18,2.69,3-.37,5.88-1.69,8.88-2.23,3.73-.68,7.58-1.55,11.28-1.22,3.76.33,5.61-2.2,7.42-4.1,1.41-1.48,1.45-4.51,1.56-6.88.1-2.12-.54-4.27-.91-6.81,1.77.37,2.67.56,3.57.75l-.04-.05c.49,4.07.59,8.32,4.89,10.64l-.03-.04c1.16.81,2.28,2.19,3.51,2.3,2.09.2,4.25-.63,6.38-.63,25.05-.08,50.16-1.23,74.87,4.58,1.39.33,3.14-.9,4.72-1.4l-.04.04c.55-1.04,1.5-2.04,1.58-3.12.22-2.82.16-5.67.04-8.5-.09-2.24.71-3.16,3.04-3.08,3.64.13,7.38.5,10.91-.15,3.28-.6,4.53.19,6.23,3.04,1.41,2.37.79,6.65,5.07,6.99v-.02c.31.53.64,1.05.97,1.58l-.09-.09c.28.31.56.62.85.92ZM3400.28,251.77c.45-.1.89-.2,1.34-.3-.26-.8-.5-1.61-.82-2.38-.02-.05-1,.21-.99.25.11.82.3,1.63.47,2.44Z"/>
            <path class="cls-14" d="M3494.55,155.17c.1.15.2.3.31.46-.15-.1-.3-.21-.45-.31,0,0,.15-.15.15-.15Z"/>
            <path class="cls-1" d="M3480.47,338.31c-7.78-5.46-14.93-11.46-20.11-19.69-18.12-28.78-5.81-71.77,24.9-85.92,7.21-3.32,14.88-4.98,22.89-3.36,12.47,2.52,18.95,11.34,22.82,22.49,1.9,5.46,2.84,11.25,4.46,16.82,5.44,18.8,18.75,29.76,36.45,36.26,9.55,3.51,19.47,4.21,29.55,4.1,7.69-.09,15.49-.47,22.63,3.27,1.1.58,1.96,1.63,2.93,2.46-11.51-1.3-21.66,2.11-31.57,7.88-11.78,6.85-23.83,13.38-36.26,18.94-17.66,7.89-36.28,10.46-55.28,5.51-7.66-1.99-14.99-5.26-22.46-7.95,0,0,.04.02.04.02-.32-.27-.64-.55-.97-.82Z"/>
            <path class="cls-12" d="M3481.4,339.11c7.48,2.69,14.8,5.95,22.46,7.95,19.01,4.95,37.63,2.38,55.28-5.51,12.43-5.56,24.48-12.09,36.26-18.94,9.91-5.76,20.06-9.18,31.57-7.88,4.45,3.18,5.99,7.85,6.51,12.97,1.81,17.94-5.84,31.92-18.9,43.21-29.78,25.73-73.76,25.72-105.94.32-10.53-8.32-19.15-18.33-26.37-29.59-.47-.73-.6-1.68-.89-2.53Z"/>
            <path class="cls-1" d="M3572.42,247.8c3.5-4.12,8.5-3.59,13.03-3.81,7.82-.38,15.66.16,23.28-2.45,14.95-5.11,25.17-14.38,28.05-30.54.49-2.78,1.29-5.55,2.35-8.16,6.47-16.04,20.07-17.58,33.05-10.88,13.12,6.78,19.29,18.55,20.8,32.83,1.67,15.84-3.91,28.6-17.12,37.81-1.09.76-2.08,1.66-3.11,2.49-1.25.47-2.52.89-3.74,1.42-11.15,4.91-22.73,6.36-34.75,4.38-12.9-2.12-24.04-8.29-35.22-14.63-8.19-4.65-16.17-10.61-26.61-8.47Z"/>
            <path class="cls-12" d="M3572.42,247.8c10.44-2.14,18.42,3.82,26.61,8.47,11.18,6.34,22.32,12.51,35.22,14.63,12.03,1.98,23.6.52,34.75-4.38,1.22-.54,2.49-.95,3.74-1.42-6.72,11.83-16.13,20.92-27.91,27.67-10.74,6.15-22.31,8.54-34.49,7.13-17.32-2-36.68-12.63-42.05-31.7-1.55-5.52-1.77-10.79.35-16.01.69-1.69,2.48-2.94,3.77-4.39Z"/>
            <path class="cls-12" d="M3480.47,338.31c.32.27.64.55.97.82-.32-.27-.64-.55-.97-.82Z"/>
            <path class="cls-25" d="M3437.56,127.41c-3.66-9.14-8.22-18.04-10.76-27.48-3.39-12.6-2.07-25.29,4.03-37.12,10.59-20.54,38.12-26.35,57.86-12.28,1.32.94,2.59,1.93,4.62,3.44-.11-2.51-.16-4.41-.29-6.3-.17-2.62.67-4.02,3.64-4,7.99.05,15.99-.26,23.97-.08,1.47.03,3.65,1.33,4.22,2.61,2.51,5.71,4.56,11.63,6.78,17.47-.36.25-.72.49-1.08.74h4.54c0-5.4-.03-10.63,0-15.86.03-5.18.41-5.5,5.56-5.5,21.67.02,43.35-.15,65.02.09,11.09.12,22.18.81,33.25,1.53,9.29.61,16.21,5.51,21.34,12.96,3.12-2.98,6.18-5.9,9.23-8.83,8.5-4.38,17.5-6.31,26.88-4.05,5.68,1.37,11.11,3.8,16.65,5.76,0,0,.1.05.11.05.28.2.56.41.84.61,0,0,.08.06.08.06.47.3.93.6,1.4.91,0,0,.1.07.1.06.27.21.54.42.81.63,0,0,.09.08.09.08,1.55,1.35,3.11,2.7,4.66,4.05,0,0,.14.1.15.1.22.24.44.47.66.71,0,0,.13.14.13.14.21.23.41.45.62.68,0,0,.14.24.14.24.33.42.66.84.99,1.26.27.28.55.57.82.85,0,0-.04-.06-.04-.06,1.35,2.74,2.71,5.49,4.06,8.23,0,0-.06-.06-.06-.06.57,2.14,1.14,4.28,1.71,6.42,0,0,.04-.03.04-.03-1.08,1.65-2.16,3.3-3.24,4.94,0,0,.02-.03.02-.03-.56.82-1.12,1.64-1.68,2.46,0,0,.04-.05.04-.05-.56.83-1.12,1.65-1.67,2.48,0,0,.04-.04.04-.04-.56.83-1.12,1.65-1.68,2.48,0,0,.05-.05.05-.05-.56.83-1.12,1.65-1.68,2.48,0,0,.05-.05.05-.05-3.96,3.01-2.83,6.08-.09,9.16,0,0-.07-.07-.06-.07.59,1.36,1.18,2.72,1.77,4.08,0,0-.05-.06-.05-.06.56,1.37,1.13,2.74,1.69,4.11,0,0-.04-.05-.04-.05.82,5.81,2.18,11.62,2.28,17.44.07,4.19-1.54,8.4-2.39,12.6,0,0,.05-.09.05-.09-1.35,2.2-2.69,4.4-4.04,6.61,0,0,.07-.05.07-.05-.29.3-.57.6-.86.89,0,0,.06-.06.06-.06-.29.29-.58.58-.87.87,0,0,.06-.06.06-.06-.29.29-.59.58-.88.86,0,0,.05-.07.05-.07-.82.56-1.64,1.13-2.46,1.69,0,0,.04-.03.04-.03-4.81.8-9.64,2.28-14.44,2.19-4.15-.08-8.26-1.95-12.39-3.03,0,0,.06.04.06.04-2.71-1.39-5.43-2.77-8.14-4.16,0,0,.04.06.04.06-.84-.54-1.68-1.08-2.53-1.63,0,0,.05.04.05.04-.83-.56-1.65-1.12-2.48-1.68,0,0,.04.04.04.04-.82-.56-1.65-1.13-2.47-1.69,0,0,.04.05.04.05-1.37-1.11-2.73-2.21-4.1-3.32,0,0,.04.09.04.09-.3-.29-.6-.58-.9-.87,0,0,.07.06.06.06-.3-.26-.61-.53-.91-.79,0,0,.01.01.01.01-.27-.28-.55-.56-.82-.84,0,0,.02.02.02.02-1.09-1.1-2.18-2.19-3.27-3.29,0,0,.03.04.03.03-.28-.29-.56-.58-.83-.87,0,0,.04.05.04.05-.28-.29-.57-.58-.85-.87,0,0,.05.05.05.05-.29-.29-.57-.58-.86-.88,0,0,.06.06.06.06-.29-.3-.57-.59-.86-.89,0,0,.06.07.06.07-.28-.31-.56-.62-.85-.92,0,0,.09.09.09.09-.33-.53-.65-1.05-.98-1.58,0,0,.01.02.01.02-2.08-4.05-4.16-8.1-5.95-11.58h-20.21c0,2.14.07,3.87-.02,5.59-.19,3.61-.47,7.21-.71,10.82,0,0,.04-.04.04-.04-1.88-.05-3.82.15-5.64-.2-25.99-4.97-52.16-5.66-78.47-3.69-1.75.13-3.57-.62-5.35-.96,0,0,.03.04.03.04-1.63-3.55-3.26-7.09-4.89-10.64,0,0,.04.05.04.05-.38-2.9-.77-5.8-1.19-8.98-1.28.11-2.41.2-3.66.3,0,6.22-.13,12.14.06,18.05.09,2.75-1.05,3.99-3.54,4.39-3.06.49-6.11,1-9.17,1.46-5.82.87-11.65,1.72-17.47,2.57,0,0,.05.05.05.05-.87-1.82-1.74-3.65-2.79-5.83-1.56,1.73-2.7,2.99-3.84,4.25,0,0,.04-.03.03-.03-.3.28-.59.56-.89.83,0,0,.05-.06.05-.06-1.37,1.1-2.74,2.2-4.12,3.29,0,0,.06-.05.06-.05-.31.28-.61.56-.92.85,0,0,.09-.09.09-.09-.55.31-1.11.61-1.66.92,0,0,.05-.04.05-.04-1.19.61-2.39,1.2-3.56,1.84-6.56,3.63-13.49,6.02-21.04,6.35-9.88.44-17.17-4.36-23.31-11.5,0,0,.03.08.03.08-.29-.3-.58-.61-.86-.91,0,0,.11.08.11.08-.31-.55-.62-1.11-.93-1.66,0,0,.04.08.04.08-.29-.6-.58-1.2-.86-1.8ZM3658.35,109.33c9.98,12.25,22.03,20.67,37.53,23.49,4.96.9,9.41-.51,12.77-4.52,6.63-7.9,7.16-25.39,1.25-33.76-4.16-5.89-10.17-9.08-16.39-12.11-3.15-1.53-6.38-3.08-9.1-5.22-1.28-1.01-2.34-3.75-1.86-5.14.49-1.41,3.16-3.14,4.6-2.92,3.87.59,7.79,1.73,11.31,3.43,2.97,1.44,5.41,3.98,8.24,6.14,3.22-4.68,6.25-9.07,9.45-13.72-10.58-10.05-22.46-15.07-36.78-11.78-8.56,1.96-13.74,7.64-15.25,16.49-1.77,10.38,2.45,17.95,11.03,23.33,4.81,3.01,9.96,5.48,14.75,8.52,2.21,1.4,4.29,3.34,5.74,5.49.76,1.13.61,3.63-.19,4.8-.59.86-3.06,1.1-4.37.66-2.66-.89-5.4-2.04-7.56-3.77-4.51-3.62-8.66-7.69-12.43-11.09-4.06,3.72-8.31,7.62-12.74,11.68ZM3521.59,86.93c7.04-.52,13.72-1.02,21.06-1.57v20.71h17.46v-55.42h-18.21v21.21h-21.22v-20.59h-20.85c.85,20.46,1.7,40.66,2.55,61.23,7-1.12,13.61-2.17,20.62-3.29-.47-7.38-.92-14.51-1.41-22.29ZM3491.56,63.17c-12.42-16.1-37.89-17.14-50.52-2.38-12.15,14.21-12.55,41.6-.8,56.11,5.84,7.2,13.59,10.46,22.37,7.8,6.98-2.12,13.84-5.49,19.85-9.63,4.8-3.31,8.22-8.61,12.58-13.37-3.28-1.67-5.44-2.77-7.6-3.86-2.24-1.12-4.49-2.23-6.28-3.11-3.64,4.05-6.66,8.11-10.38,11.37-5.4,4.74-10.9,3.71-13.98-2.67-5.07-10.51-5.46-21.45-.86-32.22,2.74-6.43,8.02-7.93,13.95-4.19,3.24,2.05,6.04,4.81,9.17,7.35,4.07-3.64,8.19-7.33,12.51-11.2ZM3602.36,49.96v57.97c6.31.9,12.55,1.78,19.41,2.76v-16.55c5.53.34,10.51,1,15.46.87,11.69-.31,19.83-8.11,20.68-19.32.86-11.46-6.25-21.92-17.43-23.34-12.28-1.56-24.74-1.61-38.12-2.38ZM3572.45,74.59v31.59h17.57v-31.59h-17.57ZM3590.48,50.66h-17.84v15.06h17.84v-15.06Z"/>
            <path class="cls-1" d="M3541.64,123.49c1.79.34,3.6,1.09,5.35.96,26.31-1.97,52.49-1.28,78.47,3.69,1.83.35,3.76.15,5.64.2-1.58.5-3.33,1.73-4.72,1.4-24.7-5.81-49.82-4.67-74.87-4.58-2.13,0-4.29.83-6.38.63-1.23-.12-2.34-1.49-3.51-2.3Z"/>
            <path class="cls-1" d="M3501.83,130.74c5.82-.86,11.65-1.7,17.47-2.57,3.06-.46,6.12-.97,9.17-1.46,2.49-.4,3.63-1.65,3.54-4.39-.19-5.91-.06-11.82-.06-18.05,1.25-.1,2.38-.2,3.66-.3.42,3.18.81,6.08,1.19,8.98-.9-.19-1.8-.38-3.57-.75.37,2.53,1.01,4.69.91,6.81-.11,2.37-.16,5.4-1.56,6.88-1.81,1.9-3.66,4.43-7.42,4.1-3.7-.33-7.56.55-11.28,1.22-3,.54-5.87,1.86-8.88,2.23-.94.12-2.11-1.74-3.18-2.69Z"/>
            <path class="cls-1" d="M3440.04,131.55c6.14,7.14,13.42,11.94,23.31,11.5,7.56-.33,14.49-2.72,21.04-6.35,1.17-.65,2.37-1.23,3.56-1.84-.44.62-.74,1.45-1.34,1.83-8.39,5.3-17.58,8.33-27.48,7.83-7.73-.39-14.01-4.39-18.7-10.63-.42-.56-.28-1.55-.4-2.33Z"/>
            <path class="cls-1" d="M3631.07,128.38c.24-3.61.52-7.21.71-10.82.09-1.72.02-3.45.02-5.59h20.21c1.79,3.48,3.87,7.53,5.95,11.58-4.28-.34-3.66-4.62-5.07-6.99-1.71-2.86-2.96-3.65-6.23-3.04-3.53.65-7.27.28-10.91.15-2.32-.08-3.13.85-3.04,3.08.12,2.83.18,5.68-.04,8.5-.09,1.07-1.03,2.08-1.58,3.12Z"/>
            <path class="cls-12" d="M3713.03,50.52c-5.54-1.95-10.97-4.39-16.65-5.76-9.37-2.25-18.37-.32-26.88,4.05,2.57-1.58,4.94-3.8,7.73-4.64,12.07-3.63,23.51-1.27,34.39,4.57.61.33.94,1.16,1.41,1.76Z"/>
            <path class="cls-1" d="M3723.69,137.31c.86-4.2,2.47-8.42,2.39-12.6-.1-5.82-1.46-11.63-2.28-17.44,1.06,1.99,2.92,3.94,3.03,5.99.42,7.57,1.12,15.26-1.9,22.57-.24.57-.82,1-1.25,1.49Z"/>
            <path class="cls-1" d="M3688.07,147.04c4.13,1.08,8.25,2.95,12.39,3.03,4.8.09,9.63-1.39,14.44-2.19-1.44.98-2.8,2.62-4.35,2.82-6.91.89-13.86,1.12-20.44-1.87-.79-.36-1.37-1.18-2.05-1.79Z"/>
            <path class="cls-1" d="M3536.78,112.89c1.63,3.55,3.26,7.09,4.89,10.64-4.3-2.32-4.4-6.57-4.89-10.64Z"/>
            <path class="cls-1" d="M3495.26,129.22c1.14-1.26,2.28-2.52,3.84-4.25,1.04,2.18,1.91,4.01,2.79,5.83-2.14-.83-3.97-2.95-6.63-1.58Z"/>
            <path class="cls-1" d="M3720.48,99.25c-2.74-3.08-3.88-6.14.09-9.16-1.48,3.04-.87,6.1-.09,9.16Z"/>
            <path class="cls-1" d="M3728.64,69.14c-1.35-2.74-2.71-5.49-4.06-8.23,1.35,2.74,2.71,5.49,4.06,8.23Z"/>
            <path class="cls-1" d="M3679.99,142.93c2.71,1.39,5.43,2.77,8.14,4.16-2.71-1.39-5.43-2.77-8.14-4.16Z"/>
            <path class="cls-1" d="M3462.76,185.33c-2.3,0-3.52-.9-3.03-3.24.4-.23.8-.47,1.19-.7.61,1.32,1.21,2.64,1.82,3.96l.02-.02Z"/>
            <path class="cls-1" d="M3719.7,143.82c1.35-2.2,2.69-4.4,4.04-6.61.4,3.27-1.37,5.21-4.04,6.61Z"/>
            <path class="cls-1" d="M3730.29,75.49c-.57-2.14-1.14-4.28-1.71-6.42,1.79,1.81,4.42,3.41,1.71,6.42Z"/>
            <path class="cls-12" d="M3721.12,56.98c-1.55-1.35-3.11-2.7-4.66-4.05,2.41.36,4.63.94,4.66,4.05Z"/>
            <path class="cls-1" d="M3727.08,80.41c1.08-1.65,2.16-3.3,3.24-4.94-1.08,1.65-2.16,3.3-3.24,4.94Z"/>
            <path class="cls-1" d="M3490.34,133.26c1.37-1.1,2.74-2.2,4.12-3.29-1.37,1.1-2.74,2.2-4.12,3.29Z"/>
            <path class="cls-1" d="M3400.28,251.77c-.17-.81-.36-1.62-.47-2.44,0-.04.97-.3.99-.25.32.77.56,1.58.82,2.38-.45.1-.89.2-1.34.3Z"/>
            <path class="cls-1" d="M3668.59,134.8c1.37,1.11,2.73,2.21,4.1,3.32-1.37-1.11-2.73-2.21-4.1-3.32Z"/>
            <path class="cls-1" d="M3662.83,129.2c1.09,1.1,2.18,2.19,3.27,3.29-2.27.07-3.4-.98-3.27-3.29Z"/>
            <path class="cls-1" d="M3723.84,107.31c-.56-1.37-1.13-2.74-1.69-4.11.56,1.37,1.13,2.74,1.69,4.11Z"/>
            <path class="cls-1" d="M3722.19,103.26c-.59-1.36-1.18-2.72-1.77-4.08.59,1.36,1.18,2.72,1.77,4.08Z"/>
            <path class="cls-1" d="M3725.43,82.84c.56-.82,1.12-1.64,1.68-2.46-.56.82-1.12,1.64-1.68,2.46Z"/>
            <path class="cls-1" d="M3720.52,90.14c.56-.83,1.12-1.65,1.68-2.48-.56.83-1.12,1.65-1.68,2.48Z"/>
            <path class="cls-1" d="M3722.16,87.71c.56-.83,1.12-1.65,1.68-2.48-.56.83-1.12,1.65-1.68,2.48Z"/>
            <path class="cls-1" d="M3723.79,85.27c.56-.83,1.12-1.65,1.67-2.48-.56.83-1.12,1.65-1.67,2.48Z"/>
            <path class="cls-1" d="M3714.86,147.91c.82-.56,1.64-1.13,2.46-1.69-.82.56-1.64,1.13-2.46,1.69Z"/>
            <path class="cls-1" d="M3675.07,139.73c.83.56,1.65,1.12,2.48,1.68-.83-.56-1.65-1.12-2.48-1.68Z"/>
            <path class="cls-1" d="M3672.64,138.07c.82.56,1.65,1.13,2.47,1.69-.82-.56-1.65-1.13-2.47-1.69Z"/>
            <path class="cls-1" d="M3677.5,141.36c.84.54,1.68,1.08,2.53,1.63-.84-.54-1.68-1.08-2.53-1.63Z"/>
            <path class="cls-1" d="M3487.91,134.9c.55-.31,1.11-.61,1.66-.92-.55.31-1.11.61-1.66.92Z"/>
            <path class="cls-12" d="M3715.46,52.16c-.47-.3-.93-.61-1.4-.91.47.3.93.61,1.4.91Z"/>
            <path class="cls-12" d="M3723.81,60.11c-.33-.42-.66-.84-.99-1.26.34.11.69.21,1.04.32-.02.31-.03.63-.05.94Z"/>
            <path class="cls-1" d="M3723.81,60.11c.02-.31.03-.63.05-.94.26.6.51,1.2.77,1.8-.27-.28-.55-.57-.82-.85Z"/>
            <path class="cls-1" d="M3657.93,123.54c.33.53.65,1.05.98,1.58-.33-.53-.65-1.05-.98-1.58Z"/>
            <path class="cls-1" d="M3437.56,127.41c.29.6.58,1.2.86,1.8-.29-.6-.58-1.2-.86-1.8Z"/>
            <path class="cls-1" d="M3438.39,129.13c.31.55.62,1.11.93,1.66-.31-.55-.62-1.11-.93-1.66Z"/>
            <path class="cls-12" d="M3721.93,57.79c-.22-.24-.44-.48-.66-.71.22.24.44.48.66.71Z"/>
            <path class="cls-12" d="M3716.37,52.86c-.27-.21-.54-.42-.81-.63.27.21.54.42.81.63Z"/>
            <path class="cls-1" d="M3667.73,134.02c.3.29.6.58.9.87-.3-.29-.6-.58-.9-.87Z"/>
            <path class="cls-1" d="M3717.28,146.29c.29-.29.59-.58.88-.86-.29.29-.59.58-.88.86Z"/>
            <path class="cls-1" d="M3718.1,145.48c.29-.29.58-.58.87-.87-.29.29-.58.58-.87.87Z"/>
            <path class="cls-12" d="M3713.98,51.19c-.28-.21-.56-.41-.84-.61.28.21.56.41.84.61Z"/>
            <path class="cls-1" d="M3666.89,133.29c.3.26.61.53.91.79-.3-.26-.61-.53-.91-.79Z"/>
            <path class="cls-1" d="M3489.48,134.06c.31-.28.61-.56.92-.85-.31.28-.61.56-.92.85Z"/>
            <path class="cls-1" d="M3666.08,132.47c.27.28.55.56.82.84-.27-.28-.55-.56-.82-.84Z"/>
            <path class="cls-1" d="M3718.91,144.67c.29-.3.57-.6.86-.89-.29.3-.57.6-.86.89Z"/>
            <path class="cls-1" d="M3439.21,130.72c.29.3.57.61.86.91-.29-.3-.57-.61-.86-.91Z"/>
            <path class="cls-1" d="M3494.41,130.02c.3-.28.59-.56.89-.83-.3.28-.59.56-.89.83Z"/>
            <path class="cls-1" d="M3662.02,128.37c.28.29.56.58.83.87-.28-.29-.56-.58-.83-.87Z"/>
            <path class="cls-1" d="M3661.21,127.54c.28.29.57.58.85.87-.28-.29-.57-.58-.85-.87Z"/>
            <path class="cls-1" d="M3660.41,126.72c.29.29.57.58.86.88-.29-.29-.57-.58-.86-.88Z"/>
            <path class="cls-1" d="M3659.61,125.89c.29.3.57.59.86.89-.29-.3-.57-.59-.86-.89Z"/>
            <path class="cls-1" d="M3658.82,125.03c.28.31.56.62.85.92-.28-.31-.56-.62-.85-.92Z"/>
            <path class="cls-12" d="M3722.68,58.61c-.21-.23-.41-.46-.62-.68.21.23.41.46.62.68Z"/>
            <g>
              <path class="cls-11" d="M3724.55,496.05s.03-.04.05-.07c0-.01,0-.02,0-.03l-.05.09Z"/>
              <path class="cls-11" d="M3783.53,529.57c-7.86-20.47-15.77-40.93-23.55-61.43-.84-2.22-1.31-4.72-1.31-7.08-.08-38.77-.05-77.54-.07-116.31,0-20.6-.06-41.21-.1-61.81-11.68.03-23.36.06-35.04.08-.04,32.52-9.94,61.79-29.32,87.82-13.83,18.58-31.25,32.95-51.92,43.38-.84.42-1.63.94-2.44,1.42-.3.46-.53,1.12-.86,1.5l.07-1.53c-35.64,16.63-72.17,18.28-109.43,6.31-15.33-4.93-29.13-12.87-42.17-22.2,0,.01.02.03.03.04-3.57-2.43-7.59-4.4-10.61-7.38-6.43-6.35-12.38-13.18-18.38-19.94-.87-.98-.97-2.66-1.42-4.01h0c-10.53-15.55-19.14-32.08-22.91-50.54-2.33-11.43-2.93-23.22-4.31-34.85-11.69-.01-23.38-.02-35.07-.04-.02,59.2-.01,118.39-.11,177.59,0,2.63-.54,5.39-1.45,7.86-4.88,13.31-9.95,26.55-14.96,39.82-1.14,3.49-2.27,6.99-3.41,10.48-1.46,3.21-2.92,6.42-4.38,9.63,0,0,.1-.04.1-.04.03,5.83,2.13,7.45,8.9,5.81,6-1.46,11.4,0,16.65,2.38,2.06.94,3.13,1.28,4.73-.77.82-1.05,3.02-1.41,4.59-1.41,46.21-.07,92.43-.06,138.64-.06,39.17,0,78.34-.2,117.5.12,12.83.11,25.64-.39,38.46-.16,13.28.23,26.56.05,39.84.05,13.15,0,26.29.04,39.44-.04,1.84-.01,3.67-.55,5.51-.85-.41-1.28-.77-2.58-1.25-3.83ZM3521.07,443.08c-.21-.37-.58-.74-.92-1.11.33.37.71.74.92,1.11ZM3537.86,514.67c-19.63.09-39.27.06-58.9.06h0c-19.36.01-38.73.03-58.09-.04-1.14,0-2.27-.77-3.41-1.18,1.14-.62,2.28-1.77,3.42-1.77,39-.08,78-.06,116.99.03,1.08,0,2.15.95,3.22,1.46-1.08.5-2.16,1.44-3.24,1.44ZM3725.53,494.42c-.02.53-.59,1.04-.94,1.56.26,2.45-.85,3.53-3.3,3.27l.05-.04c-1.01.57-2.02,1.65-3.03,1.65-21.68.1-43.37.12-65.05.04-4.93-.02-8.03-2.9-8.23-7.68-.22-5.41-.23-10.85.07-16.25.08-1.52,1.59-2.96,2.44-4.44.22-.25.45-.49.67-.74.29-.25.57-.51.86-.76,1.34-.61,2.67-1.74,4.01-1.75,21.72-.11,43.44-.13,65.15.04,1.61.01,3.2,1.59,4.8,2.43.23.25.46.5.69.74.79.78,2.26,1.55,2.26,2.33.01,6.53-.22,13.06-.46,19.59Z"/>
            </g>
            <path class="cls-27" d="M3658.35,109.33c4.43-4.06,8.68-7.96,12.74-11.68,3.77,3.41,7.92,7.47,12.43,11.09,2.16,1.73,4.9,2.88,7.56,3.77,1.31.44,3.78.2,4.37-.66.79-1.17.95-3.67.19-4.8-1.46-2.15-3.53-4.09-5.74-5.49-4.79-3.04-9.94-5.51-14.75-8.52-8.58-5.38-12.8-12.94-11.03-23.33,1.51-8.85,6.69-14.53,15.25-16.49,14.32-3.29,26.2,1.73,36.78,11.78-3.21,4.66-6.23,9.05-9.45,13.72-2.83-2.17-5.27-4.7-8.24-6.14-3.52-1.71-7.44-2.85-11.31-3.43-1.44-.22-4.11,1.52-4.6,2.92-.48,1.39.58,4.13,1.86,5.14,2.72,2.14,5.95,3.68,9.1,5.22,6.22,3.04,12.23,6.22,16.39,12.11,5.92,8.38,5.38,25.87-1.25,33.76-3.36,4.01-7.81,5.42-12.77,4.52-15.5-2.81-27.55-11.23-37.53-23.49Z"/>
            <path class="cls-27" d="M3521.59,86.93c.49,7.78.94,14.9,1.41,22.29-7.01,1.12-13.62,2.17-20.62,3.29-.86-20.57-1.7-40.77-2.55-61.23h20.85v20.59h21.22v-21.21h18.21v55.42h-17.46v-20.71c-7.34.55-14.02,1.04-21.06,1.57Z"/>
            <path class="cls-27" d="M3491.56,63.17c-4.33,3.87-8.44,7.56-12.51,11.2-3.13-2.55-5.92-5.31-9.17-7.35-5.93-3.74-11.21-2.24-13.95,4.19-4.6,10.78-4.21,21.72.86,32.22,3.08,6.39,8.58,7.41,13.98,2.67,3.72-3.26,6.74-7.32,10.38-11.37,1.79.89,4.04,1.99,6.28,3.11,2.16,1.09,4.32,2.19,7.6,3.86-4.35,4.76-7.78,10.06-12.58,13.37-6,4.14-12.87,7.52-19.85,9.63-8.78,2.66-16.53-.59-22.37-7.8-11.76-14.51-11.35-41.9.8-56.11,12.63-14.77,38.1-13.72,50.52,2.38Z"/>
            <path class="cls-27" d="M3602.36,49.96c13.38.77,25.85.82,38.12,2.38,11.18,1.42,18.29,11.88,17.43,23.34-.84,11.21-8.99,19.01-20.68,19.32-4.95.13-9.93-.53-15.46-.87v16.55c-6.86-.98-13.11-1.86-19.41-2.76v-57.97ZM3623.07,64.91v15.83c5.33.34,10.87,2.41,15.17-2.59,2.02-2.35,2.29-5.27.67-7.94-3.57-5.89-9.51-5.16-15.84-5.3Z"/>
            <path class="cls-27" d="M3572.45,74.59h17.57v31.59h-17.57v-31.59Z"/>
            <path class="cls-27" d="M3590.48,50.66v15.06h-17.84v-15.06h17.84Z"/>
            <path class="cls-25" d="M3623.07,64.91c6.33.13,12.28-.59,15.84,5.3,1.62,2.67,1.35,5.59-.67,7.94-4.3,5-9.84,2.93-15.17,2.59v-15.83Z"/>
            <text class="cls-13" transform="translate(3417.44 469.19)"><tspan x="0" y="0">Original </tspan><tspan x="0" y="36.07">Fl</tspan><tspan class="cls-5" x="27.98" y="36.07">a</tspan><tspan class="cls-19" x="45.83" y="36.07">v</tspan><tspan class="cls-23" x="62.6" y="36.07">our</tspan></text>
            <path class="cls-26" d="M3783.53,529.57c-7.86-20.47-15.77-40.93-23.55-61.43-.84-2.22-1.31-4.72-1.31-7.08-.08-38.77-.05-77.54-.07-116.31-.01-20.6-.06-41.21-.1-61.81h0c.12-2.53.35-5.07.35-7.6.02-37.88.01-75.76,0-113.64,0-18.96-.02-37.91.04-56.86,0-1.85.21-3.82.86-5.53,7.47-19.72,15.06-39.4,22.55-59.11,1.08-2.85,1.79-5.84,2.67-8.77,2.85-5.83,1.69-11.3-2.43-15.79-4.45-4.85-9.58-9.07-14.37-13.61-2.8-2.65-5.37-2.35-8.23.06-6.81,5.76-6.93,5.78-13.46.14-2.99-2.59-5.54-2.69-8.58-.12-6.78,5.73-6.9,5.72-13.51.04-2.84-2.44-5.29-2.64-8.27-.24-7.02,5.67-7.12,5.66-14.07-.03-2.63-2.16-5.03-2.32-7.65-.18-2.3,1.87-4.66,5.17-6.96,5.13-2.52-.04-5.08-3.06-7.45-4.99-2.61-2.12-5-2.33-7.63-.09-2.26,1.92-4.7,5.14-6.99,5.08-2.52-.07-5.01-3.16-7.4-5.06-2.77-2.2-5.31-2.43-7.87.29-.73.78-1.72,1.31-2.56,1.99q-4.52,3.64-9.11-.13c-6.26-5.14-6.39-5.14-12.27-.33q-5.18,4.24-10.44-.28c-5.05-4.33-5.79-4.34-11.04-.13q-5.76,4.61-11.33-.18c-.21-.18-.4-.36-.61-.54-3.89-3.24-5.16-3.24-9.14,0q-7.03,5.73-13.95.04c-4.05-3.33-4.94-3.33-9.09-.05q-6.6,5.23-12.96.02c-3.98-3.26-5.3-3.26-9.13-.01q-6.33,5.37-12.63.17c-.1-.09-.21-.17-.31-.27-2.93-3.16-5.79-2.62-8.9-.12-6.79,5.48-6.89,5.5-13.42-.14-2.84-2.45-5.23-2.64-8.21-.13-6.87,5.79-7.01,5.77-13.8.08-2.88-2.41-5.35-2.51-8.27-.05-6.77,5.71-6.89,5.73-13.78.01-2.94-2.44-5.39-2.37-8.27.04-6.72,5.63-6.82,5.62-13.75-.08-2.72-2.23-5.11-2.48-7.96-.17-7.05,5.74-7.16,5.75-14.15.08-2.82-2.29-5.21-2.21-7.96.05-6.87,5.65-6.81,5.47-14.22.02-1.52-1.12-5-1.87-6.04-.99-6.15,5.21-12.27,10.59-17.53,16.67-3.27,3.77-3.61,8.96-1.03,13.78.07,0,.13.01.2.02-.07,0-.13-.01-.2-.02.1.9.03,1.88.34,2.7,5.73,15.03,11.3,30.14,17.35,45.04,5.21,12.84,10.33,25.55,8.51,39.88-.46,3.59-.1,7.28-.1,10.93,0,38.31-.03,76.61.01,114.92.01,12.7.21,25.4.33,38.1-.02,59.2-.01,118.39-.11,177.59,0,2.63-.54,5.39-1.45,7.86-4.88,13.31-9.95,26.55-14.96,39.82-1.14,3.49-2.27,6.99-3.41,10.48-1.46,3.21-2.92,6.42-4.38,9.63,0,0,.1-.04.1-.04-.76,1.72-1.56,3.42-2.28,5.15-2.92,7.08-1.4,13.21,4.23,18.23,4.24,3.78,8.78,7.22,13.1,10.93,2.52,2.17,4.75,2.06,7.19-.1,2.39-2.12,4.93-4.06,7.41-6.09,2.84,2.35,5.35,4.41,7.83,6.51,2.09,1.77,4.12,1.74,6.21,0,2.57-2.15,5.18-4.27,7.93-6.53,1.65,1.37,3.08,2.57,4.52,3.77q6.47,5.39,12.78.08c1.53-1.29,3.1-2.53,4.71-3.85,2.65,2.21,5.08,4.14,7.4,6.2,2.47,2.2,4.75,2.11,7.19-.06,2.39-2.13,4.91-4.13,7.36-6.18,2.67,2.21,5.03,4.03,7.22,6.04,2.55,2.33,4.9,2.42,7.5.07,2.36-2.13,4.91-4.06,7.35-6.06,2.24,1.87,4.11,3.42,5.98,4.99,4.66,3.9,5.17,3.89,9.97-.05,1.97-1.63,3.95-3.25,6.06-4.98,2.24,1.9,4.31,3.61,6.34,5.38,3.22,2.81,5.87,2.66,8.66-.52,4.54-5.18,6.41-5.33,11.71-.91.94.78,1.89,1.54,2.8,2.36,2.29,2.08,4.52,2.06,6.86.02,2.44-2.13,4.98-4.15,7.59-6.32,2.62,2.18,5.13,4.2,7.57,6.32,2.34,2.04,4.53,2,6.87-.03,2.63-2.28,5.37-4.44,8.1-6.7,2.98,2.47,5.7,4.69,8.38,6.96,2.09,1.77,4.14,1.73,6.21,0,2.57-2.16,5.17-4.3,7.88-6.55,2.62,2.18,5.15,4.21,7.59,6.34,2.35,2.05,4.55,1.96,6.87-.06,2.42-2.11,4.94-4.11,7.54-6.27,2.55,2.12,5.01,4.04,7.31,6.12,2.61,2.36,4.98,2.17,7.52-.11,2.28-2.06,4.7-3.96,7.15-6.02,2.79,2.28,5.43,4.38,8,6.57,2.13,1.81,4.14,1.66,6.2-.05,2.57-2.14,5.14-4.27,7.84-6.52,2.37,1.99,4.64,3.71,6.69,5.65,2.88,2.73,5.52,2.91,8.46.06,2.1-2.03,4.49-3.77,6.82-5.69,2.78,2.29,5.32,4.31,7.78,6.42,2.22,1.91,4.31,1.89,6.52-.02,2.45-2.12,4.97-4.14,7.67-6.38,2.05,1.68,4.03,3.29,5.99,4.92,4.79,3.97,5.3,3.98,9.96.09,1.96-1.63,3.93-3.25,6.1-5.03,2.74,2.26,5.34,4.39,7.91,6.55,2.09,1.75,4.12,1.75,6.21-.02,2.56-2.17,5.17-4.28,7.9-6.52,2.59,2.14,5.03,4.05,7.34,6.11,2.42,2.16,4.65,2.28,7.18.11,4.31-3.71,8.84-7.16,13.12-10.9,5.58-4.87,6.97-11.71,3.97-18.33-.41-1.28-.77-2.58-1.25-3.83ZM3437.56,127.41c.28.58.55,1.16.83,1.73l.03.06c-.29-.6-.57-1.2-.86-1.8ZM3439.21,130.72l.11.07h0s-.11-.07-.11-.07ZM3457.01,368.41c.46,1.35.55,3.03,1.42,4.01-.87-.98-.97-2.66-1.42-4.01ZM3489.57,133.98c-.2.11-.39.22-.59.33.2-.11.39-.22.59-.33h0ZM3494.45,129.97c-1.37,1.1-2.74,2.2-4.11,3.29,1.37-1.1,2.74-2.2,4.12-3.29h0ZM3639.79,415.64c-.3.46-.53,1.11-.86,1.5l.07-1.53c.21-.1.53.02.79.03.81-.47,1.6-.99,2.44-1.42-.84.42-1.63.94-2.44,1.42ZM3658.82,125.03l.09.08s0,0,0,0c0,0-.09-.09-.09-.09.28.3.55.6.83.91l.02.02c-.28-.31-.57-.62-.85-.93ZM3667.56,133.88c.08.07.15.13.23.2h0c-.08-.06-.16-.13-.24-.2ZM3672.68,138.12s-.04-.05-.04-.05l.04.05s0,0,0,0ZM3680.02,142.98s-.04-.06-.04-.06l.04.06h0ZM3714.06,51.25s-.08-.06-.08-.06l.08.06c.47.3.93.6,1.4.91-.47-.3-.93-.61-1.4-.91ZM3718.1,145.48c.27-.28.55-.55.83-.83l.04-.04c-.29.29-.58.58-.87.87ZM3720.42,99.19s0,0,0,0c0,0,.06.07.06.07l-.06-.07ZM3723.62,59.1c.08.02.16.05.24.07.26.6.51,1.2.77,1.8h0c-.26-.6-.51-1.2-.77-1.8-.08-.03-.16-.05-.24-.07ZM3724.26,497.37c.12-.45.39-.75.32-1.38,0,0,0,0,.01-.01.07.64-.21.94-.33,1.39ZM3725.99,474.83c0-.39-.37-.78-.84-1.17.47.39.83.78.84,1.17h0ZM3725.43,82.84l.04-.05s0,0,0,0c0,0-.04.04-.04.04ZM3727.1,80.39s-.02.02-.02.02l.02-.03s0,0,0,0ZM3724.6,60.94s0,0,0,0c1.34,2.73,2.69,5.45,4.03,8.18-1.34-2.73-2.69-5.46-4.03-8.18Z"/>
          </g>
          <g>
            <rect class="cls-3" x="124.85" y="504.08" width="131.64" height="120.05"/>
            <path class="cls-10" d="M110.18,271.21l14.68,232.87c0,9.82,29.47,17.79,65.82,17.79s65.82-7.96,65.82-17.79l14.68-232.87H110.18Z"/>
            <ellipse class="cls-22" cx="190.67" cy="271.21" rx="80.49" ry="17.78"/>
          </g>
          <g>
            <rect class="cls-4" x="236.42" y="575.02" width="131.64" height="120.05"/>
            <path class="cls-17" d="M221.74,342.15l14.68,232.87c0,9.82,29.47,17.79,65.82,17.79s65.82-7.96,65.82-17.79l14.68-232.87h-160.99Z"/>
            <ellipse class="cls-24" cx="302.24" cy="342.15" rx="80.49" ry="17.78"/>
          </g>
        </g>
      </g>
    </g>
  </g>
</svg>