<?xml version="1.0" encoding="UTF-8"?>
<svg id="Ebene_1" data-name="Ebene 1" xmlns="http://www.w3.org/2000/svg" viewBox="0 0 92.93 91.41">
  <defs>
    <style>
      .cls-1 {
        fill: #f5c2b6;
      }

      .cls-1, .cls-2, .cls-3, .cls-4 {
        stroke-width: 0px;
      }

      .cls-2 {
        fill: #ff8f76;
      }

      .cls-3 {
        fill: #c43493;
      }

      .cls-4 {
        fill: #b0b93c;
      }
    </style>
  </defs>
  <path class="cls-2" d="m22.72,51.73c6.2-23.03,21.35-7.38,24.3-9.96,11.63-10.17,25.48-6.1,26.11,7.98.63,14.08-8.74,25.95-24.05,26.55-15.31.6-30-11.03-26.35-24.58Z"/>
  <path class="cls-3" d="m22.72,51.73c6.2-23.03,21.35-7.38,24.3-9.96,11.63-10.17,25.48-6.1,26.11,7.98.63,14.08-8.74,25.95-24.05,26.55-15.31.6-30-11.03-26.35-24.58Z"/>
  <ellipse class="cls-1" cx="32.77" cy="49.86" rx="5.2" ry="3.06" transform="translate(-26.6 55.77) rotate(-62.37)"/>
  <path class="cls-4" d="m45.62,43.5s-1.47-5.45-.2-7.32c4.59-6.71,12.55-6.22,12.55-6.22,0,0,.14,8.9-3.65,12.17-3.81,3.3-8.71,1.37-8.71,1.37Z"/>
  <path class="cls-4" d="m44.24,44.95s-5.52.72-7.24-.87c-6.18-5.73-4.91-13.9-4.91-13.9,0,0,8.79,1.16,11.66,5.55,2.88,4.43.5,9.22.5,9.22Z"/>
</svg>