<?xml version="1.0" encoding="UTF-8"?>
<svg id="Ebene_2" xmlns="http://www.w3.org/2000/svg" xmlns:xlink="http://www.w3.org/1999/xlink" viewBox="0 0 420.02 316.06">
  <defs>
    <style>
      .cls-1 {
        font-family: MVBoli, 'MV Boli';
        font-size: 9px;
      }

      .cls-2 {
        fill: #111;
      }

      .cls-3 {
        fill: #f16fa8;
      }

      .cls-4 {
        filter: url(#drop-shadow-5);
      }

      .cls-4, .cls-5, .cls-6 {
        fill: #f9e112;
      }

      .cls-5 {
        filter: url(#drop-shadow-4);
      }

      .cls-7 {
        filter: url(#drop-shadow-2);
      }

      .cls-8 {
        fill: #ffc237;
      }

      .cls-9 {
        fill: #fff;
      }

      .cls-10 {
        filter: url(#drop-shadow-3);
      }

      .cls-10, .cls-11 {
        fill: #ddc69f;
      }

      .cls-12 {
        fill: #f16fa8;
      }

      .cls-13 {
        stroke-width: .3px;
      }

      .cls-13, .cls-14, .cls-15 {
        fill: none;
        stroke-miterlimit: 10;
      }

      .cls-13, .cls-15 {
        stroke: #000;
      }

      .cls-14 {
        opacity: .48;
        stroke: #fff;
        stroke-width: .75px;
      }

      .cls-16 {
        fill: #f9f9f9;
      }

      .cls-17 {
        fill: #80b0c1;
      }

      .cls-18 {
        filter: url(#drop-shadow-1);
      }

      .cls-19 {
        fill: #f39200;
      }

      .cls-20 {
        fill: #1d1d1d;
      }

      .cls-15 {
        stroke-width: .23px;
      }

      .cls-21 {
        fill: #e8e8e8;
      }
    </style>
    <filter id="drop-shadow-1" filterUnits="userSpaceOnUse">
      <feOffset dx="5.67" dy="-2.83"/>
      <feGaussianBlur result="blur" stdDeviation="0"/>
      <feFlood flood-color="#3c88bc" flood-opacity=".35"/>
      <feComposite in2="blur" operator="in"/>
      <feComposite in="SourceGraphic"/>
    </filter>
    <filter id="drop-shadow-2" filterUnits="userSpaceOnUse">
      <feOffset dx="5.67" dy="-2.83"/>
      <feGaussianBlur result="blur-2" stdDeviation="0"/>
      <feFlood flood-color="#3c88bc" flood-opacity=".35"/>
      <feComposite in2="blur-2" operator="in"/>
      <feComposite in="SourceGraphic"/>
    </filter>
    <filter id="drop-shadow-3" filterUnits="userSpaceOnUse">
      <feOffset dx="5.67" dy="-2.83"/>
      <feGaussianBlur result="blur-3" stdDeviation="0"/>
      <feFlood flood-color="#3c88bc" flood-opacity=".35"/>
      <feComposite in2="blur-3" operator="in"/>
      <feComposite in="SourceGraphic"/>
    </filter>
    <filter id="drop-shadow-4" filterUnits="userSpaceOnUse">
      <feOffset dx="5.67" dy="-2.83"/>
      <feGaussianBlur result="blur-4" stdDeviation="0"/>
      <feFlood flood-color="#3c88bc" flood-opacity=".35"/>
      <feComposite in2="blur-4" operator="in"/>
      <feComposite in="SourceGraphic"/>
    </filter>
    <filter id="drop-shadow-5" filterUnits="userSpaceOnUse">
      <feOffset dx="5.67" dy="-2.83"/>
      <feGaussianBlur result="blur-5" stdDeviation="0"/>
      <feFlood flood-color="#3c88bc" flood-opacity=".35"/>
      <feComposite in2="blur-5" operator="in"/>
      <feComposite in="SourceGraphic"/>
    </filter>
  </defs>
  <g id="BriefeSchreiben">
    <g>
      <rect class="cls-17" x="55.01" y="-45.44" width="240.98" height="340.78" transform="translate(300.45 -50.54) rotate(90)"/>
      <rect class="cls-21" x="-35.3" y="35.3" width="240.98" height="170.39" transform="translate(205.69 35.3) rotate(90)"/>
      <rect class="cls-16" x="135.1" y="35.3" width="240.98" height="170.39" transform="translate(376.08 -135.1) rotate(90)"/>
      <text class="cls-1" transform="translate(10.21 23.36)"><tspan x="0" y="0">Hallo liebe Freunde,</tspan><tspan x="0" y="21.6">Mein süßes Haustie</tspan></text>
      <g>
        <path class="cls-15" d="M296.76,240.98s7.21-9.54,5.97-16.16c-1.53-8.1,6.75-11.58,9.21-15.35,1.82-2.78,4.52-10.88,4.52-10.88"/>
        <g>
          <ellipse class="cls-8" cx="317.6" cy="185.16" rx="12.78" ry="10.1" transform="translate(98.77 480.58) rotate(-83.71)"/>
          <ellipse class="cls-9" cx="314.16" cy="178.04" rx="2.64" ry=".97" transform="translate(-13.98 328.77) rotate(-54.21)"/>
          <polygon class="cls-8" points="316.71 196.62 314.77 200.39 317.77 200.73 316.71 196.62"/>
        </g>
      </g>
      <g>
        <path class="cls-15" d="M295.87,240.98s-4.31-11.56-2.57-14.57c2.12-3.68-3.71-12.42-5.12-16.68-1.04-3.14,6.53-32.52,6.53-32.52"/>
        <g>
          <ellipse class="cls-12" cx="293.38" cy="167.92" rx="12.78" ry="10.1" transform="translate(121.85 459.21) rotate(-89.29)"/>
          <ellipse class="cls-9" cx="289.26" cy="161.17" rx="2.64" ry=".97" transform="translate(4.45 330.07) rotate(-59.79)"/>
          <polygon class="cls-3" points="293.61 179.41 292.04 183.35 295.06 183.39 293.61 179.41"/>
        </g>
      </g>
      <g>
        <path class="cls-13" d="M170.39,66.5s-.67-17.79-8.96-23.38c-4.77-3.22-4.23-13.9-4.23-13.9"/>
        <path class="cls-6" d="M155.18,5.34l3.18,6.54c.41.84,1.3,1.31,2.2,1.17l6.91-1.12c1.96-.32,3.21,2.1,1.85,3.57l-5.04,5.45c-.6.64-.73,1.61-.34,2.41l3.32,6.82c.9,1.86-1.05,3.79-2.83,2.81l-6.06-3.35c-.83-.46-1.85-.29-2.49.4l-4.7,5.08c-1.39,1.5-3.85.28-3.57-1.77l1-7.52c.12-.88-.31-1.75-1.08-2.18l-6.5-3.59c-1.76-.97-1.33-3.66.64-3.97l6.91-1.12c.9-.15,1.6-.87,1.72-1.8l.96-7.21c.28-2.07,3-2.51,3.92-.63Z"/>
        <polygon class="cls-6" points="156.6 28.28 155.83 30.96 158.18 30.58 156.6 28.28"/>
      </g>
      <circle class="cls-6" cx="183.27" cy="233.44" r="2.81"/>
      <circle class="cls-12" cx="40.45" cy="233.44" r="2.81"/>
      <circle class="cls-12" cx="183.27" cy="218.16" r="2.04"/>
      <circle class="cls-19" cx="137.69" cy="7.3" r="2.04"/>
      <circle class="cls-6" cx="26.86" cy="230.63" r="2.04"/>
      <circle class="cls-19" cx="145.18" cy="230.63" r="2.04"/>
      <circle class="cls-19" cx="202.29" cy="230.63" r="2.04"/>
      <circle class="cls-12" cx="332.01" cy="54.32" r="2.04"/>
      <circle class="cls-19" cx="326.88" cy="233.44" r="2.04"/>
      <circle class="cls-6" cx="203.31" cy="219.79" r="1.44"/>
      <circle class="cls-19" cx="158.62" cy="197.15" r="1.44"/>
      <circle class="cls-19" cx="176.94" cy="100.69" r="1.44"/>
      <circle class="cls-19" cx="255.59" cy="167.92" r="1.44"/>
      <circle class="cls-12" cx="316.45" cy="223.29" r="1.44"/>
      <circle class="cls-6" cx="324.84" cy="44.07" r="1.44"/>
      <circle class="cls-19" cx="137.69" cy="25.31" r="1.44"/>
      <circle class="cls-19" cx="211.22" cy="233.44" r="1.44"/>
      <circle class="cls-19" cx="196.28" cy="7.3" r="1.44"/>
      <circle class="cls-12" cx="180.45" cy="10.29" r="1.44"/>
      <circle class="cls-19" cx="27.45" cy="10.29" r="1.44"/>
      <circle class="cls-19" cx="314.16" cy="7.3" r="1.44"/>
      <circle class="cls-12" cx="15.48" cy="7.3" r="1.44"/>
      <circle class="cls-19" cx="156.09" cy="233.44" r="1.44"/>
      <circle class="cls-19" cx="187.57" cy="221.85" r="1.44"/>
      <circle class="cls-12" cx="128.16" cy="11.73" r="1.44"/>
      <circle class="cls-19" cx="189.71" cy="200.04" r="1.44"/>
      <circle class="cls-6" cx="164.29" cy="203.05" r="1.44"/>
      <ellipse class="cls-9" cx="151.62" cy="16.08" rx="1.86" ry=".68" transform="translate(27.88 105.16) rotate(-41.8)"/>
      <ellipse class="cls-9" cx="153.19" cy="13.03" rx=".42" ry=".77"/>
      <ellipse class="cls-9" cx="148.58" cy="17.26" rx=".42" ry=".67" transform="translate(123.3 164.69) rotate(-86.89)"/>
    </g>
    <g>
      <g class="cls-18">
        <rect class="cls-12" x="291" y="152.37" width="15.83" height="169.53" transform="translate(-75.53 163.83) rotate(-27.35)"/>
        <polygon class="cls-11" points="267 158.21 252.94 165.48 247.8 145.72 253.85 142.59 267 158.21"/>
        <polygon class="cls-12" points="226.42 119.79 211.04 118.4 224.32 126.28 226.42 119.79"/>
        <polygon class="cls-12" points="228.03 112.01 228.62 108.13 226.42 111.38 228.03 112.01"/>
        <polygon class="cls-12" points="227.17 132.91 224.63 135.9 228.21 134.29 227.17 132.91"/>
        <polygon class="cls-12" points="229.28 116.2 231.39 114.57 228.73 114.56 229.28 116.2"/>
        <line class="cls-14" x1="256.4" y1="164.22" x2="334.6" y2="314.11"/>
      </g>
      <g class="cls-7">
        <rect class="cls-2" x="92.91" y="99.48" width="15.83" height="169.53" transform="translate(72.18 -23.82) rotate(20.85)"/>
        <polygon class="cls-2" points="138.09 99.19 129.05 95.75 134.43 88.57 138.85 89.68 138.09 99.19"/>
        <polygon class="cls-11" points="138.39 107.85 123.6 102.21 133.42 89.09 139.19 94.44 138.39 107.85"/>
        <polygon class="cls-2" points="147.67 78.81 155.26 71.02 144.53 72.77 147.67 78.81"/>
        <polygon class="cls-2" points="148.8 93.37 152.08 91.22 148.19 91.74 148.8 93.37"/>
        <polygon class="cls-2" points="140.81 76.1 136.89 76.2 140.47 77.8 140.81 76.1"/>
        <polygon class="cls-2" points="153.95 80.32 156.56 80.8 154.8 78.81 153.95 80.32"/>
      </g>
    </g>
    <g>
      <path class="cls-20" d="M141.88,82.57c.09.09.12-.01.15-.01-.17-.13-.17.04-.15.01Z"/>
      <polygon class="cls-20" points="140.21 81.36 140.26 81.35 139.97 81.23 140.21 81.36"/>
      <path class="cls-20" d="M138.78,80.09c.02.25.54.43.75.71v.07s.22,0,.22,0c-.32-.26-.79-.54-.98-.77Z"/>
      <path class="cls-20" d="M138.26,79.12c0,.09-.21-.1.17.17,0-.02-.01-.03-.02-.04-.03-.03-.07-.06-.15-.13Z"/>
      <path class="cls-20" d="M138.41,79.25c.16.13-.06-.13,0,0h0Z"/>
      <path class="cls-20" d="M137.67,78.68l.24.13c-.02-.07-.19-.23-.1-.19-.23-.15-.21-.08-.14.07Z"/>
      <path class="cls-20" d="M137.4,78.61l.12.07s-.03-.06-.12-.07Z"/>
      <path class="cls-20" d="M137.78,78.83l-.26-.15s-.02.09.11.07c-.05.02.02.02.14.08Z"/>
      <path class="cls-20" d="M137.88,78.96c.09.13.22.27-.02.14.4.31.43.17.02-.14Z"/>
      <path class="cls-20" d="M138.58,80.16l.11.17.17.07c-.08-.03-.26-.29-.28-.24Z"/>
      <path class="cls-20" d="M136.46,77.54s0,.13-.01.18l.18.09c-.06-.08-.19-.22-.17-.28Z"/>
      <path class="cls-20" d="M136.45,77.72l-.27-.14c.2.17.25.18.27.14Z"/>
      <polygon class="cls-20" points="137.23 78.73 137.69 78.94 137.16 78.68 137.23 78.73"/>
      <polygon class="cls-20" points="135.6 76.82 135.78 76.86 135.47 76.77 135.6 76.82"/>
      <path class="cls-20" d="M135.01,76.36c.14.02-.06-.2.07-.15-.17-.12-.34-.18-.5-.23.15.08.28.19.42.38Z"/>
      <path class="cls-20" d="M134.33,75.88c.08.04.16.07.26.1-.08-.04-.16-.08-.26-.1Z"/>
      <path class="cls-20" d="M135.81,77.25s0-.11-.11-.23l.02.16s.06.05.09.07Z"/>
      <path class="cls-20" d="M135.72,77.18h0c-.09-.09-.16-.14-.19-.17.02.02.08.07.19.17Z"/>
      <path class="cls-20" d="M135.83,77.27l-.02-.02s0,.02.02.02Z"/>
      <path class="cls-20" d="M136.71,78.16c-.17-.06-.49-.24-.28.05.14.02.02-.14.28-.05Z"/>
      <path class="cls-20" d="M135.86,77.47l.22.22s0-.09.08-.06l-.31-.16Z"/>
      <polygon class="cls-20" points="135.72 77.4 135.86 77.47 135.77 77.39 135.72 77.4"/>
      <path class="cls-20" d="M134.69,76.29c-.13-.05-.25-.14-.39-.23.13.13.26.25.4.36.04-.01.14,0-.01-.13Z"/>
      <path class="cls-20" d="M135.19,76.73h-.03s.02.02.03,0Z"/>
      <polygon class="cls-20" points="133.01 75.05 133.02 75.08 133.03 75.07 133.01 75.05"/>
      <path class="cls-20" d="M134.71,76.45c.09.1.17.13.25.15-.09-.05-.17-.11-.26-.19-.02,0-.03.01.01.03Z"/>
      <path class="cls-20" d="M133.94,75.64c.04.06.09.13.15.19-.03-.07-.11-.2-.15-.19Z"/>
      <path class="cls-20" d="M135.14,76.66h.02s-.02-.02-.02,0Z"/>
      <path class="cls-20" d="M135.14,76.66c-.06-.03-.12-.04-.18-.06.07.04.14.08.2.11,0-.02-.01-.04-.02-.05Z"/>
      <path class="cls-20" d="M132.2,75.29c.08-.06.41.08.59.34.28.12.33-.25.23-.56-.03.03-.06.06-.34-.08.05.11.47.51.21.43-.36-.21-.24-.23-.37-.39.06.2-.52-.17-.56.03l.32.16s-.14-.02-.08.06Z"/>
      <path class="cls-20" d="M133.48,75.44l.11.07c-.1-.1-.16-.2-.26-.38-.2-.09-.26-.09-.29-.07l.49.39-.04-.02Z"/>
      <path class="cls-20" d="M134.03,75.87c-.14.02-.41-.13-.34.08.3.23.26.09.46.19-.49-.35.17.06-.13-.26.1.06.19.12.27.18-.08-.08-.15-.16-.21-.23h0s0,.02,0,.02h0s.01.04,0,.02h-.01s-.03,0-.05,0c-.12-.13,0-.04.05-.02h.02s0-.01,0-.01l-.51-.33c.09.09.22.19.45.35Z"/>
      <path class="cls-20" d="M136.03,78.18s0-.02,0-.03c-.04-.01-.06-.02,0,.03Z"/>
      <path class="cls-20" d="M135.88,77.98s.1,0,.2.1c.07.1-.03.04-.05.07.08.03.28.13.11-.08l-.04-.02c-.16-.18-.32-.48-.27-.47,0,.12,0,.21.06.39Z"/>
      <path class="cls-20" d="M134.94,76.92l-.42-.27.14.23.02-.05c.21.19.2.1.26.09Z"/>
      <polygon class="cls-20" points="133 74.97 133.12 74.92 132.79 74.87 133 74.97"/>
      <polygon class="cls-20" points="132.47 74.58 132.55 74.52 132.37 74.46 132.47 74.58"/>
      <path class="cls-20" d="M97.57,66.74h-.16c.07,0,.12,0,.16,0Z"/>
      <path class="cls-20" d="M98.66,66.91l.03-.05c-.05.02-.08.04-.03.05Z"/>
      <path class="cls-20" d="M118.4,66.8c-.2-.15-.42-.35-.41-.23l.05.12c.16.02.27.06.36.11Z"/>
      <path class="cls-20" d="M107.42,66.58l.06.03c.05-.04.1-.07.15-.1-.06.02-.13.04-.21.07Z"/>
      <path class="cls-20" d="M107.26,67.02l-.28-.07c.06.02.15.05.28.07Z"/>
      <path class="cls-20" d="M93.24,62.49l-.15-.16c.07.29.09.15.15.16Z"/>
      <path class="cls-20" d="M126.96,70.78c-.14-.13-.25-.23-.36-.3.16.17.26.35.36.3Z"/>
      <path class="cls-20" d="M98.17,65.68c-.09,0-.13.02-.13.05.09,0,.14-.02.13-.05Z"/>
      <path class="cls-20" d="M126.15,70.2s.05.05.07.07c.13.06.25.12.39.21-.12-.13-.26-.25-.46-.28Z"/>
      <path class="cls-20" d="M97.87,44.7l-.03-.03s0,.02.03.03Z"/>
      <path class="cls-20" d="M92.13,43.18c.06-.03.16-.08.25-.12-.05.01-.12.05-.25.12Z"/>
      <path class="cls-20" d="M130.38,72.99c.12.08.02,0,0,0h0Z"/>
      <path class="cls-20" d="M130.68,73.73s-.06,0-.08.01c.02-.01.05-.02.08-.01Z"/>
      <path class="cls-20" d="M124.61,70.09h-.01s.02.03.01,0Z"/>
      <path class="cls-20" d="M130.52,73.15s-.08-.09-.12-.13c.02.02.06.06.12.13Z"/>
      <path class="cls-20" d="M130.53,73.09s.06.06.09.08c.02,0,.02-.02-.09-.08Z"/>
      <path class="cls-20" d="M130.22,72.88c.07.04.12.09.18.14-.02-.02-.02-.03-.02-.03-.03-.02-.08-.06-.16-.11Z"/>
      <path class="cls-20" d="M96.33,53.04s.01-.01.03-.02c.04-.14.01-.09-.03.02Z"/>
      <polygon class="cls-20" points="114.68 67.37 114.7 67.37 114.68 67.37 114.68 67.37"/>
      <path class="cls-20" d="M114.19,67.41c.22-.12.34-.09.49-.04l-.13-.33-.36.37Z"/>
      <path class="cls-20" d="M94.92,65.67c.09.15.19.25.29.37-.55-.19-.82-.67-.58-.18.15-.08.51.25.88.43.38.2.74.3.82.15l.22.14c-.07-.03-.09,0-.15-.03.43.31.42-.13.99.05.2.06.33.14.19.15.16,0,.31,0,.47,0,.13.03.09.08-.04.05.23.03.47.05.7.06h0c.1-.03.34-.09.45-.12.17.06-.09.03-.05.07l.39-.05c.15.1-.17.16-.44.12.33.37.32-.05,1.08.19l-.36.02c.22.21.51.16.91.29-.1-.07-.8-.34-.38-.41.11.03.27.05.49,0,0,.12.22.1.49.1l-.02.16c.3-.04.27-.12.45-.18.33.02.39.15.46.25.52.04-.36-.21.26-.22.43.07.74,0,1.26-.08.3.06-.05.1.05.14l.27-.12c.07,0,.04.04.03.06.23-.05.02-.16.38-.2.1-.18.73.26,1.17.06.11.05-.05.1-.02.16.6-.13.52-.09,1.01-.27l.42.11c-.31-.12.09-.26.43-.38-.11-.06-.2-.11-.27-.14l.55-.08c.07.03.01.08-.08.15.04-.01.07-.03.1-.04.2.06.09.15-.05.24-.06-.03-.13-.07-.2-.1-.14.1-.27.2-.24.3.04-.02.11-.03.18-.04-.04.03-.06.05-.04.07.02.02.08-.02.17-.06l.12.18.03-.07.72.12c.52-.17.97-.43,1.79-.48-.21.12-.05.21-.07.37-.22-.17-.64.05-1.06.01.22.02.17.09.11.12l.76-.13c-.02.13.16.1.35.16-.14-.25.57-.15.88-.21.02.09-.06.17-.44.13.41.2.55-.27.95-.1-.09,0-.14-.02-.18.02.22-.07.74.02.61.09h-.09c.61.05,1.84.12,1.95-.08,0,.03-.1.25-.14.29.38-.21.76-.41,1.15-.61-.11.17.2.64-.3.69.14.04.31.09.62.06-.09-.04-.21-.29-.08-.29.34.24.24.14.67.37-.14-.06.06-.32.29-.28-.04.04-.02.28-.11.3l.61-.2c-.15.03-.06.23.06.33-.05-.07.49.08.65.08l-.23-.11c.63.15.71-.29,1.33-.1-.09.04-.26.3.04.42.17-.09.83-.53,1.43-.43l.08.12.45.07c-.17.05-.48.11-.79.17-.32.06-.65.16-.87.18.21.12.04.11.38.19.1.1-.22.06-.32.04.26.09.52.16.77.29.02-.17.65.07.67-.07l-.91-.16c.01-.17.65-.26,1.21-.02.12.12-.22.24-.22.29.09-.03.57.1.61.16h-.27c.28.17.6-.03.89.3.12.07.28.38.35.3-.12-.27.08-.83.28-.89.04.03.59.49.7.64.14.23-.47.17-.35.37.03-.04.17-.03.22-.03.11.1-.12.1.18.22.13-.14.56.32.2-.06.3.11.27.19.6.36-.05-.15.47-.17.77-.06-.04.03,0,.11.01.15.56.32.82.56,1.32.89.03.06.24.26.1.26.09.02.19.01.35.11.23.31-.36-.2-.22.1.07-.07.48.14.73.22.01-.17-.5-.35-.76-.43.11-.18.62-.12,1.21.13.45.23.11.23.2.25.76.56.87.14,1.43.71.18.28-.14.23-.14.35-.37-.19-.47-.42-.7-.57l.25.24c-.13-.04-.38-.16-.48-.27.14.25,1.31.89,1.83,1.42.13.04.34.13.28.02l-.2-.12c-.11-.21.44.13.23-.08.29.12.65.22.96.53l-.02.17s-.18-.24-.3-.27c.19.05.42.56.7.51l-.18-.26c.3.12.7.22.98.49-.05-.23-.08-.04-.19-.35.06.32-.78-.6-.62-.18-.11-.33-.34-.35-.54-.71-.02.05.05.15-.2-.06-.02,0-.06,0-.08,0l-.02-.02v.02s0,0,.02,0c.05.06.08.12.09.16-.2,0-.61-.3-.79-.36-.14-.13.1,0,.04-.11l-.26-.08c.05-.11-.31-.44.1-.24l-.33-.23c-.16-.19-.42-.39-.62-.47-.15-.13-.47-.17-.28-.15l-.57-.3v-.03c-.51-.37-1.19-.54-1.7-1.09-.2-.09-.4-.18-.69-.38v-.12c-.27-.1-.69-.49-.84-.46-.13-.38-1.14-.71-1.57-.94l-.07.11c-.3-.15-.6-.26-1-.39l-.02.11c-.35-.09-.82-.43-1.35-.63.05-.03.18.04.27.1-.27-.24-.63-.33-.97-.4-.35-.07-.71-.07-.98-.25-.16,0-.27-.04-.37-.1.01,0,.03,0,.04,0-.02,0-.04-.01-.06-.02-.06-.04-.13-.08-.2-.11.06.04.11.08.16.1-.12-.03-.3-.06-.47-.08l-.05-.14s-.02,0-.04,0c-.16-.07-.15.03-.07.14-.09,0-.17.01-.24.03-.1-.21-.46-.02-.61-.25-.13.08-.88-.06-1,.15,0-.03-.05-.05.04-.04-.19-.05-.38-.1-.56-.06l-.06-.16-.44.16c-.24-.12-.35-.18-.08-.27-.63.12-.5.02-1.04.15l.03-.1c-.19-.01-.49.1-.6,0-.4-.22-2.05-.15-3.12-.35.2.3-.49-.15-.54.08-.06-.07-.21-.11-.03-.17-.55.05-.82-.13-1.2.06-.06-.07.12-.1.06-.14-.04.01-.17.06-.23.02-.05-.04.08-.06.17-.09-.56,0-.62.22-.66.41-.28-.1-.42-.09-.62.04-.1-.07-.26-.14.08-.16-.19-.01-1.18-.1-1.2.06-.06-.04-.27-.01-.32,0-.43-.01-.47-.03-.9-.01l.12.03c-.17.19-.35.04-.7.06v-.02c-.78-.14-.33.06-1.11-.1l.04.12c-.08.26-.69-.16-1.14-.07l.16.07c-.25.08-.68-.37-.92-.41-.05-.02.09-.03.16-.05-.64-.17-.09.16-.57.17-.08-.09.12-.21-.2-.24-.15-.07-.95.23-1.37.02.09.07.18.15-.04.18-.34,0-.88-.34-1.2-.18-.04-.02-.05-.04-.05-.06-.26.02-.82-.06-1,0-.06-.23-.44-.28-.77-.37-.33-.08-.61-.23-.48-.37-.09-.06-.14-.13-.22-.2l-.22-.31h.04c-.24-.42-.43-.5-.58-.62-.02-.12.04-.06.06-.06-.18-.69-.31-.7-.6-1.25l.11-.09c-.05-.07-.08-.33-.09-.65.02-.33,0-.71-.06-1.06.01,0,.04.02.05.08-.03-.39.05-.86.18-1.25.13-.39.2-.72.01-.92l.05-.54c-.24.66-.16-.16-.31.1.06-.28.34-.65.26-.31l-.04.04c.17.18.35-.8.51-.72.48-1.28,1.24-2.4,1.96-3.46l-.23.03.25-.37c.11-.07.2-.05.02.21.17-.09.23-.49.2-.52.42-.48.04.32.15.17l.14-.22-.05.04c.06-.22,0-.28.24-.59.18-.17.17-.03.23-.11.01,0,.03-.01.09-.11l.35-.44-.25.09c.09-.25.33-.42.04-.31.43-.15,1.41-1.6,1.65-1.71.14-.33.43-.59.68-1.02-.09.09-.25.07-.05-.27.26.29.43-.63.66-.97-.1.15-.06-.16-.1-.45-.03-.29-.12-.53-.19-.28-.04-.35.12-.04.14-.33-.17-.41-.35-.85-.65-1.27-.28-.38-.61-.76-1.02-1.05-.04.03.05.18-.16.1-.09-.16-.19-.32-.3-.48-.18-.09-.28.11-.51-.2.03.06.06.14-.06.09-.78-.57-1.74-.86-2.71-.99-.99-.14-1.99-.06-3.02.15.29-.02.12.04-.07.14.13-.04.04.1.09.14-.27.06-.55.15-.82.26-.05.2-.72.57-.66.76.05-.07.11-.14.17-.2-.12.35.63,0,.73.24.17-.39.88-.21,1.29-.65.13,0-.07.11,0,.14.1-.14.26-.21.58-.22l-.03.03c.86-.13,1.26-.02,2.2.26l-.04-.14c.2.07.24.12.33.18.29-.1-.58-.17-.31-.31.11.16.48.24.83.39.35.13.67.3.69.47.29.15-.02-.17.27-.01l.04.11.12-.04c.18.12.22.26.19.32-.04-.04-.13-.06-.18-.09.19.21.66.41.71.49l-.22-.23c.38.23.75.57,1.06.94.28.32.46.71.59,1.08l.04-.07c.15.6,0,.5-.1,1.14v-.03c0,.14-.03.33-.13.49.02-.18-.27.21-.22-.02-.28.59-.1.29-.27.81l-.15.03c-.05.19-.03.22-.27.54.15-.3-.27.1-.11-.25-.7.5-.63,1.07-1.1,1.18-.04.46.56-.47.47-.27.18-.09-.05.36-.23.55-.17.2-.53.15-.93.69.04-.05.03-.07.07-.12-.21.16-.22.44-.48.64.03.23-.24.32-.1.48l.31-.53c-.15.32-.16.7-.55,1.12,0-.06.04-.23.08-.35-.14.11-.14.29-.28.41-.15-.15.36-.65.46-1.04-.17.1-.28.66-.35.39.07.37-.39.54-.46,1.03l-.09-.09c-.02.07-.06.22-.12.34v-.29c-.09.38-.46.56-.58.91.36-.65.21-.08.44-.31-.31.87-.54.3-.95,1.26.05-.13.29-.44.25-.22-.11.17-.26.38-.37.46-.26.64.15-.05.1.25-.22.16-.07.34-.14.63l-.11-.04c-.35.7.13.27-.16.91l-.07-.34-.07.37-.11-.12c-.02.42-.08.53-.23.9.1-.07.2.1.14.44-.12.22-.09-.15-.17.34-.05-.12-.12-.26.03-.46-.03-.03-.05-.13-.09-.16-.13.24-.15.64-.18.82.02-.07.04-.15.07-.19,0,.25.02.49.07.74-.05.11-.08.02-.11-.08,0,.15.05.26.04.47-.09-.06-.2-.05-.22-.37l.06.71c-.06.04-.1.37-.15.27-.01.41.21.97.29,1.49.02.02.06.07.09.18.06.49.15.95.51,1.44,0,.13-.02.26-.01.39.29.37-.05-.48.42.12.34.41-.02.25.05.43.11.09.27.2.42.35.19.17.41.36.6.57-.17-.09-.28-.18-.42-.32ZM100.27,66.98c-.1.02-.31.08-.38,0,.12-.13.21-.06.38,0ZM108.17,66.82c-.07.04-.19.02-.32-.03.09,0,.2,0,.32.03ZM129.08,72.19h-.01c-.16-.17-.1-.11.01,0ZM129.44,72.5s.06,0,.05-.03c-.04,0-.13-.05-.23-.12,0,.04.05.1.18.15ZM97.84,52.31l-.08.05c.09-.18.08-.12.08-.05Z"/>
      <path class="cls-20" d="M107.28,66.97s-.04-.04-.04-.07c-.04.02-.04.04.04.07Z"/>
      <path class="cls-20" d="M93.26,62.52v-.02s-.02-.01-.03-.01l.03.03Z"/>
      <path class="cls-20" d="M122.77,69.64c-.08-.06-.11-.1-.14-.13-.02.02.01.07.14.13Z"/>
      <path class="cls-20" d="M131.58,73.78l-.26-.15c.12.08.15.13.2.19.01-.03-.01-.09.07-.04Z"/>
      <path class="cls-20" d="M133.19,75.95s.07.06.12.07l.03-.05c-.15-.11-.28-.16-.14-.02Z"/>
      <path class="cls-20" d="M131.56,74.27c-.04.1.13.18.31.29l-.03-.02c.13-.08-.07-.17-.28-.27Z"/>
      <path class="cls-20" d="M131.91,74.59c.05.04.11.07.16.12.05-.03-.06-.06-.16-.12Z"/>
      <path class="cls-20" d="M129.97,72.79c.07.08.13-.07.15,0,.16-.04-.63-.26-.15,0Z"/>
      <polygon class="cls-20" points="131.5 74.64 131.51 74.49 131.36 74.5 131.5 74.64"/>
      <path class="cls-20" d="M130.22,73.59l.25.22s.05,0,.1.02c-.16-.12-.33-.28-.35-.24Z"/>
      <path class="cls-20" d="M130.57,73.84c.09.06.17.12.23.14-.05-.03-.15-.1-.23-.14Z"/>
      <polygon class="cls-20" points="131.11 74.4 131.05 74.32 130.86 74.17 131.11 74.4"/>
      <path class="cls-20" d="M127.27,71.54l-.33-.16c-.05.02.02.09.14.15.09.02.21.08.19.01Z"/>
      <path class="cls-20" d="M128,72.44c-.07-.08-.06-.1-.08-.17l-.1.12.18.05Z"/>
      <path class="cls-20" d="M127.1,71.88c-.05.02-.51-.17-.12.06.06-.02.38.15.12-.06Z"/>
      <polygon class="cls-20" points="122.45 69.01 122.54 69.05 122.64 68.81 122.45 69.01"/>
      <path class="cls-20" d="M117.82,67.99c.38.16.13-.13.47.04.11-.03-.28-.14-.18-.16-.26,0-.38-.07-.3.12Z"/>
      <path class="cls-20" d="M118.11,67.86s.08,0,.13,0c-.07,0-.11,0-.13,0Z"/>
      <polygon class="cls-20" points="91.11 43.7 90.83 43.88 91.04 43.8 91.11 43.7"/>
      <path class="cls-20" d="M90.81,44.26l-.17-.05-.02.26c.05-.08.12-.19.19-.21Z"/>
      <path class="cls-20" d="M101.04,67.35l.02-.04s-.11-.05-.24-.06l.22.1Z"/>
      <polygon class="cls-20" points="97.18 66.83 97.24 66.85 97.15 66.68 97.18 66.83"/>
      <path class="cls-20" d="M94,64.94c.08.13.2.25.28.38-.2-.25-.14-.51-.28-.38Z"/>
    </g>
    <g>
      <polygon class="cls-10" points="289.77 94.31 296.22 107.64 308.6 97.77 292.69 85.04 289.77 94.31"/>
      <polygon class="cls-5" points="276.09 76.48 280.98 83.09 286.72 76.44 276.73 71.12 276.09 76.48"/>
      <rect class="cls-4" x="347.37" y="84.19" width="15.83" height="169.53" transform="translate(-27.8 258.52) rotate(-38.59)"/>
      <line class="cls-14" x1="298.88" y1="104.69" x2="405.27" y2="237.52"/>
    </g>
    <polygon class="cls-6" points="272.36 61.6 267.66 60.17 270.27 64.34 272.36 61.6"/>
    <polygon class="cls-6" points="270.16 70.53 270.05 68.12 268.55 70.01 270.16 70.53"/>
    <polygon class="cls-6" points="272.24 66.25 270.36 66.21 271.44 67.75 272.24 66.25"/>
    <polygon class="cls-6" points="281 63.74 279.22 63.51 280.41 64.86 281 63.74"/>
    <line class="cls-14" x1="128.16" y1="104.27" x2="66.35" y2="261.82"/>
  </g>
</svg>