<?xml version="1.0" encoding="UTF-8"?>
<svg id="Ebene_2" xmlns="http://www.w3.org/2000/svg" xmlns:xlink="http://www.w3.org/1999/xlink" viewBox="0 0 189.28 696.52">
  <defs>
    <style>
      .cls-1 {
        fill: #bbcc3b;
      }

      .cls-2 {
        fill: #d6cbb8;
      }

      .cls-3 {
        fill: #4aa855;
      }

      .cls-4 {
        filter: url(#drop-shadow-1);
      }

      .cls-5 {
        fill: #0c5e73;
      }

      .cls-6 {
        fill: #4f4b44;
      }

      .cls-7 {
        fill: #318094;
      }

      .cls-8 {
        fill: #dadada;
      }
    </style>
    <filter id="drop-shadow-1" filterUnits="userSpaceOnUse">
      <feOffset dx="1.5" dy="-1.5"/>
      <feGaussianBlur result="blur" stdDeviation="4.5"/>
      <feFlood flood-color="#000" flood-opacity=".25"/>
      <feComposite in2="blur" operator="in"/>
      <feComposite in="SourceGraphic"/>
    </filter>
  </defs>
  <g id="objekte">
    <g id="objekte-2" data-name="objekte">
      <g id="postcards" class="cls-4">
        <g>
          <rect class="cls-2" width="189.28" height="134.06"/>
          <circle class="cls-6" cx="16" cy="17.83" r="5.18"/>
          <circle class="cls-6" cx="175.09" cy="17.83" r="5.18"/>
          <polygon class="cls-6" points="0 73.49 21.18 47.35 51.6 82.05 64 67.03 70.31 82.05 89.68 98.73 99.15 77.1 111.32 60.87 128.44 56.82 137.91 69.89 144.67 80.25 153.23 57.27 160.44 69.89 169.9 67.03 180.27 73.04 189.28 75.29 189.28 134.06 0 134.06 0 73.49"/>
        </g>
        <g>
          <rect class="cls-7" x="37.86" y="267.06" width="151.43" height="113.22"/>
          <circle class="cls-6" cx="51.6" cy="280.29" r="5.18"/>
          <circle class="cls-6" cx="175.09" cy="280.29" r="5.18"/>
          <path class="cls-5" d="M37.86,333.08s13.07-26.14,36.96-22.53c23.89,3.61,17.58,40.11,41.01,36.5,23.44-3.61,37.41-29.74,54.08-29.29,16.67.45,19.38,13.97,19.38,13.97v48.56H37.86v-47.2Z"/>
          <circle class="cls-5" cx="115.49" cy="312.01" r="9.58"/>
          <circle class="cls-5" cx="132.13" cy="325.73" r="4.14"/>
          <circle class="cls-5" cx="102.93" cy="325.73" r="4.14"/>
          <circle class="cls-5" cx="94.64" cy="312.01" r="4.14"/>
        </g>
        <g>
          <rect class="cls-1" y="562.33" width="189.28" height="134.18"/>
          <circle class="cls-6" cx="19.15" cy="581.93" r="5.18"/>
          <circle class="cls-6" cx="169.9" cy="581.93" r="5.18"/>
          <path class="cls-3" d="M21.81,685.31s-20.06-36.96,27.72-55.88c0,0,32,33.35-27.72,55.88Z"/>
          <path class="cls-3" d="M98.68,685.61s-40.82,10.08-47.08-40.92c0,0,40.34-22.55,47.08,40.92Z"/>
          <path class="cls-3" d="M159.82,651.43s-40.82,10.08-47.08-40.92c0,0,40.34-22.55,47.08,40.92Z"/>
          <path class="cls-8" d="M73.48,630.71c-1.66-.33-3.24-.55-4.78-.71,1.36-.74,2.75-1.54,4.15-2.48,7.9-5.26,12.98-11.52,11.34-13.98-1.64-2.46-9.37-.18-17.27,5.08-1.41.94-2.68,1.91-3.89,2.88.44-1.48.85-3.03,1.18-4.69,1.86-9.31,1.03-17.33-1.87-17.91-2.9-.58-6.75,6.5-8.62,15.81-.33,1.66-.55,3.24-.71,4.78-.74-1.36-1.54-2.75-2.48-4.15-5.26-7.9-11.52-12.98-13.98-11.34-2.46,1.64-.18,9.37,5.08,17.27.94,1.41,1.91,2.68,2.88,3.89-1.48-.44-3.03-.85-4.69-1.18-9.31-1.86-17.33-1.03-17.91,1.87-.58,2.9,6.5,6.75,15.81,8.62,1.66.33,3.24.55,4.78.71-1.36.74-2.75,1.54-4.15,2.48-7.9,5.26-12.98,11.52-11.34,13.98,1.64,2.46,9.37.18,17.27-5.08,1.4-.94,2.68-1.9,3.88-2.88-.44,1.48-.85,3.03-1.18,4.68-1.86,9.31-1.03,17.33,1.87,17.91,2.9.58,6.75-6.5,8.62-15.81.33-1.66.55-3.25.71-4.79.74,1.36,1.54,2.75,2.48,4.16,5.26,7.9,11.52,12.98,13.98,11.34,2.46-1.64.18-9.37-5.08-17.27-.94-1.4-1.9-2.68-2.88-3.88,1.48.44,3.03.85,4.68,1.18,9.31,1.86,17.33,1.03,17.91-1.87.58-2.9-6.5-6.75-15.81-8.62Z"/>
          <path class="cls-8" d="M130.5,605.31c-1.15-.23-2.25-.38-3.32-.49.95-.51,1.91-1.07,2.88-1.72,5.49-3.66,9.02-8.01,7.88-9.72-1.14-1.71-6.51-.13-12,3.53-.98.65-1.86,1.32-2.7,2,.31-1.03.59-2.11.82-3.26,1.3-6.47.71-12.04-1.3-12.45-2.01-.4-4.7,4.52-5.99,10.99-.23,1.15-.38,2.25-.49,3.32-.51-.95-1.07-1.91-1.72-2.88-3.66-5.49-8.01-9.02-9.72-7.88-1.71,1.14-.13,6.51,3.53,12,.65.98,1.33,1.86,2,2.7-1.03-.31-2.11-.59-3.26-.82-6.47-1.3-12.04-.71-12.45,1.3-.4,2.01,4.52,4.7,10.99,5.99,1.15.23,2.25.38,3.32.5-.95.51-1.91,1.07-2.88,1.72-5.49,3.66-9.02,8.01-7.88,9.72,1.14,1.71,6.51.13,12-3.53.98-.65,1.86-1.32,2.7-2-.31,1.03-.59,2.11-.82,3.26-1.3,6.47-.71,12.04,1.3,12.45,2.01.4,4.7-4.52,5.99-10.99.23-1.15.38-2.26.5-3.33.51.95,1.07,1.91,1.72,2.89,3.66,5.49,8.01,9.02,9.72,7.88,1.71-1.14.13-6.51-3.53-12-.65-.98-1.32-1.86-2-2.7,1.03.31,2.11.59,3.26.82,6.47,1.3,12.04.71,12.45-1.3.4-2.01-4.52-4.7-10.99-5.99Z"/>
        </g>
      </g>
    </g>
  </g>
</svg>