<?xml version="1.0" encoding="UTF-8"?>
<svg id="Ebene_2" xmlns="http://www.w3.org/2000/svg" xmlns:xlink="http://www.w3.org/1999/xlink" viewBox="0 0 351.03 158.21">
  <defs>
    <style>
      .cls-1 {
        fill: #fff;
        font-family: AlbertSansRoman-Bold, 'Albert Sans';
        font-size: 10.93px;
        font-variation-settings: 'wght' 700;
        font-weight: 700;
      }

      .cls-2 {
        fill: none;
      }

      .cls-3 {
        fill: #303030;
      }

      .cls-4 {
        filter: url(#drop-shadow-1);
      }

      .cls-5 {
        fill: #3b3b3b;
      }

      .cls-6 {
        fill: #636363;
      }

      .cls-7 {
        fill: #242424;
      }

      .cls-8 {
        clip-path: url(#clippath);
      }

      .cls-9 {
        fill: #b5b5b5;
      }
    </style>
    <filter id="drop-shadow-1" filterUnits="userSpaceOnUse">
      <feOffset dx="15.01" dy="0"/>
      <feGaussianBlur result="blur" stdDeviation="15.01"/>
      <feFlood flood-color="#a87e5d" flood-opacity="1"/>
      <feComposite in2="blur" operator="in"/>
      <feComposite in="SourceGraphic"/>
    </filter>
    <clipPath id="clippath">
      <rect class="cls-2" x="162.92" y="129.17" width="29.01" height="12.37"/>
    </clipPath>
  </defs>
  <g id="objekte">
    <g id="objekte-2" data-name="objekte">
      <g id="Stereo" class="cls-4">
        <polygon class="cls-7" points="84.9 77.25 102.76 80.06 102.76 156.21 84.9 150.91 84.9 77.25"/>
        <polygon class="cls-7" points="0 153.3 11.89 158.21 11.89 .19 0 0 0 153.3"/>
        <polygon class="cls-7" points="239.44 79.17 260.67 81.81 260.67 .19 239.44 0 239.44 79.17"/>
        <g>
          <rect class="cls-6" x="104.75" y="82.93" width="147.23" height="71.29"/>
          <path class="cls-5" d="M249.99,84.91v67.32H106.73v-67.32h143.26M253.96,80.94H102.76v75.26h151.2v-75.26h0Z"/>
        </g>
        <rect x="133.41" y="85" width="90.36" height="29.52"/>
        <circle class="cls-9" cx="207.43" cy="135.36" r="10.48"/>
        <g class="cls-8">
          <g>
            <rect class="cls-9" x="162.92" y="129.17" width="6.08" height="3.15" rx=".3" ry=".3"/>
            <rect class="cls-9" x="173.51" y="129.17" width="6.08" height="3.15" rx=".3" ry=".3"/>
            <rect class="cls-9" x="184.1" y="129.17" width="6.08" height="3.15" rx=".3" ry=".3"/>
            <rect class="cls-9" x="162.92" y="136.38" width="6.08" height="3.15" rx=".3" ry=".3"/>
            <rect class="cls-9" x="173.51" y="136.38" width="6.08" height="3.15" rx=".3" ry=".3"/>
            <rect class="cls-9" x="184.1" y="136.38" width="6.08" height="3.15" rx=".3" ry=".3"/>
          </g>
        </g>
        <polygon class="cls-3" points="102.25 6.5 95.49 .19 11.89 .19 4.91 6.5 4.91 152.52 11.89 158.15 95.49 158.15 102.25 152.52 102.25 6.5"/>
        <polygon class="cls-3" points="351.03 6.5 344.27 .19 260.67 .19 253.68 6.5 253.68 152.52 260.67 158.15 344.27 158.15 351.03 152.52 351.03 6.5"/>
        <polygon class="cls-3" points="89.52 79.17 239.44 79.17 253.68 80.94 100.64 80.94 89.52 79.17"/>
        <text class="cls-1" transform="translate(160.45 102.63)"><tspan x="0" y="0">00 1:00:44</tspan></text>
      </g>
    </g>
  </g>
</svg>