<?xml version="1.0" encoding="UTF-8"?>
<svg id="Ebene_2" xmlns="http://www.w3.org/2000/svg" xmlns:xlink="http://www.w3.org/1999/xlink" viewBox="0 0 253.44 111.2">
  <defs>
    <style>
      .cls-1 {
        fill: #de0000;
      }

      .cls-2 {
        fill: url(#Unbenannter_Verlauf_813);
      }

      .cls-3 {
        filter: url(#drop-shadow-1);
      }

      .cls-4 {
        fill: #e8e8e8;
      }

      .cls-4, .cls-5 {
        font-family: RemoraSansW5-Bold, 'Remora Sans W5';
        font-size: 22.34px;
        font-weight: 700;
      }

      .cls-6 {
        fill: url(#Unbenannter_Verlauf_792);
      }

      .cls-7 {
        fill: #3b9135;
      }

      .cls-5 {
        fill: #1f234a;
      }

      .cls-8 {
        fill: url(#Unbenannter_Verlauf_813-2);
      }

      .cls-9 {
        fill: url(#Unbenannter_Verlauf_813-3);
      }

      .cls-10 {
        fill: #e6e6e6;
      }

      .cls-11 {
        opacity: .22;
      }
    </style>
    <filter id="drop-shadow-1" filterUnits="userSpaceOnUse">
      <feOffset dx="15.01" dy="15.01"/>
      <feGaussianBlur result="blur" stdDeviation="15.01"/>
      <feFlood flood-color="#a87e5d" flood-opacity=".5"/>
      <feComposite in2="blur" operator="in"/>
      <feComposite in="SourceGraphic"/>
    </filter>
    <linearGradient id="Unbenannter_Verlauf_792" data-name="Unbenannter Verlauf 792" x1="195.64" y1="43.01" x2="253.44" y2="43.01" gradientUnits="userSpaceOnUse">
      <stop offset="0" stop-color="#4f4f4f"/>
      <stop offset=".07" stop-color="#5f5f5f"/>
      <stop offset=".21" stop-color="#7d7d7d"/>
      <stop offset=".34" stop-color="#8f8f8f"/>
      <stop offset=".43" stop-color="#969696"/>
      <stop offset=".48" stop-color="#8e8e8e"/>
      <stop offset=".55" stop-color="#7b7b7b"/>
      <stop offset=".64" stop-color="#5b5b5b"/>
      <stop offset=".67" stop-color="#4f4f4f"/>
      <stop offset="1" stop-color="#8c8c8c"/>
    </linearGradient>
    <linearGradient id="Unbenannter_Verlauf_813" data-name="Unbenannter Verlauf 813" x1="0" y1="67.09" x2="51.41" y2="67.09" gradientUnits="userSpaceOnUse">
      <stop offset="0" stop-color="#000"/>
      <stop offset=".36" stop-color="#000" stop-opacity="0"/>
      <stop offset=".82" stop-color="#000"/>
      <stop offset="1" stop-color="#000" stop-opacity=".29"/>
    </linearGradient>
    <linearGradient id="Unbenannter_Verlauf_813-2" data-name="Unbenannter Verlauf 813" x1="69.95" y1="58.48" x2="114.01" y2="58.48" xlink:href="#Unbenannter_Verlauf_813"/>
    <linearGradient id="Unbenannter_Verlauf_813-3" data-name="Unbenannter Verlauf 813" x1="131.99" y1="46.98" x2="187.91" y2="46.98" xlink:href="#Unbenannter_Verlauf_813"/>
  </defs>
  <g id="background">
    <g id="Regal" class="cls-3">
      <g id="soda">
        <path class="cls-1" d="M38.02,22.98c-12.64,0-28.37,1.26-35.05,2.79-1,.23-2.97.68-2.97.68v84.75l51.41-5.75V25.12s-2.53-2.14-13.39-2.14Z"/>
        <path class="cls-1" d="M103.21,18.25c-10.56,0-24.08,1.08-30.13,2.39-4.36.95-2.9,2.34-2.9,2.34v75.71l43.83-3.1V20.62s-.25-2.37-10.8-2.37Z"/>
        <path class="cls-7" d="M174.93,0c-13.2,0-30.56,1.47-38.65,3.26-5.69,1.26-4.08,3.08-4.08,3.08v87.63l55.72-8.45V3.21s.22-3.21-12.99-3.21Z"/>
        <path class="cls-10" d="M174.93,0c-7.39,0-16.04.47-23.68,1.19v89.89l25.69-3.9V.03c-.64-.02-1.3-.03-2.01-.03Z"/>
        <path class="cls-6" d="M251.94,6.34s.64-3.13-12.4-3.13-30.62,1.43-39.14,3.17c-6.24,1.28-4.54,3.08-4.54,3.08v73.35l57.59-6.76-1.5-69.71Z"/>
        <text class="cls-5" transform="translate(156.74 8.51) rotate(90)"><tspan x="0" y="0">SODA</tspan></text>
        <g>
          <text class="cls-4" transform="translate(86.6 22.99) rotate(90)"><tspan x="0" y="0">SODA</tspan></text>
          <text class="cls-4" transform="translate(10.44 30.18) rotate(90)"><tspan x="0" y="0">SODA</tspan></text>
          <text class="cls-5" transform="translate(216.98 10.49) rotate(90)"><tspan x="0" y="0">SODA</tspan></text>
        </g>
        <g class="cls-11">
          <path class="cls-2" d="M38.02,22.98c-12.64,0-28.37,1.26-35.05,2.79-1,.23-2.97.68-2.97.68v84.75l51.41-5.75V25.12s-2.53-2.14-13.39-2.14Z"/>
          <path class="cls-8" d="M103.21,18.25c-10.56,0-24.08,1.08-30.13,2.39-4.36.95-2.9,2.34-2.9,2.34v75.71l43.83-3.1V20.62s-.25-2.37-10.8-2.37Z"/>
          <path class="cls-9" d="M174.93,0c-13.2,0-30.56,1.47-38.65,3.26-5.69,1.26-4.08,3.08-4.08,3.08v87.63l55.72-8.45V3.21s.22-3.21-12.99-3.21Z"/>
        </g>
      </g>
    </g>
  </g>
</svg>