<?xml version="1.0" encoding="UTF-8"?>
<svg id="Ebene_2" data-name="Ebene 2" xmlns="http://www.w3.org/2000/svg" viewBox="0 0 153.5 153.5">
  <defs>
    <style>
      .cls-1 {
        fill: #fff;
      }

      .cls-1, .cls-2 {
        stroke-width: 0px;
      }

      .cls-2 {
        fill: #4e7eb3;
      }
    </style>
  </defs>
  <g id="Memory">
    <g>
      <g>
        <rect class="cls-1" x="1" y="1" width="151.5" height="151.5" rx="5.37" ry="5.37"/>
        <path class="cls-2" d="m147.13,2c2.41,0,4.37,1.96,4.37,4.37v140.76c0,2.41-1.96,4.37-4.37,4.37H6.37c-2.41,0-4.37-1.96-4.37-4.37V6.37c0-2.41,1.96-4.37,4.37-4.37h140.76m0-2H6.37C2.85,0,0,2.85,0,6.37v140.76c0,3.52,2.85,6.37,6.37,6.37h140.76c3.52,0,6.37-2.85,6.37-6.37V6.37c0-3.52-2.85-6.37-6.37-6.37h0Z"/>
      </g>
      <g>
        <path class="cls-2" d="m106.47,75.19c2.39-.15,4.25-.36,4.25-1.56,0-1.28-2.2-1.6-3.78-1.6-2.14.02-3.7.66-4.83,1.54l-1.3-1.62c1.37-1,3.61-1.86,6.01-1.86,3.93,0,6.28,1.41,6.28,3.7,0,2.5-3.04,3.25-6.22,3.48-2.76.21-4.28.58-4.28,1.75s1.67,1.73,3.83,1.73c2.5,0,4.4-.77,5.77-1.95l1.35,1.47c-1.69,1.48-4.19,2.42-7.05,2.42-4.13,0-6.26-1.71-6.26-3.89,0-2.37,2.65-3.36,6.24-3.61Z"/>
        <path class="cls-2" d="m86.87,70.53v7.2c1,1.92,2.69,2.87,4.7,2.87,2.33,0,3.51-1.24,3.51-3.55v-6.52h2.48v6.69c0,3.16-1.77,5.45-5.34,5.45-2.39,0-4.32-1.03-5.34-2.69v2.27h-2.5v-11.71h2.5Z"/>
        <path class="cls-2" d="m67.12,70.53h2.5v2.09c1.09-1.58,3.01-2.52,5.41-2.52,3.87,0,6.33,2.44,6.33,6.22s-2.46,6.18-6.33,6.18c-2.22,0-4.32-.94-5.41-2.5v1.09c0,2.54,1.73,3.78,4.92,3.78,1.99,0,3.61-.56,4.72-1.28l.9,1.86c-1.33.9-3.78,1.5-5.88,1.5-3.7,0-7.16-1.73-7.16-6.22v-10.2Zm7.25,9.94c2.91,0,4.53-1.52,4.53-4.15s-1.62-4.17-4.53-4.17c-1.97,0-3.59.71-4.75,2.52v3.27c1.15,1.82,2.78,2.52,4.75,2.52Z"/>
        <path class="cls-2" d="m57.48,70.1c2.12,0,4.36.58,5.82,1.45l-.9,1.69c-1.35-.79-2.71-1.18-4.45-1.18-3.01,0-4.55,1.13-4.55,3.66v.85c.92-1.13,2.71-2.09,5.11-2.09,2.52,0,5.88,1.03,5.88,4.08s-3.36,4.1-5.88,4.1-4.19-.96-5.11-2.09v.02c0,.56-.15,1.13-.45,1.65h-2.59c.38-.68.53-1.39.53-2.27v-4.25c0-3.68,2.5-5.62,6.58-5.62Zm-4.12,8.66c.94,1.6,2.93,2.12,4.68,2.12,1.56,0,3.89-.41,3.89-2.31s-2.33-2.29-3.89-2.29c-1.75,0-3.74.49-4.68,2.12v.36Z"/>
        <path class="cls-2" d="m44.67,82.24v-6.48c-.79-2.2-2.93-3.29-5.54-3.29v-2.18c2.42,0,4.6,1.03,5.54,2.91v-2.67h2.5v11.71h-2.5Z"/>
      </g>
    </g>
  </g>
</svg>