<?xml version="1.0" encoding="UTF-8"?>
<svg xmlns="http://www.w3.org/2000/svg" viewBox="0 0 1280 1024">
  <defs>
    <style>
      .cls-1 {
        fill: #3497cc;
      }

      .cls-1, .cls-2, .cls-3, .cls-4, .cls-5, .cls-6, .cls-7, .cls-8, .cls-9, .cls-10, .cls-11, .cls-12, .cls-13, .cls-14, .cls-15, .cls-16, .cls-17, .cls-18, .cls-19, .cls-20, .cls-21, .cls-22, .cls-23, .cls-24, .cls-25, .cls-26, .cls-27, .cls-28, .cls-29, .cls-30, .cls-31, .cls-32, .cls-33, .cls-34, .cls-35, .cls-36, .cls-37, .cls-38, .cls-39, .cls-40, .cls-41, .cls-42, .cls-43, .cls-44, .cls-45, .cls-46, .cls-47, .cls-48, .cls-49 {
        stroke-width: 0px;
      }

      .cls-2 {
        fill: #8a5046;
      }

      .cls-3 {
        fill: #7d4940;
      }

      .cls-4 {
        fill: #8c5f61;
      }

      .cls-5 {
        fill: #f9ba55;
      }

      .cls-6 {
        fill: #f4d8c7;
      }

      .cls-7 {
        fill: #f8bb49;
      }

      .cls-50, .cls-51 {
        opacity: .55;
      }

      .cls-8 {
        fill: #fc584e;
      }

      .cls-9 {
        fill: #00beca;
      }

      .cls-52 {
        font-family: BradleyHandITCTT-Bold, 'BradleyHandITCTT Bold';
        font-size: 11.15px;
        font-weight: 700;
      }

      .cls-10 {
        fill: #2fb0c0;
      }

      .cls-53, .cls-54, .cls-55, .cls-56, .cls-57, .cls-58, .cls-51, .cls-59, .cls-60, .cls-61, .cls-62 {
        stroke-miterlimit: 10;
      }

      .cls-53, .cls-54, .cls-55, .cls-51, .cls-59, .cls-60, .cls-61 {
        fill: none;
      }

      .cls-53, .cls-54, .cls-60 {
        stroke-width: 3.72px;
      }

      .cls-53, .cls-59 {
        stroke: #ffc237;
      }

      .cls-54 {
        stroke: #f1e0ce;
      }

      .cls-55 {
        stroke: #bc8574;
      }

      .cls-55, .cls-51 {
        stroke-width: 2.48px;
      }

      .cls-11 {
        fill: #d1929c;
      }

      .cls-12 {
        fill: #9c5c51;
      }

      .cls-63 {
        letter-spacing: -.04em;
      }

      .cls-13 {
        fill: #9ad699;
      }

      .cls-14 {
        fill: #ffbd37;
      }

      .cls-15 {
        fill: #a3dea2;
      }

      .cls-16 {
        fill: #e2356b;
      }

      .cls-17 {
        fill: #6b3e37;
      }

      .cls-18 {
        fill: #f9e43f;
      }

      .cls-19 {
        fill: #8dd2d9;
      }

      .cls-56 {
        fill: #e16bb3;
        stroke: #fff;
      }

      .cls-56, .cls-57, .cls-58, .cls-59, .cls-61, .cls-62 {
        stroke-width: 1.24px;
      }

      .cls-57 {
        stroke: #dce05d;
      }

      .cls-57, .cls-39 {
        fill: #8adad8;
      }

      .cls-20 {
        fill: #009bd2;
      }

      .cls-21 {
        fill: #b88e84;
      }

      .cls-22 {
        fill: #ec7a96;
      }

      .cls-23 {
        fill: #9e705d;
        opacity: .81;
      }

      .cls-58 {
        fill: #7569cd;
        stroke: #00c8ac;
      }

      .cls-24 {
        fill: #ce85bf;
      }

      .cls-51 {
        stroke: #4f2828;
      }

      .cls-25 {
        fill: #c0856d;
      }

      .cls-26 {
        fill: #fff;
      }

      .cls-27 {
        fill: #ffc237;
      }

      .cls-28 {
        fill: #bd7db5;
      }

      .cls-29 {
        fill: #f9c2b6;
      }

      .cls-30 {
        fill: #ff6a4f;
      }

      .cls-59, .cls-61 {
        stroke-dasharray: 0 0 0 0 0 0 1.24 1.24 1.24 1.24 1.24 1.24;
      }

      .cls-31, .cls-62 {
        fill: #fb576b;
      }

      .cls-32 {
        fill: #c4978d;
      }

      .cls-33 {
        fill: #a87b93;
      }

      .cls-34 {
        fill: #548e4c;
      }

      .cls-35 {
        fill: #72a372;
      }

      .cls-36 {
        fill: #f8779e;
      }

      .cls-37 {
        fill: #d2929c;
      }

      .cls-38 {
        fill: #824d44;
      }

      .cls-40 {
        fill: #804941;
      }

      .cls-64 {
        letter-spacing: -.06em;
      }

      .cls-41 {
        fill: #27a04c;
      }

      .cls-42 {
        fill: #ff8f76;
      }

      .cls-43 {
        fill: #9a6a6c;
      }

      .cls-60 {
        stroke: #f8779e;
      }

      .cls-65 {
        letter-spacing: -.02em;
      }

      .cls-61 {
        stroke: #ec69b0;
      }

      .cls-44 {
        fill: #fff7f2;
      }

      .cls-45 {
        fill: #f8e064;
      }

      .cls-46 {
        fill: #78453d;
      }

      .cls-47 {
        fill: #f583ae;
      }

      .cls-62 {
        stroke: #659fdd;
      }

      .cls-48 {
        fill: #6cd685;
      }

      .cls-66 {
        letter-spacing: 0em;
      }

      .cls-49 {
        fill: #f5aaf9;
      }
    </style>
  </defs>
  <g id="Ebene_1" data-name="Ebene 1">
    <polygon class="cls-2" points="215.87 766.27 215.87 484.58 950.13 522.84 943.4 818.92 215.87 766.27"/>
    <polygon class="cls-38" points="938.61 818.92 945.34 519.81 1097.68 496.07 1091.27 781.05 938.61 818.92"/>
    <polygon class="cls-12" points="201.86 463.1 350.65 435.05 1119.75 470.77 965.04 501.24 201.86 463.1"/>
    <polygon class="cls-17" points="1119.75 493.58 1119.75 470.77 965.04 501.24 963.67 528.46 1119.75 493.58"/>
    <rect class="cls-17" x="570.62" y="115.51" width="27.26" height="761.13" transform="translate(59.52 1054.73) rotate(-87.13)"/>
    <line class="cls-51" x1="963.67" y1="501.24" x2="963.67" y2="528.46"/>
  </g>
  <g id="Ebene_2" data-name="Ebene 2">
    <g>
      <g>
        <path class="cls-25" d="m338.48,389.81c10.45-12.15,14.34-48.76,6.12-62.52-8.22-13.76-28.63-26.95-42.45-18.83-4.7,2.76-44.16-16.24-32.24-29.89-9.61,13.29,28.08,24.02,33.6,23.46-5.7-2.95-6.39-25.26,1.36-33.36,7.75-8.11,16.07-16.81,17.84-27.89,1.77-11.08-6.93-24.36-17.99-22.49,8.51-4.89,17.51,2.59,21.57,11.53,4.05,8.94.71,16.4-4.63,24.65,0,0-13.78,13.62-17.02,22.89-3.89,11.15,3.23,22.79,10.91,22.79,16.01,0,36.5,21.33,44.38,40.75,9.66-14.51,11.73-38.47,1.3-52.44-7.54-10.1-2.79-25.2,6.16-34.08,21.3-21.13,40.36-21.38,46.94-36.89-2.99,12.9-26.9,27.31-37.93,36.95,22.95,5.32,39.07-18.59,41.28-20.19-22.16,32.32-31.4,18.65-47.77,25.81-6.2,3.59-6.54,22.31-5.04,21.26,5.11-3.55,4.96-8.57,17.73-15.44,3.44-1.85-17.86,14.83-14.44,20.64,10.89,18.51-1.27,63.65-11.18,82.43,3.95-15.66,16.79-33.78,32.77-36.12,14.73-2.15,22.21-5.81,26.45-23.94,3.52-15.02-.01-10.42,8.01-23.61-5.02,14.96-.32,31.01-15.43,44.04-11.67,10.07-24.14,6.53-36.58,20.36-10.31,11.46-7.9,29.62,4.23,40.97-12.62.23-37.04.58-37.97-.86Z"/>
        <path class="cls-25" d="m307.85,267.11c-7.52,2.11-12.28-3.02-18.27-8.03-9.54-8-10.53-33.72-7.13-40.75-2.81,11.62,3.17,26.93,9.69,37.78,3.02-7.3-.5-7.02,1.06-14.63.65-3.2,2.84,18.34,5.31,20.48s7,3.42,10.25,3.06.47,1.71-.91,2.09Z"/>
        <path class="cls-25" d="m321.98,245.12c8.45-1.36,13.99-2.84,18.68-10.01s9.77-13.79,7.63-22.09c3.04,4.7-1.07,15-5.01,22.2,5.2-3.38,14.54-12.5,18.38-17.37-7.85,15.09-29.93,30.32-41.07,31.49-2.57.27,3.62-3.23,1.39-4.22Z"/>
        <path class="cls-25" d="m408.11,326.76c.89-3.34.68-2.88,1.55-7.19,1.99-9.83-1.27-16.91-10.16-20.68,11.31-1.4,13.03,11.44,13.86,20.94.32,3.62-6.65,8.15-5.26,6.93Z"/>
      </g>
      <path class="cls-23" d="m332.06,313.24c3.03,4.75,25.57,12.99,13.75,60.84-.74,2.99,10.83,3.15,11.05.08,3.6-50.51-27.37-64.95-24.8-60.92Z"/>
      <g>
        <path class="cls-15" d="m398.92,253.07c0,.69.64,5.37.34,9.54-.32,4.5,6.06,8,8.85,12.26-1-.69-2-1.38-3-2.06.45,1.25.91,2.5,1.36,3.75-2.6-3.79-6.3-7.28-7.84-11.95-1.05-3.17-.09-7.49-1.03-10.47-.49-1.55,1.31.73,1.31-1.08Z"/>
        <path class="cls-15" d="m396.86,253.07c0,.69-.64,5.37-.34,9.54.32,4.5,2.25,9.41-.54,13.67,1-.69.97-.91,1.97-1.59-.45,1.25.12,2.03-.33,3.28,2.6-3.79-2.01-8.68-.47-13.35,1.05-3.17.09-7.49,1.03-10.47.49-1.55-1.31.73-1.31-1.08Z"/>
        <path class="cls-48" d="m395.96,252.35c0,.83.18,1.97.17,2.81,1.05-.48,2.09-.96,3.14-1.44-.17-.91-.33-1.82-.5-2.73-1.14.34-2.34.84-2.82,1.36Z"/>
      </g>
      <g>
        <path class="cls-24" d="m352.18,231.06c-2.38,0-3.53,2.15-3.24,4.23s1.61,4.17,2.55,6.26,1.49,4.44.3,5.97c-2.55,3.29-2.73,8.1-.47,12.53-1.04-1.59-2.09-3.18-3.13-4.77,0,1.09,0,2.18,0,3.28-1.76-2.6-.91-5.4.34-7.59s2.9-4.34,2.58-7.06c-.19-1.65-1.1-3.33-1.95-4.97s-1.66-3.35-1.64-4.97,1.12-3.1,4.66-2.92Z"/>
        <path class="cls-24" d="m351.9,229.7c1.36,1.97,1.48,4.5.29,6.55s-3.62,3.54-6.3,3.86c-1.83.22-3.49,1.28-4.21,2.71s-.49,3.17.59,4.43c2.38,2.76,3.94,6.03,4.49,9.41.09-1.4.18-2.8.28-4.21.43,1.04.86,2.08,1.3,3.12-.38-3.26-1.82-6.43-4.13-9.07-1.43-1.63-.86-4.01.46-5.7s3.28-2.97,4.81-4.54,2.68-3.67,2.42-6.56Z"/>
        <path class="cls-28" d="m349.38,230.41c.37.51.78,1.07,1.15,1.58.79-.79,1.59-1.59,2.38-2.38-.47-.38-.93-.77-1.33-1.19-.73.7-1.51,1.35-2.2,1.98Z"/>
      </g>
      <g>
        <path class="cls-30" d="m276,295.75c-2.89,2.1-4.66,5.66-4.58,9.24s2,7.05,4.98,9.02c5.16,3.41,6.79,10.58,5.29,16.58-1.5,6-5.49,11.05-9.7,15.59,3.19-.79,6.05-2.87,7.78-5.66-1.18,2.65-2.36,5.3-3.55,7.95,2.52-3.43,5.09-6.86,6.83-10.75s2.58-8.31,1.49-12.42c-1.09-4.11-4.4-7.77-8.59-8.48-4.95-.83-8.95-5.57-8.95-10.59s4.01-9.75,8.98-10.48Z"/>
        <path class="cls-30" d="m278.01,296.62c-3.41,5.81-.86,14.28,5.19,17.24,4.32,2.11,6.34,7.22,6.86,12s-.05,9.67.91,14.39c.96,4.72,4.03,9.52,8.76,10.39-2.41-2.28-4.15-5.27-4.95-8.49,1.43,3.62,4.84,6.39,8.68,7.05-7.77-4.65-12.02-14.51-10.08-23.35.84-3.83-1.27-7.73-3.94-10.62s-5.94-5.21-8.27-8.37-3.55-7.63-3.17-10.25Z"/>
        <path class="cls-30" d="m275.84,292.44l-1.61,3.21c1.59,1.28,3.19,2.56,4.78,3.85.89-1.27,1.78-2.53,2.66-3.8-1.96-1.03-3.92-2.06-5.83-3.26Z"/>
      </g>
      <g>
        <path class="cls-10" d="m311.69,218.7c-1.64,1.52-2.04,4.2-.91,6.13,6.29,10.76,4.31,25.69-4.57,34.44,2.25-.87,4.22-2.42,5.6-4.39-1.12,1.85-2.25,3.71-3.37,5.56,4.62-3.97,7.75-9.64,8.63-15.67s-.48-12.36-3.76-17.49c-1.82-2.85-1.82-6.76-1.62-8.58Z"/>
        <path class="cls-10" d="m314.01,219.32c-.11,4.3-1.85,8.39-3.75,12.25s-3.99,7.71-4.88,11.92-.41,8.97,2.41,12.22c-.62-2.08-1.25-4.17-1.87-6.25.92,1.72,1.84,3.44,2.76,5.16-3.43-7.42-1.94-16.84,3.62-22.84,2.99-3.23,3.83-8.26,1.71-12.46Z"/>
        <path class="cls-1" d="m310.71,216.89l-.41,1.75c1.82.52,3.49,1.57,4.74,2.99.36-1.11,1.09-2.09,2.04-2.77-1.81-1.34-4.09-2.04-6.38-1.97Z"/>
      </g>
      <g>
        <path class="cls-7" d="m373.68,272.36l.56,2.43c1.27-1.39,2.55-2.79,3.82-4.18-.4-.54-.79-1.08-1.19-1.62-1.2,1.08-2.4,2.16-3.19,3.36Z"/>
        <path class="cls-7" d="m375.08,273.09c1.55,4.91.97,10.22.28,15.32-.69,5.1-1.49,10.33-.37,15.36s4.68,9.88,9.73,10.89c-1.81-1.75-3.61-3.5-5.42-5.26,2.19,1.12,4.38,2.25,6.57,3.37-5.03-1.13-8.44-6.1-9.46-11.16-1.02-5.06-.15-10.28.48-15.4s.98-10.5-1.82-13.13Z"/>
        <path class="cls-7" d="m377.13,270.66c3.28,11.13,2.62,23.38-1.84,34.09-1.61,3.87-1.4,8.46.58,12.16-.17-1.85-.33-3.7-.5-5.55.6,2.21,2.15,4.14,4.17,5.21-3.25-3.28-4.22-8.62-2.32-12.83,4.77-10.58,4.96-23.14-.09-33.07Z"/>
      </g>
      <g>
        <path class="cls-16" d="m402.28,329.98l1.31,3.55c1.86-.72,3.81-1.5,5.09-3.04s1.6-4.07.13-5.43c-2.15,1.7-4.3,3.39-6.53,4.92Z"/>
        <path class="cls-16" d="m404.79,332.05c5.37,4.61,6.08,13.68,1.49,19.07-3.87,4.54-3.17,11.69.13,16.66,3.29,4.97,8.6,8.19,13.88,10.97-2.02-2.01-4.03-4.01-6.05-6.02,1.67,2.16,4.56,3.3,7.26,2.87-6.04-.82-11.53-4.97-13.97-10.56-2.44-5.59-1.77-12.43,1.73-17.43,3.74-5.35,2.05-13.69-4.46-15.58Z"/>
        <path class="cls-16" d="m407.64,329.13c2.55,2.7,2.68,7.03,1.27,10.47s-4.07,6.19-6.71,8.8c-2.64,2.61-5.39,5.25-7.02,8.59-2.83,5.78-1.65,13.28,2.82,17.9-1.01-2.63-2.03-5.26-3.04-7.89,1.59,2.29,3.18,4.57,4.77,6.86-3.87-8.08-1.72-18.61,5.01-24.52,2.65-2.32,4.15-5.88,3.99-9.4s-2.01-6.92-1.08-10.8Z"/>
      </g>
      <path class="cls-43" d="m327.06,446.12l-14.14-63.61c-.99-4.44,2.41-8.65,6.97-8.62l87.42.62c4.55.03,7.89,4.29,6.84,8.72l-15.06,63.61c-.76,3.22-3.66,5.49-6.97,5.45l-58.23-.63c-3.29-.04-6.12-2.33-6.84-5.55Z"/>
      <rect class="cls-4" x="309.89" y="373.89" width="106.34" height="25.18" rx="12.59" ry="12.59"/>
    </g>
  </g>
  <g id="Ebene_3" data-name="Ebene 3">
    <g>
      <rect class="cls-33" x="563.81" y="292.71" width="6.08" height="30.74"/>
      <rect class="cls-33" x="608.87" y="291.13" width="6.08" height="30.74"/>
      <rect class="cls-33" x="744.42" y="400.54" width="4.96" height="16.73"/>
      <rect class="cls-33" x="744.42" y="394.52" width="4.96" height="16.73" transform="translate(1083.37 -376.18) rotate(85.02)"/>
      <rect class="cls-33" x="714.51" y="390.16" width="4.96" height="14.65" transform="translate(1235.69 -237.35) rotate(100.25)"/>
      <rect class="cls-33" x="726.16" y="398.84" width="4.96" height="11.77" transform="translate(1256.55 -240.28) rotate(100.25)"/>
      <rect class="cls-33" x="712.59" y="399.64" width="4.96" height="16.73" transform="translate(84 -120.72) rotate(10.25)"/>
      <rect class="cls-33" x="724.89" y="406.05" width="4.96" height="11.46" transform="translate(84.87 -122.85) rotate(10.25)"/>
      <polygon class="cls-37" points="532.99 470.19 532.99 315.7 649.02 315.7 649.02 474.83 532.99 470.19"/>
      <rect class="cls-11" x="537.79" y="273.49" width="91.28" height="28.15"/>
      <polygon class="cls-33" points="629.07 301.64 629.07 272.96 635.12 275.34 635.68 301.64 629.07 301.64"/>
      <path class="cls-11" d="m649.02,315.7c20.35,0,30.69-.23,39.5,8.76,8.81,8.98,8.51,22.34,10.55,34.41,2.04,12.07-.64,39.77,10.11,46.64,11.69,7.47,32.44.66,45.87,4.67,23.39,6.98,8.22,46.36,9.41,49.06-44.07,5.81-74.99,14.09-115.43,15.59.81-50.85-3.4-108.36,0-159.12Z"/>
      <rect class="cls-33" x="642.96" y="315.7" width="5.1" height="159.12"/>
    </g>
    <polygon class="cls-6" points="549.01 434.96 549.01 331.5 626.45 331.5 625.83 434.96 549.01 434.96"/>
    <path class="cls-42" d="m591.45,366.91c-6.5-4.19-13.01-8.39-19.51-12.58-3.85-2.48-5.38-8-3.35-12.11,2.03-4.11,7.34-6.25,11.65-4.71,4.31,1.55,7.05,6.58,5.57,11.24,1.07-3.97,2.99-7.86,6.21-10.42s7.91-3.52,11.55-1.6c3.64,1.91,5.46,7.05,3.19,10.47-4.85,7.29-10.38,14.12-15.31,19.71Z"/>
    <text class="cls-52" transform="translate(552.15 389.72)"><tspan class="cls-65" x="0" y="0">W</tspan><tspan x="9.26" y="0">ir wünschen </tspan><tspan class="cls-66" x="0" y="13.38">I</tspan><tspan x="2.78" y="13.38">hnen einen </tspan><tspan x="0" y="26.76">schönen</tspan><tspan class="cls-63" x="39.69" y="26.76"> </tspan><tspan class="cls-64" x="41.59" y="26.76">T</tspan><tspan x="46.42" y="26.76">ag! </tspan></text>
  </g>
  <g id="Ebene_4" data-name="Ebene 4">
    <polygon class="cls-29" points="893 486.11 891.13 419.8 978.38 423.94 980.21 489.92 893 486.11"/>
    <polygon class="cls-29" points="979.49 489.94 978.38 423.94 1035.26 402.37 1036.25 473.3 979.49 489.94"/>
    <polygon class="cls-26" points="903.06 486.54 902.59 420.31 919 420.75 919.36 487.26 903.06 486.54"/>
    <polygon class="cls-26" points="932.56 487.84 932.38 421.39 948.79 421.83 949.13 488.56 932.56 487.84"/>
    <polygon class="cls-26" points="964.66 489.24 964 423.25 978.38 423.78 980.21 489.92 964.66 489.24"/>
    <polygon class="cls-26" points="989.95 486.88 986.98 420.78 997.17 416.53 999.95 483.94 989.95 486.88"/>
    <polygon class="cls-26" points="1009.14 481.25 1006.65 412.42 1017.16 408.16 1019.86 478.11 1009.14 481.25"/>
    <polygon class="cls-26" points="1027.67 475.82 1024.46 406.62 1035.22 403.3 1036.25 473.3 1027.67 475.82"/>
    <g>
      <polygon class="cls-29" points="891.55 410.96 945.03 395.43 1036.25 399.14 978.81 414.9 891.55 410.96"/>
      <rect class="cls-32" x="891.27" y="412.85" width="87.35" height="9.91" transform="translate(20.64 -43.42) rotate(2.69)"/>
      <polygon class="cls-21" points="978.34 424.8 978.81 414.9 1036.25 399.14 1036.25 408.16 978.34 424.8"/>
      <g>
        <line class="cls-54" x1="1001.75" y1="401.7" x2="1001.12" y2="365.76"/>
        <ellipse class="cls-20" cx="1000.35" cy="349.82" rx="15.49" ry="15.95" transform="translate(-10.32 31.05) rotate(-1.77)"/>
        <path class="cls-26" d="m1009.65,360.27c-4.12,3.68-10.59,5.09-15.68,2.49-4.98-3.08-8.31-8.95-7.27-15.01,1.44-6.02,6.52-11.94,13.01-12.23,5.6-.42,11.36,2.91,13.32,8.31,0,0,.43,1.22.43,1.22.93,2.46.41,6.1-.78,8.23-3.14,6.65-11.45,11.68-18.08,6.65-4.64-3.29-6.47-10.64-2.42-15.09,3.51-4.06,10.65-5.57,14.43-1.08.61.72.95,1.73.91,2.64-.08,3.77-4.69,9.95-8.86,8.22-4.12-1.91-2.41-6.5.33-8.8,4.9,1.94,18.09,8.42,10.68,14.46h0Zm-.24-.28c6.88-5.78-5.72-11.47-10.32-13.12,0,0,.24-.06.24-.06-1.73,1.64-3.09,5.32-.18,6.43,2.95,1.03,5.89-3.8,6.2-6.28.28-2.1-2.1-3.16-3.85-3.34-3.84-.28-8.15,2.66-8.31,6.7-.16,3.93,3.16,7.79,7.09,8.04,4.88.09,10.05-5.7,10.11-10.45-.45-8.84-11.72-12.85-17.81-6.45-1.94,1.84-3.51,4.16-4.22,6.74-1.24,5.19,1.59,11.08,6,13.92,4.68,2.69,11.1,1.35,15.05-2.13h0Z"/>
      </g>
      <g>
        <line class="cls-54" x1="979.74" y1="401.45" x2="979.11" y2="365.51"/>
        <ellipse class="cls-8" cx="978.34" cy="349.57" rx="15.49" ry="15.95" transform="translate(-10.33 30.38) rotate(-1.77)"/>
        <path class="cls-26" d="m987.84,359.9c-4.12,3.68-10.59,5.09-15.68,2.49-4.98-3.08-8.31-8.95-7.27-15.01,1.44-6.02,6.52-11.94,13.01-12.23,5.6-.42,11.36,2.91,13.32,8.31,0,0,.43,1.22.43,1.22.93,2.46.41,6.1-.78,8.23-3.14,6.65-11.45,11.68-18.08,6.65-4.64-3.29-6.47-10.64-2.42-15.09,3.51-4.06,10.65-5.57,14.43-1.08.61.72.95,1.73.91,2.64-.08,3.77-4.69,9.95-8.86,8.22-4.12-1.91-2.41-6.5.33-8.8,4.9,1.94,18.09,8.42,10.68,14.46h0Zm-.24-.28c6.88-5.78-5.72-11.47-10.32-13.12,0,0,.24-.06.24-.06-1.73,1.64-3.09,5.32-.18,6.43,2.95,1.03,5.89-3.8,6.2-6.28.28-2.1-2.1-3.16-3.85-3.34-3.84-.28-8.15,2.66-8.31,6.7-.16,3.93,3.16,7.79,7.09,8.04,4.88.09,10.05-5.7,10.11-10.45-.45-8.84-11.72-12.85-17.81-6.45-1.94,1.84-3.51,4.16-4.22,6.74-1.24,5.19,1.59,11.08,6,13.92,4.68,2.69,11.1,1.35,15.05-2.13h0Z"/>
      </g>
      <g>
        <line class="cls-54" x1="986.51" y1="409.92" x2="985.88" y2="373.98"/>
        <ellipse class="cls-22" cx="985.11" cy="358.04" rx="15.49" ry="15.95" transform="translate(-10.59 30.59) rotate(-1.77)"/>
        <path class="cls-26" d="m994.41,368.48c-4.12,3.68-10.59,5.09-15.68,2.49-4.98-3.08-8.31-8.95-7.27-15.01,1.44-6.02,6.52-11.94,13.01-12.23,5.6-.42,11.36,2.91,13.32,8.31,0,0,.43,1.22.43,1.22.93,2.46.41,6.1-.78,8.23-3.14,6.65-11.45,11.68-18.08,6.65-4.64-3.29-6.47-10.64-2.42-15.09,3.51-4.06,10.65-5.57,14.43-1.08.61.72.95,1.73.91,2.64-.08,3.77-4.69,9.95-8.86,8.22-4.12-1.91-2.41-6.5.33-8.8,4.9,1.94,18.09,8.42,10.68,14.46h0Zm-.24-.28c6.88-5.78-5.72-11.47-10.32-13.12,0,0,.24-.06.24-.06-1.73,1.64-3.09,5.32-.18,6.43,2.95,1.03,5.89-3.8,6.2-6.28.28-2.1-2.1-3.16-3.85-3.34-3.84-.28-8.15,2.66-8.31,6.7-.16,3.93,3.16,7.79,7.09,8.04,4.88.09,10.05-5.7,10.11-10.45-.45-8.84-11.72-12.85-17.81-6.45-1.94,1.84-3.51,4.16-4.22,6.74-1.24,5.19,1.59,11.08,6,13.92,4.68,2.69,11.1,1.35,15.05-2.13h0Z"/>
      </g>
      <g>
        <line class="cls-54" x1="966.25" y1="409.62" x2="965.61" y2="373.67"/>
        <ellipse class="cls-14" cx="964.85" cy="357.74" rx="15.49" ry="15.95" transform="translate(-10.59 29.96) rotate(-1.77)"/>
        <ellipse class="cls-14" cx="964.85" cy="357.74" rx="15.49" ry="15.95" transform="translate(-10.59 29.96) rotate(-1.77)"/>
        <path class="cls-26" d="m974.14,368.18c-4.12,3.68-10.59,5.09-15.68,2.49-4.98-3.08-8.31-8.95-7.27-15.01,1.44-6.02,6.52-11.94,13.01-12.23,5.6-.42,11.36,2.91,13.32,8.31,0,0,.43,1.22.43,1.22.93,2.46.41,6.1-.78,8.23-3.14,6.65-11.45,11.68-18.08,6.65-4.64-3.29-6.47-10.64-2.42-15.09,3.51-4.06,10.65-5.57,14.43-1.08.61.72.95,1.73.91,2.64-.08,3.77-4.69,9.95-8.86,8.22-4.12-1.91-2.41-6.5.33-8.8,4.9,1.94,18.09,8.42,10.68,14.46h0Zm-.24-.28c6.88-5.78-5.72-11.47-10.32-13.12,0,0,.24-.06.24-.06-1.73,1.64-3.09,5.32-.18,6.43,2.95,1.03,5.89-3.8,6.2-6.28.28-2.1-2.1-3.16-3.85-3.34-3.84-.28-8.15,2.66-8.31,6.7-.16,3.93,3.16,7.79,7.09,8.04,4.88.09,10.05-5.7,10.11-10.45-.45-8.84-11.72-12.85-17.81-6.45-1.94,1.84-3.51,4.16-4.22,6.74-1.24,5.19,1.59,11.08,6,13.92,4.68,2.69,11.1,1.35,15.05-2.13h0Z"/>
      </g>
      <g>
        <line class="cls-54" x1="959.93" y1="402.09" x2="959.3" y2="366.15"/>
        <ellipse class="cls-20" cx="958.53" cy="350.21" rx="15.49" ry="15.95" transform="translate(-10.36 29.76) rotate(-1.77)"/>
        <path class="cls-26" d="m967.82,360.65c-4.12,3.68-10.59,5.09-15.68,2.49-4.98-3.08-8.31-8.95-7.27-15.01,1.44-6.02,6.52-11.94,13.01-12.23,5.6-.42,11.36,2.91,13.32,8.31,0,0,.43,1.22.43,1.22.93,2.46.41,6.1-.78,8.23-3.14,6.65-11.45,11.68-18.08,6.65-4.64-3.29-6.47-10.64-2.42-15.09,3.51-4.06,10.65-5.57,14.43-1.08.61.72.95,1.73.91,2.64-.08,3.77-4.69,9.95-8.86,8.22-4.12-1.91-2.41-6.5.33-8.8,4.9,1.94,18.09,8.42,10.68,14.46h0Zm-.24-.28c6.88-5.78-5.72-11.47-10.32-13.12,0,0,.24-.06.24-.06-1.73,1.64-3.09,5.32-.18,6.43,2.95,1.03,5.89-3.8,6.2-6.28.28-2.1-2.1-3.16-3.85-3.34-3.84-.28-8.15,2.66-8.31,6.7-.16,3.93,3.16,7.79,7.09,8.04,4.88.09,10.05-5.7,10.11-10.45-.45-8.84-11.72-12.85-17.81-6.45-1.94,1.84-3.51,4.16-4.22,6.74-1.24,5.19,1.59,11.08,6,13.92,4.68,2.69,11.1,1.35,15.05-2.13h0Z"/>
      </g>
      <g>
        <line class="cls-54" x1="937.92" y1="401.84" x2="937.29" y2="365.9"/>
        <ellipse class="cls-8" cx="936.52" cy="349.96" rx="15.49" ry="15.95" transform="translate(-10.36 29.08) rotate(-1.77)"/>
        <path class="cls-26" d="m946.02,360.29c-4.12,3.68-10.59,5.09-15.68,2.49-4.98-3.08-8.31-8.95-7.27-15.01,1.44-6.02,6.52-11.94,13.01-12.23,5.6-.42,11.36,2.91,13.32,8.31,0,0,.43,1.22.43,1.22.93,2.46.41,6.1-.78,8.23-3.14,6.65-11.45,11.68-18.08,6.65-4.64-3.29-6.47-10.64-2.42-15.09,3.51-4.06,10.65-5.57,14.43-1.08.61.72.95,1.73.91,2.64-.08,3.77-4.69,9.95-8.86,8.22-4.12-1.91-2.41-6.5.33-8.8,4.9,1.94,18.09,8.42,10.68,14.46h0Zm-.24-.28c6.88-5.78-5.72-11.47-10.32-13.12,0,0,.24-.06.24-.06-1.73,1.64-3.09,5.32-.18,6.43,2.95,1.03,5.89-3.8,6.2-6.28.28-2.1-2.1-3.16-3.85-3.34-3.84-.28-8.15,2.66-8.31,6.7-.16,3.93,3.16,7.79,7.09,8.04,4.88.09,10.05-5.7,10.11-10.45-.45-8.84-11.72-12.85-17.81-6.45-1.94,1.84-3.51,4.16-4.22,6.74-1.24,5.19,1.59,11.08,6,13.92,4.68,2.69,11.1,1.35,15.05-2.13h0Z"/>
      </g>
      <g>
        <line class="cls-54" x1="946.43" y1="410.25" x2="945.8" y2="374.31"/>
        <ellipse class="cls-22" cx="945.03" cy="358.37" rx="15.49" ry="15.95" transform="translate(-10.61 29.35) rotate(-1.77)"/>
        <path class="cls-26" d="m954.33,368.82c-4.12,3.68-10.59,5.09-15.68,2.49-4.98-3.08-8.31-8.95-7.27-15.01,1.44-6.02,6.52-11.94,13.01-12.23,5.6-.42,11.36,2.91,13.32,8.31,0,0,.43,1.22.43,1.22.93,2.46.41,6.1-.78,8.23-3.14,6.65-11.45,11.68-18.08,6.65-4.64-3.29-6.47-10.64-2.42-15.09,3.51-4.06,10.65-5.57,14.43-1.08.61.72.95,1.73.91,2.64-.08,3.77-4.69,9.95-8.86,8.22-4.12-1.91-2.41-6.5.33-8.8,4.9,1.94,18.09,8.42,10.68,14.46h0Zm-.24-.28c6.88-5.78-5.72-11.47-10.32-13.12,0,0,.24-.06.24-.06-1.73,1.64-3.09,5.32-.18,6.43,2.95,1.03,5.89-3.8,6.2-6.28.28-2.1-2.1-3.16-3.85-3.34-3.84-.28-8.15,2.66-8.31,6.7-.16,3.93,3.16,7.79,7.09,8.04,4.88.09,10.05-5.7,10.11-10.45-.45-8.84-11.72-12.85-17.81-6.45-1.94,1.84-3.51,4.16-4.22,6.74-1.24,5.19,1.59,11.08,6,13.92,4.68,2.69,11.1,1.35,15.05-2.13h0Z"/>
      </g>
      <g>
        <line class="cls-54" x1="924.42" y1="410" x2="923.79" y2="374.06"/>
        <ellipse class="cls-14" cx="923.02" cy="358.13" rx="15.49" ry="15.95" transform="translate(-10.62 28.67) rotate(-1.77)"/>
        <ellipse class="cls-14" cx="923.02" cy="358.13" rx="15.49" ry="15.95" transform="translate(-10.62 28.67) rotate(-1.77)"/>
        <path class="cls-26" d="m932.32,368.57c-4.12,3.68-10.59,5.09-15.68,2.49-4.98-3.08-8.31-8.95-7.27-15.01,1.44-6.02,6.52-11.94,13.01-12.23,5.6-.42,11.36,2.91,13.32,8.31,0,0,.43,1.22.43,1.22.93,2.46.41,6.1-.78,8.23-3.14,6.65-11.45,11.68-18.08,6.65-4.64-3.29-6.47-10.64-2.42-15.09,3.51-4.06,10.65-5.57,14.43-1.08.61.72.95,1.73.91,2.64-.08,3.77-4.69,9.95-8.86,8.22-4.12-1.91-2.41-6.5.33-8.8,4.9,1.94,18.09,8.42,10.68,14.46h0Zm-.24-.28c6.88-5.78-5.72-11.47-10.32-13.12,0,0,.24-.06.24-.06-1.73,1.64-3.09,5.32-.18,6.43,2.95,1.03,5.89-3.8,6.2-6.28.28-2.1-2.1-3.16-3.85-3.34-3.84-.28-8.15,2.66-8.31,6.7-.16,3.93,3.16,7.79,7.09,8.04,4.88.09,10.05-5.7,10.11-10.45-.45-8.84-11.72-12.85-17.81-6.45-1.94,1.84-3.51,4.16-4.22,6.74-1.24,5.19,1.59,11.08,6,13.92,4.68,2.69,11.1,1.35,15.05-2.13h0Z"/>
      </g>
    </g>
    <g>
      <path class="cls-32" d="m933.56,402.17c2.58-1.45,5.78-1.46,8.39-.05.06.02.08.12,0,.12-2.09.07-6.3.09-8.39.05-.07,0-.07-.1,0-.12h0Z"/>
      <path class="cls-32" d="m942.24,410.21c2.58-1.45,5.78-1.46,8.39-.05.06.02.08.12,0,.12-2.09.07-6.3.09-8.39.05-.07,0-.07-.1,0-.12h0Z"/>
      <path class="cls-32" d="m920.25,410.79c2.58-1.45,5.78-1.46,8.39-.05.06.02.08.12,0,.12-2.09.07-6.3.09-8.39.05-.07,0-.07-.1,0-.12h0Z"/>
      <path class="cls-32" d="m955.74,402.05c2.58-1.45,5.78-1.46,8.39-.05.06.02.08.12,0,.12-2.09.07-6.3.09-8.39.05-.07,0-.07-.1,0-.12h0Z"/>
      <path class="cls-32" d="m961.55,409.72c2.58-1.45,5.78-1.46,8.39-.05.06.02.08.12,0,.12-2.09.07-6.3.09-8.39.05-.07,0-.07-.1,0-.12h0Z"/>
      <path class="cls-32" d="m974.93,401.56c2.58-1.45,5.78-1.46,8.39-.05.06.02.08.12,0,.12-2.09.07-6.3.09-8.39.05-.07,0-.07-.1,0-.12h0Z"/>
      <path class="cls-32" d="m981.8,410.28c2.58-1.45,5.78-1.46,8.39-.05.06.02.08.12,0,.12-2.09.07-6.3.09-8.39.05-.07,0-.07-.1,0-.12h0Z"/>
      <path class="cls-32" d="m997.05,402.37c2.58-1.45,5.78-1.46,8.39-.05.06.02.08.12,0,.12-2.09.07-6.3.09-8.39.05-.07,0-.07-.1,0-.12h0Z"/>
    </g>
  </g>
  <g id="Ebene_5" data-name="Ebene 5">
    <g>
      <polygon class="cls-3" points="260.71 525.5 411.48 535.22 400.38 756.5 257.05 746.23 260.71 525.5"/>
      <polygon class="cls-40" points="282.93 725.97 288.45 537.2 410.95 545.79 401.22 732.12 282.93 725.97"/>
      <polygon class="cls-17" points="259.22 641.76 286.9 626.32 406.62 632.11 405.69 651.91 259.22 641.76"/>
      <polygon class="cls-46" points="259.22 648.98 405.3 658.48 405.69 651.91 259.22 641.76 259.22 648.98"/>
      <polygon class="cls-17" points="257.05 746.23 280.93 725.86 401.57 732.84 400.38 756.5 257.05 746.23"/>
    </g>
    <g>
      <polygon class="cls-3" points="746.22 558.49 896.99 568.21 885.89 789.49 742.55 779.22 746.22 558.49"/>
      <polygon class="cls-40" points="760.25 753.11 765.77 564.34 896.74 573.19 887 767.33 760.25 753.11"/>
      <polygon class="cls-17" points="744.29 667.53 764.22 653.46 892.44 658.96 891.56 676.49 744.29 667.53"/>
      <polygon class="cls-46" points="744.29 672.87 891.17 683.06 891.56 676.49 744.41 667.54 744.29 672.87"/>
      <polygon class="cls-17" points="742.55 779.22 760.25 753.11 887.41 759.26 885.89 789.49 742.55 779.22"/>
    </g>
    <g>
      <polygon class="cls-3" points="505.26 543.11 656.03 552.83 644.93 774.12 493.23 763.23 505.26 543.11"/>
      <polygon class="cls-40" points="645.59 761.05 656.03 562.82 521.62 556.12 511.44 746.63 645.59 761.05"/>
      <polygon class="cls-17" points="650.16 669.93 651.47 649.34 516.92 644.19 503.26 663.58 650.16 669.93"/>
      <polygon class="cls-46" points="649.92 674.74 503.18 668.44 503.26 663.58 650.16 669.93 649.92 674.74"/>
      <polygon class="cls-17" points="644.93 774.12 646 752.85 515.38 743.04 493.23 763.23 644.93 774.12"/>
    </g>
  </g>
  <g id="Ebene_6" data-name="Ebene 6">
    <g>
      <line class="cls-55" x1="577.91" y1="636.12" x2="574.51" y2="614.17"/>
      <path class="cls-56" d="m560.05,605.49c-1.39,4.47,3.63,13.19,10.04,12.43s12.21-5.2,13.51-10.83c1.3-5.64-2.36-11.99-8.45-13.94-6.08-1.95-13.75,1.17-15.65,6.67-1.9,5.5,2.91,12.13,9.37,12.47,4.11.22,8.37-2.17,9.44-5.71s-1.64-7.75-5.7-8.33c-4.07-.58-8.26,3.15-7.22,6.7.65,2.22,3.37,3.93,5.87,3.36,2.5-.57,3.89-3.67,2.23-5.43s-5.69-.63-5.61,1.67"/>
    </g>
    <g>
      <line class="cls-55" x1="593.02" y1="631.44" x2="600.25" y2="611.48"/>
      <path class="cls-57" d="m591.75,596.57c-3.29,3.05-2.96,12.76,2.99,15.26,5.95,2.49,13.08,1.61,16.84-2.45,3.76-4.07,3.51-11.15-.9-15.74s-12.55-5.72-16.77-2.06c-4.22,3.66-3.09,11.53,2.39,14.96,3.49,2.19,8.32,2.27,10.9-.16,2.58-2.43,2.17-7.26-1.11-9.72-3.28-2.46-8.68-1.39-9.42,2.07-.46,2.17,1.11,4.91,3.56,5.66,2.45.74,5.11-1.16,4.47-3.44-.63-2.27-4.68-3.3-5.68-1.34"/>
    </g>
    <g>
      <line class="cls-55" x1="581.77" y1="631.8" x2="578.36" y2="587.49"/>
      <path class="cls-58" d="m576.23,576.2c-2.41,3.22-3.98,11.8-1.08,13.1,2.91,1.3,7.1-.59,9.96-4.78,2.86-4.19,4-10.45,2.34-13.85-1.66-3.4-6.05-3.15-9.1.76-3.05,3.9-3.84,10.73-1.36,12.93,1.57,1.41,4.29.73,6.19-1.83,1.9-2.56,2.54-6.79,1.13-8.47s-4.65.1-5.69,3.29c-.66,2-.26,4.2.99,4.48,1.25.28,3.09-1.82,3.15-3.75.05-1.92-2.04-2.21-2.96-.32"/>
      <path class="cls-58" d="m569.51,586.02c2.17,3.45,8.87,6.92,10.48,3.74,1.61-3.19.87-8.48-2.01-12.65-2.88-4.16-7.76-6.69-10.85-5.37-3.09,1.32-3.72,6.55-1.11,10.88,2.61,4.33,8.02,6.55,10.29,4.04,1.45-1.59,1.41-4.92-.31-7.64s-5.05-4.28-6.69-2.93c-1.64,1.35-.8,5.5,1.6,7.34,1.51,1.15,3.37,1.1,3.84-.32.47-1.42-.9-3.99-2.46-4.42-1.56-.43-2.19,2-.82,3.44"/>
    </g>
    <g>
      <line class="cls-55" x1="588.93" y1="644.8" x2="597.55" y2="586.48"/>
      <path class="cls-62" d="m587.28,573.4c4.83,6.1,5.07,11.96,9.9,18.05,7.06-4.57,13.53-10.06,19.18-16.28-4.6-3.95-8.63-8.56-11.93-13.64-.62-.96-2.11-1.19-2.99-.46-4.67,3.84-9.35,7.68-14.02,11.52,3.43,4.94,6.86,9.89,10.28,14.83,4.45-3.63,8.9-7.25,13.35-10.88.51-.41.59-1.25.17-1.76-2.76-3.31-5.51-6.62-8.27-9.93-3.1,2.87-6.21,5.74-9.31,8.62.93,2.61,2.77,5.08,5.42,5.9,2.65.81,6.03-.67,6.52-3.4-.9-1.58-1.8-3.16-2.69-4.75-.92.94-1.85,1.89-2.77,2.83"/>
    </g>
    <polygon class="cls-34" points="575.55 657.67 569.71 627.5 601.27 627.5 596.59 657.67 575.55 657.67"/>
    <rect class="cls-41" x="568.83" y="620.62" width="33.31" height="10.45"/>
  </g>
  <g id="Ebene_7" data-name="Ebene 7">
    <g>
      <path class="cls-44" d="m350.55,717.54c-2.57,1.13-5.93.43-7.74-1.62s-1.91-5.26-.23-7.41c1.68-2.15,4.99-3.03,7.63-2.03-1.51.21-3.15.17-4.45-.58s-2.09-2.4-1.4-3.68,3.06-1.45,3.66-.13c-.92-1.73,1.06-3.69,3.07-4.17s4.21-.21,6.09-1.01,3-3.54,1.27-4.6c2.23,3.63,6.94,5.78,11.38,5.18,1.97-.27,3.99,1.28,4.11,3.13s-1.69,3.61-3.68,3.57c1.51.46,3.04.94,4.29,1.85s2.18,2.35,1.99,3.82-1.81,2.76-3.33,2.37c1.17,1.42.56,3.79-1.17,4.57-7.19,3.24-15.81,3.6-21.49.75Z"/>
      <path class="cls-49" d="m376.16,712.78c-.62-.49-1.59.14-1.6,1.04-.25-1.52-1.51-2.7-2.78-2.59s-2.39,1.49-2.46,3.04c-.21-1.53-1.39-2.78-2.66-2.82s-2.5,1.15-2.76,2.67c-.22-1.79-1.59-3.27-3.08-3.31s-2.91,1.37-3.19,3.15c-.39-1.53-1.63-2.68-2.95-2.72s-2.61,1.04-3.05,2.54c-1.49-2.82-5.56-2.61-6.85.35-.53-1.23-1.72-2-2.86-1.84-1.13.15-2.13,1.2-2.33,2.56h-.2l8.56,19.99,21.23-.14,7.04-19.84h-.03c.51-.48.54-1.61-.01-2.06Z"/>
      <g class="cls-50">
        <path class="cls-35" d="m344.97,714.83c1.4,3.28,2.77,6.56,4.12,9.86,1.32,3.24,2.95,6.77,3.43,10.13-1.74-3.14-3-6.47-4.12-9.86-1.09-3.33-2.61-6.88-3.43-10.13h0Z"/>
      </g>
      <g class="cls-50">
        <path class="cls-35" d="m351.79,713.78c.78,3.48,1.54,6.96,2.26,10.45.71,3.43,1.67,7.19,1.53,10.58-1.14-3.4-1.77-6.91-2.26-10.45-.47-3.47-1.32-7.24-1.53-10.58h0Z"/>
      </g>
      <g class="cls-50">
        <path class="cls-35" d="m357.76,713.21c.01,3.56,0,7.13-.03,10.69-.04,3.5.09,7.38-.78,10.66-.38-3.57-.25-7.13.03-10.69.29-3.49.27-7.36.78-10.66h0Z"/>
      </g>
      <g class="cls-50">
        <path class="cls-35" d="m363.89,713.8c-.17,3.5-.37,7-.6,10.5-.23,3.44-.31,7.26-1.34,10.44-.19-3.53.13-7.02.6-10.5.48-3.41.66-7.22,1.34-10.44h0Z"/>
      </g>
      <g class="cls-50">
        <path class="cls-35" d="m369.44,714.02c-.63,3.46-1.28,6.91-1.95,10.35-.67,3.39-1.24,7.17-2.68,10.19.27-3.53,1.04-6.95,1.95-10.35.91-3.33,1.59-7.08,2.68-10.19h0Z"/>
      </g>
      <polygon class="cls-47" points="360.07 701.32 360.33 702.16 361.17 702.16 360.49 702.68 360.75 703.52 360.07 703 359.39 703.52 359.65 702.68 358.98 702.16 359.81 702.16 360.07 701.32"/>
      <polygon class="cls-47" points="370.49 706.6 370.75 707.44 371.59 707.44 370.91 707.96 371.17 708.8 370.49 708.28 369.81 708.8 370.07 707.96 369.39 707.44 370.23 707.44 370.49 706.6"/>
      <polygon class="cls-47" points="346.86 707.96 347.12 708.8 347.96 708.8 347.28 709.32 347.54 710.16 346.86 709.64 346.19 710.16 346.45 709.32 345.77 708.8 346.61 708.8 346.86 707.96"/>
      <polygon class="cls-47" points="350.71 699.82 350.97 700.66 351.81 700.66 351.13 701.18 351.39 702.02 350.71 701.5 350.04 702.02 350.29 701.18 349.62 700.66 350.45 700.66 350.71 699.82"/>
      <polygon class="cls-47" points="355 706.86 355.26 707.7 356.09 707.7 355.42 708.22 355.67 709.06 355 708.54 354.32 709.06 354.58 708.22 353.9 707.7 354.74 707.7 355 706.86"/>
      <polygon class="cls-47" points="370.49 698.73 370.75 699.56 371.59 699.56 370.91 700.08 371.17 700.92 370.49 700.4 369.81 700.92 370.07 700.08 369.39 699.56 370.23 699.56 370.49 698.73"/>
      <polygon class="cls-47" points="363.5 705.51 363.76 706.35 364.59 706.35 363.92 706.86 364.17 707.7 363.5 707.18 362.82 707.7 363.08 706.86 362.4 706.35 363.24 706.35 363.5 705.51"/>
      <polygon class="cls-47" points="360.33 695.41 360.59 696.25 361.43 696.25 360.75 696.76 361.01 697.6 360.33 697.08 359.65 697.6 359.91 696.76 359.23 696.25 360.07 696.25 360.33 695.41"/>
      <circle class="cls-19" cx="350.7" cy="706.19" r=".68"/>
      <circle class="cls-19" cx="364.59" cy="698.74" r=".68"/>
      <circle class="cls-19" cx="366.45" cy="703.52" r=".68"/>
      <circle class="cls-19" cx="359.65" cy="708.38" r=".68"/>
      <circle class="cls-19" cx="355.63" cy="700.5" r=".68"/>
      <circle class="cls-19" cx="374.26" cy="710.16" r=".68"/>
      <circle class="cls-45" cx="366.45" cy="709.06" r=".68"/>
      <circle class="cls-45" cx="357" cy="704.2" r=".68"/>
      <circle class="cls-45" cx="366.45" cy="700.5" r=".68"/>
      <circle class="cls-45" cx="353.24" cy="698.74" r=".68"/>
      <circle class="cls-45" cx="346.19" cy="703.52" r=".68"/>
      <circle class="cls-45" cx="344.24" cy="710.81" r=".68"/>
    </g>
    <g>
      <path class="cls-44" d="m303.13,719.85c-2.57,1.13-5.93.43-7.74-1.62s-1.91-5.26-.23-7.41,4.99-3.03,7.63-2.03c-1.51.21-3.15.17-4.45-.58s-2.09-2.4-1.4-3.68,3.06-1.45,3.66-.13c-.92-1.73,1.06-3.69,3.07-4.17s4.21-.21,6.09-1.01,3-3.54,1.27-4.6c2.23,3.63,6.94,5.78,11.38,5.18,1.97-.27,3.99,1.28,4.11,3.13s-1.69,3.61-3.68,3.57c1.51.46,3.04.94,4.29,1.85s2.18,2.35,1.99,3.82-1.81,2.76-3.33,2.37c1.17,1.42.56,3.79-1.17,4.57-7.19,3.24-15.81,3.6-21.49.75Z"/>
      <path class="cls-13" d="m328.74,715.09c-.62-.49-1.59.14-1.6,1.04-.25-1.52-1.51-2.7-2.78-2.59s-2.39,1.49-2.46,3.04c-.21-1.53-1.39-2.78-2.66-2.82s-2.5,1.15-2.76,2.67c-.22-1.79-1.59-3.27-3.08-3.31s-2.91,1.37-3.19,3.15c-.39-1.53-1.63-2.68-2.95-2.72s-2.61,1.04-3.05,2.54c-1.49-2.82-5.56-2.61-6.85.35-.53-1.23-1.72-2-2.86-1.84-1.13.15-2.13,1.2-2.33,2.56h-.2l8.56,19.99,21.23-.14,7.04-19.84h-.03c.51-.48.54-1.61-.01-2.06Z"/>
      <g class="cls-50">
        <path class="cls-35" d="m297.54,717.14c1.4,3.28,2.77,6.56,4.12,9.86,1.32,3.24,2.95,6.77,3.43,10.13-1.74-3.14-3-6.47-4.12-9.86-1.09-3.33-2.61-6.88-3.43-10.13h0Z"/>
      </g>
      <g class="cls-50">
        <path class="cls-35" d="m304.37,716.09c.78,3.48,1.54,6.96,2.26,10.45.71,3.43,1.67,7.19,1.53,10.58-1.14-3.4-1.77-6.91-2.26-10.45-.47-3.47-1.32-7.24-1.53-10.58h0Z"/>
      </g>
      <g class="cls-50">
        <path class="cls-35" d="m310.34,715.52c.01,3.56,0,7.13-.03,10.69-.04,3.5.09,7.38-.78,10.66-.38-3.57-.25-7.13.03-10.69.29-3.49.27-7.36.78-10.66h0Z"/>
      </g>
      <g class="cls-50">
        <path class="cls-35" d="m316.47,716.11c-.17,3.5-.37,7-.6,10.5-.23,3.44-.31,7.26-1.34,10.44-.19-3.53.13-7.02.6-10.5.48-3.41.66-7.22,1.34-10.44h0Z"/>
      </g>
      <g class="cls-50">
        <path class="cls-35" d="m322.02,716.33c-.63,3.46-1.28,6.91-1.95,10.35-.67,3.39-1.24,7.17-2.68,10.19.27-3.53,1.04-6.95,1.95-10.35.91-3.33,1.59-7.08,2.68-10.19h0Z"/>
      </g>
      <polygon class="cls-47" points="312.65 703.63 312.91 704.47 313.75 704.47 313.07 704.99 313.33 705.83 312.65 705.31 311.97 705.83 312.23 704.99 311.55 704.47 312.39 704.47 312.65 703.63"/>
      <polygon class="cls-47" points="323.07 708.92 323.33 709.75 324.17 709.75 323.49 710.27 323.75 711.11 323.07 710.59 322.39 711.11 322.65 710.27 321.97 709.75 322.81 709.75 323.07 708.92"/>
      <polygon class="cls-47" points="299.44 710.27 299.7 711.11 300.54 711.11 299.86 711.63 300.12 712.47 299.44 711.95 298.76 712.47 299.02 711.63 298.35 711.11 299.18 711.11 299.44 710.27"/>
      <polygon class="cls-47" points="303.29 702.13 303.55 702.97 304.39 702.97 303.71 703.49 303.97 704.33 303.29 703.81 302.61 704.33 302.87 703.49 302.19 702.97 303.03 702.97 303.29 702.13"/>
      <polygon class="cls-47" points="307.57 709.17 307.83 710.01 308.67 710.01 307.99 710.53 308.25 711.37 307.57 710.85 306.9 711.37 307.16 710.53 306.48 710.01 307.32 710.01 307.57 709.17"/>
      <polygon class="cls-47" points="323.07 701.04 323.33 701.88 324.17 701.88 323.49 702.39 323.75 703.23 323.07 702.71 322.39 703.23 322.65 702.39 321.97 701.88 322.81 701.88 323.07 701.04"/>
      <polygon class="cls-47" points="316.07 707.82 316.33 708.66 317.17 708.66 316.49 709.17 316.75 710.01 316.07 709.49 315.4 710.01 315.65 709.17 314.98 708.66 315.81 708.66 316.07 707.82"/>
      <polygon class="cls-47" points="312.91 697.72 313.17 698.56 314.01 698.56 313.33 699.07 313.59 699.91 312.91 699.39 312.23 699.91 312.49 699.07 311.81 698.56 312.65 698.56 312.91 697.72"/>
      <circle class="cls-19" cx="303.28" cy="708.5" r=".68"/>
      <circle class="cls-19" cx="317.17" cy="701.05" r=".68"/>
      <circle class="cls-19" cx="319.02" cy="705.83" r=".68"/>
      <circle class="cls-19" cx="312.23" cy="710.69" r=".68"/>
      <circle class="cls-19" cx="308.21" cy="702.81" r=".68"/>
      <circle class="cls-19" cx="326.84" cy="712.47" r=".68"/>
      <circle class="cls-45" cx="319.02" cy="711.37" r=".68"/>
      <circle class="cls-45" cx="309.58" cy="706.51" r=".68"/>
      <circle class="cls-45" cx="319.02" cy="702.81" r=".68"/>
      <circle class="cls-45" cx="305.82" cy="701.05" r=".68"/>
      <circle class="cls-45" cx="298.76" cy="705.83" r=".68"/>
      <circle class="cls-45" cx="296.82" cy="713.12" r=".68"/>
    </g>
    <g>
      <path class="cls-44" d="m329.16,725.74c-2.57,1.13-5.93.43-7.74-1.62s-1.91-5.26-.23-7.41,4.99-3.03,7.63-2.03c-1.51.21-3.15.17-4.45-.58s-2.09-2.4-1.4-3.68,3.06-1.45,3.66-.13c-.92-1.73,1.06-3.69,3.07-4.17s4.21-.21,6.09-1.01,3-3.54,1.27-4.6c2.23,3.63,6.94,5.78,11.38,5.18,1.97-.27,3.99,1.28,4.11,3.13s-1.69,3.61-3.68,3.57c1.51.46,3.04.94,4.29,1.85s2.18,2.35,1.99,3.82-1.81,2.76-3.33,2.37c1.17,1.42.56,3.79-1.17,4.57-7.19,3.24-15.81,3.6-21.49.75Z"/>
      <path class="cls-5" d="m354.77,720.99c-.62-.49-1.59.14-1.6,1.04-.25-1.52-1.51-2.7-2.78-2.59s-2.39,1.49-2.46,3.04c-.21-1.53-1.39-2.78-2.66-2.82-1.27-.04-2.5,1.15-2.76,2.67-.22-1.79-1.59-3.27-3.08-3.31s-2.91,1.37-3.19,3.15c-.39-1.53-1.63-2.68-2.95-2.72s-2.61,1.04-3.05,2.54c-1.49-2.82-5.56-2.61-6.85.35-.53-1.23-1.72-2-2.86-1.84-1.13.15-2.13,1.2-2.33,2.56h-.2l8.56,19.99,21.23-.14,7.04-19.84h-.03c.51-.48.54-1.61-.01-2.06Z"/>
      <g class="cls-50">
        <path class="cls-35" d="m323.58,723.03c1.4,3.28,2.77,6.56,4.12,9.86,1.32,3.24,2.95,6.77,3.43,10.13-1.74-3.14-3-6.47-4.12-9.86-1.09-3.33-2.61-6.88-3.43-10.13h0Z"/>
      </g>
      <g class="cls-50">
        <path class="cls-35" d="m330.4,721.99c.78,3.48,1.54,6.96,2.26,10.45.71,3.43,1.67,7.19,1.53,10.58-1.14-3.4-1.77-6.91-2.26-10.45-.47-3.47-1.32-7.24-1.53-10.58h0Z"/>
      </g>
      <g class="cls-50">
        <path class="cls-35" d="m336.37,721.42c.01,3.56,0,7.13-.03,10.69-.04,3.5.09,7.38-.78,10.66-.38-3.57-.25-7.13.03-10.69.29-3.49.27-7.36.78-10.66h0Z"/>
      </g>
      <g class="cls-50">
        <path class="cls-35" d="m342.5,722c-.17,3.5-.37,7-.6,10.5-.23,3.44-.31,7.26-1.34,10.44-.19-3.53.13-7.02.6-10.5.48-3.41.66-7.22,1.34-10.44h0Z"/>
      </g>
      <g class="cls-50">
        <path class="cls-35" d="m348.05,722.22c-.63,3.46-1.28,6.91-1.95,10.35-.67,3.39-1.24,7.17-2.68,10.19.27-3.53,1.04-6.95,1.95-10.35.91-3.33,1.59-7.08,2.68-10.19h0Z"/>
      </g>
      <polygon class="cls-47" points="338.68 709.53 338.94 710.37 339.78 710.37 339.1 710.88 339.36 711.72 338.68 711.2 338 711.72 338.26 710.88 337.58 710.37 338.42 710.37 338.68 709.53"/>
      <polygon class="cls-47" points="349.1 714.81 349.36 715.65 350.2 715.65 349.52 716.17 349.78 717 349.1 716.49 348.42 717 348.68 716.17 348 715.65 348.84 715.65 349.1 714.81"/>
      <polygon class="cls-47" points="325.47 716.17 325.73 717 326.57 717 325.89 717.52 326.15 718.36 325.47 717.84 324.8 718.36 325.06 717.52 324.38 717 325.22 717 325.47 716.17"/>
      <polygon class="cls-47" points="329.32 708.03 329.58 708.87 330.42 708.87 329.74 709.39 330 710.22 329.32 709.71 328.65 710.22 328.9 709.39 328.23 708.87 329.06 708.87 329.32 708.03"/>
      <polygon class="cls-47" points="333.61 715.07 333.86 715.91 334.7 715.91 334.03 716.42 334.28 717.26 333.61 716.75 332.93 717.26 333.19 716.42 332.51 715.91 333.35 715.91 333.61 715.07"/>
      <polygon class="cls-47" points="349.1 706.93 349.36 707.77 350.2 707.77 349.52 708.29 349.78 709.13 349.1 708.61 348.42 709.13 348.68 708.29 348 707.77 348.84 707.77 349.1 706.93"/>
      <polygon class="cls-47" points="342.11 713.71 342.36 714.55 343.2 714.55 342.52 715.07 342.78 715.91 342.11 715.39 341.43 715.91 341.69 715.07 341.01 714.55 341.85 714.55 342.11 713.71"/>
      <polygon class="cls-47" points="338.94 703.61 339.2 704.45 340.04 704.45 339.36 704.97 339.62 705.81 338.94 705.29 338.26 705.81 338.52 704.97 337.84 704.45 338.68 704.45 338.94 703.61"/>
      <circle class="cls-19" cx="329.31" cy="714.39" r=".68"/>
      <circle class="cls-19" cx="343.2" cy="706.95" r=".68"/>
      <circle class="cls-19" cx="345.06" cy="711.72" r=".68"/>
      <circle class="cls-19" cx="338.26" cy="716.59" r=".68"/>
      <circle class="cls-19" cx="334.24" cy="708.71" r=".68"/>
      <circle class="cls-19" cx="352.87" cy="718.36" r=".68"/>
      <circle class="cls-45" cx="345.06" cy="717.26" r=".68"/>
      <circle class="cls-45" cx="335.61" cy="712.4" r=".68"/>
      <circle class="cls-45" cx="345.06" cy="708.71" r=".68"/>
      <circle class="cls-45" cx="331.85" cy="706.95" r=".68"/>
      <circle class="cls-45" cx="324.8" cy="711.72" r=".68"/>
      <circle class="cls-45" cx="322.85" cy="719.01" r=".68"/>
    </g>
  </g>
  <g id="Ebene_8" data-name="Ebene 8">
    <g>
      <path class="cls-31" d="m820.55,695.89l-28.69,68.69c-.2.49.15,1.03.68,1.03h57.38c.53,0,.89-.54.68-1.03l-28.69-68.69c-.25-.61-1.11-.61-1.37,0Z"/>
      <path class="cls-53" d="m845.53,751.59c-11.5,3.35-37.24,4.58-48.48.55"/>
      <path class="cls-59" d="m838.8,736.29c-11.5,3.35-24.24,4.88-35.48.86"/>
      <path class="cls-18" d="m821.31,691.96c.67-3.19,4.57-5.46,7.98-4.64-1.16,1.77-2.31,3.54-3.47,5.31,2.98-1.49,6.92-1.13,9.54.86-1.96,1-3.92,2-5.88,3,.68,1.97,1.36,3.93,2.05,5.9-1.94-2.38-5.22-3.77-8.44-3.58.58,1.62,1.15,3.45.3,4.97s-3.81,1.82-4.3.17c-.53-1.78-2.25-3.21-4.23-3.51s-4.1.54-5.23,2.07c-.86-3.18,3.16-6.47,6.47-5.3-1.76-2.35-3.53-4.7-5.29-7.05,1.88.61,3.76,1.21,5.63,1.82-1.35-1.34-.26-3.96,1.71-4.12,1.97-.16,3.55,2.23,3.15,4.1Z"/>
      <path class="cls-9" d="m814.87,709.49c-1.41,1.6-7.67,17.07-6.34,15.17,12.92-18.47,25.21-.48,25.21-.48l-6.1-14.62s-7.51-6.06-12.77-.07Z"/>
    </g>
    <g>
      <path class="cls-39" d="m339.97,553.18l-33.86,81.06c-.2.49.15,1.03.68,1.03h67.71c.53,0,.89-.54.68-1.03l-33.86-81.06c-.25-.61-1.11-.61-1.37,0Z"/>
      <path class="cls-60" d="m369.17,618.83c-13.49,3.93-43.7,5.37-56.89.65"/>
      <path class="cls-61" d="m361.26,600.88c-13.49,3.93-28.45,5.73-41.63,1"/>
      <path class="cls-36" d="m340.75,548.85c.78-3.75,5.36-6.41,9.36-5.44-1.36,2.08-2.71,4.15-4.07,6.23,3.5-1.74,8.13-1.33,11.2,1.01-2.3,1.18-4.6,2.35-6.9,3.53.8,2.31,1.6,4.61,2.4,6.92-2.27-2.79-6.12-4.43-9.9-4.2.68,1.9,1.35,4.05.35,5.83-1,1.78-4.47,2.13-5.04.2-.63-2.09-2.64-3.77-4.96-4.12-2.32-.35-4.81.63-6.13,2.43-1.01-3.73,3.71-7.59,7.6-6.22-2.07-2.76-4.14-5.51-6.21-8.27,2.2.71,4.41,1.42,6.61,2.13-1.58-1.57-.3-4.65,2.01-4.84,2.31-.19,4.17,2.62,3.7,4.81Z"/>
      <path class="cls-27" d="m333.19,569.43c-1.65,1.88-8.99,20.03-7.43,17.8,15.16-21.68,29.58-.56,29.58-.56l-7.16-17.15s-8.82-7.11-14.98-.09Z"/>
    </g>
  </g>
</svg>