<?xml version="1.0" encoding="UTF-8"?>
<svg id="Ebene_1" data-name="Ebene 1" xmlns="http://www.w3.org/2000/svg" width="633.85" height="616.92" viewBox="0 0 633.85 616.92">
  <defs>
    <style>
      .cls-1 {
        fill: #f8f2d7;
      }

      .cls-1, .cls-2, .cls-3 {
        stroke-width: 0px;
      }

      .cls-3 {
        fill: #1d1d1b;
      }
    </style>
  </defs>
  <rect class="cls-1" width="607.69" height="609.23"/>
  <g>
    <path class="cls-2" d="m185.97,57.2h-12.3v-4.44h29.94v4.44h-12.36v36h-5.28v-36Z"/>
    <path class="cls-2" d="m229.95,78.44c0,10.74-7.44,15.42-14.46,15.42-7.86,0-13.92-5.76-13.92-14.94,0-9.72,6.36-15.42,14.4-15.42s13.98,6.06,13.98,14.94Zm-23.04.3c0,6.36,3.66,11.16,8.82,11.16s8.82-4.74,8.82-11.28c0-4.92-2.46-11.16-8.7-11.16s-8.94,5.76-8.94,11.28Z"/>
    <path class="cls-2" d="m249.51,53.3c3.18-.48,6.96-.84,11.1-.84,7.5,0,12.84,1.74,16.38,5.04,3.6,3.3,5.7,7.98,5.7,14.52s-2.04,12-5.82,15.72c-3.78,3.78-10.02,5.82-17.88,5.82-3.72,0-6.84-.18-9.48-.48v-39.78Zm5.22,35.76c1.32.24,3.24.3,5.28.3,11.16,0,17.22-6.24,17.22-17.16.06-9.54-5.34-15.6-16.38-15.6-2.7,0-4.74.24-6.12.54v31.92Z"/>
    <path class="cls-2" d="m315.81,78.44c0,10.74-7.44,15.42-14.46,15.42-7.86,0-13.92-5.76-13.92-14.94,0-9.72,6.36-15.42,14.4-15.42s13.98,6.06,13.98,14.94Zm-23.04.3c0,6.36,3.66,11.16,8.82,11.16s8.82-4.74,8.82-11.28c0-4.92-2.46-11.16-8.7-11.16s-8.94,5.76-8.94,11.28Z"/>
    <path class="cls-2" d="m335.37,52.76h5.22v36.06h17.28v4.38h-22.5v-40.44Z"/>
    <path class="cls-2" d="m369.39,56c.06,1.8-1.26,3.24-3.36,3.24-1.86,0-3.18-1.44-3.18-3.24s1.38-3.3,3.3-3.3,3.24,1.44,3.24,3.3Zm-5.88,37.2v-29.04h5.28v29.04h-5.28Z"/>
    <path class="cls-2" d="m376.83,87.8c1.56,1.02,4.32,2.1,6.96,2.1,3.84,0,5.64-1.92,5.64-4.32,0-2.52-1.5-3.9-5.4-5.34-5.22-1.86-7.68-4.74-7.68-8.22,0-4.68,3.78-8.52,10.02-8.52,2.94,0,5.52.84,7.14,1.8l-1.32,3.84c-1.14-.72-3.24-1.68-5.94-1.68-3.12,0-4.86,1.8-4.86,3.96,0,2.4,1.74,3.48,5.52,4.92,5.04,1.92,7.62,4.44,7.62,8.76,0,5.1-3.96,8.7-10.86,8.7-3.18,0-6.12-.78-8.16-1.98l1.32-4.02Z"/>
    <path class="cls-2" d="m407.67,55.82v8.34h7.56v4.02h-7.56v15.66c0,3.6,1.02,5.64,3.96,5.64,1.38,0,2.4-.18,3.06-.36l.24,3.96c-1.02.42-2.64.72-4.68.72-2.46,0-4.44-.78-5.7-2.22-1.5-1.56-2.04-4.14-2.04-7.56v-15.84h-4.5v-4.02h4.5v-6.96l5.16-1.38Z"/>
    <path class="cls-2" d="m423.75,79.64c.12,7.14,4.68,10.08,9.96,10.08,3.78,0,6.06-.66,8.04-1.5l.9,3.78c-1.86.84-5.04,1.8-9.66,1.8-8.94,0-14.28-5.88-14.28-14.64s5.16-15.66,13.62-15.66c9.48,0,12,8.34,12,13.68,0,1.08-.12,1.92-.18,2.46h-20.4Zm15.48-3.78c.06-3.36-1.38-8.58-7.32-8.58-5.34,0-7.68,4.92-8.1,8.58h15.42Z"/>
  </g>
  <g>
    <path class="cls-2" d="m103,177.72c0,9.28-5.64,14.2-12.52,14.2s-12.12-5.52-12.12-13.68c0-8.56,5.32-14.16,12.52-14.16s12.12,5.64,12.12,13.64Zm-20.92.44c0,5.76,3.12,10.92,8.6,10.92s8.64-5.08,8.64-11.2c0-5.36-2.8-10.96-8.6-10.96s-8.64,5.32-8.64,11.24Z"/>
    <path class="cls-2" d="m107.24,191.48c.08-1.32.16-3.28.16-5v-23.4h3.48v12.16h.08c1.24-2.16,3.48-3.56,6.6-3.56,4.8,0,8.2,4,8.16,9.88,0,6.92-4.36,10.36-8.68,10.36-2.8,0-5.04-1.08-6.48-3.64h-.12l-.16,3.2h-3.04Zm3.64-7.76c0,.44.08.88.16,1.28.68,2.44,2.72,4.12,5.28,4.12,3.68,0,5.88-3,5.88-7.44,0-3.88-2-7.2-5.76-7.2-2.4,0-4.64,1.64-5.36,4.32-.08.4-.2.88-.2,1.44v3.48Z"/>
    <path class="cls-2" d="m129.68,187.88c1.04.68,2.88,1.4,4.64,1.4,2.56,0,3.76-1.28,3.76-2.88,0-1.68-1-2.6-3.6-3.56-3.48-1.24-5.12-3.16-5.12-5.48,0-3.12,2.52-5.68,6.68-5.68,1.96,0,3.68.56,4.76,1.2l-.88,2.56c-.76-.48-2.16-1.12-3.96-1.12-2.08,0-3.24,1.2-3.24,2.64,0,1.6,1.16,2.32,3.68,3.28,3.36,1.28,5.08,2.96,5.08,5.84,0,3.4-2.64,5.8-7.24,5.8-2.12,0-4.08-.52-5.44-1.32l.88-2.68Z"/>
    <path class="cls-2" d="m150.24,166.56v5.56h5.04v2.68h-5.04v10.44c0,2.4.68,3.76,2.64,3.76.92,0,1.6-.12,2.04-.24l.16,2.64c-.68.28-1.76.48-3.12.48-1.64,0-2.96-.52-3.8-1.48-1-1.04-1.36-2.76-1.36-5.04v-10.56h-3v-2.68h3v-4.64l3.44-.92Z"/>
    <path class="cls-2" d="m169.68,182.44c.08,4.76,3.12,6.72,6.64,6.72,2.52,0,4.04-.44,5.36-1l.6,2.52c-1.24.56-3.36,1.2-6.44,1.2-5.96,0-9.52-3.92-9.52-9.76s3.44-10.44,9.08-10.44c6.32,0,8,5.56,8,9.12,0,.72-.08,1.28-.12,1.64h-13.6Zm10.32-2.52c.04-2.24-.92-5.72-4.88-5.72-3.56,0-5.12,3.28-5.4,5.72h10.28Z"/>
    <path class="cls-2" d="m187.76,178.16c0-2.28-.04-4.24-.16-6.04h3.08l.12,3.8h.16c.88-2.6,3-4.24,5.36-4.24.4,0,.68.04,1,.12v3.32c-.36-.08-.72-.12-1.2-.12-2.48,0-4.24,1.88-4.72,4.52-.08.48-.16,1.04-.16,1.64v10.32h-3.48v-13.32Z"/>
    <path class="cls-2" d="m201,177.36c0-2-.04-3.64-.16-5.24h3.12l.2,3.2h.08c.96-1.84,3.2-3.64,6.4-3.64,2.68,0,6.84,1.6,6.84,8.24v11.56h-3.52v-11.16c0-3.12-1.16-5.72-4.48-5.72-2.32,0-4.12,1.64-4.72,3.6-.16.44-.24,1.04-.24,1.64v11.64h-3.52v-14.12Z"/>
    <path class="cls-2" d="m227.28,166.56v5.56h5.04v2.68h-5.04v10.44c0,2.4.68,3.76,2.64,3.76.92,0,1.6-.12,2.04-.24l.16,2.64c-.68.28-1.76.48-3.12.48-1.64,0-2.96-.52-3.8-1.48-1-1.04-1.36-2.76-1.36-5.04v-10.56h-3v-2.68h3v-4.64l3.44-.92Z"/>
    <path class="cls-2" d="m238,182.44c.08,4.76,3.12,6.72,6.64,6.72,2.52,0,4.04-.44,5.36-1l.6,2.52c-1.24.56-3.36,1.2-6.44,1.2-5.96,0-9.52-3.92-9.52-9.76s3.44-10.44,9.08-10.44c6.32,0,8,5.56,8,9.12,0,.72-.08,1.28-.12,1.64h-13.6Zm10.32-2.52c.04-2.24-.92-5.72-4.88-5.72-3.56,0-5.12,3.28-5.4,5.72h10.28Z"/>
    <path class="cls-2" d="m256.08,177.36c0-2-.04-3.64-.16-5.24h3.12l.2,3.2h.08c.96-1.84,3.2-3.64,6.4-3.64,2.68,0,6.84,1.6,6.84,8.24v11.56h-3.52v-11.16c0-3.12-1.16-5.72-4.48-5.72-2.32,0-4.12,1.64-4.72,3.6-.16.44-.24,1.04-.24,1.64v11.64h-3.52v-14.12Z"/>
    <path class="cls-2" d="m103,240.92c0,9.28-5.64,14.2-12.52,14.2s-12.12-5.52-12.12-13.68c0-8.56,5.32-14.16,12.52-14.16s12.12,5.64,12.12,13.64Zm-20.92.44c0,5.76,3.12,10.92,8.6,10.92s8.64-5.08,8.64-11.2c0-5.36-2.8-10.96-8.6-10.96s-8.64,5.32-8.64,11.24Z"/>
    <path class="cls-2" d="m107.24,254.68c.08-1.32.16-3.28.16-5v-23.4h3.48v12.16h.08c1.24-2.16,3.48-3.56,6.6-3.56,4.8,0,8.2,4,8.16,9.88,0,6.92-4.36,10.36-8.68,10.36-2.8,0-5.04-1.08-6.48-3.64h-.12l-.16,3.2h-3.04Zm3.64-7.76c0,.44.08.88.16,1.28.68,2.44,2.72,4.12,5.28,4.12,3.68,0,5.88-3,5.88-7.44,0-3.88-2-7.2-5.76-7.2-2.4,0-4.64,1.64-5.36,4.32-.08.4-.2.88-.2,1.44v3.48Z"/>
    <path class="cls-2" d="m129.68,251.08c1.04.68,2.88,1.4,4.64,1.4,2.56,0,3.76-1.28,3.76-2.88,0-1.68-1-2.6-3.6-3.56-3.48-1.24-5.12-3.16-5.12-5.48,0-3.12,2.52-5.68,6.68-5.68,1.96,0,3.68.56,4.76,1.2l-.88,2.56c-.76-.48-2.16-1.12-3.96-1.12-2.08,0-3.24,1.2-3.24,2.64,0,1.6,1.16,2.32,3.68,3.28,3.36,1.28,5.08,2.96,5.08,5.84,0,3.4-2.64,5.8-7.24,5.8-2.12,0-4.08-.52-5.44-1.32l.88-2.68Z"/>
    <path class="cls-2" d="m150.24,229.76v5.56h5.04v2.68h-5.04v10.44c0,2.4.68,3.76,2.64,3.76.92,0,1.6-.12,2.04-.24l.16,2.64c-.68.28-1.76.48-3.12.48-1.64,0-2.96-.52-3.8-1.48-1-1.04-1.36-2.76-1.36-5.04v-10.56h-3v-2.68h3v-4.64l3.44-.92Z"/>
    <path class="cls-2" d="m169.08,235.32l3.8,10.88c.64,1.76,1.16,3.36,1.56,4.96h.12c.44-1.6,1-3.2,1.64-4.96l3.76-10.88h3.68l-7.6,19.36h-3.36l-7.36-19.36h3.76Z"/>
    <path class="cls-2" d="m188.52,245.64c.08,4.76,3.12,6.72,6.64,6.72,2.52,0,4.04-.44,5.36-1l.6,2.52c-1.24.56-3.36,1.2-6.44,1.2-5.96,0-9.52-3.92-9.52-9.76s3.44-10.44,9.08-10.44c6.32,0,8,5.56,8,9.12,0,.72-.08,1.28-.12,1.64h-13.6Zm10.32-2.52c.04-2.24-.92-5.72-4.88-5.72-3.56,0-5.12,3.28-5.4,5.72h10.28Z"/>
    <path class="cls-2" d="m206.6,241.36c0-2.28-.04-4.24-.16-6.04h3.08l.12,3.8h.16c.88-2.6,3-4.24,5.36-4.24.4,0,.68.04,1,.12v3.32c-.36-.08-.72-.12-1.2-.12-2.48,0-4.24,1.88-4.72,4.52-.08.48-.16,1.04-.16,1.64v10.32h-3.48v-13.32Z"/>
    <path class="cls-2" d="m223.32,244.2h.08c.48-.68,1.16-1.52,1.72-2.2l5.68-6.68h4.24l-7.48,7.96,8.52,11.4h-4.28l-6.68-9.28-1.8,2v7.28h-3.48v-28.4h3.48v17.92Z"/>
    <path class="cls-2" d="m250.04,254.68l-.28-2.44h-.12c-1.08,1.52-3.16,2.88-5.92,2.88-3.92,0-5.92-2.76-5.92-5.56,0-4.68,4.16-7.24,11.64-7.2v-.4c0-1.6-.44-4.48-4.4-4.48-1.8,0-3.68.56-5.04,1.44l-.8-2.32c1.6-1.04,3.92-1.72,6.36-1.72,5.92,0,7.36,4.04,7.36,7.92v7.24c0,1.68.08,3.32.32,4.64h-3.2Zm-.52-9.88c-3.84-.08-8.2.6-8.2,4.36,0,2.28,1.52,3.36,3.32,3.36,2.52,0,4.12-1.6,4.68-3.24.12-.36.2-.76.2-1.12v-3.36Z"/>
    <path class="cls-2" d="m274.8,249.4c0,2,.04,3.76.16,5.28h-3.12l-.2-3.16h-.08c-.92,1.56-2.96,3.6-6.4,3.6-3.04,0-6.68-1.68-6.68-8.48v-11.32h3.52v10.72c0,3.68,1.12,6.16,4.32,6.16,2.36,0,4-1.64,4.64-3.2.2-.52.32-1.16.32-1.8v-11.88h3.52v14.08Z"/>
    <path class="cls-2" d="m281,254.68v-16.68h-2.72v-2.68h2.72v-.92c0-2.72.6-5.2,2.24-6.76,1.32-1.28,3.08-1.8,4.72-1.8,1.24,0,2.32.28,3,.56l-.48,2.72c-.52-.24-1.24-.44-2.24-.44-3,0-3.76,2.64-3.76,5.6v1.04h4.68v2.68h-4.68v16.68h-3.48Z"/>
    <path class="cls-2" d="m293.76,245.64c.08,4.76,3.12,6.72,6.64,6.72,2.52,0,4.04-.44,5.36-1l.6,2.52c-1.24.56-3.36,1.2-6.44,1.2-5.96,0-9.52-3.92-9.52-9.76s3.44-10.44,9.08-10.44c6.32,0,8,5.56,8,9.12,0,.72-.08,1.28-.12,1.64h-13.6Zm10.32-2.52c.04-2.24-.92-5.72-4.88-5.72-3.56,0-5.12,3.28-5.4,5.72h10.28Z"/>
    <path class="cls-2" d="m311.84,240.56c0-2-.04-3.64-.16-5.24h3.12l.2,3.2h.08c.96-1.84,3.2-3.64,6.4-3.64,2.68,0,6.84,1.6,6.84,8.24v11.56h-3.52v-11.16c0-3.12-1.16-5.72-4.48-5.72-2.32,0-4.12,1.64-4.72,3.6-.16.44-.24,1.04-.24,1.64v11.64h-3.52v-14.12Z"/>
    <path class="cls-2" d="m93.92,305.24h-10.48v9.72h11.68v2.92h-15.16v-26.96h14.56v2.92h-11.08v8.52h10.48v2.88Z"/>
    <path class="cls-2" d="m103.44,293.08c.04,1.2-.84,2.16-2.24,2.16-1.24,0-2.12-.96-2.12-2.16s.92-2.2,2.2-2.2,2.16.96,2.16,2.2Zm-3.92,24.8v-19.36h3.52v19.36h-3.52Z"/>
    <path class="cls-2" d="m108.88,303.76c0-2-.04-3.64-.16-5.24h3.12l.2,3.2h.08c.96-1.84,3.2-3.64,6.4-3.64,2.68,0,6.84,1.6,6.84,8.24v11.56h-3.52v-11.16c0-3.12-1.16-5.72-4.48-5.72-2.32,0-4.12,1.64-4.72,3.6-.16.44-.24,1.04-.24,1.64v11.64h-3.52v-14.12Z"/>
    <path class="cls-2" d="m131.08,289.48h3.52v28.4h-3.52v-28.4Z"/>
    <path class="cls-2" d="m151.24,317.88l-.28-2.44h-.12c-1.08,1.52-3.16,2.88-5.92,2.88-3.92,0-5.92-2.76-5.92-5.56,0-4.68,4.16-7.24,11.64-7.2v-.4c0-1.6-.44-4.48-4.4-4.48-1.8,0-3.68.56-5.04,1.44l-.8-2.32c1.6-1.04,3.92-1.72,6.36-1.72,5.92,0,7.36,4.04,7.36,7.92v7.24c0,1.68.08,3.32.32,4.64h-3.2Zm-.52-9.88c-3.84-.08-8.2.6-8.2,4.36,0,2.28,1.52,3.36,3.32,3.36,2.52,0,4.12-1.6,4.68-3.24.12-.36.2-.76.2-1.12v-3.36Z"/>
    <path class="cls-2" d="m176.52,289.48v23.4c0,1.72.04,3.68.16,5h-3.16l-.16-3.36h-.08c-1.08,2.16-3.44,3.8-6.6,3.8-4.68,0-8.28-3.96-8.28-9.84-.04-6.44,3.96-10.4,8.68-10.4,2.96,0,4.96,1.4,5.84,2.96h.08v-11.56h3.52Zm-3.52,16.92c0-.44-.04-1.04-.16-1.48-.52-2.24-2.44-4.08-5.08-4.08-3.64,0-5.8,3.2-5.8,7.48,0,3.92,1.92,7.16,5.72,7.16,2.36,0,4.52-1.56,5.16-4.2.12-.48.16-.96.16-1.52v-3.36Z"/>
    <path class="cls-2" d="m198.56,312.6c0,2,.04,3.76.16,5.28h-3.12l-.2-3.16h-.08c-.92,1.56-2.96,3.6-6.4,3.6-3.04,0-6.68-1.68-6.68-8.48v-11.32h3.52v10.72c0,3.68,1.12,6.16,4.32,6.16,2.36,0,4-1.64,4.64-3.2.2-.52.32-1.16.32-1.8v-11.88h3.52v14.08Z"/>
    <path class="cls-2" d="m204.4,303.76c0-2-.04-3.64-.16-5.24h3.12l.2,3.2h.08c.96-1.84,3.2-3.64,6.4-3.64,2.68,0,6.84,1.6,6.84,8.24v11.56h-3.52v-11.16c0-3.12-1.16-5.72-4.48-5.72-2.32,0-4.12,1.64-4.72,3.6-.16.44-.24,1.04-.24,1.64v11.64h-3.52v-14.12Z"/>
    <path class="cls-2" d="m243.28,298.52c-.08,1.4-.16,2.96-.16,5.32v11.24c0,4.44-.88,7.16-2.76,8.84-1.88,1.76-4.6,2.32-7.04,2.32s-4.88-.56-6.44-1.6l.88-2.68c1.28.8,3.28,1.52,5.68,1.52,3.6,0,6.24-1.88,6.24-6.76v-2.16h-.08c-1.08,1.8-3.16,3.24-6.16,3.24-4.8,0-8.24-4.08-8.24-9.44,0-6.56,4.28-10.28,8.72-10.28,3.36,0,5.2,1.76,6.04,3.36h.08l.16-2.92h3.08Zm-3.64,7.64c0-.6-.04-1.12-.2-1.6-.64-2.04-2.36-3.72-4.92-3.72-3.36,0-5.76,2.84-5.76,7.32,0,3.8,1.92,6.96,5.72,6.96,2.16,0,4.12-1.36,4.88-3.6.2-.6.28-1.28.28-1.88v-3.48Z"/>
    <path class="cls-2" d="m250.92,308.84c.08,4.76,3.12,6.72,6.64,6.72,2.52,0,4.04-.44,5.36-1l.6,2.52c-1.24.56-3.36,1.2-6.44,1.2-5.96,0-9.52-3.92-9.52-9.76s3.44-10.44,9.08-10.44c6.32,0,8,5.56,8,9.12,0,.72-.08,1.28-.12,1.64h-13.6Zm10.32-2.52c.04-2.24-.92-5.72-4.88-5.72-3.56,0-5.12,3.28-5.4,5.72h10.28Z"/>
    <path class="cls-2" d="m269,303.76c0-2-.04-3.64-.16-5.24h3.12l.2,3.2h.08c.96-1.84,3.2-3.64,6.4-3.64,2.68,0,6.84,1.6,6.84,8.24v11.56h-3.52v-11.16c0-3.12-1.16-5.72-4.48-5.72-2.32,0-4.12,1.64-4.72,3.6-.16.44-.24,1.04-.24,1.64v11.64h-3.52v-14.12Z"/>
    <path class="cls-2" d="m301.04,298.52l3.8,10.88c.64,1.76,1.16,3.36,1.56,4.96h.12c.44-1.6,1-3.2,1.64-4.96l3.76-10.88h3.68l-7.6,19.36h-3.36l-7.36-19.36h3.76Z"/>
    <path class="cls-2" d="m320.48,308.84c.08,4.76,3.12,6.72,6.64,6.72,2.52,0,4.04-.44,5.36-1l.6,2.52c-1.24.56-3.36,1.2-6.44,1.2-5.96,0-9.52-3.92-9.52-9.76s3.44-10.44,9.08-10.44c6.32,0,8,5.56,8,9.12,0,.72-.08,1.28-.12,1.64h-13.6Zm10.32-2.52c.04-2.24-.92-5.72-4.88-5.72-3.56,0-5.12,3.28-5.4,5.72h10.28Z"/>
    <path class="cls-2" d="m338.56,304.56c0-2.28-.04-4.24-.16-6.04h3.08l.12,3.8h.16c.88-2.6,3-4.24,5.36-4.24.4,0,.68.04,1,.12v3.32c-.36-.08-.72-.12-1.2-.12-2.48,0-4.24,1.88-4.72,4.52-.08.48-.16,1.04-.16,1.64v10.32h-3.48v-13.32Z"/>
    <path class="cls-2" d="m351.16,314.28c1.04.68,2.88,1.4,4.64,1.4,2.56,0,3.76-1.28,3.76-2.88,0-1.68-1-2.6-3.6-3.56-3.48-1.24-5.12-3.16-5.12-5.48,0-3.12,2.52-5.68,6.68-5.68,1.96,0,3.68.56,4.76,1.2l-.88,2.56c-.76-.48-2.16-1.12-3.96-1.12-2.08,0-3.24,1.2-3.24,2.64,0,1.6,1.16,2.32,3.68,3.28,3.36,1.28,5.08,2.96,5.08,5.84,0,3.4-2.64,5.8-7.24,5.8-2.12,0-4.08-.52-5.44-1.32l.88-2.68Z"/>
    <path class="cls-2" d="m381.28,317.16c-.92.48-2.96,1.12-5.56,1.12-5.84,0-9.64-3.96-9.64-9.88s4.08-10.28,10.4-10.28c2.08,0,3.92.52,4.88,1l-.8,2.72c-.84-.48-2.16-.92-4.08-.92-4.44,0-6.84,3.28-6.84,7.32,0,4.48,2.88,7.24,6.72,7.24,2,0,3.32-.52,4.32-.96l.6,2.64Z"/>
    <path class="cls-2" d="m385.4,289.48h3.52v12.08h.08c.56-1,1.44-1.88,2.52-2.48,1.04-.6,2.28-1,3.6-1,2.6,0,6.76,1.6,6.76,8.28v11.52h-3.52v-11.12c0-3.12-1.16-5.76-4.48-5.76-2.28,0-4.08,1.6-4.72,3.52-.2.48-.24,1-.24,1.68v11.68h-3.52v-28.4Z"/>
    <path class="cls-2" d="m411.52,293.08c.04,1.2-.84,2.16-2.24,2.16-1.24,0-2.12-.96-2.12-2.16s.92-2.2,2.2-2.2,2.16.96,2.16,2.2Zm-3.92,24.8v-19.36h3.52v19.36h-3.52Z"/>
    <path class="cls-2" d="m430.76,317.16c-.92.48-2.96,1.12-5.56,1.12-5.84,0-9.64-3.96-9.64-9.88s4.08-10.28,10.4-10.28c2.08,0,3.92.52,4.88,1l-.8,2.72c-.84-.48-2.16-.92-4.08-.92-4.44,0-6.84,3.28-6.84,7.32,0,4.48,2.88,7.24,6.72,7.24,2,0,3.32-.52,4.32-.96l.6,2.64Z"/>
    <path class="cls-2" d="m438.36,307.4h.08c.48-.68,1.16-1.52,1.72-2.2l5.68-6.68h4.24l-7.48,7.96,8.52,11.4h-4.28l-6.68-9.28-1.8,2v7.28h-3.48v-28.4h3.48v17.92Z"/>
    <path class="cls-2" d="m455.6,308.84c.08,4.76,3.12,6.72,6.64,6.72,2.52,0,4.04-.44,5.36-1l.6,2.52c-1.24.56-3.36,1.2-6.44,1.2-5.96,0-9.52-3.92-9.52-9.76s3.44-10.44,9.08-10.44c6.32,0,8,5.56,8,9.12,0,.72-.08,1.28-.12,1.64h-13.6Zm10.32-2.52c.04-2.24-.92-5.72-4.88-5.72-3.56,0-5.12,3.28-5.4,5.72h10.28Z"/>
    <path class="cls-2" d="m473.68,303.76c0-2-.04-3.64-.16-5.24h3.12l.2,3.2h.08c.96-1.84,3.2-3.64,6.4-3.64,2.68,0,6.84,1.6,6.84,8.24v11.56h-3.52v-11.16c0-3.12-1.16-5.72-4.48-5.72-2.32,0-4.12,1.64-4.72,3.6-.16.44-.24,1.04-.24,1.64v11.64h-3.52v-14.12Z"/>
    <path class="cls-2" d="m79.96,354.48c2.12-.32,4.64-.56,7.4-.56,5,0,8.56,1.16,10.92,3.36,2.4,2.2,3.8,5.32,3.8,9.68s-1.36,8-3.88,10.48c-2.52,2.52-6.68,3.88-11.92,3.88-2.48,0-4.56-.12-6.32-.32v-26.52Zm3.48,23.84c.88.16,2.16.2,3.52.2,7.44,0,11.48-4.16,11.48-11.44.04-6.36-3.56-10.4-10.92-10.4-1.8,0-3.16.16-4.08.36v21.28Z"/>
    <path class="cls-2" d="m108.6,372.04c.08,4.76,3.12,6.72,6.64,6.72,2.52,0,4.04-.44,5.36-1l.6,2.52c-1.24.56-3.36,1.2-6.44,1.2-5.96,0-9.52-3.92-9.52-9.76s3.44-10.44,9.08-10.44c6.32,0,8,5.56,8,9.12,0,.72-.08,1.28-.12,1.64h-13.6Zm10.32-2.52c.04-2.24-.92-5.72-4.88-5.72-3.56,0-5.12,3.28-5.4,5.72h10.28Z"/>
    <path class="cls-2" d="m130.16,370.6h.08c.48-.68,1.16-1.52,1.72-2.2l5.68-6.68h4.24l-7.48,7.96,8.52,11.4h-4.28l-6.68-9.28-1.8,2v7.28h-3.48v-28.39h3.48v17.92Z"/>
    <path class="cls-2" d="m162.96,371.24c0,7.16-4.96,10.28-9.64,10.28-5.24,0-9.28-3.84-9.28-9.96,0-6.48,4.24-10.28,9.6-10.28s9.32,4.04,9.32,9.96Zm-15.36.2c0,4.24,2.44,7.44,5.88,7.44s5.88-3.16,5.88-7.52c0-3.28-1.64-7.44-5.8-7.44s-5.96,3.84-5.96,7.52Z"/>
    <path class="cls-2" d="m179.36,370.6h.08c.48-.68,1.16-1.52,1.72-2.2l5.68-6.68h4.24l-7.48,7.96,8.52,11.4h-4.28l-6.68-9.28-1.8,2v7.28h-3.48v-28.39h3.48v17.92Z"/>
    <path class="cls-2" d="m206.08,381.08l-.28-2.44h-.12c-1.08,1.52-3.16,2.88-5.92,2.88-3.92,0-5.92-2.76-5.92-5.56,0-4.68,4.16-7.24,11.64-7.2v-.4c0-1.6-.44-4.48-4.4-4.48-1.8,0-3.68.56-5.04,1.44l-.8-2.32c1.6-1.04,3.92-1.72,6.36-1.72,5.92,0,7.36,4.04,7.36,7.92v7.24c0,1.68.08,3.32.32,4.64h-3.2Zm-.52-9.88c-3.84-.08-8.2.6-8.2,4.36,0,2.28,1.52,3.36,3.32,3.36,2.52,0,4.12-1.6,4.68-3.24.12-.36.2-.76.2-1.12v-3.36Z"/>
    <path class="cls-2" d="m230.84,375.8c0,2,.04,3.76.16,5.28h-3.12l-.2-3.16h-.08c-.92,1.56-2.96,3.6-6.4,3.6-3.04,0-6.68-1.68-6.68-8.48v-11.32h3.52v10.72c0,3.68,1.12,6.16,4.32,6.16,2.36,0,4-1.64,4.64-3.2.2-.52.32-1.16.32-1.8v-11.88h3.52v14.08Z"/>
    <path class="cls-2" d="m237.04,381.08v-16.68h-2.72v-2.68h2.72v-.92c0-2.72.6-5.2,2.24-6.76,1.32-1.28,3.08-1.8,4.72-1.8,1.24,0,2.32.28,3,.56l-.48,2.72c-.52-.24-1.24-.44-2.24-.44-3,0-3.76,2.64-3.76,5.6v1.04h4.68v2.68h-4.68v16.68h-3.48Z"/>
    <path class="cls-2" d="m249.8,372.04c.08,4.76,3.12,6.72,6.64,6.72,2.52,0,4.04-.44,5.36-1l.6,2.52c-1.24.56-3.36,1.2-6.44,1.2-5.96,0-9.52-3.92-9.52-9.76s3.44-10.44,9.08-10.44c6.32,0,8,5.56,8,9.12,0,.72-.08,1.28-.12,1.64h-13.6Zm10.32-2.52c.04-2.24-.92-5.72-4.88-5.72-3.56,0-5.12,3.28-5.4,5.72h10.28Z"/>
    <path class="cls-2" d="m267.88,366.96c0-2-.04-3.64-.16-5.24h3.12l.2,3.2h.08c.96-1.84,3.2-3.64,6.4-3.64,2.68,0,6.84,1.6,6.84,8.24v11.56h-3.52v-11.16c0-3.12-1.16-5.72-4.48-5.72-2.32,0-4.12,1.64-4.72,3.6-.16.44-.24,1.04-.24,1.64v11.64h-3.52v-14.12Z"/>
    <path class="cls-2" d="m79.96,417.32h3.48v13h.12c.72-1.04,1.44-2,2.12-2.88l8.24-10.12h4.32l-9.76,11.44,10.52,15.52h-4.12l-8.88-13.24-2.56,2.96v10.28h-3.48v-26.96Z"/>
    <path class="cls-2" d="m119.04,434.44c0,7.16-4.96,10.28-9.64,10.28-5.24,0-9.28-3.84-9.28-9.96,0-6.48,4.24-10.28,9.6-10.28s9.32,4.04,9.32,9.96Zm-15.36.2c0,4.24,2.44,7.44,5.88,7.44s5.88-3.16,5.88-7.52c0-3.28-1.64-7.44-5.8-7.44s-5.96,3.84-5.96,7.52Z"/>
    <path class="cls-2" d="m137.28,443.56c-.92.48-2.96,1.12-5.56,1.12-5.84,0-9.64-3.96-9.64-9.88s4.08-10.28,10.4-10.28c2.08,0,3.92.52,4.88,1l-.8,2.72c-.84-.48-2.16-.92-4.08-.92-4.44,0-6.84,3.28-6.84,7.32,0,4.48,2.88,7.24,6.72,7.24,2,0,3.32-.52,4.32-.96l.6,2.64Z"/>
    <path class="cls-2" d="m141.4,415.88h3.52v12.08h.08c.56-1,1.44-1.88,2.52-2.48,1.04-.6,2.28-1,3.6-1,2.6,0,6.76,1.6,6.76,8.28v11.52h-3.52v-11.12c0-3.12-1.16-5.76-4.48-5.76-2.28,0-4.08,1.6-4.72,3.52-.2.48-.24,1-.24,1.68v11.68h-3.52v-28.4Z"/>
    <path class="cls-2" d="m165.56,435.24c.08,4.76,3.12,6.72,6.64,6.72,2.52,0,4.04-.44,5.36-1l.6,2.52c-1.24.56-3.36,1.2-6.44,1.2-5.96,0-9.52-3.92-9.52-9.76s3.44-10.44,9.08-10.44c6.32,0,8,5.56,8,9.12,0,.72-.08,1.28-.12,1.64h-13.6Zm10.32-2.52c.04-2.24-.92-5.72-4.88-5.72-3.56,0-5.12,3.28-5.4,5.72h10.28Z"/>
    <path class="cls-2" d="m183.64,430.16c0-2-.04-3.64-.16-5.24h3.12l.2,3.2h.08c.96-1.84,3.2-3.64,6.4-3.64,2.68,0,6.84,1.6,6.84,8.24v11.56h-3.52v-11.16c0-3.12-1.16-5.72-4.48-5.72-2.32,0-4.12,1.64-4.72,3.6-.16.44-.24,1.04-.24,1.64v11.64h-3.52v-14.12Z"/>
  </g>
  <g id="Memory">
    <path class="cls-3" d="m50.65,167.64v19.85h-19.85v-19.85h19.85m7.81-7.81H22.99v35.47h35.47v-35.47h0Z"/>
  </g>
  <g id="Memory-2" data-name="Memory">
    <path class="cls-3" d="m49.15,233.92v19.85h-19.85v-19.85h19.85m7.81-7.81H21.5v35.47h35.47v-35.47h0Z"/>
  </g>
  <g id="Memory-3" data-name="Memory">
    <path class="cls-3" d="m49.23,298.46v19.85h-19.85v-19.85h19.85m7.81-7.81H21.57v35.47h35.47v-35.47h0Z"/>
  </g>
  <g id="Memory-4" data-name="Memory">
    <path class="cls-3" d="m49.23,357.08v19.85h-19.85v-19.85h19.85m7.81-7.81H21.57v35.47h35.47v-35.47h0Z"/>
  </g>
  <g id="Memory-5" data-name="Memory">
    <path class="cls-3" d="m49.15,420.08v19.85h-19.85v-19.85h19.85m7.81-7.81H21.5v35.47h35.47v-35.47h0Z"/>
  </g>
</svg>