<?xml version="1.0" encoding="UTF-8"?>
<svg xmlns="http://www.w3.org/2000/svg" viewBox="0 0 1920 1080">
  <defs>
    <style>
      .cls-1 {
        fill: #fcffd9;
      }

      .cls-1, .cls-2, .cls-3, .cls-4, .cls-5 {
        stroke: #81b776;
        stroke-width: 1.55px;
      }

      .cls-1, .cls-3, .cls-4 {
        stroke-miterlimit: 10;
      }

      .cls-2 {
        fill: #c4eb91;
      }

      .cls-2, .cls-5 {
        stroke-linejoin: round;
      }

      .cls-6 {
        fill: #ffd500;
      }

      .cls-6, .cls-7, .cls-8 {
        stroke-width: 0px;
      }

      .cls-3 {
        fill: none;
      }

      .cls-7 {
        fill: #e3bf09;
      }

      .cls-4 {
        fill: #dde0b4;
      }

      .cls-8 {
        fill: #936c57;
      }

      .cls-5 {
        fill: #a2bf7c;
        stroke-linecap: round;
      }
    </style>
  </defs>
  <g id="Ebene_5" data-name="Ebene 5">
    <rect class="cls-8" x="-55.51" y="655.04" width="1996.09" height="442.72"/>
  </g>
  <g id="Layer_2" data-name="Layer 2">
    <g id="Layer_3" data-name="Layer 3">
      <g>
        <polygon class="cls-2" points="769.25 708.18 712.35 608.07 965.16 576.55 1028.48 671.16 769.25 708.18"/>
        <polygon class="cls-5" points="712.35 608.07 706.04 649.34 762.54 747.01 771.3 707.73 712.35 608.07"/>
        <polygon class="cls-5" points="1028.33 671.63 1020.89 711.14 762.54 747.01 771.98 709.09 1028.33 671.63"/>
        <path class="cls-3" d="m775.07,685.84c-1.3.42-35.28-58.66-35.28-58.66,0,0,9.2.06,10.67-9.08.06-.37,193.98-29.05,195.88-26.25,5.38,7.91,16.57,6.33,16.57,6.33l34.71,54.35s-12.2.14-8.94,12.94c.24.94-198.93,28.26-198.93,28.26,0,0-3.23-11.61-14.66-7.89Z"/>
        <ellipse class="cls-3" cx="943.49" cy="627.77" rx="10.26" ry="13.57" transform="translate(-177.11 458.88) rotate(-25.07)"/>
        <ellipse class="cls-3" cx="796.44" cy="643.83" rx="10.26" ry="13.57" transform="translate(-197.76 398.09) rotate(-25.07)"/>
        <line class="cls-5" x1="825.65" y1="729.79" x2="897.2" y2="719.66"/>
        <line class="cls-5" x1="954.63" y1="688.52" x2="1026.18" y2="678.39"/>
        <line class="cls-5" x1="950.4" y1="715.61" x2="1021.95" y2="705.47"/>
        <line class="cls-5" x1="926.23" y1="700.36" x2="997.78" y2="690.23"/>
        <line class="cls-5" x1="995.71" y1="696.75" x2="1021.27" y2="693.83"/>
        <line class="cls-5" x1="834.23" y1="708.53" x2="859.8" y2="705.61"/>
        <line class="cls-5" x1="768.6" y1="723.21" x2="840.15" y2="713.08"/>
        <line class="cls-5" x1="788.2" y1="726.57" x2="836.91" y2="720.81"/>
        <line class="cls-5" x1="710.69" y1="618.93" x2="737.08" y2="661.2"/>
        <line class="cls-5" x1="747.75" y1="685.52" x2="762.78" y2="712.54"/>
        <line class="cls-5" x1="725.03" y1="657.19" x2="766.01" y2="727.9"/>
        <line class="cls-5" x1="710.1" y1="645.97" x2="751.31" y2="716.54"/>
        <polygon class="cls-1" points="815.34 593.63 871.55 694.84 865.4 734.06 919.58 726.45 924.76 686.08 866.13 587.66 815.34 593.63"/>
        <path class="cls-3" d="m872.62,618.26s-20.82.56-15.67,20.25c8.86,33.87,34.9,12.34,34.9,12.34"/>
        <line class="cls-3" x1="853.47" y1="642.24" x2="872.59" y2="634.99"/>
        <line class="cls-3" x1="855.67" y1="650.18" x2="876.86" y2="642.81"/>
        <polygon class="cls-4" points="871.55 694.84 924.76 686.08 919.58 726.45 865.12 734.28 871.55 694.84"/>
      </g>
    </g>
    <g>
      <polygon class="cls-2" points="789.56 776.2 705.2 698.99 936.1 589.07 1024.91 659.02 789.56 776.2"/>
      <polygon class="cls-5" points="705.2 698.99 711.67 740.23 794.92 815.25 791.38 775.12 705.2 698.99"/>
      <polygon class="cls-5" points="1024.91 659.52 1029.77 699.44 794.92 815.25 792.44 776.21 1024.91 659.52"/>
      <path class="cls-3" d="m788.35,753.11c-1.11.82-51.29-44.63-51.29-44.63,0,0,8.77-2.85,7.4-12.01-.06-.37,175.69-88.97,178.35-86.91,7.5,5.82,17.67.78,17.67.78l49.43,40.72s-11.56,3.99-4.59,15.14c.51.82-180.65,89.78-180.65,89.78,0,0-6.58-10.02-16.33-2.87Z"/>
      <ellipse class="cls-3" cx="930.97" cy="644.63" rx="10.32" ry="13.48" transform="translate(-190.9 798.43) rotate(-42.51)"/>
      <ellipse class="cls-3" cx="795.98" cy="706.4" rx="10.32" ry="13.48" transform="translate(-268.11 723.46) rotate(-42.51)"/>
      <line class="cls-5" x1="849.73" y1="778.92" x2="914.72" y2="746.65"/>
      <line class="cls-5" x1="959.92" y1="698.89" x2="1024.91" y2="666.62"/>
      <line class="cls-5" x1="964.09" y1="725.98" x2="1029.07" y2="693.72"/>
      <line class="cls-5" x1="936.49" y1="719.12" x2="1001.48" y2="686.86"/>
      <line class="cls-5" x1="1001.48" y1="693.72" x2="1024.91" y2="682.85"/>
      <line class="cls-5" x1="851.47" y1="755.98" x2="874.9" y2="745.12"/>
      <line class="cls-5" x1="793.49" y1="790.71" x2="858.47" y2="758.44"/>
      <line class="cls-5" x1="813.15" y1="787.7" x2="857.72" y2="766.82"/>
      <line class="cls-5" x1="706.9" y1="709.85" x2="744.77" y2="741.69"/>
      <line class="cls-5" x1="762.27" y1="761.45" x2="784.73" y2="782.4"/>
      <line class="cls-5" x1="732.11" y1="741.69" x2="792.44" y2="795.98"/>
      <line class="cls-5" x1="714.52" y1="735.75" x2="775.03" y2="789.82"/>
      <polygon class="cls-1" points="798.77 652.69 882.82 731.16 888.83 770.41 938.05 746.04 930.78 706 845.28 630.95 798.77 652.69"/>
      <path class="cls-3" d="m860.69,657.99s-19.63,7.12-8.78,24.22c18.66,29.41,36.92.7,36.92.7"/>
      <line class="cls-3" x1="849.73" y1="686.86" x2="865.72" y2="673.92"/>
      <line class="cls-3" x1="854.22" y1="693.72" x2="872.15" y2="680.01"/>
      <polygon class="cls-4" points="882.82 731.16 930.78 706 938.05 746.04 888.63 770.71 882.82 731.16"/>
    </g>
    <g>
      <polygon class="cls-2" points="992.65 669.94 976.35 555.34 1222.41 622.53 1246.68 734.47 992.65 669.94"/>
      <polygon class="cls-5" points="976.35 555.34 955.45 591.23 972.26 703.41 994.72 670.3 976.35 555.34"/>
      <polygon class="cls-5" points="1246.36 734.85 1225.05 768.67 972.26 703.41 994.85 671.83 1246.36 734.85"/>
      <path class="cls-3" d="m1006.19,651.43c-1.36-.1-11.35-67.89-11.35-67.89,0,0,8.52,3.57,13.21-4.35.19-.32,190.58,47.03,191.32,50.36,2.11,9.39,13.07,12.2,13.07,12.2l12.39,63.67s-11.37-4.52-13.02,8.6c-.12.97-194.88-49.66-194.88-49.66,0,0,1.24-12-10.73-12.92Z"/>
      <ellipse class="cls-3" cx="1183.63" cy="661.79" rx="10.21" ry="13.62" transform="translate(-50.13 98.97) rotate(-4.69)"/>
      <ellipse class="cls-3" cx="1041.34" cy="620.6" rx="10.21" ry="13.62" transform="translate(-47.24 87.2) rotate(-4.69)"/>
      <line class="cls-5" x1="1037.1" y1="711.5" x2="1107.19" y2="729.39"/>
      <line class="cls-5" x1="1171.82" y1="722.41" x2="1241.9" y2="740.3"/>
      <line class="cls-5" x1="1158.02" y1="745.93" x2="1228.11" y2="763.82"/>
      <line class="cls-5" x1="1141.15" y1="722.56" x2="1211.24" y2="740.46"/>
      <line class="cls-5" x1="1206.94" y1="745.71" x2="1231.73" y2="752.76"/>
      <line class="cls-5" x1="1052.82" y1="695.05" x2="1077.6" y2="702.09"/>
      <line class="cls-5" x1="986.56" y1="683.64" x2="1056.65" y2="701.53"/>
      <line class="cls-5" x1="1003.53" y1="694.23" x2="1050.82" y2="707.47"/>
      <line class="cls-5" x1="970.85" y1="564.79" x2="979.93" y2="614.08"/>
      <line class="cls-5" x1="980.96" y1="640.71" x2="985.05" y2="671.52"/>
      <line class="cls-5" x1="970.21" y1="605.76" x2="982.45" y2="687"/>
      <line class="cls-5" x1="960.44" y1="589.66" x2="972.96" y2="670.85"/>
      <polygon class="cls-1" points="1077.17 581.23 1092.43 696.58 1072.43 730.63 1125.48 744.23 1145 708.75 1126.48 595.07 1077.17 581.23"/>
      <path class="cls-3" d="m1121.34,625.93s-19.52-7.42-21.92,12.82c-4.13,34.81,27.88,24.76,27.88,24.76"/>
      <line class="cls-3" x1="1094.83" y1="640.88" x2="1115.21" y2="641.44"/>
      <line class="cls-3" x1="1093.97" y1="649.09" x2="1116.32" y2="650.33"/>
      <polygon class="cls-4" points="1092.43 696.58 1145 708.75 1125.48 744.23 1072.09 730.72 1092.43 696.58"/>
    </g>
  </g>
  <g id="Ebene_6" data-name="Ebene 6">
    <g>
      <path class="cls-7" d="m1457.98,731.38v-15.05h130.12v15.05s-28.67,6.96-64.51,5.76c-34.22,1.17-65.61-5.76-65.61-5.76Z"/>
      <ellipse class="cls-6" cx="1523.05" cy="716.33" rx="65.06" ry="11.99"/>
    </g>
    <g>
      <path class="cls-7" d="m467.68,714.5v-15.05h130.12v15.05s-28.67,6.96-64.51,5.76c-34.22,1.17-65.61-5.76-65.61-5.76Z"/>
      <ellipse class="cls-6" cx="532.74" cy="699.45" rx="65.06" ry="11.99"/>
    </g>
    <g>
      <path class="cls-7" d="m473.81,698.03v-15.05h130.12v15.05s-28.67,6.96-64.51,5.76c-34.22,1.17-65.61-5.76-65.61-5.76Z"/>
      <ellipse class="cls-6" cx="538.87" cy="682.99" rx="65.06" ry="11.99"/>
    </g>
    <g>
      <path class="cls-7" d="m467.68,678.2v-15.05h130.12v15.05s-28.67,6.96-64.51,5.76c-34.22,1.17-65.61-5.76-65.61-5.76Z"/>
      <ellipse class="cls-6" cx="532.74" cy="663.15" rx="65.06" ry="11.99"/>
    </g>
    <g>
      <path class="cls-7" d="m467.68,660.1v-15.05h130.12v15.05s-28.67,6.96-64.51,5.76c-34.22,1.17-65.61-5.76-65.61-5.76Z"/>
      <ellipse class="cls-6" cx="532.74" cy="645.05" rx="65.06" ry="11.99"/>
    </g>
    <g>
      <path class="cls-7" d="m439.92,898.96v-15.05h130.12v15.05s-28.67,6.96-64.51,5.76c-34.22,1.17-65.61-5.76-65.61-5.76Z"/>
      <ellipse class="cls-6" cx="504.98" cy="883.92" rx="65.06" ry="11.99"/>
    </g>
    <g>
      <path class="cls-7" d="m1017.41,831.76v-20.56h110.79v20.56s-24.41,9.51-54.93,7.87c-29.14,1.6-55.86-7.87-55.86-7.87Z"/>
      <ellipse class="cls-6" cx="1072.8" cy="811.2" rx="55.39" ry="16.38"/>
    </g>
    <g>
      <path class="cls-7" d="m1017.41,813.27v-20.56h110.79v20.56s-24.41,9.51-54.93,7.87c-29.14,1.6-55.86-7.87-55.86-7.87Z"/>
      <ellipse class="cls-6" cx="1072.8" cy="792.72" rx="55.39" ry="16.38"/>
    </g>
    <g>
      <path class="cls-7" d="m1017.41,792.37v-20.56h110.79v20.56s-24.41,9.51-54.93,7.87c-29.14,1.6-55.86-7.87-55.86-7.87Z"/>
      <ellipse class="cls-6" cx="1072.8" cy="771.82" rx="55.39" ry="16.38"/>
    </g>
    <g>
      <path class="cls-7" d="m1027.87,775.09v-20.56h110.79v20.56s-24.41,9.51-54.93,7.87c-29.14,1.6-55.86-7.87-55.86-7.87Z"/>
      <ellipse class="cls-6" cx="1083.26" cy="754.54" rx="55.39" ry="16.38"/>
    </g>
    <g>
      <path class="cls-7" d="m1017.41,755.17v-20.56h110.79v20.56s-24.41,9.51-54.93,7.87c-29.14,1.6-55.86-7.87-55.86-7.87Z"/>
      <ellipse class="cls-6" cx="1072.8" cy="734.62" rx="55.39" ry="16.38"/>
    </g>
    <g>
      <path class="cls-7" d="m150.58,986.31v-15.05h130.12v15.05s-28.67,6.96-64.51,5.76c-34.22,1.17-65.61-5.76-65.61-5.76Z"/>
      <ellipse class="cls-6" cx="215.64" cy="971.26" rx="65.06" ry="11.99"/>
    </g>
    <g>
      <path class="cls-7" d="m119.78,781.79v-12.99h115.87v12.99s-25.53,6.01-57.45,4.97c-30.47,1.01-58.42-4.97-58.42-4.97Z"/>
      <ellipse class="cls-6" cx="177.71" cy="768.79" rx="57.93" ry="10.35"/>
    </g>
    <g>
      <path class="cls-7" d="m866.83,830.46v-12.99h115.87v12.99s-25.53,6.01-57.45,4.97c-30.47,1.01-58.42-4.97-58.42-4.97Z"/>
      <ellipse class="cls-6" cx="924.76" cy="817.47" rx="57.93" ry="10.35"/>
    </g>
    <g>
      <path class="cls-7" d="m824.29,848.94v-12.99h115.87v12.99s-25.53,6.01-57.45,4.97c-30.47,1.01-58.42-4.97-58.42-4.97Z"/>
      <ellipse class="cls-6" cx="882.22" cy="835.95" rx="57.93" ry="10.35"/>
    </g>
    <g>
      <path class="cls-7" d="m1693.06,968.4v-12.99h115.87v12.99s-25.53,6.01-57.45,4.97c-30.47,1.01-58.42-4.97-58.42-4.97Z"/>
      <ellipse class="cls-6" cx="1750.99" cy="955.41" rx="57.93" ry="10.35"/>
    </g>
    <g>
      <path class="cls-7" d="m1282.66,936.91v-15.05h130.12v15.05s-28.67,6.96-64.51,5.76c-34.22,1.17-65.61-5.76-65.61-5.76Z"/>
      <ellipse class="cls-6" cx="1347.72" cy="921.86" rx="65.06" ry="11.99"/>
    </g>
    <g>
      <path class="cls-7" d="m1357.73,953.38v-15.05h130.12v15.05s-28.67,6.96-64.51,5.76c-34.22,1.17-65.61-5.76-65.61-5.76Z"/>
      <ellipse class="cls-6" cx="1422.79" cy="938.33" rx="65.06" ry="11.99"/>
    </g>
  </g>
</svg>