<?xml version="1.0" encoding="UTF-8"?>
<svg id="Ebene_1" data-name="Ebene 1" xmlns="http://www.w3.org/2000/svg" viewBox="0 0 2478.2 410.86">
  <defs>
    <style>
      .cls-1 {
        fill: #f7be28;
      }

      .cls-1, .cls-2, .cls-3, .cls-4, .cls-5, .cls-6, .cls-7, .cls-8, .cls-9, .cls-10, .cls-11, .cls-12, .cls-13, .cls-14, .cls-15, .cls-16, .cls-17, .cls-18, .cls-19, .cls-20 {
        stroke-width: 0px;
      }

      .cls-21 {
        stroke: #cf763b;
        stroke-width: 22px;
      }

      .cls-21, .cls-22 {
        fill: none;
        stroke-miterlimit: 10;
      }

      .cls-2 {
        fill: #5c4843;
      }

      .cls-3 {
        fill: #b5ab81;
      }

      .cls-4 {
        fill: #00a45c;
      }

      .cls-5 {
        fill: #cf773c;
      }

      .cls-6 {
        fill: #f4a638;
      }

      .cls-7 {
        fill: #dce57c;
      }

      .cls-8 {
        fill: #b56100;
      }

      .cls-9 {
        fill: #f5c1b5;
      }

      .cls-10 {
        fill: #fc593d;
      }

      .cls-11 {
        fill: #f5496c;
      }

      .cls-12 {
        fill: #b5d41c;
      }

      .cls-22 {
        stroke: #975144;
        stroke-linecap: round;
      }

      .cls-13 {
        fill: #e6a140;
      }

      .cls-14 {
        fill: #ff8f76;
      }

      .cls-15 {
        fill: #4071e5;
      }

      .cls-16 {
        fill: #fc5c43;
      }

      .cls-17 {
        fill: #f79f92;
      }

      .cls-18 {
        fill: #c43493;
      }

      .cls-19 {
        fill: #ffae3f;
      }

      .cls-20 {
        fill: #b0b93c;
      }
    </style>
  </defs>
  <g id="Ebene_1-2" data-name="Ebene 1">
    <rect class="cls-3" x="455.34" y="174.55" width="1593" height="219.29"/>
  </g>
  <g id="Ebene_4" data-name="Ebene 4">
    <g id="Memory">
      <g>
        <path class="cls-11" d="m1623.54,209.33c2.98,2.25,5.02,5.09,4.24,8.84-.16,1.05-.78,1.95-1.57,2.7-.94,1.05-2.04.9-2.67-.45-.47-1.2-.94-2.4-1.41-3.45-.78-1.5-.78-4.5,0-5.84.31-.6,0-1.35,0-1.95l1.41.15h0Z"/>
        <path class="cls-11" d="m1514.26,310.72c-2.82-.3-5.18-.3-5.81-3.75-.16-1.05-2.04-1.8-2.82-2.85-.94-1.35-1.57-2.7-2.51-4.2,1.41-.15,2.67-.3,4.08-.45,1.73-.15,3.45-.15,5.18-1.2,4.08-2.7,8.95-4.35,11.77-8.54.31-.45,1.57-.9,2.2-.75,1.26.3,3.14,1.05,3.3,1.8.47,2.85,3.14,3.75,4.71,5.54,1.73,2.25,1.26,2.25-.94,4.65-3.45,4.05-8.63,5.24-12.87,7.79-1.73,1.2-4.24,1.35-6.28,1.95h-.01Z"/>
        <path class="cls-1" d="m1621.45,269.81c-1.26,0-2.35-.15-3.45,0-3.14.3-5.02-1.65-5.81-3.75-1.88-5.09-2.98-10.49-4.39-15.88-.31-1.35.16-2.1,1.88-2.1,2.67,0,5.49.45,8-1.2.63-.45,2.82-.75,2.98,1.5.16,1.05,1.41,1.95,1.26,2.85-.94,5.09,2.2,8.99,4.39,13.19.47.9,1.26,1.8,1.41,2.85.16,1.2.63,2.85-1.88,2.7-1.57-.3-2.98-.15-4.39-.15h0Z"/>
        <path class="cls-1" d="m873.02,205.52c-4.55-1.5-9.1-3-13.5-4.65-.47-.15-.78-1.35-.94-2.1-.31-3.6,2.04-5.99,4.71-8.24.47-.3,1.57,0,2.35.3,3.14,1.35,5.96,3.45,9.57,3.75,1.26.15,2.51.6,3.77.9,1.26.3,3.14-.75,3.45.9.31,1.5.78,3.45-1.1,4.94-2.2,2.1-4.24,4.8-8.32,4.2h.01Z"/>
        <path class="cls-11" d="m1059.77,280c-2.51.45-2.51-.75-3.14-2.85-1.41-4.94-2.2-10.49-6.91-14.09-.16-.15.16-1.65.47-1.65,3.14-.3,5.96-2.4,9.26-1.65,2.35.6,3.61,2.25,4.55,4.35,1.26,3,2.67,5.69,2.82,8.99.16,1.65,2.51,3.6,1.1,4.65-1.73,1.35-4.39,1.5-6.75,2.25-.31.15-.94,0-1.41,0h0Z"/>
        <path class="cls-1" d="m1373.65,312.07c-1.57,1.95-2.2,3-2.98,3.75-.47.45-1.73.6-2.2.15-3.61-2.7-7.38-4.94-12.08-5.39-1.41-.15-2.67-1.65-3.92-2.55-1.41-.9-.94-2.4.16-2.55,2.67-.3,3.14-2.4,4.55-3.9,1.57-1.65,4.24-2.25,6.28-1.05,2.82,1.65,5.18,4.2,8.79,4.8,1.26.15,2.67,2.4,2.82,3.9.16,1.2-1.26,2.7-1.41,2.85h-.01Z"/>
        <path class="cls-12" d="m1447.72,288.84c0,3.29-1.62,5.49-4.87,6.59-1.41.45-3.14-.3-4.39,1.35-1.73,2.55-4.71,1.2-7.06,1.35-.63,0-1.88-1.05-1.88-1.8-.16-2.4-.31-4.8,0-7.19.16-.75,2.04-1.65,3.3-1.8,3.14-.45,5.96-1.35,8.63-2.7.63-.3,1.73-.3,1.73-.6.16-1.2.31-2.55,1.88-1.95,1.57.45,2.67,1.5,2.51,3.45,0,1.05.16,2.1.16,3.3h0Z"/>
        <path class="cls-12" d="m1590.69,178.7c.47.75,1.1,1.35,1.41,1.95.63,2.4.63,5.09,2.82,6.59,2.35,1.5,1.41,4.05,3.45,5.69,2.35,1.95,1.26,3.75-2.2,3.6-1.57,0-2.98,2.55-4.55.3-5.65-.45-5.96-5.39-8-8.69-.16-.3-.16-.9,0-1.35,1.1-1.95-3.45-3.3-.63-5.09,2.35-1.2,4.87-1.8,7.69-3h.01Z"/>
        <path class="cls-11" d="m1306.79,187.24c-.31-.3-.47-.6-.78-.9-2.82-2.55,0-6.44-2.67-8.99,0,0,.31-.6.63-.75,1.41-1.2,12.55-6.29,14.6-6.74,1.88-.45,2.82.3,2.98,2.25,0,1.35-.47,3.15.31,3.9,2.67,2.7.31,3.15-1.57,3.75-4.71,1.8-9.73,3-13.03,7.04,0,.15-.31.3-.47.45h0Z"/>
        <path class="cls-11" d="m886.36,258.42c.63,3.45,1.41,6.74,1.88,10.19.31,1.65.47,3.45-2.2,1.2-1.26-1.05-3.3-1.05-5.02-1.35-3.3-.6-3.92-1.2-4.08-4.05v-7.49c0-1.95.31-3.9.47-5.84,2.82,0,5.65-.15,8.47-.15.31,0,.94.9.94,1.35.16,1.95,0,4.05,0,6.14h-.47,0Z"/>
        <path class="cls-12" d="m950.39,326.6c-2.04.45-3.92-.45-5.65-2.1s-3.92-2.7-5.81-4.35c-1.73-1.65-1.41-2.85.63-4.35,1.26-.9,2.51-1.95,3.61-3,1.41-1.35,2.82-2.1,3.14.6.31,2.55,4.24-.6,4.39,2.7,0,1.05,2.98,1.65,3.77,3,1.26,1.8,4.24-.75,4.39,1.95.16,1.5-4.39,5.39-6.12,5.54h-2.35Z"/>
        <path class="cls-1" d="m1282.78,219.76c-4.39.15-6.28-1.2-8.32-3.45-1.88-2.4-2.98-5.24-4.87-7.49-.94-1.2-.31-2.25.78-2.7,2.2-.9,4.39-1.65,6.75-2.4,1.73-.6,2.67.9,3.3,1.95,1.26,1.65,2.51,3.6,2.98,5.54.47,1.8,1.41,2.55,2.67,3.45,2.35,1.5,2.35,2.85-.31,4.05-1.41.3-2.82.9-2.98,1.05Z"/>
        <path class="cls-12" d="m1378.04,203.73c-.78,2.25-2.2,5.84-3.3,9.29-.31.75-.47,1.8-.16,2.25.78.9,1.73,1.95.31,2.7-.78.45-2.35.3-3.3,0-1.57-.75-2.98-1.95-4.39-2.7-1.88-1.2-2.04-3-1.57-4.8.78-3.3,1.73-6.44,2.82-9.74.78-2.55,2.51-3.3,5.34-2.4.63.15,1.26,1.05,1.73.9,2.51-.3,3.14.9,2.51,4.5h0Z"/>
        <path class="cls-15" d="m1107.8,186.94c-.16.45,0,.9-.31,1.2-.78,1.2-1.57,2.55-2.67,3.6-.94.9-2.04,1.65-3.3,1.8-.78.15-1.88-.45-2.82-.75-2.2-.9-4.39-1.8-6.43-2.85-3.61-1.8-3.3-1.95-1.88-5.99.78-2.55,2.82-3,4.55-4.2,1.26-.75,1.1-.3,1.57.6,1.26,3,4.71,3.6,7.06,5.39.78.6,2.2,0,3.45.15.31.15.63.75.78,1.05h0Z"/>
        <path class="cls-15" d="m868.15,324.65c.63-.9,1.1-2.25,2.04-3,2.04-1.5,4.55-2.55,6.75-3.9,1.57-1.05,3.14-1.35,4.24.15,1.26,1.35,3.14,3.6,2.67,4.8-.78,1.95-3.14,3.45-4.87,5.09-1.26-1.95-2.2-.45-2.98.45-.78.75-1.57,1.65-1.88,2.55-.47,1.65-1.73,1.2-2.82,1.05-.63-.15-1.26-.9-1.57-1.5-.47-1.8-.94-3.6-1.57-5.69h0Z"/>
        <path class="cls-11" d="m1057.42,326c1.41.15,2.82.15,4.08.3-.16.75-.63,2.1-.31,2.25,1.88,1.05,3.77,1.95,5.81,2.85.63.3,1.26.3,1.88.6-.47.3-.94.45-1.41.75-.78.45-1.57.9-2.2,1.65-.94,1.2-1.41,2.85-2.51,3.6-1.88,1.05-2.51-1.35-3.77-1.95-.63-.3-1.26-.45-1.88-.45-1.88.15-3.61.15-3.92-2.4,0-.15-1.73-.15-2.51-.45-.63-.3-1.41-1.35-1.26-1.8,1.1-3.6,2.82-4.94,6.75-4.94h1.26-.01Z"/>
        <path class="cls-12" d="m1570.76,344.88c.16-.6.16-1.35.63-1.8,2.82-2.85,2.51-6.29,2.51-9.74,0-.45.78-1.35,1.1-1.35,1.88.45,4.55.45,5.49,1.65,1.26,1.8,2.04,4.35,1.88,6.44-.31,2.55-1.73,5.09-2.98,7.49-.78,1.65-4.39,2.7-6.12,1.65s-2.82-2.25-2.51-4.35h0Z"/>
        <path class="cls-15" d="m1257.98,373.05c0,3.9-.16,4.35-4.55,4.94-2.67.3-4.55,1.5-6.43,3.15-2.04,1.65-2.2,1.65-3.14-1.35-1.88-6.14-1.73-6.44,4.71-8.39,1.57-.6,3.3-1.2,4.87-1.65,2.82-.9,4.24-.3,4.55,2.1v1.2h0Z"/>
        <path class="cls-15" d="m1404.56,368.86c2.51-.15,4.08.45,5.18,3.15.47,1.2.16,3.6,2.82,3.75,1.73.15.94,3.45,3.45,2.85,0,.75.31,1.95,0,2.25-4.55,3.3-11.3,1.65-13.65-3.45-.63-1.5-1.1-3.15-1.41-4.8-.63-3.3,0-3.9,3.61-3.75h0Z"/>
        <path class="cls-1" d="m1459.65,398.08c.63-1.95,1.26-4.05,1.88-5.99.63-1.8,1.26-3.6,1.88-5.24,1.73.9,3.45,1.65,5.02,2.55.63.3,1.57,1.2,1.41,1.65-.78,3.9-1.26,7.79-2.67,11.69-.78,2.1-1.88,1.8-3.14,1.5-3.14-.75-3.92-1.95-4.39-6.14h0v-.02Z"/>
        <path class="cls-11" d="m824.06,349.53c2.2.15,4.08-.45,5.49,2.4.94,1.95,2.2,1.65,2.04,2.55-.78,4.5-2.82,5.54-7.38,3.75-1.73-.75-3.77-1.2-5.49-1.8-1.41-.45-4.08,1.05-3.92-1.05.16-1.35.31-3.75,3.3-4.8,2.2-.75,4.08-.6,5.96-1.05h0Z"/>
        <path class="cls-15" d="m1530.74,184.55h2.82c1.57-.15,2.04.6,1.88,1.95-.16,2.1.47,4.2,1.26,6.29,1.26,3.75-1.41,6.14-5.34,5.24-1.26-.3-2.51-1.8-2.98-3-.47-1.35-.16-3.15-.16-4.65.16-1.65-.31-3-1.73-4.05-.31-.3-.47-.9-.78-1.35.47-.15.78-.3,1.26-.3,1.41-.15,2.67-.15,3.77-.15h0v.02Z"/>
        <path class="cls-12" d="m1178.73,371.56c-.16,2.25-1.26,3.9-3.14,4.05-1.57.15-3.92,1.35-4.87-1.95-.47-1.65-2.2-3.45-2.82-5.54-.63-1.8-2.51-3.3.47-4.5.94-.45,2.04-1.35,2.98-1.2,1.26.15,2.98.6,3.45,1.5,1.57,2.25,2.67,4.94,3.92,7.64h0Z"/>
        <path class="cls-1" d="m1018.81,215.71c1.57,0,2.51-.3,3.3,0,1.57.6,4.39,1.35,4.55,2.25.16,1.65-1.1,3.45-2.2,4.94-.47.6-2.04.6-3.14.75-2.2.45-4.08-2.55-6.75-.15-1.1,1.05-4.08-3-2.82-4.65,1.73-2.25,3.92-4.35,7.06-3.15h0Z"/>
        <path class="cls-15" d="m932.18,199.98c-.16-2.1.31-3.75,2.82-4.5.94-.3,1.88-1.2,2.67-1.95,1.41-1.35,2.51-.75,3.45.45,2.67,3,2.67,3.6-.31,6.14-1.1.9-2.67,1.65-3.92,2.4-.94.6,0,3.15-2.35,2.4-1.88-.6-2.82-2.25-2.51-4.2.16-.3.16-.6.16-.75h-.01Z"/>
        <path class="cls-11" d="m1147.19,276.55c1.41,0,2.51-.3,3.3.15.63.3.78,1.2,1.26,1.8,0,.15-.16.3-.47.45-2.2,1.35.47,4.8-2.04,5.54-1.57.45-3.77-.75-5.65-1.2-.63-.15-1.41,0-2.04,0-.94-.15-2.67.45-2.51-1.35.16-1.35-1.41-3.15,1.57-4.35,2.51-1.05,4.71-.9,6.59-1.05h0Z"/>
        <path class="cls-1" d="m1307.89,275.65c-.63,1.35-1.26,3.6-2.51,5.54-.94,1.65-3.14,1.8-4.71.75s-2.2-3-1.1-4.65c1.26-1.8,2.51-3.45,3.77-5.24.47-.6.78-1.2,1.26-1.8.94.6,2.04,1.05,2.67,1.8.47.75.31,1.8.63,3.6h-.01Z"/>
        <path class="cls-11" d="m1223.3,329c-1.41,2.55-2.67,4.65-4.08,6.74-.63.9-5.34-.3-6.12-1.35-.16-.15,0-.6.16-.9,1.26-1.95,2.51-3.9,3.77-5.84.78-1.35,1.73-3,3.45-2.25,1.1.45,1.73,2.25,2.82,3.6h0Z"/>
        <path class="cls-15" d="m1632.12,330.65c-1.41,0-2.35.3-2.82,0-1.57-1.05-2.98-2.25-4.55-3.45,1.1-1.2,2.2-2.25,4.08-1.95.47.15,1.1-.75,1.73-.9,1.57-.3,3.14-.6,4.71-.3,1.26.3.31,3.3,2.98,2.7,0,0,.31.75.31.9-1.26.9-2.51,1.65-3.92,2.4-.94.3-2.04.45-2.51.6h-.01Z"/>
        <path class="cls-11" d="m1475.65,249.43c-2.51.75-2.2-1.5-2.98-2.55-2.04-2.7,1.57-.75,1.73-1.8.47-1.95,1.1-3.9,3.92-3.6,1.57.15,3.92-.15,4.55.6,1.41,1.65-1.26,2.4-1.88,3.6-1.26,2.1-2.04,4.5-5.34,3.75h0Z"/>
        <path class="cls-12" d="m1177,204.92h-2.04c-1.73,0-2.98-1.65-2.04-3,1.26-1.95,2.67-3.9,4.24-5.69.94-1.05,1.88-.9,2.98,0,2.04,1.8,1.73,3.9.63,5.99-.78,1.65-1.1,4.05-3.77,2.7h0Z"/>
        <path class="cls-11" d="m823.74,208.97c-.16-.6-.47-1.35-.47-1.95,0-.3.63-.6.94-.9,1.41-1.65,2.67-3.45,3.92-5.09,1.26,1.65,2.67,3.3,3.92,5.09.63.75,1.41,1.2,1.88,1.95.16.15-.31,1.05-.63,1.05-2.98-.15-5.96-.15-9.57-.15h.01Zm5.34-2.25c.16.3.31.6.47.9.16-.15.47-.3.47-.45,0-.3-.31-.6-.47-.9-.16.15-.31.3-.47.45h0Z"/>
        <path class="cls-11" d="m1227.54,259.32c0,1.9-.94,2.55-2.82,1.95-1.1-.3-2.2-.45-3.14-.6-2.35-.3-2.82-1.35-2.51-4.05.31-2.25,2.04-1.35,3.14-1.35,3.61.3,5.34,1.65,5.34,4.05h0Z"/>
      </g>
    </g>
  </g>
  <g id="Ebene_4-2" data-name="Ebene 4">
    <g id="Memory-2" data-name="Memory">
      <g>
        <path class="cls-11" d="m808.75,213.23c2.98,2.25,5.02,5.09,4.24,8.84-.16,1.05-.78,1.95-1.57,2.7-.94,1.05-2.04.9-2.67-.45-.47-1.2-.94-2.4-1.41-3.45-.78-1.5-.78-4.5,0-5.84.31-.6,0-1.35,0-1.95l1.41.15h0Z"/>
        <path class="cls-11" d="m699.47,314.62c-2.82-.3-5.18-.3-5.81-3.75-.16-1.05-2.04-1.8-2.82-2.85-.94-1.35-1.57-2.7-2.51-4.2,1.41-.15,2.67-.3,4.08-.45,1.73-.15,3.45-.15,5.18-1.2,4.08-2.7,8.95-4.35,11.77-8.54.31-.45,1.57-.9,2.2-.75,1.26.3,3.14,1.05,3.3,1.8.47,2.85,3.14,3.75,4.71,5.54,1.73,2.25,1.26,2.25-.94,4.65-3.45,4.05-8.63,5.24-12.87,7.79-1.73,1.2-4.24,1.35-6.28,1.95h-.01Z"/>
        <path class="cls-1" d="m806.66,273.71c-1.26,0-2.35-.15-3.45,0-3.14.3-5.02-1.65-5.81-3.75-1.88-5.09-2.98-10.49-4.39-15.88-.31-1.35.16-2.1,1.88-2.1,2.67,0,5.49.45,8-1.2.63-.45,2.82-.75,2.98,1.5.16,1.05,1.41,1.95,1.26,2.85-.94,5.09,2.2,8.99,4.39,13.19.47.9,1.26,1.8,1.41,2.85.16,1.2.63,2.85-1.88,2.7-1.57-.3-2.98-.15-4.39-.15h0Z"/>
        <path class="cls-1" d="m58.23,209.42c-4.55-1.5-9.1-3-13.5-4.65-.47-.15-.78-1.35-.94-2.1-.31-3.6,2.04-5.99,4.71-8.24.47-.3,1.57,0,2.35.3,3.14,1.35,5.96,3.45,9.57,3.75,1.26.15,2.51.6,3.77.9,1.26.3,3.14-.75,3.45.9.31,1.5.78,3.45-1.1,4.94-2.2,2.1-4.24,4.8-8.32,4.2h.01Z"/>
        <path class="cls-11" d="m244.98,283.9c-2.51.45-2.51-.75-3.14-2.85-1.41-4.94-2.2-10.49-6.91-14.09-.16-.15.16-1.65.47-1.65,3.14-.3,5.96-2.4,9.26-1.65,2.35.6,3.61,2.25,4.55,4.35,1.26,3,2.67,5.69,2.82,8.99.16,1.65,2.51,3.6,1.1,4.65-1.73,1.35-4.39,1.5-6.75,2.25-.31.15-.94,0-1.41,0h0Z"/>
        <path class="cls-1" d="m558.86,315.97c-1.57,1.95-2.2,3-2.98,3.75-.47.45-1.73.6-2.2.15-3.61-2.7-7.38-4.94-12.08-5.39-1.41-.15-2.67-1.65-3.92-2.55-1.41-.9-.94-2.4.16-2.55,2.67-.3,3.14-2.4,4.55-3.9,1.57-1.65,4.24-2.25,6.28-1.05,2.82,1.65,5.18,4.2,8.79,4.8,1.26.15,2.67,2.4,2.82,3.9.16,1.2-1.26,2.7-1.41,2.85h-.01Z"/>
        <path class="cls-12" d="m632.93,292.74c0,3.29-1.62,5.49-4.87,6.59-1.41.45-3.14-.3-4.39,1.35-1.73,2.55-4.71,1.2-7.06,1.35-.63,0-1.88-1.05-1.88-1.8-.16-2.4-.31-4.8,0-7.19.16-.75,2.04-1.65,3.3-1.8,3.14-.45,5.96-1.35,8.63-2.7.63-.3,1.73-.3,1.73-.6.16-1.2.31-2.55,1.88-1.95,1.57.45,2.67,1.5,2.51,3.45,0,1.05.16,2.1.16,3.3h0Z"/>
        <path class="cls-12" d="m775.9,182.6c.47.75,1.1,1.35,1.41,1.95.63,2.4.63,5.09,2.82,6.59,2.35,1.5,1.41,4.05,3.45,5.69,2.35,1.95,1.26,3.75-2.2,3.6-1.57,0-2.98,2.55-4.55.3-5.65-.45-5.96-5.39-8-8.69-.16-.3-.16-.9,0-1.35,1.1-1.95-3.45-3.3-.63-5.09,2.35-1.2,4.87-1.8,7.69-3h.01Z"/>
        <path class="cls-11" d="m492,191.14c-.31-.3-.47-.6-.78-.9-2.82-2.55,0-6.44-2.67-8.99,0,0,.31-.6.63-.75,1.41-1.2,12.55-6.29,14.6-6.74,1.88-.45,2.82.3,2.98,2.25,0,1.35-.47,3.15.31,3.9,2.67,2.7.31,3.15-1.57,3.75-4.71,1.8-9.73,3-13.03,7.04,0,.15-.31.3-.47.45h0Z"/>
        <path class="cls-11" d="m71.57,262.32c.63,3.45,1.41,6.74,1.88,10.19.31,1.65.47,3.45-2.2,1.2-1.26-1.05-3.3-1.05-5.02-1.35-3.3-.6-3.92-1.2-4.08-4.05v-7.49c0-1.95.31-3.9.47-5.84,2.82,0,5.65-.15,8.47-.15.31,0,.94.9.94,1.35.16,1.95,0,4.05,0,6.14h-.47,0Z"/>
        <path class="cls-12" d="m135.6,330.5c-2.04.45-3.92-.45-5.65-2.1s-3.92-2.7-5.81-4.35c-1.73-1.65-1.41-2.85.63-4.35,1.26-.9,2.51-1.95,3.61-3,1.41-1.35,2.82-2.1,3.14.6.31,2.55,4.24-.6,4.39,2.7,0,1.05,2.98,1.65,3.77,3,1.26,1.8,4.24-.75,4.39,1.95.16,1.5-4.39,5.39-6.12,5.54h-2.35Z"/>
        <path class="cls-1" d="m467.99,223.66c-4.39.15-6.28-1.2-8.32-3.45-1.88-2.4-2.98-5.24-4.87-7.49-.94-1.2-.31-2.25.78-2.7,2.2-.9,4.39-1.65,6.75-2.4,1.73-.6,2.67.9,3.3,1.95,1.26,1.65,2.51,3.6,2.98,5.54.47,1.8,1.41,2.55,2.67,3.45,2.35,1.5,2.35,2.85-.31,4.05-1.41.3-2.82.9-2.98,1.05Z"/>
        <path class="cls-12" d="m563.25,207.63c-.78,2.25-2.2,5.84-3.3,9.29-.31.75-.47,1.8-.16,2.25.78.9,1.73,1.95.31,2.7-.78.45-2.35.3-3.3,0-1.57-.75-2.98-1.95-4.39-2.7-1.88-1.2-2.04-3-1.57-4.8.78-3.3,1.73-6.44,2.82-9.74.78-2.55,2.51-3.3,5.34-2.4.63.15,1.26,1.05,1.73.9,2.51-.3,3.14.9,2.51,4.5h0Z"/>
        <path class="cls-15" d="m293.01,190.84c-.16.45,0,.9-.31,1.2-.78,1.2-1.57,2.55-2.67,3.6-.94.9-2.04,1.65-3.3,1.8-.78.15-1.88-.45-2.82-.75-2.2-.9-4.39-1.8-6.43-2.85-3.61-1.8-3.3-1.95-1.88-5.99.78-2.55,2.82-3,4.55-4.2,1.26-.75,1.1-.3,1.57.6,1.26,3,4.71,3.6,7.06,5.39.78.6,2.2,0,3.45.15.31.15.63.75.78,1.05h0Z"/>
        <path class="cls-15" d="m53.36,328.55c.63-.9,1.1-2.25,2.04-3,2.04-1.5,4.55-2.55,6.75-3.9,1.57-1.05,3.14-1.35,4.24.15,1.26,1.35,3.14,3.6,2.67,4.8-.78,1.95-3.14,3.45-4.87,5.09-1.26-1.95-2.2-.45-2.98.45-.78.75-1.57,1.65-1.88,2.55-.47,1.65-1.73,1.2-2.82,1.05-.63-.15-1.26-.9-1.57-1.5-.47-1.8-.94-3.6-1.57-5.69h0Z"/>
        <path class="cls-11" d="m242.63,329.9c1.41.15,2.82.15,4.08.3-.16.75-.63,2.1-.31,2.25,1.88,1.05,3.77,1.95,5.81,2.85.63.3,1.26.3,1.88.6-.47.3-.94.45-1.41.75-.78.45-1.57.9-2.2,1.65-.94,1.2-1.41,2.85-2.51,3.6-1.88,1.05-2.51-1.35-3.77-1.95-.63-.3-1.26-.45-1.88-.45-1.88.15-3.61.15-3.92-2.4,0-.15-1.73-.15-2.51-.45-.63-.3-1.41-1.35-1.26-1.8,1.1-3.6,2.82-4.94,6.75-4.94h1.26-.01Z"/>
        <path class="cls-12" d="m755.97,348.78c.16-.6.16-1.35.63-1.8,2.82-2.85,2.51-6.29,2.51-9.74,0-.45.78-1.35,1.1-1.35,1.88.45,4.55.45,5.49,1.65,1.26,1.8,2.04,4.35,1.88,6.44-.31,2.55-1.73,5.09-2.98,7.49-.78,1.65-4.39,2.7-6.12,1.65s-2.82-2.25-2.51-4.35h0Z"/>
        <path class="cls-15" d="m443.19,376.95c0,3.9-.16,4.35-4.55,4.94-2.67.3-4.55,1.5-6.43,3.15-2.04,1.65-2.2,1.65-3.14-1.35-1.88-6.14-1.73-6.44,4.71-8.39,1.57-.6,3.3-1.2,4.87-1.65,2.82-.9,4.24-.3,4.55,2.1v1.2h0Z"/>
        <path class="cls-15" d="m589.77,372.76c2.51-.15,4.08.45,5.18,3.15.47,1.2.16,3.6,2.82,3.75,1.73.15.94,3.45,3.45,2.85,0,.75.31,1.95,0,2.25-4.55,3.3-11.3,1.65-13.65-3.45-.63-1.5-1.1-3.15-1.41-4.8-.63-3.3,0-3.9,3.61-3.75h0Z"/>
        <path class="cls-1" d="m644.86,401.98c.63-1.95,1.26-4.05,1.88-5.99.63-1.8,1.26-3.6,1.88-5.24,1.73.9,3.45,1.65,5.02,2.55.63.3,1.57,1.2,1.41,1.65-.78,3.9-1.26,7.79-2.67,11.69-.78,2.1-1.88,1.8-3.14,1.5-3.14-.75-3.92-1.95-4.39-6.14h0v-.02Z"/>
        <path class="cls-11" d="m9.27,353.43c2.2.15,4.08-.45,5.49,2.4.94,1.95,2.2,1.65,2.04,2.55-.78,4.5-2.82,5.54-7.38,3.75-1.73-.75-3.77-1.2-5.49-1.8-1.41-.45-4.08,1.05-3.92-1.05.16-1.35.31-3.75,3.3-4.8,2.2-.75,4.08-.6,5.96-1.05h0Z"/>
        <path class="cls-15" d="m715.95,188.45h2.82c1.57-.15,2.04.6,1.88,1.95-.16,2.1.47,4.2,1.26,6.29,1.26,3.75-1.41,6.14-5.34,5.24-1.26-.3-2.51-1.8-2.98-3-.47-1.35-.16-3.15-.16-4.65.16-1.65-.31-3-1.73-4.05-.31-.3-.47-.9-.78-1.35.47-.15.78-.3,1.26-.3,1.41-.15,2.67-.15,3.77-.15h0v.02Z"/>
        <path class="cls-12" d="m363.94,375.46c-.16,2.25-1.26,3.9-3.14,4.05-1.57.15-3.92,1.35-4.87-1.95-.47-1.65-2.2-3.45-2.82-5.54-.63-1.8-2.51-3.3.47-4.5.94-.45,2.04-1.35,2.98-1.2,1.26.15,2.98.6,3.45,1.5,1.57,2.25,2.67,4.94,3.92,7.64h0Z"/>
        <path class="cls-1" d="m204.02,219.61c1.57,0,2.51-.3,3.3,0,1.57.6,4.39,1.35,4.55,2.25.16,1.65-1.1,3.45-2.2,4.94-.47.6-2.04.6-3.14.75-2.2.45-4.08-2.55-6.75-.15-1.1,1.05-4.08-3-2.82-4.65,1.73-2.25,3.92-4.35,7.06-3.15h0Z"/>
        <path class="cls-15" d="m117.39,203.88c-.16-2.1.31-3.75,2.82-4.5.94-.3,1.88-1.2,2.67-1.95,1.41-1.35,2.51-.75,3.45.45,2.67,3,2.67,3.6-.31,6.14-1.1.9-2.67,1.65-3.92,2.4-.94.6,0,3.15-2.35,2.4-1.88-.6-2.82-2.25-2.51-4.2.16-.3.16-.6.16-.75h-.01Z"/>
        <path class="cls-11" d="m332.4,280.45c1.41,0,2.51-.3,3.3.15.63.3.78,1.2,1.26,1.8,0,.15-.16.3-.47.45-2.2,1.35.47,4.8-2.04,5.54-1.57.45-3.77-.75-5.65-1.2-.63-.15-1.41,0-2.04,0-.94-.15-2.67.45-2.51-1.35.16-1.35-1.41-3.15,1.57-4.35,2.51-1.05,4.71-.9,6.59-1.05h0Z"/>
        <path class="cls-1" d="m493.1,279.55c-.63,1.35-1.26,3.6-2.51,5.54-.94,1.65-3.14,1.8-4.71.75s-2.2-3-1.1-4.65c1.26-1.8,2.51-3.45,3.77-5.24.47-.6.78-1.2,1.26-1.8.94.6,2.04,1.05,2.67,1.8.47.75.31,1.8.63,3.6h-.01Z"/>
        <path class="cls-11" d="m408.51,332.9c-1.41,2.55-2.67,4.65-4.08,6.74-.63.9-5.34-.3-6.12-1.35-.16-.15,0-.6.16-.9,1.26-1.95,2.51-3.9,3.77-5.84.78-1.35,1.73-3,3.45-2.25,1.1.45,1.73,2.25,2.82,3.6h0Z"/>
        <path class="cls-15" d="m817.33,334.55c-1.41,0-2.35.3-2.82,0-1.57-1.05-2.98-2.25-4.55-3.45,1.1-1.2,2.2-2.25,4.08-1.95.47.15,1.1-.75,1.73-.9,1.57-.3,3.14-.6,4.71-.3,1.26.3.31,3.3,2.98,2.7,0,0,.31.75.31.9-1.26.9-2.51,1.65-3.92,2.4-.94.3-2.04.45-2.51.6h-.01Z"/>
        <path class="cls-11" d="m660.86,253.33c-2.51.75-2.2-1.5-2.98-2.55-2.04-2.7,1.57-.75,1.73-1.8.47-1.95,1.1-3.9,3.92-3.6,1.57.15,3.92-.15,4.55.6,1.41,1.65-1.26,2.4-1.88,3.6-1.26,2.1-2.04,4.5-5.34,3.75h0Z"/>
        <path class="cls-12" d="m362.21,208.82h-2.04c-1.73,0-2.98-1.65-2.04-3,1.26-1.95,2.67-3.9,4.24-5.69.94-1.05,1.88-.9,2.98,0,2.04,1.8,1.73,3.9.63,5.99-.78,1.65-1.1,4.05-3.77,2.7h0Z"/>
        <path class="cls-11" d="m8.95,212.87c-.16-.6-.47-1.35-.47-1.95,0-.3.63-.6.94-.9,1.41-1.65,2.67-3.45,3.92-5.09,1.26,1.65,2.67,3.3,3.92,5.09.63.75,1.41,1.2,1.88,1.95.16.15-.31,1.05-.63,1.05-2.98-.15-5.96-.15-9.57-.15h.01Zm5.34-2.25c.16.3.31.6.47.9.16-.15.47-.3.47-.45,0-.3-.31-.6-.47-.9-.16.15-.31.3-.47.45h0Z"/>
        <path class="cls-11" d="m412.75,263.22c0,1.9-.94,2.55-2.82,1.95-1.1-.3-2.2-.45-3.14-.6-2.35-.3-2.82-1.35-2.51-4.05.31-2.25,2.04-1.35,3.14-1.35,3.61.3,5.34,1.65,5.34,4.05h0Z"/>
      </g>
    </g>
  </g>
  <g id="Ebene_3" data-name="Ebene 3">
    <g>
      <ellipse class="cls-7" cx="1313.79" cy="83.75" rx="20.15" ry="22.91" transform="translate(624.82 1205.52) rotate(-62.09)"/>
      <path class="cls-7" d="m1312.07,82.42c8.4-4.93,26.14-2.07,3.14-26.86-14.79-15.95-23.66-16.5-27.04-14.87-3,1.45-9.43,6.23-2.38,27.24,9.74,29.06,13.59,21.94,26.28,14.49Z"/>
      <ellipse class="cls-2" cx="1290.07" cy="43.95" rx="3.88" ry="2.04" transform="translate(107.11 560.5) rotate(-25.54)"/>
      <path class="cls-2" d="m1288.26,45.7c-3.51-4.92-5.18-12.47-.6-17.19-1.23,2.49-1.38,5.29-.34,7.8.96,2.28,2.63,4.44,4.55,5.94l-3.62,3.45h.01Z"/>
    </g>
    <g>
      <ellipse class="cls-7" cx="1142" cy="61.14" rx="22.91" ry="20.15" transform="translate(533.35 1029.36) rotate(-60.91)"/>
      <path class="cls-7" d="m1143.34,59.49c4.76,8.5,1.53,26.18,26.79,3.7,16.25-14.46,16.99-23.31,15.43-26.72-1.38-3.03-6.03-9.56-27.19-2.95-29.25,9.14-22.22,13.13-15.03,25.97Z"/>
      <ellipse class="cls-2" cx="1182.24" cy="38.3" rx="2.04" ry="3.88" transform="translate(89.38 490.86) rotate(-24.35)"/>
      <path class="cls-2" d="m1180.55,36.44c5-3.41,12.57-4.92,17.2-.24-2.46-1.28-5.26-1.49-7.79-.5-2.3.91-4.5,2.54-6.03,4.43l-3.37-3.69h-.01Z"/>
    </g>
    <g>
      <path class="cls-2" d="m1171.96,66.85c4.85-3.55,5.57-10.43,4.41-16.02l-.68-2.68,1.27,2.49c2.92,6.17,3.18,14.21-1.46,19.69-.11.12-.19.22-.37.39l-3.17-3.86h0Z"/>
      <path class="cls-10" d="m1142.88,65.25c20.54-22.39,29.09,3.43,34.01,2.16,19.4-5.02,33.15,7.13,25.74,23.25s-25.18,24.28-43.33,16.56-28.5-28.79-16.42-41.96h0Z"/>
      <ellipse class="cls-9" cx="1155.64" cy="68.65" rx="6.69" ry="3.86" transform="translate(159.39 658.31) rotate(-34.02)"/>
      <path class="cls-20" d="m1178.24,63.31s-.38-6.85,1.86-8.82c8.06-7.11,18.55-4.87,18.55-4.87,0,0-2.39,10.71-8.39,13.86-6.04,3.17-12.02-.16-12.02-.16h0Z"/>
    </g>
    <g>
      <path class="cls-2" d="m1248.95,30.06c4.85-3.55,5.57-10.43,4.41-16.02l-.68-2.68,1.27,2.49c2.92,6.17,3.18,14.21-1.46,19.69-.11.12-.19.22-.37.39l-3.17-3.86h0Z"/>
      <path class="cls-10" d="m1219.87,28.46c20.54-22.39,29.09,3.43,34.01,2.16,19.4-5.02,33.15,7.13,25.74,23.25-7.41,16.12-25.18,24.28-43.33,16.56s-28.5-28.79-16.42-41.96h0Z"/>
      <ellipse class="cls-9" cx="1232.63" cy="31.85" rx="6.69" ry="3.86" transform="translate(193.15 695.09) rotate(-34.02)"/>
      <path class="cls-20" d="m1255.23,26.52s-.38-6.85,1.86-8.82c8.06-7.11,18.55-4.87,18.55-4.87,0,0-2.39,10.71-8.39,13.86-6.04,3.17-12.02-.16-12.02-.16h0Z"/>
    </g>
    <g>
      <ellipse class="cls-13" cx="1195.25" cy="30.4" rx="18.4" ry="23.76"/>
      <path class="cls-8" d="m1201.43.16c.03.24.08.47.15.67.06.2.12.33.21.52.18.36.35.6.55.87-.06.15-.16.28-.21.45l-.16.55c-.19.78-.3,1.67-.37,2.57-.05.91-.07,1.85-.04,2.79.01.47.03.94.06,1.41-.58.51-1.13,1.03-1.88,1.6-.85-.41-1.47-.88-2.12-1.36-.03-.52-.05-1.04-.07-1.56-.02-1.04-.01-2.09.05-3.15.08-1.07.21-2.16.48-3.3l.26-.87c.12-.3.24-.62.36-.92.41-.18.89-.34,1.32-.4.46-.07.98-.02,1.39.13h.02Z"/>
      <ellipse class="cls-19" cx="1206.01" cy="30.4" rx="18.4" ry="23.76"/>
    </g>
    <g>
      <path class="cls-2" d="m1410.93,260.62c2.85-2.55,4.19-6.37,4.52-10.18.14-2.07-.05-4.19-.46-6.22-.34-1.84-1.23-4.38-1.91-6.15,1.04,1.68,2.4,3.96,3.11,5.78,2.69,6.29,2.75,14.13-1.39,19.88-.11.14-.19.27-.38.47l-3.5-3.58h.01Z"/>
      <path class="cls-10" d="m1376.47,261.4c21.73-28.27,34.36,1.05,39.98-.94,22.18-7.85,39.49,4.96,32.46,24.56-7.02,19.6-26.97,30.95-48.97,23.78-22.01-7.17-36.25-30.76-23.47-47.39h0Z"/>
      <ellipse class="cls-9" cx="1391.74" cy="264.02" rx="7.85" ry="4.53" transform="translate(144 934.69) rotate(-39)"/>
      <path class="cls-20" d="m1417.61,255.52s-1.14-7.96,1.27-10.5c8.7-9.13,21.19-7.59,21.19-7.59,0,0-1.7,12.76-8.4,17.05-6.74,4.32-14.07,1.04-14.07,1.04h.01Z"/>
    </g>
    <g>
      <path class="cls-14" d="m1238.89,70.29c6.2-23.03,21.35-7.38,24.3-9.96,11.63-10.17,25.48-6.1,26.11,7.98.63,14.08-8.74,25.95-24.05,26.55-15.31.6-30-11.03-26.35-24.58h0Z"/>
      <path class="cls-18" d="m1238.89,70.29c6.2-23.03,21.35-7.38,24.3-9.96,11.63-10.17,25.48-6.1,26.11,7.98.63,14.08-8.74,25.95-24.05,26.55-15.31.6-30-11.03-26.35-24.58h0Z"/>
      <ellipse class="cls-9" cx="1248.93" cy="68.4" rx="5.2" ry="3.06" transform="translate(609.13 1143.18) rotate(-62.37)"/>
      <path class="cls-20" d="m1261.79,62.05s-1.47-5.45-.2-7.32c4.59-6.71,12.55-6.22,12.55-6.22,0,0,.14,8.9-3.65,12.17-3.81,3.3-8.71,1.37-8.71,1.37h.01Z"/>
      <path class="cls-20" d="m1260.41,63.5s-5.52.72-7.24-.87c-6.18-5.73-4.91-13.9-4.91-13.9,0,0,8.79,1.16,11.66,5.55,2.88,4.43.5,9.22.5,9.22h-.01Z"/>
    </g>
    <g>
      <path class="cls-14" d="m1172.88,55.17c6.2-23.03,21.35-7.38,24.3-9.96,11.63-10.17,25.48-6.1,26.11,7.98.63,14.08-8.74,25.95-24.05,26.55-15.31.6-30-11.03-26.35-24.58h-.01Z"/>
      <path class="cls-18" d="m1172.88,55.17c6.2-23.03,21.35-7.38,24.3-9.96,11.63-10.17,25.48-6.1,26.11,7.98.63,14.08-8.74,25.95-24.05,26.55-15.31.6-30-11.03-26.35-24.58h-.01Z"/>
      <ellipse class="cls-9" cx="1182.92" cy="53.28" rx="5.2" ry="3.06" transform="translate(587.12 1076.59) rotate(-62.37)"/>
      <path class="cls-20" d="m1195.78,46.94s-1.47-5.45-.2-7.32c4.59-6.71,12.55-6.22,12.55-6.22,0,0,.14,8.9-3.65,12.17-3.81,3.3-8.71,1.37-8.71,1.37h.01Z"/>
      <path class="cls-20" d="m1194.4,48.38s-5.52.72-7.24-.87c-6.18-5.73-4.91-13.9-4.91-13.9,0,0,8.79,1.16,11.66,5.55,2.88,4.43.5,9.22.5,9.22h-.01Z"/>
    </g>
    <g>
      <path class="cls-22" d="m1273.29,74.55c-19.46,5.34-24.76-4.17-24.76-4.17,0,0,9.14-13.38,21.07-14.6"/>
      <path class="cls-16" d="m1267.56,56.39c-1.6,2.62-2.45,5.26,1.96,7.91,3.03,1.82,11.98-2.29,10.94-10.52-.73-5.76-10.27-10.17-14.24-4.51-1.84,2.63,1.33,7.13,1.33,7.13h.01Z"/>
      <ellipse class="cls-17" cx="1270.92" cy="60.5" rx="1.37" ry="2.25" transform="translate(508.3 1078.98) rotate(-55.9)"/>
      <path class="cls-16" d="m1270.73,75.33c-1.6,2.62-2.45,5.26,1.96,7.91,3.03,1.82,11.98-2.29,10.94-10.52-.73-5.76-10.27-10.17-14.24-4.51-1.84,2.63,1.33,7.13,1.33,7.13h.01Z"/>
      <ellipse class="cls-17" cx="1274.17" cy="79.81" rx="1.1" ry="2.25" transform="translate(669.62 1204.26) rotate(-65.32)"/>
      <path class="cls-4" d="m1250.95,69.67c-.71.46-5.79,1.38-9.9,2.06-3.36.56-6.68-.68-8.79-3.29-2.72-3.37-6.16-7.66-6.47-8.21-.52-.93,9.15-5.4,15.14-2.9,9.45,3.94,10.01,12.35,10.01,12.35h0Z"/>
    </g>
    <g>
      <ellipse class="cls-13" cx="1217.7" cy="80.2" rx="18.4" ry="23.76"/>
      <path class="cls-8" d="m1223.88,49.96c.03.24.08.47.15.67.06.2.12.33.21.52.18.36.35.6.55.87-.06.15-.16.28-.21.45l-.16.55c-.19.78-.3,1.67-.37,2.57-.05.91-.07,1.85-.04,2.79.01.47.03.94.06,1.41-.58.51-1.13,1.03-1.88,1.6-.85-.41-1.47-.88-2.12-1.36-.03-.52-.05-1.04-.07-1.56-.02-1.04-.01-2.09.05-3.15.08-1.07.21-2.16.48-3.3l.26-.87c.12-.3.24-.62.36-.92.41-.18.89-.34,1.32-.4.46-.07.98-.02,1.39.13h.02Z"/>
      <ellipse class="cls-19" cx="1228.46" cy="80.2" rx="18.4" ry="23.76"/>
    </g>
    <g>
      <ellipse class="cls-13" cx="1123.51" cy="85.11" rx="18.4" ry="23.76"/>
      <path class="cls-8" d="m1129.69,54.87c.03.24.08.47.15.67.06.2.12.33.21.52.18.36.35.6.55.87-.06.15-.16.28-.21.45l-.16.55c-.19.78-.3,1.67-.37,2.57-.05.91-.07,1.85-.04,2.79.01.47.03.94.06,1.41-.58.51-1.13,1.03-1.88,1.6-.85-.41-1.47-.88-2.12-1.36-.03-.52-.05-1.04-.07-1.56-.02-1.04-.01-2.09.05-3.15.08-1.07.21-2.16.48-3.3l.26-.87c.12-.3.24-.62.36-.92.41-.18.89-.34,1.32-.4.46-.07.98-.02,1.39.13h.02Z"/>
      <ellipse class="cls-19" cx="1134.27" cy="85.11" rx="18.4" ry="23.76"/>
    </g>
  </g>
  <g id="Ebene_2" data-name="Ebene 2">
    <g>
      <path class="cls-5" d="m1091.98,85.35h0c0-4.79,3.88-8.67,8.67-8.67,0,0,92.17,1.24,122.89,1.24,39.16,0,120.78-1.24,120.78-1.24,4.79,0,8.67,3.88,8.67,8.67h0c0,4.79-3.88,8.67-8.67,8.67h-243.68c-4.79,0-8.67-3.88-8.67-8.67h.01Z"/>
      <g>
        <path class="cls-21" d="m1285.33,79.44c6.25-60.72,68.77-59.75,56.35-.18"/>
        <path class="cls-6" d="m1278.98,76.96s13.62-5.62,15.26-9.85c.98-2.54,2.01-7.12,6.18-12.45,3.52-4.5-16.29,4.96-18.79,10.19-1.12,2.34-2.65,12.11-2.65,12.11h0Z"/>
        <path class="cls-6" d="m1286.74,51.09s12.46-5.79,20.23-4.99c.63.06,5.79-4,12.29-5.13,1.25-.22-15.35-8.49-24.93-.7-1.96,1.59-7.59,10.83-7.59,10.83h0Z"/>
        <path class="cls-6" d="m1315.27,27.9c15.74,5.37,8.06,12.51,12.2,15.32,3.9,2.64,4.29,2.34,6.9,7.52.6,1.19,6.47-14.96-3.92-21.44-4.27-2.66-16.27-1.77-15.19-1.4h0Z"/>
        <path class="cls-6" d="m1344.75,42.74c1.25,14.52-6.79,17.3-7.71,22.47-1,5.65-.71,6.44-1.61,11.51-.24,1.33,13.45-4.51,14.11-17.4.3-5.77-4.9-17.8-4.8-16.58h.01Z"/>
      </g>
      <g>
        <path class="cls-21" d="m1160.98,79.15c-6.71-60.72-73.89-59.75-60.54-.18"/>
        <path class="cls-6" d="m1167.8,76.67s-14.64-5.62-16.39-9.85c-1.05-2.54-2.16-7.12-6.64-12.45-3.79-4.5,17.5,4.96,20.19,10.19,1.2,2.34,2.84,12.11,2.84,12.11h0Z"/>
        <path class="cls-6" d="m1159.46,50.79s-13.39-5.79-21.74-4.99c-.68.06-6.22-4-13.2-5.13-1.34-.22,16.49-8.49,26.79-.7,2.1,1.59,8.15,10.83,8.15,10.83h0Z"/>
        <path class="cls-6" d="m1128.81,27.6c-16.91,5.37-8.66,12.51-13.11,15.32-4.19,2.64-4.61,2.34-7.41,7.52-.65,1.19-6.95-14.96,4.21-21.44,4.59-2.66,17.48-1.77,16.32-1.4h-.01Z"/>
        <path class="cls-6" d="m1097.14,42.45c-1.34,14.52,7.3,17.3,8.28,22.47,1.07,5.65.76,6.44,1.73,11.51.25,1.33-14.45-4.51-15.16-17.4-.32-5.77,5.27-17.8,5.15-16.58h0Z"/>
      </g>
      <g>
        <rect class="cls-5" x="1092.9" y="96.5" width="261.23" height="16.72"/>
        <path class="cls-6" d="m1093.88,101.03c-3.7-2.19-5-20.7-.98-19.06,15.54,6.32,26.3,5.08,40.16,0,4.08-1.5,4.06,14.95.96,17.84-5.86,5.47-32.65,5.65-40.14,1.22h0Z"/>
        <path class="cls-6" d="m1137.83,101.03c-3.7-2.19-5-20.7-.98-19.06,15.54,6.32,26.3,5.08,40.16,0,4.08-1.5,4.06,14.95.96,17.84-5.86,5.47-32.65,5.65-40.14,1.22Z"/>
        <path class="cls-6" d="m1181.17,101.03c-3.7-2.19-5-20.7-.98-19.06,15.54,6.32,26.3,5.08,40.16,0,4.08-1.5,4.06,14.95.96,17.84-5.86,5.47-32.65,5.65-40.14,1.22h0Z"/>
        <path class="cls-6" d="m1224.37,101.03c-3.7-2.19-5-20.7-.98-19.06,15.54,6.32,26.3,5.08,40.16,0,4.08-1.5,4.06,14.95.96,17.84-5.86,5.47-32.65,5.65-40.14,1.22h0Z"/>
        <path class="cls-6" d="m1268.19,101.03c-3.7-2.19-5-20.7-.98-19.06,15.54,6.32,26.3,5.08,40.16,0,4.08-1.5,4.06,14.95.96,17.84-5.86,5.47-32.65,5.65-40.14,1.22h0Z"/>
        <path class="cls-6" d="m1312.44,101.03c-3.7-2.19-5-20.7-.98-19.06,15.54,6.32,26.3,5.08,40.16,0,4.08-1.5,4.06,14.95.96,17.84-5.86,5.47-32.65,5.65-40.14,1.22h0Z"/>
        <path class="cls-5" d="m1134.98,80.48h0c3.59,0,6.5,2.91,6.5,6.5v10.68c0,3.59-2.91,6.5-6.5,6.5h0c-3.59,0-6.5-2.91-6.5-6.5v-10.68c0-3.59,2.91-6.5,6.5-6.5Z"/>
        <path class="cls-5" d="m1178.58,80.48h0c3.59,0,6.5,2.91,6.5,6.5v10.68c0,3.59-2.91,6.5-6.5,6.5h0c-3.59,0-6.5-2.91-6.5-6.5v-10.68c0-3.59,2.91-6.5,6.5-6.5Z"/>
        <path class="cls-5" d="m1222.47,81.17h0c3.59,0,6.5,2.91,6.5,6.5v10.68c0,3.59-2.91,6.5-6.5,6.5h0c-3.59,0-6.5-2.91-6.5-6.5v-10.68c0-3.59,2.91-6.5,6.5-6.5Z"/>
        <path class="cls-5" d="m1266.74,81.17h0c3.59,0,6.5,2.91,6.5,6.5v10.68c0,3.59-2.91,6.5-6.5,6.5h0c-3.59,0-6.5-2.91-6.5-6.5v-10.68c0-3.59,2.91-6.5,6.5-6.5Z"/>
        <path class="cls-5" d="m1309.36,81.17h0c3.59,0,6.5,2.91,6.5,6.5v10.68c0,3.59-2.91,6.5-6.5,6.5h0c-3.59,0-6.5-2.91-6.5-6.5v-10.68c0-3.59,2.91-6.5,6.5-6.5Z"/>
      </g>
      <g>
        <rect class="cls-5" x="1092.71" y="121.41" width="261.23" height="16.72"/>
        <path class="cls-6" d="m1093.79,129.07c-4.28-.46-5.21-22.72-1.03-21.54,5.64,1.6,3.94,4.33,17.8-.75,4.08-1.5,5.34,16.51,1.63,18.57-6.89,3.82-10.96,4.52-18.4,3.72Z"/>
        <path class="cls-6" d="m1354.27,128.97c4.22-.82,3.25-23.08-.8-21.55-5.48,2.07-3.55,4.65-17.8.77-4.19-1.14-3.92,16.9-.05,18.64,7.19,3.22,11.31,3.57,18.65,2.14h0Z"/>
        <path class="cls-6" d="m1115.64,125.95c-3.7-2.19-5-20.7-.98-19.06,15.54,6.32,26.3,5.08,40.16,0,4.08-1.5,4.06,14.95.96,17.84-5.86,5.47-32.65,5.65-40.14,1.22Z"/>
        <path class="cls-6" d="m1158.98,125.95c-3.7-2.19-5-20.7-.98-19.06,15.54,6.32,26.3,5.08,40.16,0,4.08-1.5,4.06,14.95.96,17.84-5.86,5.47-32.65,5.65-40.14,1.22Z"/>
        <path class="cls-6" d="m1202.18,125.95c-3.7-2.19-5-20.7-.98-19.06,15.54,6.32,26.3,5.08,40.16,0,4.08-1.5,4.06,14.95.96,17.84-5.86,5.47-32.65,5.65-40.14,1.22h0Z"/>
        <path class="cls-6" d="m1246,125.95c-3.7-2.19-5-20.7-.98-19.06,15.54,6.32,26.3,5.08,40.16,0,4.08-1.5,4.06,14.95.96,17.84-5.86,5.47-32.65,5.65-40.14,1.22h0Z"/>
        <path class="cls-6" d="m1290.25,125.95c-3.7-2.19-5-20.7-.98-19.06,15.54,6.32,26.3,5.08,40.16,0,4.08-1.5,4.06,14.95.96,17.84-5.86,5.47-32.65,5.65-40.14,1.22h0Z"/>
        <path class="cls-5" d="m1112.79,105.39h0c3.59,0,6.5,2.91,6.5,6.5v10.68c0,3.59-2.91,6.5-6.5,6.5h0c-3.59,0-6.5-2.91-6.5-6.5v-10.68c0-3.59,2.91-6.5,6.5-6.5Z"/>
        <path class="cls-5" d="m1156.39,105.39h0c3.59,0,6.5,2.91,6.5,6.5v10.68c0,3.59-2.91,6.5-6.5,6.5h0c-3.59,0-6.5-2.91-6.5-6.5v-10.68c0-3.59,2.91-6.5,6.5-6.5Z"/>
        <path class="cls-5" d="m1200.28,106.09h0c3.59,0,6.5,2.91,6.5,6.5v10.68c0,3.59-2.91,6.5-6.5,6.5h0c-3.59,0-6.5-2.91-6.5-6.5v-10.68c0-3.59,2.91-6.5,6.5-6.5Z"/>
        <path class="cls-5" d="m1244.54,106.09h0c3.59,0,6.5,2.91,6.5,6.5v10.68c0,3.59-2.91,6.5-6.5,6.5h0c-3.59,0-6.5-2.91-6.5-6.5v-10.68c0-3.59,2.91-6.5,6.5-6.5Z"/>
        <path class="cls-5" d="m1287.17,106.09h0c3.59,0,6.5,2.91,6.5,6.5v10.68c0,3.59-2.91,6.5-6.5,6.5h0c-3.59,0-6.5-2.91-6.5-6.5v-10.68c0-3.59,2.91-6.5,6.5-6.5Z"/>
        <path class="cls-5" d="m1330.72,105.39h0c3.59,0,6.5,2.91,6.5,6.5v10.68c0,3.59-2.91,6.5-6.5,6.5h0c-3.59,0-6.5-2.91-6.5-6.5v-10.68c0-3.59,2.91-6.5,6.5-6.5Z"/>
      </g>
      <g>
        <rect class="cls-5" x="1092.9" y="146.02" width="261.23" height="16.72"/>
        <path class="cls-6" d="m1093.88,150.56c-3.7-2.19-5-20.7-.98-19.06,15.54,6.32,26.3,5.08,40.16,0,4.08-1.5,4.06,14.95.96,17.84-5.86,5.47-32.65,5.65-40.14,1.22h0Z"/>
        <path class="cls-6" d="m1137.83,150.56c-3.7-2.19-5-20.7-.98-19.06,15.54,6.32,26.3,5.08,40.16,0,4.08-1.5,4.06,14.95.96,17.84-5.86,5.47-32.65,5.65-40.14,1.22Z"/>
        <path class="cls-6" d="m1181.17,150.56c-3.7-2.19-5-20.7-.98-19.06,15.54,6.32,26.3,5.08,40.16,0,4.08-1.5,4.06,14.95.96,17.84-5.86,5.47-32.65,5.65-40.14,1.22h0Z"/>
        <path class="cls-6" d="m1224.37,150.56c-3.7-2.19-5-20.7-.98-19.06,15.54,6.32,26.3,5.08,40.16,0,4.08-1.5,4.06,14.95.96,17.84-5.86,5.47-32.65,5.65-40.14,1.22h0Z"/>
        <path class="cls-6" d="m1268.19,150.56c-3.7-2.19-5-20.7-.98-19.06,15.54,6.32,26.3,5.08,40.16,0,4.08-1.5,4.06,14.95.96,17.84-5.86,5.47-32.65,5.65-40.14,1.22h0Z"/>
        <path class="cls-6" d="m1312.44,150.56c-3.7-2.19-5-20.7-.98-19.06,15.54,6.32,26.3,5.08,40.16,0,4.08-1.5,4.06,14.95.96,17.84-5.86,5.47-32.65,5.65-40.14,1.22h0Z"/>
        <path class="cls-5" d="m1134.98,130h0c3.59,0,6.5,2.91,6.5,6.5v10.68c0,3.59-2.91,6.5-6.5,6.5h0c-3.59,0-6.5-2.91-6.5-6.5v-10.68c0-3.59,2.91-6.5,6.5-6.5Z"/>
        <path class="cls-5" d="m1178.58,130h0c3.59,0,6.5,2.91,6.5,6.5v10.68c0,3.59-2.91,6.5-6.5,6.5h0c-3.59,0-6.5-2.91-6.5-6.5v-10.68c0-3.59,2.91-6.5,6.5-6.5Z"/>
        <path class="cls-5" d="m1222.47,130.7h0c3.59,0,6.5,2.91,6.5,6.5v10.68c0,3.59-2.91,6.5-6.5,6.5h0c-3.59,0-6.5-2.91-6.5-6.5v-10.68c0-3.59,2.91-6.5,6.5-6.5Z"/>
        <path class="cls-5" d="m1266.74,130.7h0c3.59,0,6.5,2.91,6.5,6.5v10.68c0,3.59-2.91,6.5-6.5,6.5h0c-3.59,0-6.5-2.91-6.5-6.5v-10.68c0-3.59,2.91-6.5,6.5-6.5Z"/>
        <path class="cls-5" d="m1309.36,130.7h0c3.59,0,6.5,2.91,6.5,6.5v10.68c0,3.59-2.91,6.5-6.5,6.5h0c-3.59,0-6.5-2.91-6.5-6.5v-10.68c0-3.59,2.91-6.5,6.5-6.5Z"/>
      </g>
      <g>
        <rect class="cls-5" x="1092.71" y="170.94" width="261.23" height="16.72"/>
        <path class="cls-6" d="m1093.79,178.6c-4.28-.46-5.21-22.72-1.03-21.54,5.64,1.6,3.94,4.33,17.8-.75,4.08-1.5,5.34,16.51,1.63,18.57-6.89,3.82-10.96,4.52-18.4,3.72Z"/>
        <path class="cls-6" d="m1354.27,178.49c4.22-.82,3.25-23.08-.8-21.55-5.48,2.07-3.55,4.65-17.8.77-4.19-1.14-3.92,16.9-.05,18.64,7.19,3.22,11.31,3.57,18.65,2.14h0Z"/>
        <path class="cls-6" d="m1115.64,175.47c-3.7-2.19-5-20.7-.98-19.06,15.54,6.32,26.3,5.08,40.16,0,4.08-1.5,4.06,14.95.96,17.84-5.86,5.47-32.65,5.65-40.14,1.22Z"/>
        <path class="cls-6" d="m1158.98,175.47c-3.7-2.19-5-20.7-.98-19.06,15.54,6.32,26.3,5.08,40.16,0,4.08-1.5,4.06,14.95.96,17.84-5.86,5.47-32.65,5.65-40.14,1.22Z"/>
        <path class="cls-6" d="m1202.18,175.47c-3.7-2.19-5-20.7-.98-19.06,15.54,6.32,26.3,5.08,40.16,0,4.08-1.5,4.06,14.95.96,17.84-5.86,5.47-32.65,5.65-40.14,1.22h0Z"/>
        <path class="cls-6" d="m1246,175.47c-3.7-2.19-5-20.7-.98-19.06,15.54,6.32,26.3,5.08,40.16,0,4.08-1.5,4.06,14.95.96,17.84-5.86,5.47-32.65,5.65-40.14,1.22h0Z"/>
        <path class="cls-6" d="m1290.25,175.47c-3.7-2.19-5-20.7-.98-19.06,15.54,6.32,26.3,5.08,40.16,0,4.08-1.5,4.06,14.95.96,17.84-5.86,5.47-32.65,5.65-40.14,1.22h0Z"/>
        <path class="cls-5" d="m1112.79,154.92h0c3.59,0,6.5,2.91,6.5,6.5v10.68c0,3.59-2.91,6.5-6.5,6.5h0c-3.59,0-6.5-2.91-6.5-6.5v-10.68c0-3.59,2.91-6.5,6.5-6.5Z"/>
        <path class="cls-5" d="m1156.39,154.92h0c3.59,0,6.5,2.91,6.5,6.5v10.68c0,3.59-2.91,6.5-6.5,6.5h0c-3.59,0-6.5-2.91-6.5-6.5v-10.68c0-3.59,2.91-6.5,6.5-6.5Z"/>
        <path class="cls-5" d="m1200.28,155.61h0c3.59,0,6.5,2.91,6.5,6.5v10.68c0,3.59-2.91,6.5-6.5,6.5h0c-3.59,0-6.5-2.91-6.5-6.5v-10.68c0-3.59,2.91-6.5,6.5-6.5Z"/>
        <path class="cls-5" d="m1244.54,155.61h0c3.59,0,6.5,2.91,6.5,6.5v10.68c0,3.59-2.91,6.5-6.5,6.5h0c-3.59,0-6.5-2.91-6.5-6.5v-10.68c0-3.59,2.91-6.5,6.5-6.5Z"/>
        <path class="cls-5" d="m1287.17,155.61h0c3.59,0,6.5,2.91,6.5,6.5v10.68c0,3.59-2.91,6.5-6.5,6.5h0c-3.59,0-6.5-2.91-6.5-6.5v-10.68c0-3.59,2.91-6.5,6.5-6.5Z"/>
        <path class="cls-5" d="m1330.72,154.92h0c3.59,0,6.5,2.91,6.5,6.5v10.68c0,3.59-2.91,6.5-6.5,6.5h0c-3.59,0-6.5-2.91-6.5-6.5v-10.68c0-3.59,2.91-6.5,6.5-6.5Z"/>
      </g>
      <g>
        <rect class="cls-5" x="1091.98" y="194.6" width="261.23" height="16.72"/>
        <path class="cls-6" d="m1092.96,199.14c-3.7-2.19-5-20.7-.98-19.06,15.54,6.32,26.3,5.08,40.16,0,4.08-1.5,4.06,14.95.96,17.84-5.86,5.47-32.65,5.65-40.14,1.22Z"/>
        <path class="cls-6" d="m1136.92,199.14c-3.7-2.19-5-20.7-.98-19.06,15.54,6.32,26.3,5.08,40.16,0,4.08-1.5,4.06,14.95.96,17.84-5.86,5.47-32.65,5.65-40.14,1.22h0Z"/>
        <path class="cls-6" d="m1180.25,199.14c-3.7-2.19-5-20.7-.98-19.06,15.54,6.32,26.3,5.08,40.16,0,4.08-1.5,4.06,14.95.96,17.84-5.86,5.47-32.65,5.65-40.14,1.22h0Z"/>
        <path class="cls-6" d="m1223.46,199.14c-3.7-2.19-5-20.7-.98-19.06,15.54,6.32,26.3,5.08,40.16,0,4.08-1.5,4.06,14.95.96,17.84-5.86,5.47-32.65,5.65-40.14,1.22Z"/>
        <path class="cls-6" d="m1267.28,199.14c-3.7-2.19-5-20.7-.98-19.06,15.54,6.32,26.3,5.08,40.16,0,4.08-1.5,4.06,14.95.96,17.84-5.86,5.47-32.65,5.65-40.14,1.22Z"/>
        <path class="cls-6" d="m1311.53,199.14c-3.7-2.19-5-20.7-.98-19.06,15.54,6.32,26.3,5.08,40.16,0,4.08-1.5,4.06,14.95.96,17.84-5.86,5.47-32.65,5.65-40.14,1.22Z"/>
        <path class="cls-5" d="m1134.06,178.58h0c3.59,0,6.5,2.91,6.5,6.5v10.68c0,3.59-2.91,6.5-6.5,6.5h0c-3.59,0-6.5-2.91-6.5-6.5v-10.68c0-3.59,2.91-6.5,6.5-6.5Z"/>
        <path class="cls-5" d="m1177.67,178.58h0c3.59,0,6.5,2.91,6.5,6.5v10.68c0,3.59-2.91,6.5-6.5,6.5h0c-3.59,0-6.5-2.91-6.5-6.5v-10.68c0-3.59,2.91-6.5,6.5-6.5Z"/>
        <path class="cls-5" d="m1221.56,179.28h0c3.59,0,6.5,2.91,6.5,6.5v10.68c0,3.59-2.91,6.5-6.5,6.5h0c-3.59,0-6.5-2.91-6.5-6.5v-10.68c0-3.59,2.91-6.5,6.5-6.5Z"/>
        <path class="cls-5" d="m1265.82,179.28h0c3.59,0,6.5,2.91,6.5,6.5v10.68c0,3.59-2.91,6.5-6.5,6.5h0c-3.59,0-6.5-2.91-6.5-6.5v-10.68c0-3.59,2.91-6.5,6.5-6.5Z"/>
        <path class="cls-5" d="m1308.44,179.28h0c3.59,0,6.5,2.91,6.5,6.5v10.68c0,3.59-2.91,6.5-6.5,6.5h0c-3.59,0-6.5-2.91-6.5-6.5v-10.68c0-3.59,2.91-6.5,6.5-6.5Z"/>
      </g>
      <g>
        <rect class="cls-5" x="1091.79" y="219.51" width="261.23" height="16.72"/>
        <path class="cls-6" d="m1092.88,227.17c-4.28-.46-5.21-22.72-1.03-21.54,5.64,1.6,3.94,4.33,17.8-.75,4.08-1.5,5.34,16.51,1.63,18.57-6.89,3.82-10.96,4.52-18.4,3.72Z"/>
        <path class="cls-6" d="m1353.35,227.07c4.22-.82,3.25-23.08-.8-21.55-5.48,2.07-3.55,4.65-17.8.77-4.19-1.14-3.92,16.9-.05,18.64,7.19,3.22,11.31,3.57,18.65,2.14h0Z"/>
        <path class="cls-6" d="m1114.73,224.05c-3.7-2.19-5-20.7-.98-19.06,15.54,6.32,26.3,5.08,40.16,0,4.08-1.5,4.06,14.95.96,17.84-5.86,5.47-32.65,5.65-40.14,1.22Z"/>
        <path class="cls-6" d="m1158.06,224.05c-3.7-2.19-5-20.7-.98-19.06,15.54,6.32,26.3,5.08,40.16,0,4.08-1.5,4.06,14.95.96,17.84-5.86,5.47-32.65,5.65-40.14,1.22h0Z"/>
        <path class="cls-6" d="m1201.26,224.05c-3.7-2.19-5-20.7-.98-19.06,15.54,6.32,26.3,5.08,40.16,0,4.08-1.5,4.06,14.95.96,17.84-5.86,5.47-32.65,5.65-40.14,1.22h0Z"/>
        <path class="cls-6" d="m1245.09,224.05c-3.7-2.19-5-20.7-.98-19.06,15.54,6.32,26.3,5.08,40.16,0,4.08-1.5,4.06,14.95.96,17.84-5.86,5.47-32.65,5.65-40.14,1.22Z"/>
        <path class="cls-6" d="m1289.34,224.05c-3.7-2.19-5-20.7-.98-19.06,15.54,6.32,26.3,5.08,40.16,0,4.08-1.5,4.06,14.95.96,17.84-5.86,5.47-32.65,5.65-40.14,1.22Z"/>
        <path class="cls-5" d="m1111.87,203.49h0c3.59,0,6.5,2.91,6.5,6.5v10.68c0,3.59-2.91,6.5-6.5,6.5h0c-3.59,0-6.5-2.91-6.5-6.5v-10.68c0-3.59,2.91-6.5,6.5-6.5Z"/>
        <path class="cls-5" d="m1155.48,203.49h0c3.59,0,6.5,2.91,6.5,6.5v10.68c0,3.59-2.91,6.5-6.5,6.5h0c-3.59,0-6.5-2.91-6.5-6.5v-10.68c0-3.59,2.91-6.5,6.5-6.5Z"/>
        <path class="cls-5" d="m1199.36,204.19h0c3.59,0,6.5,2.91,6.5,6.5v10.68c0,3.59-2.91,6.5-6.5,6.5h0c-3.59,0-6.5-2.91-6.5-6.5v-10.68c0-3.59,2.91-6.5,6.5-6.5Z"/>
        <path class="cls-5" d="m1243.63,204.19h0c3.59,0,6.5,2.91,6.5,6.5v10.68c0,3.59-2.91,6.5-6.5,6.5h0c-3.59,0-6.5-2.91-6.5-6.5v-10.68c0-3.59,2.91-6.5,6.5-6.5Z"/>
        <path class="cls-5" d="m1286.25,204.19h0c3.59,0,6.5,2.91,6.5,6.5v10.68c0,3.59-2.91,6.5-6.5,6.5h0c-3.59,0-6.5-2.91-6.5-6.5v-10.68c0-3.59,2.91-6.5,6.5-6.5Z"/>
        <path class="cls-5" d="m1329.81,203.49h0c3.59,0,6.5,2.91,6.5,6.5v10.68c0,3.59-2.91,6.5-6.5,6.5h0c-3.59,0-6.5-2.91-6.5-6.5v-10.68c0-3.59,2.91-6.5,6.5-6.5Z"/>
      </g>
      <g>
        <polygon class="cls-5" points="1135.33 293.5 1091.98 244.13 1353.22 244.13 1304.93 293.5 1135.33 293.5"/>
        <path class="cls-6" d="m1092.96,248.66c-3.7-2.19-5-20.7-.98-19.06,15.54,6.32,26.3,5.08,40.16,0,4.08-1.5,4.06,14.95.96,17.84-5.86,5.47-32.65,5.65-40.14,1.22Z"/>
        <path class="cls-6" d="m1136.92,248.66c-3.7-2.19-5-20.7-.98-19.06,15.54,6.32,26.3,5.08,40.16,0,4.08-1.5,4.06,14.95.96,17.84-5.86,5.47-32.65,5.65-40.14,1.22h0Z"/>
        <path class="cls-6" d="m1180.25,248.66c-3.7-2.19-5-20.7-.98-19.06,15.54,6.32,26.3,5.08,40.16,0,4.08-1.5,4.06,14.95.96,17.84-5.86,5.47-32.65,5.65-40.14,1.22h0Z"/>
        <path class="cls-6" d="m1223.46,248.66c-3.7-2.19-5-20.7-.98-19.06,15.54,6.32,26.3,5.08,40.16,0,4.08-1.5,4.06,14.95.96,17.84-5.86,5.47-32.65,5.65-40.14,1.22Z"/>
        <path class="cls-6" d="m1267.28,248.66c-3.7-2.19-5-20.7-.98-19.06,15.54,6.32,26.3,5.08,40.16,0,4.08-1.5,4.06,14.95.96,17.84-5.86,5.47-32.65,5.65-40.14,1.22Z"/>
        <path class="cls-6" d="m1311.53,248.66c-3.7-2.19-5-20.7-.98-19.06,15.54,6.32,26.3,5.08,40.16,0,4.08-1.5,4.06,14.95.96,17.84-5.86,5.47-32.65,5.65-40.14,1.22Z"/>
        <path class="cls-5" d="m1134.06,228.11h0c3.59,0,6.5,2.91,6.5,6.5v10.68c0,3.59-2.91,6.5-6.5,6.5h0c-3.59,0-6.5-2.91-6.5-6.5v-10.68c0-3.59,2.91-6.5,6.5-6.5Z"/>
        <path class="cls-5" d="m1177.67,228.11h0c3.59,0,6.5,2.91,6.5,6.5v10.68c0,3.59-2.91,6.5-6.5,6.5h0c-3.59,0-6.5-2.91-6.5-6.5v-10.68c0-3.59,2.91-6.5,6.5-6.5Z"/>
        <path class="cls-5" d="m1221.56,228.8h0c3.59,0,6.5,2.91,6.5,6.5v10.68c0,3.59-2.91,6.5-6.5,6.5h0c-3.59,0-6.5-2.91-6.5-6.5v-10.68c0-3.59,2.91-6.5,6.5-6.5Z"/>
        <path class="cls-5" d="m1265.82,228.8h0c3.59,0,6.5,2.91,6.5,6.5v10.68c0,3.59-2.91,6.5-6.5,6.5h0c-3.59,0-6.5-2.91-6.5-6.5v-10.68c0-3.59,2.91-6.5,6.5-6.5Z"/>
        <path class="cls-5" d="m1308.44,228.8h0c3.59,0,6.5,2.91,6.5,6.5v10.68c0,3.59-2.91,6.5-6.5,6.5h0c-3.59,0-6.5-2.91-6.5-6.5v-10.68c0-3.59,2.91-6.5,6.5-6.5Z"/>
      </g>
      <g>
        <path class="cls-5" d="m1105.37,258c0-2.75,2.23-4.98,4.98-4.98h3.05"/>
        <path class="cls-6" d="m1122.12,280.8c-3.7-2.19-25.62-24.38-16.75-22.81,16.52,2.92,27.83,5.08,41.69,0,4.08-1.5,9.99,15.81,6.89,18.7-5.86,5.47-24.34,8.54-31.83,4.1h0Z"/>
        <path class="cls-6" d="m1158.06,276.15c-3.7-2.19-5-20.7-.98-19.06,15.54,6.32,26.3,5.08,40.16,0,4.08-1.5,4.06,14.95.96,17.84-5.86,5.47-32.65,5.65-40.14,1.22h0Z"/>
        <path class="cls-6" d="m1202.1,276.15c-3.7-2.19-5-20.7-.98-19.06,15.54,6.32,26.3,5.08,40.16,0,4.08-1.5,4.06,14.95.96,17.84-5.86,5.47-32.65,5.65-40.14,1.22Z"/>
        <path class="cls-6" d="m1245.4,276.15c-3.7-2.19-5-20.7-.98-19.06,15.54,6.32,26.3,5.08,40.16,0,4.08-1.5,4.06,14.95.96,17.84-5.86,5.47-32.65,5.65-40.14,1.22Z"/>
        <path class="cls-6" d="m1290.03,276.85c-3.7-2.19-6.5-19.83-2.27-18.86,17.25,3.99,39.02,4.07,52.88-1.01,4.08-1.5-12.85,19.74-19.22,22.98-7.14,3.64-23.9,1.32-31.4-3.11h0Z"/>
        <path class="cls-5" d="m1154.61,254.97h0c3.59,0,6.5,2.91,6.5,6.5v13.31c0,3.59-2.91,6.5-6.5,6.5h0c-3.59,0-6.5-2.91-6.5-6.5v-13.31c0-3.59,2.91-6.5,6.5-6.5Z"/>
        <path class="cls-5" d="m1198.65,256.29h0c3.59,0,6.5,2.91,6.5,6.5v10.68c0,3.59-2.91,6.5-6.5,6.5h0c-3.59,0-6.5-2.91-6.5-6.5v-10.68c0-3.59,2.91-6.5,6.5-6.5Z"/>
        <path class="cls-5" d="m1243.63,253.72h0c3.59,0,6.5,2.91,6.5,6.5v10.68c0,3.59-2.91,6.5-6.5,6.5h0c-3.59,0-6.5-2.91-6.5-6.5v-10.68c0-3.59,2.91-6.5,6.5-6.5Z"/>
        <path class="cls-5" d="m1286.25,253.72h0c3.59,0,6.5,2.91,6.5,6.5v10.68c0,3.59-2.91,6.5-6.5,6.5h0c-3.59,0-6.5-2.91-6.5-6.5v-10.68c0-3.59,2.91-6.5,6.5-6.5Z"/>
      </g>
    </g>
  </g>
  <g id="Ebene_4-3" data-name="Ebene 4">
    <g id="Memory-3" data-name="Memory">
      <g>
        <path class="cls-11" d="m2463.18,215.74c2.98,2.25,5.02,5.09,4.24,8.84-.16,1.05-.78,1.95-1.57,2.7-.94,1.05-2.04.9-2.67-.45-.47-1.2-.94-2.4-1.41-3.45-.78-1.5-.78-4.5,0-5.84.31-.6,0-1.35,0-1.95l1.41.15h0Z"/>
        <path class="cls-11" d="m2353.9,317.13c-2.82-.3-5.18-.3-5.81-3.75-.16-1.05-2.04-1.8-2.82-2.85-.94-1.35-1.57-2.7-2.51-4.2,1.41-.15,2.67-.3,4.08-.45,1.73-.15,3.45-.15,5.18-1.2,4.08-2.7,8.95-4.35,11.77-8.54.31-.45,1.57-.9,2.2-.75,1.26.3,3.14,1.05,3.3,1.8.47,2.85,3.14,3.75,4.71,5.54,1.73,2.25,1.26,2.25-.94,4.65-3.45,4.05-8.63,5.24-12.87,7.79-1.73,1.2-4.24,1.35-6.28,1.95h-.01Z"/>
        <path class="cls-1" d="m2461.09,276.22c-1.26,0-2.35-.15-3.45,0-3.14.3-5.02-1.65-5.81-3.75-1.88-5.09-2.98-10.49-4.39-15.88-.31-1.35.16-2.1,1.88-2.1,2.67,0,5.49.45,8-1.2.63-.45,2.82-.75,2.98,1.5.16,1.05,1.41,1.95,1.26,2.85-.94,5.09,2.2,8.99,4.39,13.19.47.9,1.26,1.8,1.41,2.85.16,1.2.63,2.85-1.88,2.7-1.57-.3-2.98-.15-4.39-.15h0Z"/>
        <path class="cls-1" d="m1712.66,211.93c-4.55-1.5-9.1-3-13.5-4.65-.47-.15-.78-1.35-.94-2.1-.31-3.6,2.04-5.99,4.71-8.24.47-.3,1.57,0,2.35.3,3.14,1.35,5.96,3.45,9.57,3.75,1.26.15,2.51.6,3.77.9,1.26.3,3.14-.75,3.45.9.31,1.5.78,3.45-1.1,4.94-2.2,2.1-4.24,4.8-8.32,4.2h.01Z"/>
        <path class="cls-11" d="m1899.41,286.41c-2.51.45-2.51-.75-3.14-2.85-1.41-4.94-2.2-10.49-6.91-14.09-.16-.15.16-1.65.47-1.65,3.14-.3,5.96-2.4,9.26-1.65,2.35.6,3.61,2.25,4.55,4.35,1.26,3,2.67,5.69,2.82,8.99.16,1.65,2.51,3.6,1.1,4.65-1.73,1.35-4.39,1.5-6.75,2.25-.31.15-.94,0-1.41,0h0Z"/>
        <path class="cls-1" d="m2213.29,318.48c-1.57,1.95-2.2,3-2.98,3.75-.47.45-1.73.6-2.2.15-3.61-2.7-7.38-4.94-12.08-5.39-1.41-.15-2.67-1.65-3.92-2.55-1.41-.9-.94-2.4.16-2.55,2.67-.3,3.14-2.4,4.55-3.9,1.57-1.65,4.24-2.25,6.28-1.05,2.82,1.65,5.18,4.2,8.79,4.8,1.26.15,2.67,2.4,2.82,3.9.16,1.2-1.26,2.7-1.41,2.85h-.01Z"/>
        <path class="cls-12" d="m2287.36,295.25c0,3.29-1.62,5.49-4.87,6.59-1.41.45-3.14-.3-4.39,1.35-1.73,2.55-4.71,1.2-7.06,1.35-.63,0-1.88-1.05-1.88-1.8-.16-2.4-.31-4.8,0-7.19.16-.75,2.04-1.65,3.3-1.8,3.14-.45,5.96-1.35,8.63-2.7.63-.3,1.73-.3,1.73-.6.16-1.2.31-2.55,1.88-1.95,1.57.45,2.67,1.5,2.51,3.45,0,1.05.16,2.1.16,3.3h0Z"/>
        <path class="cls-12" d="m2430.33,185.11c.47.75,1.1,1.35,1.41,1.95.63,2.4.63,5.09,2.82,6.59,2.35,1.5,1.41,4.05,3.45,5.69,2.35,1.95,1.26,3.75-2.2,3.6-1.57,0-2.98,2.55-4.55.3-5.65-.45-5.96-5.39-8-8.69-.16-.3-.16-.9,0-1.35,1.1-1.95-3.45-3.3-.63-5.09,2.35-1.2,4.87-1.8,7.69-3h.01Z"/>
        <path class="cls-11" d="m2146.43,193.65c-.31-.3-.47-.6-.78-.9-2.82-2.55,0-6.44-2.67-8.99,0,0,.31-.6.63-.75,1.41-1.2,12.55-6.29,14.6-6.74,1.88-.45,2.82.3,2.98,2.25,0,1.35-.47,3.15.31,3.9,2.67,2.7.31,3.15-1.57,3.75-4.71,1.8-9.73,3-13.03,7.04,0,.15-.31.3-.47.45h0Z"/>
        <path class="cls-11" d="m1726,264.83c.63,3.45,1.41,6.74,1.88,10.19.31,1.65.47,3.45-2.2,1.2-1.26-1.05-3.3-1.05-5.02-1.35-3.3-.6-3.92-1.2-4.08-4.05v-7.49c0-1.95.31-3.9.47-5.84,2.82,0,5.65-.15,8.47-.15.31,0,.94.9.94,1.35.16,1.95,0,4.05,0,6.14h-.47,0Z"/>
        <path class="cls-12" d="m1790.03,333.01c-2.04.45-3.92-.45-5.65-2.1s-3.92-2.7-5.81-4.35c-1.73-1.65-1.41-2.85.63-4.35,1.26-.9,2.51-1.95,3.61-3,1.41-1.35,2.82-2.1,3.14.6.31,2.55,4.24-.6,4.39,2.7,0,1.05,2.98,1.65,3.77,3,1.26,1.8,4.24-.75,4.39,1.95.16,1.5-4.39,5.39-6.12,5.54h-2.35Z"/>
        <path class="cls-1" d="m2122.42,226.17c-4.39.15-6.28-1.2-8.32-3.45-1.88-2.4-2.98-5.24-4.87-7.49-.94-1.2-.31-2.25.78-2.7,2.2-.9,4.39-1.65,6.75-2.4,1.73-.6,2.67.9,3.3,1.95,1.26,1.65,2.51,3.6,2.98,5.54.47,1.8,1.41,2.55,2.67,3.45,2.35,1.5,2.35,2.85-.31,4.05-1.41.3-2.82.9-2.98,1.05Z"/>
        <path class="cls-12" d="m2217.68,210.14c-.78,2.25-2.2,5.84-3.3,9.29-.31.75-.47,1.8-.16,2.25.78.9,1.73,1.95.31,2.7-.78.45-2.35.3-3.3,0-1.57-.75-2.98-1.95-4.39-2.7-1.88-1.2-2.04-3-1.57-4.8.78-3.3,1.73-6.44,2.82-9.74.78-2.55,2.51-3.3,5.34-2.4.63.15,1.26,1.05,1.73.9,2.51-.3,3.14.9,2.51,4.5h0Z"/>
        <path class="cls-15" d="m1947.44,193.35c-.16.45,0,.9-.31,1.2-.78,1.2-1.57,2.55-2.67,3.6-.94.9-2.04,1.65-3.3,1.8-.78.15-1.88-.45-2.82-.75-2.2-.9-4.39-1.8-6.43-2.85-3.61-1.8-3.3-1.95-1.88-5.99.78-2.55,2.82-3,4.55-4.2,1.26-.75,1.1-.3,1.57.6,1.26,3,4.71,3.6,7.06,5.39.78.6,2.2,0,3.45.15.31.15.63.75.78,1.05h0Z"/>
        <path class="cls-15" d="m1707.79,331.06c.63-.9,1.1-2.25,2.04-3,2.04-1.5,4.55-2.55,6.75-3.9,1.57-1.05,3.14-1.35,4.24.15,1.26,1.35,3.14,3.6,2.67,4.8-.78,1.95-3.14,3.45-4.87,5.09-1.26-1.95-2.2-.45-2.98.45-.78.75-1.57,1.65-1.88,2.55-.47,1.65-1.73,1.2-2.82,1.05-.63-.15-1.26-.9-1.57-1.5-.47-1.8-.94-3.6-1.57-5.69h0Z"/>
        <path class="cls-11" d="m1897.06,332.41c1.41.15,2.82.15,4.08.3-.16.75-.63,2.1-.31,2.25,1.88,1.05,3.77,1.95,5.81,2.85.63.3,1.26.3,1.88.6-.47.3-.94.45-1.41.75-.78.45-1.57.9-2.2,1.65-.94,1.2-1.41,2.85-2.51,3.6-1.88,1.05-2.51-1.35-3.77-1.95-.63-.3-1.26-.45-1.88-.45-1.88.15-3.61.15-3.92-2.4,0-.15-1.73-.15-2.51-.45-.63-.3-1.41-1.35-1.26-1.8,1.1-3.6,2.82-4.94,6.75-4.94h1.26-.01Z"/>
        <path class="cls-12" d="m2410.4,351.29c.16-.6.16-1.35.63-1.8,2.82-2.85,2.51-6.29,2.51-9.74,0-.45.78-1.35,1.1-1.35,1.88.45,4.55.45,5.49,1.65,1.26,1.8,2.04,4.35,1.88,6.44-.31,2.55-1.73,5.09-2.98,7.49-.78,1.65-4.39,2.7-6.12,1.65s-2.82-2.25-2.51-4.35h0Z"/>
        <path class="cls-15" d="m2097.62,379.46c0,3.9-.16,4.35-4.55,4.94-2.67.3-4.55,1.5-6.43,3.15-2.04,1.65-2.2,1.65-3.14-1.35-1.88-6.14-1.73-6.44,4.71-8.39,1.57-.6,3.3-1.2,4.87-1.65,2.82-.9,4.24-.3,4.55,2.1v1.2h0Z"/>
        <path class="cls-15" d="m2244.2,375.27c2.51-.15,4.08.45,5.18,3.15.47,1.2.16,3.6,2.82,3.75,1.73.15.94,3.45,3.45,2.85,0,.75.31,1.95,0,2.25-4.55,3.3-11.3,1.65-13.65-3.45-.63-1.5-1.1-3.15-1.41-4.8-.63-3.3,0-3.9,3.61-3.75h0Z"/>
        <path class="cls-1" d="m2299.29,404.49c.63-1.95,1.26-4.05,1.88-5.99.63-1.8,1.26-3.6,1.88-5.24,1.73.9,3.45,1.65,5.02,2.55.63.3,1.57,1.2,1.41,1.65-.78,3.9-1.26,7.79-2.67,11.69-.78,2.1-1.88,1.8-3.14,1.5-3.14-.75-3.92-1.95-4.39-6.14h0v-.02Z"/>
        <path class="cls-11" d="m1663.7,355.94c2.2.15,4.08-.45,5.49,2.4.94,1.95,2.2,1.65,2.04,2.55-.78,4.5-2.82,5.54-7.38,3.75-1.73-.75-3.77-1.2-5.49-1.8-1.41-.45-4.08,1.05-3.92-1.05.16-1.35.31-3.75,3.3-4.8,2.2-.75,4.08-.6,5.96-1.05h0Z"/>
        <path class="cls-15" d="m2370.38,190.96h2.82c1.57-.15,2.04.6,1.88,1.95-.16,2.1.47,4.2,1.26,6.29,1.26,3.75-1.41,6.14-5.34,5.24-1.26-.3-2.51-1.8-2.98-3-.47-1.35-.16-3.15-.16-4.65.16-1.65-.31-3-1.73-4.05-.31-.3-.47-.9-.78-1.35.47-.15.78-.3,1.26-.3,1.41-.15,2.67-.15,3.77-.15h0v.02Z"/>
        <path class="cls-12" d="m2018.37,377.97c-.16,2.25-1.26,3.9-3.14,4.05-1.57.15-3.92,1.35-4.87-1.95-.47-1.65-2.2-3.45-2.82-5.54-.63-1.8-2.51-3.3.47-4.5.94-.45,2.04-1.35,2.98-1.2,1.26.15,2.98.6,3.45,1.5,1.57,2.25,2.67,4.94,3.92,7.64h0Z"/>
        <path class="cls-1" d="m1858.45,222.12c1.57,0,2.51-.3,3.3,0,1.57.6,4.39,1.35,4.55,2.25.16,1.65-1.1,3.45-2.2,4.94-.47.6-2.04.6-3.14.75-2.2.45-4.08-2.55-6.75-.15-1.1,1.05-4.08-3-2.82-4.65,1.73-2.25,3.92-4.35,7.06-3.15h0Z"/>
        <path class="cls-15" d="m1771.82,206.39c-.16-2.1.31-3.75,2.82-4.5.94-.3,1.88-1.2,2.67-1.95,1.41-1.35,2.51-.75,3.45.45,2.67,3,2.67,3.6-.31,6.14-1.1.9-2.67,1.65-3.92,2.4-.94.6,0,3.15-2.35,2.4-1.88-.6-2.82-2.25-2.51-4.2.16-.3.16-.6.16-.75h-.01Z"/>
        <path class="cls-11" d="m1986.83,282.96c1.41,0,2.51-.3,3.3.15.63.3.78,1.2,1.26,1.8,0,.15-.16.3-.47.45-2.2,1.35.47,4.8-2.04,5.54-1.57.45-3.77-.75-5.65-1.2-.63-.15-1.41,0-2.04,0-.94-.15-2.67.45-2.51-1.35.16-1.35-1.41-3.15,1.57-4.35,2.51-1.05,4.71-.9,6.59-1.05h0Z"/>
        <path class="cls-1" d="m2147.53,282.06c-.63,1.35-1.26,3.6-2.51,5.54-.94,1.65-3.14,1.8-4.71.75s-2.2-3-1.1-4.65c1.26-1.8,2.51-3.45,3.77-5.24.47-.6.78-1.2,1.26-1.8.94.6,2.04,1.05,2.67,1.8.47.75.31,1.8.63,3.6h-.01Z"/>
        <path class="cls-11" d="m2062.94,335.41c-1.41,2.55-2.67,4.65-4.08,6.74-.63.9-5.34-.3-6.12-1.35-.16-.15,0-.6.16-.9,1.26-1.95,2.51-3.9,3.77-5.84.78-1.35,1.73-3,3.45-2.25,1.1.45,1.73,2.25,2.82,3.6h0Z"/>
        <path class="cls-15" d="m2471.76,337.06c-1.41,0-2.35.3-2.82,0-1.57-1.05-2.98-2.25-4.55-3.45,1.1-1.2,2.2-2.25,4.08-1.95.47.15,1.1-.75,1.73-.9,1.57-.3,3.14-.6,4.71-.3,1.26.3.31,3.3,2.98,2.7,0,0,.31.75.31.9-1.26.9-2.51,1.65-3.92,2.4-.94.3-2.04.45-2.51.6h-.01Z"/>
        <path class="cls-11" d="m2315.29,255.84c-2.51.75-2.2-1.5-2.98-2.55-2.04-2.7,1.57-.75,1.73-1.8.47-1.95,1.1-3.9,3.92-3.6,1.57.15,3.92-.15,4.55.6,1.41,1.65-1.26,2.4-1.88,3.6-1.26,2.1-2.04,4.5-5.34,3.75h0Z"/>
        <path class="cls-12" d="m2016.64,211.33h-2.04c-1.73,0-2.98-1.65-2.04-3,1.26-1.95,2.67-3.9,4.24-5.69.94-1.05,1.88-.9,2.98,0,2.04,1.8,1.73,3.9.63,5.99-.78,1.65-1.1,4.05-3.77,2.7h0Z"/>
        <path class="cls-11" d="m1663.38,215.38c-.16-.6-.47-1.35-.47-1.95,0-.3.63-.6.94-.9,1.41-1.65,2.67-3.45,3.92-5.09,1.26,1.65,2.67,3.3,3.92,5.09.63.75,1.41,1.2,1.88,1.95.16.15-.31,1.05-.63,1.05-2.98-.15-5.96-.15-9.57-.15h.01Zm5.34-2.25c.16.3.31.6.47.9.16-.15.47-.3.47-.45,0-.3-.31-.6-.47-.9-.16.15-.31.3-.47.45h0Z"/>
        <path class="cls-11" d="m2067.18,265.73c0,1.9-.94,2.55-2.82,1.95-1.1-.3-2.2-.45-3.14-.6-2.35-.3-2.82-1.35-2.51-4.05.31-2.25,2.04-1.35,3.14-1.35,3.61.3,5.34,1.65,5.34,4.05h0Z"/>
      </g>
    </g>
  </g>
</svg>